<?xml version="1.0" encoding="UTF-8" standalone="no"?>
<svg
   xmlns:dc="http://purl.org/dc/elements/1.1/"
   xmlns:cc="http://creativecommons.org/ns#"
   xmlns:rdf="http://www.w3.org/1999/02/22-rdf-syntax-ns#"
   xmlns:svg="http://www.w3.org/2000/svg"
   xmlns="http://www.w3.org/2000/svg"
   id="svg8"
   version="1.1"
   viewBox="0 0 105.83333 105.83334"
   height="400"
   width="400">
  <defs
     id="defs2" />
  <metadata
     id="metadata5">
    <rdf:RDF>
      <cc:Work
         rdf:about="">
        <dc:format>image/svg+xml</dc:format>
        <dc:type
           rdf:resource="http://purl.org/dc/dcmitype/StillImage" />
        <dc:title></dc:title>
      </cc:Work>
    </rdf:RDF>
  </metadata>
  <g
     id="layer1">
    <path
       style="fill:#000000;stroke:#000000;stroke-width:0.365001;stroke-miterlimit:4;stroke-dasharray:none"
       d="m 57.133921,95.60868 c -0.0915,-1.055021 -0.27283,-4.418542 -0.403018,-7.474482 -0.252281,-5.921849 -0.942541,-16.286509 -1.237851,-18.586979 -0.114731,-0.893781 -0.0809,-1.389066 0.0948,-1.389066 0.48523,0 0.594329,0.773825 0.594329,4.215496 0,1.85816 0.11362,3.72365 0.252481,4.145549 0.138869,0.4219 0.305951,2.076771 0.3713,3.6775 0.181711,4.450961 0.661699,11.373792 0.969651,13.98507 0.268517,2.277002 0.185978,3.345141 -0.25849,3.345141 -0.11929,0 -0.291741,-0.863201 -0.38322,-1.918229 z m -11.695768,-0.0661 c 0.0947,-0.72761 0.277569,-1.858701 0.406497,-2.51355 0.57204,-2.90558 0.843413,-4.221311 1.227821,-5.95312 0.7698,-3.46811 0.907589,-4.100771 1.138081,-5.22552 0.23291,-1.136539 0.714399,-3.39057 1.65318,-7.73906 0.282739,-1.30969 0.62021,-2.976571 0.74993,-3.70417 0.129709,-0.727609 0.36468,-1.62057 0.52215,-1.98438 0.25841,-0.596995 0.27731,-0.558324 0.19395,0.39688 -0.0932,1.06757 -1.053341,6.091158 -1.491829,7.805209 -0.446982,1.74721 -0.78767,3.31243 -1.468512,6.746872 -0.375028,1.891768 -0.794639,3.80523 -0.93246,4.252119 -0.13783,0.4469 -0.2506,1.1298 -0.2506,1.51756 0,0.38776 -0.11475,1.212749 -0.25499,1.8333 -0.14025,0.620549 -0.443659,2.08057 -0.674248,3.244491 -0.485453,2.450409 -1.093351,3.432709 -0.81897,1.323369 z m 23.760848,-1.190631 c -0.31868,-0.50932 -0.579861,-1.178729 -0.580401,-1.48758 -5.29e-4,-0.308848 -0.303691,-1.488839 -0.673661,-2.622208 -0.369969,-1.133372 -0.621908,-2.24989 -0.559858,-2.48117 0.062,-0.23127 0.126619,-0.0931 0.143499,0.307109 0.01691,0.40018 0.14976,0.727599 0.295281,0.727599 0.145518,0 0.264578,0.21576 0.264578,0.47947 0,0.263711 0.23631,0.968571 0.525131,1.566371 1.339951,2.773381 1.781731,5.42236 0.585431,3.510409 z M 33.74762,91.796029 c 0.364995,-0.831299 1.99636,-3.991588 3.119456,-6.043038 0.734634,-1.341882 2.136846,-3.996161 4.892125,-9.260411 0.837821,-1.60073 1.84863,-3.50573 2.246259,-4.233342 0.397632,-0.727598 1.236753,-2.305179 1.864712,-3.505729 0.62796,-1.200544 1.24052,-2.182812 1.36126,-2.182812 0.12073,0 0.21952,0.0578 0.21952,0.128399 0,0.130019 -1.635109,3.280373 -3.7098,7.147642 -0.624551,1.164172 -1.695212,3.188232 -2.37926,4.497922 -0.684041,1.30969 -1.60156,3.036089 -2.03893,3.836459 -1.627878,2.978901 -3.621815,6.780151 -4.094215,7.805211 -0.886545,1.9237 -1.135804,2.337681 -1.475145,2.449941 -0.270359,0.0894 -0.271526,-0.0354 -0.006,-0.640242 z M 62.394039,90.81954 c -0.148738,-0.16723 -0.418708,-1.19702 -0.599927,-2.288421 -0.181221,-1.091409 -0.52284,-2.791058 -0.75915,-3.777009 -0.23631,-0.985949 -0.35329,-1.869001 -0.259961,-1.96233 0.28549,-0.285491 0.487071,0.101859 0.742931,1.427641 0.642348,3.32835 1.252678,6.806838 1.202407,6.852939 -0.0307,0.0282 -0.177549,-0.0856 -0.3263,-0.25282 z M 51.68719,90.05247 c 0.004,-1.321379 0.304782,-2.844271 0.560872,-2.844271 0.259958,0 0.31577,2.64355 0.0694,3.285652 -0.27368,0.713208 -0.633291,0.461359 -0.630229,-0.441381 z M 41.215842,89.16253 c 0.109558,-0.274521 0.420158,-1.153962 0.69021,-1.954332 0.27005,-0.800359 0.90151,-2.586299 1.403239,-3.96875 0.50173,-1.38245 1.059791,-2.93026 1.240139,-3.43958 0.180351,-0.509329 0.43071,-1.039149 0.556382,-1.177399 0.290708,-0.31982 0.30816,0.711859 0.01789,1.058331 -0.115819,0.13825 -0.362871,0.727609 -0.549021,1.30969 -0.18614,0.582089 -0.731398,2.129899 -1.211678,3.439589 -0.48028,1.309679 -1.04938,2.9708 -1.264671,3.69136 -0.215289,0.720569 -0.546741,1.36189 -0.736579,1.425171 -0.244142,0.0814 -0.28684,-0.031 -0.14592,-0.38408 z m 25.580377,-2.232141 c -0.01691,-0.371081 -0.133739,-0.7878 -0.259689,-0.92604 -0.125941,-0.13825 -0.55277,-1.14433 -0.94851,-2.235731 -1.11629,-3.078621 -1.765421,-4.846119 -1.991982,-5.423959 -0.114109,-0.291041 -0.528939,-1.42214 -0.921848,-2.513541 -0.392901,-1.091409 -0.809807,-2.2225 -0.926449,-2.513539 -1.37274,-3.42518 -2.125959,-5.568456 -2.125959,-6.049315 0,-0.73465 0.818971,0.698522 1.415699,2.477434 1.014788,3.02518 2.29707,6.684881 2.549358,7.276039 0.124211,0.291042 0.542592,1.422141 0.92973,2.513542 0.387141,1.091409 0.80563,2.2225 0.929981,2.51355 0.73201,1.713201 1.608781,4.67665 1.50354,5.08191 -0.0854,0.328999 -0.13258,0.26761 -0.153871,-0.20035 z m 5.208582,-0.3175 C 71.797,86.285469 71.464099,85.60086 71.265039,85.091529 70.802561,83.908209 69.4255,81.07145 68.56784,79.535279 c -1.044641,-1.871059 -2.39535,-4.383662 -4.05365,-7.54062 -0.84084,-1.600731 -1.73428,-3.20807 -1.98543,-3.57188 -0.617919,-0.895085 -1.584069,-2.825155 -1.584069,-3.164454 0,-0.717542 0.486871,-0.0696 1.440238,1.91669 0.57385,1.195604 1.109631,2.233345 1.190631,2.306103 0.081,0.0728 0.69148,1.203851 1.356651,2.513541 1.564608,3.080668 2.72506,5.257369 2.89165,5.423959 0.15327,0.15327 2.297739,4.309001 3.618108,7.011461 0.497692,1.01864 1.01932,2.06044 1.159171,2.315099 0.375071,0.682961 -0.15331,0.56575 -0.596339,-0.132289 z M 23.638445,85.152738 c 0,-0.43575 1.734876,-2.330868 9.260058,-10.11537 3.446492,-3.565258 6.592697,-6.839479 6.991578,-7.276045 2.91692,-3.192518 4.12128,-4.269898 4.12128,-3.686778 0,0.1372 -9.710529,10.298303 -13.758332,14.396733 -0.945885,0.95771 -2.82112,2.92717 -4.167188,4.376571 -1.346067,1.449409 -2.447396,2.48661 -2.447396,2.304889 z m 60.718514,-0.921099 c -0.8851,-1.00434 -6.338708,-6.70156 -15.967578,-16.680845 -1.799011,-1.864479 -3.208192,-3.452709 -3.131511,-3.52939 0.28906,-0.28906 1.23389,0.476721 2.567499,2.08094 0.758531,0.912442 3.96844,4.337886 7.13314,7.612104 10.504882,10.86842 11.211351,11.64167 10.636372,11.64167 -0.135822,0 -0.692891,-0.506019 -1.237922,-1.124479 z m -31.878927,-3.18144 c 0,-2.30763 0.107289,-3.931251 0.26628,-4.029509 0.246621,-0.152422 0.0789,7.496238 -0.170731,7.784208 -0.0525,0.0606 -0.0956,-1.628979 -0.0956,-3.754699 z m -20.559152,3.04915 c 1.249749,-2.26315 2.483856,-4.11313 2.888195,-4.329519 0.473379,-0.253352 0.487624,-0.226971 0.184047,0.340738 -0.854724,1.598401 -2.647628,4.187211 -2.899889,4.187211 -0.155065,0 -0.232622,-0.0893 -0.172353,-0.19843 z m 44.38966,-0.57001 c -0.30095,-0.422651 -0.547179,-0.847799 -0.547179,-0.944779 0,-0.174572 -2.35317,-3.588192 -2.649181,-3.843031 -0.275241,-0.23695 -3.35198,-4.613849 -3.669101,-5.21956 -0.243898,-0.46587 -0.237969,-0.561641 0.0283,-0.457059 0.185271,0.0728 0.929931,1.052359 1.654802,2.176859 0.724868,1.124511 1.386898,2.104091 1.471178,2.176849 0.0843,0.0728 0.73945,0.965731 1.455952,1.984372 1.447988,2.05862 1.449319,2.060448 2.320488,3.175 0.727232,0.93041 1.057802,1.719789 0.720191,1.719789 -0.131051,0 -0.4845,-0.3458 -0.78545,-0.76844 z m -16.157599,-3.27289 c 0,-0.379461 -0.10414,-0.754301 -0.23141,-0.832959 -0.12728,-0.0787 -0.312758,-0.829831 -0.412189,-1.669262 -0.0994,-0.83943 -0.244962,-2.062019 -0.323411,-2.71686 -0.0958,-0.799979 -0.055,-1.103818 0.124341,-0.926039 0.31455,0.31175 1.234721,6.443019 1.001901,6.675839 -0.0876,0.0876 -0.159232,-0.151249 -0.159232,-0.530719 z M 24.167612,76.797638 c 0,-0.20805 0.993351,-1.154668 1.984375,-1.891019 0.582084,-0.432502 1.236927,-0.929371 1.455209,-1.10416 0.218281,-0.174799 1.5875,-1.243729 3.042708,-2.3754 1.455209,-1.131681 2.705365,-2.1224 2.778125,-2.2016 0.557316,-0.60669 4.233334,-3.136144 4.233334,-2.912954 0,0.318299 -1.329595,1.5598 -1.684343,1.572749 -0.269592,0.01 -2.767904,1.791184 -3.342741,2.383436 -0.218281,0.224898 -0.873125,0.762759 -1.455208,1.195258 -2.023367,1.503391 -5.37501,4.326371 -5.919377,4.985691 -0.31054,0.376119 -1.092082,0.625161 -1.092082,0.347999 z M 37.478084,76.55955 c 0.479012,-1.333421 3.887448,-5.771362 3.887448,-5.061641 0,0.233559 -0.72386,1.40294 -1.0445,1.68737 -0.376661,0.334119 -1.601341,2.106499 -1.601341,2.31748 0,0.12986 -0.316717,0.524759 -0.703821,0.877549 -0.531595,0.484471 -0.663194,0.528331 -0.537786,0.179242 z M 83.53062,75.890189 c -0.60185,-0.541812 -1.716479,-1.46136 -2.476939,-2.043452 -0.76046,-0.582078 -1.51819,-1.182788 -1.683851,-1.334907 -0.16565,-0.152112 -1.774179,-1.397442 -3.574521,-2.767391 -1.800328,-1.369952 -3.133799,-2.537336 -2.963248,-2.594184 0.28675,-0.0956 3.242328,2.030354 4.785198,3.441965 1.139582,1.042638 3.49196,2.942968 5.344671,4.3176 0.97713,0.724998 1.8366,1.466998 1.909921,1.648899 0.229759,0.569979 -0.207661,0.351949 -1.341231,-0.66853 z m -30.458368,-2.70491 c -0.01029,-1.527961 0.1456,-3.790151 0.346499,-5.027083 l 0.365281,-2.248961 -0.15185,2.778133 c -0.0835,1.527971 -0.239429,3.790151 -0.34649,5.02708 l -0.19466,2.248961 -0.01881,-2.77813 z m -37.106723,2.14425 c 0,-0.29296 1.572226,-1.289831 5.688542,-3.606822 1.746249,-0.982929 4.112773,-2.425178 5.25894,-3.204988 1.823805,-1.240864 2.810851,-1.696764 2.810851,-1.298276 0,0.163412 -1.987551,1.506337 -3.439583,2.324016 -2.805896,1.580089 -7.117333,4.16883 -8.427108,5.059939 -1.437685,0.97813 -1.891642,1.15239 -1.891642,0.726131 z M 92.153269,74.98089 C 91.65069,74.66956 89.632139,73.469248 87.667611,72.31353 84.42216,70.40426 83.353159,69.787058 80.92073,68.418138 75.613469,65.431305 68.651109,61.379425 68.285259,61.064664 c -0.255561,-0.219859 -0.416589,-0.44781 -0.357849,-0.50655 0.135801,-0.1358 3.43166,1.519721 5.260999,2.642621 0.767371,0.47103 1.63044,0.99908 1.917941,1.173451 0.287499,0.174358 1.35614,0.829199 2.37476,1.455197 1.01863,0.626002 1.97113,1.186673 2.116669,1.245921 0.14554,0.0593 0.722961,0.39566 1.28315,0.747561 0.999892,0.628103 1.759691,1.056344 4.670012,2.632105 0.80037,0.433347 1.958859,1.105879 2.574428,1.49452 0.615582,0.388649 1.187651,0.706628 1.271291,0.706628 0.0836,0 0.8851,0.50601 1.781029,1.124482 0.89594,0.618458 1.749161,1.207299 1.89606,1.308528 0.146892,0.101222 0.205481,0.245642 0.130202,0.320932 -0.0753,0.0753 -0.54809,-0.11784 -1.050682,-0.42917 z M 46.657202,74.57431 c 0,-0.109141 0.35706,-1.329531 0.79348,-2.711982 0.436409,-1.382451 0.91993,-2.93026 1.07447,-3.439589 0.47574,-1.567833 1.110279,-2.910414 1.37554,-2.910414 0.138991,0 0.17186,0.20836 0.073,0.463019 -0.479988,1.23703 -1.726919,5.094734 -1.988388,6.151565 -0.4082,1.64987 -0.82064,2.64583 -1.095672,2.64583 -0.127868,0 -0.232489,-0.0893 -0.232478,-0.198429 z M 58.09652,70.779518 c -0.168769,-0.7869 -0.36526,-1.9719 -0.436639,-2.633324 -0.0714,-0.661429 -0.20466,-1.43533 -0.296169,-1.719789 -0.151461,-0.470821 -0.133781,-0.47789 0.197091,-0.0788 0.377848,0.4557 1.151898,4.934704 0.954929,5.525625 -0.0618,0.18538 -0.250439,-0.306761 -0.419212,-1.093671 z m 8.77564,-0.173958 c -0.447601,-0.411612 -0.792361,-0.954302 -1.806941,-2.844276 -0.156239,-0.29105 -0.344278,-0.588698 -0.417869,-0.661459 -0.0736,-0.0728 -0.460539,-0.570841 -0.859891,-1.106831 -0.98621,-1.323639 -0.926571,-1.864029 0.0677,-0.61296 0.43656,0.549341 0.794028,1.071721 0.794369,1.160862 2.59e-4,0.0891 0.32776,0.546539 0.727599,1.016479 0.713221,0.838253 2.31617,3.511203 2.105652,3.511203 -0.0589,0 -0.33365,-0.208359 -0.610571,-0.463018 z M 42.159282,70.139639 c 0,-0.0743 0.59531,-1.08508 1.32292,-2.246064 0.727599,-1.160991 1.322909,-2.179661 1.322909,-2.263722 0,-0.304649 1.392441,-1.969619 1.647211,-1.969619 0.379849,0 0.054,0.70195 -1.228291,2.645841 -0.623941,0.94588 -1.451391,2.225802 -1.83877,2.844274 -0.598969,0.956281 -1.225979,1.462241 -1.225979,0.98929 z M 20.24483,66.734753 c 1.712825,-0.869069 2.864449,-1.248629 2.864449,-0.944089 0,0.137959 -0.156311,0.25082 -0.347358,0.25082 -0.191046,0 -0.964368,0.297662 -1.718493,0.661461 -1.744769,0.841708 -2.450174,0.869799 -0.798598,0.0318 z m 67.99436,0.0578 c -0.631521,-0.289981 -1.077831,-0.59763 -0.991791,-0.683659 0.086,-0.086 0.424141,-0.0302 0.75134,0.123999 0.3272,0.154231 1.011632,0.469202 1.520952,0.699932 0.603118,0.273208 0.741519,0.413829 0.396878,0.403227 -0.291039,-0.009 -1.045869,-0.253518 -1.677379,-0.543499 z m -55.286239,-1.35592 c 1.112417,-0.910709 7.245221,-4.707868 7.86577,-4.870148 1.07333,-0.280681 0.309181,0.562959 -1.242179,1.371388 -1.854999,0.966661 -5.437945,3.084902 -5.619346,3.322172 -0.183764,0.24035 -1.241925,0.78345 -1.503961,0.771901 -0.118708,-0.005 0.106165,-0.273122 0.499716,-0.595313 z m 53.342128,0.424082 c 0.191,-0.0764 0.419201,-0.067 0.507122,0.0209 0.0879,0.0879 -0.0684,0.15045 -0.347261,0.138959 -0.308231,-0.0127 -0.370919,-0.0754 -0.159861,-0.159851 z m -62.127467,-0.77997 c 0.509323,-0.23073 1.164167,-0.509741 1.455208,-0.620041 0.291042,-0.110288 0.85641,-0.355539 1.256373,-0.545009 0.399963,-0.189461 0.799785,-0.271899 0.888493,-0.18319 0.164537,0.164539 -1.354598,0.877221 -2.462655,1.15533 -0.337289,0.0846 -0.678685,0.259781 -0.758659,0.389181 -0.07997,0.129399 -0.40627,0.232568 -0.725104,0.229248 -0.455659,-0.005 -0.381551,-0.0958 0.346344,-0.425519 z m 44.596239,-0.6125 c -0.560721,-0.57423 -1.596681,-1.437431 -2.302142,-1.918232 -0.705459,-0.480798 -1.282888,-0.96978 -1.283169,-1.08662 -2.64e-4,-0.116848 0.888418,0.408202 1.97489,1.166781 2.264789,1.58128 3.62903,2.88212 3.02259,2.88212 -0.21598,0 -0.851451,-0.469818 -1.412169,-1.044049 z m 16.191778,0.86882 c 0.181901,-0.0734 0.47956,-0.0734 0.661461,0 0.181901,0.0734 0.0331,0.133451 -0.330729,0.133451 -0.3638,0 -0.512631,-0.0601 -0.330732,-0.133451 z m -1.0418,-0.53468 c 0.191,-0.0764 0.419201,-0.067 0.507122,0.0209 0.0879,0.0879 -0.0683,0.15045 -0.347261,0.138959 -0.308231,-0.0127 -0.370919,-0.0754 -0.159861,-0.159848 z m -1.767099,-0.51562 c -0.489871,-0.213731 -0.82414,-0.45515 -0.742799,-0.53648 0.18724,-0.18724 1.765758,0.49956 1.765758,0.76826 0,0.110001 -0.0298,0.19028 -0.0661,0.178419 -0.0364,-0.01191 -0.46695,-0.196458 -0.95682,-0.410199 z M 11.313831,63.694984 c 0.06746,-0.109159 1.290522,-0.472929 2.717908,-0.808378 1.427387,-0.335442 2.833374,-0.703422 3.124415,-0.817732 1.903073,-0.747408 5.080874,-1.395569 5.278046,-1.07654 0.198651,0.32143 -0.968646,0.716482 -3.558254,1.204241 -1.236927,0.232979 -2.546615,0.52474 -2.910417,0.648351 -2.03293,0.69074 -4.874123,1.209939 -4.651698,0.850058 z m 85.08503,0.0505 c -0.3638,-0.059 -0.899581,-0.207811 -1.19062,-0.330692 -0.607581,-0.256518 -1.91189,-0.621167 -4.36563,-1.220509 -2.391051,-0.58402 -3.703342,-0.91489 -4.630211,-1.167419 -0.90033,-0.2453 -2.81962,-0.70199 -3.902599,-0.928621 -0.400191,-0.0837 -0.727612,-0.281959 -0.727612,-0.440489 0,-0.18606 0.257921,-0.218011 0.727612,-0.0901 0.400179,0.10895 1.203849,0.28802 1.785929,0.397941 0.582089,0.109919 1.71318,0.392398 2.51355,0.627719 0.800359,0.23532 1.845051,0.50192 2.321531,0.592449 0.476469,0.0905 0.929978,0.267603 1.007798,0.393513 0.0778,0.125909 0.551172,0.22892 1.051912,0.22892 0.500729,0 0.91042,0.106558 0.91042,0.236789 0,0.130241 0.44649,0.298759 0.992188,0.374499 1.077822,0.149579 3.359211,0.631071 4.101041,0.865531 0.441921,0.139668 0.678209,0.678918 0.264589,0.603819 -0.109138,-0.01979 -0.496099,-0.0843 -0.859898,-0.143298 z m -67.651904,-0.50918 c 0.408588,-0.221511 0.94437,-0.349609 1.190625,-0.284681 0.318461,0.084 0.27585,0.12691 -0.147574,0.148752 -0.327422,0.01691 -0.595312,0.149749 -0.595312,0.295269 0,0.145519 -0.267891,0.259819 -0.595313,0.25399 -0.555895,-0.01 -0.546124,-0.0373 0.147574,-0.41333 z m 51.247732,0.15934 c 0,-0.14552 -0.267888,-0.278391 -0.59531,-0.295269 -0.423418,-0.0218 -0.466029,-0.0648 -0.147569,-0.148752 0.24625,-0.0649 0.782029,0.0632 1.19062,0.284681 0.6937,0.376069 0.703469,0.40344 0.147579,0.41333 -0.32743,0.006 -0.59532,-0.108471 -0.59532,-0.25399 z M 42.104151,62.704906 c 0.367911,-0.687441 1.344981,-1.54718 1.538449,-1.353712 0.231212,0.231201 -0.0737,0.62375 -0.992777,1.2782 -0.738482,0.525851 -0.790541,0.53305 -0.545672,0.0755 z M 30.980633,62.415174 c 0.327422,-0.0631 0.595313,-0.225449 0.595313,-0.36085 0,-0.1354 0.166126,-0.246179 0.36917,-0.246179 0.331449,0 2.364664,-0.807661 5.319372,-2.11302 3.094024,-1.366909 3.686273,-1.591011 4.200824,-1.589522 0.505878,0.0021 0.49204,0.038 -0.13934,0.367393 -0.385561,0.201168 -1.695241,0.747038 -2.910414,1.213038 -1.215173,0.46601 -2.626122,1.027199 -3.135445,1.247089 -0.509323,0.21989 -1.164167,0.490231 -1.455209,0.600742 -0.291041,0.110509 -0.979691,0.396028 -1.530331,0.634479 -0.550641,0.23845 -1.205484,0.41734 -1.455209,0.39752 -0.287308,-0.02281 -0.235434,-0.0781 0.141269,-0.15069 z m 46.103647,-0.15421 c -0.36381,-0.18573 -1.19724,-0.50409 -1.852091,-0.707491 -0.654839,-0.203398 -1.30968,-0.447479 -1.455209,-0.542387 -0.145521,-0.0949 -0.681299,-0.328192 -1.190619,-0.518372 -0.509321,-0.19018 -1.521363,-0.616109 -2.248961,-0.94651 -0.727599,-0.330398 -1.501511,-0.661599 -1.719789,-0.73601 -0.298771,-0.10183 -0.277472,-0.140441 0.0862,-0.15616 0.265681,-0.01151 2.231872,0.693492 4.3693,1.566611 2.137442,0.873131 4.03342,1.5875 4.213302,1.5875 0.17988,0 0.327049,0.110779 0.327049,0.246179 0,0.135401 0.26789,0.297781 0.59532,0.36085 0.515279,0.0992 0.524179,0.119282 0.0661,0.149061 -0.291042,0.01889 -0.82682,-0.117549 -1.190622,-0.303271 z M 26.284279,59.823776 c 0.363802,-0.207971 0.89113,-0.382352 1.17184,-0.387501 0.28071,-0.005 0.876023,-0.12165 1.322916,-0.258871 0.446895,-0.13721 1.645973,-0.444558 2.664619,-0.683001 1.018646,-0.238429 2.090209,-0.529907 2.38125,-0.647729 2.139014,-0.86592 5.688537,-1.58932 5.688537,-1.159341 0,0.270762 -1.272749,0.662631 -4.233328,1.303412 -1.091407,0.23622 -2.257867,0.53693 -2.592137,0.66824 -0.334269,0.13131 -0.841901,0.238738 -1.128069,0.238738 -0.286171,0 -0.727051,0.104902 -0.979739,0.233101 -0.606896,0.307919 -3.853519,1.09238 -4.471608,1.080439 -0.393502,-0.008 -0.360134,-0.0812 0.175719,-0.387487 z M 74.87384,58.359423 c -0.70643,-0.268359 -2.16494,-0.69551 -3.241149,-0.949229 -1.076211,-0.25372 -1.956752,-0.558599 -1.956752,-0.677508 0,-0.387652 1.777862,-0.103931 3.57188,0.570007 1.187781,0.446212 2.44303,0.80128 2.832682,0.80128 0.227618,0 0.81448,0.17394 1.304129,0.386522 l 0.89027,0.38652 -1.058331,-0.01479 c -0.582089,-0.008 -1.636318,-0.234399 -2.342729,-0.502758 z M 17.023863,56.781065 c 0.533457,-0.34475 2.726607,-0.34475 2.513541,0 -0.08994,0.145521 -0.781572,0.26276 -1.536969,0.26053 -0.984337,-0.003 -1.261009,-0.0767 -0.976572,-0.26053 z m 71.040628,0 c -0.29105,-0.125071 -1.184021,-0.239379 -1.98438,-0.254029 -0.90922,-0.01659 -1.306301,-0.107371 -1.058331,-0.2418 0.467939,-0.253691 6.081551,0.140398 6.94527,0.487568 0.433279,0.17416 0.0552,0.2388 -1.38902,0.237469 -1.091409,-0.0011 -2.2225,-0.104148 -2.513539,-0.229208 z M 25.556675,55.797804 c 0.400182,-0.0606 1.055026,-0.0606 1.455208,0 0.400182,0.0606 0.07276,0.11022 -0.727604,0.11022 -0.800365,0 -1.127787,-0.0496 -0.727604,-0.11022 z m 53.132274,-0.110879 c -0.790909,-0.131191 -1.505289,-0.307221 -1.5875,-0.391181 -0.150159,-0.153371 1.326782,-0.0416 5.009912,0.37927 l 1.984369,0.226729 -1.984369,0.01191 c -1.091412,0.007 -2.631491,-0.0955 -3.422412,-0.226668 z M 30.71605,55.266743 c 0.472943,-0.0587 1.246849,-0.0587 1.719792,0 0.472942,0.0587 0.08599,0.106723 -0.859896,0.106723 -0.945886,0 -1.332839,-0.048 -0.859896,-0.106723 z m 4.564063,-0.33777 c 0,-0.145518 0.565547,-0.26276 1.256771,-0.260529 0.908968,0.003 1.14694,0.075 0.859896,0.260529 -0.523097,0.338061 -2.116667,0.338061 -2.116667,0 z m 35.718748,0 c -0.218282,-0.141059 -1.021951,-0.25831 -1.785941,-0.260529 -0.855011,-0.0021 -1.389059,-0.119169 -1.389059,-0.30347 0,-0.202858 0.362648,-0.243951 1.124479,-0.127399 0.618461,0.0946 1.74956,0.246009 2.513539,0.336439 0.763981,0.0904 1.38906,0.266821 1.38906,0.39198 0,0.308721 -1.359128,0.281562 -1.852078,-0.037 z m -31.48542,-0.529558 c 0.654849,-0.10931 1.369222,-0.098 1.5875,0.02511 0.24755,0.13961 -0.20043,0.214392 -1.19062,0.19875 l -1.5875,-0.02511 z m -2.645828,-1.851681 c -0.504812,-0.161668 -0.301172,-0.21808 0.859896,-0.23821 0.855432,-0.01479 1.521352,0.0894 1.521352,0.23821 0,0.307681 -1.420522,0.307681 -2.381248,0 z m 32.808326,0.071 c 0,-0.331952 3.010212,-0.50482 15.08125,-0.86609 5.020471,-0.150251 10.086811,-0.39003 11.258531,-0.53282 2.942521,-0.358601 3.485769,-0.34602 3.06869,0.0711 -0.231891,0.231909 -2.085771,0.389069 -6.204479,0.525981 -7.31321,0.243109 -16.008911,0.623649 -20.09513,0.879419 -2.080131,0.130202 -3.108862,0.104532 -3.108862,-0.0776 z m -46.56666,-0.60021 c 0,-0.29455 2.654238,-0.298471 7.408333,-0.0109 2.88072,0.174242 2.76451,0.186471 -2.182812,0.22978 -3.337789,0.0292 -5.225521,-0.0499 -5.225521,-0.21885 z M 10.045726,51.482495 c 0.182732,-0.182732 1.821371,-0.19567 5.013854,-0.0396 l 4.742408,0.231849 -5.013855,0.0396 c -3.427086,0.0271 -4.9279484,-0.0463 -4.742407,-0.231849 z m 27.88022,-1.07882 c -0.654843,-0.121682 -1.638213,-0.297521 -2.185265,-0.39076 -0.547053,-0.0932 -1.060093,-0.275421 -1.140095,-0.404871 -0.08,-0.12944 -0.584912,-0.23754 -1.122027,-0.240221 -1.480449,-0.007 -5.419543,-0.757639 -5.729877,-1.091319 -0.279846,-0.30091 0.547784,-0.214061 3.298097,0.346081 0.654844,0.133368 1.785938,0.351628 2.513542,0.48501 0.727604,0.133379 2.334948,0.42786 3.571875,0.654399 1.236928,0.226539 2.725206,0.515591 3.307295,0.642329 l 1.05833,0.230442 -1.19063,-0.005 c -0.654841,-0.003 -1.726401,-0.104489 -2.381245,-0.226168 z m 30.294784,0.0274 c 0.738471,-0.31733 1.519039,-0.31733 1.32292,0 -0.0899,0.145519 -0.543449,0.25621 -1.007801,0.245989 -0.711679,-0.01569 -0.761169,-0.0543 -0.315119,-0.245989 z m 4.79697,-0.798189 c 1.24251,-0.388343 4.070829,-0.731901 4.207298,-0.511083 0.138531,0.224142 -1.183079,0.472221 -3.448018,0.64725 -1.306041,0.100931 -1.440661,0.0768 -0.75928,-0.136167 z m 5.06185,-0.976443 c 0.32912,-0.0633 0.80537,-0.0609 1.05833,0.005 0.252969,0.0662 -0.0163,0.118002 -0.5984,0.11507 -0.58208,-0.003 -0.789051,-0.0571 -0.45993,-0.120409 z M 38.455113,48.177225 c -0.654844,-0.17852 -1.823945,-0.57939 -2.598002,-0.89081 -0.774055,-0.31142 -2.143273,-0.81222 -3.042709,-1.11288 -1.684491,-0.563102 -2.471452,-1.034132 -1.727729,-1.034132 0.425352,0 1.817029,0.40572 2.738231,0.798291 0.291042,0.124031 1.481667,0.542261 2.645834,0.929409 2.634094,0.87598 3.692403,1.345502 3.400544,1.508641 -0.12405,0.0693 -0.76132,-0.02 -1.416169,-0.198519 z m 42.068748,0.142219 c 0,-0.148289 0.377028,-0.269619 0.837848,-0.269619 0.963422,0 0.92851,0.115499 -0.11025,0.364689 -0.43194,0.103629 -0.727598,0.065 -0.727598,-0.0951 z m -11.23156,-0.239509 c 0.138239,-0.128961 1.14432,-0.498221 2.235729,-0.820581 1.091401,-0.322361 2.2225,-0.68915 2.513539,-0.8151 0.291042,-0.12596 1.600732,-0.580509 2.910411,-1.010129 1.30969,-0.429619 3.393289,-1.1616 4.630209,-1.626621 2.311061,-0.868831 4.555212,-1.529879 5.95313,-1.753579 1.583991,-0.253471 0.0445,0.392499 -4.210479,1.766668 -2.340901,0.756013 -4.49431,1.474232 -4.78536,1.596041 -0.291041,0.121811 -1.66026,0.57314 -3.0427,1.002951 -1.382451,0.42981 -3.143031,1.03198 -3.912399,1.338148 -1.428131,0.568323 -2.756033,0.754981 -2.29208,0.322202 z M 23.903029,47.785234 c -0.339169,-0.219181 -0.329551,-0.257059 0.06615,-0.26053 0.254661,-0.0021 0.46302,0.115009 0.46302,0.26053 0,0.322691 -0.02984,0.322691 -0.529166,0 z m 59.26666,0 c 0.52474,-0.339108 1.66479,-0.339108 1.455211,0 -0.0899,0.145531 -0.543449,0.26276 -1.007801,0.260541 -0.64243,-0.003 -0.74939,-0.0654 -0.44741,-0.260541 z m -62.44166,-0.555519 c -0.509322,-0.12323 -1.640416,-0.394031 -2.513541,-0.60176 -1.245733,-0.296381 -1.403194,-0.38335 -0.731402,-0.403961 0.822665,-0.02519 1.358605,0.0784 4.56786,0.88352 1.24013,0.3111 1.31834,0.36367 0.529166,0.355669 -0.509322,-0.005 -1.34276,-0.110228 -1.852083,-0.233468 z m 66.80729,-0.35442 c 2.431812,-0.66394 5.48364,-0.940681 4.101042,-0.371901 -0.78562,0.323199 -3.004011,0.7181 -5.027081,0.894871 -1.362099,0.11902 -1.30284,0.0856 0.926039,-0.52297 z M 40.571782,46.392116 c -0.94589,-0.470713 -1.759481,-0.945132 -1.80799,-1.054272 -0.0485,-0.109138 -0.316397,-0.198441 -0.59531,-0.198441 -0.278916,0 -0.507119,-0.119059 -0.507119,-0.264578 0,-0.14552 -0.198437,-0.264591 -0.440973,-0.264591 -0.242533,0 -0.365853,-0.0751 -0.274042,-0.16692 0.262424,-0.26243 5.477513,2.223989 5.477513,2.61153 0,0.27111 0.0871,0.302281 -1.852079,-0.662728 z m 26.870777,0.210909 c 0.282472,-0.213651 0.662421,-0.392242 0.84432,-0.396872 0.181901,-0.005 0.330732,-0.0999 0.330732,-0.211648 0,-0.111781 0.625078,-0.474731 1.389059,-0.80654 0.76399,-0.331811 2.2225,-1.003271 3.241149,-1.492131 1.01864,-0.488849 1.90169,-0.84028 1.962322,-0.78096 0.146198,0.143039 0.405958,0.0011 -3.972542,2.16662 -3.812288,1.885259 -4.798909,2.28082 -3.79504,1.521531 z M 40.409723,43.805353 c -0.565711,-0.442688 -1.21058,-0.948698 -1.433042,-1.124479 -0.222459,-0.175779 -2.633477,-1.80313 -5.357813,-3.616349 -2.724338,-1.813211 -4.953339,-3.39385 -4.953339,-3.512521 0,-0.380561 1.625134,0.592421 5.55625,3.326569 2.110053,1.467573 3.89599,2.736393 3.968751,2.819612 0.07276,0.0832 0.740151,0.535699 1.483082,1.00553 1.414219,0.89435 2.494021,1.906519 2.033889,1.906519 -0.148061,0 -0.73207,-0.362191 -1.297778,-0.804881 z m 27.031965,0.516501 c 0.390091,-0.631169 5.481691,-4.209529 5.989691,-4.209529 0.45239,0 0.487881,0.066 0.21331,0.39687 -0.181158,0.218279 -0.42454,0.39688 -0.540859,0.39688 -0.271841,0 -3.444571,2.12561 -4.506669,3.019309 -0.827831,0.696571 -1.479042,0.92002 -1.155473,0.39647 z M 25.17126,43.736694 c -1.62538,-0.62615 -2.494387,-1.243119 -1.750945,-1.243119 0.229278,0 1.089923,0.297649 1.912544,0.661459 0.822621,0.363799 1.670874,0.66145 1.885006,0.66145 0.214132,0 0.389331,0.119071 0.389331,0.264591 0,0.404969 -0.775246,0.295371 -2.435936,-0.344381 z m 9.182811,-0.449369 c -2.074251,-1.021641 -1.456465,-1.028469 0.711708,-0.008 0.918247,0.432231 1.490949,0.786749 1.272667,0.787821 -0.218281,0.0011 -1.11125,-0.349912 -1.984375,-0.779952 z m 7.53004,-1.395571 c -1.242748,-1.19697 -3.855096,-3.605059 -5.805221,-5.351309 -7.626344,-6.829051 -9.959191,-9.051741 -9.735333,-9.275601 0.130453,-0.13045 2.578337,2.06324 6.687597,5.99314 1.309688,1.25252 2.791466,2.62254 3.292844,3.044471 0.501374,0.421939 1.513207,1.342588 2.248513,2.045899 0.735309,0.70331 1.813381,1.67247 2.395699,2.1537 2.235682,1.84754 3.952682,3.56004 3.572322,3.562961 -0.218281,0.0021 -1.413671,-0.976291 -2.656421,-2.173261 z m 24.348828,0.403381 c 1.088211,-0.982271 3.483182,-3.24445 5.32215,-5.02708 1.90813,-1.849671 3.55718,-3.238071 3.84108,-3.233991 0.546571,0.008 0.536731,0.0179 -3.606649,3.697011 -1.229151,1.091399 -3.280661,2.966638 -4.558911,4.16719 -1.27826,1.200539 -2.47083,2.18281 -2.650159,2.18281 -0.17934,0 0.564279,-0.803672 1.652489,-1.78594 z m 9.478809,0.282279 c 0.190993,-0.0764 0.419201,-0.067 0.507122,0.0209 0.0879,0.0879 -0.0683,0.15045 -0.347271,0.13897 -0.308218,-0.0127 -0.370919,-0.0754 -0.159851,-0.159848 z M 19.07756,41.724096 c -0.689478,-0.252392 -1.3344,-0.539703 -1.43316,-0.638461 -0.09876,-0.0988 -0.450351,-0.17956 -0.781311,-0.17956 -0.330961,0 -0.675331,-0.11906 -0.765268,-0.264591 -0.08994,-0.145521 -0.483917,-0.271888 -0.875511,-0.280821 -0.950619,-0.0217 -3.596813,-1.253839 -2.75892,-1.28465 0.329396,-0.01209 0.805646,0.094 1.058333,0.23572 0.489382,0.27455 3.589962,1.304171 5.705539,1.89466 0.702546,0.196091 1.401734,0.506392 1.553751,0.68956 0.377664,0.455062 -0.131051,0.40373 -1.703453,-0.171857 z m 12.977943,0.324149 c 0.190995,-0.0764 0.419198,-0.067 0.507119,0.0209 0.08792,0.0879 -0.06835,0.15046 -0.347266,0.138969 -0.308226,-0.0127 -0.370919,-0.0754 -0.159853,-0.15985 z m 44.714576,0 c 0.191,-0.0764 0.419201,-0.067 0.507122,0.0209 0.0879,0.0879 -0.0683,0.15046 -0.347261,0.138969 -0.308231,-0.0127 -0.370919,-0.0754 -0.159861,-0.15985 z M 30.369745,41.311364 c -0.66819,-0.505399 -0.378746,-0.5104 0.580644,-0.01011 0.416816,0.217379 0.572246,0.39597 0.345397,0.39687 -0.226848,7.93e-4 -0.643567,-0.173181 -0.926041,-0.386832 z m 16.304787,-0.206849 c -0.205991,-0.327432 -0.789699,-1.369221 -1.29713,-2.315112 -0.507432,-0.94588 -1.260502,-2.217488 -1.673479,-2.8258 -0.412991,-0.608298 -0.750891,-1.161879 -0.750891,-1.230179 0,-0.13913 -1.70593,-2.77845 -2.116841,-3.27504 -0.14542,-0.17576 -0.264409,-0.38894 -0.264409,-0.47373 0,-0.0848 -0.217691,-0.47678 -0.48375,-0.87107 -0.26606,-0.39429 -0.90419,-1.37173 -1.41808,-2.1721 -0.513879,-0.80036 -1.609092,-2.49563 -2.433804,-3.767265 -1.619967,-2.497852 -2.145316,-3.554693 -1.415381,-2.847313 0.411406,0.398692 10.513515,16.062608 10.513515,16.301818 0,0.0703 0.402249,0.756589 0.89389,1.52514 0.96566,1.50957 1.38888,2.545961 1.03967,2.545961 -0.12033,0 -0.387311,-0.26789 -0.59331,-0.59531 z m 15.255931,0.13229 c 0.233378,-0.61603 1.915996,-3.76558 2.363758,-4.424501 0.195048,-0.287041 0.35464,-0.372549 0.35464,-0.19001 0,0.493411 -2.411011,5.077531 -2.670519,5.077531 -0.122809,0 -0.144349,-0.208362 -0.0479,-0.46302 z m 21.328387,-2.46447 c 3.177731,-1.607161 5.916171,-2.874931 6.085409,-2.81727 0.169252,0.0577 -1.359148,0.905809 -3.39644,1.884781 -2.037289,0.978979 -4.641178,2.247958 -5.786419,2.819968 -1.145241,0.572 -2.216809,1.0388 -2.38125,1.037321 -0.164449,-0.0021 2.300959,-1.317641 5.4787,-2.9248 z m -39.085498,2.22503 c -0.22278,-0.268492 -0.796862,-0.97817 -1.27571,-1.577071 -1.050391,-1.31368 -6.089986,-7.32356 -6.297589,-7.51006 -0.08099,-0.0728 -0.619472,-0.72177 -1.196621,-1.44224 -0.577148,-0.72048 -1.365961,-1.67298 -1.752915,-2.11667 -3.775956,-4.329584 -4.540067,-5.316469 -4.412559,-5.698999 0.05118,-0.153532 0.595135,0.408176 1.208791,1.248238 0.613659,0.84006 1.38666,1.826761 1.717784,2.192661 0.33112,0.3659 1.196483,1.37793 1.923026,2.24896 0.726543,0.87102 1.691611,2.0004 2.144591,2.50972 1.951117,2.19379 3.500861,4.00987 4.736502,5.5505 0.72761,0.907201 1.59934,1.96423 1.937179,2.34895 1.262811,1.438082 1.968442,2.438341 1.822831,2.58395 -0.0826,0.0826 -0.332521,-0.0694 -0.55531,-0.337939 z m 20.210928,0.264408 c 0,-0.297278 1.363138,-2.022348 3.71952,-4.707077 0.517761,-0.589921 1.17261,-1.386131 1.455201,-1.769372 0.485489,-0.65836 5.633849,-6.82574 5.933929,-7.10842 0.239379,-0.2255 5.3696,-6.403955 6.46834,-7.78999 0.572299,-0.721937 1.08721,-1.172594 1.14426,-1.001459 0.1299,0.389705 -0.22192,0.892188 -2.163829,3.09046 -0.852051,0.964534 -1.793711,2.076292 -2.09256,2.470574 -0.29886,0.394282 -0.967042,1.200235 -1.48485,1.791005 -0.517811,0.59077 -1.179602,1.3657 -1.470641,1.72206 -0.822191,1.00673 -3.14487,3.7813 -3.439581,4.10878 -0.145518,0.1617 -1.03849,1.2242 -1.98438,2.36112 -0.945881,1.136909 -2.14148,2.553232 -2.65687,3.14738 -0.5154,0.594161 -1.403069,1.705361 -1.972601,2.46934 -0.935839,1.255361 -1.455938,1.6896 -1.455938,1.215599 z m 26.60505,-0.0678 c -0.0899,-0.145439 0.41239,-0.433459 1.124929,-0.64506 0.708022,-0.210259 1.805482,-0.63264 2.438781,-0.93862 1.406549,-0.679569 2.34474,-0.760619 1.845821,-0.159451 -0.181161,0.218281 -0.472872,0.396873 -0.64824,0.396873 -0.175371,0 -1.024001,0.283268 -1.885831,0.629478 -2.241571,0.900469 -2.692469,1.01287 -2.87546,0.71678 z m -62.323801,-0.70684 c -0.412151,-0.22869 -0.506003,-0.368501 -0.249007,-0.37093 0.226848,-0.0021 0.643567,0.17091 0.926041,0.384561 0.642189,0.48573 0.207111,0.47697 -0.677034,-0.0136 z M 50.456642,39.826984 C 50.08445,39.036293 49.671541,37.453034 49.427,35.878965 c -0.101729,-0.654842 -0.409368,-1.659472 -0.683638,-2.232502 -0.55249,-1.15435 -0.648951,-1.86036 -0.21776,-1.59387 0.337471,0.20857 0.769908,1.23878 1.05084,2.50346 0.113139,0.50932 0.460849,1.808509 0.772689,2.887081 0.610669,2.112129 0.67753,3.59483 0.107511,2.38385 z m 7.97424,-0.773019 c 0.249381,-1.678242 0.705811,-3.175 0.968201,-3.175 0.517969,0 -0.0467,2.796669 -0.774671,3.836458 -0.33314,0.475872 -0.35264,0.40926 -0.19353,-0.661458 z m -31.137879,0.613007 c 0.190996,-0.0764 0.419199,-0.067 0.507118,0.0209 0.08792,0.0879 -0.06835,0.150458 -0.347266,0.13897 -0.308224,-0.0127 -0.370919,-0.0754 -0.159852,-0.15985 z m -4.144037,-1.84332 c -1.937675,-0.948478 -3.458958,-1.78861 -3.380627,-1.86694 0.07833,-0.0783 1.665758,0.612632 3.527616,1.535462 3.870587,1.918459 3.641177,1.790888 3.490872,1.94119 -0.06315,0.0632 -1.700185,-0.66122 -3.637861,-1.609712 z m 31.181145,-5.516559 c 0,-4.49792 0.0949,-7.01146 0.264591,-7.01146 0.16973,0 0.26458,2.51354 0.26458,7.01146 0,4.497921 -0.0949,7.01146 -0.26458,7.01146 -0.169741,0 -0.264591,-2.513539 -0.264591,-7.01146 z m -6.77988,6.018482 c -0.299349,-0.473382 -0.695848,-1.366351 -0.881099,-1.984381 -0.361619,-1.206381 -0.72685,-2.170261 -1.10114,-2.906031 -0.12854,-0.25269 -0.23371,-0.56788 -0.23371,-0.70043 0,-0.13255 -0.654851,-1.62937 -1.455211,-3.32626 -0.800359,-1.6969 -1.45521,-3.12918 -1.45521,-3.18285 0,-0.0537 -0.416719,-0.99976 -0.92604,-2.10241 -0.50932,-1.102648 -0.926039,-2.080943 -0.926039,-2.173991 0,-0.09305 -0.95913,-2.127523 -2.131396,-4.52106 -1.172268,-2.393536 -2.083707,-4.549324 -2.025425,-4.790643 0.08471,-0.350724 2.152941,3.628544 3.347411,6.440408 0.123629,0.291042 0.54474,1.243542 0.935799,2.116667 0.391049,0.873125 0.81533,1.825625 0.94283,2.116667 0.1275,0.291041 0.65346,1.460595 1.168799,2.599013 0.515342,1.13841 0.936982,2.10885 0.936982,2.15654 0,0.0477 0.47625,1.10797 1.058329,2.3562 0.582091,1.24822 1.058341,2.31809 1.058341,2.37748 0,0.0594 0.54284,1.26188 1.20632,2.672191 0.66348,1.410319 1.16546,2.822818 1.115528,3.1389 -0.0833,0.527399 -0.13557,0.50388 -0.635069,-0.28601 z m 13.40035,0.258598 c -0.003,-0.33115 0.529891,-1.733479 1.184738,-3.116281 0.654841,-1.382799 1.19062,-2.572949 1.19062,-2.644779 0,-0.0718 0.47625,-1.15188 1.058341,-2.4001 0.582081,-1.24823 1.058331,-2.32865 1.058331,-2.40092 0,-0.0723 0.416718,-1.00958 0.926039,-2.08287 0.50932,-1.073298 0.926039,-2.009809 0.926039,-2.081141 0,-0.07133 0.535781,-1.276345 1.19063,-2.677814 0.654841,-1.401468 1.19062,-2.587955 1.19062,-2.636639 0,-0.04868 0.40042,-0.960413 0.889812,-2.026068 0.4894,-1.065654 1.051819,-2.391568 1.249828,-2.946476 0.198012,-0.554911 0.511971,-1.135036 0.69769,-1.289169 0.685861,-0.569209 0.332891,0.65746 -0.956709,3.32492 -1.498071,3.098652 -2.938949,6.235822 -2.938949,6.398848 0,0.06199 -0.416722,1.014881 -0.926042,2.117529 -0.509328,1.10265 -0.926039,2.04383 -0.926039,2.09151 0,0.0477 -0.45679,1.08079 -1.015079,2.29579 -0.558292,1.21499 -1.348142,3.04252 -1.75523,4.06116 -0.40708,1.01865 -0.95676,2.34496 -1.22151,2.947371 -0.26475,0.602398 -0.55245,1.376309 -0.639331,1.719789 -0.0869,0.343479 -0.387459,0.922171 -0.667949,1.28597 l -0.509968,0.661461 -0.006,-0.602091 z m 16.530569,-1.25472 c 0.727609,-0.646261 1.39968,-1.17747 1.49349,-1.18046 0.139399,-0.004 4.118891,-2.61608 5.135539,-3.37032 0.153461,-0.11385 0.46418,-0.32606 0.690491,-0.47158 0.86985,-0.55934 1.99575,-1.35927 3.39611,-2.41288 1.994929,-1.50095 3.44066,-2.29299 3.435429,-1.88208 -0.0021,0.17942 -1.103609,1.03905 -2.447398,1.9103 -1.343782,0.87125 -2.502771,1.64515 -2.575531,1.71979 -0.0728,0.0746 -1.382451,0.95655 -2.910419,1.9598 -1.527972,1.00326 -3.4925,2.385071 -4.365631,3.070692 -2.688711,2.11133 -4.022071,2.584129 -1.85208,0.656738 z m -25.778378,-1.25205 c -0.32461,-1.923969 -0.732851,-6.278819 -0.936321,-9.988019 -0.120359,-2.194069 0.0443,-1.55311 0.64584,2.51354 0.172191,1.16417 0.426842,2.83104 0.56588,3.70417 0.417139,2.61955 0.58011,5.688541 0.30207,5.688541 -0.13961,0 -0.399468,-0.863201 -0.577469,-1.918232 z m 5.116869,-0.0661 c 0.181041,-1.963811 0.467821,-4.193671 0.901711,-7.011461 0.29781,-1.934 1.277951,-8.831556 1.48509,-10.451038 0.0744,-0.582084 0.250259,-1.772709 0.390679,-2.645834 0.140419,-0.873125 0.391181,-2.778125 0.557252,-4.233333 0.166068,-1.455208 0.42527,-2.7648959 0.575998,-2.9104169 0.29723,-0.286943 0.17771,1.3832079 -0.30294,4.2333339 -0.269298,1.596903 -0.914189,6.500489 -1.33966,10.186458 -0.83331,7.21926 -0.88755,7.62892 -1.59362,12.038541 -0.439398,2.744118 -0.904808,3.291808 -0.67451,0.79375 z M 24.66895,33.158134 c -0.815671,-0.61357 -1.70864,-1.26739 -1.984376,-1.45295 -3.501209,-2.35608 -5.131545,-3.56802 -5.131545,-3.8146 0,-0.3598 0.444279,-0.23803 0.827499,0.22681 0.19972,0.24225 1.732345,1.34173 3.405835,2.44328 3.424135,2.2539 3.286441,2.15756 4.365624,3.05445 1.357728,1.12838 0.115766,0.74568 -1.483037,-0.45699 z m 42.264641,-0.25568 c 0.387138,-0.61847 1.043469,-1.62218 1.458528,-2.23049 0.41506,-0.6083 0.754661,-1.17493 0.754661,-1.25918 0,-0.0842 0.631841,-1.13437 1.404091,-2.33358 0.77225,-1.19922 1.917009,-3.132898 2.543908,-4.297065 1.325721,-2.461887 1.586081,-2.823054 1.896721,-2.631067 0.12569,0.07768 -0.42359,1.152075 -1.2206,2.387552 -0.79702,1.235478 -1.44912,2.361237 -1.44912,2.501689 0,0.140451 -0.119071,0.255371 -0.264591,0.255371 -0.145519,0 -0.264578,0.12411 -0.264578,0.2758 0,0.15169 -0.804572,1.55068 -1.78793,3.10885 -0.983372,1.55818 -1.960502,3.19024 -2.171401,3.6268 -0.4664,0.96541 -1.070269,1.7198 -1.376659,1.7198 -0.124801,0 0.0898,-0.50602 0.47697,-1.12448 z m -6.27492,-0.0427 c -0.173019,-0.17393 0.39755,-2.90632 1.303272,-6.24118 0.208266,-0.76686 0.255616,-0.81234 0.275457,-0.26458 0.0132,0.3638 -0.223308,1.61396 -0.525528,2.77812 -0.302221,1.16417 -0.62824,2.51391 -0.72448,2.99942 -0.0962,0.48552 -0.24417,0.81321 -0.328721,0.72822 z M 78.2749,31.442224 c 2.84793,-2.70224 4.671779,-4.29448 4.91918,-4.29448 0.524521,0 -0.268991,0.96303 -1.75239,2.12677 -0.827641,0.64928 -1.98741,1.68653 -2.57727,2.305 -0.58987,0.61846 -1.26147,1.12301 -1.492461,1.12122 -0.258699,-0.002 0.088,-0.48528 0.902941,-1.25851 z m -31.544488,-4.61881 c -0.259741,-0.32822 -0.393631,-0.79628 -0.853292,-2.982957 -0.297817,-1.416783 -0.943348,-3.722891 -1.447218,-5.170029 -0.225962,-0.648984 -0.405079,-1.596689 -0.398042,-2.106012 0.0117,-0.849019 0.0567,-0.794002 0.540563,0.661458 0.671769,2.020668 2.641028,9.7184 2.517738,9.84169 -0.0511,0.0511 -0.21303,-0.0587 -0.359749,-0.24415 z m 15.853357,-1.924623 c 0.005,-0.436563 0.0647,-0.583126 0.131781,-0.325694 0.0671,0.257431 0.0627,0.614617 -0.01,0.793747 -0.0725,0.17913 -0.12736,-0.0315 -0.12197,-0.468053 z M 50.235392,23.64202 c -0.0601,-0.181901 -0.167409,-0.926042 -0.238371,-1.653646 -0.132191,-1.355492 -0.75861,-5.635215 -1.239268,-8.466667 -0.148223,-0.873125 -0.32476,-2.420937 -0.392322,-3.439583 -0.170709,-2.5740939 0.386011,-1.3279679 0.70924,1.5875 0.129071,1.164167 0.354549,2.950104 0.50106,3.96875 0.146521,1.018646 0.368231,2.685521 0.492691,3.704167 0.12446,1.018645 0.316158,2.477161 0.426,3.241145 0.179589,1.249191 0.0199,1.901781 -0.25903,1.058334 z m 12.877546,-0.595313 c 0.005,-0.436562 0.0647,-0.583125 0.131771,-0.325694 0.0671,0.257432 0.0627,0.614619 -0.01,0.79375 -0.0725,0.179131 -0.127371,-0.03149 -0.121971,-0.468056 z M 54.5065,22.208859 c -0.097,-0.09701 -0.176389,-1.787699 -0.176389,-3.757083 0,-4.583311 0.47108,-4.351922 0.572431,0.281173 0.0703,3.211213 -0.005,3.867433 -0.396042,3.47591 z m 8.9051,-0.677256 c 0.0893,-0.367239 0.234609,-1.010013 0.322879,-1.428385 0.0883,-0.418373 0.257011,-0.998802 0.374981,-1.289844 0.11798,-0.291042 0.376899,-1.064948 0.575389,-1.719792 0.256299,-0.845592 0.384342,-1.026049 0.441841,-0.622707 0.0445,0.312356 -0.223361,1.499677 -0.59531,2.638494 -0.371951,1.138817 -0.676269,2.215679 -0.676269,2.393029 0,0.17735 -0.136332,0.406707 -0.302951,0.509685 -0.210841,0.13031 -0.253571,-0.01577 -0.14056,-0.48048 z M 26.704674,20.248271 c -0.376738,-0.447725 -0.681488,-1.013272 -0.677223,-1.256771 0.01,-0.568394 1.579745,1.099151 1.579745,1.678122 0,0.558155 -0.129,0.49793 -0.902522,-0.421351 z"
       id="path847" />
  </g>
</svg>
