<?xml version="1.0" encoding="UTF-8" standalone="no"?>
<svg
   xmlns:dc="http://purl.org/dc/elements/1.1/"
   xmlns:cc="http://creativecommons.org/ns#"
   xmlns:rdf="http://www.w3.org/1999/02/22-rdf-syntax-ns#"
   xmlns:svg="http://www.w3.org/2000/svg"
   xmlns="http://www.w3.org/2000/svg"
   id="svg8"
   version="1.1"
   viewBox="0 0 79.374998 79.375002"
   height="300"
   width="300">
  <defs
     id="defs2" />
  <metadata
     id="metadata5">
    <rdf:RDF>
      <cc:Work
         rdf:about="">
        <dc:format>image/svg+xml</dc:format>
        <dc:type
           rdf:resource="http://purl.org/dc/dcmitype/StillImage" />
        <dc:title></dc:title>
      </cc:Work>
    </rdf:RDF>
  </metadata>
  <g
     style="display:inline"
     id="layer6" />
  <g
     style="display:inline"
     id="layer3" />
  <g
     style="display:inline;opacity:1"
     id="layer2" />
  <g
     style="display:inline"
     id="layer4" />
  <g
     style="display:inline"
     id="layer5">
    <g
       transform="matrix(2.041569,0,0,2.041569,-153.94428,-146.73429)"
       id="g1000">
      <path
         id="rect889"
         style="display:inline;fill:#ef8d3c;fill-opacity:1;stroke-width:2.82;stroke-linecap:round;stroke-linejoin:round;paint-order:stroke fill markers"
         d="m 342.14258,325.89258 v 41.36133 h 0.0625 a 23.749999,22.678571 0 0 0 -5.0625,13.99609 23.749999,22.678571 0 0 0 23.75,22.67773 23.749999,22.678571 0 0 0 23.75,-22.67773 23.749999,22.678571 0 0 0 -5.0625,-13.99609 h 0.006 v -41.36133 z"
         transform="scale(0.26458333)" />
      <g
         style="display:inline;opacity:1"
         id="g884">
        <path
           transform="scale(0.26458333)"
           d="m 342.26367,366.9043 a 56.07143,48.928565 0 0 0 -37.97851,46.31054 56.07143,48.928565 0 0 0 0.0957,2.85743 h 111.95117 a 56.07143,48.928565 0 0 0 0.0957,-2.85743 56.07143,48.928565 0 0 0 -36.84179,-45.96093 18.928571,17.500001 0 0 1 0.23633,2.74609 18.928571,17.500001 0 0 1 -18.92969,17.5 18.928571,17.500001 0 0 1 -18.92774,-17.5 18.928571,17.500001 0 0 1 0.29883,-3.0957 z"
           style="fill:#2196f3;fill-opacity:1;stroke-width:2.82;stroke-linecap:round;stroke-linejoin:round;paint-order:stroke fill markers"
           id="path847" />
        <path
           transform="scale(0.26458333)"
           d="m 342.26367,366.9043 a 56.071429,48.928564 0 0 0 -8.87109,3.41211 27.589287,26.607142 0 0 0 27.58984,26.46875 27.589287,26.607142 0 0 0 27.57813,-25.85938 56.071429,48.928564 0 0 0 -8.97461,-3.67187 18.928571,17.500001 0 0 1 0.23633,2.74609 18.928571,17.500001 0 0 1 -18.92969,17.5 18.928571,17.500001 0 0 1 -18.92774,-17.5 18.928571,17.500001 0 0 1 0.29883,-3.0957 z"
           style="fill:#0d47a1;fill-opacity:1;stroke-width:2.82;stroke-linecap:round;stroke-linejoin:round;paint-order:stroke fill markers"
           id="path878" />
      </g>
      <path
         id="path897"
         style="display:inline;fill:#ffaa45;fill-opacity:1;stroke-width:4.14127;stroke-linecap:round;stroke-linejoin:round;paint-order:stroke fill markers"
         d="m 360.08984,288.75 a 33.839286,37.857143 0 0 0 -33.77929,35.5957 3.2142856,5.5357141 0 0 0 -2.73828,5.47657 3.2142856,5.5357141 0 0 0 3.21289,5.53515 3.2142856,5.5357141 0 0 0 0.37304,-0.0391 33.839286,37.857143 0 0 0 32.93164,29.14648 33.839286,37.857143 0 0 0 33.08789,-29.92968 3.2142856,5.5357141 0 0 0 1.28711,0.46484 3.2142856,5.5357141 0 0 0 3.21289,-5.53516 3.2142856,5.5357141 0 0 0 -3.21289,-5.53711 3.2142856,5.5357141 0 0 0 -0.61523,0.10352 A 33.839286,37.857143 0 0 0 360.08984,288.75 Z"
         transform="scale(0.26458333)" />
      <ellipse
         ry="1.1103424"
         rx="1.0867189"
         cy="86.391144"
         cx="91.706436"
         id="path908"
         style="display:inline;opacity:1;fill:#784719;fill-opacity:1;stroke-width:0.746125;stroke-linecap:round;stroke-linejoin:round;paint-order:stroke fill markers" />
      <ellipse
         style="display:inline;opacity:1;fill:#784719;fill-opacity:1;stroke-width:0.746125;stroke-linecap:round;stroke-linejoin:round;paint-order:stroke fill markers"
         id="ellipse910"
         cx="99.218712"
         cy="86.391144"
         rx="1.0867189"
         ry="1.1103424" />
      <path
         id="path912"
         d="m 87.784967,87.548736 -2.315104,-2.504094 c 0,0 -0.14174,-6.000371 2.456847,-8.835194 2.598586,-2.83482 5.008184,-3.023809 6.3311,-3.165549 1.322917,-0.141742 4.157739,-0.141742 4.157739,-0.141742 l 0.897692,1.889881 c 0,0 2.834819,0.992188 3.827009,2.220611 0.99219,1.228424 2.55134,4.535715 2.36235,6.094865 -0.18898,1.559153 -0.1817,2.201579 -0.1817,2.201579 l -2.40543,2.221678 0.0668,-4.927783 -3.48006,-3.605964 -11.670015,3.685268 z"
         style="display:inline;opacity:1;fill:#784719;fill-opacity:1;stroke:none;stroke-width:0.264583px;stroke-linecap:butt;stroke-linejoin:miter;stroke-opacity:1" />
    </g>
  </g>
</svg>
