<?xml version="1.0" standalone="no"?>
<!DOCTYPE svg PUBLIC "-//W3C//DTD SVG 20010904//EN"
 "http://www.w3.org/TR/2001/REC-SVG-20010904/DTD/svg10.dtd">
<svg version="1.0" xmlns="http://www.w3.org/2000/svg"
 width="2000.000000pt" height="2093.000000pt" viewBox="0 0 2000.000000 2093.000000"
 preserveAspectRatio="xMidYMid meet">

<g transform="translate(0.000000,2093.000000) scale(0.100000,-0.100000)"
fill="#000000" stroke="none">
<path d="M12803 20149 c-49 -31 -56 -72 -52 -299 4 -175 6 -199 24 -230 39
-65 129 -65 162 0 9 18 13 90 13 248 l0 224 -27 39 c-33 46 -69 51 -120 18z"/>
<path d="M15149 19597 c-14 -12 -60 -62 -103 -110 -64 -73 -76 -93 -76 -123 0
-50 36 -84 89 -84 47 0 59 10 166 133 l76 88 -3 57 -3 57 -60 2 c-50 2 -65 -1
-86 -20z"/>
<path d="M10652 19350 c-17 -16 -22 -32 -22 -70 0 -44 5 -55 58 -122 94 -118
258 -275 307 -294 39 -14 45 -14 74 0 31 16 48 53 42 90 -4 29 -39 77 -112
154 -35 37 -91 99 -124 137 -84 96 -92 105 -121 115 -40 16 -78 12 -102 -10z"/>
<path d="M13120 19219 c-41 -5 -145 -23 -230 -40 -583 -116 -1011 -287 -1295
-519 -66 -53 -234 -230 -300 -314 -220 -284 -388 -677 -452 -1061 -32 -196
-18 -617 29 -834 44 -206 148 -457 268 -646 113 -178 230 -308 420 -465 29
-25 96 -81 147 -125 51 -44 152 -118 225 -164 73 -46 134 -85 136 -86 2 -2 -4
-29 -14 -61 -9 -33 -36 -140 -59 -239 l-42 -180 -34 3 c-19 2 -65 10 -104 18
-145 29 -166 16 -224 -137 -26 -67 -26 -91 -2 -113 22 -20 118 -37 222 -39 62
-1 75 -4 72 -17 -2 -8 -19 -89 -38 -180 -19 -91 -40 -177 -46 -193 -17 -40 12
-107 64 -153 63 -53 208 -120 332 -151 101 -26 125 -28 285 -27 159 1 183 3
265 28 169 50 307 132 344 204 20 39 65 174 97 295 22 78 18 77 154 47 97 -22
120 -18 157 21 41 46 58 174 28 216 -23 33 -73 60 -146 78 -95 24 -93 22 -74
94 9 34 29 130 45 213 16 83 31 152 32 154 2 2 22 -3 45 -11 141 -49 447 -44
717 11 266 54 617 195 862 347 177 109 221 149 347 316 147 195 245 467 352
981 41 196 48 303 42 575 -10 418 -50 643 -157 873 -175 376 -485 688 -910
917 -109 58 -459 220 -554 255 -115 44 -285 81 -451 100 -128 15 -466 21 -555
9z m505 -200 c124 -11 303 -45 390 -74 137 -46 543 -239 685 -325 397 -241
681 -602 780 -989 50 -196 80 -619 60 -840 -20 -227 -109 -616 -190 -836 -67
-183 -118 -277 -212 -391 -63 -76 -96 -105 -183 -162 -174 -115 -404 -223
-633 -299 -117 -38 -398 -106 -514 -124 -120 -18 -333 -5 -423 27 -5 2 -18 9
-27 16 -14 10 -22 8 -43 -12 -39 -36 -45 -52 -70 -174 -12 -61 -25 -110 -28
-108 -71 34 -124 54 -159 60 -28 5 -43 13 -42 23 3 37 91 355 149 534 104 328
225 793 260 1005 26 159 19 145 88 170 131 47 256 128 368 239 92 92 160 228
167 335 8 131 -47 259 -131 302 -86 45 -253 -7 -350 -109 -70 -74 -95 -116
-186 -322 -10 -22 -37 -107 -61 -190 -23 -82 -47 -156 -52 -162 -7 -9 -48 -13
-137 -13 -174 0 -168 -2 -176 78 -31 351 -171 620 -373 719 -71 35 -156 38
-217 8 -52 -25 -148 -122 -176 -176 -61 -120 -78 -227 -55 -336 25 -123 78
-209 164 -270 82 -59 311 -136 432 -145 l35 -3 -2 -70 c-2 -74 -23 -242 -48
-385 -8 -47 -28 -168 -45 -270 -30 -182 -56 -299 -160 -717 l-54 -212 -55 -6
c-31 -3 -85 -10 -121 -15 -35 -5 -65 -8 -67 -7 -1 2 5 30 14 62 21 80 23 177
3 196 -8 8 -62 47 -120 87 -117 80 -220 160 -289 225 -25 23 -80 71 -121 106
-120 102 -191 170 -258 249 -205 241 -350 555 -398 861 -21 135 -30 491 -15
619 62 531 384 1106 775 1384 207 147 652 309 1098 399 297 60 408 65 723 38z
m-1117 -1735 c118 -54 246 -225 272 -363 11 -60 13 -185 4 -253 l-6 -44 -60 8
c-147 20 -321 85 -385 143 -81 74 -115 227 -78 353 27 89 115 182 172 182 13
0 50 -12 81 -26z m1405 -73 c40 -81 38 -166 -5 -251 -38 -73 -102 -148 -163
-190 -44 -30 -243 -112 -255 -105 -9 6 26 194 56 299 14 49 38 115 54 146 47
93 153 162 240 158 44 -3 46 -5 73 -57z m-678 -779 c-3 -76 -187 -790 -255
-984 -39 -114 -111 -364 -146 -510 l-28 -118 -62 0 c-33 0 -63 2 -66 5 -3 3
25 128 63 278 124 490 158 697 214 1279 l7 68 136 -5 c75 -3 137 -9 137 -13z
m-440 -1801 c20 -91 143 -101 176 -13 11 28 27 28 114 -3 39 -14 78 -25 88
-25 22 0 22 -7 -5 -118 -20 -84 -24 -93 -43 -89 -11 3 -63 16 -115 30 -213 56
-335 70 -608 71 l-253 1 6 44 c12 79 19 88 77 100 86 18 223 28 395 30 l161 1
7 -29z m-258 -211 c166 -10 426 -57 501 -90 25 -11 53 -20 63 -20 22 0 23 -10
8 -64 -11 -38 -11 -38 -52 -33 -204 28 -455 37 -817 28 -127 -3 -154 -1 -152
10 2 8 11 49 20 91 l16 77 41 4 c81 7 224 6 372 -3z m-694 -36 l78 -7 -7 -41
c-3 -23 -7 -42 -8 -43 -2 -3 -182 17 -198 23 -21 6 -23 23 -6 59 10 22 17 26
37 21 15 -3 61 -9 104 -12z m1585 -185 c4 -59 -7 -64 -79 -34 -35 15 -74 29
-86 32 -25 6 -28 19 -14 56 l9 24 84 -22 c82 -22 83 -22 86 -56z m-463 -119
c44 -7 84 -15 88 -20 8 -7 -9 -87 -34 -166 -10 -31 -10 -31 -47 -19 -62 22
-281 64 -392 76 -124 13 -419 7 -503 -11 -31 -7 -60 -11 -62 -8 -3 3 5 42 17
88 l22 82 415 -5 c246 -3 449 -10 496 -17z m-370 -285 c145 -18 287 -47 277
-56 -4 -4 -25 -12 -47 -19 -134 -39 -192 -51 -295 -61 -121 -11 -227 0 -360
37 -69 19 -170 64 -170 75 0 4 15 11 33 14 157 27 391 31 562 10z"/>
<path d="M16552 18378 c-325 -222 -385 -264 -398 -282 -17 -25 -18 -85 -1
-107 16 -21 51 -39 77 -39 28 0 66 20 185 100 225 150 337 234 347 259 16 42
1 89 -35 111 -51 31 -76 25 -175 -42z"/>
<path d="M10109 16935 c-85 -14 -283 -55 -368 -77 -52 -14 -94 -47 -111 -88
-11 -28 -11 -34 7 -58 11 -15 36 -36 55 -46 l35 -20 199 42 c110 23 232 47
272 52 40 6 86 17 102 25 66 34 80 106 31 156 -26 25 -37 29 -83 28 -29 -1
-92 -7 -139 -14z"/>
<path d="M16595 16496 c-48 -48 -42 -106 18 -149 24 -18 151 -70 347 -142 75
-28 132 -22 163 16 28 35 20 98 -18 136 -7 6 -63 32 -125 58 -269 111 -340
126 -385 81z"/>
<path d="M10716 15653 c-11 -3 -83 -47 -160 -97 -78 -51 -158 -101 -179 -111
-105 -54 -131 -160 -50 -203 47 -26 86 -15 209 59 148 89 269 173 289 202 22
32 19 87 -8 118 -23 27 -67 41 -101 32z"/>
<path d="M15089 14631 c-32 -32 -38 -79 -16 -118 29 -54 254 -380 272 -395 16
-13 108 -42 110 -35 1 1 13 17 28 35 54 67 45 88 -181 419 -86 125 -152 154
-213 94z"/>
<path d="M12634 12542 c-145 -106 -376 -349 -472 -498 -26 -40 -51 -74 -57
-77 -5 -2 -30 -1 -54 2 l-44 6 29 35 c16 19 38 46 49 59 11 13 42 49 69 80 61
71 75 91 86 130 8 28 6 33 -26 57 -47 36 -70 28 -144 -53 -68 -74 -220 -265
-238 -299 -10 -19 -25 -21 -199 -32 -234 -15 -429 -47 -573 -94 -98 -32 -253
-114 -323 -170 -34 -27 -77 -56 -95 -63 -39 -17 -55 -50 -112 -231 -97 -310
-171 -649 -209 -954 -53 -425 -85 -1079 -83 -1708 l2 -463 -25 -22 c-34 -31
-75 -114 -75 -154 0 -50 23 -95 69 -138 39 -37 41 -41 41 -99 0 -75 -14 -98
-81 -131 -103 -52 -249 -68 -377 -41 -127 27 -370 176 -494 303 -63 63 -132
145 -186 218 -79 108 -175 287 -212 395 -69 204 -90 354 -90 646 1 220 13 480
23 491 3 2 41 -1 84 -8 43 -6 121 -12 173 -13 78 -1 106 3 158 23 115 44 175
129 176 251 0 86 -25 134 -120 227 -83 81 -145 114 -267 144 -127 30 -127 31
-127 87 0 67 31 182 80 299 89 210 136 380 123 443 -9 49 -63 97 -117 105 -87
13 -162 -20 -243 -109 -88 -96 -156 -253 -182 -421 -14 -90 -31 -308 -31 -396
0 -38 -3 -69 -7 -69 -37 0 -198 -36 -238 -53 -60 -25 -138 -75 -181 -114 -81
-73 -140 -219 -132 -326 4 -57 2 -68 -31 -127 -47 -85 -48 -151 -5 -235 55
-111 142 -187 252 -224 107 -36 169 -26 260 41 30 22 55 38 58 36 2 -3 30 -87
63 -189 32 -101 77 -233 99 -294 22 -60 50 -146 62 -190 44 -162 96 -277 200
-435 166 -253 336 -419 565 -550 101 -58 125 -69 195 -96 71 -27 84 -28 235
-28 149 0 165 2 229 26 39 15 73 25 78 22 4 -3 8 -35 8 -72 0 -159 62 -717
101 -905 59 -289 129 -512 272 -877 42 -107 217 -446 283 -550 118 -182 228
-321 350 -440 66 -64 137 -129 159 -145 22 -16 42 -33 45 -36 3 -4 40 -31 82
-62 84 -60 206 -128 308 -173 126 -55 219 -133 332 -282 174 -227 234 -376
232 -577 0 -88 -7 -136 -33 -239 -36 -150 -113 -351 -171 -450 -22 -37 -40
-70 -40 -72 0 -7 -132 -197 -184 -264 -72 -93 -147 -163 -286 -265 -286 -211
-295 -220 -293 -288 1 -33 -5 -48 -27 -72 -32 -34 -37 -50 -26 -82 9 -28 78
-75 131 -91 113 -32 471 -93 599 -102 210 -14 376 -13 395 4 9 7 42 24 74 36
83 34 74 51 -15 28 -62 -16 -96 -18 -228 -12 -140 5 -409 30 -417 38 -2 2 86
6 194 9 135 4 214 10 248 21 28 8 102 20 165 26 257 24 428 71 491 136 59 60
41 132 -46 187 -155 98 -428 102 -967 12 -113 -19 -214 -35 -224 -35 -10 0 6
16 38 39 137 95 227 176 303 271 137 172 275 414 349 612 46 124 91 308 106
435 31 255 -54 512 -255 772 -31 40 -54 75 -52 77 2 2 46 0 98 -6 52 -6 204
-13 339 -16 315 -8 404 6 677 112 62 24 120 44 129 44 28 0 180 -165 253 -276
155 -234 246 -467 258 -663 10 -167 -65 -471 -170 -691 -50 -104 -184 -327
-284 -473 -41 -60 -76 -121 -79 -137 -4 -16 -16 -32 -31 -39 -45 -21 -91 -61
-103 -92 -11 -27 -10 -34 7 -57 75 -101 249 -139 583 -128 365 12 495 18 505
26 6 5 61 16 123 25 193 28 277 64 310 131 16 34 16 37 -5 72 -13 23 -39 46
-67 61 -42 21 -64 24 -278 34 -154 7 -338 7 -543 1 -170 -5 -312 -8 -313 -7
-2 1 26 46 62 101 234 355 337 590 401 914 20 101 20 305 0 400 -40 187 -149
426 -287 628 -47 69 -154 190 -191 217 l-27 20 72 38 c229 119 365 251 450
435 112 240 148 498 148 1075 1 361 -12 486 -76 755 -100 420 -206 750 -329
1026 -30 67 -66 163 -79 213 -28 104 -38 121 -72 121 -13 0 -24 4 -24 9 0 10
175 280 193 297 32 31 322 83 574 104 229 19 399 -9 585 -98 260 -124 474
-334 602 -589 88 -176 146 -458 146 -710 0 -142 0 -143 -23 -143 -15 0 -49 27
-102 81 -143 145 -226 194 -376 225 -162 33 -269 4 -363 -96 -33 -35 -50 -66
-65 -115 -24 -76 -25 -95 -11 -147 14 -49 51 -92 109 -126 46 -27 47 -27 236
-27 164 0 196 -3 233 -19 24 -10 40 -21 37 -25 -4 -3 -82 -9 -173 -12 -190 -6
-221 -15 -315 -87 -61 -46 -120 -118 -158 -192 -65 -125 -11 -320 113 -410 94
-69 192 -27 316 135 42 55 94 119 115 142 45 49 151 120 198 133 28 7 31 7 15
-3 -146 -94 -201 -197 -201 -377 0 -83 4 -103 28 -154 40 -85 92 -144 151
-172 70 -33 121 -31 179 6 87 55 125 137 163 356 17 100 47 186 79 229 76 103
117 236 119 385 1 86 -2 100 -27 150 -32 61 -87 124 -130 147 -26 13 -28 18
-23 49 9 47 -12 353 -30 444 -76 377 -245 667 -513 879 -158 124 -217 160
-365 218 -177 69 -347 92 -548 74 -121 -11 -455 -63 -489 -76 -15 -5 -15 0 -2
67 18 93 11 181 -20 225 -26 38 -91 75 -161 92 -40 10 -52 9 -71 -3 -12 -8
-24 -13 -26 -11 -2 2 1 84 8 182 49 734 60 1322 29 1528 -39 256 -111 497
-198 668 -60 116 -112 188 -211 290 -90 93 -170 145 -302 197 -115 44 -334
110 -369 110 -13 0 -25 2 -28 5 -3 3 64 74 149 158 121 121 153 158 153 179 0
41 -20 75 -51 88 -55 23 -81 7 -247 -158 -87 -86 -170 -171 -184 -188 l-25
-31 -67 10 c-36 6 -66 14 -66 19 0 5 35 53 79 106 75 92 192 210 329 333 45
40 62 63 62 81 0 14 9 33 20 43 27 25 25 38 -5 31 -15 -4 -37 0 -55 9 -39 20
-41 20 -86 -13z m-269 -772 c296 -53 559 -128 714 -202 87 -41 163 -108 253
-222 88 -111 161 -302 217 -566 42 -202 46 -247 45 -565 -1 -291 -11 -509 -49
-1140 -16 -260 -16 -260 5 -340 l22 -80 -91 -87 c-132 -127 -306 -237 -399
-253 -22 -3 -49 -15 -60 -26 -12 -10 -28 -19 -37 -19 -46 0 -80 -46 -64 -88
14 -36 3 -41 -48 -25 -31 9 -75 13 -124 10 -77 -4 -154 -33 -261 -99 l-37 -23
-28 27 c-15 14 -46 31 -68 37 -26 7 -199 11 -496 11 -250 0 -505 5 -565 11
-117 11 -259 42 -499 110 -83 23 -202 56 -265 74 l-115 32 -4 44 c-9 119 50
1553 75 1799 34 347 77 600 144 855 22 83 57 219 79 304 l38 154 62 44 c216
151 489 224 931 247 36 2 164 2 285 1 173 -2 245 -7 340 -25z m-3391 -606 c33
-13 15 -84 -79 -319 -80 -200 -105 -294 -105 -399 0 -97 23 -156 70 -185 18
-10 79 -31 137 -45 58 -15 122 -35 142 -45 44 -23 150 -127 162 -159 20 -53
-25 -111 -104 -133 -111 -31 -455 23 -465 72 -6 32 63 54 170 54 86 1 101 4
129 24 25 19 30 27 24 49 -9 38 -30 57 -74 70 -56 17 -176 15 -239 -5 -61 -19
-139 -82 -148 -119 -3 -13 -8 -24 -9 -24 -2 0 -26 14 -53 31 -83 52 -152 39
-152 -27 0 -43 21 -70 73 -95 42 -20 54 -32 64 -62 16 -47 5 -77 -40 -111 -49
-38 -134 -53 -211 -37 -140 29 -171 80 -129 211 30 92 144 182 264 209 24 5
71 15 104 21 73 15 119 41 133 78 6 15 14 101 17 192 14 378 56 560 155 685
53 66 109 90 164 69z m-254 -1398 c0 -6 -7 -78 -15 -161 -8 -82 -15 -188 -16
-235 0 -47 -4 -105 -7 -129 -7 -42 -10 -36 -75 173 l-69 217 41 52 c22 29 45
73 52 99 l13 46 38 -25 c21 -14 38 -31 38 -37z m-621 -160 c62 -42 174 -70
242 -61 58 8 86 -5 105 -50 28 -69 8 -135 -48 -154 -38 -13 -125 0 -193 29
-100 43 -184 159 -169 235 3 19 8 35 9 35 2 0 26 -15 54 -34z m5764 -896 c8
-31 -10 -142 -32 -201 -15 -37 -37 -66 -81 -106 -64 -58 -120 -131 -120 -157
0 -8 8 -19 18 -25 16 -9 15 -14 -12 -63 -56 -101 -155 -248 -168 -248 -18 0
-89 42 -124 72 -122 107 -194 171 -192 173 2 1 32 15 68 31 202 87 425 299
552 521 30 52 30 53 58 38 15 -8 30 -24 33 -35z m-3363 -544 c47 -13 157 -45
245 -71 193 -55 367 -99 455 -114 138 -23 369 -32 727 -29 204 2 375 0 379 -4
16 -17 -75 -181 -161 -288 -72 -89 -241 -265 -294 -306 -24 -19 -53 -34 -63
-34 -21 0 -206 70 -328 125 -41 18 -136 60 -210 93 -176 78 -243 114 -552 294
-156 91 -258 156 -258 165 0 33 -34 85 -67 101 -30 14 -36 14 -67 -1 -36 -17
-46 -14 -46 14 0 29 29 51 60 44 19 -4 34 0 51 14 30 26 28 26 129 -3z m2395
-168 c71 -17 85 -32 85 -88 0 -67 -28 -165 -54 -189 -12 -10 -48 -33 -80 -50
-50 -26 -70 -31 -129 -31 -58 0 -78 5 -128 31 -63 34 -82 56 -93 106 -18 78
105 203 228 234 34 8 109 3 171 -13z m778 -30 c-6 -65 14 -147 69 -277 184
-436 330 -928 389 -1311 21 -130 23 -178 21 -459 -2 -559 -34 -788 -138 -1007
-26 -55 -54 -92 -117 -154 -45 -45 -104 -97 -132 -115 -167 -107 -491 -251
-680 -300 -126 -34 -341 -43 -595 -26 -296 20 -387 38 -517 101 -45 22 -87 40
-93 40 -14 0 -142 65 -194 98 -299 192 -552 489 -742 872 -123 247 -185 406
-284 731 -108 351 -135 490 -190 989 -22 194 -39 660 -24 660 9 0 91 -46 334
-188 169 -98 314 -172 483 -246 67 -29 143 -63 170 -75 69 -31 287 -116 320
-125 70 -17 166 42 335 208 102 99 185 195 235 268 l24 37 18 -40 c40 -88 153
-173 272 -203 l48 -12 6 -240 c4 -131 7 -435 8 -674 2 -575 11 -671 67 -715
337 -265 415 -321 604 -427 86 -49 147 -43 186 17 19 29 31 32 37 8 3 -10 5
-3 6 16 0 19 16 66 35 105 39 81 86 185 86 191 0 2 13 32 29 67 52 113 101
245 101 269 -1 34 -35 106 -74 153 -33 41 -116 164 -116 172 0 4 -103 164
-170 264 -40 59 -149 241 -198 330 -16 30 -57 103 -90 162 -60 107 -121 248
-144 333 -11 40 -10 47 9 67 54 60 103 183 122 307 6 35 13 66 15 69 3 2 29
-17 58 -42 61 -54 140 -96 179 -96 45 0 109 59 174 158 33 50 61 92 62 92 1 0
-1 -24 -4 -52z m-553 2 c0 -25 -10 -50 -21 -50 -5 0 -9 21 -9 46 0 40 2 45 15
34 8 -7 15 -21 15 -30z m-78 -267 c-24 -47 -57 -79 -67 -64 -3 6 -2 11 3 11 5
0 25 22 43 49 40 57 49 59 21 4z m-66 -373 c19 -57 49 -132 66 -165 32 -64
213 -389 258 -465 74 -124 306 -485 359 -560 34 -47 61 -94 61 -106 0 -21 -11
-52 -50 -139 -10 -22 -27 -62 -39 -90 -12 -27 -27 -62 -34 -77 -21 -50 -35
-34 -30 35 8 99 -16 124 -88 93 -15 -6 -15 -2 -3 46 18 68 18 98 -2 126 -25
36 -53 27 -116 -38 -32 -32 -58 -58 -58 -56 0 2 11 32 24 67 80 212 92 281 57
313 -16 15 -23 16 -42 6 -21 -12 -22 -11 -15 21 19 86 19 109 1 129 -36 40
-76 18 -156 -88 -54 -72 -61 -69 -25 10 70 153 79 232 31 258 -30 16 -59 0
-101 -55 -15 -20 -28 -34 -31 -32 -2 2 15 49 37 105 21 55 47 127 56 161 16
56 16 62 0 85 -9 15 -26 26 -37 26 -21 0 -86 -58 -107 -95 -20 -37 -22 -9 -2
42 10 28 24 80 31 117 10 57 9 70 -5 91 -19 29 -42 32 -74 9 -26 -18 -26 -16
-7 56 30 113 15 158 -50 147 -19 -3 -35 -3 -35 -1 0 3 10 29 22 57 21 51 44
80 61 74 4 -1 24 -49 43 -107z m-146 -170 c0 -5 -4 -10 -10 -10 -5 0 -10 5
-10 10 0 6 5 10 10 10 6 0 10 -4 10 -10z m2454 -95 c129 -25 189 -60 307 -181
133 -135 191 -162 252 -114 14 11 32 20 40 20 25 0 76 -58 87 -100 17 -63 -4
-201 -42 -275 -104 -204 -109 -218 -143 -416 -18 -106 -36 -144 -89 -184 -32
-24 -38 -26 -70 -15 -71 23 -123 122 -113 213 14 125 46 171 162 235 108 60
134 114 99 201 -20 49 -56 66 -123 57 -134 -18 -277 -104 -369 -223 -129 -167
-177 -218 -208 -221 -68 -7 -144 88 -144 177 1 85 62 178 159 240 43 28 56 31
127 31 130 0 294 19 341 40 42 18 83 68 83 100 0 44 -63 124 -124 156 -97 52
-181 65 -333 52 -111 -9 -125 -9 -160 8 -28 14 -39 26 -41 46 -7 57 61 136
134 158 43 13 81 12 168 -5z m-2433 -168 c-6 -38 -15 -67 -22 -67 -11 0 -12
64 -2 74 8 8 25 3 24 -7z m22 -404 c-41 -113 -42 -114 -42 -45 -1 57 2 65 27
87 15 13 30 25 34 25 3 0 -5 -30 -19 -67z m16 -384 c-58 -156 -58 -156 -58
-58 -1 84 0 86 26 98 15 7 33 21 41 32 26 37 23 12 -9 -72z m123 -167 c-22
-61 -20 -94 6 -124 31 -36 65 -22 122 52 l19 25 -14 -55 c-8 -30 -15 -72 -15
-92 0 -21 -3 -38 -6 -38 -12 0 -194 142 -194 151 0 5 16 30 36 56 20 27 41 58
47 71 20 43 19 13 -1 -46z m298 -205 c-11 -32 -22 -73 -26 -92 -3 -19 -10 -35
-15 -35 -5 0 -27 12 -49 26 l-39 26 37 26 c39 26 64 51 90 90 22 34 23 23 2
-41z m152 -164 c6 -7 21 -13 35 -13 25 0 24 -10 -9 -54 -14 -18 -16 -17 -66 8
-29 15 -52 31 -52 36 0 5 15 30 32 55 l33 46 8 -33 c5 -18 13 -39 19 -45z
m1278 -3623 c23 -14 3 -26 -80 -49 -140 -39 -674 -70 -880 -52 -152 14 -295
50 -295 73 0 17 25 18 335 24 184 3 337 7 339 10 9 9 567 3 581 -6z m-1944
-53 c60 -17 90 -32 78 -39 -27 -16 -206 -48 -319 -58 -127 -10 -561 -28 -820
-33 -112 -2 -134 -5 -157 -22 -15 -11 -28 -24 -28 -30 -1 -31 -17 -36 -58 -19
-33 12 -42 21 -42 40 0 33 20 40 155 54 66 6 181 23 255 36 428 76 580 94 755
89 72 -2 153 -10 181 -18z"/>
<path d="M11933 11552 c-22 -17 -49 -72 -85 -172 -32 -92 -107 -356 -124 -443
-16 -80 -16 -82 5 -122 29 -56 53 -69 89 -51 46 24 60 48 87 156 34 135 97
354 130 449 34 99 33 135 -4 172 -33 33 -66 37 -98 11z"/>
<path d="M11563 11396 c-31 -26 -94 -173 -129 -303 -20 -75 -9 -115 40 -140
17 -9 34 -21 38 -27 4 -7 9 -4 14 7 3 9 12 17 20 17 20 0 42 39 68 121 13 41
38 114 56 162 26 74 30 94 21 118 -23 66 -79 86 -128 45z"/>
<path d="M10981 10821 c-12 -16 -21 -34 -21 -41 0 -7 -9 -25 -21 -41 -20 -29
-20 -34 -17 -786 l4 -758 27 -140 c49 -249 55 -273 83 -329 51 -105 153 -168
272 -168 196 0 357 68 490 206 173 181 299 415 456 848 120 331 168 693 137
1033 -8 89 -15 126 -29 145 -21 28 -73 39 -89 18 -6 -7 -43 -85 -83 -173 -153
-339 -218 -436 -345 -511 -68 -41 -179 -74 -245 -74 -111 1 -275 65 -335 132
-82 90 -153 299 -179 523 -8 64 -19 122 -26 130 -20 24 -57 18 -79 -14z"/>
<path d="M8639 12053 c-21 -56 -21 -84 0 -151 46 -138 71 -164 127 -128 31 21
31 50 0 129 -14 34 -28 75 -32 90 -3 16 -17 33 -30 39 -13 6 -26 19 -29 30 -9
26 -24 22 -36 -9z"/>
<path d="M9152 12024 c-23 -16 -80 -130 -113 -226 -14 -43 -16 -63 -9 -83 22
-59 80 -38 109 39 11 28 35 86 55 129 41 90 44 109 16 137 -24 24 -29 24 -58
4z"/>
<path d="M9445 11808 c-11 -6 -44 -33 -72 -61 -47 -45 -53 -56 -53 -92 0 -35
4 -43 30 -58 40 -24 56 -17 129 51 50 47 61 63 61 89 0 17 2 38 5 45 4 9 -6
18 -28 26 -40 14 -46 15 -72 0z"/>
<path d="M5428 11757 c-15 -12 -15 -32 3 -293 32 -477 75 -891 105 -1028 34
-152 93 -226 169 -212 89 17 119 85 110 249 -17 320 -28 666 -29 917 -2 292
-8 341 -43 354 -24 10 -66 -22 -57 -42 4 -9 8 -163 9 -342 2 -179 8 -419 13
-535 22 -417 23 -469 9 -495 -18 -35 -43 -37 -60 -3 -45 88 -97 518 -134 1118
-15 249 -20 292 -35 307 -21 21 -37 22 -60 5z"/>
<path d="M4827 11712 c-54 -32 -121 -214 -152 -414 -23 -145 -31 -465 -15
-613 32 -319 147 -483 294 -421 68 28 114 124 141 291 21 128 20 562 -1 699
-36 235 -95 412 -152 457 -30 23 -77 23 -115 1z m97 -117 c20 -47 64 -238 81
-350 18 -119 21 -526 4 -655 -21 -172 -66 -266 -123 -258 -27 4 -81 85 -101
151 -37 125 -48 243 -42 482 6 260 26 402 78 561 45 135 69 151 103 69z"/>
<path d="M4391 11656 c-15 -17 -25 -81 -51 -301 -12 -99 -23 -182 -25 -183 -2
-2 -13 16 -26 40 -12 23 -55 93 -95 153 -160 239 -176 255 -215 219 -27 -24
-24 -36 17 -85 59 -71 177 -255 244 -381 l62 -118 -11 -88 c-6 -48 -22 -216
-36 -372 -23 -263 -23 -285 -8 -302 19 -21 46 -23 61 -5 11 13 24 126 47 417
17 197 17 198 70 647 19 160 35 304 35 319 0 42 -45 69 -69 40z"/>
<path d="M13457 11533 c-11 -11 -8 -19 23 -57 53 -68 178 -349 215 -486 35
-134 93 -432 111 -580 8 -69 18 -226 21 -350 4 -157 10 -235 19 -259 8 -18 14
-46 14 -62 0 -15 5 -31 10 -34 6 -3 10 5 10 19 0 13 5 37 10 52 20 52 -25 694
-66 954 -19 120 -82 339 -130 454 -99 236 -145 314 -202 345 -24 13 -27 13
-35 4z"/>
<path d="M6370 9864 c-159 -18 -211 -47 -180 -102 5 -9 26 -87 45 -172 20 -85
46 -200 60 -255 13 -55 29 -127 35 -160 30 -166 158 -696 182 -758 18 -46 34
-48 158 -22 114 24 161 49 145 75 -16 26 -53 29 -124 10 -100 -28 -108 -27
-115 18 -4 20 -13 57 -21 82 -14 49 -74 303 -104 445 -11 50 -16 94 -12 98 4
4 36 12 72 18 145 24 144 23 147 45 6 40 -20 48 -116 36 -48 -6 -96 -14 -108
-17 -19 -6 -22 3 -52 132 -17 76 -45 199 -63 273 -17 74 -32 142 -33 150 -1
15 33 23 146 35 46 5 58 10 64 27 3 11 2 24 -3 28 -10 11 -78 19 -123 14z"/>
<path d="M5828 9759 c-23 -13 -23 -69 -3 -330 8 -107 19 -255 25 -329 6 -74
15 -193 21 -263 10 -115 8 -165 -5 -126 -27 83 -66 211 -102 334 -25 83 -51
170 -58 195 -8 25 -29 106 -46 180 -35 147 -38 156 -67 215 -21 44 -51 56 -73
30 -10 -13 -10 -24 4 -68 9 -28 27 -99 40 -157 21 -92 69 -269 111 -410 29
-99 86 -273 135 -410 28 -80 62 -177 75 -216 40 -118 79 -174 105 -148 18 18
19 50 4 191 -8 76 -19 190 -24 253 -5 63 -14 172 -19 241 -6 70 -15 189 -21
265 -6 77 -17 220 -25 319 -8 99 -15 188 -15 197 0 17 -25 48 -38 48 -4 0 -15
-5 -24 -11z"/>
<path d="M4342 9583 l-21 -18 30 -160 c16 -88 47 -252 69 -365 22 -113 40
-208 40 -211 0 -4 -35 -15 -77 -24 -43 -10 -83 -19 -89 -22 -13 -5 -14 -3 -64
292 -63 372 -71 409 -87 428 -19 20 -33 21 -57 4 -17 -13 -17 -17 -3 -89 9
-42 28 -152 42 -244 27 -172 91 -510 100 -524 7 -11 52 -234 65 -320 6 -36 19
-105 30 -155 11 -49 24 -116 31 -148 11 -62 36 -84 72 -65 23 12 23 22 -22
252 -22 110 -51 260 -65 331 -13 72 -26 137 -28 145 -2 10 19 20 79 36 49 13
85 18 89 13 12 -20 27 -84 84 -374 33 -165 63 -315 67 -334 10 -45 34 -59 66
-42 29 16 29 29 -10 211 -71 342 -105 510 -112 555 -4 28 -10 55 -14 61 -9 15
-82 378 -118 584 -21 125 -34 179 -46 188 -22 16 -27 15 -51 -5z"/>
<path d="M4811 9534 c-18 -23 -21 -40 -21 -128 1 -146 35 -458 71 -636 32
-159 37 -194 54 -335 9 -71 20 -157 25 -191 6 -33 10 -76 10 -95 0 -47 24 -79
59 -79 33 0 61 40 44 62 -6 7 -16 58 -22 113 -6 55 -16 143 -22 195 -6 52 -17
128 -25 169 -8 40 -14 79 -14 86 0 13 197 81 207 71 3 -3 23 -56 44 -118 22
-62 43 -122 48 -133 5 -11 21 -58 35 -105 41 -132 87 -240 102 -240 8 0 23 9
33 19 20 20 20 21 -4 108 -21 79 -40 137 -65 198 -5 11 -15 43 -24 70 -172
544 -326 892 -429 966 -50 36 -79 37 -106 3z m183 -294 c53 -109 108 -230 122
-267 13 -37 30 -79 37 -92 8 -15 8 -26 2 -28 -5 -2 -46 -16 -90 -32 -44 -15
-87 -31 -96 -35 -13 -6 -18 3 -27 51 -46 242 -78 603 -54 603 5 0 52 -90 106
-200z"/>
<path d="M7202 7648 c-16 -16 -17 -987 -1 -1267 12 -216 14 -221 77 -221 l33
0 -6 43 c-25 187 -44 871 -28 1022 l9 80 18 -60 c239 -803 343 -1105 379
-1105 38 1 39 3 26 380 -6 200 -10 531 -7 736 4 349 3 372 -14 383 -27 17 -46
13 -62 -11 -12 -19 -15 -94 -17 -443 -2 -231 0 -478 4 -550 l7 -130 -19 50
c-26 67 -105 329 -131 435 -49 198 -169 564 -206 628 -26 43 -41 51 -62 30z"/>
<path d="M6523 7618 c-29 -33 -40 -75 -57 -228 -23 -203 -35 -424 -35 -625 0
-99 -7 -268 -15 -375 -13 -168 -13 -198 -1 -217 36 -55 97 -31 88 35 -3 20 2
125 11 232 9 108 16 228 16 267 l0 70 38 6 c20 3 69 9 108 13 l70 6 42 -297
c23 -163 47 -305 52 -316 13 -22 29 -24 55 -5 15 11 18 25 16 87 -1 41 -9 115
-17 166 -8 50 -23 165 -34 255 -35 279 -74 487 -131 693 -58 209 -142 303
-206 233z m111 -253 c55 -200 94 -375 98 -430 l3 -50 -71 -6 c-39 -4 -86 -10
-104 -14 l-33 -7 7 203 c6 181 25 379 42 432 10 31 21 8 58 -128z"/>
<path d="M10218 6296 c-26 -19 -23 -78 11 -192 71 -238 210 -535 491 -1049
185 -339 376 -594 554 -739 36 -30 52 -37 73 -33 18 3 44 -4 75 -19 57 -29 58
-29 58 -6 0 10 -15 26 -35 36 -22 12 -35 27 -35 39 0 11 -51 72 -123 146 -230
237 -369 454 -677 1056 -139 271 -224 466 -275 630 -44 142 -68 169 -117 131z"/>
<path d="M4699 5203 c-12 -3 -15 -19 -12 -91 13 -374 22 -940 17 -1029 -4 -59
-1 -209 5 -332 14 -246 23 -288 64 -277 12 3 27 6 33 6 21 0 102 74 163 150
92 112 158 254 198 425 18 80 26 241 16 341 -44 430 -185 692 -425 792 -24 10
-50 17 -59 15z m149 -167 c125 -135 209 -360 233 -626 21 -218 -12 -417 -96
-585 -49 -98 -137 -215 -160 -215 -17 0 -16 -33 -21 590 -2 234 -7 523 -11
643 -5 119 -6 222 -5 227 6 18 19 11 60 -34z"/>
<path d="M7873 5198 c-30 -14 -29 -37 2 -224 48 -296 64 -495 65 -834 1 -314
1 -315 23 -338 20 -20 27 -21 51 -12 l28 10 -5 363 c-5 371 -9 427 -62 794
-14 94 -25 182 -25 196 0 23 -28 58 -46 56 -5 0 -19 -5 -31 -11z"/>
<path d="M5476 5121 c-12 -13 -15 -29 -11 -57 8 -58 26 -442 31 -664 5 -251
23 -681 33 -812 6 -81 12 -104 26 -115 14 -9 52 -13 134 -12 136 2 170 7 185
32 9 15 6 22 -14 39 -23 19 -34 20 -123 15 -94 -6 -98 -5 -106 16 -12 30 -31
407 -31 595 l0 152 33 1 c17 1 73 1 124 -1 83 -2 92 0 102 18 8 16 7 25 -7 41
-15 17 -33 21 -138 27 l-121 7 -7 221 c-3 121 -9 266 -12 322 l-7 101 29 6
c16 3 63 0 105 -6 83 -12 102 -8 119 22 9 17 6 23 -14 36 -32 21 -122 35 -227
35 -71 0 -89 -3 -103 -19z"/>
<path d="M4271 5102 c-6 -11 -6 -61 1 -137 7 -84 7 -168 -1 -280 -6 -88 -16
-367 -22 -620 -12 -490 -7 -584 30 -605 18 -9 61 -3 61 9 2 499 11 969 20
1111 15 227 9 449 -13 503 -12 29 -22 37 -41 37 -14 0 -30 -8 -35 -18z"/>
<path d="M6248 5101 c-33 -33 -48 -105 -74 -345 -19 -180 -27 -311 -29 -516
-2 -151 -11 -378 -19 -505 -9 -126 -16 -233 -16 -237 0 -17 41 -48 63 -48 35
0 62 33 48 59 -7 11 -9 31 -6 43 8 39 35 432 35 523 0 62 3 85 13 85 7 0 51 5
97 10 47 6 96 11 109 13 24 2 25 -1 48 -153 27 -184 38 -258 59 -404 8 -60 20
-118 25 -128 12 -23 42 -23 64 -1 15 14 16 30 11 107 -4 50 -13 132 -21 181
-8 50 -21 153 -30 230 -34 308 -134 800 -192 948 -21 53 -67 121 -95 142 -29
20 -69 18 -90 -4z m101 -218 c37 -119 115 -432 131 -527 13 -81 10 -86 -65
-86 -27 0 -76 -6 -107 -14 l-58 -13 0 101 c0 265 37 636 64 636 2 0 18 -44 35
-97z"/>
<path d="M7161 5090 c-77 -28 -127 -66 -151 -114 -24 -51 -27 -132 -4 -164 37
-53 119 -7 93 52 -16 34 2 98 34 118 106 70 214 30 262 -97 16 -42 17 -56 7
-135 -16 -115 -45 -208 -92 -295 -63 -116 -74 -173 -72 -380 1 -158 3 -181 18
-192 22 -16 36 -16 57 0 15 11 18 36 20 207 l2 195 53 107 c29 59 61 132 72
162 27 79 43 205 38 291 -4 62 -10 82 -38 125 -40 63 -95 105 -163 125 -63 19
-70 19 -136 -5z"/>
<path d="M7238 3571 c-30 -27 -31 -30 -19 -60 16 -38 53 -50 90 -30 36 20 41
73 9 99 -31 26 -42 25 -80 -9z"/>
<path d="M7935 3565 c-29 -28 -31 -42 -9 -73 19 -27 64 -29 86 -4 27 30 32 62
12 83 -23 26 -60 24 -89 -6z"/>
</g>
</svg>
