<?xml version="1.0" standalone="no"?>
<!DOCTYPE svg PUBLIC "-//W3C//DTD SVG 20010904//EN"
 "http://www.w3.org/TR/2001/REC-SVG-20010904/DTD/svg10.dtd">
<svg version="1.0" xmlns="http://www.w3.org/2000/svg"
 width="2000.000000pt" height="2093.000000pt" viewBox="0 0 2000.000000 2093.000000"
 preserveAspectRatio="xMidYMid meet">

<g transform="translate(0.000000,2093.000000) scale(0.100000,-0.100000)"
fill="#000000" stroke="none">
<path d="M6360 16899 c-83 -13 -97 -25 -82 -76 6 -21 20 -108 32 -193 11 -85
27 -191 35 -235 8 -44 26 -173 40 -288 28 -231 70 -543 85 -627 57 -336 57
-336 96 -350 33 -13 282 25 306 47 49 44 -3 73 -110 60 -42 -5 -93 -10 -112
-10 l-34 -2 -18 100 c-16 93 -34 205 -58 367 -5 37 -14 112 -20 165 -6 54 -13
114 -16 135 -5 34 -4 36 27 43 18 4 56 7 84 6 27 -1 74 2 103 5 44 5 53 10 58
31 4 16 0 31 -12 44 -19 21 -42 21 -220 3 -47 -5 -52 -3 -58 18 -9 34 -84 565
-88 623 l-3 50 115 5 c63 3 120 8 126 12 19 13 23 46 7 60 -20 16 -194 20
-283 7z"/>
<path d="M9200 16892 l-21 -17 11 -285 c6 -157 15 -357 20 -444 5 -88 7 -163
5 -166 -2 -4 -37 -8 -77 -9 -40 -1 -87 -4 -105 -7 -30 -6 -32 -4 -37 28 -6 37
-15 390 -17 633 -2 188 -9 222 -46 231 -58 15 -58 13 -55 -287 4 -304 16 -601
31 -784 5 -66 15 -253 21 -415 13 -363 15 -378 46 -392 18 -8 31 -8 50 1 l27
12 -6 97 c-4 53 -11 230 -17 392 -6 162 -15 314 -19 337 -6 29 -5 46 3 52 6 5
56 10 111 12 l100 4 7 -70 c9 -92 38 -670 38 -761 0 -79 15 -104 63 -104 43 0
50 28 43 159 -14 243 -46 762 -56 906 -24 325 -30 458 -30 650 0 110 -4 205
-8 211 -7 10 -45 34 -55 34 -3 0 -15 -8 -27 -18z"/>
<path d="M5878 16822 c-12 -19 -12 -41 3 -184 10 -90 23 -239 29 -333 15 -239
38 -438 85 -714 21 -125 9 -122 -48 9 -15 36 -35 81 -44 100 -25 54 -163 402
-163 412 0 4 -9 27 -19 51 -11 23 -36 83 -56 132 -20 50 -43 104 -50 120 -8
17 -34 73 -58 125 -66 145 -113 233 -134 253 -19 17 -21 17 -44 -2 l-23 -19
17 -178 c88 -889 167 -1485 204 -1542 11 -17 21 -22 36 -18 12 3 32 6 45 6 13
0 20 4 17 10 -3 6 -10 31 -14 58 -5 26 -18 101 -30 167 -33 177 -88 581 -100
730 -25 298 -29 370 -22 378 4 4 49 -95 101 -220 51 -126 106 -256 122 -291
15 -34 28 -65 28 -68 0 -3 11 -30 25 -60 14 -30 25 -57 25 -60 0 -4 16 -40 35
-81 19 -41 35 -76 35 -78 0 -4 27 -63 101 -222 21 -46 56 -113 78 -150 62
-105 56 -99 83 -84 l24 12 -12 92 c-7 51 -19 137 -28 192 -8 55 -20 143 -26
195 -6 52 -20 158 -30 235 -29 204 -67 579 -84 819 -9 115 -17 211 -20 213 -2
2 -19 6 -38 10 -28 4 -38 1 -50 -15z"/>
<path d="M9794 16780 c-51 -24 -66 -46 -108 -164 -57 -157 -78 -303 -83 -588
-8 -386 27 -641 110 -816 56 -116 123 -172 205 -172 117 0 182 87 219 293 26
151 20 612 -11 807 -18 115 -55 290 -66 315 -5 11 -16 45 -26 75 -41 135 -88
218 -139 250 -40 24 -49 24 -101 0z m89 -123 c38 -64 113 -345 143 -532 25
-154 31 -652 10 -770 -22 -126 -33 -160 -62 -195 -38 -44 -73 -41 -118 11 -68
80 -120 249 -146 474 -13 116 -13 434 0 566 27 269 90 486 142 489 3 0 17 -19
31 -43z"/>
<path d="M4755 16712 c-41 -25 -50 -39 -73 -102 -59 -162 -77 -319 -69 -619 6
-249 15 -344 48 -506 51 -247 123 -402 218 -468 85 -59 200 -37 249 49 52 91
68 186 66 399 -2 133 -45 583 -60 625 -3 8 -17 58 -30 110 -88 339 -189 530
-283 530 -20 0 -49 -8 -66 -18z m108 -128 c51 -85 126 -321 171 -539 54 -259
75 -696 41 -845 -19 -82 -55 -130 -98 -130 -48 0 -118 103 -167 244 -61 176
-88 360 -97 667 -7 256 9 432 54 574 28 91 54 99 96 29z"/>
<path d="M8465 16656 c-17 -12 -18 -44 -23 -681 -4 -522 -7 -665 -17 -652 -12
17 -126 359 -143 432 -5 22 -17 70 -26 107 -8 37 -23 79 -32 93 -19 29 -59 33
-73 8 -5 -10 -12 -106 -15 -213 -7 -211 -12 -263 -25 -255 -5 2 -11 19 -14 37
-5 37 -121 619 -137 688 -5 25 -17 85 -25 134 -28 166 -57 236 -98 236 -48 0
-56 -28 -32 -106 8 -27 26 -112 40 -189 14 -77 32 -178 41 -225 9 -47 29 -148
44 -225 16 -77 38 -185 50 -240 11 -55 25 -118 30 -140 8 -34 39 -163 101
-430 17 -74 36 -105 62 -105 50 1 52 9 50 230 -2 218 4 360 17 360 4 0 17 -28
28 -62 60 -182 131 -378 151 -415 38 -76 91 -78 110 -5 13 52 19 1598 6 1610
-19 18 -51 22 -70 8z"/>
<path d="M3971 16649 c-88 -11 -95 -20 -77 -95 7 -32 21 -108 30 -169 8 -60
27 -182 41 -270 13 -88 32 -225 40 -305 16 -147 62 -480 90 -645 32 -196 43
-247 61 -267 17 -19 26 -20 104 -14 116 9 220 30 231 47 14 23 10 38 -15 54
-21 14 -34 14 -131 0 -117 -18 -125 -16 -125 34 0 12 -9 73 -20 135 -56 316
-90 610 -73 627 7 7 60 13 130 15 96 3 120 7 131 21 16 22 15 26 -8 53 -19 22
-24 22 -112 16 -51 -4 -108 -9 -125 -13 -41 -7 -45 3 -67 162 -8 66 -27 197
-41 290 -13 94 -25 187 -25 208 0 42 -10 39 146 41 85 1 114 13 114 46 0 11
-12 22 -31 29 -36 12 -172 13 -268 0z"/>
<path d="M3507 16583 c-5 -8 -46 -179 -53 -223 -3 -14 -9 -41 -14 -60 -5 -19
-27 -118 -50 -220 -22 -102 -43 -195 -46 -208 -2 -13 -9 -22 -14 -20 -5 2 -48
80 -96 173 -169 334 -276 517 -304 523 -9 1 -24 -4 -34 -11 -20 -15 -20 -21
44 -352 11 -58 58 -351 66 -410 3 -22 12 -83 19 -135 34 -217 54 -358 60 -405
7 -57 54 -379 61 -412 5 -28 38 -38 75 -23 32 14 34 22 19 115 -5 33 -16 107
-24 165 -9 58 -23 143 -31 190 -8 47 -19 119 -25 160 -7 41 -21 131 -31 200
-11 69 -28 181 -39 250 -10 69 -24 153 -30 188 -6 35 -8 68 -4 73 3 6 38 -52
76 -128 98 -191 211 -363 240 -363 10 0 24 33 45 105 16 55 20 70 56 234 14
62 30 118 36 124 6 6 11 8 11 5 0 -20 52 -492 64 -583 40 -298 103 -611 137
-680 17 -35 29 -40 53 -22 17 13 18 20 8 83 -6 38 -13 78 -15 89 -3 11 -7 38
-11 60 -3 22 -22 139 -42 260 -46 289 -97 751 -120 1105 -7 119 -22 160 -59
160 -13 0 -26 -3 -28 -7z"/>
<path d="M2305 16457 c-46 -26 -64 -57 -99 -179 -42 -147 -56 -329 -44 -598
19 -436 91 -726 219 -878 60 -70 154 -91 234 -52 66 32 102 116 124 292 13 97
8 207 -20 488 -24 240 -26 256 -51 355 -82 334 -172 535 -260 581 -37 19 -56
17 -103 -9z m98 -115 c36 -51 113 -267 156 -437 82 -323 107 -914 43 -1032
-60 -111 -163 -40 -237 163 -74 205 -110 499 -102 839 6 228 14 297 53 425 28
92 46 101 87 42z"/>
<path d="M1605 16366 c-127 -32 -194 -85 -218 -173 -20 -74 -33 -269 -19 -286
6 -7 11 -16 12 -22 3 -25 12 -62 21 -82 5 -13 13 -33 18 -45 54 -133 113 -201
255 -297 216 -146 300 -342 251 -583 -13 -66 -19 -77 -60 -115 -25 -23 -69
-51 -98 -61 -42 -16 -53 -24 -55 -46 -5 -37 35 -55 84 -37 56 20 152 81 179
113 35 41 55 118 62 230 9 146 -14 238 -91 363 -44 72 -71 100 -163 170 -156
118 -210 168 -231 215 -74 163 -74 161 -79 276 -10 212 31 283 170 297 70 7
109 51 75 85 -15 15 -48 14 -113 -2z"/>
<path d="M11575 15233 c-43 -10 -70 -74 -43 -101 32 -32 112 10 106 56 -3 29
-34 51 -63 45z"/>
<path d="M11041 15184 c-36 -45 -22 -84 29 -84 31 0 70 37 70 66 0 49 -65 61
-99 18z"/>
<path d="M10531 15164 c-29 -36 -27 -68 4 -82 30 -14 62 -2 87 32 41 57 -47
106 -91 50z"/>
<path d="M12870 15023 c0 -11 11 -34 25 -53 16 -22 23 -41 19 -56 -3 -12 1
-35 9 -50 9 -16 120 -132 248 -259 364 -360 466 -481 554 -655 30 -60 25 -70
-35 -70 -29 0 -36 4 -37 21 -3 31 -72 165 -118 228 -109 148 -337 406 -377
427 -75 39 -136 -15 -103 -92 7 -18 47 -68 87 -111 89 -94 221 -249 270 -318
30 -43 98 -166 98 -179 0 -2 -17 -7 -37 -10 -21 -4 -45 -9 -53 -12 -11 -3 -24
13 -44 53 -35 73 -120 192 -183 259 -59 63 -105 89 -132 74 -13 -7 -22 -7 -26
0 -14 23 -35 9 -35 -22 1 -47 33 -111 81 -163 44 -47 179 -228 174 -233 -1 -2
-52 -16 -111 -32 -357 -93 -617 -213 -899 -413 -227 -161 -344 -285 -424 -450
-66 -138 -75 -171 -74 -282 0 -103 6 -133 82 -445 23 -91 41 -169 40 -175 0
-5 -13 26 -29 69 -36 96 -53 116 -96 116 -54 0 -55 -18 -8 -158 78 -234 206
-846 229 -1095 5 -53 11 -69 26 -78 11 -5 24 -22 30 -37 l10 -26 19 30 c11 16
20 36 21 44 2 29 18 -66 18 -114 l1 -48 -60 56 c-79 72 -121 86 -178 57 -23
-12 -52 -33 -66 -47 -50 -55 -63 -183 -31 -319 22 -95 20 -107 -20 -133 -32
-20 -204 -157 -361 -287 -34 -27 -88 -71 -120 -97 -78 -62 -293 -273 -374
-368 -36 -41 -71 -81 -78 -88 -7 -8 -25 -30 -40 -50 -15 -21 -31 -42 -37 -48
-25 -29 -166 -215 -217 -288 -95 -135 -157 -242 -264 -452 -177 -350 -228
-508 -227 -704 0 -228 70 -324 234 -323 101 1 234 46 387 131 254 141 355 218
597 452 414 401 569 561 699 728 27 34 50 61 52 60 9 -9 -95 -436 -138 -568
-59 -182 -268 -753 -386 -1060 -84 -215 -97 -257 -131 -400 -43 -179 -61 -329
-68 -540 -6 -197 3 -301 37 -437 25 -97 81 -243 132 -347 153 -305 415 -554
706 -669 34 -14 42 -21 37 -35 -26 -68 -158 -481 -205 -641 -137 -475 -164
-972 -79 -1456 44 -251 93 -418 210 -713 16 -40 27 -77 25 -81 -3 -4 -42 -1
-88 5 -156 24 -388 28 -568 10 -374 -38 -685 -109 -920 -212 -109 -48 -140
-81 -140 -151 0 -35 6 -48 35 -78 20 -19 43 -35 51 -35 8 0 40 -12 71 -26 66
-32 203 -54 328 -54 109 0 671 77 840 115 66 15 158 39 205 53 47 13 120 35
163 48 78 24 155 62 177 89 7 8 21 15 33 15 29 0 85 38 93 62 9 29 -14 45 -77
53 -43 6 -49 10 -49 31 0 13 -25 104 -56 201 -106 332 -164 579 -200 843 -27
195 -24 551 5 750 43 298 104 542 187 743 68 167 176 367 199 367 6 0 42 -9
80 -20 193 -55 544 -100 785 -100 130 0 322 15 478 36 62 9 115 14 118 11 3
-2 0 -42 -6 -88 -6 -46 -13 -146 -17 -221 -5 -114 -3 -144 10 -175 12 -29 17
-86 21 -238 7 -285 57 -546 175 -916 160 -502 346 -886 553 -1144 26 -33 48
-64 48 -68 0 -12 -105 0 -315 35 -394 65 -732 43 -1145 -77 -146 -42 -216 -74
-256 -116 -26 -27 -29 -37 -29 -97 0 -81 7 -105 41 -137 62 -58 266 -92 609
-102 248 -7 458 6 773 48 265 35 337 55 370 105 l22 34 -30 0 c-16 0 -62 -11
-102 -25 -71 -23 -152 -38 -403 -69 -278 -36 -574 -45 -829 -26 -201 15 -382
48 -364 66 3 2 18 0 34 -6 54 -21 230 -40 374 -40 199 0 974 76 1110 110 19 4
64 11 99 15 83 8 135 30 166 69 14 17 37 43 50 59 49 54 26 129 -92 304 -129
192 -213 349 -328 613 -136 314 -271 748 -324 1046 -53 299 -50 647 9 911 6
25 12 75 14 111 l3 66 49 13 c152 42 352 112 500 174 93 39 205 86 249 104
300 124 375 217 640 790 118 257 172 447 286 1023 23 117 45 209 49 205 4 -5
24 -55 45 -113 66 -186 156 -358 227 -434 100 -110 250 -202 377 -230 96 -22
151 -11 286 54 164 79 299 206 375 353 75 145 116 376 79 452 -35 73 -125 99
-230 65 -61 -20 -71 -21 -82 -8 -7 8 -26 21 -44 28 -42 16 -114 0 -197 -43
-45 -24 -72 -31 -116 -32 -78 -1 -175 -50 -257 -128 -54 -52 -65 -58 -79 -46
-25 21 -176 226 -229 312 -26 43 -44 82 -39 86 5 4 23 13 39 19 46 17 346 110
380 118 17 4 83 27 148 50 412 152 725 402 904 723 57 100 84 206 90 349 16
362 -131 641 -467 882 -181 131 -562 280 -715 280 -46 0 -55 3 -71 27 -9 15
-26 36 -36 47 -21 23 -25 134 -8 276 22 190 27 396 19 820 -12 671 -40 945
-140 1345 -20 80 -101 333 -119 370 -5 11 -27 65 -49 120 -22 55 -54 132 -71
170 -18 39 -41 90 -52 115 -143 319 -240 443 -416 526 -87 42 -284 105 -394
128 -117 24 -401 64 -548 77 -113 9 -371 8 -558 -4 -20 -2 -27 7 -43 48 -47
123 -129 258 -232 378 -107 126 -598 615 -634 632 -19 10 -46 15 -59 12 -17
-3 -35 6 -64 30 -34 29 -40 32 -40 16z m1825 -1317 c306 -43 433 -70 595 -128
190 -69 230 -98 301 -220 46 -79 169 -347 223 -488 51 -132 142 -438 175 -590
77 -354 97 -554 112 -1155 11 -447 9 -592 -16 -860 -8 -88 -16 -183 -18 -212
-3 -64 -7 -67 -187 -159 -272 -140 -454 -207 -800 -295 -643 -164 -902 -197
-1404 -179 -344 12 -449 27 -676 92 -96 27 -270 89 -345 123 -16 7 -111 48
-210 90 -98 41 -181 78 -184 80 -2 3 5 15 16 28 34 37 43 63 43 125 l0 59 58
6 c167 19 238 80 229 199 -4 45 -13 69 -44 115 -21 32 -54 68 -73 81 -19 13
-36 26 -38 30 -1 4 46 16 105 26 126 21 383 85 464 115 116 44 188 121 196
209 4 39 0 54 -26 94 -48 76 -94 99 -213 111 -190 19 -267 -6 -568 -182 -74
-43 -138 -76 -142 -74 -5 2 -8 37 -8 76 0 89 -25 365 -45 512 -23 159 -143
721 -224 1050 -48 196 -54 251 -36 318 66 251 296 474 725 699 481 254 1387
390 2015 304z m-1649 -2880 c14 -15 24 -35 22 -44 -7 -36 -189 -99 -427 -147
-68 -14 -131 -29 -140 -34 -9 -5 -52 -16 -96 -26 -58 -13 -98 -29 -147 -61
l-67 -43 1 -51 c0 -45 3 -52 29 -65 27 -15 29 -14 29 5 0 26 0 26 73 -11 86
-42 122 -68 142 -102 15 -25 15 -31 3 -43 -31 -31 -228 -48 -228 -19 0 19
-114 -46 -118 -68 -2 -8 15 -34 38 -58 49 -52 54 -96 15 -134 -47 -48 -154
-23 -248 59 -66 57 -120 78 -198 78 -38 -1 -69 0 -69 2 0 4 148 116 196 149
76 51 83 92 41 253 -37 143 -39 197 -7 214 17 9 26 5 61 -27 25 -24 43 -51 48
-72 3 -19 15 -39 26 -45 11 -6 26 -19 33 -28 17 -23 29 -23 37 1 11 35 56 70
128 97 40 15 126 54 193 86 66 32 125 58 130 58 5 0 29 14 53 30 24 17 63 35
85 41 23 6 59 17 81 25 26 9 78 12 148 11 106 -2 110 -3 133 -31z m-1249 -931
c20 -9 55 -30 77 -49 45 -36 117 -76 139 -76 7 0 21 -6 31 -13 16 -12 16 -16
-9 -64 -32 -62 -44 -183 -26 -260 l12 -49 -72 -120 c-147 -243 -274 -390 -677
-782 -336 -328 -407 -391 -533 -473 -240 -157 -403 -228 -522 -229 -49 0 -59
24 -59 150 1 165 45 296 218 642 111 224 165 312 302 498 198 268 319 410 486
572 104 102 113 108 152 108 31 0 56 10 105 42 86 55 155 86 231 103 83 18
102 18 145 0z m4226 -122 c-54 -99 -83 -140 -228 -323 -151 -189 -205 -245
-440 -455 -301 -269 -441 -362 -554 -372 -56 -4 -56 -4 -143 61 -101 77 -311
299 -472 499 -21 27 -50 59 -63 71 l-24 22 133 13 c273 25 532 80 1028 217
217 60 475 165 679 275 58 32 109 58 113 58 4 1 -9 -29 -29 -66z m384 -34
c166 -22 499 -158 633 -258 85 -64 218 -199 256 -262 98 -161 138 -398 100
-580 -48 -224 -222 -449 -484 -625 -118 -79 -307 -173 -447 -221 -214 -74
-498 -164 -502 -159 -6 6 20 215 77 616 27 190 56 420 64 510 27 298 48 922
32 968 -7 22 -7 22 93 22 55 0 135 -5 178 -11z m-4105 -95 c596 -258 800 -318
1198 -350 113 -10 207 -18 209 -20 2 -2 -20 -28 -48 -57 -63 -66 -95 -111
-137 -197 -24 -49 -75 -112 -211 -260 -225 -244 -311 -325 -388 -361 -102 -49
-98 -52 -223 159 -37 62 -71 121 -77 130 -112 188 -301 475 -404 612 -92 124
-114 181 -108 280 3 63 21 130 33 130 2 0 72 -30 156 -66z m3684 -186 c-3 -46
-11 -189 -16 -318 -13 -298 -31 -500 -75 -820 -19 -140 -48 -372 -66 -515 -54
-455 -172 -1044 -290 -1450 -66 -226 -214 -554 -361 -802 -77 -129 -144 -181
-353 -273 -504 -221 -739 -289 -1200 -347 -195 -24 -562 -24 -745 0 -213 28
-362 64 -600 144 -287 97 -479 246 -637 493 -80 125 -170 347 -200 495 -37
184 -17 570 42 824 33 137 45 173 120 366 104 264 304 803 375 1011 72 211
147 535 182 789 l13 90 76 -115 c99 -150 254 -398 362 -581 95 -162 140 -214
196 -229 52 -14 127 10 216 68 84 54 271 239 379 374 73 91 96 109 96 72 0
-52 105 -181 166 -204 21 -8 25 -15 20 -33 -12 -42 -73 -302 -95 -407 -112
-523 -220 -874 -400 -1297 -89 -209 -104 -264 -91 -333 13 -66 17 -75 90 -190
92 -145 162 -271 216 -386 85 -181 114 -281 140 -482 44 -344 78 -346 323 -22
19 25 37 47 41 50 35 26 416 546 468 639 14 25 42 69 62 96 60 82 70 119 70
260 0 154 -29 387 -81 655 -38 193 -58 277 -149 615 -21 77 -57 221 -80 320
-23 99 -53 218 -65 265 -13 47 -31 119 -40 160 -9 41 -21 88 -26 104 -5 15 -6
32 -3 37 3 5 40 10 82 11 49 1 60 3 32 5 -77 6 -77 8 -3 86 37 40 77 90 87
112 10 22 20 42 22 44 2 2 27 -23 56 -55 117 -130 249 -243 333 -286 43 -23
121 -27 169 -9 49 19 218 137 327 228 284 238 538 475 612 573 23 30 47 61 54
67 6 7 42 51 79 98 37 47 69 85 72 85 2 0 2 -37 -2 -82z m-1989 -288 c44 -35
165 -174 179 -207 49 -113 -46 -259 -186 -287 -8 -2 -28 -8 -43 -14 -51 -21
-117 -14 -187 19 -84 39 -110 64 -110 103 1 97 142 305 260 382 44 28 55 29
87 4z m198 -1660 c117 -476 168 -778 169 -1005 1 -138 1 -141 -31 -200 -29
-57 -99 -164 -194 -300 -77 -109 -201 -275 -205 -275 -6 0 44 88 61 110 84
104 42 213 -67 175 -23 -8 -44 -12 -47 -9 -3 2 18 28 45 57 181 187 223 267
174 330 -27 34 -53 34 -114 2 -26 -14 -49 -25 -52 -25 -3 0 37 42 89 93 68 66
97 101 102 125 9 43 -15 82 -51 82 -27 0 -92 -30 -139 -65 -40 -30 -267 -156
-272 -151 -2 2 31 35 74 74 43 38 121 108 174 155 138 123 171 199 105 242
-27 18 -52 11 -135 -41 -58 -36 -43 -14 25 36 77 57 183 159 200 191 30 59 7
119 -46 119 -24 0 -194 -93 -233 -127 -40 -36 -24 -1 29 63 116 140 136 194
93 248 -34 44 -64 36 -168 -42 -24 -18 -46 -31 -49 -28 -2 3 19 31 47 62 64
70 128 162 137 198 9 37 -13 85 -43 93 -16 4 -41 -2 -69 -15 -24 -12 -44 -19
-44 -16 0 3 40 58 88 122 98 131 121 175 105 201 -13 20 -55 26 -95 12 -17 -6
-33 -9 -36 -7 -2 3 16 33 40 68 59 83 98 165 98 203 0 40 -30 68 -71 67 -29
-1 -30 0 -16 21 8 12 29 46 48 76 l33 55 78 -315 c43 -173 116 -469 163 -659z
m-398 655 c-4 -8 -11 -15 -17 -15 -7 0 -7 6 0 21 13 23 26 19 17 -6z m23 -260
c0 -3 -8 -13 -17 -23 -10 -10 -35 -38 -57 -61 -21 -23 -40 -40 -42 -38 -2 2
-1 22 4 43 7 33 15 42 52 61 46 23 60 27 60 18z m3053 -720 c-69 -60 -141
-153 -208 -266 -45 -76 -55 -101 -55 -139 0 -51 13 -70 48 -70 41 0 58 17 130
132 83 132 141 200 224 265 48 37 71 47 109 51 47 4 49 4 49 -21 0 -57 -31
-180 -63 -249 -64 -138 -170 -238 -339 -318 -99 -47 -155 -56 -231 -37 -85 21
-198 88 -272 162 -69 68 -132 181 -189 338 -19 53 -40 105 -46 117 -23 42 7
17 55 -48 89 -119 144 -172 179 -172 38 1 50 9 114 86 49 59 166 144 179 130
4 -3 -5 -19 -19 -34 -37 -39 -138 -193 -145 -219 -3 -13 -2 -42 1 -66 7 -43
12 -46 76 -38 6 0 27 27 47 59 103 161 231 301 323 351 79 44 93 38 33 -14z
m-3292 -122 c-6 -10 -26 -35 -44 -55 -19 -20 -51 -59 -72 -87 -21 -28 -40 -49
-42 -47 -2 2 9 34 24 73 26 64 32 72 83 101 30 17 56 31 58 31 1 1 -2 -7 -7
-16z m-202 -374 l23 -31 -39 -42 c-66 -68 -83 -96 -83 -134 0 -69 58 -92 133
-52 53 29 54 25 10 -22 -21 -24 -50 -58 -63 -76 l-24 -33 -19 23 c-70 89 -72
142 -7 296 24 56 44 102 45 102 1 0 12 -14 24 -31z m192 -441 c-72 -85 -101
-125 -101 -140 0 -29 -13 -21 -38 22 l-22 39 82 50 c94 56 106 61 79 29z m303
-60 c-117 -124 -151 -164 -195 -229 -50 -73 -59 -110 -36 -140 23 -30 53 -31
122 -4 37 15 68 25 70 23 3 -2 -12 -26 -31 -54 -44 -61 -89 -149 -98 -191 -5
-21 -2 -43 8 -66 14 -29 15 -38 3 -72 l-14 -39 -18 99 c-24 134 -55 226 -126
372 -32 68 -59 124 -59 126 0 3 17 7 38 11 20 3 78 32 127 64 246 159 281 175
209 100z m-1999 -4298 c50 -7 50 -7 10 -9 -45 -1 -150 -17 -370 -56 -157 -27
-645 -86 -705 -84 -32 1 -30 2 25 20 140 46 230 65 471 99 245 34 469 46 569
30z m2484 -66 c196 -31 234 -42 140 -43 -36 -1 -117 -8 -180 -16 -336 -45
-730 -78 -909 -78 -102 0 -198 5 -215 10 -29 9 -27 10 45 32 204 63 312 82
575 105 243 21 358 19 544 -10z m-2324 -54 c-34 -15 -216 -68 -304 -89 -81
-19 -242 -46 -551 -91 -165 -25 -393 -35 -460 -22 l-45 8 70 8 c523 54 713 81
976 137 126 27 295 56 324 57 6 1 1 -3 -10 -8z"/>
<path d="M13826 13058 c-24 -34 -19 -71 15 -118 66 -91 144 -296 183 -481 8
-38 43 -77 89 -99 22 -11 41 -19 42 -17 0 1 13 20 28 43 34 51 34 76 -4 209
-74 266 -211 485 -303 485 -25 0 -39 -7 -50 -22z"/>
<path d="M13660 12644 c-14 -10 -28 -23 -32 -28 -17 -24 -6 -78 31 -158 22
-47 54 -134 71 -194 35 -121 56 -150 116 -165 36 -8 41 -6 67 21 21 23 27 40
27 74 0 82 -120 397 -167 439 -30 27 -83 32 -113 11z"/>
<path d="M13533 10971 c-58 -55 -33 -179 41 -204 39 -13 70 -2 117 43 39 37
41 42 36 81 -8 62 -40 89 -113 96 -51 4 -62 2 -81 -16z"/>
<path d="M15425 13940 c-9 -14 2 -27 118 -139 151 -145 221 -251 303 -456 18
-45 35 -70 53 -79 14 -8 40 -37 56 -65 17 -28 33 -51 38 -51 14 0 7 35 -13 68
-12 20 -18 42 -15 55 9 36 -95 257 -172 365 -75 105 -234 257 -310 296 -37 19
-49 20 -58 6z"/>
<path d="M3921 12711 c-11 -7 -12 -48 -2 -252 6 -134 13 -275 16 -314 2 -38 7
-225 10 -415 5 -270 12 -617 15 -683 0 -17 50 -27 76 -15 l26 12 -6 186 c-9
250 -14 441 -21 715 -3 127 -8 260 -11 297 -3 38 -1 69 5 72 7 5 51 -88 51
-110 0 -3 23 -61 50 -130 54 -136 90 -206 123 -242 l21 -23 20 38 c25 49 86
194 86 206 0 5 7 23 15 40 8 18 23 56 32 86 10 30 23 56 28 58 7 2 10 -163 11
-480 0 -381 3 -508 16 -608 19 -147 30 -172 66 -156 l25 12 -6 155 c-17 403
-19 806 -6 1080 21 442 21 434 -30 442 -21 3 -26 -4 -42 -47 -110 -311 -229
-630 -235 -628 -7 2 -18 30 -83 218 -17 50 -35 99 -40 110 -5 11 -28 70 -51
130 -92 237 -115 273 -159 246z"/>
<path d="M5722 12708 c-22 -22 -7 -229 32 -473 26 -155 77 -1180 62 -1215 -8
-17 -4 -27 17 -48 23 -22 30 -25 54 -16 l28 10 -2 119 c-1 66 -7 228 -12 359
-6 132 -8 244 -4 249 8 13 12 4 87 -182 66 -163 131 -385 144 -491 6 -44 12
-57 31 -66 20 -10 29 -10 48 3 21 14 23 21 17 67 -25 211 -189 674 -264 744
-20 18 -20 21 -4 78 129 462 179 699 172 809 -3 44 -6 51 -31 59 -51 18 -61 1
-68 -110 -4 -54 -11 -119 -17 -144 -5 -25 -17 -79 -26 -120 -26 -119 -87 -344
-95 -353 -10 -10 -15 24 -36 218 -9 83 -22 195 -30 250 -8 55 -17 132 -20 170
-4 39 -12 76 -17 83 -13 15 -50 16 -66 0z"/>
<path d="M4962 12658 c-30 -33 -41 -67 -62 -198 -31 -186 -50 -400 -56 -625
-5 -197 -18 -391 -45 -666 -7 -64 -9 -128 -6 -141 9 -35 53 -53 82 -34 19 13
22 24 23 88 1 41 7 119 13 174 6 54 16 178 22 274 l12 175 120 11 c66 6 122 9
125 7 2 -2 10 -52 17 -111 7 -59 14 -120 16 -137 3 -16 14 -107 25 -200 22
-181 35 -252 49 -265 4 -5 23 -2 42 6 l33 14 -6 98 c-4 53 -13 142 -21 197 -8
55 -17 134 -20 175 -40 477 -146 999 -224 1109 -50 70 -101 88 -139 49z m78
-150 c20 -48 101 -384 120 -501 11 -67 22 -133 24 -147 7 -39 -4 -46 -69 -49
-33 -1 -78 -6 -100 -11 -79 -18 -76 -21 -70 83 19 308 27 416 35 452 5 22 14
75 21 118 12 79 22 94 39 55z"/>
<path d="M6613 12651 c-39 -3 -73 -8 -76 -11 -2 -3 0 -131 4 -285 4 -154 8
-446 9 -650 1 -203 5 -448 9 -543 8 -222 -1 -212 186 -212 117 0 136 2 156 19
l24 20 -21 21 c-18 19 -34 22 -130 25 l-109 3 -7 93 c-3 52 -9 223 -13 380 -5
253 -4 287 10 299 12 10 39 11 127 4 89 -8 114 -7 125 4 16 17 16 32 -2 55
-11 16 -33 20 -133 24 l-120 6 -6 51 c-3 28 -6 179 -6 335 l0 284 86 -7 c48
-3 97 -9 110 -12 26 -7 67 27 58 49 -6 16 -99 44 -164 49 -25 2 -77 2 -117 -1z"/>
<path d="M7385 12599 c-72 -10 -159 -45 -188 -77 -32 -35 -69 -163 -74 -259
-5 -73 -1 -111 17 -190 33 -144 55 -181 197 -322 109 -109 129 -135 166 -210
39 -80 42 -93 45 -186 4 -88 1 -110 -23 -180 -37 -110 -58 -130 -175 -165 -45
-13 -56 -21 -58 -40 -4 -26 20 -50 51 -50 34 0 184 71 212 100 33 35 69 130
86 231 18 111 2 218 -52 329 -35 74 -56 101 -169 215 -136 138 -154 166 -185
290 -22 91 -21 198 6 296 29 106 57 130 164 137 90 6 117 25 95 67 -7 14 -20
24 -29 24 -9 -1 -47 -6 -86 -10z"/>
<path d="M7560 9736 c-173 -36 -230 -114 -231 -317 -1 -105 18 -182 70 -292
32 -68 112 -152 195 -205 82 -53 172 -164 204 -252 23 -66 26 -181 7 -264 -21
-91 -43 -117 -132 -157 -34 -16 -64 -32 -67 -37 -9 -15 24 -52 47 -52 33 0
146 60 183 97 44 43 65 114 71 238 4 83 2 112 -16 170 -36 122 -93 197 -241
319 -72 59 -137 118 -146 131 -8 12 -29 58 -47 101 -29 74 -31 87 -32 204 0
107 3 130 20 159 30 50 66 73 127 79 74 6 111 45 76 80 -14 14 -13 14 -88 -2z"/>
<path d="M4880 9655 c-14 -16 -10 -74 31 -569 11 -131 18 -240 16 -242 -7 -7
-182 -21 -188 -15 -6 6 -33 376 -45 628 -6 122 -8 133 -30 154 -22 20 -26 21
-49 9 -25 -14 -26 -16 -20 -89 3 -42 9 -134 15 -206 5 -71 12 -197 16 -280 3
-82 12 -190 19 -240 8 -49 21 -178 29 -285 15 -177 22 -268 42 -488 6 -61 11
-76 29 -88 18 -12 27 -12 49 -3 24 11 26 17 22 53 -8 64 -34 365 -46 534 -6
84 -15 164 -20 177 -13 34 3 42 101 50 l87 7 11 -68 c10 -66 45 -459 58 -649
3 -49 10 -96 16 -102 5 -7 22 -13 37 -13 15 0 32 6 38 13 10 12 3 170 -18 367
-5 52 -16 158 -24 235 -9 77 -18 175 -21 218 -3 43 -12 124 -19 180 -15 107
-31 300 -45 549 -5 93 -13 153 -21 163 -16 19 -54 19 -70 0z"/>
<path d="M6218 9652 c-28 -6 -31 -39 -18 -189 6 -76 15 -233 20 -349 5 -116
16 -258 24 -315 8 -57 20 -145 26 -196 5 -50 13 -107 16 -125 11 -55 -18 -15
-55 77 -18 44 -38 94 -45 110 -14 30 -95 253 -123 335 -8 25 -19 54 -24 65 -4
11 -34 85 -65 165 -58 149 -150 350 -176 384 -16 21 -52 15 -62 -10 -5 -14 55
-797 75 -969 6 -49 17 -146 24 -215 24 -209 44 -339 55 -360 11 -21 29 -24 68
-14 24 7 24 10 2 124 -10 50 -32 211 -55 395 -24 195 -46 503 -43 600 3 102 3
102 57 -40 86 -227 227 -585 256 -650 8 -16 32 -73 54 -125 50 -119 107 -237
133 -272 17 -24 22 -26 39 -15 19 11 20 19 14 82 -3 39 -10 95 -15 125 -5 30
-16 129 -25 220 -8 91 -20 194 -25 230 -17 114 -60 680 -60 796 0 112 -3 124
-40 136 -8 2 -23 3 -32 0z"/>
<path d="M6768 9630 c-110 -21 -149 -157 -149 -515 0 -385 42 -671 125 -850
37 -81 85 -126 157 -150 43 -15 52 -15 102 0 91 26 103 52 117 245 10 143 -5
390 -26 432 -12 22 -23 28 -68 33 -30 4 -58 5 -63 2 -4 -3 -30 -1 -58 3 -59 9
-85 -1 -85 -35 0 -32 22 -42 100 -44 96 -2 96 -3 105 -74 10 -90 7 -311 -6
-382 -13 -77 -31 -105 -67 -105 -68 0 -118 63 -160 205 -43 143 -59 263 -80
615 -11 178 -11 199 0 330 14 173 35 215 103 207 22 -2 55 -10 73 -18 24 -10
37 -11 50 -3 71 45 -60 126 -170 104z"/>
<path d="M5356 9561 c-16 -17 -16 -25 -1 -117 10 -58 20 -212 25 -369 5 -148
12 -304 15 -345 3 -41 12 -185 20 -320 18 -289 31 -386 56 -411 21 -21 56 -15
64 11 3 10 -1 101 -9 202 -41 486 -48 598 -52 798 -7 346 -28 512 -70 555 -20
20 -27 19 -48 -4z"/>
<path d="M4264 9415 c-34 -7 -142 -18 -241 -25 -158 -12 -182 -16 -192 -33
-18 -28 12 -71 42 -62 12 3 47 9 78 12 l55 5 12 -83 c6 -46 16 -129 22 -184
12 -108 33 -277 55 -445 8 -58 17 -134 20 -170 4 -36 11 -87 16 -115 5 -27 13
-101 19 -164 6 -63 16 -121 22 -128 14 -17 53 -17 67 1 7 9 10 32 7 58 -3 23
-10 97 -16 163 -6 66 -15 145 -20 175 -5 30 -11 82 -15 115 -6 62 -25 204 -50
385 -15 105 -37 320 -39 374 -1 28 1 29 49 33 75 5 178 24 193 36 18 14 15 45
-5 55 -11 5 -43 4 -79 -3z"/>
<path d="M11305 7726 c-26 -35 -84 -162 -126 -279 -20 -55 -22 -70 -12 -87 9
-14 10 -27 3 -46 -6 -15 -9 -29 -6 -31 2 -3 7 5 11 16 3 12 19 28 35 36 18 9
33 28 41 52 6 21 35 99 64 173 39 99 51 144 48 168 -7 41 -25 41 -58 -2z"/>
<path d="M11382 7447 c-12 -13 -36 -61 -53 -108 -128 -349 -197 -682 -215
-1035 -7 -139 -6 -141 16 -157 21 -14 22 -21 17 -73 -7 -64 0 -66 14 -2 6 24
20 53 32 66 20 21 22 38 29 194 12 286 71 593 178 920 49 152 50 159 35 188
-19 36 -25 37 -53 7z"/>
<path d="M8279 6971 c-21 -17 -24 -27 -23 -83 0 -34 8 -110 17 -168 9 -58 23
-154 31 -215 8 -60 20 -141 26 -179 16 -99 30 -432 30 -719 0 -267 3 -286 54
-339 57 -59 114 -27 161 88 l27 69 2 565 c1 575 -1 622 -40 865 -22 135 -22
135 -153 135 -92 0 -112 -3 -132 -19z"/>
<path d="M15822 6758 c-7 -7 -12 -42 -12 -87 0 -251 -145 -738 -322 -1086 -79
-156 -140 -230 -288 -355 -60 -50 -118 -105 -129 -123 -11 -18 -30 -44 -43
-59 -30 -37 -17 -46 24 -15 18 13 49 33 68 42 105 53 289 215 377 333 196 262
422 942 423 1273 0 73 -10 89 -55 89 -17 0 -36 -5 -43 -12z"/>
<path d="M6147 6698 c-16 -12 -16 -23 -2 -163 14 -136 35 -464 52 -798 5 -113
4 -131 -13 -162 -18 -34 -18 -35 3 -63 21 -28 21 -41 25 -357 l3 -328 26 -20
c24 -17 30 -18 55 -5 l29 13 -4 348 c-3 300 -2 347 11 347 27 0 97 -70 121
-123 79 -167 88 -214 94 -492 5 -214 7 -232 26 -252 25 -27 40 -29 67 -6 19
16 20 29 20 191 0 299 -47 556 -122 666 -26 38 -77 86 -92 86 -6 0 -17 4 -25
9 -12 8 -7 18 26 54 45 48 74 100 97 169 20 62 25 89 36 218 12 139 -2 237
-52 377 -56 157 -123 230 -255 278 -79 28 -102 30 -126 13z m172 -147 c25 -20
49 -56 75 -110 59 -127 69 -171 74 -326 4 -162 -12 -255 -60 -345 -27 -51 -83
-109 -94 -97 -3 2 -12 135 -20 293 -8 159 -19 341 -24 404 -12 158 -12 210 1
210 6 0 28 -13 48 -29z"/>
<path d="M7319 6624 c-9 -11 -13 -36 -11 -73 4 -57 -11 -193 -28 -266 -5 -22
-19 -85 -30 -140 -12 -55 -35 -153 -51 -219 -16 -65 -29 -120 -29 -122 0 -2
-4 -4 -9 -4 -8 0 -18 59 -41 240 -5 41 -16 120 -25 175 -23 158 -45 329 -45
357 0 55 -67 77 -96 32 -16 -24 -16 -35 0 -172 9 -81 26 -201 37 -267 42 -251
69 -558 104 -1190 7 -137 11 -261 8 -275 -3 -19 3 -33 23 -53 32 -32 54 -34
79 -7 20 22 20 22 -15 555 -11 165 -12 275 -2 275 4 0 22 -37 41 -83 18 -45
49 -115 67 -155 19 -40 34 -75 34 -78 0 -3 7 -20 15 -37 24 -54 83 -267 100
-361 21 -125 65 -169 108 -110 21 28 20 48 -15 204 -46 214 -214 627 -284 701
l-25 26 15 69 c9 38 20 85 26 104 13 46 68 268 86 350 32 148 64 360 64 432 0
68 -3 79 -22 92 -29 21 -62 20 -79 0z"/>
<path d="M5515 6562 c-60 -22 -74 -37 -113 -116 -56 -114 -102 -280 -122 -442
-6 -48 -13 -91 -16 -95 -11 -18 -21 -457 -13 -589 8 -139 14 -180 44 -315 45
-203 149 -335 264 -335 58 0 122 29 148 66 28 39 65 114 57 114 -4 0 -2 6 4
13 64 79 98 741 52 1042 -44 298 -78 434 -136 551 -44 89 -107 128 -169 106z
m73 -142 c29 -52 43 -100 82 -295 47 -236 52 -282 57 -525 10 -523 -50 -830
-164 -830 -89 0 -168 195 -200 494 -14 131 -14 181 -3 376 12 233 20 312 44
440 39 209 112 400 149 387 5 -1 21 -23 35 -47z"/>
<path d="M4875 6473 c-11 -26 -13 -42 -24 -223 -29 -457 -50 -927 -51 -1092 0
-168 -13 -165 -66 17 -14 50 -35 122 -46 160 -32 110 -49 184 -59 265 -6 41
-20 95 -32 120 -20 40 -25 45 -52 42 -16 -2 -33 -8 -36 -13 -7 -12 -27 -208
-38 -377 -8 -106 -14 -133 -27 -120 -5 6 -29 147 -59 358 -8 57 -17 111 -20
120 -4 14 -15 84 -50 325 -46 317 -63 378 -105 383 -14 2 -34 -4 -45 -12 -19
-14 -19 -15 -1 -104 10 -50 24 -139 32 -199 41 -318 120 -811 169 -1058 18
-94 39 -199 59 -308 22 -120 56 -159 102 -117 23 22 24 29 24 144 1 142 16
422 26 460 7 29 24 36 24 10 0 -9 23 -91 50 -183 77 -252 80 -262 107 -322 40
-89 77 -99 114 -28 16 33 21 71 29 266 21 511 40 927 49 1083 21 336 22 388 5
405 -21 21 -70 20 -79 -2z"/>
<path d="M8330 5109 c-58 -35 -89 -70 -106 -122 -14 -42 -15 -55 -3 -89 17
-52 87 -114 151 -133 44 -13 54 -13 84 0 28 11 41 27 66 82 41 87 48 164 19
211 -45 70 -140 94 -211 51z"/>
<path d="M7635 4039 c-224 -7 -368 -18 -665 -50 -224 -24 -553 -65 -635 -79
-420 -74 -866 -188 -1465 -374 -542 -168 -883 -296 -1281 -483 -149 -70 -182
-121 -120 -184 35 -35 79 -38 132 -10 19 10 138 64 265 119 385 169 641 260
1259 447 410 125 810 228 1106 284 373 71 1019 144 1554 176 143 9 316 20 384
25 68 6 171 10 228 10 90 0 109 3 130 20 14 11 38 20 54 20 18 0 32 7 39 21 7
11 10 21 8 22 -2 1 -25 10 -53 19 -42 15 -101 18 -390 21 -187 2 -434 0 -550
-4z"/>
</g>
</svg>
