<?xml version="1.0" standalone="no"?>
<!DOCTYPE svg PUBLIC "-//W3C//DTD SVG 20010904//EN"
 "http://www.w3.org/TR/2001/REC-SVG-20010904/DTD/svg10.dtd">
<svg version="1.0" xmlns="http://www.w3.org/2000/svg"
 width="750.000000pt" height="750.000000pt" viewBox="0 0 750.000000 750.000000"
 preserveAspectRatio="xMidYMid meet">

<g transform="translate(0.000000,750.000000) scale(0.100000,-0.100000)"
fill="#000000" stroke="none">
<path d="M3123 7243 c-46 -2 -83 -7 -83 -11 0 -4 9 -39 20 -77 12 -39 32 -130
46 -204 28 -148 75 -286 104 -301 11 -6 102 -10 209 -10 l191 0 20 33 c11 17
39 79 61 137 22 58 49 120 60 138 36 63 25 75 -76 82 l-70 5 -7 44 c-11 67
-16 70 -141 73 l-111 3 -7 32 c-10 53 -25 63 -83 61 -28 -1 -88 -4 -133 -5z
m174 -35 c4 -7 13 -31 18 -53 l10 -40 115 -3 c122 -3 130 -6 130 -56 l0 -29
-115 5 c-113 5 -116 5 -135 -19 -10 -13 -38 -78 -62 -143 -24 -66 -46 -120
-50 -120 -10 0 -25 58 -53 210 -14 74 -32 157 -40 184 -8 27 -15 53 -15 57 0
4 28 10 63 12 34 2 76 4 94 5 17 1 35 -4 40 -10z m418 -236 c-4 -9 -20 -51
-35 -92 -16 -41 -40 -101 -54 -132 l-26 -58 -174 0 c-109 0 -177 4 -181 10 -6
10 76 236 100 275 12 19 21 20 194 17 168 -3 182 -4 176 -20z"/>
<path d="M3722 6606 c-4 -6 -6 -59 -4 -118 l4 -108 162 0 163 0 10 93 c5 50 8
98 5 105 -3 8 -31 12 -91 12 -48 0 -92 5 -98 11 -14 14 -142 18 -151 5z"/>
<path d="M3366 6573 c-3 -3 -6 -24 -6 -46 0 -27 -8 -48 -25 -69 -28 -34 -26
-64 6 -87 15 -11 19 -26 19 -74 0 -51 -4 -63 -25 -83 -30 -28 -32 -62 -5 -97
14 -18 20 -40 20 -80 0 -41 -5 -58 -20 -72 -12 -11 -20 -31 -20 -52 0 -21 7
-40 20 -50 15 -13 20 -30 20 -70 0 -40 -5 -58 -20 -73 -26 -26 -26 -64 0 -88
18 -17 20 -34 22 -248 3 -221 4 -229 23 -229 19 0 20 8 23 228 3 280 1 275
105 279 64 3 72 5 72 23 0 18 -8 20 -77 23 -92 3 -102 12 -99 88 3 80 27 104
102 104 35 0 61 5 68 13 19 23 -9 37 -74 37 -51 0 -65 4 -83 23 -33 35 -30
102 7 145 27 32 32 33 87 31 53 -3 59 -1 59 17 0 17 -7 19 -60 20 -50 0 -65 4
-87 26 -25 22 -28 33 -28 84 1 48 5 64 24 86 22 24 32 27 98 30 57 2 73 6 73
18 0 12 -16 16 -75 18 -104 3 -120 13 -120 73 0 45 -9 66 -24 52z"/>
<path d="M3718 6308 c-2 -7 -2 -59 0 -115 l4 -103 162 0 162 0 11 93 c8 62 8
96 1 105 -7 8 -40 12 -99 12 -53 0 -89 4 -89 10 0 15 -147 13 -152 -2z"/>
<path d="M3718 6018 c-2 -7 -2 -59 0 -115 l4 -103 162 0 162 0 11 93 c14 115
12 117 -104 117 -49 0 -83 4 -83 10 0 15 -147 13 -152 -2z"/>
<path d="M3718 5728 c-2 -7 -2 -59 0 -115 l4 -103 162 0 162 0 11 93 c7 58 8
96 2 102 -6 6 -50 12 -99 13 -50 2 -90 8 -90 13 0 15 -147 11 -152 -3z"/>
<path d="M4625 5721 c-3 -6 -2 -17 2 -25 4 -8 144 -152 311 -320 166 -168 302
-308 302 -311 0 -3 -30 -5 -66 -5 -57 0 -65 -2 -62 -17 3 -15 18 -19 89 -23
113 -7 117 -5 125 37 10 52 -7 158 -26 158 -11 0 -15 -14 -16 -57 -1 -32 -5
-57 -9 -55 -4 1 -145 142 -313 312 -168 171 -311 311 -318 313 -7 2 -15 -2
-19 -7z"/>
<path d="M2455 5680 c-14 -22 9 -32 61 -28 30 3 54 2 54 -1 0 -3 -144 -132
-320 -286 -293 -257 -349 -315 -306 -315 12 0 434 365 603 521 23 22 44 39 47
39 4 0 4 -24 1 -52 -6 -55 6 -91 24 -73 15 16 31 178 19 192 -13 16 -174 18
-183 3z"/>
<path d="M3237 4970 c-56 -49 -98 -139 -104 -224 -5 -69 -3 -80 52 -237 78
-224 85 -252 85 -345 0 -98 -28 -163 -96 -223 -56 -49 -57 -71 -1 -99 103 -51
124 -55 347 -63 118 -5 235 -10 260 -11 43 -3 46 -2 77 45 44 65 91 192 103
277 13 93 -1 216 -39 340 -40 131 -44 160 -25 160 57 0 117 70 140 163 16 65
16 66 -7 114 -20 40 -34 53 -83 78 l-60 30 -200 -3 c-148 -2 -223 1 -286 13
-115 20 -124 20 -163 -15z m187 -36 c79 -13 137 -15 267 -10 149 5 213 0 238
-20 2 -2 -11 -16 -29 -31 -41 -34 -58 -75 -69 -163 -12 -92 1 -189 41 -309 28
-86 32 -109 32 -216 1 -134 -15 -198 -78 -310 -26 -46 -38 -59 -52 -56 -11 2
-109 5 -219 6 -196 2 -240 7 -320 41 l-36 15 40 45 c70 80 86 124 86 239 0
113 -6 138 -83 350 -50 137 -54 155 -50 220 3 72 25 127 71 186 26 33 31 34
161 13z m582 -109 c15 -58 -22 -141 -78 -175 -45 -27 -48 -26 -48 18 1 55 18
121 41 154 27 38 76 40 85 3z"/>
<path d="M3332 4818 c2 -17 11 -24 33 -26 17 -1 73 -14 126 -27 100 -26 203
-33 215 -14 12 20 -13 31 -87 40 -41 5 -108 18 -149 29 -41 11 -90 20 -108 20
-29 0 -33 -3 -30 -22z"/>
<path d="M3315 4669 c-15 -24 19 -29 201 -32 176 -2 189 -1 189 16 0 17 -16
18 -192 23 -135 3 -193 1 -198 -7z"/>
<path d="M3490 4560 c-130 -6 -150 -11 -150 -36 0 -11 17 -14 83 -14 112 0
249 17 258 32 12 19 0 28 -34 26 -18 0 -88 -4 -157 -8z"/>
<path d="M3382 4393 c3 -16 18 -18 148 -18 130 0 145 2 148 18 3 16 -9 17
-148 17 -139 0 -151 -1 -148 -17z"/>
<path d="M3427 4284 c-4 -4 -7 -13 -7 -21 0 -10 28 -13 131 -13 119 0 130 2
127 18 -3 15 -18 17 -124 20 -66 1 -123 -1 -127 -4z"/>
<path d="M3478 4179 c-54 -8 -68 -15 -68 -32 0 -18 278 -17 285 1 2 7 -5 16
-18 21 -35 13 -147 19 -199 10z"/>
<path d="M5871 4908 c-99 -17 -205 -60 -244 -99 l-38 -38 6 -418 6 -418 42
-37 c71 -64 232 -105 370 -95 95 7 218 37 293 71 l53 24 3 454 3 453 -27 27
c-34 33 -98 53 -219 67 -139 16 -199 18 -248 9z m324 -59 c67 -12 133 -43 142
-65 15 -40 -79 -86 -224 -111 -91 -15 -106 -15 -233 1 -242 31 -314 77 -212
133 39 22 182 60 242 65 49 4 213 -9 285 -23z m-500 -175 c205 -62 470 -62
597 2 54 27 52 42 45 -358 l-7 -373 -37 -31 c-55 -47 -156 -74 -271 -74 -164
0 -316 44 -372 107 l-25 28 3 358 c2 196 7 357 10 357 4 0 30 -7 57 -16z"/>
<path d="M5783 4830 c-160 -42 -167 -92 -15 -118 72 -13 52 2 -23 17 -75 14
-88 26 -57 52 26 20 112 49 149 49 13 0 23 5 23 10 0 6 -1 10 -2 9 -2 0 -35
-9 -75 -19z"/>
<path d="M792 4883 c-115 -62 -167 -147 -167 -273 0 -64 5 -85 33 -145 51
-108 93 -145 192 -166 l50 -11 0 -223 c0 -222 0 -224 23 -237 30 -18 777 -19
798 -1 12 9 14 83 14 430 l0 418 -44 3 c-24 2 -112 -4 -195 -12 -83 -9 -181
-16 -218 -16 l-68 0 0 30 c0 109 -141 216 -300 227 -57 4 -71 2 -118 -24z
m110 -57 c33 -34 53 -38 81 -15 42 32 61 23 32 -15 -20 -27 -19 -65 3 -72 9
-3 24 -9 33 -14 9 -5 35 -4 59 1 48 11 60 3 60 -39 0 -21 -3 -22 -33 -17 -19
4 -52 2 -75 -5 -52 -13 -64 -45 -34 -87 16 -22 19 -39 15 -74 -4 -35 -1 -49
13 -63 13 -14 15 -22 7 -35 -15 -25 -100 -49 -174 -50 -58 -1 -71 3 -107 29
-73 52 -140 212 -116 274 5 14 10 13 42 -4 54 -27 84 -77 77 -126 -4 -25 0
-59 12 -94 15 -47 22 -55 43 -55 22 0 27 8 44 60 10 33 27 77 38 98 11 20 18
47 16 60 -3 19 -9 22 -48 22 -44 0 -45 1 -44 30 0 17 -3 33 -8 36 -5 3 1 23
13 43 21 37 21 37 3 72 -10 18 -22 34 -26 34 -16 0 -8 19 10 23 33 9 41 7 64
-17z m69 14 c5 0 9 -5 9 -11 0 -15 -43 -7 -48 10 -3 10 0 12 12 8 10 -4 22 -7
27 -7z m112 -43 c7 3 9 3 5 -2 -4 -4 1 -15 10 -24 10 -9 13 -13 7 -10 -5 4
-20 5 -33 4 -13 -1 -25 2 -28 7 -3 5 0 7 8 6 8 -2 12 5 11 17 -1 11 0 14 3 7
3 -6 11 -9 17 -5z m-273 -21 c0 -2 -7 -7 -16 -10 -8 -3 -12 -2 -9 4 6 10 25
14 25 6z m-79 -33 c-8 -15 -10 -15 -11 -2 0 17 10 32 18 25 2 -3 -1 -13 -7
-23z m81 10 c-9 -4 -10 -8 -2 -18 13 -15 -5 -16 -29 0 -12 7 -11 10 5 16 10 4
24 8 29 8 6 -1 4 -3 -3 -6z m-62 -55 c0 -5 -4 -6 -10 -3 -5 3 -10 2 -10 -3 0
-5 -7 -9 -15 -9 -8 0 -13 3 -10 5 3 3 0 10 -5 17 -7 8 -2 10 20 7 17 -2 30 -9
30 -14z m930 -395 c0 -181 2 -350 3 -378 l2 -50 -360 0 -360 0 -3 212 -2 213
25 6 c86 22 194 131 210 214 13 70 13 70 63 71 37 0 381 32 414 38 4 0 8 -146
8 -326z m-603 292 c0 -8 -4 -12 -9 -9 -5 3 -6 10 -3 15 9 13 12 11 12 -6z m31
-10 c-3 -3 -9 2 -12 12 -6 14 -5 15 5 6 7 -7 10 -15 7 -18z m52 6 c0 -4 -3
-11 -7 -14 -8 -9 -34 13 -28 24 6 9 35 1 35 -10z m-253 -43 c-3 -8 -6 -5 -6 6
-1 11 2 17 5 13 3 -3 4 -12 1 -19z m-21 -3 c-1 -8 -5 -17 -8 -21 -5 -4 -4 16
1 34 3 9 9 -1 7 -13z m256 8 c-6 -2 -10 -9 -6 -14 3 -5 0 -9 -5 -9 -12 0 -14
13 -4 23 3 4 11 7 17 6 6 0 5 -3 -2 -6z m-287 -13 c-3 -5 -1 -18 5 -29 6 -13
6 -22 0 -26 -5 -3 -7 -13 -4 -23 5 -14 3 -14 -6 2 -10 15 -9 20 1 27 8 5 9 9
3 9 -6 0 -10 10 -9 23 3 26 3 27 11 27 3 0 2 -4 -1 -10z m-38 -52 c-3 -8 -6
-5 -6 6 -1 11 2 17 5 13 3 -3 4 -12 1 -19z"/>
<path d="M1157 4855 c19 -26 49 -44 37 -22 -13 22 -37 47 -46 47 -5 0 -1 -11
9 -25z"/>
<path d="M572 4568 c8 -113 66 -250 110 -261 24 -7 23 1 -12 52 -34 50 -67
148 -76 227 -10 82 -28 67 -22 -18z"/>
<path d="M5140 4521 c0 -11 18 -30 56 -60 15 -12 25 -23 23 -26 -3 -2 -194 -7
-424 -10 -231 -4 -426 -8 -432 -10 -7 -3 -13 -12 -13 -21 0 -16 30 -17 430
-10 237 3 430 3 430 -2 0 -4 -16 -23 -35 -42 -36 -35 -43 -54 -24 -66 14 -8
139 115 139 137 0 23 -104 119 -129 119 -12 0 -21 -4 -21 -9z"/>
<path d="M2820 4499 c0 -7 17 -27 38 -45 l37 -33 -396 -1 c-218 0 -399 -3
-402 -7 -4 -3 -2 -12 4 -20 9 -10 86 -13 395 -13 211 0 384 -2 384 -4 0 -2
-16 -20 -35 -39 -19 -19 -35 -40 -35 -46 0 -25 33 -7 92 49 l63 60 -55 55
c-51 51 -90 70 -90 44z"/>
<path d="M5574 4055 c0 -82 2 -115 3 -72 2 43 2 110 0 150 -1 40 -3 5 -3 -78z"/>
<path d="M5543 3985 c0 -27 2 -38 4 -22 2 15 2 37 0 50 -2 12 -4 0 -4 -28z"/>
<path d="M6423 3692 c3 -4 8 -77 12 -162 7 -159 15 -212 15 -102 0 98 36 70
50 -38 l7 -55 2 52 c1 52 -12 103 -30 114 -6 3 -4 17 6 35 34 66 2 164 -55
164 -6 0 -9 -3 -7 -8z m47 -31 c12 -24 13 -111 0 -131 -14 -22 -17 -12 -24 73
-7 77 2 99 24 58z"/>
<path d="M5194 3659 c3 -17 6 -94 6 -170 0 -157 8 -171 57 -98 34 52 41 126
19 202 -22 77 -96 137 -82 66z m76 -95 c13 -61 3 -127 -26 -171 -29 -45 -34
-25 -34 130 l1 152 24 -27 c13 -15 29 -52 35 -84z"/>
<path d="M6302 3667 c-33 -40 -44 -220 -17 -283 11 -28 19 -35 37 -32 35 5 51
65 44 163 -9 127 -35 188 -64 152z m33 -24 c4 -10 10 -70 12 -133 4 -90 2
-119 -10 -134 -52 -69 -77 144 -32 272 6 17 22 15 30 -5z"/>
<path d="M6950 3563 c0 -65 3 -142 6 -170 7 -52 8 -53 38 -52 29 1 30 1 6 8
-24 7 -25 10 -25 86 0 77 1 80 23 77 12 -2 22 2 22 7 0 6 -11 11 -24 11 -29 0
-36 16 -36 87 0 54 0 55 26 49 17 -5 23 -3 19 4 -3 5 -17 10 -31 10 l-24 0 0
-117z"/>
<path d="M5365 3660 c-4 -6 -8 -82 -10 -168 -4 -151 -4 -154 8 -82 11 70 14
75 37 75 23 0 26 -4 34 -67 4 -38 12 -68 17 -68 8 0 6 22 -17 163 -20 125 -47
182 -69 147z m41 -71 c20 -77 19 -89 -11 -89 -24 0 -25 3 -25 53 0 53 9 101
17 93 2 -2 11 -28 19 -57z"/>
<path d="M5695 3660 c-4 -6 -8 -82 -10 -168 -4 -151 -4 -154 8 -82 11 70 14
75 37 75 23 0 26 -4 34 -67 4 -38 12 -68 17 -68 8 0 6 22 -17 163 -20 125 -47
182 -69 147z m41 -71 c20 -77 19 -89 -11 -89 -24 0 -25 3 -25 53 0 53 9 101
17 93 2 -2 11 -28 19 -57z"/>
<path d="M5998 3658 c-40 -33 -29 -97 27 -160 29 -31 35 -46 35 -83 0 -38 -4
-46 -27 -59 -16 -8 -22 -15 -15 -16 28 0 51 22 58 54 8 46 0 68 -47 122 -35
40 -40 52 -37 87 2 33 8 44 28 54 15 8 19 13 9 13 -8 0 -22 -6 -31 -12z"/>
<path d="M6595 3660 c-4 -6 -8 -82 -10 -168 -4 -151 -4 -154 8 -82 11 70 14
75 37 75 23 0 26 -4 34 -67 4 -38 12 -68 17 -68 8 0 6 22 -17 163 -20 125 -47
182 -69 147z m41 -71 c20 -77 19 -89 -11 -89 -24 0 -25 3 -25 53 0 53 9 101
17 93 2 -2 11 -28 19 -57z"/>
<path d="M3243 3652 c3 -4 8 -77 12 -162 7 -159 15 -212 15 -102 0 98 36 70
50 -38 l7 -55 2 52 c1 52 -12 103 -30 114 -6 3 -4 17 6 35 34 66 2 164 -55
164 -6 0 -9 -3 -7 -8z m47 -31 c12 -24 13 -111 0 -131 -14 -22 -17 -12 -24 73
-7 77 2 99 24 58z"/>
<path d="M5520 3650 c0 -5 6 -7 14 -4 17 7 26 -56 26 -182 0 -55 4 -94 10 -94
6 0 7 51 3 139 l-6 139 29 5 c18 2 9 5 -23 6 -29 0 -53 -3 -53 -9z"/>
<path d="M6120 3650 c0 -5 6 -7 14 -4 17 7 26 -56 26 -182 0 -55 4 -94 10 -94
6 0 7 51 3 139 l-6 139 29 5 c18 2 9 5 -23 6 -29 0 -53 -3 -53 -9z"/>
<path d="M6779 3633 c-18 -44 -16 -222 1 -258 22 -44 61 -42 72 3 5 19 8 50 6
70 -3 33 -6 37 -33 39 -27 2 -28 2 -7 -7 18 -8 22 -17 22 -57 0 -26 -5 -55
-10 -63 -8 -13 -12 -13 -27 3 -15 14 -19 38 -21 125 -4 124 7 167 39 157 15
-5 19 -4 15 4 -13 21 -46 12 -57 -16z"/>
<path d="M3495 3553 c-6 -79 1 -242 11 -252 2 -2 4 22 4 55 0 47 4 62 19 71
20 12 41 82 41 135 0 40 -24 78 -50 78 -15 0 -19 -12 -25 -87z m49 54 c12 -18
13 -35 6 -86 -5 -35 -16 -71 -24 -80 -15 -14 -16 -5 -16 87 0 104 7 121 34 79z"/>
<path d="M2958 3618 c-40 -33 -29 -97 27 -160 29 -31 35 -46 35 -83 0 -38 -4
-46 -27 -59 -16 -8 -22 -15 -15 -16 28 0 51 22 58 54 8 46 0 68 -47 122 -35
40 -40 52 -37 87 2 33 8 44 28 54 15 8 19 13 9 13 -8 0 -22 -6 -31 -12z"/>
<path d="M3109 3613 c-19 -22 -24 -165 -9 -237 9 -44 17 -60 35 -68 26 -11 55
-5 55 12 0 6 -7 6 -19 -2 -30 -18 -47 4 -61 78 -22 114 -2 234 37 220 7 -3 13
-1 13 4 0 16 -36 11 -51 -7z"/>
<path d="M3400 3463 c0 -91 2 -164 4 -162 2 2 7 77 10 167 5 113 4 162 -3 162
-7 0 -11 -54 -11 -167z"/>
<path d="M3790 3463 c0 -91 2 -164 4 -162 2 2 7 77 10 167 5 113 4 162 -3 162
-7 0 -11 -54 -11 -167z"/>
<path d="M3870 3542 c0 -107 11 -242 19 -242 3 0 5 60 4 132 l-2 133 38 -115
c58 -180 61 -180 58 12 -1 93 -5 168 -9 168 -5 0 -8 -57 -9 -127 -1 -143 2
-146 -53 40 -15 48 -31 87 -36 87 -6 0 -10 -38 -10 -88z"/>
<path d="M3620 3610 c0 -5 6 -7 14 -4 17 7 26 -56 26 -182 0 -55 4 -94 10 -94
6 0 7 51 3 139 l-6 139 29 5 c18 2 9 5 -23 6 -29 0 -53 -3 -53 -9z"/>
<path d="M4069 3593 c-18 -44 -16 -222 1 -258 22 -44 61 -42 72 3 5 19 8 50 6
70 -3 33 -6 37 -33 39 -27 2 -28 2 -7 -7 18 -8 22 -17 22 -57 0 -26 -5 -55
-10 -63 -8 -13 -12 -13 -27 3 -15 14 -19 38 -21 125 -4 124 7 167 39 157 15
-5 19 -4 15 4 -13 21 -46 12 -57 -16z"/>
<path d="M1183 3602 c3 -4 8 -77 12 -162 7 -159 15 -212 15 -102 0 98 36 70
50 -38 l7 -55 2 52 c1 52 -12 103 -30 114 -6 3 -4 17 6 35 34 66 2 164 -55
164 -6 0 -9 -3 -7 -8z m47 -31 c12 -24 13 -111 0 -131 -14 -22 -17 -12 -24 73
-7 77 2 99 24 58z"/>
<path d="M1623 3602 c3 -4 8 -77 12 -162 7 -159 15 -212 15 -102 0 98 36 70
50 -38 l7 -55 2 52 c1 52 -12 103 -30 114 -6 3 -4 17 6 35 34 66 2 164 -55
164 -6 0 -9 -3 -7 -8z m47 -31 c12 -24 13 -111 0 -131 -14 -22 -17 -12 -24 73
-7 77 2 99 24 58z"/>
<path d="M1060 3473 c0 -65 3 -142 6 -170 7 -52 8 -53 38 -52 29 1 30 1 6 8
-24 7 -25 10 -25 86 0 77 1 80 23 77 12 -2 22 2 22 7 0 6 -11 11 -24 11 -29 0
-36 16 -36 87 0 54 0 55 26 49 17 -5 23 -3 19 4 -3 5 -17 10 -31 10 l-24 0 0
-117z"/>
<path d="M1400 3472 c-8 -67 -17 -117 -21 -110 -4 7 -11 56 -15 110 -3 54 -10
101 -14 103 -8 5 -6 -27 11 -195 13 -121 24 -153 32 -94 13 88 29 282 25 295
-3 8 -11 -41 -18 -109z"/>
<path d="M1500 3473 c0 -65 3 -142 6 -170 7 -52 8 -53 38 -52 29 1 30 1 6 8
-24 7 -25 10 -25 86 0 77 1 80 23 77 12 -2 22 2 22 7 0 6 -11 11 -24 11 -29 0
-36 16 -36 87 0 54 0 55 26 49 17 -5 23 -3 19 4 -3 5 -17 10 -31 10 l-24 0 0
-117z"/>
<path d="M918 3568 c-40 -33 -29 -97 27 -160 29 -31 35 -46 35 -83 0 -38 -4
-46 -27 -59 -16 -8 -22 -15 -15 -16 28 0 51 22 58 54 8 46 0 68 -47 122 -35
40 -40 52 -37 87 2 33 8 44 28 54 15 8 19 13 9 13 -8 0 -22 -6 -31 -12z"/>
<path d="M5997 3084 c-4 -4 -7 -182 -7 -396 0 -213 -2 -388 -5 -388 -3 0 -19
16 -36 35 -32 36 -59 46 -59 22 0 -20 102 -127 121 -127 20 0 109 94 109 115
0 26 -28 16 -56 -20 -14 -19 -29 -35 -33 -35 -3 0 -6 178 -6 397 0 380 -3 422
-28 397z"/>
<path d="M3269 2453 l-46 -4 4 -192 c3 -106 6 -197 8 -204 3 -8 36 -13 102
-15 l98 -3 0 -125 0 -125 -180 -5 -180 -5 -3 -101 -3 -102 -105 -7 -105 -7 6
-166 c4 -92 8 -173 10 -179 3 -7 14 -13 25 -13 19 0 17 -4 -15 -51 -38 -56
-42 -71 -22 -87 17 -15 26 -7 81 71 36 51 53 67 72 67 23 0 24 -3 24 -59 0
-39 5 -63 15 -71 25 -20 35 -1 35 66 0 60 1 64 23 64 17 0 36 -18 72 -70 50
-69 68 -85 86 -74 18 11 8 41 -32 89 l-41 50 61 3 61 3 0 184 0 185 -94 0
c-52 0 -97 3 -99 8 -2 4 -2 40 1 80 l4 72 351 0 350 0 -7 -52 c-3 -29 -6 -65
-6 -80 l0 -28 -105 0 -105 0 0 -190 0 -190 68 0 c38 0 144 3 235 7 l167 6 -1
106 c-1 58 -4 140 -8 181 l-6 75 -95 5 -95 5 -5 100 -5 100 -185 5 -185 5 0
125 0 125 127 -4 127 -3 3 212 c2 116 1 214 -1 216 -5 5 -415 2 -482 -3z"/>
<path d="M830 2093 c-109 -18 -233 -86 -311 -169 -279 -301 -142 -785 254
-899 112 -32 285 -17 385 34 281 143 386 477 239 756 -44 83 -146 182 -229
223 -103 50 -236 72 -338 55z m-220 -383 c44 -88 80 -163 80 -167 -1 -5 -7 4
-15 19 -10 18 -21 26 -35 23 -11 -2 -22 1 -26 6 -4 6 -11 6 -20 -2 -11 -9 -14
-8 -15 2 0 8 -2 29 -4 46 -2 18 1 36 7 39 7 5 8 2 3 -6 -6 -10 -4 -12 10 -6
17 6 18 5 4 -11 -16 -19 -19 -43 -6 -43 4 0 14 0 23 0 12 0 14 3 6 13 -6 7 -9
23 -5 35 3 13 1 22 -6 22 -6 0 -10 3 -10 8 3 18 -2 26 -10 14 -6 -10 -10 -10
-21 3 -11 13 -10 15 2 10 9 -4 15 0 15 10 0 9 -6 14 -13 11 -8 -3 -11 0 -8 8
3 8 0 17 -5 21 -6 3 -9 10 -6 15 7 12 -16 60 -26 54 -5 -3 -6 3 -2 12 5 13 3
15 -7 9 -9 -5 -11 -4 -6 3 4 7 9 12 12 12 2 0 40 -72 84 -160z m-85 102 c-3
-3 -11 0 -18 7 -9 10 -8 11 6 5 10 -3 15 -9 12 -12z m-15 -54 c0 -6 -6 -5 -15
2 -8 7 -15 14 -15 16 0 2 7 1 15 -2 8 -4 15 -11 15 -16z m499 -3 c22 -11 337
-55 397 -55 10 0 24 -85 24 -145 0 -233 -152 -432 -379 -499 -57 -17 -207 -22
-229 -8 -9 6 -2 23 28 64 41 57 49 75 29 62 -8 -5 -8 -1 0 14 6 12 17 24 24
28 8 5 7 2 -2 -9 -8 -10 -11 -20 -9 -23 6 -5 48 49 48 61 0 4 -7 2 -15 -5 -10
-9 -15 -9 -15 -1 0 10 13 15 32 12 3 0 22 22 42 49 19 27 29 47 21 43 -8 -3
-15 -9 -15 -15 0 -5 -5 -6 -12 -2 -7 5 -8 3 -3 -7 7 -12 6 -12 -9 0 -14 12
-22 12 -36 3 -12 -7 -21 -8 -25 -2 -4 6 -10 8 -15 5 -4 -3 -24 2 -44 10 -33
14 -35 14 -29 -2 3 -12 0 -10 -11 5 -10 12 -23 19 -29 16 -7 -4 -9 -4 -5 1 10
11 -11 47 -23 40 -5 -4 -9 -3 -8 2 2 9 -40 103 -46 103 -2 0 -2 -10 0 -21 3
-12 3 -20 1 -18 -3 2 -4 8 -4 12 0 5 -13 23 -29 40 -26 30 -26 30 -2 9 17 -15
29 -20 34 -13 3 6 1 11 -6 11 -10 0 -10 3 -1 12 7 7 12 26 12 43 1 71 71 163
146 191 46 17 119 12 163 -11z m-449 1 c0 -3 -4 -8 -10 -11 -5 -3 -10 -1 -10
4 0 6 5 11 10 11 6 0 10 -2 10 -4z m-100 -42 c0 -3 -7 -12 -15 -20 -16 -17
-18 -14 -9 10 6 15 24 23 24 10z m12 -102 c-6 -2 -12 -11 -12 -19 0 -22 -6
-14 -14 20 -6 27 -6 27 16 16 14 -8 18 -14 10 -17z m5 -74 c-3 -7 -5 -2 -5 12
0 14 2 19 5 13 2 -7 2 -19 0 -25z m-37 -79 c0 -5 -4 -9 -8 -9 -5 0 -9 7 -9 15
0 8 4 12 9 9 4 -3 8 -9 8 -15z m227 2 c0 -11 -5 -17 -11 -14 -6 4 -6 -1 -2
-13 5 -14 4 -16 -4 -8 -9 9 -8 17 2 33 16 26 17 26 15 2z m-210 -13 c-3 -8 -6
-5 -6 6 -1 11 2 17 5 13 3 -3 4 -12 1 -19z m250 -11 c0 -7 -9 -13 -19 -13 -18
0 -18 1 -2 13 10 7 18 13 19 13 1 0 2 -6 2 -13z m-237 -32 c19 -22 8 -25 -12
-3 -10 10 -14 18 -9 18 5 0 14 -7 21 -15z m28 -85 c17 -27 10 -25 -19 6 -13
14 -17 23 -9 19 9 -3 21 -14 28 -25z m27 2 c-3 -3 -11 0 -18 7 -9 10 -8 11 6
5 10 -3 15 -9 12 -12z m33 -27 c-3 -3 -9 2 -12 12 -6 14 -5 15 5 6 7 -7 10
-15 7 -18z m338 7 c0 -10 -8 -19 -17 -19 -16 -2 -17 0 -1 18 9 10 17 19 17 19
0 0 1 -8 1 -18z m59 -22 c-3 -5 -12 -10 -18 -10 -7 0 -6 4 3 10 19 12 23 12
15 0z m-399 -15 c-3 -19 -17 -35 -26 -30 -5 3 -6 13 -3 22 5 12 3 14 -7 8 -8
-5 -11 -4 -6 3 8 14 44 12 42 -3z m337 -30 c-3 -9 -8 -14 -10 -11 -3 3 -2 9 2
15 9 16 15 13 8 -4z m-292 -38 c-6 -8 -7 -18 -3 -22 4 -5 1 -5 -6 -1 -10 6
-10 11 -1 22 6 8 14 14 16 14 3 0 0 -6 -6 -13z m29 -11 c0 -3 -4 -8 -10 -11
-5 -3 -10 -1 -10 4 0 6 5 11 10 11 6 0 10 -2 10 -4z m52 -34 c-7 -2 -10 -7 -8
-11 3 -4 -4 -7 -14 -8 -10 -1 -21 5 -24 14 -6 14 -4 14 11 2 15 -12 16 -12 11
2 -5 13 -2 16 15 11 12 -3 16 -7 9 -10z m142 2 c3 -8 2 -12 -4 -9 -6 3 -10 10
-10 16 0 14 7 11 14 -7z m36 -8 c0 -2 -8 -10 -17 -17 -16 -13 -17 -12 -4 4 13
16 21 21 21 13z m-144 -32 c2 -23 1 -24 -11 -7 -10 13 -10 20 -2 25 7 4 12 8
12 8 0 0 1 -11 1 -26z m98 -29 c-9 -14 -18 -25 -21 -25 -5 0 5 18 20 38 17 22
18 13 1 -13z m-59 -5 c3 -6 -1 -7 -9 -4 -18 7 -21 14 -7 14 6 0 13 -4 16 -10z"/>
<path d="M628 1628 c7 -7 8 -16 2 -23 -7 -8 -5 -12 5 -12 8 0 15 4 15 8 0 17
-13 39 -23 39 -8 0 -7 -4 1 -12z"/>
<path d="M6175 2053 c-652 -15 -818 -22 -831 -35 -12 -12 -12 -88 -3 -478 10
-411 13 -467 28 -482 15 -17 66 -19 611 -28 471 -8 597 -7 607 3 9 9 13 128
13 507 2 462 1 495 -16 507 -18 13 -71 14 -409 6z m-227 -210 c-3 -18 -15 -25
-79 -47 -65 -23 -123 -77 -156 -144 -23 -46 -28 -70 -28 -127 0 -102 18 -152
73 -205 51 -49 148 -90 213 -90 126 0 245 111 264 245 l8 50 -55 -60 c-49 -53
-57 -58 -72 -46 -9 7 -16 17 -16 22 0 17 134 179 148 179 7 0 46 -19 85 -43
40 -24 80 -46 90 -50 25 -9 32 -36 14 -54 -15 -15 -21 -14 -75 13 l-60 29 -6
-53 c-8 -69 -37 -125 -95 -185 -50 -52 -87 -75 -167 -101 -62 -20 -108 -12
-219 39 -129 58 -191 160 -188 310 1 88 30 167 84 229 52 59 87 83 151 106 56
20 92 13 86 -17z"/>
<path d="M1735 1670 l-60 -61 57 -54 c55 -54 88 -69 88 -41 0 7 -16 26 -35 40
-19 15 -35 30 -35 34 0 4 179 7 397 7 347 0 398 2 398 15 0 13 -51 15 -392 18
-216 1 -393 4 -393 6 0 2 16 20 35 39 19 19 35 40 35 46 0 27 -40 6 -95 -49z"/>
<path d="M4378 1659 c-32 -33 -58 -63 -58 -68 0 -11 108 -111 120 -111 27 0
19 27 -16 56 -21 18 -36 35 -34 37 3 3 178 8 390 12 212 4 388 9 393 12 4 2 7
11 7 19 0 14 -30 15 -252 10 -139 -4 -315 -9 -390 -12 -76 -3 -138 -1 -138 4
0 4 14 21 30 37 30 29 40 66 18 64 -7 -1 -39 -28 -70 -60z"/>
<path d="M2802 998 c-28 -28 -7 -78 33 -78 43 0 59 44 27 73 -22 20 -43 22
-60 5z"/>
<path d="M3278 999 c-26 -14 -23 -65 3 -79 54 -30 106 34 59 72 -25 20 -37 22
-62 7z"/>
<path d="M3032 988 c-17 -17 -15 -53 3 -68 23 -19 64 -4 71 27 11 41 -44 71
-74 41z"/>
<path d="M1059 798 c-13 -11 -14 -35 -7 -173 4 -87 13 -164 18 -169 7 -7 18
-3 33 12 31 32 32 122 1 153 l-22 21 19 44 c13 28 17 53 13 71 -7 30 -22 53
-33 53 -4 0 -14 -6 -22 -12z m39 -47 c4 -37 -16 -94 -29 -85 -5 3 -9 32 -9 65
0 52 2 60 18 57 11 -2 18 -14 20 -37z m12 -203 c0 -52 -15 -92 -31 -83 -5 4
-9 43 -9 87 0 80 0 81 20 63 15 -13 20 -31 20 -67z"/>
<path d="M3524 779 c3 -17 6 -94 6 -170 0 -157 8 -171 57 -98 34 52 41 126 19
202 -22 77 -96 137 -82 66z m76 -95 c13 -61 3 -127 -26 -171 -29 -45 -34 -25
-34 130 l1 152 24 -27 c13 -15 29 -52 35 -84z"/>
<path d="M3825 691 c3 -68 5 -148 5 -178 l0 -53 38 2 c36 1 36 1 5 5 l-33 4
-1 142 c-1 78 -5 156 -10 172 -5 19 -7 -17 -4 -94z"/>
<path d="M3197 660 c3 -80 9 -158 14 -175 6 -19 7 18 4 105 l-4 135 18 -38
c29 -62 37 -64 54 -15 l15 43 2 -65 c1 -36 6 -92 10 -125 5 -46 7 -21 9 103 0
90 -3 161 -7 158 -5 -3 -17 -32 -27 -66 -17 -55 -34 -79 -35 -47 -1 6 -14 39
-29 72 l-29 60 5 -145z"/>
<path d="M3402 787 c-33 -40 -44 -220 -17 -283 11 -28 19 -35 37 -32 35 5 51
65 44 163 -9 127 -35 188 -64 152z m33 -24 c4 -10 10 -70 12 -133 4 -90 2
-119 -10 -134 -52 -69 -77 144 -32 272 6 17 22 15 30 -5z"/>
<path d="M3690 683 c0 -65 3 -142 6 -170 7 -52 8 -53 38 -52 29 1 30 1 6 8
-24 7 -25 10 -25 86 0 77 1 80 23 77 12 -2 22 2 22 7 0 6 -11 11 -24 11 -29 0
-36 16 -36 87 0 54 0 55 26 49 17 -5 23 -3 19 4 -3 5 -17 10 -31 10 l-24 0 0
-117z"/>
<path d="M920 673 c0 -65 3 -142 6 -170 7 -52 8 -53 38 -52 29 1 30 1 6 8 -24
7 -25 10 -25 86 0 77 1 80 23 77 12 -2 22 2 22 7 0 6 -11 11 -24 11 -29 0 -36
16 -36 87 0 54 0 55 26 49 17 -5 23 -3 19 4 -3 5 -17 10 -31 10 l-24 0 0 -117z"/>
<path d="M5493 782 c3 -4 8 -77 12 -162 7 -159 15 -212 15 -102 0 98 36 70 50
-38 l7 -55 2 52 c1 52 -12 103 -30 114 -6 3 -4 17 6 35 34 66 2 164 -55 164
-6 0 -9 -3 -7 -8z m47 -31 c12 -24 13 -111 0 -131 -14 -22 -17 -12 -24 73 -7
77 2 99 24 58z"/>
<path d="M6413 782 c3 -4 8 -77 12 -162 7 -159 15 -212 15 -102 0 98 36 70 50
-38 l7 -55 2 52 c1 52 -12 103 -30 114 -6 3 -4 17 6 35 34 66 2 164 -55 164
-6 0 -9 -3 -7 -8z m47 -31 c12 -24 13 -111 0 -131 -14 -22 -17 -12 -24 73 -7
77 2 99 24 58z"/>
<path d="M826 739 c-3 -17 -6 -74 -6 -125 0 -52 -4 -94 -9 -94 -5 0 -14 27
-22 60 -15 69 -29 78 -29 19 0 -70 -17 -33 -30 66 -7 52 -17 95 -21 95 -5 0
-7 -10 -5 -22 3 -13 15 -83 27 -155 12 -73 25 -133 30 -133 4 0 9 26 11 58 l3
57 19 -53 c10 -30 22 -50 26 -45 8 8 24 303 17 303 -3 0 -7 -14 -11 -31z"/>
<path d="M6292 757 c-33 -40 -44 -220 -17 -283 11 -28 19 -35 37 -32 35 5 51
65 44 163 -9 127 -35 188 -64 152z m33 -24 c4 -10 10 -70 12 -133 4 -90 2
-119 -10 -134 -52 -69 -77 144 -32 272 6 17 22 15 30 -5z"/>
<path d="M6557 630 c3 -80 9 -158 14 -175 6 -19 7 18 4 105 l-4 135 18 -38
c29 -62 37 -64 54 -15 l15 43 2 -65 c1 -36 6 -92 10 -125 5 -46 7 -21 9 103 0
90 -3 161 -7 158 -5 -3 -17 -32 -27 -66 -17 -55 -34 -79 -35 -47 -1 6 -14 39
-29 72 l-29 60 5 -145z"/>
<path d="M5655 750 c-4 -6 -8 -82 -10 -168 -4 -151 -4 -154 8 -82 11 70 14 75
37 75 23 0 26 -4 34 -67 4 -38 12 -68 17 -68 8 0 6 22 -17 163 -20 125 -47
182 -69 147z m41 -71 c20 -77 19 -89 -11 -89 -24 0 -25 3 -25 53 0 53 9 101
17 93 2 -2 11 -28 19 -57z"/>
<path d="M5810 672 c0 -107 11 -242 19 -242 3 0 5 60 4 132 l-2 133 38 -115
c58 -180 61 -180 58 12 -1 93 -5 168 -9 168 -5 0 -8 -57 -9 -127 -1 -143 2
-146 -53 40 -15 48 -31 87 -36 87 -6 0 -10 -38 -10 -88z"/>
<path d="M5998 748 c-40 -33 -29 -97 27 -160 29 -31 35 -46 35 -83 0 -38 -4
-46 -27 -59 -16 -8 -22 -15 -15 -16 28 0 51 22 58 54 8 46 0 68 -47 122 -35
40 -40 52 -37 87 2 33 8 44 28 54 15 8 19 13 9 13 -8 0 -22 -6 -31 -12z"/>
<path d="M6131 663 c1 -54 5 -129 9 -168 l7 -70 1 92 2 92 28 4 27 4 -26 2
c-22 1 -27 7 -33 39 -13 78 -9 90 27 95 31 4 31 4 -5 5 l-38 2 1 -97z"/>
<path d="M5340 740 c0 -5 6 -7 14 -4 17 7 26 -56 26 -182 0 -55 4 -94 10 -94
6 0 7 51 3 139 l-6 139 29 5 c18 2 9 5 -23 6 -29 0 -53 -3 -53 -9z"/>
</g>
</svg>
