<?xml version="1.0" encoding="UTF-8" standalone="no"?>
<svg
   xmlns:dc="http://purl.org/dc/elements/1.1/"
   xmlns:cc="http://creativecommons.org/ns#"
   xmlns:rdf="http://www.w3.org/1999/02/22-rdf-syntax-ns#"
   xmlns:svg="http://www.w3.org/2000/svg"
   xmlns="http://www.w3.org/2000/svg"
   width="500"
   height="500"
   viewBox="0 0 132.29166 132.29167"
   version="1.1"
   id="svg8">
  <defs
     id="defs2" />
  <metadata
     id="metadata5">
    <rdf:RDF>
      <cc:Work
         rdf:about="">
        <dc:format>image/svg+xml</dc:format>
        <dc:type
           rdf:resource="http://purl.org/dc/dcmitype/StillImage" />
        <dc:title></dc:title>
      </cc:Work>
    </rdf:RDF>
  </metadata>
  <g
     id="layer1"
     style="display:inline">
    <g
       aria-label="7"
       transform="scale(1.137731,0.87894235)"
       id="text853"
       style="font-style:normal;font-weight:normal;font-size:27.3903px;line-height:1.25;font-family:sans-serif;letter-spacing:0px;word-spacing:0px;fill:#aa0000;fill-opacity:1;stroke:none;stroke-width:0.684755" />
  </g>
  <g
     id="layer2"
     style="display:inline;opacity:0.476309">
    <g
       transform="matrix(0.94637817,0,0,0.94637817,-2.2988049,-5.1384869)"
       style="font-style:normal;font-weight:normal;font-size:196.374px;line-height:1.25;font-family:sans-serif;letter-spacing:0px;word-spacing:0px;fill:#000000;fill-opacity:1;stroke:none;stroke-width:0.368201"
       id="text903"
       aria-label="a" />
  </g>
  <g
     id="layer3"
     style="display:inline">
    <g
       id="g1067"
       transform="rotate(-12.984286,44.72989,61.752475)" />
    <path
       id="path1108-9"
       style="font-style:normal;font-variant:normal;font-weight:bold;font-stretch:normal;font-size:141.111px;line-height:1.25;font-family:serif;-inkscape-font-specification:'serif Bold';letter-spacing:0px;word-spacing:0px;display:inline;opacity:1;fill:#000000;fill-opacity:1;stroke:none;stroke-width:0.367194"
       d="m 68.639612,21.91125 c -7.01239,0 -13.770045,1.115849 -20.272452,3.347067 -6.502393,2.231215 -11.570443,5.450786 -15.204151,9.658224 -3.633681,4.143685 -5.450549,8.510028 -5.450549,13.099958 0,3.251205 1.338736,6.08828 4.016192,8.510745 2.482204,2.193569 5.489366,3.390775 9.017072,3.598074 0.03234,-1.052307 0.143043,-2.019593 0.390867,-2.688695 0.766217,-2.068805 5.133028,-8.045041 5.746016,-8.351528 0.0383,-0.01917 0.110054,-0.03146 0.211573,-0.03729 v 7.34e-4 c 1.521692,-0.08839 9.706473,1.258339 11.358648,2.335847 1.762313,1.149334 4.673909,10.344026 5.670005,11.416741 0.996096,1.072705 7.125719,2.145861 7.968558,3.141953 0.842852,0.996082 1.762895,8.044765 2.758977,8.657766 0.996096,0.612987 6.666156,-1.532609 6.666156,-1.532609 0,0 4.13678,-6.589479 7.048432,-5.670004 2.911652,0.919463 7.355779,5.210933 3.831154,11.340725 -3.524625,6.129791 -7.355085,7.815301 -8.581032,7.968558 -1.225947,0.15323 -3.21868,-1.532614 -3.21868,-1.532614 0,0 -1.317141,7.623421 -2.298553,8.735219 -1.305595,1.479058 -17.300652,11.612929 -18.763515,12.154719 -1.462862,0.54172 -7.097352,2.38354 -9.156201,0.0538 -2.058848,-2.32973 -1.408334,-4.3346 -1.733418,-4.93058 -0.325084,-0.59597 -2.221793,-2.329864 -2.817779,-2.167322 -0.595959,0.162542 -1.354182,-2.979461 0.05454,-3.629628 1.408682,-0.650167 -2.005279,-0.596472 -2.492904,-2.709502 -0.487612,-2.113029 1.354876,-1.082904 1.138153,-3.466822 -0.216722,-2.383946 -3.521822,0.433084 -5.038878,-2.330112 -0.946051,-1.723177 1.239978,-5.15003 2.889502,-8.340773 -0.488167,0.0083 -0.992182,-0.03039 -1.496031,-0.147026 -0.766328,-0.177197 -1.317918,-0.476869 -1.747755,-0.751603 0.425076,0.271694 1.029848,0.507818 1.777163,0.560833 0.400969,0.02845 0.793459,-0.0011 1.163966,-0.06523 -0.600427,-0.04802 -1.222352,-0.222663 -1.846012,-0.582345 -0.667209,-0.384815 -1.20091,-0.90468 -1.652369,-1.431497 -1.519388,1.11091 -2.820555,2.165475 -3.882795,3.158448 -5.86491,5.418657 -8.797615,11.538593 -8.797615,18.359741 0,5.036178 1.68959,9.243618 5.068286,12.622318 3.37871,3.31495 7.617786,4.97219 12.717701,4.97219 8.669881,0 18.45514,-4.81281 29.356223,-14.43893 0.637482,4.84493 2.391066,8.47864 5.259778,10.9011 2.868699,2.35872 6.852541,3.53783 11.95247,3.53783 12.984485,0.0581 16.060615,-10.49672 21.987475,-20.18785 0,0 -6.75096,7.94851 -8.40844,7.94851 -0.82873,0 -1.56209,-0.25524 -2.19958,-0.76523 -0.6375,-0.50999 -1.11562,-1.27498 -1.43436,-2.294979 -0.318741,-1.083736 -0.478355,-3.665572 -0.478355,-7.745507 v -34.71146 c 0,-9.626101 -0.445769,-15.777659 -1.338249,-18.455117 C 96.912612,34.820699 93.693044,30.931762 88.720614,27.361815 83.811941,23.728122 77.118279,21.911268 68.639654,21.911268 Z M 43.80808,72.625 c -0.875147,0.544972 -1.71539,1.080894 -2.501523,1.602895 0.236333,0.349412 0.523418,0.695216 0.852012,0.971768 0.354423,0.298312 0.689776,0.463019 0.973919,0.535741 0.07925,0.02054 0.136839,0.01887 0.202969,0.02581 0.102849,-0.0387 0.210764,-0.07201 0.322724,-0.09964 0.273748,-0.822688 0.410005,-1.575706 0.313412,-2.21033 -0.04302,-0.283088 -0.100617,-0.556871 -0.163513,-0.826193 z m -2.517302,1.613651 c -0.687916,0.456996 -1.332782,0.902529 -1.952153,1.341844 0.148539,0.239039 0.311122,0.477924 0.500588,0.696368 0.225077,0.259495 0.460326,0.470374 0.700683,0.621078 0.213683,0.133925 0.417735,0.211365 0.606021,0.243841 0.178391,0.03039 0.335756,0.02068 0.471901,-0.01388 0.05149,-0.01249 0.0977,-0.03275 0.143432,-0.05163 -0.150801,-0.120463 -0.305377,-0.250821 -0.463297,-0.401622 -0.304363,-0.290651 -0.590657,-0.602911 -0.848418,-0.885708 0.254471,0.279174 0.567079,0.581359 0.893592,0.83336 0.200998,0.15513 0.394849,0.274483 0.581636,0.371492 0.01249,-0.0083 0.02762,-0.01388 0.03872,-0.0222 0.09965,-0.06703 0.177933,-0.142363 0.235944,-0.208687 0.05982,-0.06856 0.08369,-0.113246 0.105474,-0.154201 -0.377793,-0.421052 -0.764037,-0.917767 -1.141026,-1.402076 0.364679,0.468502 0.800691,0.952088 1.220646,1.314588 0.08519,-0.167272 0.21889,-0.321875 0.394447,-0.456136 -0.250405,-0.186954 -0.503544,-0.416527 -0.758778,-0.72937 -0.290666,-0.35624 -0.51899,-0.729856 -0.72937,-1.097282 z m -1.962909,1.349727 c -0.251223,0.178266 -0.502378,0.356809 -0.742277,0.532147 0.471624,0.50668 1.051734,0.977096 1.730546,1.265097 0.651388,0.276954 1.264403,0.336478 1.800117,0.271819 0.137949,-0.01665 0.259037,-0.04649 0.378667,-0.07675 -0.0167,-0.02294 -0.03248,-0.04613 -0.04733,-0.06953 -0.0069,-0.0042 -0.01388,-0.0069 -0.02082,-0.0097 -0.07064,0.02512 -0.145583,0.04899 -0.226631,0.06814 -0.166928,0.03914 -0.352924,0.0619 -0.551507,0.04802 -0.199305,-0.01388 -0.401511,-0.06217 -0.605299,-0.152757 -0.213183,-0.09493 -0.418817,-0.233265 -0.619649,-0.4131 -0.225577,-0.202011 -0.438177,-0.449224 -0.638995,-0.731521 -0.170106,-0.239122 -0.318186,-0.487486 -0.456844,-0.732229 z m -1.151795,0.05954 c 0.06884,0.08938 0.147636,0.180473 0.221607,0.271098 -0.07716,-0.09007 -0.1518,-0.180612 -0.221607,-0.271098 z" />
  </g>
</svg>
