<?xml version="1.0" encoding="UTF-8" standalone="no"?>
<svg
   xmlns:dc="http://purl.org/dc/elements/1.1/"
   xmlns:cc="http://creativecommons.org/ns#"
   xmlns:rdf="http://www.w3.org/1999/02/22-rdf-syntax-ns#"
   xmlns:svg="http://www.w3.org/2000/svg"
   xmlns="http://www.w3.org/2000/svg"
   id="svg8"
   version="1.1"
   viewBox="0 0 132.29166 132.29167"
   height="500"
   width="500">
  <defs
     id="defs2">
    <pattern
       y="0"
       x="0"
       height="6"
       width="6"
       patternUnits="userSpaceOnUse"
       id="EMFhbasepattern" />
    <pattern
       y="0"
       x="0"
       height="6"
       width="6"
       patternUnits="userSpaceOnUse"
       id="EMFhbasepattern-3" />
    <pattern
       id="EMFhbasepattern-1"
       patternUnits="userSpaceOnUse"
       width="6"
       height="6"
       x="0"
       y="0" />
  </defs>
  <metadata
     id="metadata5">
    <rdf:RDF>
      <cc:Work
         rdf:about="">
        <dc:format>image/svg+xml</dc:format>
        <dc:type
           rdf:resource="http://purl.org/dc/dcmitype/StillImage" />
        <dc:title></dc:title>
      </cc:Work>
    </rdf:RDF>
  </metadata>
  <g
     transform="translate(0,-164.70831)"
     id="layer1">
    <g
       transform="translate(-0.73702383,161.95988)"
       id="g897">
      <g
         style="display:inline"
         id="layer3-5">
        <g
           style="display:inline"
           transform="matrix(1.2088592,0,0,1.2088592,-3.6967756,6.3838345)"
           id="g1383">
          <path
             style="font-style:normal;font-variant:normal;font-weight:bold;font-stretch:normal;font-size:38.84320068px;line-height:1.25;font-family:Roboto;-inkscape-font-specification:'Roboto Bold';letter-spacing:0px;word-spacing:0px;fill:#000000;fill-opacity:1;stroke:none;stroke-width:0.58264601"
             d="m 48.943023,74.117078 c 0,-3.236933 0.701757,-5.847975 2.105271,-7.833125 1.403514,-1.985151 3.37602,-2.977726 5.917519,-2.977726 1.150629,0 2.16217,0.259207 3.034625,0.777622 0.872455,0.518415 1.618467,1.258105 2.238036,2.21907 l 0.436227,-2.617364 h 4.760568 v 20.42682 c -1.70431,14.474532 -12.153005,4.3456 -18.402238,4.351198 -6.249233,0.0056 -34.929748,8.05581 -35.916002,7.562683 v -7.003849 c 0.847166,0.404617 22.697227,-0.320936 34.359146,-5.05062 4.917034,-0.07667 11.043791,4.800627 12.731815,3.854204 1.688024,-0.946422 1.689089,-2.39229 1.689089,-3.732583 V 82.2347 c -0.606925,0.771301 -1.321327,1.359259 -2.143204,1.763876 -0.821878,0.404617 -1.763876,0.606925 -2.825995,0.606925 -2.51621,0 -4.476072,-0.923032 -5.879586,-2.769095 -1.403514,-1.846063 -2.105271,-4.286408 -2.105271,-7.321033 z"
             id="path1197" />
          <path
             id="path1195"
             style="font-style:normal;font-variant:normal;font-weight:bold;font-stretch:normal;font-size:77.68630219px;line-height:1.25;font-family:bison;-inkscape-font-specification:'bison Bold';letter-spacing:0px;word-spacing:0px;display:inline;fill:#000000;fill-opacity:1;stroke:none;stroke-width:3.10608006"
             d="M 49.576172,34.955078 V 318.26367 h 70.349608 c 20.34158,0 36.44467,-5.26227 48.73438,-15.78515 7.20431,-6.0709 12.71325,-13.76009 16.10351,-22.66407 3.81405,-8.09452 5.50977,-17.80786 5.50977,-29.54492 v -25.90234 c 0,-23.47412 -7.62863,-40.47322 -23.3086,-50.9961 11.44214,-10.11815 16.95118,-24.68881 16.95118,-43.71093 v -26.30664 c 0,-11.332336 -1.69572,-21.449976 -5.50977,-29.949223 -3.39026,-8.903974 -8.89921,-16.593166 -16.10352,-22.664063 -12.2897,-10.522877 -28.81657,-15.785156 -48.73437,-15.785156 h -3.20898 a 15.26495,15.26495 0 0 1 8.6621,13.761719 15.26495,15.26495 0 0 1 0,0.0293 15.26495,15.26495 0 0 1 10.36719,-4.0625 15.26495,15.26495 0 0 1 15.26563,15.265625 15.26495,15.26495 0 0 1 -15.0625,15.261719 l -0.66211,10.103515 a 15.26495,15.26495 0 0 1 5.93164,12.076172 15.26495,15.26495 0 0 1 -0.79102,4.847652 15.26495,15.26495 0 0 1 7.45508,-2.765621 l 0.46094,-1.08789 a 15.26495,15.26495 0 0 1 -7.41211,-13.089844 15.26495,15.26495 0 0 1 15.26367,-15.265625 15.26495,15.26495 0 0 1 15.26563,15.265625 15.26495,15.26495 0 0 1 -15.26563,15.263665 15.26495,15.26495 0 0 1 -1.21484,-0.0469 15.26495,15.26495 0 0 1 9.56836,14.16016 15.26495,15.26495 0 0 1 -15.26563,15.26562 15.26495,15.26495 0 0 1 -7.35351,-1.88867 l -15.45118,23.35742 c 0,0 1.70757,0.49141 1.85157,1.35547 0.14396,0.86405 -0.64905,4.96797 -0.86524,5.83203 -0.216,0.86404 1.72948,18.07347 1.51367,20.01758 -0.21603,1.94412 -2.16157,13.96925 -2.01757,15.19336 0.14396,1.22408 4.60937,3.96093 4.60937,3.96093 l -3.81641,2.88086 c 0,0 8.42503,14.83182 9.28907,18 0.864,3.16823 0.43058,5.47266 0.14257,6.55274 -0.28803,1.08007 -1.51171,3.8164 -1.51171,3.8164 0,0 1.94449,1.94309 2.30468,2.95118 0.36004,1.00806 2.73527,27.65026 2.44727,28.15429 -0.288,0.50405 -2.87927,-1.43937 -3.52734,-1.36718 -0.64804,0.0719 -4.68083,10.4407 -5.04102,16.70507 -0.36004,6.26437 -2.8793,22.32143 -2.44727,26.92969 0.432,4.60827 2.5918,9.35938 2.5918,9.35938 0,0 1.72791,5.47278 1.51172,6.04883 -0.216,0.57607 -2.0866,0.0713 -2.80664,-0.14454 -0.72004,-0.21604 -2.88113,-4.60836 -4.0332,-5.40039 -1.15208,-0.79208 -2.16029,-2.44802 -2.73633,-1.58398 -0.57604,0.86407 0.7207,2.30469 0.7207,2.30469 0,0 0.50277,1.43958 0.14258,2.01562 -0.36,0.576 -3.88903,-0.2875 -4.53711,-0.93555 -0.648,-0.648 -5.4707,-6.55273 -5.4707,-6.55273 0,0 -1.08075,0.57572 -1.80078,0.50391 -0.71997,-0.072 -1.00782,-0.79297 -1.00782,-0.79297 0,0 -0.79251,-1.2947 -0.7207,-2.30274 0.072,-1.00808 2.52006,-4.82514 2.66406,-5.61718 0.144,-0.79207 -0.28576,-9.86502 -0.50195,-13.03321 -0.21604,-3.16826 -1.94674,-11.23153 -1.80274,-12.59961 0.14401,-1.36807 2.23283,-8.35321 3.96094,-10.4414 1.72812,-2.08808 -5.11133,-0.86328 -5.11133,-0.86328 0,0 -1.07937,-4.03135 -6.263668,-3.52735 0,0 -0.28804,-1.80131 -1.080078,-1.94531 -0.792075,-0.14396 -5.256998,-1.00808 -5.617187,-4.32031 0,0 6.697447,0.79105 11.593753,-7.27344 4.8963,-8.06449 6.26285,-13.03165 6.62304,-13.67969 0.36,-0.64803 1.15222,-2.01608 1.65625,-2.08789 0,0 0.0721,-3.96031 -0.5039,-6.48047 -0.57604,-2.52015 -4.39232,-6.33687 -5.40039,-9.28906 -1.008,-2.95219 -1.15235,-6.26562 -1.15235,-6.26562 0,0 0.0725,-2.23069 -2.01562,0.9375 -2.088115,3.16823 -1.58399,4.46484 -1.58399,4.46484 0,0 -0.576168,0.50312 -0.576168,1.36719 0,0.86404 0.791828,1.72904 0.431638,2.95312 -0.360035,1.22407 -1.656645,4.10369 -1.224607,4.67969 0.432,0.57607 1.800777,1.65576 1.800777,2.5918 0,0.93611 -0.5039,0.86328 -0.5039,0.86328 0,0 0.288,1.22575 0,1.58593 -0.288,0.36 -1.296877,-0.43359 -1.296877,-0.43359 0,0 0.720607,2.52113 0.144531,2.95313 -0.576,0.43203 -0.648609,-2.1603 -1.224609,-3.81641 -0.576038,-1.65611 -3.670762,2.1615 -6.046875,1.94531 -2.376151,-0.21604 0.430753,-0.79297 1.798828,-2.95312 1.368076,-2.16015 -2.66304,-1.22461 -3.455078,-1.22461 -0.792038,0 3.455743,-0.71989 4.175781,-1.08008 0.720076,-0.36 -0.721065,-1.79927 -1.36914,-2.44727 -0.648,-0.64788 1.585408,-0.36119 2.521484,0.21485 0.936038,0.57604 2.736783,-1.36683 2.808594,-2.87891 0.07196,-1.51211 -1.441407,-2.80872 -1.441407,-3.38476 0,-0.57603 0.865689,-1.22479 0.9375,-1.80079 0.072,-0.57604 -0.720703,-0.86425 -0.720703,-1.65625 0,-0.79207 0.647983,-1.58359 0.576172,-2.01562 -0.072,-0.43204 -5.112261,-4.03115 -6.984375,-6.69531 -1.872151,-2.66415 -4.752173,-6.4092 -1.583984,-12.60157 0,0 4.248449,-3.88762 5.976562,-4.67968 1.728114,-0.79204 1.871,-3.31304 2.375,-4.53711 0.504038,-1.22408 0.9375,1.29492 0.9375,1.29492 0,0 0.863736,0.0723 0.935547,-1.00781 0.07196,-1.08006 1.294919,1.58593 1.294919,1.58593 0,0 0.21796,0.57579 1.08203,-0.0723 0.86397,-0.64804 0.28615,0.86382 0.50196,2.08789 0.216,1.22408 2.59286,1.80016 2.88086,2.16016 0.28796,0.36003 -0.14294,1.79909 0.28906,1.87109 0.43207,0.072 2.95161,-0.79168 3.59961,-0.43164 0.64807,0.36001 2.30387,2.23256 2.66406,3.88867 0.36038,1.65611 0.35938,4.10352 0.35938,4.10352 l 3.74414,-2.44727 c 0,0 0.57657,-6.91238 1.22461,-8.06445 0.64807,-1.15208 1.36732,-3.45796 0.86328,-5.33008 -0.50419,-1.87211 -0.57439,-19.36811 -0.0703,-20.16016 0.50403,-0.79205 -2.37838,-3.88712 -2.23438,-4.53515 0.14396,-0.64804 0.6496,-2.16149 1.51367,-2.52149 0.86404,-0.36002 3.04492,-0.85156 3.04492,-0.85156 l -0.24023,-0.12695 -0.0566,0.0117 -0.17969,0.11523 -16.4082,-25.48242 a 15.26495,15.26495 0 0 1 -7.546877,1.99609 15.26495,15.26495 0 0 1 -15.263672,-15.26367 15.26495,15.26495 0 0 1 7.833985,-13.333981 L 85.681641,94.0625 A 15.26495,15.26495 0 0 1 75.818359,97.677734 15.26495,15.26495 0 0 1 60.552734,82.414062 15.26495,15.26495 0 0 1 75.818359,67.148438 15.26495,15.26495 0 0 1 85.689453,70.771484 15.26495,15.26495 0 0 1 92.820312,59.367188 15.26495,15.26495 0 0 1 88.490234,48.716797 15.26495,15.26495 0 0 1 97.150391,34.955078 Z m 64.546878,24.962891 a 15.26495,15.26495 0 0 1 -2.3125,1.763672 15.26495,15.26495 0 0 1 4.33007,10.652343 A 15.26495,15.26495 0 0 1 100.875,87.597656 15.26495,15.26495 0 0 1 95,86.421875 l 4.212891,11.380859 a 15.26495,15.26495 0 0 1 5.390629,2.460936 15.26495,15.26495 0 0 1 -0.27344,-2.873045 15.26495,15.26495 0 0 1 15.26562,-15.265625 15.26495,15.26495 0 0 1 8.78907,2.785156 l 0.63476,-9.701172 a 15.26495,15.26495 0 0 1 -14.89648,-15.259765 15.26495,15.26495 0 0 1 0,-0.03125 z M 91.001953,83.974609 A 15.26495,15.26495 0 0 1 86.125,93.671875 l 2.640625,5.380859 a 15.26495,15.26495 0 0 1 6.923828,-1.662109 15.26495,15.26495 0 0 1 2.861328,0.271484 L 94.273438,86.095703 a 15.26495,15.26495 0 0 1 -3.271485,-2.121094 z m 51.482427,14.697266 -0.31836,0.755859 a 15.26495,15.26495 0 0 1 0.75976,-0.02148 15.26495,15.26495 0 0 1 1.21484,0.04883 15.26495,15.26495 0 0 1 -1.65624,-0.783203 z M 110.68359,109.7832 a 15.26495,15.26495 0 0 1 0.27149,2.87305 15.26495,15.26495 0 0 1 -1.2793,6.11523 l 9.50977,29.40235 -4.86133,-36.45703 a 15.26495,15.26495 0 0 1 -3.64063,-1.9336 z m 17.76758,0.043 a 15.26495,15.26495 0 0 1 -2.44336,1.41797 l -5.51953,37.84766 10.53906,-24.85742 a 15.26495,15.26495 0 0 1 -3.36718,-9.5625 15.26495,15.26495 0 0 1 0.79101,-4.84571 z m -3.0625,1.6875 a 15.26495,15.26495 0 0 1 -5.79297,1.14258 15.26495,15.26495 0 0 1 -0.24414,-0.002 l 0.74414,35.17773 z m -10.45898,0.41016 4.56054,34.20898 -0.70898,-33.49804 a 15.26495,15.26495 0 0 1 -3.85156,-0.71094 z m -5.60938,7.60351 a 15.26495,15.26495 0 0 1 -5.59375,6.10547 l 15.20703,23.61133 z m 22.11914,5.19727 -10.08593,23.78516 13.72265,-20.7461 a 15.26495,15.26495 0 0 1 -3.63672,-3.03906 z M 115.13086,285.25 c 0.28804,0.86408 -3.02304,8.92995 -3.45508,10.08203 -0.43204,1.15207 0.14374,5.25652 1.00781,5.97656 0.86404,0.72005 2.51953,5.25586 2.51953,5.25586 l 2.73633,-6.55273 c 0,0 0.28853,-1.72891 0.14453,-3.45703 -0.144,-1.72811 -3.24112,-12.16872 -2.95312,-11.30469 z"
             transform="scale(0.26458333)" />
          <path
             id="path1199"
             style="font-style:normal;font-variant:normal;font-weight:normal;font-stretch:normal;font-size:23.30579948px;line-height:1.25;font-family:'Sitka Subheading';-inkscape-font-specification:'Sitka Subheading';letter-spacing:0px;word-spacing:0px;display:inline;fill:#000000;fill-opacity:1;stroke:none;stroke-width:0.58264601"
             d="m 70.778696,63.242334 q -0.464044,0 -0.87837,-0.149157 -0.397752,-0.16573 -0.71264,-0.430899 -0.298314,-0.265168 -0.480617,-0.646347 -0.182304,-0.397753 -0.182304,-0.878371 0,-0.480617 0.182304,-0.87837 0.182303,-0.397752 0.480617,-0.662921 0.314888,-0.281741 0.71264,-0.430898 0.414326,-0.149157 0.87837,-0.149157 0.497191,0 0.928089,0.149157 0.430899,0.132584 0.729213,0.397752 0.314888,0.265169 0.480618,0.646348 0.182303,0.364607 0.182303,0.845224 0,0.497191 -0.182303,0.894943 -0.16573,0.397753 -0.480618,0.696067 -0.314887,0.281742 -0.745786,0.447472 -0.430898,0.149157 -0.911516,0.149157 z m -4.308985,19.920772 2.287077,-0.580055 q 0.314887,-0.08287 0.513763,-0.281742 0.198877,-0.215449 0.198877,-0.563483 V 70.40188 q 0,-0.38118 -0.21545,-0.613202 -0.215449,-0.248596 -0.629775,-0.38118 L 66.51943,68.678285 v -0.928089 l 6.065726,-0.977808 v 14.965438 q 0,0.348034 0.198876,0.563483 0.215449,0.21545 0.497191,0.281742 l 2.204211,0.580055 v 1.044101 h -9.015723 z" />
          <path
             id="path1201"
             style="font-style:normal;font-variant:normal;font-weight:normal;font-stretch:normal;font-size:23.30579948px;line-height:1.25;font-family:'Permanent Marker';-inkscape-font-specification:'Permanent Marker';letter-spacing:0px;word-spacing:0px;display:inline;fill:#000000;fill-opacity:1;stroke:none;stroke-width:0.58264601"
             d="m 79.011467,80.420012 q -0.400568,1.456614 -0.728306,2.221335 -0.291323,0.728307 -0.910384,1.529444 -0.473399,-0.07283 -0.655476,0.109246 -0.182076,0.182077 -0.400568,0.327738 -0.327738,0.07283 -0.4734,0 -0.145661,-0.07283 -0.254907,-0.182076 -0.109246,-0.07283 -0.291323,-0.182077 -0.145661,-0.07283 -0.473399,-0.07283 -0.07283,-0.291322 -0.182076,-0.54623 -0.07283,-0.254907 -0.4734,-0.182076 0.07283,-0.291323 0.03642,-0.4734 -0.03642,-0.218492 -0.109246,-0.364153 -0.03642,-0.182076 -0.07283,-0.327738 -0.03642,-0.182076 0.03642,-0.436984 -0.182076,0 -0.291322,-0.254907 -0.109246,-0.254907 -0.254908,-0.509815 0.109246,-0.655476 0.218492,-1.238121 0.109246,-0.582645 0.254908,-1.09246 0.182076,-0.509815 0.291322,-1.019629 0.109246,-0.509815 -0.109246,-1.056045 0.145662,0.109246 0.218492,-0.03642 0.07283,-0.182077 0.109246,-0.436984 0.03642,-0.291323 0.03642,-0.54623 0,-0.291323 -0.03642,-0.473399 0.364154,-0.946799 0.582646,-1.930013 0.254907,-1.019629 0.436983,-2.002843 0.218492,-0.983214 0.436984,-1.930013 0.218492,-0.946798 0.582646,-1.747936 0.400568,-0.07283 0.873968,0.109246 0.509814,0.145662 0.61906,0.400569 0.946799,-0.728307 1.675106,-1.747936 0.728306,-1.056044 1.493028,-2.039258 0.764722,-0.983214 1.675105,-1.747936 0.946799,-0.764722 2.366997,-0.910384 0.728307,0.54623 1.602274,1.128876 0.910384,0.54623 1.493029,1.456613 0.291323,0.145661 0.473399,0.327738 0.218492,0.145661 0.509815,0.327738 v 0.436984 q 0.436984,0.400569 0.691891,0.946799 0.291323,0.509814 0.509817,1.128875 0.21849,0.582645 0.43698,1.201706 0.218487,0.582645 0.509817,1.128875 -0.0728,0.182077 -0.0728,0.327738 0,0.109246 0.0364,0.254907 0.0728,0.145662 0.109247,0.291323 0.0364,0.145661 0,0.400569 -0.109247,1.602274 -1.056044,2.585488 -0.910381,0.983214 -2.221333,1.63869 -1.310952,0.619061 -2.80398,1.056045 -1.493029,0.436984 -2.694735,0.946798 0,0.145661 0.109246,0.145661 0.145662,0 0.109246,0.182077 0.873968,0.54623 1.383783,0.873968 0.509815,0.327738 0.946799,0.54623 0.473399,0.218492 0.983213,0.400569 0.54623,0.145661 1.493029,0.364153 0.946799,0.218492 1.456613,0.364153 0.54623,0.109246 0.983214,0.218492 0.436985,0.07283 0.873962,0.145662 0.473397,0.03641 1.310954,0.109246 0.327727,0.327738 0.546227,0.801137 0.254897,0.436984 0.327727,0.910383 0.0728,0.436984 0.0364,0.873968 -0.0364,0.400569 -0.254907,0.655476 0.0364,0.109246 0.145657,0.109246 0.14566,-0.03642 0.29133,0 -0.2185,0.145661 -0.36416,0.364153 -0.145657,0.218492 -0.291317,0.436984 -0.14566,0.218492 -0.327737,0.364154 -0.18208,0.182076 -0.509807,0.218492 -1.128874,0.436984 -2.840393,0.03642 Q 87.459834,84.97193 84.83793,83.9523 83.526978,83.442486 82.689426,83.078332 81.888288,82.677764 81.269228,82.313611 80.686582,81.913042 80.176768,81.476058 79.703369,81.039074 79.011477,80.420013 Z M 84.21886,67.929554 q -0.400569,0.582645 -0.910384,1.056044 -0.473399,0.4734 -0.946798,0.983214 -0.436984,0.4734 -0.801138,1.09246 -0.364153,0.582646 -0.509814,1.383783 1.274536,-0.145662 2.658319,-0.691891 1.383783,-0.582646 2.621904,-1.09246 -0.145662,-1.128876 -0.801137,-1.820767 -0.619061,-0.691891 -1.310952,-0.910383 z" />
          <path
             id="path1203"
             style="font-style:normal;font-variant:normal;font-weight:normal;font-stretch:normal;font-size:23.30579948px;line-height:1.25;font-family:Gadugi;-inkscape-font-specification:Gadugi;letter-spacing:0px;word-spacing:0px;display:inline;fill:#000000;fill-opacity:1;stroke:none;stroke-width:0.58264601"
             d="M 105.52965,84.207207 H 91.983198 V 58.097414 h 3.058872 v 23.342228 h 10.48758 z" />
        </g>
      </g>
    </g>
  </g>
</svg>
