<?xml version="1.0" encoding="UTF-8" standalone="no"?>
<svg
   xmlns:dc="http://purl.org/dc/elements/1.1/"
   xmlns:cc="http://creativecommons.org/ns#"
   xmlns:rdf="http://www.w3.org/1999/02/22-rdf-syntax-ns#"
   xmlns:svg="http://www.w3.org/2000/svg"
   xmlns="http://www.w3.org/2000/svg"
   width="500"
   height="500"
   viewBox="0 0 132.29166 132.29167"
   version="1.1"
   id="svg8">
  <defs
     id="defs2">
    <pattern
       y="0"
       x="0"
       height="6"
       width="6"
       patternUnits="userSpaceOnUse"
       id="EMFhbasepattern" />
    <pattern
       y="0"
       x="0"
       height="6"
       width="6"
       patternUnits="userSpaceOnUse"
       id="EMFhbasepattern-3" />
  </defs>
  <metadata
     id="metadata5">
    <rdf:RDF>
      <cc:Work
         rdf:about="">
        <dc:format>image/svg+xml</dc:format>
        <dc:type
           rdf:resource="http://purl.org/dc/dcmitype/StillImage" />
        <dc:title></dc:title>
      </cc:Work>
    </rdf:RDF>
  </metadata>
  <g
     id="layer1"
     style="display:inline;opacity:0.511222" />
  <g
     id="layer2"
     style="display:inline;opacity:1">
    <path
       id="rect1477"
       style="display:inline;opacity:1;fill:#000000;stroke:none;stroke-width:0.607125;stroke-linecap:round;stroke-linejoin:round;stroke-miterlimit:4;stroke-dasharray:none;paint-order:stroke fill markers"
       d="m 62.753117,15.147067 v 20.137849 c 0,5.232197 -3.105899,5.433088 -6.52543,8.966053 -3.419547,3.532973 -3.143618,5.570187 -3.143618,5.570187 v 70.143794 c 0.359956,-0.29509 1.31617,-1.06674 2.774755,-2.03454 0.150937,-0.10019 0.309677,-0.20002 0.466456,-0.30105 0.28145,-0.50412 0.832459,-1.74401 1.67064,-3.09813 l -0.04715,-0.0207 c 0,0 0.695524,-1.54345 1.334862,-3.53977 0.04723,-0.14737 0.09276,-0.3013 0.13895,-0.45323 -0.146472,-0.29756 -0.171489,-0.81569 -0.468937,-1.19757 -1.705744,-2.18986 -3.499642,-4.45511 -4.372614,-6.69084 -0.872953,-2.23569 -1.63596,-4.118231 -1.056969,-6.320315 0.578983,-2.202082 3.838073,-4.218432 4.561181,-5.641311 0.723084,-1.422889 0.597958,-2.243785 0.597958,-2.243785 0,0 0.67553,1.71014 1.089223,2.148674 0.413698,0.438549 2.630234,2.251358 4.620731,5.132677 1.869395,2.706008 1.750402,5.7735 0.630212,8.50869 0.42972,-0.32855 0.994302,-0.74508 1.652448,-1.18185 0.120017,-0.0797 0.245543,-0.16 0.37052,-0.23984 0.36462,-0.65311 1.297733,-2.853884 2.8649,-4.480137 0.06131,-0.178562 0.122593,-0.363702 0.183607,-0.554127 0.03748,-0.117216 0.07407,-0.239837 0.11083,-0.360594 -0.116464,-0.236601 -0.136501,-0.648314 -0.373,-0.951935 -1.35627,-1.741196 -2.782818,-3.541938 -3.476921,-5.319588 -0.694101,-1.777638 -1.300642,-3.274246 -0.840284,-5.025155 0.460362,-1.75091 3.050833,-3.353743 3.625788,-4.485096 0.574936,-1.131361 0.475556,-1.784772 0.475556,-1.784772 l -0.130676,0.156315 c 0,0 -0.549266,-0.461684 -1.28937,-0.952763 -0.05461,-0.03628 -0.112095,-0.07284 -0.16872,-0.109166 -0.13823,0.02537 -0.352521,-0.02423 -0.542545,0.05293 -1.089698,0.442666 -2.21986,0.912818 -3.232113,1.010656 -1.01226,0.09785 -1.867713,0.19167 -2.698665,-0.298562 -0.830961,-0.490223 -1.277388,-2.051051 -1.774022,-2.5101 -0.496644,-0.459045 -0.845249,-0.503673 -0.845249,-0.503673 0,0 0.775015,-0.07797 1.001561,-0.196011 0.226537,-0.118064 1.22142,-0.812082 2.625885,-1.291025 1.40446,-0.47894 2.715659,0.0078 3.729995,0.879154 0.236954,0.203467 0.44977,0.436715 0.640962,0.679009 -0.08489,-0.224949 -0.178279,-0.484774 -0.269618,-0.769983 -0.02337,-0.07314 -0.04652,-0.149353 -0.06947,-0.224958 -0.305209,-0.30502 -1.443154,-1.214273 -2.022137,-2.381081 -0.154875,-0.12493 -0.502783,-0.397195 -0.936222,-0.684797 -0.04355,-0.02863 -0.08899,-0.05792 -0.133973,-0.08684 -0.109902,0.02015 -0.280632,-0.01919 -0.43172,0.04217 -0.866434,0.351967 -1.764787,0.725272 -2.569646,0.803068 -0.804863,0.0778 -1.4855,0.152441 -2.146195,-0.237365 -0.660705,-0.389794 -1.015235,-1.631505 -1.410123,-1.996498 -0.394887,-0.364996 -0.672391,-0.399465 -0.672391,-0.399465 0,0 0.616318,-0.06163 0.796449,-0.155483 0.180132,-0.09385 0.971594,-0.64639 2.088303,-1.027196 1.110056,-0.378542 2.146408,0.0021 2.950915,0.68728 -0.01328,-0.04279 -0.02655,-0.08566 -0.03968,-0.129027 -0.249395,-0.2492 -1.19975,-1.005281 -1.646656,-1.970031 -0.08529,-0.184065 -0.156971,-0.373114 -0.21338,-0.565705 -0.100363,-0.07444 -0.213423,-0.155899 -0.344879,-0.243153 -0.02807,-0.01858 -0.05701,-0.03659 -0.08601,-0.05541 -0.07095,0.01296 -0.181161,-0.01232 -0.278715,0.02727 -0.559449,0.227266 -1.140197,0.468327 -1.659889,0.518562 -0.519692,0.05024 -0.958699,0.09787 -1.385312,-0.153834 C 56.026904,67.493281 55.79792,66.6921 55.542923,66.456439 55.287943,66.220758 55.108722,66.1984 55.108722,66.1984 c 0,0 0.398119,-0.04031 0.514428,-0.100908 0.11632,-0.06059 0.627049,-0.417411 1.348091,-0.663294 0.721049,-0.245886 1.394683,0.0051 1.91545,0.452396 0.520762,0.447346 0.822741,1.170021 0.93374,1.368767 0.03414,0.02189 0.06887,0.04449 0.101724,0.06616 0.08743,0.05802 0.1673,0.11408 0.242327,0.167894 -0.187685,-0.76973 -0.114959,-1.581868 0.392022,-2.315741 0.670613,-0.970737 1.417129,-1.581614 1.556508,-1.729365 0.139382,-0.147752 0.367211,-0.724497 0.367211,-0.724497 0,0 -0.04179,0.277368 0.2018,0.756753 0.243623,0.479383 1.341594,1.158664 1.536656,1.900561 0.195066,0.7419 -0.06235,1.3756 -0.356455,2.12883 -0.294108,0.753228 -0.898293,1.516755 -1.472979,2.254538 -0.10022,0.128644 -0.108606,0.302522 -0.157964,0.402774 0.01552,0.05117 0.03044,0.103324 0.04632,0.153002 0.02583,0.08069 0.05261,0.159227 0.07856,0.234879 0.664042,0.689084 1.058781,1.621346 1.213281,1.898083 0.05296,0.03383 0.106302,0.06797 0.157132,0.101724 0.278876,0.185069 0.518433,0.361152 0.700514,0.500367 -0.474646,-1.158966 -0.525794,-2.457691 0.266311,-3.604288 0.843418,-1.220876 1.783164,-1.98932 1.958456,-2.175142 0.17529,-0.185814 0.461492,-0.910583 0.461492,-0.910583 0,0 -0.05331,0.348195 0.253079,0.951111 0.306394,0.602903 1.68749,1.457103 1.932815,2.390176 0.245329,0.933071 -0.07754,1.730673 -0.447434,2.677989 -0.3699,0.947325 -1.130658,1.907235 -1.853418,2.835127 -0.126035,0.161809 -0.136438,0.380898 -0.198492,0.50698 0.01956,0.06437 0.03875,0.129427 0.05872,0.191878 0.270902,0.845887 0.565705,1.50027 0.565705,1.50027 l -0.01986,0.0091 c 0.355156,0.573775 0.588701,1.098924 0.707957,1.312529 0.06643,0.04281 0.133716,0.08492 0.197662,0.127363 0.750531,0.497997 1.306742,0.966824 1.306742,0.966824 0,0 0.537818,1.35999 0.86675,1.708684 0.328935,0.348693 2.091089,1.790528 3.673758,4.081492 1.196495,1.73197 1.367577,3.649393 0.92464,5.465979 0.177061,-0.127011 0.366812,-0.260052 0.573148,-0.396985 0.07761,-0.05117 0.158443,-0.103756 0.239016,-0.155482 0.261955,-0.469048 0.975899,-2.175538 2.204915,-3.231286 1.229021,-1.055695 2.818127,-1.646365 4.519832,-1.066069 0.01456,0.005 0.02761,0.01072 0.04217,0.01568 V 49.821146 c 0,0 0.275929,-2.037212 -3.143618,-5.570185 -3.419526,-3.532965 -6.525425,-3.733856 -6.525425,-8.966053 V 15.147059 h -0.156315 a 7.0006772,7.0006772 0 0 1 -4.997038,2.098227 7.0006772,7.0006772 0 0 1 -4.996211,-2.098227 z m 4.413964,6.220245 a 0.49838998,0.49838998 0 0 1 0.0099,0 0.49838998,0.49838998 0 0 1 0.498713,0.498712 0.49838998,0.49838998 0 0 1 -0.498713,0.498712 0.49838998,0.49838998 0 0 1 -0.497884,-0.498712 0.49838998,0.49838998 0 0 1 0.487958,-0.498712 z m 2.598593,9.753406 a 0.74758506,0.74758506 0 0 1 0.747655,0.747654 0.74758506,0.74758506 0 0 1 -0.747655,0.747653 0.74758506,0.74758506 0 0 1 -0.747652,-0.747653 0.74758506,0.74758506 0 0 1 0.747652,-0.747654 z m -2.919488,9.388675 a 0.49838998,0.49838998 0 0 1 0.01072,0 0.49838998,0.49838998 0 0 1 0.497884,0.498711 0.49838998,0.49838998 0 0 1 -0.497884,0.497885 0.49838998,0.49838998 0 0 1 -0.49871,-0.497885 0.49838998,0.49838998 0 0 1 0.487959,-0.498711 z m 1.422529,1.411775 a 0.74758506,0.74758506 0 0 1 0.747651,0.747654 0.74758506,0.74758506 0 0 1 -0.747651,0.747655 0.74758506,0.74758506 0 0 1 -0.747657,-0.747655 0.74758506,0.74758506 0 0 1 0.747657,-0.747654 z m -1.924545,1.869135 a 1.0383126,1.0383126 0 0 1 0.01408,0 1.0383126,1.0383126 0 0 1 1.037948,1.038772 1.0383126,1.0383126 0 0 1 -1.037948,1.037953 1.0383126,1.0383126 0 0 1 -1.038777,-1.037953 1.0383126,1.0383126 0 0 1 1.024718,-1.038772 z m 3.753979,4.617424 a 0.74936334,0.74936334 0 0 1 0.749307,0.749307 0.74936334,0.74936334 0 0 1 -0.749307,0.749307 0.74936334,0.74936334 0 0 1 -0.749306,-0.749307 0.74936334,0.74936334 0 0 1 0.749306,-0.749307 z m 1.582148,1.498614 a 0.74936334,0.74936334 0 0 1 0.749308,0.749306 0.74936334,0.74936334 0 0 1 -0.749308,0.749307 0.74936334,0.74936334 0 0 1 -0.749307,-0.749307 0.74936334,0.74936334 0 0 1 0.749307,-0.749306 z m -2.452206,2.581223 a 0.99915108,0.99915108 0 0 1 0.03803,0 0.99915108,0.99915108 0 0 1 0.999075,0.999078 0.99915108,0.99915108 0 0 1 -0.999075,0.999075 0.99915108,0.99915108 0 0 1 -0.999905,-0.999075 0.99915108,0.99915108 0 0 1 0.961858,-0.999078 z m 2.859116,2.830995 a 1.4987267,1.4987267 0 0 1 0.0091,0 1.4987267,1.4987267 0 0 1 1.499443,1.498613 1.4987267,1.4987267 0 0 1 -1.499443,1.498614 1.4987267,1.4987267 0 0 1 -1.498615,-1.498614 1.4987267,1.4987267 0 0 1 1.489519,-1.498613 z m -3.853228,3.746534 a 2.0815648,2.0815648 0 0 1 0.03226,0 2.0815648,2.0815648 0 0 1 2.081685,2.081688 2.0815648,2.0815648 0 0 1 -2.081685,2.081687 2.0815648,2.0815648 0 0 1 -2.080857,-2.081687 2.0815648,2.0815648 0 0 1 2.048603,-2.081688 z m 7.762695,31.698363 c -0.06839,0.04446 -0.138038,0.0885 -0.204282,0.132324 -0.310248,0.205906 -0.576145,0.397453 -0.812993,0.573143 -0.133124,0.454522 -0.302403,0.901291 -0.503673,1.335688 -1.054711,2.276844 -3.296898,4.060731 -3.885481,4.648848 -0.03113,0.102348 -0.06291,0.203369 -0.09428,0.304354 1.898668,-1.616744 4.344814,-2.516046 6.964592,-1.622672 2.635467,0.898718 4.503274,2.202591 4.928392,2.424084 0.06679,0.03481 0.164154,0.0668 0.272101,0.09759 v -6.556853 c -0.649814,0.09551 -1.334082,0.02516 -2.090783,-0.04798 -1.226498,-0.11856 -2.595765,-0.687682 -3.916085,-1.224033 -0.230235,-0.09351 -0.490076,-0.03379 -0.657503,-0.06451 z m 6.664371,9.128155 c -0.924066,0.884139 -1.75995,3.776779 -3.308201,4.690199 -1.559274,0.91993 -3.163696,0.74353 -5.063203,0.55991 -1.899503,-0.1836 -4.021613,-1.06494 -6.066414,-1.89559 -0.356578,-0.14486 -0.75791,-0.0516 -1.017275,-0.0992 -0.106205,0.0682 -0.214806,0.13666 -0.317586,0.20428 -1.022923,0.67875 -1.842726,1.32204 -2.208223,1.61688 -1.366413,2.7537 -4.053422,4.89995 -4.773736,5.61981 -0.05413,0.17844 -0.107709,0.35836 -0.162926,0.53096 -0.215554,0.67311 -0.435658,1.28697 -0.636005,1.81786 0.451224,-0.57182 0.952634,-1.12263 1.511847,-1.60282 2.393872,-2.05642 5.488553,-3.2062 8.803127,-2.0759 3.314579,1.13032 5.662447,2.76906 6.197087,3.04768 0.534656,0.27858 2.364538,0.46232 2.364538,0.46232 0,0 -0.824406,0.10429 -1.996501,1.18765 -1.172081,1.08337 -2.22461,4.76722 -4.1857,5.92416 -0.584201,0.34466 -1.17387,0.56503 -1.776508,0.70134 H 82.661045 Z M 56.524597,118.07514 c -0.133653,0.0857 -0.268928,0.17156 -0.39781,0.25721 -1.746684,1.15897 -3.042718,2.24875 -3.042718,2.24875 H 65.40381 c -2.381435,-0.23711 -5.037761,-1.34066 -7.598937,-2.38108 -0.448463,-0.18216 -0.954058,-0.065 -1.280276,-0.12488 z" />
  </g>
  <g
     id="layer3"
     style="display:inline" />
</svg>
