<?xml version="1.0" encoding="UTF-8" standalone="no"?>
<svg
   xmlns:dc="http://purl.org/dc/elements/1.1/"
   xmlns:cc="http://creativecommons.org/ns#"
   xmlns:rdf="http://www.w3.org/1999/02/22-rdf-syntax-ns#"
   xmlns:svg="http://www.w3.org/2000/svg"
   xmlns="http://www.w3.org/2000/svg"
   id="svg8"
   version="1.1"
   viewBox="0 0 132.29166 132.29167"
   height="500"
   width="500">
  <defs
     id="defs2">
    <pattern
       y="0"
       x="0"
       height="6"
       width="6"
       patternUnits="userSpaceOnUse"
       id="EMFhbasepattern" />
    <pattern
       y="0"
       x="0"
       height="6"
       width="6"
       patternUnits="userSpaceOnUse"
       id="EMFhbasepattern-3" />
  </defs>
  <metadata
     id="metadata5">
    <rdf:RDF>
      <cc:Work
         rdf:about="">
        <dc:format>image/svg+xml</dc:format>
        <dc:type
           rdf:resource="http://purl.org/dc/dcmitype/StillImage" />
        <dc:title></dc:title>
      </cc:Work>
    </rdf:RDF>
  </metadata>
  <g
     transform="translate(0,-164.70831)"
     id="layer1">
    <g
       transform="translate(1.348631,167.14126)"
       id="g849">
      <g
         id="layer1-1"
         style="display:inline;opacity:0.51122203" />
      <g
         id="layer2"
         style="display:inline;opacity:1">
        <path
           d="m 94.142666,16.980451 c 0,0 4.617861,8.676279 4.617861,9.655872 0,0.979592 -5.738047,7.276861 -5.458165,8.67628 0.279885,1.399418 9.376198,3.778754 10.915568,8.256889 1.53936,4.478136 -8.536234,11.054852 -8.536234,11.054852 1.819245,1.399418 3.91859,11.615708 5.178064,13.434955 1.25948,1.819241 9.51593,3.218553 11.61506,4.757911 2.09912,1.539367 5.7375,15.064293 5.7375,15.064293 V 115.73702 H 16.673749 V 87.881503 c 0,0 0.18596,-4.219014 0.43087,-5.058673 0.24489,-0.839644 7.88094,-13.534988 8.12832,-14.623481 0.24738,-1.088491 -0.29629,-5.887658 0.24796,-7.470918 0.54424,-1.58326 6.52729,-10.022456 6.52729,-10.022456 -2.30904,-0.979596 -2.30892,-3.568624 -2.30892,-3.568624 l 3.56863,-0.839542 c 0,0 -9.72586,-3.428028 -6.22731,-11.544647 3.49854,-8.116624 17.422209,-9.726278 17.422209,-9.726278 -5.947529,3.218662 -9.096001,8.25656 -9.026027,11.26531 0.06997,3.008748 9.488656,5.239335 9.983425,7.36684 0.494769,2.127506 -5.739264,13.407758 -5.640309,15.733169 0.09896,2.325416 12.912979,11.677121 13.754088,11.973988 0.841106,0.296859 12.221024,0.247038 12.616843,-0.346685 0.39581,-0.593724 -0.04975,-13.606384 -0.04975,-13.606384 -0.148432,0.742154 -2.046431,1.689797 -2.046431,1.689797 0.839644,-0.559767 0.42037,-2.798832 0.700257,-3.91837 0.27988,-1.119532 1.539029,-1.259474 4.477806,-1.959184 2.938777,-0.699707 3.91815,-2.798832 5.597453,-4.897962 1.679299,-2.099125 -2.238522,-10.635464 -2.238522,-10.635464 0,0 6.436992,5.876899 9.375769,7.976024 2.938776,2.099128 8.81633,4.478245 10.775514,4.05842 1.959185,-0.419826 8.396616,-4.337972 7.976796,-7.556635 -0.41983,-3.218662 -13.294469,-5.037791 -13.714296,-8.676279 -0.419823,-3.638484 7.137248,-16.513018 7.137248,-16.513018 z m -26.853837,12.47832 c 0,0 2.226045,5.98677 2.325,8.064799 0.09896,2.078032 0.395955,7.619281 -3.364288,8.163526 -3.76024,0.544246 -18.157661,-3.611905 -18.157661,-4.255105 0,-0.643201 8.509453,-5.788248 10.488527,-6.678829 1.97907,-0.890586 6.679977,-1.929457 7.174745,-2.374744 0.494769,-0.445294 1.533677,-2.919647 1.533677,-2.919647 z M 47.646472,49.991946 c 0,0 2.127399,2.078233 2.523214,2.72143 0.395814,0.643199 0.39601,2.6216 0.742346,3.264796 0.346342,0.643204 1.632402,2.078573 1.632402,2.078573 0,0 -4.057049,-1.781718 -4.650768,-3.068114 -0.593727,-1.2864 -0.247194,-4.996685 -0.247194,-4.996685 z m 38.553845,23.31506 c -0.349852,0 -5.387433,3.638596 -5.702301,3.568621 -0.314868,-0.0699 -2.134437,-1.119634 -2.134437,-1.119634 0,0 1.749712,6.227075 1.784695,6.926783 0.01967,0.393343 -2.165004,2.964227 -4.126532,5.198727 h 33.525778 c -0.49501,-1.268293 -1.08955,-2.645836 -1.72576,-3.798984 -1.67931,-3.043725 -4.37297,-5.073009 -5.35256,-5.527811 -0.97959,-0.454817 -6.472634,-0.105296 -8.746687,-0.665054 -2.274054,-0.559758 -7.17234,-4.582648 -7.522196,-4.582648 z m -49.460226,2.262253 c -0.107562,-0.0011 -0.181706,0.003 -0.21888,0.01185 -0.594754,0.139951 -10.425892,8.991151 -10.565822,9.410973 -0.0593,0.178026 -0.24226,1.490066 -0.42857,2.889794 h 15.439292 c 2.717938,-4.299074 6.776071,-10.782458 6.61072,-10.971429 -0.229593,-0.262396 -9.223422,-1.324436 -10.83674,-1.340815 z m 29.623483,3.370409 c -0.349853,0.03495 -12.734152,6.996981 -13.014036,7.206892 -0.106304,0.07968 -0.682173,0.859075 -1.317858,1.734943 h 15.333679 c 1.01922,-1.703517 2.042603,-3.517291 2.042603,-3.939038 0,-0.839659 -2.694534,-5.037777 -3.044388,-5.002797 z"
           style="fill:#000000;stroke:none;stroke-width:0.39183599px;stroke-linecap:butt;stroke-linejoin:miter;stroke-opacity:1"
           id="path3953" />
      </g>
      <g
         id="layer3"
         style="display:inline" />
    </g>
  </g>
</svg>
