<?xml version="1.0" encoding="UTF-8" standalone="no"?>
<svg
   xmlns:dc="http://purl.org/dc/elements/1.1/"
   xmlns:cc="http://creativecommons.org/ns#"
   xmlns:rdf="http://www.w3.org/1999/02/22-rdf-syntax-ns#"
   xmlns:svg="http://www.w3.org/2000/svg"
   xmlns="http://www.w3.org/2000/svg"
   id="svg8"
   version="1.1"
   viewBox="0 0 132.29166 132.29167"
   height="500"
   width="500">
  <defs
     id="defs2">
    <pattern
       y="0"
       x="0"
       height="6"
       width="6"
       patternUnits="userSpaceOnUse"
       id="EMFhbasepattern" />
    <pattern
       y="0"
       x="0"
       height="6"
       width="6"
       patternUnits="userSpaceOnUse"
       id="EMFhbasepattern-3" />
    <pattern
       id="EMFhbasepattern-1"
       patternUnits="userSpaceOnUse"
       width="6"
       height="6"
       x="0"
       y="0" />
  </defs>
  <metadata
     id="metadata5">
    <rdf:RDF>
      <cc:Work
         rdf:about="">
        <dc:format>image/svg+xml</dc:format>
        <dc:type
           rdf:resource="http://purl.org/dc/dcmitype/StillImage" />
        <dc:title></dc:title>
      </cc:Work>
    </rdf:RDF>
  </metadata>
  <g
     style="display:inline"
     id="layer3">
    <g
       transform="matrix(1.2597468,0,0,1.2597468,-15.768773,-16.237232)"
       id="text4618"
       style="font-style:normal;font-variant:normal;font-weight:normal;font-stretch:normal;font-size:18.33847046px;line-height:1.25;font-family:'Courier New';-inkscape-font-specification:'Courier New';letter-spacing:0px;word-spacing:0px;display:inline;fill:#000000;fill-opacity:1;stroke:none;stroke-width:0.45846176"
       aria-label="BUTTON">
      <path
         id="path4620"
         style="font-style:normal;font-variant:normal;font-weight:bold;font-stretch:normal;font-family:arial;-inkscape-font-specification:'arial Bold';stroke-width:0.45846176"
         d="m 28.178418,59.952166 h 5.247238 q 1.558053,0 2.319172,0.134315 0.770072,0.125361 1.370012,0.53726 0.608895,0.411899 1.01184,1.101383 0.402945,0.680529 0.402945,1.531191 0,0.922296 -0.501443,1.692368 -0.492488,0.770073 -1.34315,1.155109 1.199881,0.349219 1.844593,1.190926 0.644712,0.841707 0.644712,1.978907 0,0.895433 -0.420854,1.746095 -0.411899,0.841707 -1.1372,1.352104 -0.716347,0.501442 -1.772958,0.617849 -0.66262,0.07163 -3.196696,0.08954 h -4.468211 z m 2.650482,2.184857 v 3.035518 h 1.73714 q 1.549099,0 1.925181,-0.04477 0.680529,-0.08059 1.065566,-0.465625 0.39399,-0.393991 0.39399,-1.029748 0,-0.608895 -0.340264,-0.984977 -0.331311,-0.385036 -0.993931,-0.465625 -0.393991,-0.04477 -2.265446,-0.04477 z m 0,5.220375 v 3.510098 h 2.453487 q 1.432693,0 1.817729,-0.08059 0.590986,-0.107452 0.958113,-0.519351 0.376082,-0.420854 0.376082,-1.119291 0,-0.590986 -0.286538,-1.002886 -0.286539,-0.411899 -0.832753,-0.59994 -0.53726,-0.188041 -2.346035,-0.188041 z" />
      <path
         id="path4622"
         style="font-style:normal;font-variant:normal;font-weight:bold;font-stretch:normal;font-family:arial;-inkscape-font-specification:'arial Bold';stroke-width:0.45846176"
         d="m 41.403965,59.952166 h 2.650482 v 7.109739 q 0,1.692369 0.0985,2.193812 0.170133,0.805889 0.80589,1.298378 0.644712,0.483533 1.755049,0.483533 1.128246,0 1.701323,-0.45667 0.573077,-0.465626 0.689484,-1.1372 0.116406,-0.671575 0.116406,-2.229629 v -7.261963 h 2.650482 v 6.894835 q 0,2.363944 -0.214904,3.339966 -0.214904,0.976022 -0.796936,1.647597 -0.573077,0.671575 -1.540144,1.07452 -0.967068,0.39399 -2.525122,0.39399 -1.880409,0 -2.856432,-0.429808 -0.967067,-0.438762 -1.53119,-1.128245 -0.564123,-0.698438 -0.74321,-1.459556 -0.259675,-1.128246 -0.259675,-3.331012 z" />
      <path
         id="path4624"
         style="font-style:normal;font-variant:normal;font-weight:bold;font-stretch:normal;font-family:arial;-inkscape-font-specification:'arial Bold';stroke-width:0.45846176"
         d="M 57.629213,73.079216 V 62.172841 h -3.895135 v -2.220675 h 10.431796 v 2.220675 h -3.886179 v 10.906375 z" />
      <path
         id="path4626"
         style="font-style:normal;font-variant:normal;font-weight:bold;font-stretch:normal;font-family:arial;-inkscape-font-specification:'arial Bold';stroke-width:0.45846176"
         d="M 68.840038,73.079216 V 62.172841 h -3.895135 v -2.220675 h 10.431796 v 2.220675 H 71.49052 v 10.906375 z" />
      <path
         id="path4630"
         transform="scale(0.26458333)"
         d="m 319.29492,226.5918 c 4.07077,1.03394 7.52935,3.01484 10.36719,5.95508 4.39961,4.53497 6.59961,10.84073 6.59961,18.91796 0,8.00955 -2.17677,14.28338 -6.53125,18.81836 -2.82038,2.92268 -6.25971,4.89221 -10.31055,5.92188 h 34.03516 v -32.35352 l 20,32.35352 h 10.05273 V 226.5918 h -9.30664 v 33.13086 L 353.89453,226.5918 Z"
         style="font-style:normal;font-variant:normal;font-weight:bold;font-stretch:normal;font-size:18.33847046px;line-height:1.25;font-family:arial;-inkscape-font-specification:'arial Bold';letter-spacing:0px;word-spacing:0px;fill:#000000;fill-opacity:1;stroke:none;stroke-width:1.73276889" />
    </g>
    <circle
       r="1.5475011"
       cy="65.244659"
       cx="86.009201"
       id="path4669"
       style="display:inline;opacity:1;fill:#000000;fill-opacity:1;stroke:none;stroke-width:9.09817219;stroke-linecap:round;stroke-miterlimit:4;stroke-dasharray:none;stroke-opacity:1" />
    <circle
       style="display:inline;opacity:1;fill:#000000;fill-opacity:1;stroke:none;stroke-width:9.09817219;stroke-linecap:round;stroke-miterlimit:4;stroke-dasharray:none;stroke-opacity:1"
       id="circle4671"
       cx="89.877953"
       cy="65.244659"
       r="1.5475011" />
    <circle
       style="display:inline;opacity:1;fill:#000000;fill-opacity:1;stroke:none;stroke-width:9.09817219;stroke-linecap:round;stroke-miterlimit:4;stroke-dasharray:none;stroke-opacity:1"
       id="circle4673"
       cx="86.009201"
       cy="69.053886"
       r="1.5475011" />
    <circle
       r="1.5475011"
       cy="69.053886"
       cx="89.877953"
       id="circle4675"
       style="display:inline;opacity:1;fill:#000000;fill-opacity:1;stroke:none;stroke-width:9.09817219;stroke-linecap:round;stroke-miterlimit:4;stroke-dasharray:none;stroke-opacity:1" />
  </g>
</svg>
