<?xml version="1.0" encoding="UTF-8" standalone="no"?>
<svg
   xmlns:dc="http://purl.org/dc/elements/1.1/"
   xmlns:cc="http://creativecommons.org/ns#"
   xmlns:rdf="http://www.w3.org/1999/02/22-rdf-syntax-ns#"
   xmlns:svg="http://www.w3.org/2000/svg"
   xmlns="http://www.w3.org/2000/svg"
   id="svg8"
   version="1.1"
   viewBox="0 0 132.29166 132.29167"
   height="500"
   width="500">
  <defs
     id="defs2">
    <pattern
       y="0"
       x="0"
       height="6"
       width="6"
       patternUnits="userSpaceOnUse"
       id="EMFhbasepattern" />
    <pattern
       y="0"
       x="0"
       height="6"
       width="6"
       patternUnits="userSpaceOnUse"
       id="EMFhbasepattern-3" />
    <pattern
       id="EMFhbasepattern-1"
       patternUnits="userSpaceOnUse"
       width="6"
       height="6"
       x="0"
       y="0" />
  </defs>
  <metadata
     id="metadata5">
    <rdf:RDF>
      <cc:Work
         rdf:about="">
        <dc:format>image/svg+xml</dc:format>
        <dc:type
           rdf:resource="http://purl.org/dc/dcmitype/StillImage" />
        <dc:title></dc:title>
      </cc:Work>
    </rdf:RDF>
  </metadata>
  <g
     style="display:inline"
     id="layer3">
    <path
       d="m 12.047765,57.690538 h 6.505276 q 1.9316,0 2.875199,0.166516 0.954698,0.155416 1.698476,0.66607 0.754878,0.510653 1.254431,1.365441 0.499551,0.843688 0.499551,1.898297 0,1.14342 -0.621664,2.098119 -0.610564,0.954699 -1.665173,1.432048 1.487554,0.432946 2.286837,1.476454 0.799283,1.043509 0.799283,2.453355 0,1.110115 -0.521754,2.164725 -0.510653,1.043509 -1.409847,1.676274 -0.888092,0.621665 -2.198028,0.76598 -0.821485,0.08881 -3.963112,0.111011 h -5.539475 z m 3.285942,2.708681 v 3.763291 h 2.153623 q 1.920499,0 2.386748,-0.0555 0.843688,-0.09991 1.321037,-0.577259 0.488451,-0.488451 0.488451,-1.276633 0,-0.754878 -0.421844,-1.221127 -0.410742,-0.477349 -1.232228,-0.57726 -0.488451,-0.0555 -2.808591,-0.0555 z m 0,6.471972 v 4.351653 h 3.041715 q 1.776185,0 2.253534,-0.09991 0.732676,-0.133214 1.187824,-0.643867 0.466248,-0.521754 0.466248,-1.387644 0,-0.732676 -0.355237,-1.243328 -0.355237,-0.510654 -1.032407,-0.743778 -0.66607,-0.233124 -2.908502,-0.233124 z"
       style="font-style:normal;font-variant:normal;font-weight:bold;font-stretch:normal;font-size:20.83823204px;line-height:1.25;font-family:Arial;-inkscape-font-specification:'Arial Bold';letter-spacing:0px;word-spacing:0px;fill:#000000;fill-opacity:1;stroke:none;stroke-width:0.56837904"
       id="path4717" />
    <path
       d="m 26.134818,57.690538 h 3.285942 v 8.814316 q 0,2.098117 0.122112,2.719781 0.210922,0.999105 0.999103,1.609669 0.799284,0.599461 2.175827,0.599461 1.398745,0 2.109219,-0.566159 0.710474,-0.577259 0.854788,-1.409846 0.144316,-0.832586 0.144316,-2.764187 v -9.003035 h 3.285941 v 8.547888 q 0,2.930704 -0.266427,4.14073 -0.266428,1.210026 -0.988003,2.042612 -0.710473,0.832587 -1.909399,1.332139 -1.198924,0.48845 -3.130524,0.48845 -2.331243,0 -3.541268,-0.532855 -1.198925,-0.543957 -1.898298,-1.398745 -0.699373,-0.86589 -0.921395,-1.809489 -0.321934,-1.398745 -0.321934,-4.129628 z"
       style="font-style:normal;font-variant:normal;font-weight:bold;font-stretch:normal;font-size:20.83823204px;line-height:1.25;font-family:Arial;-inkscape-font-specification:'Arial Bold';letter-spacing:0px;word-spacing:0px;fill:#000000;fill-opacity:1;stroke:none;stroke-width:0.56837904"
       id="path4719" />
    <path
       d="M 44.518096,73.964828 V 60.443623 h -4.829003 v -2.753085 h 12.932845 v 2.753085 h -4.817902 v 13.521205 z"
       style="font-style:normal;font-variant:normal;font-weight:bold;font-stretch:normal;font-size:20.83823204px;line-height:1.25;font-family:Arial;-inkscape-font-specification:'Arial Bold';letter-spacing:0px;word-spacing:0px;fill:#000000;fill-opacity:1;stroke:none;stroke-width:0.56837904"
       id="path4721" />
    <path
       d="M 56.684725,73.964828 V 60.443623 h -4.829001 v -2.753085 h 12.932843 v 2.753085 h -4.8179 v 13.521205 z"
       style="font-style:normal;font-variant:normal;font-weight:bold;font-stretch:normal;font-size:20.83823204px;line-height:1.25;font-family:Arial;-inkscape-font-specification:'Arial Bold';letter-spacing:0px;word-spacing:0px;fill:#000000;fill-opacity:1;stroke:none;stroke-width:0.56837904"
       id="path4723" />
    <path
       id="path4727"
       d="m 74.339222,57.69034 c 1.336836,0.338897 2.472568,0.988843 3.40426,1.954155 1.443151,1.487552 2.164453,3.555771 2.164453,6.205248 0,2.627272 -0.714114,4.684994 -2.142464,6.172547 -0.92491,0.958455 -2.052821,1.604493 -3.381145,1.942313 h 11.163361 v -10.61252 l 6.560446,10.61252 h 3.297136 V 57.69034 H 92.35226 V 68.558829 L 85.692022,57.69034 Z"
       style="font-style:normal;font-variant:normal;font-weight:bold;font-stretch:normal;font-size:20.83823204px;line-height:1.25;font-family:Arial;-inkscape-font-specification:'Arial Bold';letter-spacing:0px;word-spacing:0px;fill:#000000;fill-opacity:1;stroke:none;stroke-width:0.56837904" />
    <path
       d="M 97.247872,73.964828 V 57.823751 h 3.285948 v 13.399093 h 8.17045 v 2.741984 z"
       style="font-style:normal;font-variant:normal;font-weight:bold;font-stretch:normal;font-size:20.83823204px;line-height:1.25;font-family:Arial;-inkscape-font-specification:'Arial Bold';letter-spacing:0px;word-spacing:0px;fill:#000000;fill-opacity:1;stroke:none;stroke-width:0.56837904"
       id="path4729" />
    <path
       d="m 111.51262,73.964828 v -6.849411 l -5.96131,-9.424879 h 3.8521 l 3.82989,6.438668 3.75219,-6.438668 h 3.78549 l -5.98352,9.447081 v 6.827209 z"
       style="font-style:normal;font-variant:normal;font-weight:bold;font-stretch:normal;font-size:20.83823204px;line-height:1.25;font-family:Arial;-inkscape-font-specification:'Arial Bold';letter-spacing:0px;word-spacing:0px;fill:#000000;fill-opacity:1;stroke:none;stroke-width:0.56837904"
       id="path4731" />
    <circle
       r="1.688372"
       style="display:inline;opacity:1;fill:#000000;fill-opacity:1;stroke:none;stroke-width:9.92639065;stroke-linecap:round;stroke-miterlimit:4;stroke-dasharray:none;stroke-opacity:1"
       id="circle4747"
       cx="68.812859"
       cy="63.877857" />
    <circle
       r="1.688372"
       cy="63.877857"
       cx="73.033783"
       id="circle4749"
       style="display:inline;opacity:1;fill:#000000;fill-opacity:1;stroke:none;stroke-width:9.92639065;stroke-linecap:round;stroke-miterlimit:4;stroke-dasharray:none;stroke-opacity:1" />
    <circle
       r="1.688372"
       cy="68.033844"
       cx="68.812859"
       id="circle4751"
       style="display:inline;opacity:1;fill:#000000;fill-opacity:1;stroke:none;stroke-width:9.92639065;stroke-linecap:round;stroke-miterlimit:4;stroke-dasharray:none;stroke-opacity:1" />
    <circle
       r="1.688372"
       style="display:inline;opacity:1;fill:#000000;fill-opacity:1;stroke:none;stroke-width:9.92639065;stroke-linecap:round;stroke-miterlimit:4;stroke-dasharray:none;stroke-opacity:1"
       id="circle4753"
       cx="73.033783"
       cy="68.033844" />
  </g>
</svg>
