<?xml version="1.0" encoding="UTF-8" standalone="no"?>
<svg
   xmlns:dc="http://purl.org/dc/elements/1.1/"
   xmlns:cc="http://creativecommons.org/ns#"
   xmlns:rdf="http://www.w3.org/1999/02/22-rdf-syntax-ns#"
   xmlns:svg="http://www.w3.org/2000/svg"
   xmlns="http://www.w3.org/2000/svg"
   id="svg8"
   version="1.1"
   viewBox="0 0 79.374998 79.375002"
   height="500"
   width="500">
  <defs
     id="defs2" />
  <metadata
     id="metadata5">
    <rdf:RDF>
      <cc:Work
         rdf:about="">
        <dc:format>image/svg+xml</dc:format>
        <dc:type
           rdf:resource="http://purl.org/dc/dcmitype/StillImage" />
        <dc:title></dc:title>
      </cc:Work>
    </rdf:RDF>
  </metadata>
  <g
     transform="translate(0,-217.62498)"
     id="layer1">
    <path
       d="m 17.767707,261.50388 q -0.816274,0.79076 -1.759208,1.1989 -0.928862,0.39538 -2.279935,0.39538 -1.421441,0 -2.575481,-0.61221 -1.1540421,-0.6122 -1.8155047,-1.65805 -0.6614626,-1.05859 -0.6614626,-2.32126 v -0.0255 q 0,-1.26267 0.6473886,-2.32127 0.6614626,-1.05859 1.8295787,-1.6708 1.182187,-0.62496 2.659923,-0.62496 1.308852,0 2.22364,0.35712 0.914787,0.34437 1.660692,1.02033 l -1.379219,1.44124 q -0.605168,-0.49742 -1.210336,-0.75251 -0.605167,-0.25508 -1.30885,-0.25508 -0.816274,0 -1.477736,0.38263 -0.647389,0.36987 -1.013304,1.00758 -0.365915,0.62495 -0.365915,1.39021 v 0.0255 q 0,0.76525 0.365915,1.41571 0.365915,0.63772 1.013304,1.02035 0.647389,0.36986 1.477736,0.36986 0.788125,0 1.365145,-0.25508 0.577021,-0.25509 1.22441,-0.79076 z"
       style="font-style:normal;font-variant:normal;font-weight:normal;font-stretch:normal;font-size:23.83333588px;line-height:1.25;font-family:HomepageBaukasten;-inkscape-font-specification:HomepageBaukasten;letter-spacing:0px;word-spacing:0px;fill:#000000;fill-opacity:1;stroke:#000000;stroke-width:0.67695105;stroke-miterlimit:4;stroke-dasharray:none;stroke-opacity:1"
       id="path825" />
    <path
       d="m 25.934394,260.94269 h -4.165807 l -0.900714,2.00242 h -2.209566 l 4.222101,-8.99173 h 1.998461 l 4.2221,8.99173 h -2.26586 z m -3.391755,-1.73458 h 2.617703 l -1.308851,-2.8952 z"
       style="font-style:normal;font-variant:normal;font-weight:normal;font-stretch:normal;font-size:23.83333588px;line-height:1.25;font-family:HomepageBaukasten;-inkscape-font-specification:HomepageBaukasten;letter-spacing:0px;word-spacing:0px;fill:#000000;fill-opacity:1;stroke:#000000;stroke-width:0.67695105;stroke-miterlimit:4;stroke-dasharray:none;stroke-opacity:1"
       id="path827" />
    <path
       d="m 37.591571,260.30498 q 0,1.30093 -0.999231,2.04068 -0.985157,0.72698 -2.617703,0.72698 -1.139967,0 -2.223639,-0.35711 -1.083673,-0.36987 -1.95624,-1.07135 l 1.280704,-1.39022 q 0.703684,0.52292 1.42144,0.80352 0.717757,0.28059 1.519956,0.28059 0.661463,0 1.041452,-0.21682 0.379989,-0.22958 0.379989,-0.62496 v -0.0255 q 0,-0.26784 -0.154811,-0.44639 -0.15481,-0.17856 -0.591093,-0.33161 -0.42221,-0.16581 -1.238483,-0.35712 -1.125894,-0.26784 -1.815504,-0.54843 -0.675535,-0.29334 -1.069598,-0.80352 -0.379989,-0.52292 -0.379989,-1.37746 v -0.0255 q 0,-0.80351 0.436283,-1.40296 0.450358,-0.6122 1.22441,-0.94381 0.788125,-0.34437 1.787355,-0.34437 2.096977,0 3.659154,1.13513 l -1.125893,1.47948 q -1.393293,-0.88003 -2.561408,-0.88003 -0.605167,0 -0.942935,0.21682 -0.323695,0.21683 -0.323695,0.56119 v 0.0255 q 0,0.29334 0.168884,0.48466 0.182958,0.17856 0.619242,0.33161 0.436283,0.15305 1.336998,0.35711 1.604398,0.38263 2.364376,0.98208 0.759979,0.58669 0.759979,1.69631 z"
       style="font-style:normal;font-variant:normal;font-weight:normal;font-stretch:normal;font-size:23.83333588px;line-height:1.25;font-family:HomepageBaukasten;-inkscape-font-specification:HomepageBaukasten;letter-spacing:0px;word-spacing:0px;fill:#000000;fill-opacity:1;stroke:#000000;stroke-width:0.67695105;stroke-miterlimit:4;stroke-dasharray:none;stroke-opacity:1"
       id="path829" />
    <path
       d="m 50.277445,254.01715 h 2.167345 v 8.92796 h -2.167345 z"
       style="font-style:normal;font-variant:normal;font-weight:normal;font-stretch:normal;font-size:23.83333588px;line-height:1.25;font-family:HomepageBaukasten;-inkscape-font-specification:HomepageBaukasten;letter-spacing:0px;word-spacing:0px;fill:#000000;fill-opacity:1;stroke:#000000;stroke-width:0.67695105;stroke-miterlimit:4;stroke-dasharray:none;stroke-opacity:1"
       id="path833" />
    <path
       d="m 57.074146,257.70313 h 4.700605 v 1.78558 h -4.700605 v 3.4564 H 54.9068 v -8.92796 h 7.501267 v 1.78559 h -5.333921 z"
       style="font-style:normal;font-variant:normal;font-weight:normal;font-stretch:normal;font-size:23.83333588px;line-height:1.25;font-family:HomepageBaukasten;-inkscape-font-specification:HomepageBaukasten;letter-spacing:0px;word-spacing:0px;fill:#000000;fill-opacity:1;stroke:#000000;stroke-width:0.67695105;stroke-miterlimit:4;stroke-dasharray:none;stroke-opacity:1"
       id="path835" />
    <path
       d="m 68.604004,262.94511 h -2.167346 v -7.11686 h -2.997692 v -1.8111 h 8.162729 v 1.8111 h -2.997691 z"
       style="font-style:normal;font-variant:normal;font-weight:normal;font-stretch:normal;font-size:23.83333588px;line-height:1.25;font-family:HomepageBaukasten;-inkscape-font-specification:HomepageBaukasten;letter-spacing:0px;word-spacing:0px;fill:#000000;fill-opacity:1;stroke:#000000;stroke-width:0.67695105;stroke-miterlimit:4;stroke-dasharray:none;stroke-opacity:1"
       id="path837" />
    <path
       id="path860"
       d="m 41.992124,257.21161 v -3.53299 H 39.14789 l 4.504266,-4.11898 4.504265,4.11898 h -2.844233 v 3.53299 z"
       style="fill:#000000;fill-opacity:1;stroke:none;stroke-width:0.1487333px;stroke-linecap:butt;stroke-linejoin:miter;stroke-opacity:1" />
    <path
       style="fill:#000000;fill-opacity:1;stroke:none;stroke-width:0.1487333px;stroke-linecap:butt;stroke-linejoin:miter;stroke-opacity:1"
       d="m 41.992124,259.75054 v 3.53299 H 39.14789 l 4.504266,4.11898 4.504265,-4.11898 h -2.844233 v -3.53299 z"
       id="path862" />
  </g>
</svg>
