<?xml version="1.0" encoding="UTF-8" standalone="no"?>
<svg
   xmlns:dc="http://purl.org/dc/elements/1.1/"
   xmlns:cc="http://creativecommons.org/ns#"
   xmlns:rdf="http://www.w3.org/1999/02/22-rdf-syntax-ns#"
   xmlns:svg="http://www.w3.org/2000/svg"
   xmlns="http://www.w3.org/2000/svg"
   width="500"
   height="500"
   viewBox="0 0 132.29167 132.29167"
   version="1.1"
   id="svg8">
  <defs
     id="defs2">
    <pattern
       y="0"
       x="0"
       height="6"
       width="6"
       patternUnits="userSpaceOnUse"
       id="EMFhbasepattern" />
    <pattern
       id="EMFhbasepattern-9"
       patternUnits="userSpaceOnUse"
       width="6"
       height="6"
       x="0"
       y="0" />
  </defs>
  <metadata
     id="metadata5">
    <rdf:RDF>
      <cc:Work
         rdf:about="">
        <dc:format>image/svg+xml</dc:format>
        <dc:type
           rdf:resource="http://purl.org/dc/dcmitype/StillImage" />
        <dc:title></dc:title>
      </cc:Work>
    </rdf:RDF>
  </metadata>
  <g
     id="layer2" />
  <g
     id="layer1"
     style="display:inline;opacity:1">
    <g
       transform="matrix(2.0376255,0,0,2.0376255,-53.615965,-474.35944)"
       id="g1617">
      <path
         id="path1217"
         style="font-style:normal;font-variant:normal;font-weight:bold;font-stretch:normal;font-size:21.7457px;line-height:1.25;font-family:Oswald;-inkscape-font-specification:'Oswald Bold';letter-spacing:0px;word-spacing:0px;fill:#000000;fill-opacity:1;stroke:none;stroke-width:0.384713"
         d="m 28.941436,267.90481 v -12.46466 h 5.6014 v 1.87739 h -2.846865 v 3.09308 h 2.169772 v 1.90818 h -2.169772 v 3.72401 h 2.877642 v 1.862 z" />
      <path
         id="path1222"
         style="font-style:normal;font-variant:normal;font-weight:bold;font-stretch:normal;font-size:21.7457px;line-height:1.25;font-family:Oswald;-inkscape-font-specification:'Oswald Bold';letter-spacing:0px;word-spacing:0px;fill:#000000;fill-opacity:1;stroke:none;stroke-width:0.384713"
         d="m 45.851841,267.90481 v -12.46466 h 5.601399 v 1.87739 h -2.846865 v 3.09308 h 2.169773 v 1.90818 h -2.169773 v 3.72401 h 2.877642 v 1.862 z" />
      <path
         id="path1224"
         style="font-style:normal;font-variant:normal;font-weight:bold;font-stretch:normal;font-size:21.7457px;line-height:1.25;font-family:Oswald;-inkscape-font-specification:'Oswald Bold';letter-spacing:0px;word-spacing:0px;fill:#000000;fill-opacity:1;stroke:none;stroke-width:0.384713"
         d="m 52.734571,267.90481 v -12.46466 h 3.431626 q 1.261853,0 2.185161,0.27699 0.923308,0.27699 1.431127,1.00025 0.523207,0.70787 0.523207,2.01589 0,0.76942 -0.123107,1.36957 -0.123108,0.60016 -0.461654,1.04642 -0.323157,0.43088 -0.938696,0.72326 l 1.708119,6.03228 h -2.846865 l -1.369573,-5.58601 h -0.784812 v 5.58601 z m 2.754533,-7.17103 h 0.769423 q 0.584762,0 0.90792,-0.20005 0.323157,-0.21544 0.446265,-0.60015 0.138496,-0.4001 0.138496,-0.95408 0,-0.8002 -0.292381,-1.24647 -0.29238,-0.44627 -1.077192,-0.44627 h -0.892531 z" />
      <path
         id="path1226"
         style="font-style:normal;font-variant:normal;font-weight:bold;font-stretch:normal;font-size:21.7457px;line-height:1.25;font-family:Oswald;-inkscape-font-specification:'Oswald Bold';letter-spacing:0px;word-spacing:0px;fill:#000000;fill-opacity:1;stroke:none;stroke-width:0.384713"
         d="m 61.961634,267.90481 v -12.46466 h 1.938947 l 2.554484,6.0015 v -6.0015 h 2.277492 v 12.46466 h -1.862004 l -2.554485,-6.46316 v 6.46316 z" />
      <path
         id="path1228"
         style="font-style:normal;font-variant:normal;font-weight:bold;font-stretch:normal;font-size:21.7457px;line-height:1.25;font-family:Oswald;-inkscape-font-specification:'Oswald Bold';letter-spacing:0px;word-spacing:0px;fill:#000000;fill-opacity:1;stroke:none;stroke-width:0.384713"
         d="m 70.602978,267.90481 v -12.46466 h 2.754534 v 12.46466 z" />
      <path
         id="path1230"
         style="font-style:normal;font-variant:normal;font-weight:bold;font-stretch:normal;font-size:21.7457px;line-height:1.25;font-family:Oswald;-inkscape-font-specification:'Oswald Bold';letter-spacing:0px;word-spacing:0px;fill:#000000;fill-opacity:1;stroke:none;stroke-width:0.384713"
         d="m 76.339507,267.90481 v -10.41799 h -1.877392 v -2.04667 h 6.509319 v 2.04667 h -1.862003 v 10.41799 z" />
      <path
         id="path1232"
         style="font-style:normal;font-variant:normal;font-weight:bold;font-stretch:normal;font-size:21.7457px;line-height:1.25;font-family:Oswald;-inkscape-font-specification:'Oswald Bold';letter-spacing:0px;word-spacing:0px;fill:#000000;fill-opacity:1;stroke:none;stroke-width:0.384713"
         d="m 83.638446,267.90481 v -5.09358 l -2.369823,-7.37108 h 2.60065 l 1.184911,3.93945 1.061804,-3.93945 h 2.492931 l -2.323658,7.37108 v 5.09358 z" />
      <path
         id="path1234"
         style="font-style:normal;font-variant:normal;font-weight:300;font-stretch:normal;font-size:14.2795px;line-height:1.25;font-family:Oswald;-inkscape-font-specification:'Oswald Light';letter-spacing:0px;word-spacing:0px;fill:#000000;fill-opacity:1;stroke:none;stroke-width:0.252625"
         d="m 61.679663,279.20305 v -8.18502 h 1.849208 q 0.767978,0 1.202491,0.25263 0.444618,0.24251 0.636613,0.71745 0.191994,0.46483 0.191994,1.11155 0,0.45472 -0.10105,0.85891 -0.10105,0.4042 -0.343569,0.68714 -0.242519,0.28295 -0.687137,0.37389 l 1.253015,4.18345 h -0.747767 l -1.20249,-4.02178 H 62.44764 v 4.02178 z m 0.767977,-4.58765 h 1.040811 q 0.515353,0 0.798292,-0.17179 0.282939,-0.17178 0.404199,-0.50525 0.121259,-0.33346 0.121259,-0.8387 0,-0.75788 -0.262729,-1.13176 -0.262729,-0.37389 -1.040811,-0.37389 H 62.44764 Z" />
      <path
         id="path1236"
         style="font-style:normal;font-variant:normal;font-weight:300;font-stretch:normal;font-size:14.2795px;line-height:1.25;font-family:Oswald;-inkscape-font-specification:'Oswald Light';letter-spacing:0px;word-spacing:0px;fill:#000000;fill-opacity:1;stroke:none;stroke-width:0.252625"
         d="m 66.840457,279.20305 v -8.18502 h 2.960754 v 0.5962 h -2.182672 v 3.07191 h 1.778474 v 0.56587 h -1.778474 v 3.37506 h 2.202882 v 0.57598 z" />
      <path
         id="path1238"
         style="font-style:normal;font-variant:normal;font-weight:300;font-stretch:normal;font-size:14.2795px;line-height:1.25;font-family:Oswald;-inkscape-font-specification:'Oswald Light';letter-spacing:0px;word-spacing:0px;fill:#000000;fill-opacity:1;stroke:none;stroke-width:0.252625"
         d="m 70.43214,279.20305 1.727949,-8.18502 h 0.808397 l 1.738054,8.18502 h -0.757873 l -0.404198,-2.19278 h -1.950258 l -0.414304,2.19278 z m 1.273225,-2.74855 h 1.738054 l -0.869027,-4.41587 z" />
      <path
         id="path1240"
         style="font-style:normal;font-variant:normal;font-weight:300;font-stretch:normal;font-size:14.2795px;line-height:1.25;font-family:Oswald;-inkscape-font-specification:'Oswald Light';letter-spacing:0px;word-spacing:0px;fill:#000000;fill-opacity:1;stroke:none;stroke-width:0.252625"
         d="m 75.692405,279.20305 v -8.18502 h 1.778474 q 0.858922,0 1.333855,0.30315 0.485039,0.29305 0.687138,0.83871 0.202099,0.54567 0.202099,1.26312 v 3.2538 q 0,0.75787 -0.202099,1.33385 -0.202099,0.56589 -0.666928,0.87914 -0.464828,0.31325 -1.28333,0.31325 z m 0.767978,-0.57598 h 1.030706 q 0.646718,0 0.949867,-0.26273 0.303148,-0.27283 0.383988,-0.73766 0.08084,-0.47493 0.08084,-1.07112 v -3.0517 q 0,-0.61641 -0.111154,-1.03071 -0.10105,-0.42441 -0.414304,-0.63662 -0.303149,-0.2223 -0.919552,-0.2223 h -1.000391 z" />
      <path
         id="path1242"
         style="font-style:normal;font-variant:normal;font-weight:300;font-stretch:normal;font-size:14.2795px;line-height:1.25;font-family:Oswald;-inkscape-font-specification:'Oswald Light';letter-spacing:0px;word-spacing:0px;fill:#000000;fill-opacity:1;stroke:none;stroke-width:0.252625"
         d="m 82.265526,279.20305 v -2.71823 l -1.849209,-5.46679 h 0.747768 l 1.475324,4.54723 1.414695,-4.54723 h 0.757873 l -1.798684,5.46679 v 2.71823 z" />
      <path
         id="path1244"
         style="font-style:normal;font-variant:normal;font-weight:300;font-stretch:normal;font-size:14.2795px;line-height:1.25;font-family:Oswald;-inkscape-font-specification:'Oswald Light';letter-spacing:0px;word-spacing:0px;fill:#000000;fill-opacity:1;stroke:none;stroke-width:0.252625"
         d="m 86.628345,276.87891 v -1.59658 H 85.21365 v -0.56588 h 1.414695 v -1.57638 h 0.555773 v 1.57638 h 1.4248 v 0.56588 h -1.4248 v 1.59658 z" />
      <path
         id="path1220"
         style="font-style:normal;font-variant:normal;font-weight:bold;font-stretch:normal;font-size:21.7457px;line-height:1.25;font-family:Oswald;-inkscape-font-specification:'Oswald Bold';letter-spacing:0px;word-spacing:0px;fill:#000000;fill-opacity:1;stroke:none;stroke-width:0.384713"
         d="m 38.835459,272.02335 v -5.54991 h -1.877391 v -2.04667 h 6.509317 v 2.04667 h -1.862003 v 5.54991 z" />
      <path
         d="m 40.21273,251.3216 c -1.900458,0 -3.430437,1.52997 -3.430437,3.43043 v 5.64673 c 0,1.90046 1.529979,3.43044 3.430437,3.43044 1.898044,0 3.426466,-1.52613 3.430351,-3.42321 H 40.17976 v -1.12797 h 3.463399 v -1.14414 H 40.17976 v -1.12795 h 3.463399 V 255.8618 H 40.17976 v -1.12797 h 3.463159 c -0.0097,-1.892 -1.535804,-3.41223 -3.430189,-3.41223 z"
         style="display:inline;fill:#000000;stroke-width:0.151516;stroke-linecap:round;paint-order:stroke fill markers"
         id="path1246" />
    </g>
  </g>
</svg>
