<?xml version="1.0" encoding="UTF-8" standalone="no"?>
<svg
   xmlns:dc="http://purl.org/dc/elements/1.1/"
   xmlns:cc="http://creativecommons.org/ns#"
   xmlns:rdf="http://www.w3.org/1999/02/22-rdf-syntax-ns#"
   xmlns:svg="http://www.w3.org/2000/svg"
   xmlns="http://www.w3.org/2000/svg"
   id="svg8"
   version="1.1"
   viewBox="0 0 132.29166 132.29167"
   height="500"
   width="500">
  <defs
     id="defs2" />
  <metadata
     id="metadata5">
    <rdf:RDF>
      <cc:Work
         rdf:about="">
        <dc:format>image/svg+xml</dc:format>
        <dc:type
           rdf:resource="http://purl.org/dc/dcmitype/StillImage" />
        <dc:title></dc:title>
      </cc:Work>
    </rdf:RDF>
  </metadata>
  <g
     style="display:inline"
     id="layer1">
    <g
       style="font-style:normal;font-weight:normal;font-size:27.3903px;line-height:1.25;font-family:sans-serif;letter-spacing:0px;word-spacing:0px;fill:#aa0000;fill-opacity:1;stroke:none;stroke-width:0.684755"
       id="text853"
       transform="scale(1.137731,0.87894235)"
       aria-label="7" />
  </g>
  <g
     style="display:inline;opacity:0.476309"
     id="layer2">
    <g
       aria-label="a"
       id="text903"
       style="font-style:normal;font-weight:normal;font-size:196.374px;line-height:1.25;font-family:sans-serif;letter-spacing:0px;word-spacing:0px;fill:#000000;fill-opacity:1;stroke:none;stroke-width:0.368201"
       transform="matrix(0.94637817,0,0,0.94637817,-2.2988049,-5.1384869)" />
  </g>
  <g
     style="opacity:0.999"
     id="layer4">
    <path
       d="m 40.27452,13.597378 c 0,0 -1.007102,10.071774 0.755509,12.841593 0,0 -6.043218,0.251967 -8.561233,-5.035868 0,0 -1.76302,9.064843 4.532021,12.338265 0,0 -5.791205,9.568413 -7.050214,13.345438 -1.259007,3.777025 -3.021836,12.086606 -5.28805,15.863631 -2.26622,3.777025 -9.064562,13.093774 -9.064562,13.093774 0,0 1.899194,9.300662 3.145544,10.636043 1.246349,1.335381 10.060125,2.670598 10.861352,2.04742 0.801228,-0.623176 6.05377,-11.662021 13.264825,-14.777908 7.211052,-3.115887 14.511165,-4.540311 18.784382,-11.662338 4.273216,-7.122028 4.54007,-16.470148 3.38274,-18.517732 0,0 3.383296,3.293956 4.006471,7.122046 0.623179,3.828089 -0.534394,7.211232 0.800987,9.614916 1.335378,2.403684 2.937753,3.383105 3.293856,4.451408 0.3561,1.068305 -0.97931,2.225421 -1.602486,2.403472 -0.623178,0.178049 -1.246346,1.424474 -0.979271,2.225704 0.267076,0.801227 1.246437,1.424202 1.246437,1.424202 0,0 -0.534131,1.958911 -1.958536,2.047936 0,0 1.307129,0.309512 1.118277,1.662948 0,0 -2.171393,1.384716 -1.79369,2.958476 0.377704,1.57376 0.566148,3.336568 -2.329571,3.90312 -2.895722,0.566555 -6.10594,-0.850167 -9.096087,-0.566891 -2.990146,0.283279 -14.69912,3.714329 -14.195514,14.919505 0,7.050442 2.995932,26.927932 11.053587,27.179732 9.777077,0.003 19.717221,-0.0624 29.549101,0 0,0 3.218627,-9.74283 4.186218,-11.11913 0.967592,-1.3763 2.014183,-2.28706 2.711551,-2.22166 0.886195,0.22414 1.237935,1.37245 1.317233,2.40916 0.0661,0.61984 -0.0087,2.18107 -0.467672,4.53926 -0.45898,2.3582 -1.110768,6.39237 -1.110768,6.39237 h 10.595733 c -0.73437,-3.61249 -2.302964,-5.82732 -2.516914,-8.85165 -0.21395,-3.02432 -0.105027,-2.61071 -0.133326,-2.8267 0.745929,-0.57288 1.49166,-1.04244 2.23759,-1.4087 0.74593,-0.37567 1.49166,-0.56328 2.23759,-0.56328 0.76481,0 1.35047,0.10294 1.75648,0.30954 0.40601,0.20663 0.71766,0.51188 0.93483,0.91571 0.19827,0.37566 0.3257,0.87817 0.3824,1.5074 0.0661,0.62923 0.0992,1.28184 0.0992,1.95802 l 0.5036,8.95966 h 13.7418 c 0,0 -8.66755,-6.98793 -10.38103,-9.77046 -1.71349,-2.78254 -1.61752,-3.78153 -2.44843,-4.824 -0.82147,-1.05184 -2.10065,-1.57768 -3.83801,-1.57768 -1.01031,0 -1.95929,0.20182 -2.84686,0.60565 -0.88756,0.39444 -1.869662,1.04248 -2.946071,1.94407 -0.36825,-0.79828 -0.929799,-1.42299 -1.685169,-1.87379 -0.745929,-0.45079 -1.657273,-0.67593 -2.733682,-0.67593 -0.934771,0 -1.817511,0.1927 -2.648416,0.57775 -0.82147,0.38505 -1.647492,0.92 -2.478402,1.60558 V 107.3808 H 82.852283 C 93.084683,98.060592 102.11038,84.910999 102.46969,68.741814 103.2251,34.748581 72.75687,26.691152 65.958224,26.691152 c -6.798646,0 -12.0866,0.251664 -12.0866,0.251664 0,0 -12.8417,-8.813008 -13.597104,-13.345438 z"
       style="fill:#000000;stroke:none;stroke-width:0.264583px;stroke-linecap:butt;stroke-linejoin:miter;stroke-opacity:1"
       id="path876" />
    <g
       style="font-style:normal;font-weight:normal;font-size:29.0063px;line-height:1.25;font-family:sans-serif;letter-spacing:0px;word-spacing:0px;fill:#000000;fill-opacity:1;stroke:none;stroke-width:0.725158"
       id="text898"
       aria-label="m" />
  </g>
</svg>
