<?xml version="1.0" encoding="UTF-8" standalone="no"?>
<svg
   xmlns:dc="http://purl.org/dc/elements/1.1/"
   xmlns:cc="http://creativecommons.org/ns#"
   xmlns:rdf="http://www.w3.org/1999/02/22-rdf-syntax-ns#"
   xmlns:svg="http://www.w3.org/2000/svg"
   xmlns="http://www.w3.org/2000/svg"
   id="svg8"
   version="1.1"
   viewBox="0 0 132.29166 132.29167"
   height="500"
   width="500">
  <defs
     id="defs2" />
  <metadata
     id="metadata5">
    <rdf:RDF>
      <cc:Work
         rdf:about="">
        <dc:format>image/svg+xml</dc:format>
        <dc:type
           rdf:resource="http://purl.org/dc/dcmitype/StillImage" />
        <dc:title></dc:title>
      </cc:Work>
    </rdf:RDF>
  </metadata>
  <g
     id="layer1">
    <g
       transform="matrix(1.6780065,0,0,1.6780065,34.090191,172.37812)"
       id="g1578">
      <path
         d="m 19.965417,-95.722847 c -2.255226,0.0091 -4.536133,1.04339 -8.222236,3.075265 l -8.144724,4.489649 -8.145238,4.489648 c -7.172899,4.141277 -8.144722,5.176404 -8.144722,12.643154 v 8.154024 8.153509 c 0,7.500345 0.626272,8.503166 8.144722,12.695349 l 8.145238,4.541324 8.144724,4.541843 c 7.065949,4.079527 9.132615,4.131999 16.289443,0 l 8.14524,-4.541843 8.144722,-4.541324 c 6.496854,-3.75096 8.144724,-5.605516 8.144724,-12.695349 v -8.153509 -8.154024 c 0,-6.933186 -1.192527,-8.810926 -8.144724,-12.643154 l -8.144722,-4.489648 -8.14524,-4.489649 c -3.582689,-2.068467 -5.81198,-3.084412 -8.067207,-3.075265 z m -0.0078,3.422531 c 2.020845,-0.0082 4.018161,0.901893 7.228501,2.755387 l 7.298777,4.02301 7.298264,4.023011 c 6.22966,3.433945 7.298262,5.116912 7.298262,11.32954 v 7.30653 7.306532 c 0,6.352993 -1.476621,8.014405 -7.298262,11.375532 l -7.298264,4.069519 -7.298777,4.069519 c -6.413031,3.702565 -8.264935,3.655547 -14.596525,0 l -7.298264,-4.069519 -7.298261,-4.069519 c -6.73707,-3.756494 -7.29878,-4.654691 -7.29878,-11.375532 v -7.306532 -7.30653 c 0,-6.690741 0.87135,-7.618661 7.29878,-11.32954 l 7.298261,-4.023011 7.298264,-4.02301 c 3.303013,-1.820704 5.347181,-2.74719 7.368024,-2.755387 z"
         style="fill:#f1dec0;fill-opacity:1;stroke:none;stroke-width:1;stroke-linecap:butt;stroke-linejoin:miter;stroke-miterlimit:4;stroke-dasharray:none;stroke-opacity:1"
         id="path1224" />
      <path
         d="m 10.674059,-93.182208 -8.144852,4.489648 -8.144851,4.489648 c -7.172903,4.141278 -8.144851,5.176662 -8.144851,12.643414 v 8.153765 8.153766 c 0,7.500345 0.626399,8.503037 8.144851,12.69522 l 8.144851,4.541454 8.144852,4.541453 c 7.065949,4.079527 9.132871,4.131999 16.289703,0 l 8.144851,-4.541453 8.144851,-4.541454 c 6.496854,-3.75096 8.144853,-5.605387 8.144853,-12.69522 v -8.153766 -8.153765 c 0,-6.933187 -1.192655,-8.811187 -8.144853,-12.643414 l -8.144851,-4.489648 -8.144851,-4.489648 c -7.165376,-4.136932 -8.917491,-4.063751 -16.289703,0 z"
         style="fill:none;stroke:#000000;stroke-width:1;stroke-linecap:butt;stroke-linejoin:miter;stroke-miterlimit:4;stroke-dasharray:none;stroke-opacity:1"
         id="path862" />
      <path
         id="path869"
         style="fill:none;stroke:#000000;stroke-width:0.396875;stroke-linecap:butt;stroke-linejoin:miter;stroke-miterlimit:4;stroke-dasharray:none;stroke-opacity:1"
         d="m 11.520545,-90.079283 -7.298366,4.023043 -7.298365,4.023044 c -6.42743,3.710879 -7.298364,4.638656 -7.298364,11.329396 v 7.306353 7.306353 c 0,6.720842 0.561298,7.619325 7.298364,11.375819 l 7.298365,4.069465 7.298366,4.069465 c 6.331592,3.655546 8.183701,3.702564 14.596731,0 l 7.298365,-4.069465 7.298366,-4.069465 c 5.82164,-3.361127 7.298364,-5.022825 7.298364,-11.375819 v -7.306353 -7.306353 c 0,-6.212627 -1.068703,-7.895449 -7.298364,-11.329396 l -7.298366,-4.023044 -7.298365,-4.023043 c -6.420686,-3.706985 -7.990705,-3.64141 -14.596731,0 z" />
      <ellipse
         ry="3.6081386"
         rx="7.8844514"
         cy="-84.810875"
         cx="18.818913"
         id="path871"
         style="fill:#000000;stroke:none;stroke-width:0.361785;stroke-linecap:round;stroke-linejoin:round;stroke-miterlimit:4;stroke-dasharray:none;paint-order:stroke fill markers" />
      <ellipse
         style="fill:#000000;stroke:none;stroke-width:0.361785;stroke-linecap:round;stroke-linejoin:round;stroke-miterlimit:4;stroke-dasharray:none;paint-order:stroke fill markers"
         id="ellipse873"
         cx="18.818913"
         cy="-41.245937"
         rx="7.8844514"
         ry="3.6081386" />
      <g
         transform="translate(59.255554,-31.281662)"
         id="g1197">
        <path
           id="path1071"
           style="color:#000000;font-style:normal;font-variant:normal;font-weight:normal;font-stretch:normal;font-size:medium;line-height:normal;font-family:sans-serif;font-variant-ligatures:normal;font-variant-position:normal;font-variant-caps:normal;font-variant-numeric:normal;font-variant-alternates:normal;font-variant-east-asian:normal;font-feature-settings:normal;font-variation-settings:normal;text-indent:0;text-align:start;text-decoration:none;text-decoration-line:none;text-decoration-style:solid;text-decoration-color:#000000;letter-spacing:normal;word-spacing:normal;text-transform:none;writing-mode:lr-tb;direction:ltr;text-orientation:mixed;dominant-baseline:auto;baseline-shift:baseline;text-anchor:start;white-space:normal;shape-padding:0;shape-margin:0;inline-size:0;clip-rule:nonzero;display:inline;overflow:visible;visibility:visible;isolation:auto;mix-blend-mode:normal;color-interpolation:sRGB;color-interpolation-filters:linearRGB;solid-color:#000000;solid-opacity:1;vector-effect:none;fill:#f1dec0;fill-opacity:1;fill-rule:nonzero;stroke:none;stroke-width:0.3;stroke-linecap:round;stroke-linejoin:round;stroke-miterlimit:4;stroke-dasharray:none;stroke-dashoffset:0;stroke-opacity:1;paint-order:stroke fill markers;color-rendering:auto;image-rendering:auto;shape-rendering:auto;text-rendering:auto;enable-background:accumulate;stop-color:#000000"
           d="m -40.362905,-36.157388 c -0.48967,-0.0077 -1.007317,0.01297 -1.554943,0.06563 l 0.0021,0.183967 c -5.29e-4,4.3e-5 -5.29e-4,5.3e-4 -0.0011,5.3e-4 l -0.0011,-0.184484 c 0,0 -1.676009,-0.166703 -3.57291,1.005623 -0.917077,-0.536831 -1.967957,-0.887163 -3.129523,-0.856795 -2.59203,0.06776 -5.136015,1.073375 -7.040914,2.361613 -0.95245,0.644115 -1.745769,1.358463 -2.30477,2.070158 -0.559001,0.711687 -0.888317,1.421069 -0.888317,2.066539 0,0.653216 0.551751,1.645946 1.299662,2.372466 0.7479,0.726519 1.865323,1.456647 3.370853,2.111499 3.011061,1.309703 7.573536,2.314586 13.820346,2.314586 6.241703,0 11.334183,-0.684702 14.881262,-1.814875 1.773539,-0.565087 3.160876,-1.23987 4.114993,-2.00763 0.954119,-0.767762 1.480529,-1.640652 1.480529,-2.574004 0,-2.141675 -1.152483,-3.782793 -3.199286,-4.857583 -1.959145,-1.028761 -5.702986,-1.768697 -9.211842,-1.83038 -0.130397,-0.01418 -0.279929,-0.02183 -0.470255,-0.0062 -0.57454,0.04717 -1.423757,0.284776 -2.566252,1.004591 -1.199467,-0.790003 -2.829425,-1.390822 -5.028633,-1.425236 z" />
        <g
           id="g1069"
           transform="translate(-3.96875,-86.934524)"
           style="fill:#000000">
          <path
             id="path1004"
             d="m -39.4375,50.398438 c -0.116418,0.01226 -0.174561,0.147196 -0.103516,0.240234 0,0 0.789129,1.047567 1.285157,2.359375 0.248013,0.655904 0.420166,1.37485 0.388671,2.052734 -0.02791,0.600632 -0.295692,1.139749 -0.728515,1.625 -0.08898,-0.237103 -0.526551,-1.472611 -1.646485,-2.929687 -1.22279,-1.590897 -3.281091,-3.450958 -5.899464,-3.382505 -2.592037,0.06777 -5.136116,1.073093 -7.041016,2.361329 -0.95245,0.644117 -1.74569,1.358618 -2.304687,2.070312 -0.558998,0.711694 -0.888672,1.420937 -0.888672,2.066406 0,0.653216 0.551952,1.64622 1.299855,2.372739 0.747903,0.726519 1.865566,1.456476 3.371094,2.111328 3.011057,1.309704 7.573506,2.314453 13.820312,2.314453 6.241703,0 11.333782,-0.684279 14.88086,-1.814453 1.773539,-0.565087 3.161116,-1.240051 4.115234,-2.007812 0.954118,-0.767761 1.480469,-1.640868 1.480469,-2.574219 0,-2.141677 -1.152415,-3.78263 -3.199219,-4.857422 -2.046804,-1.074792 -6.042409,-1.83676 -9.682,-1.83676 -0.111559,-3.24e-4 0.872571,0.34624 0.922234,0.446135 0,0 0.465893,0.918016 0.632813,2.025391 0.08346,0.553687 0.0918,1.151579 -0.06445,1.699218 -0.134599,0.471736 -0.466413,0.875146 -0.904297,1.230469 -0.07671,-0.38498 -0.360772,-1.614073 -1.521484,-2.960937 -1.356578,-1.574142 -3.834029,-3.216329 -8.215053,-2.795076 z m 0.265625,0.298828 c 4.138628,-0.332615 6.447975,1.030967 7.720703,2.507812 1.299414,1.50781 1.535156,3.111328 1.535156,3.111328 0.01608,0.108229 0.138884,0.163386 0.230469,0.103516 0.639571,-0.42054 1.370666,-1.092922 1.543277,-1.697882 0.172611,-0.604961 0.160025,-1.242011 0.07227,-1.824219 -0.156113,-1.035676 -0.172117,-1.514525 -0.259115,-1.693825 3.504296,0.02213 5.268866,0.61654 7.205049,1.633244 1.977967,1.038645 3.415086,2.390674 3.415086,4.426432 0,0.821279 -0.457049,1.607472 -1.367188,2.339844 -0.910139,0.732371 -2.266988,1.399256 -4.017578,1.957031 -3.501181,1.11555 -8.571276,1.798828 -14.791016,1.798828 -6.214634,0 -10.64593,-1.306394 -13.606678,-2.594215 -1.480373,-0.643911 -2.66306,-1.053322 -3.375744,-1.745629 -0.712683,-0.692306 -1.042968,-1.357832 -1.042968,-1.890625 0,-0.540539 0.292079,-1.200872 0.826172,-1.880859 0.534093,-0.679987 1.305363,-1.378224 2.236328,-2.007813 1.86193,-1.259177 4.361366,-2.242724 6.880859,-2.308593 2.493157,-0.06518 4.295341,1.448527 5.486328,2.998047 1.190988,1.549519 1.751953,3.115234 1.751953,3.115234 0.03552,0.102554 0.164818,0.134621 0.244141,0.06055 0.622921,-0.579053 1.013619,-1.279583 1.047898,-2.017392 0.03428,-0.737809 -0.04698,-1.550417 -0.304271,-2.230861 -0.46381,-1.226604 -1.296241,-1.975888 -1.431127,-2.15995 z"
             style="color:#000000;font-style:normal;font-variant:normal;font-weight:normal;font-stretch:normal;font-size:medium;line-height:normal;font-family:sans-serif;font-variant-ligatures:normal;font-variant-position:normal;font-variant-caps:normal;font-variant-numeric:normal;font-variant-alternates:normal;font-variant-east-asian:normal;font-feature-settings:normal;font-variation-settings:normal;text-indent:0;text-align:start;text-decoration:none;text-decoration-line:none;text-decoration-style:solid;text-decoration-color:#000000;letter-spacing:normal;word-spacing:normal;text-transform:none;writing-mode:lr-tb;direction:ltr;text-orientation:mixed;dominant-baseline:auto;baseline-shift:baseline;text-anchor:start;white-space:normal;shape-padding:0;shape-margin:0;inline-size:0;clip-rule:nonzero;display:inline;overflow:visible;visibility:visible;opacity:1;isolation:auto;mix-blend-mode:normal;color-interpolation:sRGB;color-interpolation-filters:linearRGB;solid-color:#000000;solid-opacity:1;vector-effect:none;fill:#000000;fill-opacity:1;fill-rule:nonzero;stroke:none;stroke-width:0.3;stroke-linecap:round;stroke-linejoin:round;stroke-miterlimit:4;stroke-dasharray:none;stroke-dashoffset:0;stroke-opacity:1;paint-order:stroke fill markers;color-rendering:auto;image-rendering:auto;shape-rendering:auto;text-rendering:auto;enable-background:accumulate;stop-color:#000000;stop-opacity:1" />
          <path
             id="path1008"
             d="m -39.439659,50.21469 c 0,0 -1.693838,-0.170111 -3.603516,1.023437 l 0.191613,0.439607 c 1.832092,-1.145056 3.414062,-0.980468 3.414062,-0.980468 z"
             style="color:#000000;font-style:normal;font-variant:normal;font-weight:normal;font-stretch:normal;font-size:medium;line-height:normal;font-family:sans-serif;font-variant-ligatures:normal;font-variant-position:normal;font-variant-caps:normal;font-variant-numeric:normal;font-variant-alternates:normal;font-variant-east-asian:normal;font-feature-settings:normal;font-variation-settings:normal;text-indent:0;text-align:start;text-decoration:none;text-decoration-line:none;text-decoration-style:solid;text-decoration-color:#000000;letter-spacing:normal;word-spacing:normal;text-transform:none;writing-mode:lr-tb;direction:ltr;text-orientation:mixed;dominant-baseline:auto;baseline-shift:baseline;text-anchor:start;white-space:normal;shape-padding:0;shape-margin:0;inline-size:0;clip-rule:nonzero;display:inline;overflow:visible;visibility:visible;opacity:1;isolation:auto;mix-blend-mode:normal;color-interpolation:sRGB;color-interpolation-filters:linearRGB;solid-color:#000000;solid-opacity:1;vector-effect:none;fill:#000000;fill-opacity:1;fill-rule:nonzero;stroke:none;stroke-width:0.3;stroke-linecap:butt;stroke-linejoin:miter;stroke-miterlimit:4;stroke-dasharray:none;stroke-dashoffset:0;stroke-opacity:1;paint-order:stroke fill markers;color-rendering:auto;image-rendering:auto;shape-rendering:auto;text-rendering:auto;enable-background:accumulate;stop-color:#000000;stop-opacity:1" />
          <path
             id="path1012"
             d="m -30.289422,50.56949 c -0.588596,0.04832 -1.46316,0.292724 -2.648437,1.054687 l 0.379265,0.385589 c 1.15333,-0.741426 1.981123,-0.964256 2.511719,-1.007813 0.265298,-0.02178 0.455656,7e-4 0.578125,0.02734 0.122469,0.02664 0.166016,0.05078 0.166016,0.05078 l 0.140625,-0.263672 c 0,0 -0.308278,-0.180848 -0.459344,-0.213713 -0.151065,-0.03287 -0.373671,-0.05736 -0.667969,-0.0332 z"
             style="color:#000000;font-style:normal;font-variant:normal;font-weight:normal;font-stretch:normal;font-size:medium;line-height:normal;font-family:sans-serif;font-variant-ligatures:normal;font-variant-position:normal;font-variant-caps:normal;font-variant-numeric:normal;font-variant-alternates:normal;font-variant-east-asian:normal;font-feature-settings:normal;font-variation-settings:normal;text-indent:0;text-align:start;text-decoration:none;text-decoration-line:none;text-decoration-style:solid;text-decoration-color:#000000;letter-spacing:normal;word-spacing:normal;text-transform:none;writing-mode:lr-tb;direction:ltr;text-orientation:mixed;dominant-baseline:auto;baseline-shift:baseline;text-anchor:start;white-space:normal;shape-padding:0;shape-margin:0;inline-size:0;clip-rule:nonzero;display:inline;overflow:visible;visibility:visible;opacity:1;isolation:auto;mix-blend-mode:normal;color-interpolation:sRGB;color-interpolation-filters:linearRGB;solid-color:#000000;solid-opacity:1;vector-effect:none;fill:#000000;fill-opacity:1;fill-rule:nonzero;stroke:none;stroke-width:0.3;stroke-linecap:butt;stroke-linejoin:miter;stroke-miterlimit:4;stroke-dasharray:none;stroke-dashoffset:0;stroke-opacity:1;paint-order:stroke fill markers;color-rendering:auto;image-rendering:auto;shape-rendering:auto;text-rendering:auto;enable-background:accumulate;stop-color:#000000;stop-opacity:1" />
          <path
             d="m -40.925648,51.78347 a 0.30067819,0.30067819 0 0 1 -0.300678,0.300678 0.30067819,0.30067819 0 0 1 -0.300678,-0.300678 0.30067819,0.30067819 0 0 1 0.300678,-0.300678 0.30067819,0.30067819 0 0 1 0.300678,0.300678 z"
             style="opacity:1;fill:#000000;stroke:none;stroke-width:0.3;stroke-linecap:round;stroke-linejoin:round;stroke-miterlimit:4;stroke-dasharray:none;paint-order:stroke fill markers"
             id="path937" />
          <path
             d="m -39.656117,51.683243 a 0.30067819,0.30067819 0 0 1 -0.300678,0.300678 0.30067819,0.30067819 0 0 1 -0.300678,-0.300678 0.30067819,0.30067819 0 0 1 0.300678,-0.300678 0.30067819,0.30067819 0 0 1 0.300678,0.300678"
             style="opacity:1;fill:#000000;stroke:none;stroke-width:0.3;stroke-linecap:round;stroke-linejoin:round;stroke-miterlimit:4;stroke-dasharray:none;paint-order:stroke fill markers"
             id="circle939" />
          <path
             d="m -39.689526,52.01733 a 0.30067819,0.30067819 0 0 1 -0.300678,0.300678 0.30067819,0.30067819 0 0 1 -0.300678,-0.300678 0.30067819,0.30067819 0 0 1 0.300678,-0.300678 0.30067819,0.30067819 0 0 1 0.300678,0.300678"
             style="opacity:1;fill:#000000;stroke:none;stroke-width:0.3;stroke-linecap:round;stroke-linejoin:round;stroke-miterlimit:4;stroke-dasharray:none;paint-order:stroke fill markers"
             id="circle941" />
          <path
             d="m -38.887718,52.48505 a 0.30067819,0.30067819 0 0 1 -0.300678,0.300678 0.30067819,0.30067819 0 0 1 -0.300679,-0.300678 0.30067819,0.30067819 0 0 1 0.300679,-0.300678 0.30067819,0.30067819 0 0 1 0.300678,0.300678"
             style="opacity:1;fill:#000000;stroke:none;stroke-width:0.3;stroke-linecap:round;stroke-linejoin:round;stroke-miterlimit:4;stroke-dasharray:none;paint-order:stroke fill markers"
             id="circle943" />
          <path
             d="m -39.522484,53.387085 a 0.30067819,0.30067819 0 0 1 -0.300678,0.300678 0.30067819,0.30067819 0 0 1 -0.300678,-0.300678 0.30067819,0.30067819 0 0 1 0.300678,-0.300678 0.30067819,0.30067819 0 0 1 0.300678,0.300678"
             style="opacity:1;fill:#000000;stroke:none;stroke-width:0.3;stroke-linecap:round;stroke-linejoin:round;stroke-miterlimit:4;stroke-dasharray:none;paint-order:stroke fill markers"
             id="circle945" />
          <path
             d="m -38.386589,53.487312 a 0.30067819,0.30067819 0 0 1 -0.300678,0.300679 0.30067819,0.30067819 0 0 1 -0.300678,-0.300679 0.30067819,0.30067819 0 0 1 0.300678,-0.300678 0.30067819,0.30067819 0 0 1 0.300678,0.300678"
             style="opacity:1;fill:#000000;stroke:none;stroke-width:0.3;stroke-linecap:round;stroke-linejoin:round;stroke-miterlimit:4;stroke-dasharray:none;paint-order:stroke fill markers"
             id="circle947" />
          <path
             d="m -38.887718,54.322529 a 0.30067819,0.30067819 0 0 1 -0.300678,0.300678 0.30067819,0.30067819 0 0 1 -0.300679,-0.300678 0.30067819,0.30067819 0 0 1 0.300679,-0.300678 0.30067819,0.30067819 0 0 1 0.300678,0.300678"
             style="opacity:1;fill:#000000;stroke:none;stroke-width:0.3;stroke-linecap:round;stroke-linejoin:round;stroke-miterlimit:4;stroke-dasharray:none;paint-order:stroke fill markers"
             id="circle949" />
          <path
             d="m -37.852047,54.456165 a 0.30067819,0.30067819 0 0 1 -0.300678,0.300679 0.30067819,0.30067819 0 0 1 -0.300678,-0.300679 0.30067819,0.30067819 0 0 1 0.300678,-0.300678 0.30067819,0.30067819 0 0 1 0.300678,0.300678"
             style="opacity:1;fill:#000000;stroke:none;stroke-width:0.3;stroke-linecap:round;stroke-linejoin:round;stroke-miterlimit:4;stroke-dasharray:none;paint-order:stroke fill markers"
             id="circle951" />
          <path
             d="m -38.419994,55.024113 a 0.30067819,0.30067819 0 0 1 -0.300679,0.300678 0.30067819,0.30067819 0 0 1 -0.300678,-0.300678 0.30067819,0.30067819 0 0 1 0.300678,-0.300678 0.30067819,0.30067819 0 0 1 0.300679,0.300678"
             style="opacity:1;fill:#000000;stroke:none;stroke-width:0.3;stroke-linecap:round;stroke-linejoin:round;stroke-miterlimit:4;stroke-dasharray:none;paint-order:stroke fill markers"
             id="circle953" />
          <path
             d="m -37.75182,55.625469 a 0.30067819,0.30067819 0 0 1 -0.300678,0.300678 0.30067819,0.30067819 0 0 1 -0.300678,-0.300678 0.30067819,0.30067819 0 0 1 0.300678,-0.300678 0.30067819,0.30067819 0 0 1 0.300678,0.300678"
             style="opacity:1;fill:#000000;stroke:none;stroke-width:0.3;stroke-linecap:round;stroke-linejoin:round;stroke-miterlimit:4;stroke-dasharray:none;paint-order:stroke fill markers"
             id="circle955" />
          <path
             d="m -30.769404,52.284599 a 0.30067819,0.30067819 0 0 1 -0.300678,0.300678 0.30067819,0.30067819 0 0 1 -0.300678,-0.300678 0.30067819,0.30067819 0 0 1 0.300678,-0.300678 0.30067819,0.30067819 0 0 1 0.300678,0.300678"
             style="opacity:1;fill:#000000;stroke:none;stroke-width:0.3;stroke-linecap:round;stroke-linejoin:round;stroke-miterlimit:4;stroke-dasharray:none;paint-order:stroke fill markers"
             id="circle957" />
          <path
             d="m -29.6001,52.01733 a 0.30067819,0.30067819 0 0 1 -0.300678,0.300678 0.30067819,0.30067819 0 0 1 -0.300678,-0.300678 0.30067819,0.30067819 0 0 1 0.300678,-0.300678 0.30067819,0.30067819 0 0 1 0.300678,0.300678"
             style="opacity:1;fill:#000000;stroke:none;stroke-width:0.3;stroke-linecap:round;stroke-linejoin:round;stroke-miterlimit:4;stroke-dasharray:none;paint-order:stroke fill markers"
             id="circle959" />
          <path
             d="m -29.299421,52.785728 a 0.30067819,0.30067819 0 0 1 -0.300679,0.300679 0.30067819,0.30067819 0 0 1 -0.300678,-0.300679 0.30067819,0.30067819 0 0 1 0.300678,-0.300678 0.30067819,0.30067819 0 0 1 0.300679,0.300678"
             style="opacity:1;fill:#000000;stroke:none;stroke-width:0.3;stroke-linecap:round;stroke-linejoin:round;stroke-miterlimit:4;stroke-dasharray:none;paint-order:stroke fill markers"
             id="circle961" />
          <path
             d="m -29.967596,53.119816 a 0.30067819,0.30067819 0 0 1 -0.300678,0.300678 0.30067819,0.30067819 0 0 1 -0.300679,-0.300678 0.30067819,0.30067819 0 0 1 0.300679,-0.300678 0.30067819,0.30067819 0 0 1 0.300678,0.300678"
             style="opacity:1;fill:#000000;stroke:none;stroke-width:0.3;stroke-linecap:round;stroke-linejoin:round;stroke-miterlimit:4;stroke-dasharray:none;paint-order:stroke fill markers"
             id="circle963" />
          <path
             d="m -28.965336,53.587536 a 0.30067819,0.30067819 0 0 1 -0.300678,0.300678 0.30067819,0.30067819 0 0 1 -0.300678,-0.300678 0.30067819,0.30067819 0 0 1 0.300678,-0.300678 0.30067819,0.30067819 0 0 1 0.300678,0.300678"
             style="opacity:1;fill:#000000;stroke:none;stroke-width:0.3;stroke-linecap:round;stroke-linejoin:round;stroke-miterlimit:4;stroke-dasharray:none;paint-order:stroke fill markers"
             id="circle965" />
          <path
             d="m -28.831701,54.690022 a 0.30067819,0.30067819 0 0 1 -0.300679,0.300678 0.30067819,0.30067819 0 0 1 -0.300678,-0.300678 0.30067819,0.30067819 0 0 1 0.300678,-0.300679 0.30067819,0.30067819 0 0 1 0.300679,0.300679"
             style="opacity:1;fill:#000000;stroke:none;stroke-width:0.3;stroke-linecap:round;stroke-linejoin:round;stroke-miterlimit:4;stroke-dasharray:none;paint-order:stroke fill markers"
             id="circle967" />
          <path
             d="m -29.499876,55.024109 a 0.30067819,0.30067819 0 0 1 -0.300678,0.300678 0.30067819,0.30067819 0 0 1 -0.300678,-0.300678 0.30067819,0.30067819 0 0 1 0.300678,-0.300678 0.30067819,0.30067819 0 0 1 0.300678,0.300678"
             style="opacity:1;fill:#000000;stroke:none;stroke-width:0.3;stroke-linecap:round;stroke-linejoin:round;stroke-miterlimit:4;stroke-dasharray:none;paint-order:stroke fill markers"
             id="circle969" />
          <path
             id="path1016"
             d="m -49.695314,51.580081 c -0.0018,0.136007 0.03283,0.321706 0.162109,0.515625 0.258559,0.387839 0.560189,0.727911 1.950706,0.991629 0.08146,0.01573 0.467325,0.03322 0.482888,-0.04827 0.01573,-0.08146 -0.167579,-0.0421 -0.24907,-0.05766 -1.349808,-0.255997 -1.744236,-0.766279 -1.934524,-1.051711 -0.09514,-0.142717 -0.126869,-0.262815 -0.113281,-0.345704 l 0.01953,-0.11914 z"
             style="color:#000000;font-style:normal;font-variant:normal;font-weight:normal;font-stretch:normal;font-size:medium;line-height:normal;font-family:sans-serif;font-variant-ligatures:normal;font-variant-position:normal;font-variant-caps:normal;font-variant-numeric:normal;font-variant-alternates:normal;font-variant-east-asian:normal;font-feature-settings:normal;font-variation-settings:normal;text-indent:0;text-align:start;text-decoration:none;text-decoration-line:none;text-decoration-style:solid;text-decoration-color:#000000;letter-spacing:normal;word-spacing:normal;text-transform:none;writing-mode:lr-tb;direction:ltr;text-orientation:mixed;dominant-baseline:auto;baseline-shift:baseline;text-anchor:start;white-space:normal;shape-padding:0;shape-margin:0;inline-size:0;clip-rule:nonzero;display:inline;overflow:visible;visibility:visible;opacity:1;isolation:auto;mix-blend-mode:normal;color-interpolation:sRGB;color-interpolation-filters:linearRGB;solid-color:#000000;solid-opacity:1;vector-effect:none;fill:#000000;fill-opacity:1;fill-rule:nonzero;stroke:none;stroke-width:0.3;stroke-linecap:round;stroke-linejoin:round;stroke-miterlimit:4;stroke-dasharray:none;stroke-dashoffset:0;stroke-opacity:1;paint-order:stroke fill markers;color-rendering:auto;image-rendering:auto;shape-rendering:auto;text-rendering:auto;enable-background:accumulate;stop-color:#000000;stop-opacity:1" />
          <path
             id="path1020"
             d="m -50.84375,51.869141 c -0.04666,0.0015 -0.08998,0.02457 -0.117188,0.0625 0,0 -0.366219,0.537678 -0.03125,1.140625 0.33497,0.602946 0.846308,1.101264 3.322638,1.434616 0.08264,0.0118 0.607868,0.07198 0.618769,-0.01079 0.01062,-0.08194 -0.271435,-0.10979 -0.35333,-0.120722 -2.43736,-0.328107 -3.07074,-0.989478 -3.326358,-1.449591 -0.255618,-0.460112 0.01563,-0.820312 0.01563,-0.820312 0.04791,-0.06744 0.03219,-0.160936 -0.03516,-0.208985 -0.02732,-0.01932 -0.06032,-0.02894 -0.09375,-0.02734 z"
             style="color:#000000;font-style:normal;font-variant:normal;font-weight:normal;font-stretch:normal;font-size:medium;line-height:normal;font-family:sans-serif;font-variant-ligatures:normal;font-variant-position:normal;font-variant-caps:normal;font-variant-numeric:normal;font-variant-alternates:normal;font-variant-east-asian:normal;font-feature-settings:normal;font-variation-settings:normal;text-indent:0;text-align:start;text-decoration:none;text-decoration-line:none;text-decoration-style:solid;text-decoration-color:#000000;letter-spacing:normal;word-spacing:normal;text-transform:none;writing-mode:lr-tb;direction:ltr;text-orientation:mixed;dominant-baseline:auto;baseline-shift:baseline;text-anchor:start;white-space:normal;shape-padding:0;shape-margin:0;inline-size:0;clip-rule:nonzero;display:inline;overflow:visible;visibility:visible;opacity:1;isolation:auto;mix-blend-mode:normal;color-interpolation:sRGB;color-interpolation-filters:linearRGB;solid-color:#000000;solid-opacity:1;vector-effect:none;fill:#000000;fill-opacity:1;fill-rule:nonzero;stroke:none;stroke-width:0.3;stroke-linecap:round;stroke-linejoin:round;stroke-miterlimit:4;stroke-dasharray:none;stroke-dashoffset:0;stroke-opacity:1;paint-order:stroke fill markers;color-rendering:auto;image-rendering:auto;shape-rendering:auto;text-rendering:auto;enable-background:accumulate;stop-color:#000000;stop-opacity:1" />
          <path
             id="path1024"
             d="m -51.912109,52.388672 c -0.07043,-0.0061 -0.135524,0.03789 -0.15625,0.105469 0,0 -0.226959,0.770713 0.292968,1.628906 0.519927,0.858193 1.314531,1.655414 4.150763,2.108259 0.08202,0.01311 0.607919,0.09881 0.620722,0.01674 0.01311,-0.08202 -0.208298,-0.0882 -0.290365,-0.101004 -2.786164,-0.444851 -3.764812,-1.420229 -4.22526,-2.180246 -0.460449,-0.760018 -0.261719,-1.384766 -0.261719,-1.384766 0.02435,-0.07929 -0.02028,-0.16329 -0.09961,-0.1875 -0.01018,-0.0031 -0.02065,-0.005 -0.03125,-0.0059 z"
             style="color:#000000;font-style:normal;font-variant:normal;font-weight:normal;font-stretch:normal;font-size:medium;line-height:normal;font-family:sans-serif;font-variant-ligatures:normal;font-variant-position:normal;font-variant-caps:normal;font-variant-numeric:normal;font-variant-alternates:normal;font-variant-east-asian:normal;font-feature-settings:normal;font-variation-settings:normal;text-indent:0;text-align:start;text-decoration:none;text-decoration-line:none;text-decoration-style:solid;text-decoration-color:#000000;letter-spacing:normal;word-spacing:normal;text-transform:none;writing-mode:lr-tb;direction:ltr;text-orientation:mixed;dominant-baseline:auto;baseline-shift:baseline;text-anchor:start;white-space:normal;shape-padding:0;shape-margin:0;inline-size:0;clip-rule:nonzero;display:inline;overflow:visible;visibility:visible;opacity:1;isolation:auto;mix-blend-mode:normal;color-interpolation:sRGB;color-interpolation-filters:linearRGB;solid-color:#000000;solid-opacity:1;vector-effect:none;fill:#000000;fill-opacity:1;fill-rule:nonzero;stroke:none;stroke-width:0.3;stroke-linecap:round;stroke-linejoin:round;stroke-miterlimit:4;stroke-dasharray:none;stroke-dashoffset:0;stroke-opacity:1;paint-order:stroke fill markers;color-rendering:auto;image-rendering:auto;shape-rendering:auto;text-rendering:auto;enable-background:accumulate;stop-color:#000000;stop-opacity:1" />
          <path
             id="path1028"
             d="m -52.878906,52.955078 c -0.04666,0.003 -0.08927,0.02752 -0.115235,0.06641 0,0 -0.52671,0.822722 0.08594,1.789063 0.612647,0.966341 1.683996,1.840969 5.930803,2.57645 0.08141,0.01445 0.761565,0.172895 0.776228,0.09152 0.01437,-0.08206 -0.288924,-0.160108 -0.371094,-0.173828 -4.210412,-0.729178 -5.548938,-1.81344 -6.082031,-2.654297 -0.533093,-0.840858 -0.08984,-1.460938 -0.08984,-1.460938 0.04673,-0.06896 0.02832,-0.162799 -0.04102,-0.208984 -0.02757,-0.01863 -0.06055,-0.02756 -0.09375,-0.02539 z"
             style="color:#000000;font-style:normal;font-variant:normal;font-weight:normal;font-stretch:normal;font-size:medium;line-height:normal;font-family:sans-serif;font-variant-ligatures:normal;font-variant-position:normal;font-variant-caps:normal;font-variant-numeric:normal;font-variant-alternates:normal;font-variant-east-asian:normal;font-feature-settings:normal;font-variation-settings:normal;text-indent:0;text-align:start;text-decoration:none;text-decoration-line:none;text-decoration-style:solid;text-decoration-color:#000000;letter-spacing:normal;word-spacing:normal;text-transform:none;writing-mode:lr-tb;direction:ltr;text-orientation:mixed;dominant-baseline:auto;baseline-shift:baseline;text-anchor:start;white-space:normal;shape-padding:0;shape-margin:0;inline-size:0;clip-rule:nonzero;display:inline;overflow:visible;visibility:visible;opacity:1;isolation:auto;mix-blend-mode:normal;color-interpolation:sRGB;color-interpolation-filters:linearRGB;solid-color:#000000;solid-opacity:1;vector-effect:none;fill:#000000;fill-opacity:1;fill-rule:nonzero;stroke:none;stroke-width:0.3;stroke-linecap:round;stroke-linejoin:round;stroke-miterlimit:4;stroke-dasharray:none;stroke-dashoffset:0;stroke-opacity:1;paint-order:stroke fill markers;color-rendering:auto;image-rendering:auto;shape-rendering:auto;text-rendering:auto;enable-background:accumulate;stop-color:#000000;stop-opacity:1" />
          <path
             id="path1032"
             d="m -53.861328,53.759766 c -0.05842,-4.23e-4 -0.11177,0.03311 -0.136719,0.08594 0,0 -0.132385,0.286437 -0.134765,0.710938 -0.0024,0.4245 0.123802,1.001067 0.609374,1.591797 0.971146,1.181458 2.819902,2.279011 8.437315,2.729352 0.08322,0.007 0.67581,0.08636 0.681826,0.0031 0.0059,-0.08178 -0.267647,-0.129483 -0.349331,-0.136532 -5.580132,-0.447353 -7.654088,-1.712708 -8.537388,-2.787296 -0.441649,-0.537293 -0.543064,-1.033026 -0.541015,-1.398437 0.002,-0.365411 0.0332,-0.785156 0.0332,-0.785156 0.03497,-0.07497 0.07487,0.03512 0,0 -0.01961,-0.009 -0.04093,-0.01366 -0.0625,-0.01367 z"
             style="color:#000000;font-style:normal;font-variant:normal;font-weight:normal;font-stretch:normal;font-size:medium;line-height:normal;font-family:sans-serif;font-variant-ligatures:normal;font-variant-position:normal;font-variant-caps:normal;font-variant-numeric:normal;font-variant-alternates:normal;font-variant-east-asian:normal;font-feature-settings:normal;font-variation-settings:normal;text-indent:0;text-align:start;text-decoration:none;text-decoration-line:none;text-decoration-style:solid;text-decoration-color:#000000;letter-spacing:normal;word-spacing:normal;text-transform:none;writing-mode:lr-tb;direction:ltr;text-orientation:mixed;dominant-baseline:auto;baseline-shift:baseline;text-anchor:start;white-space:normal;shape-padding:0;shape-margin:0;inline-size:0;clip-rule:nonzero;display:inline;overflow:visible;visibility:visible;opacity:1;isolation:auto;mix-blend-mode:normal;color-interpolation:sRGB;color-interpolation-filters:linearRGB;solid-color:#000000;solid-opacity:1;vector-effect:none;fill:#000000;fill-opacity:1;fill-rule:nonzero;stroke:none;stroke-width:0.3;stroke-linecap:round;stroke-linejoin:round;stroke-miterlimit:4;stroke-dasharray:none;stroke-dashoffset:0;stroke-opacity:1;paint-order:stroke fill markers;color-rendering:auto;image-rendering:auto;shape-rendering:auto;text-rendering:auto;enable-background:accumulate;stop-color:#000000;stop-opacity:1" />
          <path
             id="path1036"
             d="m -54.962891,54.892578 c -0.05809,0.0057 -0.107621,0.04453 -0.126953,0.09961 0,0 -0.103361,0.309313 0,0.75 0.103361,0.440686 0.408971,1.025311 1.177735,1.626953 1.537527,1.203283 4.431198,2.357081 11.886811,2.87779 0.08248,0.0058 0.6384,0.08554 0.644439,0.0031 0.0058,-0.08248 -0.174324,-0.118681 -0.25679,-0.124721 -7.427198,-0.518725 -10.640021,-1.857021 -12.090867,-2.992467 -0.725423,-0.567722 -0.983209,-1.087612 -1.070312,-1.458984 -0.0871,-0.371372 0.06307,-1.042689 0.06307,-1.042689 0.02757,-0.07821 -0.08442,0.296712 -0.162671,0.269252 -0.02066,-0.0073 -0.04266,-0.0099 -0.06445,-0.0078 z"
             style="color:#000000;font-style:normal;font-variant:normal;font-weight:normal;font-stretch:normal;font-size:medium;line-height:normal;font-family:sans-serif;font-variant-ligatures:normal;font-variant-position:normal;font-variant-caps:normal;font-variant-numeric:normal;font-variant-alternates:normal;font-variant-east-asian:normal;font-feature-settings:normal;font-variation-settings:normal;text-indent:0;text-align:start;text-decoration:none;text-decoration-line:none;text-decoration-style:solid;text-decoration-color:#000000;letter-spacing:normal;word-spacing:normal;text-transform:none;writing-mode:lr-tb;direction:ltr;text-orientation:mixed;dominant-baseline:auto;baseline-shift:baseline;text-anchor:start;white-space:normal;shape-padding:0;shape-margin:0;inline-size:0;clip-rule:nonzero;display:inline;overflow:visible;visibility:visible;opacity:1;isolation:auto;mix-blend-mode:normal;color-interpolation:sRGB;color-interpolation-filters:linearRGB;solid-color:#000000;solid-opacity:1;vector-effect:none;fill:#000000;fill-opacity:1;fill-rule:nonzero;stroke:none;stroke-width:0.3;stroke-linecap:round;stroke-linejoin:round;stroke-miterlimit:4;stroke-dasharray:none;stroke-dashoffset:0;stroke-opacity:1;paint-order:stroke fill markers;color-rendering:auto;image-rendering:auto;shape-rendering:auto;text-rendering:auto;enable-background:accumulate;stop-color:#000000;stop-opacity:1" />
          <path
             id="path1040"
             d="m -55.890625,56.074219 c -0.01314,-4.15e-4 0,0 -0.03906,0.0039 -0.0813,0.01996 -0.08329,0.421514 -0.06213,0.502511 0,0 0.09296,0.202485 0.683221,0.895926 0.59026,0.693442 1.635351,1.575835 3.455078,2.357422 3.639455,1.563176 9.829514,2.659733 22.271113,1.145926 0.08269,-0.01 0.684774,-0.01449 0.6742,-0.0971 -0.01,-0.08183 -0.379415,-0.05759 -0.46131,-0.04818 -12.410335,1.510003 -18.801099,0.255463 -22.366815,-1.276041 -1.782858,-0.765752 -2.785317,-1.61934 -3.34375,-2.275391 -0.558433,-0.656051 -0.667969,-1.095703 -0.667969,-1.095703 -0.01655,-0.06559 -0.07495,-0.111989 -0.142578,-0.113281 z"
             style="color:#000000;font-style:normal;font-variant:normal;font-weight:normal;font-stretch:normal;font-size:medium;line-height:normal;font-family:sans-serif;font-variant-ligatures:normal;font-variant-position:normal;font-variant-caps:normal;font-variant-numeric:normal;font-variant-alternates:normal;font-variant-east-asian:normal;font-feature-settings:normal;font-variation-settings:normal;text-indent:0;text-align:start;text-decoration:none;text-decoration-line:none;text-decoration-style:solid;text-decoration-color:#000000;letter-spacing:normal;word-spacing:normal;text-transform:none;writing-mode:lr-tb;direction:ltr;text-orientation:mixed;dominant-baseline:auto;baseline-shift:baseline;text-anchor:start;white-space:normal;shape-padding:0;shape-margin:0;inline-size:0;clip-rule:nonzero;display:inline;overflow:visible;visibility:visible;opacity:1;isolation:auto;mix-blend-mode:normal;color-interpolation:sRGB;color-interpolation-filters:linearRGB;solid-color:#000000;solid-opacity:1;vector-effect:none;fill:#000000;fill-opacity:1;fill-rule:nonzero;stroke:none;stroke-width:0.3;stroke-linecap:round;stroke-linejoin:round;stroke-miterlimit:4;stroke-dasharray:none;stroke-dashoffset:0;stroke-opacity:1;paint-order:stroke fill markers;color-rendering:auto;image-rendering:auto;shape-rendering:auto;text-rendering:auto;enable-background:accumulate;stop-color:#000000;stop-opacity:1" />
        </g>
      </g>
      <path
         d="m 16.982818,-86.520945 q 0.03593,0 0.179629,0.114963 0.143704,0.107778 0.287408,0.308963 0.143703,0.194 0.143703,0.380814 v 1.207111 q 0,0.129333 -0.380814,0.316148 -0.380815,0.186814 -0.740074,0.308962 -0.352074,0.114963 -0.380814,0.114963 0,0.553259 0.481407,0.682592 0.237111,0.05748 0.567629,0.05748 v 0.20837 q -1.17837,0.395185 -1.257407,0.395185 -0.215555,0 -0.438296,-0.301778 -0.22274,-0.308962 -0.22274,-0.718518 v -2.41422 q 0,-0.0503 0.81911,-0.352074 0.819111,-0.308963 0.941259,-0.308963 z m -0.251481,1.142444 q 0,-0.201185 -0.09341,-0.337704 -0.09341,-0.143703 -0.237111,-0.143703 -0.143703,0 -0.316148,0.107777 v 1.659777 q 0.646667,-0.179629 0.646667,-0.775999 z"
         style="font-style:normal;font-variant:normal;font-weight:normal;font-stretch:normal;font-size:7.18518px;line-height:1.25;font-family:'Pirata One';-inkscape-font-specification:'Pirata One';letter-spacing:0px;word-spacing:0px;fill:#ffffff;fill-opacity:1;stroke:none;stroke-width:0.17963"
         id="path1434" />
      <path
         d="m 18.612282,-83.998947 q -0.17963,0 -0.308963,-0.273036 -0.129333,-0.273037 -0.129333,-0.668222 v -0.776 q 0,-0.136518 0.754444,-0.467036 0.754444,-0.337704 0.869407,-0.337704 0.06467,0 0.114963,0.07904 0.0503,0.07185 0.07904,0.122148 0.02874,0.04311 0.08622,0.158074 0.06467,0.107778 0.107777,0.17963 0.09341,0.172444 0.237111,0.172444 v 0.143704 q -0.114963,0.0503 -0.301777,0.150888 -0.459852,0.251482 -0.495778,0.251482 -0.107777,0 -0.237111,-0.352074 -0.122148,-0.352074 -0.22274,-0.352074 -0.129333,0 -0.129333,0.215555 v 0.883778 q 0,0.287407 0.129333,0.287407 0.02874,0 0.445481,-0.186815 0.41674,-0.186815 0.502963,-0.186815 0.172444,0 0.301777,0.280222 0.136519,0.273037 0.136519,0.704148 v 0.811925 q 0,0.136519 -0.826296,0.474222 -0.819111,0.330519 -0.941259,0.330519 -0.0503,0 -0.100592,-0.08622 -0.04311,-0.09341 -0.129333,-0.280222 -0.07904,-0.186814 -0.158074,-0.316147 -0.09341,-0.172445 -0.237111,-0.172445 v -0.143703 q 0.114962,-0.0503 0.308962,-0.150889 0.452667,-0.251481 0.488593,-0.251481 0.107777,0 0.265851,0.423925 0.165259,0.423926 0.265852,0.423926 0.07185,0 0.136518,-0.05748 0.06467,-0.05748 0.06467,-0.158074 v -0.898147 q 0,-0.323333 -0.17963,-0.323333 -0.05748,0 -0.452666,0.172444 -0.395185,0.172444 -0.445481,0.172444 z"
         style="font-style:normal;font-variant:normal;font-weight:normal;font-stretch:normal;font-size:7.18518px;line-height:1.25;font-family:'Pirata One';-inkscape-font-specification:'Pirata One';letter-spacing:0px;word-spacing:0px;fill:#ffffff;fill-opacity:1;stroke:none;stroke-width:0.17963"
         id="path1436" />
      <path
         d="m 22.048931,-87.268204 v 0.855037 h 0.366445 l -0.07185,0.352074 h -0.294593 v 2.572294 q 0,0.438296 0.294593,0.495778 v 0.158074 l -0.725703,0.409555 q -0.158074,-0.06467 -0.294593,-0.20837 -0.136518,-0.150889 -0.136518,-0.280222 v -3.139924 h -0.294593 l 0.07185,-0.301778 q 0.215556,0 0.517333,-0.287407 0.308963,-0.294592 0.366444,-0.625111 z"
         style="font-style:normal;font-variant:normal;font-weight:normal;font-stretch:normal;font-size:7.18518px;line-height:1.25;font-family:'Pirata One';-inkscape-font-specification:'Pirata One';letter-spacing:0px;word-spacing:0px;fill:#ffffff;fill-opacity:1;stroke:none;stroke-width:0.17963"
         id="path1438" />
      <path
         d="m 15.698213,-43.089824 v 3.177071 q 0,0.160338 0.05345,0.231599 0.05345,0.06532 0.184092,0.06532 v 0.166277 q -1.205506,0.528522 -1.211444,0.528522 l -0.09502,-0.19003 q 0.04751,0 0.11283,-0.04157 0.07126,-0.04157 0.118769,-0.09502 0.124708,-0.142522 0.124708,-0.433507 v -2.933594 q 0,-0.124707 -0.08314,-0.201907 -0.08314,-0.08314 -0.154399,-0.100954 -0.07126,-0.02375 -0.184092,-0.04751 v -0.130646 l 0.777937,-0.397876 q 0.130645,0.05345 0.243476,0.178153 0.112831,0.118769 0.112831,0.225661 z"
         style="font-style:normal;font-variant:normal;font-weight:normal;font-stretch:normal;font-size:5.93845px;line-height:1.25;font-family:'Pirata One';-inkscape-font-specification:'Pirata One';letter-spacing:0px;word-spacing:0px;fill:#ffffff;fill-opacity:1;stroke:none;stroke-width:0.148462"
         id="path1468" />
      <path
         d="m 18.318461,-42.626625 v 1.680582 q 0,0.451322 -0.207846,0.95609 -0.207846,0.49883 -0.42163,0.783875 -0.213784,0.285046 -0.285046,0.285046 -0.148461,0 -0.385999,-0.07126 -0.231599,-0.0772 -0.391938,-0.1544 l -0.160338,-0.07126 v -0.178154 h 0.172215 q 0.302861,0 0.629476,-0.475076 0.332553,-0.475076 0.332553,-0.944213 -0.653229,0.290984 -0.748244,0.290984 -0.08908,0 -0.296923,-0.273169 -0.201907,-0.273169 -0.201907,-0.469138 v -1.674643 q 0,-0.04751 0.647291,-0.296922 0.653229,-0.255353 0.795752,-0.255353 0.148461,0 0.332553,0.255353 0.190031,0.255353 0.190031,0.61166 z m -1.015475,-0.320676 q -0.112831,0 -0.2316,0.09502 v 1.318336 q 0,0.190031 0.106892,0.314738 0.112831,0.124707 0.427569,0.124707 v -1.413351 q 0,-0.439445 -0.302861,-0.439445 z"
         style="font-style:normal;font-variant:normal;font-weight:normal;font-stretch:normal;font-size:5.93845px;line-height:1.25;font-family:'Pirata One';-inkscape-font-specification:'Pirata One';letter-spacing:0px;word-spacing:0px;fill:#ffffff;fill-opacity:1;stroke:none;stroke-width:0.148462"
         id="path1470" />
      <path
         d="m 19.557463,-42.852286 q -0.362246,0 -0.409753,0.195969 h -0.130646 l -0.338492,-0.486953 q 0.07126,-0.11283 0.184092,-0.201907 0.112831,-0.08908 0.219723,-0.08908 h 0.795752 q 0.362245,0 0.409753,-0.195969 h 0.130646 q 0.08314,0.112831 0.207846,0.415692 0.130646,0.296922 0.130646,0.356307 l -1.288644,3.937192 H 19.18334 q -0.296922,-0.302861 -0.296922,-0.504768 l 1.306459,-3.426486 z"
         style="font-style:normal;font-variant:normal;font-weight:normal;font-stretch:normal;font-size:5.93845px;line-height:1.25;font-family:'Pirata One';-inkscape-font-specification:'Pirata One';letter-spacing:0px;word-spacing:0px;fill:#ffffff;fill-opacity:1;stroke:none;stroke-width:0.148462"
         id="path1472" />
      <path
         d="m 21.820847,-42.852286 v 1.092675 q 0,0.237538 0.106892,0.237538 0.02375,0 0.368184,-0.1544 0.34443,-0.154399 0.415692,-0.154399 0.142523,0 0.249415,0.255353 0.11283,0.255353 0.11283,0.617599 v 1.431166 q 0,0.112831 -0.682922,0.391938 -0.676983,0.273169 -0.777937,0.273169 -0.04157,0 -0.09502,-0.100954 -0.05345,-0.100954 -0.142522,-0.285046 -0.08314,-0.19003 -0.1544,-0.314738 -0.06532,-0.124707 -0.184092,-0.124707 v -0.118769 q 0.09502,-0.04157 0.249415,-0.124707 0.380061,-0.207846 0.409753,-0.207846 0.08908,0 0.249415,0.350368 0.166276,0.350369 0.249415,0.350369 0.05938,0 0.11283,-0.04751 0.05345,-0.04751 0.05345,-0.130646 v -1.264889 q 0,-0.267231 -0.148461,-0.267231 -0.04751,0 -0.374122,0.142523 -0.326615,0.142523 -0.368184,0.142523 -0.148462,0 -0.255354,-0.225661 -0.106892,-0.225661 -0.106892,-0.552276 v -1.680581 q 0,-0.112831 0.160338,-0.112831 h 0.902645 q 0.374122,0 0.433507,-0.19003 l 0.136584,-0.0059 0.326615,0.486953 q -0.04157,0.112831 -0.166277,0.201907 -0.124707,0.08908 -0.255353,0.08908 z"
         style="font-style:normal;font-variant:normal;font-weight:normal;font-stretch:normal;font-size:5.93845px;line-height:1.25;font-family:'Pirata One';-inkscape-font-specification:'Pirata One';letter-spacing:0px;word-spacing:0px;fill:#ffffff;fill-opacity:1;stroke:none;stroke-width:0.148462"
         id="path1474" />
      <path
         id="path1199"
         d="m 2.937101,-51.692375 c 0,0 6.77764,1.5875 16.158482,1.5875 9.380842,0 16.158482,-1.5875 16.158482,-1.5875"
         style="fill:none;stroke:none;stroke-width:0.264583px;stroke-linecap:butt;stroke-linejoin:miter;stroke-opacity:1" />
      <path
         style="fill:none;stroke:none;stroke-width:0.514399px;stroke-linecap:butt;stroke-linejoin:miter;stroke-opacity:1"
         d="m -5.768983,-69.100913 c 0,0 10.313339,-3.943364 24.587895,-3.943364 14.274555,0 24.587894,3.943364 24.587894,3.943364"
         id="path1201" />
      <path
         d="m -1.6113019,-75.845871 q 0.069366,0.233324 0.00294,0.380044 -0.058647,0.144409 -0.2764157,0.20915 0.033001,0.167951 0.098793,0.588565 0.084079,0.567544 0.094799,0.632076 0.84079035,5.362245 -1.3524548,6.014284 -0.6455296,0.191912 -1.1197436,-0.06496 -0.4664365,-0.25918 -0.6306023,-0.81138 -0.2936487,-0.987738 0.3220347,-1.991869 0.6133712,-1.011909 1.8342246,-1.916612 -0.078614,-0.577635 -0.1614317,-1.027046 l -0.209147,-1.216017 q -0.480521,0.09207 -0.8849492,0.212301 -1.0810677,0.321395 -1.5319511,0.683992 -0.4508835,0.362596 -0.3098396,0.837021 0.069366,0.233324 0.3058419,0.459292 0.069787,0.0639 0.095221,0.149453 0.048556,0.163327 -0.083241,0.346412 -0.1263317,0.172996 -0.3207683,0.230801 -0.2488789,0.07399 -0.443525,-0.09669 -0.32413,-0.293022 -0.4651738,-0.767448 -0.5549266,-1.866591 2.7116087,-2.837713 0.9488508,-0.282088 1.7509801,-0.317399 0.4756862,-0.02291 0.5727984,0.303743 z M -3.1899364,-68.884 q 0.3810957,-0.113297 0.5910892,-0.802127 0.2099934,-0.68883 0.070004,-2.213212 -1.6502967,1.396364 -1.2919066,2.601871 0.078615,0.264434 0.2469857,0.375211 0.1660589,0.102999 0.383828,0.03826 z"
         style="font-style:normal;font-variant:normal;font-weight:normal;font-stretch:normal;font-size:8.11389px;line-height:1.25;font-family:Pacifico;-inkscape-font-specification:Pacifico;letter-spacing:0px;word-spacing:0px;fill:#000000;fill-opacity:1;stroke:none;stroke-width:0.211895"
         id="path1409" />
      <path
         d="m 3.5208922,-73.089231 q 0.1029625,-0.02291 0.1813142,0.06772 0.078352,0.09063 0.1135985,0.249029 0.084592,0.380169 -0.1292321,0.502559 -0.4382021,0.272064 -1.0031686,0.422713 -0.00245,0.69878 -0.3560982,1.201401 -0.3554136,0.4947 -0.9177469,0.619826 -0.47521121,0.105741 -0.86688709,-0.04816 -0.38375571,-0.155667 -0.64259211,-0.497065 -0.2588364,-0.341397 -0.3575274,-0.784928 -0.13393777,-0.601934 -0.00823,-1.120333 0.12394508,-0.526319 0.46971744,-0.877565 0.34401002,-0.359165 0.83506163,-0.46843 0.60193423,-0.133938 1.05966683,0.204764 0.4638905,0.32902 0.6629521,0.924776 0.3669618,-0.106591 0.8518142,-0.355786 0.059837,-0.02994 0.1073579,-0.04051 z m -2.2347795,2.209606 q 0.253446,-0.0564 0.3897895,-0.302854 0.1442636,-0.248221 0.1212705,-0.650409 -0.2825349,-0.111691 -0.4770976,-0.351018 -0.1866426,-0.241089 -0.2536115,-0.542056 -0.028197,-0.126723 -0.032634,-0.258733 l -0.039601,0.0088 q -0.31680749,0.07049 -0.46192132,0.426964 -0.13895598,0.346788 -0.0155922,0.901201 0.0969287,0.43561 0.31436043,0.628287 0.22535189,0.190914 0.45503739,0.139806 z"
         style="font-style:normal;font-variant:normal;font-weight:normal;font-stretch:normal;font-size:8.11389px;line-height:1.25;font-family:Pacifico;-inkscape-font-specification:Pacifico;letter-spacing:0px;word-spacing:0px;fill:#000000;fill-opacity:1;stroke:none;stroke-width:0.211895"
         id="path1411" />
      <path
         d="m 7.7317561,-73.084629 q 0.1039593,-0.01785 0.1764141,0.0685 0.080452,0.08498 0.1092858,0.252912 0.054922,0.319875 -0.066811,0.521894 -0.2950841,0.486995 -0.6402468,0.826168 -0.3371658,0.337801 -0.8329718,0.42293 -0.4078403,0.07003 -0.6555775,-0.126184 -0.2491103,-0.204207 -0.3260014,-0.652031 -0.038446,-0.223913 -0.025349,-0.81891 0.017457,-0.521653 -0.015497,-0.713577 -0.021969,-0.12795 -0.1099345,-0.112847 -0.1039593,0.01785 -0.2492003,0.322697 -0.146614,0.29685 -0.2630208,0.769631 -0.1164068,0.472781 -0.1526035,0.981186 -0.042096,0.665838 -0.6418613,0.768817 -0.2399061,0.04119 -0.348709,-0.113012 -0.102179,-0.163574 -0.1790701,-0.611398 -0.043938,-0.2559 -0.062029,-0.409214 l -0.1018476,-0.641122 q -0.2114505,-1.231518 -0.1928478,-2.60956 0.0266,-1.379415 0.3592534,-2.366818 0.3392775,-0.996773 1.0270083,-1.114855 0.367856,-0.06316 0.6466906,0.218268 0.2854584,0.27206 0.3719609,0.775862 0.1386786,0.807684 -0.1834737,1.760353 -0.3235253,0.944672 -1.1880159,2.286835 0.047408,0.419956 0.1229263,0.859784 0.147187,-0.725045 0.3942898,-1.203801 0.2537267,-0.488126 0.5340243,-0.725603 0.2882946,-0.238851 0.5521913,-0.284161 0.5197965,-0.08925 0.6090451,0.430548 0.053549,0.311878 0.01767,1.157765 -0.032485,0.721816 0.00596,0.945729 0.054922,0.319874 0.2868315,0.280056 0.1599374,-0.02746 0.3428995,-0.256459 0.189586,-0.238367 0.4819239,-0.741355 0.07674,-0.128433 0.1966927,-0.149029 z m -3.2236185,-4.534268 q -0.1439437,0.02472 -0.2484759,0.470759 -0.1059053,0.438048 -0.1530107,1.170607 -0.040482,0.723188 -0.00302,1.564716 0.3955729,-0.668901 0.5973649,-1.411554 0.2097889,-0.744026 0.113675,-1.303807 -0.043938,-0.2559 -0.1232578,-0.382235 -0.07932,-0.126336 -0.1832793,-0.108486 z"
         style="font-style:normal;font-variant:normal;font-weight:normal;font-stretch:normal;font-size:8.11389px;line-height:1.25;font-family:Pacifico;-inkscape-font-specification:Pacifico;letter-spacing:0px;word-spacing:0px;fill:#000000;fill-opacity:1;stroke:none;stroke-width:0.211895"
         id="path1413" />
      <path
         d="m 8.1962657,-71.237126 q -0.3060796,0.03717 -0.474077,-0.269374 -0.1599427,-0.307519 -0.2460106,-1.016335 -0.1271457,-1.047114 0.056448,-2.025705 0.044129,-0.24239 0.1925092,-0.366662 0.1554567,-0.133305 0.4534816,-0.169493 0.1610946,-0.01956 0.2304226,0.01289 0.069328,0.03245 0.083021,0.145215 0.015649,0.128876 -0.050402,0.594611 -0.041426,0.33197 -0.060412,0.57948 -0.018987,0.24751 -0.00817,0.60583 0.1816943,-0.724982 0.4591237,-1.200037 0.2774295,-0.475055 0.5690688,-0.698458 0.2996941,-0.22438 0.5655001,-0.256656 0.2577519,-0.0313 0.4032539,0.08998 0.152579,0.112249 0.183877,0.37 0.02543,0.209423 0.0072,0.800122 -0.02089,0.501118 -0.01542,0.949997 0.0045,0.440823 0.07002,0.98049 0.03717,0.30608 -0.07508,0.458659 -0.105172,0.143546 -0.387087,0.177778 -0.2658069,0.03227 -0.4032545,-0.08998 -0.1374477,-0.122259 -0.1707012,-0.39612 -0.039122,-0.322189 -0.016336,-1.076917 0.018413,-0.656114 -0.0031,-0.833318 -0.015649,-0.128876 -0.1042507,-0.118118 -0.1047114,0.01272 -0.2647714,0.310049 -0.1529833,0.288301 -0.3005591,0.755762 -0.139521,0.466483 -0.2006812,0.972492 -0.042634,0.389331 -0.1468281,0.540932 -0.097117,0.142568 -0.3468141,0.172887 z"
         style="font-style:normal;font-variant:normal;font-weight:normal;font-stretch:normal;font-size:8.11389px;line-height:1.25;font-family:Pacifico;-inkscape-font-specification:Pacifico;letter-spacing:0px;word-spacing:0px;fill:#000000;fill-opacity:1;stroke:none;stroke-width:0.211895"
         id="path1415" />
      <path
         d="m 12.169494,-75.791841 q -0.202162,0.01666 -0.348295,-0.07714 -0.138712,-0.102549 -0.135776,-0.363316 l 0.03446,-1.557845 q 0.01956,-0.750619 0.642219,-0.801929 0.533708,-0.04398 0.575022,0.457383 0.0093,0.113211 -0.01578,0.302531 l -0.200851,1.514567 q -0.03528,0.263432 -0.187682,0.38997 -0.153067,0.118451 -0.363316,0.135776 z"
         style="font-style:normal;font-variant:normal;font-weight:normal;font-stretch:normal;font-size:8.11389px;line-height:1.25;font-family:Pacifico;-inkscape-font-specification:Pacifico;letter-spacing:0px;word-spacing:0px;fill:#000000;fill-opacity:1;stroke:none;stroke-width:0.211895"
         id="path1417" />
      <path
         d="m 15.382421,-71.691651 q -0.421443,0.02009 -0.657648,-0.163601 -0.2281,-0.18408 -0.239692,-0.427221 -0.01005,-0.210721 0.136602,-0.372052 0.146647,-0.16133 0.446521,-0.175627 0.105361,-0.005 0.244299,0.01272 0.146657,0.0093 0.219986,0.01388 -0.01815,-0.210335 -0.116189,-0.392493 -0.08993,-0.182544 -0.227723,-0.34656 -0.138176,-0.172121 -0.257824,-0.296386 -0.228448,0.490154 -0.464624,0.818215 -0.228071,0.327675 -0.506316,0.625249 -0.138929,0.152839 -0.301023,0.160567 -0.129675,0.0062 -0.214972,-0.0791 -0.08568,-0.09339 -0.09225,-0.231172 -0.0077,-0.162094 0.09917,-0.305283 l 0.09918,-0.134698 q 0.419483,-0.57237 0.629413,-0.939795 0.134679,-0.241991 0.265108,-0.573134 0.138533,-0.331528 0.355013,-0.902343 0.136988,-0.363948 0.623269,-0.387131 0.226931,-0.01082 0.318014,0.02545 0.09108,0.03627 0.09533,0.125424 0.0023,0.04863 -0.02508,0.155535 -0.0274,0.106906 -0.07911,0.214972 -0.131975,0.298724 -0.122315,0.501341 0.0058,0.12157 0.0938,0.26359 0.09611,0.141634 0.284842,0.35196 0.275578,0.328033 0.416845,0.564991 0.148985,0.228467 0.162509,0.512131 0.01623,0.340397 -0.131183,0.656103 -0.139692,0.307214 -0.414469,0.507146 -0.274777,0.199931 -0.639488,0.217319 z"
         style="font-style:normal;font-variant:normal;font-weight:normal;font-stretch:normal;font-size:8.11389px;line-height:1.25;font-family:Pacifico;-inkscape-font-specification:Pacifico;letter-spacing:0px;word-spacing:0px;fill:#000000;fill-opacity:1;stroke:none;stroke-width:0.211895"
         id="path1419" />
      <path
         d="m 26.079675,-76.952216 q -0.02806,0.689109 -0.534963,1.171944 -0.506569,0.474728 -1.447808,0.655654 0.497032,0.158292 0.743585,0.485036 0.246884,0.318638 0.230376,0.723996 -0.02608,0.640467 -0.45059,1.094175 -0.4164,0.454038 -1.197146,0.682103 -0.780416,0.219957 -1.866777,0.175716 -0.405359,-0.01651 -0.647583,-0.05073 -0.01735,0.226671 -0.208439,0.332578 -0.191087,0.105906 -0.482945,0.09402 -0.291858,-0.01189 -0.400076,-0.146223 -0.100111,-0.134007 -0.07366,-0.384669 0.119187,-1.132032 0.380487,-2.363845 0.26163,-1.23992 0.633129,-2.386039 0.06501,-0.200368 0.238557,-0.274507 0.173552,-0.07414 0.449196,-0.06291 0.494537,0.02014 0.483312,0.295784 -0.0046,0.1135 -0.05921,0.257448 -0.236539,0.623775 -0.491566,1.701552 -0.254697,1.06967 -0.383825,2.047005 0.387823,0.04828 0.631038,0.05818 1.135004,0.04622 1.675177,-0.256605 0.548609,-0.310603 0.569409,-0.821355 0.01453,-0.356715 -0.283641,-0.612476 -0.290061,-0.255431 -1.002501,-0.308807 -0.161813,-0.01471 -0.223699,-0.09032 -0.06189,-0.07561 -0.05528,-0.237749 0.0096,-0.235108 0.112803,-0.377075 0.103229,-0.141967 0.362989,-0.139509 0.576269,0.0072 1.044651,-0.127991 0.476489,-0.134887 0.75525,-0.399636 0.279092,-0.272856 0.29428,-0.645785 0.01915,-0.470216 -0.432065,-0.756572 -0.450883,-0.294462 -1.407529,-0.333421 -0.867467,-0.03533 -1.687429,0.158659 -0.819631,0.185878 -1.400999,0.503268 -0.265703,0.143471 -0.444061,0.136208 -0.145929,-0.0059 -0.223038,-0.106531 -0.06867,-0.108364 -0.0624,-0.2624 0.0083,-0.20268 0.09527,-0.345307 0.09512,-0.142298 0.427002,-0.315556 0.69685,-0.361411 1.621875,-0.542997 0.925024,-0.181586 1.88167,-0.142628 1.467398,0.05976 2.168796,0.58368 0.701399,0.523921 0.668383,1.334638 z"
         style="font-style:normal;font-variant:normal;font-weight:normal;font-stretch:normal;font-size:8.11389px;line-height:1.25;font-family:Pacifico;-inkscape-font-specification:Pacifico;letter-spacing:0px;word-spacing:0px;fill:#000000;fill-opacity:1;stroke:none;stroke-width:0.211895"
         id="path1421" />
      <path
         d="m 26.590164,-71.563412 q -0.50033,-0.05235 -0.760919,-0.44673 -0.26059,-0.394383 -0.198955,-0.983481 0.06755,-0.645588 0.426077,-1.187306 0.359375,-0.549789 0.887941,-0.845289 0.537481,-0.302725 1.0943,-0.244467 0.177536,0.01858 0.226426,0.09711 0.0578,0.07131 0.07958,0.253072 0.172844,-0.01455 0.358451,0.0049 0.395422,0.04137 0.365871,0.323816 -0.01773,0.169466 -0.20548,0.794319 -0.282703,0.908612 -0.320698,1.271755 -0.01267,0.121048 0.03622,0.199586 0.05696,0.07938 0.153798,0.08951 0.153327,0.01604 0.391477,-0.154837 0.238993,-0.178949 0.656644,-0.583952 0.108658,-0.102846 0.229706,-0.09018 0.104908,0.01098 0.151265,0.113725 0.05443,0.103592 0.0367,0.273059 -0.03377,0.322794 -0.205675,0.484288 -0.373924,0.376945 -0.774688,0.62055 -0.400764,0.243606 -0.747767,0.2073 -0.266305,-0.02786 -0.473685,-0.22904 -0.198466,-0.208403 -0.278516,-0.534947 -0.490554,0.633962 -1.128072,0.56726 z m 0.375791,-0.784658 q 0.177537,0.01857 0.360886,-0.174354 0.183349,-0.19293 0.292283,-0.532334 l 0.453939,-1.453611 q -0.339777,-0.02739 -0.656465,0.192378 -0.307774,0.212544 -0.519457,0.598305 -0.211683,0.385762 -0.258965,0.837673 -0.02617,0.250165 0.058,0.381344 0.09224,0.132024 0.26978,0.150599 z"
         style="font-style:normal;font-variant:normal;font-weight:normal;font-stretch:normal;font-size:8.11389px;line-height:1.25;font-family:Pacifico;-inkscape-font-specification:Pacifico;letter-spacing:0px;word-spacing:0px;fill:#000000;fill-opacity:1;stroke:none;stroke-width:0.211895"
         id="path1423" />
      <path
         d="m 34.310914,-72.365615 q 0.104234,0.01617 0.145438,0.121088 0.04922,0.106165 0.02311,0.274543 -0.04974,0.320721 -0.229444,0.47349 -0.429207,0.385031 -0.839074,0.592422 -0.409867,0.207391 -0.915002,0.129047 -0.617388,-0.09575 -0.939519,-0.506995 -0.32213,-0.411241 -0.23135,-0.996557 0.0485,-0.312703 0.39036,-0.399267 0.376421,-0.09763 0.554878,-0.242376 0.179701,-0.152769 0.218252,-0.401328 0.02238,-0.144325 -0.03057,-0.226435 -0.04493,-0.08087 -0.133133,-0.09455 -0.216486,-0.03358 -0.52958,0.238089 -0.305076,0.27291 -0.606682,0.735207 -0.300362,0.45428 -0.509482,0.955555 -0.146646,0.363168 -0.288057,0.480821 -0.132149,0.110879 -0.380708,0.07233 -0.248559,-0.03855 -0.341471,-0.2336 -0.08365,-0.201825 -0.06529,-0.58489 0.01836,-0.383065 0.131522,-1.112705 0.191508,-1.234776 0.647742,-2.535237 0.464252,-1.299216 1.093874,-2.129396 0.638884,-0.836954 1.328435,-0.730008 0.368829,0.0572 0.543591,0.412745 0.184024,0.348767 0.105679,0.853902 -0.125599,0.809821 -0.734211,1.610416 -0.607369,0.792576 -1.854083,1.789796 -0.08872,0.413207 -0.157115,0.854199 0.54031,-0.942563 1.107068,-1.314471 0.568,-0.379927 1.000974,-0.312775 0.400901,0.06218 0.599161,0.372098 0.206278,0.311164 0.144099,0.712065 -0.0684,0.440992 -0.350104,0.775001 -0.281709,0.33401 -0.871703,0.538096 -0.0015,0.221461 0.137716,0.382639 0.148481,0.154403 0.381004,0.190467 0.248559,0.03855 0.510927,-0.117819 0.262369,-0.15637 0.708855,-0.546932 0.113627,-0.09733 0.233897,-0.07868 z m -1.797247,-5.353081 q -0.144324,-0.02238 -0.385386,0.367195 -0.239818,0.381561 -0.51763,1.061033 -0.268551,0.672697 -0.500872,1.482387 0.587897,-0.508215 1.015565,-1.148023 0.435685,-0.638564 0.522735,-1.199826 0.03979,-0.256577 0.0048,-0.401588 -0.03498,-0.145011 -0.13922,-0.161178 z"
         style="font-style:normal;font-variant:normal;font-weight:normal;font-stretch:normal;font-size:8.11389px;line-height:1.25;font-family:Pacifico;-inkscape-font-specification:Pacifico;letter-spacing:0px;word-spacing:0px;fill:#000000;fill-opacity:1;stroke:none;stroke-width:0.211895"
         id="path1425" />
      <path
         d="m 37.511095,-71.667538 q 0.103374,0.02098 0.139672,0.127696 0.04425,0.108331 0.01036,0.275319 -0.06455,0.318072 -0.251134,0.462351 -0.366833,0.298124 -0.968876,0.490561 -0.594091,0.194051 -1.20638,0.0698 -0.83494,-0.169438 -1.204163,-0.716286 -0.369224,-0.546847 -0.209468,-1.334075 0.111345,-0.548675 0.437156,-0.971034 0.327424,-0.430311 0.789446,-0.626325 0.469973,-0.194401 0.98684,-0.08951 0.461205,0.0936 0.683038,0.428387 0.223448,0.326841 0.12824,0.795998 -0.111346,0.548674 -0.589621,0.865579 -0.46871,0.310567 -1.45382,0.350753 0.124565,0.406126 0.681192,0.519085 0.357831,0.07262 0.861108,-0.08191 0.512843,-0.160863 0.929118,-0.49863 0.118013,-0.09196 0.23729,-0.06775 z m -1.769868,-1.559664 q -0.294217,-0.05971 -0.570353,0.240265 -0.268184,0.301585 -0.36662,0.786645 l -0.0032,0.0159 q 0.491748,-0.01612 0.807293,-0.183901 0.315545,-0.167785 0.375252,-0.462002 0.03066,-0.151084 -0.03906,-0.256305 -0.06015,-0.111558 -0.203286,-0.140605 z"
         style="font-style:normal;font-variant:normal;font-weight:normal;font-stretch:normal;font-size:8.11389px;line-height:1.25;font-family:Pacifico;-inkscape-font-specification:Pacifico;letter-spacing:0px;word-spacing:0px;fill:#000000;fill-opacity:1;stroke:none;stroke-width:0.211895"
         id="path1427" />
      <path
         d="m 37.276035,-69.790564 q -0.299066,-0.075 -0.346039,-0.421389 -0.0391,-0.344413 0.134586,-1.036987 0.256587,-1.023122 0.778711,-1.870903 0.12807,-0.210472 0.311132,-0.273309 0.192906,-0.06873 0.484102,0.0043 0.157404,0.03948 0.210496,0.09462 0.05309,0.05514 0.02546,0.165323 -0.03158,0.125922 -0.260162,0.537046 -0.157652,0.295069 -0.264085,0.519332 -0.106433,0.224262 -0.224759,0.562655 0.429458,-0.611701 0.858717,-0.955767 0.429259,-0.344066 0.781591,-0.448103 0.360203,-0.102065 0.619919,-0.03693 0.511561,0.128293 0.383267,0.639854 -0.02566,0.102312 -0.195177,0.478057 -0.141911,0.299017 -0.161649,0.377719 -0.06908,0.275455 0.127674,0.324799 0.220364,0.05527 0.653496,-0.204178 0.127971,-0.07665 0.238154,-0.04902 0.102312,0.02566 0.133718,0.133917 0.04125,0.102362 0.0037,0.251895 -0.07303,0.291196 -0.27188,0.416995 -0.277604,0.17297 -0.618119,0.263241 -0.330671,0.08438 -0.661218,0.0015 -0.417119,-0.104609 -0.584192,-0.372368 -0.159204,-0.265786 -0.06841,-0.627813 0.02961,-0.118053 0.08282,-0.230184 0.05522,-0.153456 0.06903,-0.208547 0.03158,-0.125923 -0.05499,-0.147634 -0.118053,-0.02961 -0.381914,0.188636 -0.254018,0.212346 -0.551458,0.597835 -0.29744,0.385489 -0.535891,0.835963 -0.179337,0.348187 -0.330943,0.452374 -0.141763,0.09829 -0.385738,0.0371 z"
         style="font-style:normal;font-variant:normal;font-weight:normal;font-stretch:normal;font-size:8.11389px;line-height:1.25;font-family:Pacifico;-inkscape-font-specification:Pacifico;letter-spacing:0px;word-spacing:0px;fill:#000000;fill-opacity:1;stroke:none;stroke-width:0.211895"
         id="path1429" />
      <path
         d="m 44.162082,-71.805908 q 0.177936,0.05626 0.232886,0.124696 0.05495,0.06843 0.0207,0.176743 -0.05871,0.185673 -0.619447,1.259317 -0.522852,1.034564 -0.617399,1.225924 -0.914921,1.897735 -1.784715,2.899185 -0.869795,1.001451 -1.705322,0.73726 -0.394554,-0.124757 -0.563839,-0.450599 -0.171731,-0.318106 -0.04698,-0.71266 0.114972,-0.363609 0.3973,-0.69132 0.290064,-0.325265 0.89533,-0.678512 0.610557,-0.343064 1.638937,-0.715702 l 0.07947,-0.170597 q 0.144665,-0.269122 0.38308,-0.780915 -0.330854,0.508094 -0.702319,0.714012 -0.369019,0.198182 -0.678473,0.100333 -0.348136,-0.110079 -0.472196,-0.49821 -0.113877,-0.393421 0.03779,-0.873075 0.183465,-0.580227 0.412494,-1.03542 0.231475,-0.462928 0.580646,-0.94821 0.150749,-0.207629 0.321805,-0.26417 0.171055,-0.05654 0.472773,0.03886 0.1702,0.05382 0.214967,0.127541 0.0525,0.07617 0.01826,0.184479 -0.01957,0.06189 -0.217195,0.390855 -0.167874,0.261784 -0.287678,0.479197 -0.162185,0.297621 -0.301559,0.576926 -0.136928,0.271568 -0.195637,0.45724 -0.09296,0.293982 0.06951,0.345353 0.116046,0.03669 0.359632,-0.141581 0.251322,-0.175828 0.59395,-0.586591 0.350364,-0.408317 0.753749,-1.038144 0.135278,-0.212521 0.29086,-0.273954 0.163319,-0.05899 0.418619,0.02174 z m -4.150912,5.699607 q 0.193409,0.06116 0.575116,-0.311722 0.381708,-0.372876 0.951773,-1.341452 -0.754703,0.314505 -1.155125,0.638915 -0.395131,0.334592 -0.49298,0.644047 -0.04159,0.131518 -0.02208,0.231295 0.02725,0.102223 0.143291,0.138917 z"
         style="font-style:normal;font-variant:normal;font-weight:normal;font-stretch:normal;font-size:8.11389px;line-height:1.25;font-family:Pacifico;-inkscape-font-specification:Pacifico;letter-spacing:0px;word-spacing:0px;fill:#000000;fill-opacity:1;stroke:none;stroke-width:0.211895"
         id="path1431" />
      <path
         d="m 3.7980975,-52.443369 0.8168452,0.160791 q 0.418264,0.08233 0.5714288,0.316938 0.1541334,0.229685 0.074707,0.633187 l -0.027121,0.137781 q -0.052305,0.265721 -0.1738117,0.415591 -0.1165858,0.15084 -0.3082621,0.189781 l -0.00194,0.0098 q 0.3763805,0.217208 0.262084,0.797857 l -0.058117,0.295245 q -0.078458,0.398581 -0.3317007,0.568523 -0.2473535,0.16599 -0.6508553,0.08656 l -0.8512904,-0.16757 z m 0.4768201,1.550613 q 0.1623848,0.03196 0.2575834,-0.03619 0.1001192,-0.06719 0.1388638,-0.264017 l 0.037776,-0.191909 q 0.036807,-0.186989 -0.015617,-0.284202 -0.047503,-0.09625 -0.1902052,-0.124335 l -0.2608,-0.05134 -0.1791937,0.91034 z m -0.2066987,1.56941 q 0.1427019,0.02809 0.2261216,-0.03216 0.084388,-0.06517 0.1211958,-0.25216 l 0.059086,-0.300166 q 0.046493,-0.236196 -0.019724,-0.341236 -0.060328,-0.108992 -0.247317,-0.1458 l -0.2411169,-0.04746 -0.2082523,1.057962 z"
         style="font-style:normal;font-variant:normal;font-weight:normal;font-stretch:normal;font-size:5.01518px;line-height:1.25;font-family:'Bebas Neue';-inkscape-font-specification:'Bebas Neue';letter-spacing:0.370417px;word-spacing:0px;fill:#000000;fill-opacity:1;stroke:none;stroke-width:0.12538"
         id="path1441" />
      <path
         d="m 6.0226691,-52.024199 0.8077849,0.125491 q 0.4212375,0.06544 0.5837159,0.293695 0.1632482,0.223299 0.1001178,0.629669 l -0.033105,0.213097 q -0.083917,0.540175 -0.4630567,0.62846 l -0.00154,0.0099 q 0.1889908,0.09027 0.2397969,0.285945 0.055762,0.19645 0.00803,0.503706 l -0.094696,0.609555 q -0.023096,0.148672 -0.027813,0.244371 -0.00395,0.09074 0.021842,0.186105 l -0.5550423,-0.08623 q -0.016646,-0.08887 -0.01501,-0.164742 0.00164,-0.07588 0.031662,-0.26915 l 0.098545,-0.634334 q 0.036954,-0.237875 -0.02771,-0.344352 -0.059708,-0.105707 -0.2480262,-0.134963 l -0.1883179,-0.02926 -0.2309648,1.48672 -0.5451308,-0.08469 z m 0.5123956,1.602203 q 0.1635392,0.02541 0.255919,-0.04652 0.097335,-0.07116 0.1281308,-0.269389 l 0.041574,-0.26761 q 0.029256,-0.188317 -0.027037,-0.283343 -0.051337,-0.09426 -0.1950529,-0.116583 l -0.2477867,-0.03849 -0.1539765,0.991147 z"
         style="font-style:normal;font-variant:normal;font-weight:normal;font-stretch:normal;font-size:5.01518px;line-height:1.25;font-family:'Bebas Neue';-inkscape-font-specification:'Bebas Neue';letter-spacing:0.370417px;word-spacing:0px;fill:#000000;fill-opacity:1;stroke:none;stroke-width:0.12538"
         id="path1443" />
      <path
         d="m 8.2879947,-51.685098 1.4929339,0.186631 -0.06221,0.497645 -0.9455248,-0.1182 -0.1150893,0.920643 0.7514434,0.09394 -0.06221,0.497645 -0.7514434,-0.09394 -0.1337523,1.069936 0.9455248,0.1182 -0.06221,0.497645 -1.4929339,-0.186632 z"
         style="font-style:normal;font-variant:normal;font-weight:normal;font-stretch:normal;font-size:5.01518px;line-height:1.25;font-family:'Bebas Neue';-inkscape-font-specification:'Bebas Neue';letter-spacing:0.370417px;word-spacing:0px;fill:#000000;fill-opacity:1;stroke:none;stroke-width:0.12538"
         id="path1445" />
      <path
         d="m 10.793419,-51.392271 0.743755,0.0723 0.229374,3.549473 -0.549081,-0.05338 -0.03238,-0.703544 -9.7e-4,0.01 -0.623956,-0.06066 -0.166312,0.674151 -0.5091485,-0.0495 z m 0.371901,2.394321 -0.07669,-1.750888 -0.01,-9.7e-4 -0.407495,1.703819 z"
         style="font-style:normal;font-variant:normal;font-weight:normal;font-stretch:normal;font-size:5.01518px;line-height:1.25;font-family:'Bebas Neue';-inkscape-font-specification:'Bebas Neue';letter-spacing:0.370417px;word-spacing:0px;fill:#000000;fill-opacity:1;stroke:none;stroke-width:0.12538"
         id="path1447" />
      <path
         d="m 12.64132,-51.22209 0.840541,0.05815 q 0.410265,0.02838 0.600167,0.262716 0.189902,0.234334 0.16048,0.659608 l -0.122532,1.77114 q -0.02942,0.425274 -0.249784,0.631224 -0.220362,0.20595 -0.630626,0.177567 l -0.840541,-0.05815 z m 0.622853,3.059391 q 0.135087,0.0093 0.21067,-0.06586 0.08059,-0.07486 0.09305,-0.254975 l 0.125993,-1.821173 q 0.01246,-0.180116 -0.05705,-0.265359 -0.06451,-0.0849 -0.199594,-0.09424 l -0.28018,-0.01938 -0.173068,2.501611 z"
         style="font-style:normal;font-variant:normal;font-weight:normal;font-stretch:normal;font-size:5.01518px;line-height:1.25;font-family:'Bebas Neue';-inkscape-font-specification:'Bebas Neue';letter-spacing:0.370417px;word-spacing:0px;fill:#000000;fill-opacity:1;stroke:none;stroke-width:0.12538"
         id="path1449" />
      <path
         d="m 16.497211,-51.010777 0.746978,0.0206 0.474719,3.525055 -0.55146,-0.01521 -0.08104,-0.699611 -2.77e-4,0.01003 -0.626659,-0.01729 -0.119209,0.684053 -0.511354,-0.0141 z m 0.536879,2.362805 -0.197806,-1.741368 -0.01003,-2.76e-4 -0.288481,1.727955 z"
         style="font-style:normal;font-variant:normal;font-weight:normal;font-stretch:normal;font-size:5.01518px;line-height:1.25;font-family:'Bebas Neue';-inkscape-font-specification:'Bebas Neue';letter-spacing:0.370417px;word-spacing:0px;fill:#000000;fill-opacity:1;stroke:none;stroke-width:0.12538"
         id="path1451" />
      <path
         d="m 18.349575,-50.968454 0.692094,-10e-4 0.539787,2.100551 0.01003,-1.5e-5 -0.0032,-2.101358 0.491487,-7.4e-4 0.0053,3.510622 -0.566715,8.53e-4 -0.66586,-2.561758 -0.01003,1.5e-5 0.0039,2.562754 -0.491487,7.4e-4 z"
         style="font-style:normal;font-variant:normal;font-weight:normal;font-stretch:normal;font-size:5.01518px;line-height:1.25;font-family:'Bebas Neue';-inkscape-font-specification:'Bebas Neue';letter-spacing:0.370417px;word-spacing:0px;fill:#000000;fill-opacity:1;stroke:none;stroke-width:0.12538"
         id="path1453" />
      <path
         d="m 20.761956,-50.982933 0.842153,-0.02585 q 0.411051,-0.01262 0.623348,0.201635 0.212297,0.214254 0.225378,0.640344 l 0.05448,1.774538 q 0.01308,0.426089 -0.185674,0.652963 -0.198754,0.226873 -0.609805,0.239493 l -0.842153,0.02585 z m 0.924464,2.982145 q 0.135346,-0.0042 0.203063,-0.08651 0.07273,-0.08251 0.06719,-0.262975 l -0.05602,-1.824666 q -0.0055,-0.180461 -0.08319,-0.258358 -0.07264,-0.07805 -0.207988,-0.0739 l -0.280718,0.0086 0.07695,2.506409 z"
         style="font-style:normal;font-variant:normal;font-weight:normal;font-stretch:normal;font-size:5.01518px;line-height:1.25;font-family:'Bebas Neue';-inkscape-font-specification:'Bebas Neue';letter-spacing:0.370417px;word-spacing:0px;fill:#000000;fill-opacity:1;stroke:none;stroke-width:0.12538"
         id="path1455" />
      <path
         d="m 25.229152,-47.630962 q -0.395184,0.02836 -0.621433,-0.181672 -0.221248,-0.210388 -0.250681,-0.620578 l -0.134961,-1.880872 q -0.02943,-0.410191 0.15951,-0.650011 0.193945,-0.24018 0.589128,-0.268536 0.395184,-0.02836 0.616431,0.182031 0.22625,0.210029 0.255683,0.620219 l 0.02656,0.370172 -0.520241,0.03733 -0.02907,-0.405188 q -0.02333,-0.325151 -0.298459,-0.305409 -0.275127,0.01974 -0.251796,0.344892 l 0.140345,1.955907 q 0.02297,0.320148 0.2981,0.300407 0.275127,-0.01974 0.252155,-0.339891 l -0.03841,-0.535248 0.520241,-0.03733 0.03553,0.495229 q 0.02943,0.41019 -0.164512,0.65037 -0.188943,0.239821 -0.584126,0.268177 z"
         style="font-style:normal;font-variant:normal;font-weight:normal;font-stretch:normal;font-size:5.01518px;line-height:1.25;font-family:'Bebas Neue';-inkscape-font-specification:'Bebas Neue';letter-spacing:0.370417px;word-spacing:0px;fill:#000000;fill-opacity:1;stroke:none;stroke-width:0.12538"
         id="path1457" />
      <path
         d="m 26.811075,-51.334657 0.743614,-0.07375 0.915422,3.437059 -0.548977,0.05445 -0.168615,-0.683807 9.9e-4,0.01 -0.623837,0.06187 -0.032,0.693625 -0.509051,0.05049 z m 0.830532,2.276248 -0.415806,-1.702526 -0.01,9.9e-4 -0.06829,1.750539 z"
         style="font-style:normal;font-variant:normal;font-weight:normal;font-stretch:normal;font-size:5.01518px;line-height:1.25;font-family:'Bebas Neue';-inkscape-font-specification:'Bebas Neue';letter-spacing:0.370417px;word-spacing:0px;fill:#000000;fill-opacity:1;stroke:none;stroke-width:0.12538"
         id="path1459" />
      <path
         d="m 28.66042,-51.527184 0.547156,-0.07042 0.18886,1.467374 0.507521,-1.557003 0.547157,-0.07042 -0.487082,1.362223 0.945172,2.118402 -0.572028,0.07362 -0.662339,-1.492396 -0.161884,0.470868 0.142765,1.109236 -0.547157,0.07042 z"
         style="font-style:normal;font-variant:normal;font-weight:normal;font-stretch:normal;font-size:5.01518px;line-height:1.25;font-family:'Bebas Neue';-inkscape-font-specification:'Bebas Neue';letter-spacing:0.370417px;word-spacing:0px;fill:#000000;fill-opacity:1;stroke:none;stroke-width:0.12538"
         id="path1461" />
      <path
         d="m 30.982351,-51.837304 1.485653,-0.237736 0.07925,0.495217 -0.940914,0.150567 0.146604,0.916152 0.747779,-0.11966 0.07925,0.495217 -0.747778,0.119661 0.170377,1.064718 0.940914,-0.150567 0.07925,0.495218 -1.485653,0.237736 z"
         style="font-style:normal;font-variant:normal;font-weight:normal;font-stretch:normal;font-size:5.01518px;line-height:1.25;font-family:'Bebas Neue';-inkscape-font-specification:'Bebas Neue';letter-spacing:0.370417px;word-spacing:0px;fill:#000000;fill-opacity:1;stroke:none;stroke-width:0.12538"
         id="path1463" />
      <path
         d="m 34.423342,-48.820198 q -0.393542,0.07809 -0.639156,-0.103262 -0.24659,-0.186267 -0.329557,-0.604406 l -0.03904,-0.196771 0.511605,-0.101512 0.04685,0.236125 q 0.06637,0.334511 0.346772,0.278875 0.13774,-0.02733 0.190992,-0.119704 0.0572,-0.09827 0.02108,-0.280283 -0.04295,-0.216448 -0.173544,-0.359262 -0.131572,-0.147734 -0.443089,-0.326232 -0.393075,-0.228783 -0.572748,-0.438554 -0.180648,-0.214691 -0.240189,-0.514767 -0.08102,-0.4083 0.08167,-0.670663 0.16171,-0.267282 0.555252,-0.345368 0.388623,-0.07711 0.630294,0.110133 0.245614,0.181348 0.328581,0.599487 l 0.02831,0.142659 -0.511604,0.101512 -0.03514,-0.177094 q -0.03514,-0.177094 -0.119626,-0.242137 -0.08546,-0.06996 -0.218284,-0.04361 -0.270561,0.05369 -0.205163,0.383276 0.03709,0.186933 0.167687,0.329748 0.135516,0.141838 0.447032,0.320336 0.397995,0.227807 0.573725,0.443473 0.175729,0.215667 0.24015,0.540339 0.08394,0.423058 -0.08269,0.691317 -0.16171,0.267282 -0.560172,0.346344 z"
         style="font-style:normal;font-variant:normal;font-weight:normal;font-stretch:normal;font-size:5.01518px;line-height:1.25;font-family:'Bebas Neue';-inkscape-font-specification:'Bebas Neue';letter-spacing:0.370417px;word-spacing:0px;fill:#000000;fill-opacity:1;stroke:none;stroke-width:0.12538"
         id="path1465" />
    </g>
  </g>
</svg>
