<?xml version="1.0" encoding="UTF-8" standalone="no"?>
<svg
   xmlns:dc="http://purl.org/dc/elements/1.1/"
   xmlns:cc="http://creativecommons.org/ns#"
   xmlns:rdf="http://www.w3.org/1999/02/22-rdf-syntax-ns#"
   xmlns:svg="http://www.w3.org/2000/svg"
   xmlns="http://www.w3.org/2000/svg"
   width="500"
   height="500"
   viewBox="0 0 132.29166 132.29167"
   version="1.1"
   id="svg8">
  <defs
     id="defs2" />
  <metadata
     id="metadata5">
    <rdf:RDF>
      <cc:Work
         rdf:about="">
        <dc:format>image/svg+xml</dc:format>
        <dc:type
           rdf:resource="http://purl.org/dc/dcmitype/StillImage" />
        <dc:title></dc:title>
      </cc:Work>
    </rdf:RDF>
  </metadata>
  <g
     id="layer1">
    <g
       id="g1071"
       transform="matrix(1.5037218,0,0,1.5037218,-7.4003149,-103.49833)">
      <path
         id="path944"
         style="fill:#000000;stroke:none;stroke-width:0.79375;stroke-linecap:round"
         d="M 59.515679,90.107465 C 53.982821,84.762995 50.132985,87.412443 50.048626,89.352799 47.866784,85.832978 41.804381,86.182427 35.588747,87.921141 29.373113,89.659856 9.6956527,105.67704 9.6956527,105.67704 c 0,0 4.3321733,-1.51017 6.1706803,-1.70665 -1.547904,1.47965 -2.874325,6.14927 -4.901305,6.70872 3.111479,1.84471 6.183808,-1.0627 9.684992,-1.62273 -1.560523,1.65605 -3.497223,2.85748 -5.637899,3.49746 -4.015884,1.20005 -5.0646243,1.66305 -8.5498776,-1.0294 0.8102248,3.78478 -0.09424,5.82065 3.3781003,7.96334 0.0069,0.0404 0.01257,0.0811 0.01964,0.12144 h 0.1803503 c 0.807091,0.48164 6.571357,2.9698 7.453587,3.30102 4.489666,1.68496 8.152955,2.35662 11.996905,-0.094 0,0 -7.19269,1.91637 -9.302348,1.91624 -2.109658,-1.3e-4 -5.05735,-0.83667 -8.069201,-3.67892 1.386625,6.31914 6.02718,11.82959 14.353129,10.86032 8.325948,-0.96928 15.559553,-8.6174 16.45171,-16.98656 0.167042,-2.03793 -1.71876,-4.15944 -1.71876,-4.15944 0,0 -0.166844,0.43408 -0.534334,0.43408 -0.367501,0 -3.441076,-2.4724 -3.24063,-4.61057 0.200451,-2.13814 1.436357,-2.70577 1.770436,-2.70577 0.334092,0 1.436973,0.33386 1.503783,1.10226 0,0 0.968417,-0.76846 0.968417,-1.53686 0,-0.7684 -0.868323,-2.57256 -0.801502,-3.64164 0.0668,-1.069081 1.33604,-6.681404 8.051188,-6.614584 0,0 0.171189,-0.02069 0.463537,-0.01498 0.877054,0.01709 2.844197,0.273577 4.548045,2.052587 2.229302,2.327651 2.718128,4.194392 2.735749,4.263824 -0.282773,-0.258731 -0.947883,-0.842772 -1.26814,-0.908473 -0.410091,-0.0841 -0.99885,0.180745 -1.041278,0.321945 -0.0425,0.1412 -2.3e-4,0.229444 0.05633,0.229444 0.05659,0 0.822055,-0.256469 1.187524,-0.180869 0.31015,0.0642 0.875901,0.445719 1.066602,0.576709 -0.004,0.0431 -0.140722,1.463357 -0.172601,2.443787 -0.752049,-0.10792 -1.477944,-0.23616 -1.477944,-0.23616 0,0 0.470183,0.62829 1.476912,0.87849 0.008,0.11334 0.02159,0.19481 0.04289,0.22893 0.16705,0.26727 1.135103,0.90192 1.569413,2.17145 0.434322,1.26951 -0.166917,4.07585 -0.166915,4.57698 0,0.50114 0.534575,3.03995 0.100251,3.67471 -0.434311,0.63477 -4.108947,1.10262 -4.710306,1.83761 -0.60136,0.73499 -1.302654,1.57013 -1.569929,4.37648 -0.0042,0.0443 -0.0058,0.0786 -0.0098,0.12195 h 29.56202 c -3.863702,-1.31772 -6.900426,-4.11565 -8.352462,-7.69565 3.447762,2.29401 7.708998,3.18092 11.868007,2.47013 1.215761,-0.20798 2.404528,-0.54956 3.542938,-1.01802 5.29e-4,-0.0446 7.94e-4,-0.0892 0.0016,-0.13384 -3.819728,0.1305 -7.427102,-1.22428 -10.020059,-3.76308 3.27261,0.58386 6.685754,0.13018 9.754442,-1.29656 0,0 -17.114338,-10.3074 -22.130184,-15.327458 -5.015849,-5.020061 -0.930786,2.607177 -6.463644,-2.737292 z m -10.320115,8.055978 c -2.008002,0 -3.307294,2.055167 -3.307292,2.055167 0,0 1.063139,-1.488298 3.401859,-1.653641 0.992241,-0.0702 2.480541,0.77928 2.575037,0.77928 0.0945,0 0.165436,-0.11797 0.09457,-0.306959 -0.0709,-0.188989 -0.756174,-0.873847 -2.764174,-0.873847 z m 3.425632,3.767727 c 0,0 -2.090973,0.66146 -2.858741,0.66146 -0.76776,0 -2.844271,-0.37776 -2.844271,-0.37776 0,0 0.753457,1.01573 2.407087,0.98031 1.653643,-0.0354 3.295925,-1.26401 3.295925,-1.26401 z m 3.011702,2.5275 c -0.732333,0 -1.216547,0.94516 -1.476397,0.94516 -0.25986,0 -0.56689,-0.18914 -0.56689,-0.18914 0,0 0.0946,0.57899 0.425296,0.61443 0.330735,0.0354 1.228199,-0.64971 1.535308,-0.67334 0.3071,-0.0236 1.039731,0.43718 1.039731,0.43718 0,0 -0.224719,-1.13429 -0.957048,-1.13429 z m 0.933275,2.13837 c -0.165359,0 -0.330581,0.25941 -0.472321,0.25941 -0.14174,0 -0.519938,-0.21239 -0.779798,-0.21239 -0.259861,0 -1.630228,0.75603 -2.26808,1.91358 0,0 2.173742,-0.73218 2.953308,-0.63769 0.779584,0.0945 1.559078,0.30696 1.559078,0.30696 0,0 -0.605477,-1.62987 -0.992187,-1.62987 z m -1.889808,2.3151 c -0.330723,0.0236 -1.465027,0.51935 -1.465027,0.51935 0,0 1.228792,0.0708 1.465027,0.23616 0.236234,0.16536 0.921388,0.3545 1.086758,0.3545 0.165359,0 0.424855,-0.16551 0.684712,-0.3545 0.25985,-0.18899 0.921391,-0.28319 0.921391,-0.28319 0,0 -0.614215,-0.40167 -0.826823,-0.4253 -0.212611,-0.0236 -0.684787,0.23617 -0.944645,0.23617 -0.259858,0 -0.590671,-0.30682 -0.921393,-0.28319 z" />
      <path
         d="m 60.434556,123.44428 -0.808108,0.15035 q -1.447076,2.49949 -2.781393,6.72796 -0.507417,1.59742 -1.428284,3.68347 -0.920866,2.06725 -2.048458,3.83381 -1.52225,2.36795 -4.059331,3.89019 -2.518289,1.54105 -4.604334,1.82294 -0.958454,0.13156 -2.180012,0.13156 -1.221557,0 -2.518288,-0.43225 -2.029666,-0.67655 -2.781394,-2.21759 -0.338277,-0.71415 -0.338277,-1.6726 0,-0.95845 0.507416,-2.25518 0.357071,-0.86449 1.259144,-1.61622 0.902074,-0.75173 1.40949,-0.77052 0.225519,-0.0188 0.225519,0.0752 -0.01879,0.0752 -0.244312,0.18794 -0.601382,0.24431 -1.334317,1.07121 -0.732935,0.8269 -0.958453,1.6538 -0.244312,0.84569 -0.244312,1.29673 0,1.3719 0.732935,2.2176 0.507416,0.56379 1.259144,1.01483 0.751728,0.45104 1.616216,0.62018 1.277937,0.24431 2.029665,0.24431 0.751728,0 1.334317,-0.15035 1.277938,-0.2819 2.461909,-0.93966 1.202765,-0.65776 2.123632,-1.44707 0.920867,-0.77053 1.82294,-1.91691 0.920867,-1.14639 1.541043,-2.08605 0.620175,-0.93966 1.315524,-2.25518 1.127592,-2.14242 2.311563,-4.92382 1.484663,-3.3076 3.006912,-5.71313 -2.612255,0.43224 -5.318475,1.87932 -1.371904,0.73293 -2.34915,1.86053 -1.259145,1.42828 -1.259145,3.06329 0,0.88328 0.413451,1.3719 0.432243,0.48862 0.902073,0.48862 0.46983,0 1.033626,-0.20672 0.563796,-0.20673 1.014833,-0.71414 0.714142,-0.8269 0.714142,-1.89812 0,-0.45103 -0.131553,-0.60138 -0.225518,-0.15034 -0.03759,-0.2819 0.206725,-0.11275 0.432243,0.13156 0.187932,0.41345 0.187932,0.97724 0,0.54501 -0.41345,1.25915 -0.695348,1.18397 -1.916906,1.61621 -0.563796,0.18793 -1.071213,0.18793 -0.845694,0 -1.522249,-0.545 -0.864487,-0.71414 -0.864487,-1.9169 0,-1.52225 1.090006,-2.91295 0.8269,-1.07121 1.935699,-1.76656 1.127592,-0.69535 2.537082,-1.24035 2.273977,-0.88328 4.942611,-1.24035 0.225519,-0.37587 0.676556,-0.88328 0.451036,-0.50742 0.751728,-0.60139 0.300691,-0.094 0.488623,-0.094 0.657762,0 0.657762,0.56379 -0.01879,0.50742 -0.413451,0.78932 -0.394657,0.2631 -1.108798,0.48862 z m 0.582589,-1.24035 q -0.03759,0 -0.09397,0.0188 -0.03759,0.0188 -0.131553,0.094 -0.07517,0.0564 -0.150345,0.11276 -0.07517,0.0564 -0.187932,0.16914 -0.09397,0.11276 -0.169139,0.18793 -0.05638,0.0564 -0.169139,0.18793 -0.112759,0.11276 -0.150345,0.15035 1.29673,-0.22552 1.277937,-0.69535 -0.03759,-0.22552 -0.225518,-0.22552 z"
         style="font-style:normal;font-variant:normal;font-weight:normal;font-stretch:normal;font-size:18.7932px;line-height:1.25;font-family:'Great Vibes';-inkscape-font-specification:'Great Vibes';letter-spacing:0px;word-spacing:0px;fill:#000000;fill-opacity:1;stroke:none;stroke-width:0.469832"
         id="path883" />
      <path
         d="m 54.717606,142.65093 q -0.826901,0 -1.277938,-0.35707 -0.451037,-0.33828 -0.451037,-0.8269 0,-0.48862 0.281898,-1.1088 0.488623,-0.95845 1.766561,-1.54104 0.958453,-0.45104 2.537082,-0.8457 1.578629,-0.37586 2.029666,-0.50741 0.676555,-1.18397 1.616215,-4.22847 -1.090006,1.9169 -1.822941,2.68743 -0.732934,0.77052 -1.484662,0.77052 -1.014833,0 -1.183972,-0.8457 -0.07517,-0.13155 -0.03759,-0.39465 0.03759,-0.26311 0.03759,-0.37587 0.01879,-0.11276 0.131552,-0.35707 0.11276,-0.2631 0.150346,-0.37586 0.206725,-0.43225 0.357071,-0.67656 -0.300691,0 -0.169139,-0.30069 l 0.338278,-0.65776 q 0.638968,-1.22156 1.052419,-2.06725 0.187932,-0.39466 0.732935,-0.39466 h 1.146385 q -0.03759,0.0376 -0.187932,0.15035 -0.338278,0.22551 -0.507417,0.5262 -0.676555,1.16518 -1.691388,3.3264 -0.41345,0.88328 -0.41345,1.29673 0,0.41345 0.131552,0.58259 0.150346,0.16914 0.394658,0.16914 0.35707,0 0.996039,-0.75173 1.334317,-1.55983 2.950532,-4.90502 0.206726,-0.39466 0.732935,-0.39466 h 1.014833 q -0.488623,0.33828 -0.770521,0.86449 -0.281898,0.50741 -0.620176,1.39069 -0.319484,0.88328 -0.826901,2.34915 -0.488623,1.46587 -0.751728,2.19881 1.766561,-0.52621 2.706221,-1.86053 0.413451,-0.58259 1.183972,-2.06725 0.131552,-0.26311 0.225518,-0.20673 0.112759,0.0564 0.112759,0.15035 0,0.094 -0.319484,0.73293 -0.300691,0.62018 -0.620176,1.16518 -0.319484,0.52621 -0.8269,1.09001 -0.507417,0.56379 -1.127592,0.88328 -0.620176,0.33828 -1.653802,0.71414 -1.447076,2.63105 -2.912946,3.8714 -1.371903,1.12759 -2.969325,1.12759 z M 53.6276,140.7904 q -0.206725,0.41345 -0.206725,0.75173 0,0.35707 0.263105,0.54501 0.263104,0.18793 0.657762,0.18793 1.090005,0 2.330356,-1.12759 1.240352,-1.1088 2.180012,-2.38674 l 0.41345,-0.69535 q -3.100878,0.80811 -3.908986,1.16518 -1.202764,0.52621 -1.728974,1.55983 z"
         style="font-style:normal;font-variant:normal;font-weight:normal;font-stretch:normal;font-size:18.7932px;line-height:1.25;font-family:'Great Vibes';-inkscape-font-specification:'Great Vibes';letter-spacing:0px;word-spacing:0px;fill:#000000;fill-opacity:1;stroke:none;stroke-width:0.469832"
         id="path885" />
      <path
         d="m 68.219345,130.13466 q 1.371903,0 1.371903,1.72897 0,0.78932 -0.41345,1.69139 -0.52621,1.22156 -1.578629,2.2176 0.244312,0.46983 0.88328,0.46983 0.507417,0 0.958454,-0.50742 0.563795,-0.58259 0.808107,-1.01483 0.244312,-0.45104 0.357071,-0.65776 0.112759,-0.20673 0.281898,-0.58259 0.187932,-0.39466 0.225518,-0.46983 0.03759,-0.094 0.131553,-0.094 0.187932,-0.0188 0.187932,0.13156 0,0.0564 -0.03759,0.13155 l -0.112759,0.2631 q -0.112759,0.26311 -0.169139,0.37587 -0.05638,0.11276 -0.206725,0.41345 -0.131552,0.2819 -0.244312,0.45103 -0.09397,0.16914 -0.281898,0.45104 -0.169138,0.2819 -0.319484,0.45104 -0.131552,0.16914 -0.338277,0.37586 -0.206726,0.20673 -0.394658,0.31949 -0.46983,0.28189 -0.88328,0.28189 -0.770521,0 -1.202765,-0.48862 -0.864487,0.63897 -1.597422,0.63897 -1.371903,0 -1.371903,-1.72897 0,-0.78932 0.41345,-1.69139 0.563796,-1.31553 1.578629,-2.23639 1.033626,-0.92087 1.954493,-0.92087 z m 0.206725,0.58259 q -0.507417,0 -1.202765,0.67655 -0.695348,0.67656 -1.240351,1.84174 -0.657762,1.35311 -0.657762,2.2176 0,0.86448 0.657762,0.86448 0.46983,0 1.052419,-0.50741 -0.300691,-0.43225 -0.300691,-0.92087 0.03759,-0.80811 0.657762,-0.80811 0.244311,0 0.394657,0.16914 0.169139,0.16914 0.169139,0.31949 0,0.13155 -0.03759,0.28189 0.319485,-0.46983 0.732935,-1.33431 0.46983,-0.95846 0.46983,-1.87932 0,-0.92087 -0.695348,-0.92087 z"
         style="font-style:normal;font-variant:normal;font-weight:normal;font-stretch:normal;font-size:18.7932px;line-height:1.25;font-family:'Great Vibes';-inkscape-font-specification:'Great Vibes';letter-spacing:0px;word-spacing:0px;fill:#000000;fill-opacity:1;stroke:none;stroke-width:0.469832"
         id="path887" />
      <path
         d="m 70.642493,135.20882 q 0,-1.55983 1.503456,-5.22451 h -0.977246 q -0.09397,0 -0.131552,-0.094 -0.01879,-0.11276 0.01879,-0.20673 0.05638,-0.11276 0.150345,-0.11276 h 1.127592 q 0.676556,-1.48466 1.259145,-2.4807 0.582589,-0.99604 1.071212,-1.33432 0.488623,-0.35707 0.695348,-0.35707 0.225519,0 0.319485,0.0376 0.432243,0.20673 0.432243,0.86449 0,0.63897 -0.432243,1.55983 -0.432244,0.92087 -0.845694,1.71018 h 0.902073 q 0.09397,0 0.11276,0.11276 0.03759,0.094 -0.01879,0.20673 -0.03759,0.094 -0.131552,0.094 h -1.090006 q -1.033625,1.74777 -2.499495,3.10088 l -0.432244,1.91691 q -0.05638,0.24431 -0.05638,0.48862 0,0.22552 0.131552,0.46983 0.131553,0.24431 0.413451,0.24431 0.319484,0 0.714141,-0.22551 0.902074,-0.67656 1.992079,-2.83778 0.07517,-0.16914 0.169139,-0.20672 0.112759,-0.0376 0.131552,0.0564 0.01879,0.0752 -0.05638,0.2631 -0.620176,1.29673 -0.977247,1.84174 -1.014832,1.635 -2.161217,1.635 -0.58259,0 -0.958454,-0.43224 -0.375864,-0.43224 -0.375864,-1.09001 z m 3.777433,-5.63796 q 1.240352,-2.21759 1.240352,-3.08208 0,-0.37586 -0.131553,-0.37586 -0.206725,0 -0.638969,0.60138 -0.41345,0.60138 -1.409489,2.85656 z m -0.244311,0.41345 h -0.88328 q -0.225519,0.52621 -1.014833,2.4995 1.014833,-1.05242 1.898113,-2.4995 z"
         style="font-style:normal;font-variant:normal;font-weight:normal;font-stretch:normal;font-size:18.7932px;line-height:1.25;font-family:'Great Vibes';-inkscape-font-specification:'Great Vibes';letter-spacing:0px;word-spacing:0px;fill:#000000;fill-opacity:1;stroke:none;stroke-width:0.469832"
         id="path889" />
      <path
         d="m 77.430949,129.40173 q -0.263105,0.22551 -0.582589,0.22551 -0.319484,0 -0.507416,-0.22551 -0.187932,-0.22552 -0.150346,-0.54501 0.05638,-0.31948 0.319484,-0.545 0.263105,-0.22552 0.58259,-0.22552 0.319484,0 0.507416,0.22552 0.206725,0.22552 0.150346,0.545 -0.05638,0.31949 -0.319485,0.54501 z m -1.841733,6.8971 q 0.35707,0 0.751728,-0.35707 0.695348,-0.69535 1.76656,-2.83777 0.131553,-0.2819 0.263105,-0.16914 0.03759,0.0376 0.03759,0.13155 0,0.0752 -0.150346,0.41345 -0.150346,0.31948 -0.281898,0.58259 -0.112759,0.2631 -0.46983,0.86449 -0.338278,0.58259 -0.620176,0.90207 -0.770521,0.88328 -1.465869,0.88328 -0.676555,0 -0.977247,-0.41345 -0.300691,-0.41345 -0.300691,-0.92087 0,-0.50741 0.244312,-1.1088 l 1.202765,-3.06329 q 0.03759,-0.11276 0.03759,-0.30069 0,-0.18793 -0.225518,-0.48862 l 1.033626,-0.0188 q 0.432243,0 0.507416,0.16913 0.07517,0.15035 -0.112759,0.48863 l -1.503456,3.51433 q -0.319485,0.69534 -0.319485,1.18397 0,0.545 0.58259,0.545 z"
         style="font-style:normal;font-variant:normal;font-weight:normal;font-stretch:normal;font-size:18.7932px;line-height:1.25;font-family:'Great Vibes';-inkscape-font-specification:'Great Vibes';letter-spacing:0px;word-spacing:0px;fill:#000000;fill-opacity:1;stroke:none;stroke-width:0.469832"
         id="path891" />
      <path
         d="m 62.094807,139.50184 h 0.864911 q 0.609793,0 0.879429,0.18252 0.271711,0.18045 0.271711,0.56831 0,0.26964 -0.147263,0.44594 -0.147263,0.17423 -0.429344,0.22608 v 0.0207 q 0.350527,0.0602 0.514383,0.24267 0.16593,0.18253 0.16593,0.48327 0,0.40653 -0.277933,0.63469 -0.277933,0.22815 -0.775723,0.22815 h -1.066101 z m 0.38164,1.2901 h 0.560014 q 0.356749,0 0.518531,-0.11407 0.161782,-0.11408 0.161782,-0.38164 0,-0.2489 -0.178375,-0.35883 -0.176301,-0.10992 -0.560014,-0.10992 h -0.501938 z m 0,0.31942 v 1.09929 h 0.611867 q 0.365046,0 0.541347,-0.14104 0.1763,-0.14104 0.1763,-0.42727 0,-0.27171 -0.186671,-0.40031 -0.186671,-0.13067 -0.560014,-0.13067 z"
         style="font-style:normal;font-variant:normal;font-weight:normal;font-stretch:normal;font-size:4.24781px;line-height:1.25;font-family:'Noto Sans';-inkscape-font-specification:'Noto Sans';font-variant-ligatures:normal;font-variant-caps:normal;font-variant-numeric:normal;font-variant-east-asian:normal;letter-spacing:0px;word-spacing:0px;fill:#000000;fill-opacity:1;stroke:none;stroke-width:0.106196"
         id="path843" />
      <path
         d="m 65.774307,142.57569 q -0.512309,0 -0.804761,-0.30904 -0.290378,-0.31112 -0.290378,-0.85454 0,-0.54757 0.271711,-0.87113 0.27171,-0.32564 0.734241,-0.32564 0.429344,0 0.684461,0.27793 0.255118,0.27586 0.255118,0.74876 v 0.22608 h -1.559743 q 0.01037,0.38786 0.197042,0.58905 0.186671,0.20119 0.528902,0.20119 0.182523,0 0.346379,-0.0311 0.163856,-0.0332 0.383713,-0.12652 v 0.32771 q -0.188745,0.0809 -0.354675,0.11408 -0.16593,0.0332 -0.39201,0.0332 z m -0.09334,-2.05546 q -0.267562,0 -0.423121,0.17216 -0.15556,0.17215 -0.184598,0.47912 h 1.159437 q -0.0041,-0.31942 -0.147263,-0.48535 -0.143115,-0.16593 -0.404455,-0.16593 z"
         style="font-style:normal;font-variant:normal;font-weight:normal;font-stretch:normal;font-size:4.24781px;line-height:1.25;font-family:'Noto Sans';-inkscape-font-specification:'Noto Sans';font-variant-ligatures:normal;font-variant-caps:normal;font-variant-numeric:normal;font-variant-east-asian:normal;letter-spacing:0px;word-spacing:0px;fill:#000000;fill-opacity:1;stroke:none;stroke-width:0.106196"
         id="path845" />
      <path
         d="m 68.609637,142.53421 -0.0726,-0.32356 h -0.01659 q -0.170078,0.21363 -0.340156,0.29037 -0.168004,0.0747 -0.425196,0.0747 -0.336008,0 -0.526828,-0.1763 -0.19082,-0.1763 -0.19082,-0.49779 0,-0.69276 1.093065,-0.72594 l 0.385787,-0.0145 v -0.13482 q 0,-0.25927 -0.112003,-0.38164 -0.112002,-0.12445 -0.358823,-0.12445 -0.180449,0 -0.342231,0.0539 -0.159708,0.0539 -0.300748,0.1203 l -0.114077,-0.28001 q 0.172152,-0.0913 0.375416,-0.14311 0.203265,-0.0519 0.402381,-0.0519 0.412751,0 0.613941,0.18252 0.20119,0.18252 0.20119,0.58075 v 1.55145 z m -0.769501,-0.25927 q 0.313193,0 0.491568,-0.168 0.180449,-0.17008 0.180449,-0.4812 v -0.20534 l -0.336008,0.0145 q -0.39201,0.0145 -0.572459,0.12445 -0.178375,0.10993 -0.178375,0.34638 0,0.17837 0.107855,0.27378 0.109928,0.0954 0.30697,0.0954 z"
         style="font-style:normal;font-variant:normal;font-weight:normal;font-stretch:normal;font-size:4.24781px;line-height:1.25;font-family:'Noto Sans';-inkscape-font-specification:'Noto Sans';font-variant-ligatures:normal;font-variant-caps:normal;font-variant-numeric:normal;font-variant-east-asian:normal;letter-spacing:0px;word-spacing:0px;fill:#000000;fill-opacity:1;stroke:none;stroke-width:0.106196"
         id="path847" />
      <path
         d="m 69.937078,140.25682 v 1.46641 q 0,0.27586 0.122373,0.41067 0.124448,0.13275 0.383713,0.13275 0.350528,0 0.510235,-0.19497 0.159708,-0.19497 0.159708,-0.62846 v -1.1864 h 0.375417 v 2.27739 h -0.306971 l -0.05393,-0.30075 h -0.01867 q -0.101632,0.16386 -0.288304,0.25305 -0.186671,0.0892 -0.433492,0.0892 -0.410677,0 -0.620164,-0.19704 -0.207412,-0.19704 -0.207412,-0.63053 v -1.4913 z"
         style="font-style:normal;font-variant:normal;font-weight:normal;font-stretch:normal;font-size:4.24781px;line-height:1.25;font-family:'Noto Sans';-inkscape-font-specification:'Noto Sans';font-variant-ligatures:normal;font-variant-caps:normal;font-variant-numeric:normal;font-variant-east-asian:normal;letter-spacing:0px;word-spacing:0px;fill:#000000;fill-opacity:1;stroke:none;stroke-width:0.106196"
         id="path849" />
      <path
         d="m 72.975672,142.2708 q 0.07259,0 0.170078,-0.0145 0.09748,-0.0145 0.147263,-0.0332 v 0.28623 q -0.05185,0.0228 -0.161781,0.0436 -0.107855,0.0228 -0.219858,0.0228 -0.667868,0 -0.667868,-0.70313 v -1.32536 h -0.32149 v -0.17838 l 0.325638,-0.14933 0.149337,-0.48535 h 0.221931 v 0.52268 h 0.657498 v 0.29038 h -0.657498 v 1.31499 q 0,0.19705 0.09334,0.30283 0.09541,0.10578 0.263414,0.10578 z"
         style="font-style:normal;font-variant:normal;font-weight:normal;font-stretch:normal;font-size:4.24781px;line-height:1.25;font-family:'Noto Sans';-inkscape-font-specification:'Noto Sans';font-variant-ligatures:normal;font-variant-caps:normal;font-variant-numeric:normal;font-variant-east-asian:normal;letter-spacing:0px;word-spacing:0px;fill:#000000;fill-opacity:1;stroke:none;stroke-width:0.106196"
         id="path851" />
      <path
         d="m 73.392572,140.25682 h 0.400306 l 0.491568,1.29633 q 0.15556,0.42312 0.19082,0.62016 h 0.01659 q 0.01867,-0.0767 0.08504,-0.28623 0.06637,-0.21156 0.112003,-0.33808 l 0.46253,-1.29218 h 0.40238 l -0.981061,2.59266 q -0.143115,0.37749 -0.340157,0.54134 -0.197042,0.16386 -0.487419,0.16386 -0.15556,0 -0.309045,-0.0353 v -0.2966 q 0.103706,0.0249 0.248895,0.0249 0.178375,0 0.302822,-0.0996 0.124448,-0.0975 0.203265,-0.30282 l 0.118225,-0.30282 z"
         style="font-style:normal;font-variant:normal;font-weight:normal;font-stretch:normal;font-size:4.24781px;line-height:1.25;font-family:'Noto Sans';-inkscape-font-specification:'Noto Sans';font-variant-ligatures:normal;font-variant-caps:normal;font-variant-numeric:normal;font-variant-east-asian:normal;letter-spacing:0px;word-spacing:0px;fill:#000000;fill-opacity:1;stroke:none;stroke-width:0.106196"
         id="path853" />
      <path
         d="m 79.011379,140.39371 q 0,0.46461 -0.317342,0.7135 -0.317341,0.24682 -0.893948,0.24682 h -0.348453 v 1.18018 h -0.381639 v -3.03237 h 0.802686 q 1.138696,0 1.138696,0.89187 z m -1.559743,0.63261 h 0.304896 q 0.45216,0 0.655424,-0.14519 0.203265,-0.14726 0.203265,-0.47082 0,-0.29246 -0.188746,-0.43765 -0.188745,-0.14518 -0.589052,-0.14518 h -0.385787 z"
         style="font-style:normal;font-variant:normal;font-weight:normal;font-stretch:normal;font-size:4.24781px;line-height:1.25;font-family:'Noto Sans';-inkscape-font-specification:'Noto Sans';font-variant-ligatures:normal;font-variant-caps:normal;font-variant-numeric:normal;font-variant-east-asian:normal;letter-spacing:0px;word-spacing:0px;fill:#000000;fill-opacity:1;stroke:none;stroke-width:0.106196"
         id="path855" />
      <path
         d="m 80.996318,142.53421 -0.0726,-0.32356 h -0.01659 q -0.170078,0.21363 -0.340157,0.29037 -0.168004,0.0747 -0.425195,0.0747 -0.336009,0 -0.526828,-0.1763 -0.19082,-0.1763 -0.19082,-0.49779 0,-0.69276 1.093064,-0.72594 l 0.385788,-0.0145 v -0.13482 q 0,-0.25927 -0.112003,-0.38164 -0.112003,-0.12445 -0.358824,-0.12445 -0.180449,0 -0.342231,0.0539 -0.159707,0.0539 -0.300748,0.1203 l -0.114077,-0.28001 q 0.172153,-0.0913 0.375417,-0.14311 0.203264,-0.0519 0.402381,-0.0519 0.412751,0 0.613941,0.18252 0.20119,0.18252 0.20119,0.58075 v 1.55145 z m -0.769501,-0.25927 q 0.313193,0 0.491568,-0.168 0.180449,-0.17008 0.180449,-0.4812 v -0.20534 l -0.336009,0.0145 q -0.39201,0.0145 -0.572459,0.12445 -0.178374,0.10993 -0.178374,0.34638 0,0.17837 0.107854,0.27378 0.109929,0.0954 0.306971,0.0954 z"
         style="font-style:normal;font-variant:normal;font-weight:normal;font-stretch:normal;font-size:4.24781px;line-height:1.25;font-family:'Noto Sans';-inkscape-font-specification:'Noto Sans';font-variant-ligatures:normal;font-variant-caps:normal;font-variant-numeric:normal;font-variant-east-asian:normal;letter-spacing:0px;word-spacing:0px;fill:#000000;fill-opacity:1;stroke:none;stroke-width:0.106196"
         id="path857" />
      <path
         d="m 83.033108,140.21534 q 0.151412,0 0.267563,0.0249 l -0.04563,0.3443 q -0.126522,-0.029 -0.246821,-0.029 -0.180449,0 -0.336008,0.0996 -0.153486,0.0996 -0.240599,0.27586 -0.08711,0.17423 -0.08711,0.38786 v 1.21544 H 81.97116 v -2.27739 h 0.306971 l 0.04148,0.4169 h 0.01659 q 0.13067,-0.22608 0.309045,-0.34223 0.178375,-0.11615 0.387861,-0.11615 z"
         style="font-style:normal;font-variant:normal;font-weight:normal;font-stretch:normal;font-size:4.24781px;line-height:1.25;font-family:'Noto Sans';-inkscape-font-specification:'Noto Sans';font-variant-ligatures:normal;font-variant-caps:normal;font-variant-numeric:normal;font-variant-east-asian:normal;letter-spacing:0px;word-spacing:0px;fill:#000000;fill-opacity:1;stroke:none;stroke-width:0.106196"
         id="path859" />
      <path
         d="m 84.103358,142.53421 h -0.373342 v -3.22734 h 0.373342 z"
         style="font-style:normal;font-variant:normal;font-weight:normal;font-stretch:normal;font-size:4.24781px;line-height:1.25;font-family:'Noto Sans';-inkscape-font-specification:'Noto Sans';font-variant-ligatures:normal;font-variant-caps:normal;font-variant-numeric:normal;font-variant-east-asian:normal;letter-spacing:0px;word-spacing:0px;fill:#000000;fill-opacity:1;stroke:none;stroke-width:0.106196"
         id="path861" />
      <path
         d="m 86.80387,141.39137 q 0,0.55794 -0.282081,0.87113 -0.282081,0.31319 -0.779871,0.31319 -0.309045,0 -0.547569,-0.14311 -0.238525,-0.14519 -0.367121,-0.41483 -0.128595,-0.26963 -0.128595,-0.62638 0,-0.55587 0.277932,-0.86491 0.277933,-0.31112 0.779872,-0.31112 0.481197,0 0.763278,0.31734 0.284155,0.31527 0.284155,0.85869 z m -1.71945,0 q 0,0.42934 0.168004,0.65335 0.170078,0.22193 0.499864,0.22193 0.325638,0 0.495717,-0.22193 0.170078,-0.22401 0.170078,-0.65335 0,-0.42935 -0.172153,-0.64506 -0.170078,-0.21778 -0.499864,-0.21778 -0.661646,0 -0.661646,0.86284 z"
         style="font-style:normal;font-variant:normal;font-weight:normal;font-stretch:normal;font-size:4.24781px;line-height:1.25;font-family:'Noto Sans';-inkscape-font-specification:'Noto Sans';font-variant-ligatures:normal;font-variant-caps:normal;font-variant-numeric:normal;font-variant-east-asian:normal;letter-spacing:0px;word-spacing:0px;fill:#000000;fill-opacity:1;stroke:none;stroke-width:0.106196"
         id="path863" />
      <path
         d="m 87.74967,140.25682 v 1.46641 q 0,0.27586 0.122374,0.41067 0.124447,0.13275 0.383713,0.13275 0.350527,0 0.510235,-0.19497 0.159708,-0.19497 0.159708,-0.62846 v -1.1864 h 0.375416 v 2.27739 h -0.30697 l -0.05393,-0.30075 h -0.01867 q -0.101632,0.16386 -0.288303,0.25305 -0.186671,0.0892 -0.433492,0.0892 -0.410677,0 -0.620164,-0.19704 -0.207413,-0.19704 -0.207413,-0.63053 v -1.4913 z"
         style="font-style:normal;font-variant:normal;font-weight:normal;font-stretch:normal;font-size:4.24781px;line-height:1.25;font-family:'Noto Sans';-inkscape-font-specification:'Noto Sans';font-variant-ligatures:normal;font-variant-caps:normal;font-variant-numeric:normal;font-variant-east-asian:normal;letter-spacing:0px;word-spacing:0px;fill:#000000;fill-opacity:1;stroke:none;stroke-width:0.106196"
         id="path865" />
      <path
         d="m 91.089015,140.21534 q 0.151411,0 0.267562,0.0249 l -0.04563,0.3443 q -0.126521,-0.029 -0.246821,-0.029 -0.180449,0 -0.336008,0.0996 -0.153485,0.0996 -0.240599,0.27586 -0.08711,0.17423 -0.08711,0.38786 v 1.21544 h -0.373343 v -2.27739 h 0.306971 l 0.04148,0.4169 h 0.01659 q 0.13067,-0.22608 0.309045,-0.34223 0.178375,-0.11615 0.387862,-0.11615 z"
         style="font-style:normal;font-variant:normal;font-weight:normal;font-stretch:normal;font-size:4.24781px;line-height:1.25;font-family:'Noto Sans';-inkscape-font-specification:'Noto Sans';font-variant-ligatures:normal;font-variant-caps:normal;font-variant-numeric:normal;font-variant-east-asian:normal;letter-spacing:0px;word-spacing:0px;fill:#000000;fill-opacity:1;stroke:none;stroke-width:0.106196"
         id="path867" />
    </g>
  </g>
</svg>
