<?xml version="1.0" encoding="UTF-8" standalone="no"?>
<svg
   xmlns:dc="http://purl.org/dc/elements/1.1/"
   xmlns:cc="http://creativecommons.org/ns#"
   xmlns:rdf="http://www.w3.org/1999/02/22-rdf-syntax-ns#"
   xmlns:svg="http://www.w3.org/2000/svg"
   xmlns="http://www.w3.org/2000/svg"
   xmlns:xlink="http://www.w3.org/1999/xlink"
   width="500"
   height="500"
   viewBox="0 0 132.29166 132.29167"
   version="1.1"
   id="svg8">
  <defs
     id="defs2">
    <linearGradient
       xlink:href="#linearGradient918"
       id="linearGradient920"
       x1="155.25372"
       y1="240.48735"
       x2="170.08928"
       y2="233.87277"
       gradientUnits="userSpaceOnUse"
       gradientTransform="translate(-97.280585,-167.13445)" />
    <linearGradient
       id="linearGradient918">
      <stop
         style="stop-color:#f78d20;stop-opacity:1"
         offset="0"
         id="stop914" />
      <stop
         style="stop-color:#931b3d;stop-opacity:1"
         offset="1"
         id="stop916" />
    </linearGradient>
    <linearGradient
       xlink:href="#linearGradient918"
       id="linearGradient922"
       x1="176.79475"
       y1="241.40016"
       x2="173.61356"
       y2="237.98885"
       gradientUnits="userSpaceOnUse"
       gradientTransform="translate(-97.280585,-167.13445)" />
    <linearGradient
       xlink:href="#linearGradient928"
       id="linearGradient930"
       x1="178.97173"
       y1="233.02232"
       x2="180.68971"
       y2="237.64867"
       gradientUnits="userSpaceOnUse"
       gradientTransform="translate(-97.280585,-167.13445)" />
    <linearGradient
       id="linearGradient928">
      <stop
         style="stop-color:#f78d20;stop-opacity:1;"
         offset="0"
         id="stop924" />
      <stop
         style="stop-color:#931a3d;stop-opacity:1"
         offset="1"
         id="stop926" />
    </linearGradient>
    <linearGradient
       xlink:href="#linearGradient958"
       id="linearGradient952"
       x1="154.68675"
       y1="227.91965"
       x2="170.27827"
       y2="228.5811"
       gradientUnits="userSpaceOnUse"
       gradientTransform="translate(-97.280585,-167.13445)" />
    <linearGradient
       id="linearGradient958">
      <stop
         style="stop-color:#931a3d;stop-opacity:1"
         offset="0"
         id="stop954" />
      <stop
         style="stop-color:#f68c1c;stop-opacity:1"
         offset="1"
         id="stop956" />
    </linearGradient>
  </defs>
  <metadata
     id="metadata5">
    <rdf:RDF>
      <cc:Work
         rdf:about="">
        <dc:format>image/svg+xml</dc:format>
        <dc:type
           rdf:resource="http://purl.org/dc/dcmitype/StillImage" />
        <dc:title></dc:title>
      </cc:Work>
    </rdf:RDF>
  </metadata>
  <g
     id="layer1">
    <g
       id="g995"
       transform="matrix(3.0109901,0,0,3.0109901,-137.62408,-159.41922)">
      <path
         id="path847"
         style="fill:url(#linearGradient920);fill-opacity:1;stroke-width:0.516276;stroke-linecap:square;stroke-linejoin:bevel;paint-order:stroke fill markers"
         d="m 65.22405,57.10477 c -7.25581,0.022 -14.43718,2.93922 -14.43736,5.21146 0,8.32944 4.83551,13.9242 14.56551,13.9242 10.0724,0.45252 14.5387,-6.35123 14.5387,-14.32258 -5.3e-4,-2.28782 -7.2328,-4.81308 -14.5387,-4.81308 -0.0427,-7e-5 -0.0854,-7e-5 -0.12815,0 z" />
      <path
         id="path878"
         style="fill:url(#linearGradient922);fill-opacity:1;stroke-width:0.577986;stroke-linecap:square;stroke-linejoin:bevel;paint-order:stroke fill markers"
         d="m 78.5447,64.43148 a 4.9627373,4.9627373 0 0 0 -0.0409,6.5e-4 4.5612798,4.5612798 0 0 1 0.13543,0.2904 4.0869603,4.0869603 0 0 1 0.39246,-0.0932 4.0869603,4.0869603 0 0 1 0.67215,-0.0674 4.9627373,4.9627373 0 0 0 -1.1591,-0.13039 z m 4.86443,6.08273 a 4.0869603,4.0869603 0 0 1 -2.89586,2.15315 4.0869603,4.0869603 0 0 1 -4.1803,-1.81297 4.5612798,4.5612798 0 0 1 -2.11472,0.9153 4.9627373,4.9627373 0 0 0 5.25562,2.50466 4.9627373,4.9627373 0 0 0 0.0403,-0.008 v -6.4e-4 a 4.9627373,4.9627373 0 0 0 3.89494,-3.75195 z" />
      <path
         id="path860"
         style="fill:url(#linearGradient930);fill-opacity:1;stroke-width:0.645063;stroke-linecap:square;stroke-linejoin:bevel;paint-order:stroke fill markers"
         d="m 79.62785,63.45804 a 4.5612798,4.5612798 0 0 0 -2.73838,1.57044 4.5612798,4.5612798 0 0 1 0.67027,-0.0497 4.5612798,4.5612798 0 0 1 4.5608,4.56142 4.5612798,4.5612798 0 0 1 -4.5608,4.56079 4.5612798,4.5612798 0 0 1 -0.75215,-0.0624 5.5386966,5.5386966 0 0 0 2.21803,0.46428 5.5386966,5.5386966 0 0 0 5.53846,-5.5391 5.5386966,5.5386966 0 0 0 -4.93623,-5.50571 z" />
      <ellipse
         style="fill:url(#linearGradient952);fill-opacity:1;stroke-width:0.573134;stroke-linecap:square;stroke-linejoin:bevel;paint-order:stroke fill markers"
         id="path858"
         cx="65.419708"
         cy="61.781898"
         rx="12.227582"
         ry="3.4745038" />
      <path
         id="ellipse940"
         style="fill:#560000;fill-opacity:1;stroke-width:0.573135;stroke-linecap:square;stroke-linejoin:bevel;paint-order:stroke fill markers"
         d="m 65.26505,59.8951 a 12.227582,3.4745038 0 0 0 -11.74916,2.68045 12.227582,3.4745038 0 0 0 11.90367,2.68098 12.227582,3.4745038 0 0 0 11.90418,-2.68098 12.227582,3.4745038 0 0 0 -11.90418,-2.68045 12.227582,3.4745038 0 0 0 -0.15451,0 z" />
      <path
         d="m 51.800359,91.435944 h 0.321792 V 89.58028 h 1.549962 v -0.273523 h -1.549962 v -1.507056 h 1.834211 v -0.273523 h -2.156003 z"
         style="font-style:normal;font-variant:normal;font-weight:300;font-stretch:normal;font-size:5.36319px;line-height:1.25;font-family:'Noto Sans CJK TC';-inkscape-font-specification:'Noto Sans CJK TC Light';letter-spacing:0px;word-spacing:0px;fill:#000000;fill-opacity:1;stroke:none;stroke-width:0.13408"
         id="path922" />
      <path
         d="m 55.066531,91.505665 c 0.364696,0 0.707941,-0.198438 0.997553,-0.434418 h 0.01073 l 0.03218,0.364697 h 0.262797 v -1.812759 c 0,-0.632856 -0.241344,-1.120906 -0.922469,-1.120906 -0.466598,0 -0.863474,0.225254 -1.083364,0.375423 l 0.139443,0.225254 c 0.198438,-0.150169 0.525592,-0.327155 0.901016,-0.327155 0.541682,0 0.665035,0.439782 0.654309,0.863474 -1.26035,0.144806 -1.823485,0.445145 -1.823485,1.078001 0,0.530956 0.37006,0.788389 0.831295,0.788389 z m 0.06436,-0.262796 c -0.316428,0 -0.584588,-0.15017 -0.584588,-0.541682 0,-0.439782 0.38615,-0.702578 1.51242,-0.831295 v 0.927832 c -0.337881,0.294975 -0.611404,0.445145 -0.927832,0.445145 z"
         style="font-style:normal;font-variant:normal;font-weight:300;font-stretch:normal;font-size:5.36319px;line-height:1.25;font-family:'Noto Sans CJK TC';-inkscape-font-specification:'Noto Sans CJK TC Light';letter-spacing:0px;word-spacing:0px;fill:#000000;fill-opacity:1;stroke:none;stroke-width:0.13408"
         id="path924" />
      <path
         d="m 57.367334,91.435944 h 0.311065 v -2.139913 c 0.300338,-0.343244 0.573861,-0.514867 0.825931,-0.514867 0.423692,0 0.616767,0.273523 0.616767,0.868837 v 1.785943 h 0.311065 v -2.139913 c 0.305702,-0.343244 0.568498,-0.514867 0.825931,-0.514867 0.418329,0 0.616767,0.273523 0.616767,0.868837 v 1.785943 h 0.311065 v -1.828848 c 0,-0.734757 -0.284249,-1.104817 -0.85811,-1.104817 -0.332518,0 -0.643583,0.230617 -0.965375,0.579224 -0.1019,-0.348607 -0.332517,-0.579224 -0.788389,-0.579224 -0.321791,0 -0.643582,0.225254 -0.901016,0.509503 h -0.01073 l -0.03754,-0.434419 h -0.257433 z"
         style="font-style:normal;font-variant:normal;font-weight:300;font-stretch:normal;font-size:5.36319px;line-height:1.25;font-family:'Noto Sans CJK TC';-inkscape-font-specification:'Noto Sans CJK TC Light';letter-spacing:0px;word-spacing:0px;fill:#000000;fill-opacity:1;stroke:none;stroke-width:0.13408"
         id="path926" />
      <path
         d="m 62.215654,91.435944 h 0.311065 v -2.858581 h -0.311065 z m 0.160895,-3.52898 c 0.139443,0 0.262797,-0.1019 0.262797,-0.246706 0,-0.160896 -0.123354,-0.257433 -0.262797,-0.257433 -0.144806,0 -0.262796,0.09654 -0.262796,0.257433 0,0.144806 0.11799,0.246706 0.262796,0.246706 z"
         style="font-style:normal;font-variant:normal;font-weight:300;font-stretch:normal;font-size:5.36319px;line-height:1.25;font-family:'Noto Sans CJK TC';-inkscape-font-specification:'Noto Sans CJK TC Light';letter-spacing:0px;word-spacing:0px;fill:#000000;fill-opacity:1;stroke:none;stroke-width:0.13408"
         id="path928" />
      <path
         d="m 63.97478,91.505665 c 0.101901,0 0.155532,-0.01609 0.209164,-0.03218 l -0.04827,-0.246707 c -0.059,0.01073 -0.08045,0.01073 -0.101901,0.01073 -0.07509,0 -0.128717,-0.059 -0.128717,-0.193075 v -3.872224 h -0.311065 v 3.840045 c 0,0.332517 0.123354,0.493413 0.380787,0.493413 z"
         style="font-style:normal;font-variant:normal;font-weight:300;font-stretch:normal;font-size:5.36319px;line-height:1.25;font-family:'Noto Sans CJK TC';-inkscape-font-specification:'Noto Sans CJK TC Light';letter-spacing:0px;word-spacing:0px;fill:#000000;fill-opacity:1;stroke:none;stroke-width:0.13408"
         id="path930" />
      <path
         d="m 64.945509,92.723109 c 0.525592,0 0.815204,-0.461234 0.986827,-0.954648 l 1.115543,-3.191098 h -0.316428 l -0.584588,1.7484 c -0.08045,0.246707 -0.171622,0.547046 -0.257433,0.804479 H 65.86261 C 65.760713,90.872809 65.65345,90.57247 65.562275,90.325763 l -0.665035,-1.7484 h -0.337881 l 1.169175,2.901486 -0.07508,0.241344 c -0.139443,0.412965 -0.37006,0.72403 -0.713305,0.72403 -0.08045,0 -0.171622,-0.02145 -0.230617,-0.0429 l -0.06972,0.262796 c 0.08045,0.03754 0.193075,0.05899 0.305702,0.05899 z"
         style="font-style:normal;font-variant:normal;font-weight:300;font-stretch:normal;font-size:5.36319px;line-height:1.25;font-family:'Noto Sans CJK TC';-inkscape-font-specification:'Noto Sans CJK TC Light';letter-spacing:0px;word-spacing:0px;fill:#000000;fill-opacity:1;stroke:none;stroke-width:0.13408"
         id="path932" />
      <path
         d="m 70.281872,91.505665 c 0.50414,0 0.868837,-0.209164 1.169175,-0.557772 l -0.182348,-0.203801 c -0.278886,0.305702 -0.573861,0.471961 -0.970737,0.471961 -0.820569,0 -1.330072,-0.681125 -1.330072,-1.7484 0,-1.056549 0.52023,-1.721584 1.346161,-1.721584 0.359334,0 0.63822,0.155532 0.847384,0.391513 l 0.182349,-0.209165 c -0.209165,-0.246707 -0.568499,-0.471961 -1.029733,-0.471961 -0.99219,0 -1.684042,0.7723 -1.684042,2.021923 0,1.249624 0.686489,2.027286 1.651863,2.027286 z"
         style="font-style:normal;font-variant:normal;font-weight:300;font-stretch:normal;font-size:5.36319px;line-height:1.25;font-family:'Noto Sans CJK TC';-inkscape-font-specification:'Noto Sans CJK TC Light';letter-spacing:0px;word-spacing:0px;fill:#000000;fill-opacity:1;stroke:none;stroke-width:0.13408"
         id="path934" />
      <path
         d="m 73.2638,91.505665 c 0.691852,0 1.292529,-0.547045 1.292529,-1.49633 0,-0.954648 -0.600677,-1.507056 -1.292529,-1.507056 -0.691851,0 -1.292529,0.552408 -1.292529,1.507056 0,0.949285 0.600678,1.49633 1.292529,1.49633 z m 0,-0.268159 c -0.557772,0 -0.965374,-0.498777 -0.965374,-1.228171 0,-0.729394 0.407602,-1.233534 0.965374,-1.233534 0.557772,0 0.970738,0.50414 0.970738,1.233534 0,0.729394 -0.412966,1.228171 -0.970738,1.228171 z"
         style="font-style:normal;font-variant:normal;font-weight:300;font-stretch:normal;font-size:5.36319px;line-height:1.25;font-family:'Noto Sans CJK TC';-inkscape-font-specification:'Noto Sans CJK TC Light';letter-spacing:0px;word-spacing:0px;fill:#000000;fill-opacity:1;stroke:none;stroke-width:0.13408"
         id="path936" />
      <path
         d="m 78.214024,87.199023 c -0.13408,-0.05899 -0.284249,-0.09654 -0.429056,-0.09654 -0.482687,0 -0.734757,0.305702 -0.734757,0.8742 v 0.600677 h -1.297892 v -0.477324 c 0,-0.429055 0.171622,-0.675762 0.498777,-0.675762 0.13408,0 0.26816,0.02682 0.402239,0.09117 l 0.08045,-0.25207 c -0.155532,-0.06436 -0.327154,-0.101901 -0.493413,-0.101901 -0.509503,0 -0.799116,0.321791 -0.799116,0.917106 v 0.498776 l -0.396876,0.02682 v 0.235981 h 0.396876 v 2.595784 h 0.311065 v -2.59578 h 1.297892 v 2.595784 h 0.311065 V 88.84016 h 0.648946 v -0.262797 h -0.648946 v -0.584587 c 0,-0.40224 0.13408,-0.627494 0.439782,-0.627494 0.107264,0 0.219891,0.02682 0.337881,0.08045 z"
         style="font-style:normal;font-variant:normal;font-weight:300;font-stretch:normal;font-size:5.36319px;line-height:1.25;font-family:'Noto Sans CJK TC';-inkscape-font-specification:'Noto Sans CJK TC Light';letter-spacing:0px;word-spacing:0px;fill:#000000;fill-opacity:1;stroke:none;stroke-width:0.13408"
         id="path938" />
      <path
         d="m 79.635258,91.505665 c 0.412966,0 0.681125,-0.13408 0.911743,-0.278886 L 80.42901,90.996162 c -0.214527,0.150169 -0.455871,0.246707 -0.761573,0.246707 -0.616766,0 -1.029732,-0.488051 -1.045822,-1.185265 h 2.027286 c 0.01073,-0.06972 0.01609,-0.144806 0.01609,-0.225254 0,-0.836658 -0.412966,-1.330071 -1.104817,-1.330071 -0.648946,0 -1.254987,0.579224 -1.254987,1.507056 0,0.938558 0.595314,1.49633 1.330071,1.49633 z m -1.013643,-1.694768 c 0.05899,-0.654309 0.477324,-1.040459 0.943922,-1.040459 0.498777,0 0.815205,0.348607 0.815205,1.040459 z"
         style="font-style:normal;font-variant:normal;font-weight:300;font-stretch:normal;font-size:5.36319px;line-height:1.25;font-family:'Noto Sans CJK TC';-inkscape-font-specification:'Noto Sans CJK TC Light';letter-spacing:0px;word-spacing:0px;fill:#000000;fill-opacity:1;stroke:none;stroke-width:0.13408"
         id="path940" />
      <path
         d="m 82.520646,91.505665 c 0.412965,0 0.681125,-0.13408 0.911742,-0.278886 l -0.11799,-0.230617 c -0.214528,0.150169 -0.455871,0.246707 -0.761573,0.246707 -0.616767,0 -1.029733,-0.488051 -1.045822,-1.185265 h 2.027286 c 0.01073,-0.06972 0.01609,-0.144806 0.01609,-0.225254 0,-0.836658 -0.412965,-1.330071 -1.104817,-1.330071 -0.648946,0 -1.254986,0.579224 -1.254986,1.507056 0,0.938558 0.595314,1.49633 1.330071,1.49633 z m -1.013643,-1.694768 c 0.05899,-0.654309 0.477324,-1.040459 0.943921,-1.040459 0.498777,0 0.815205,0.348607 0.815205,1.040459 z"
         style="font-style:normal;font-variant:normal;font-weight:300;font-stretch:normal;font-size:5.36319px;line-height:1.25;font-family:'Noto Sans CJK TC';-inkscape-font-specification:'Noto Sans CJK TC Light';letter-spacing:0px;word-spacing:0px;fill:#000000;fill-opacity:1;stroke:none;stroke-width:0.13408"
         id="path942" />
      <path
         d="m 60.63895,85.78385 c 0,0.12251 -0.0573,0.18376 -0.17191,0.18376 h -2.09848 c -0.11461,0 -0.17191,-0.0692 -0.17191,-0.20747 0,-0.39915 0.0138,-0.99788 0.0415,-1.79617 0.0316,-0.79829 0.0474,-1.39701 0.0474,-1.79616 0,-0.11461 -0.0178,-0.17586 -0.0534,-0.18377 -0.0435,0.0237 -0.30825,0.63431 -0.79434,1.83173 -0.28454,0.70345 -0.56908,1.40493 -0.85362,2.10442 -0.0395,0.0909 -0.0889,0.14424 -0.1482,0.16005 -0.0197,0.004 -0.0988,0.006 -0.23712,0.006 -0.2055,0 -0.32801,-0.0395 -0.36753,-0.11856 -0.21341,-0.43471 -0.49399,-1.06702 -0.84176,-1.89693 -0.37149,-0.87733 -0.6501,-1.51162 -0.83584,-1.90287 -0.008,-0.0197 -0.0257,-0.0415 -0.0533,-0.0652 -0.0277,0.0355 -0.0415,0.0928 -0.0415,0.17191 0,0.38729 0.01,0.96823 0.0296,1.74281 0.0197,0.77459 0.0296,1.35553 0.0296,1.74282 0,0.13831 -0.0553,0.20747 -0.16598,0.20747 h -1.97993 c -0.079,0 -0.12844,-0.0119 -0.1482,-0.0356 -0.0158,-0.0277 -0.0237,-0.0731 -0.0237,-0.13635 0,-0.43076 0.0198,-1.0769 0.0593,-1.93843 0.0435,-0.86548 0.0652,-1.5136 0.0652,-1.94436 0,-0.45843 -0.0198,-1.31798 -0.0593,-2.57865 -0.004,-0.32801 -0.0218,-0.81608 -0.0533,-1.4642 l -0.006,-0.10077 c -0.004,-0.079 0.079,-0.11856 0.24897,-0.11856 0.21736,0 0.5434,-0.006 0.97811,-0.0178 0.43471,-0.0158 0.76075,-0.0237 0.97811,-0.0237 0.0435,0 0.10472,0.083 0.18376,0.24898 l 1.73096,3.7998 c 0.12251,0.25687 0.22526,0.38531 0.30825,0.38531 0.0435,0 0.13634,-0.1482 0.27861,-0.44459 0.39915,-0.82991 0.98996,-2.08071 1.77245,-3.75238 0.0672,-0.15413 0.1403,-0.23119 0.21934,-0.23119 0.11461,0 0.28652,0.006 0.51573,0.0178 0.23317,0.0119 0.40903,0.0178 0.52758,0.0178 0.0988,0 0.24898,-0.01 0.45053,-0.0296 0.2055,-0.0197 0.35765,-0.0296 0.45645,-0.0296 0.11855,0 0.17783,0.0474 0.17783,0.14227 0,0.46633 -0.0178,1.16385 -0.0533,2.09256 -0.0316,0.92475 -0.0474,1.6203 -0.0474,2.08663 0,0.43076 0.0178,1.0769 0.0533,1.93843 0.0355,0.86153 0.0533,1.5057 0.0533,1.93251 z"
         style="font-style:normal;font-variant:normal;font-weight:normal;font-stretch:normal;font-size:12.1404px;line-height:1.25;font-family:'Berlin Sans FB Demi';-inkscape-font-specification:'Berlin Sans FB Demi';letter-spacing:0px;word-spacing:0px;fill:#000000;fill-opacity:1;stroke:none;stroke-width:0.303512"
         id="path1012" />
      <path
         d="m 67.13004,82.74875 c 0,0.39915 -0.12844,0.62638 -0.38532,0.68171 -0.0435,0.008 -0.45249,0.0514 -1.22708,0.13041 -0.46633,0.0514 -1.16188,0.11266 -2.08663,0.18377 0.0553,0.25688 0.22329,0.4525 0.50387,0.58686 0.22921,0.11066 0.49004,0.16599 0.78249,0.16599 0.35172,0 0.70542,-0.0948 1.0611,-0.28454 l 0.45052,-0.28454 c 0.083,0.0395 0.22131,0.24108 0.41496,0.60464 0.19759,0.36358 0.29639,0.59477 0.29639,0.69357 0,0.0277 -0.0296,0.0731 -0.0889,0.13634 -0.48213,0.51771 -1.23103,0.77656 -2.24668,0.77656 -0.94057,0 -1.69934,-0.27466 -2.27633,-0.82398 -0.59279,-0.55723 -0.88919,-1.30217 -0.88919,-2.23483 0,-0.90895 0.26478,-1.65389 0.79435,-2.23483 0.54537,-0.60069 1.26857,-0.90104 2.16962,-0.90104 0.75877,0 1.40294,0.27664 1.9325,0.82991 0.52957,0.55327 0.79435,1.21127 0.79435,1.974 z"
         style="font-style:normal;font-variant:normal;font-weight:normal;font-stretch:normal;font-size:12.1404px;line-height:1.25;font-family:'Berlin Sans FB Demi';-inkscape-font-specification:'Berlin Sans FB Demi';letter-spacing:0px;word-spacing:0px;fill:#000000;fill-opacity:1;stroke:none;stroke-width:0.303512"
         id="path1014" />
      <path
         d="m 73.21209,82.74875 c 0,0.39915 -0.12844,0.62638 -0.38531,0.68171 -0.0435,0.008 -0.4525,0.0514 -1.22709,0.13041 -0.46633,0.0514 -1.16187,0.11266 -2.08663,0.18377 0.0553,0.25688 0.22329,0.4525 0.50388,0.58686 0.22921,0.11066 0.49004,0.16599 0.78248,0.16599 0.35173,0 0.70543,-0.0948 1.0611,-0.28454 0.15017,-0.0949 0.30035,-0.18969 0.45053,-0.28454 0.083,0.0395 0.2213,0.24108 0.41495,0.60464 0.1976,0.36358 0.2964,0.59477 0.2964,0.69357 0,0.0277 -0.0296,0.0731 -0.0889,0.13634 -0.48214,0.51771 -1.23104,0.77656 -2.24669,0.77656 -0.94056,0 -1.69933,-0.27466 -2.27632,-0.82398 -0.59279,-0.55723 -0.88919,-1.30217 -0.88919,-2.23483 0,-0.90895 0.26478,-1.65389 0.79434,-2.23483 0.54537,-0.60069 1.26858,-0.90104 2.16962,-0.90104 0.75878,0 1.40295,0.27664 1.93251,0.82991 0.52956,0.55327 0.79434,1.21127 0.79434,1.974 z"
         style="font-style:normal;font-variant:normal;font-weight:normal;font-stretch:normal;font-size:12.1404px;line-height:1.25;font-family:'Berlin Sans FB Demi';-inkscape-font-specification:'Berlin Sans FB Demi';letter-spacing:0px;word-spacing:0px;fill:#000000;fill-opacity:1;stroke:none;stroke-width:0.303512"
         id="path1016" />
      <path
         d="m 77.82995,84.23073 c 0,0.11856 -0.0158,0.29837 -0.0474,0.53944 -0.0277,0.24107 -0.0415,0.41891 -0.0415,0.53352 0,0.11065 -0.0119,0.18179 -0.0356,0.2134 -0.0237,0.0316 -0.0889,0.077 -0.19562,0.13634 -0.5098,0.28059 -1.07493,0.42089 -1.69539,0.42089 -1.14211,0 -1.71317,-0.43669 -1.71317,-1.31008 0,-0.26083 0.01,-0.65207 0.0296,-1.17373 0.0197,-0.52561 0.0296,-0.91882 0.0296,-1.17965 0,-0.17389 -0.10077,-0.26083 -0.30232,-0.26083 h -0.0771 c -0.0356,0.004 -0.0613,0.006 -0.0771,0.006 -0.15017,0 -0.22526,-0.0533 -0.22526,-0.16005 0,-0.0633 0.004,-0.16009 0.0119,-0.29047 0.0119,-0.13041 0.0178,-0.22724 0.0178,-0.29047 0,-0.083 -0.006,-0.20945 -0.0178,-0.37938 -0.008,-0.16994 -0.0119,-0.2964 -0.0119,-0.37939 0,-0.079 0.12646,-0.12251 0.37939,-0.13042 0.14227,-0.004 0.21933,-0.0435 0.23119,-0.11855 0.0237,-0.15018 0.0316,-0.3873 0.0237,-0.71136 -0.0158,-0.5098 -0.0237,-0.75284 -0.0237,-0.72913 0,-0.45843 0.0435,-0.68764 0.13041,-0.68764 0.10671,0 0.25886,0.0237 0.45645,0.0711 0.22526,0.0514 0.38136,0.081 0.46831,0.0889 0.20155,0.0277 0.50585,0.0652 0.9129,0.11263 0.0988,0.008 0.1482,0.0415 0.1482,0.10078 0,0.15808 -0.0138,0.39717 -0.0415,0.71728 -0.0237,0.32011 -0.0356,0.56117 -0.0356,0.7232 0,0.19365 0.0573,0.29047 0.17191,0.29047 0.13832,0 0.34777,-0.006 0.62836,-0.0178 0.28059,-0.0119 0.49202,-0.0178 0.63429,-0.0178 0.087,0 0.13042,0.0296 0.13042,0.0889 0,0.0909 -0.01,0.22724 -0.0296,0.40903 -0.0197,0.18179 -0.0296,0.31814 -0.0296,0.40903 0,0.0949 0.002,0.23316 0.006,0.41495 0.004,0.18179 0.006,0.32011 0.006,0.41496 0,0.083 -0.0573,0.12449 -0.17191,0.12449 -0.079,0 -0.21142,-0.002 -0.39717,-0.006 -0.18574,-0.008 -0.31813,-0.0119 -0.39717,-0.0119 h -0.44459 c -0.0593,0 -0.0889,0.0869 -0.0889,0.26083 v 0.42088 c 0.004,0.18969 0.006,0.32999 0.006,0.42089 0,0.33196 0.0375,0.56117 0.11263,0.68764 0.1067,0.16993 0.31615,0.2549 0.62836,0.2549 0.0988,0 0.23909,-0.0217 0.42088,-0.0652 0.18574,-0.0474 0.31615,-0.0711 0.39124,-0.0711 0.083,0 0.12449,0.0435 0.12449,0.13041 z"
         style="font-style:normal;font-variant:normal;font-weight:normal;font-stretch:normal;font-size:12.1404px;line-height:1.25;font-family:'Berlin Sans FB Demi';-inkscape-font-specification:'Berlin Sans FB Demi';letter-spacing:0px;word-spacing:0px;fill:#000000;fill-opacity:1;stroke:none;stroke-width:0.303512"
         id="path1018" />
      <path
         d="m 83.01689,86.04468 c -0.13437,0 -0.32406,-0.0138 -0.56908,-0.0415 -0.26478,-0.0277 -0.4525,-0.0435 -0.56316,-0.0474 -0.25687,-0.008 -0.6659,-0.0119 -1.22708,-0.0119 -0.64812,0 -1.10655,0.008 -1.37528,0.0237 -0.0553,0.004 -0.19365,0.0159 -0.41495,0.0356 -0.17389,0.0197 -0.31418,0.0296 -0.42089,0.0296 -0.0711,0 -0.1067,-0.0494 -0.1067,-0.1482 -0.004,-0.0988 -0.004,-0.23119 0,-0.39717 0.008,-0.19365 0.0119,-0.32406 0.0119,-0.39124 0,-0.0751 -0.0138,-0.18574 -0.0415,-0.33197 -0.0237,-0.14622 -0.0356,-0.25292 -0.0356,-0.3201 0,-0.0514 0.0296,-0.10278 0.0889,-0.15413 0.8062,-0.68764 1.54522,-1.39109 2.21705,-2.11034 -0.0909,0 -0.22921,-0.004 -0.41496,-0.0119 -0.18574,-0.008 -0.32603,-0.0119 -0.42088,-0.0119 -0.14227,0 -0.35962,0.008 -0.65207,0.0237 -0.28849,0.0119 -0.50388,0.0178 -0.64615,0.0178 -0.0672,0 -0.10077,-0.0237 -0.10077,-0.0711 0,-0.0909 0.0613,-0.35567 0.18377,-0.79434 0.12251,-0.44262 0.18376,-0.77063 0.18376,-0.98403 0,-0.0672 0.0692,-0.10078 0.20748,-0.10078 0.0119,0 0.24701,0.0257 0.70542,0.0771 0.37939,0.0395 0.89314,0.0593 1.54126,0.0593 0.21341,0 0.53154,-0.004 0.9544,-0.0119 0.42681,-0.008 0.74692,-0.0119 0.96033,-0.0119 0.13041,0 0.19562,0.0553 0.19562,0.16598 v 1.28044 c 0,0.13437 -0.75285,0.93464 -2.25854,2.40081 1.16187,0 1.95226,-0.0395 2.37117,-0.11856 0.0355,-0.008 0.0612,-0.0119 0.0771,-0.0119 0.0553,0 0.083,0.0217 0.083,0.0652 0,-0.0633 -0.083,0.24894 -0.24897,0.93661 -0.0277,0.18969 -0.0751,0.47028 -0.14227,0.84177 -0.0197,0.083 -0.0672,0.12449 -0.14227,0.12449 z"
         style="font-style:normal;font-variant:normal;font-weight:normal;font-stretch:normal;font-size:12.1404px;line-height:1.25;font-family:'Berlin Sans FB Demi';-inkscape-font-specification:'Berlin Sans FB Demi';letter-spacing:0px;word-spacing:0px;fill:#000000;fill-opacity:1;stroke:none;stroke-width:0.303512"
         id="path1020" />
      <path
         id="path1028"
         style="fill:#ffffff;fill-opacity:1;stroke-width:0.529167;stroke-linecap:square;stroke-linejoin:bevel;paint-order:stroke fill markers"
         d="m 63.51229,81.332489 a 0.60135637,0.6097086 0 0 0 -0.59273,0.609782 0.60135637,0.6097086 0 0 0 0.158131,0.411861 0.80180854,0.6097086 0 0 1 0.57671,-0.186552 0.80180854,0.6097086 0 0 1 0.388606,0.07648 0.60135637,0.6097086 0 0 0 0.07907,-0.30179 0.60135637,0.6097086 0 0 0 -0.600999,-0.609782 0.60135637,0.6097086 0 0 0 -0.0088,0 z" />
      <path
         id="path1040"
         style="fill:#ffffff;fill-opacity:1;stroke-width:0.529167;stroke-linecap:square;stroke-linejoin:bevel;paint-order:stroke fill markers"
         d="m 65.01568,81.23226 a 0.60135637,0.6097086 0 0 0 -0.59273,0.60979 0.60135637,0.6097086 0 0 0 0.15813,0.41186 0.80180854,0.6097086 0 0 1 0.57671,-0.18656 0.80180854,0.6097086 0 0 1 0.38861,0.0765 0.60135637,0.6097086 0 0 0 0.0791,-0.30178 0.60135637,0.6097086 0 0 0 -0.60099,-0.60979 0.60135637,0.6097086 0 0 0 -0.009,0 z" />
      <path
         id="path1042"
         style="fill:#ffffff;fill-opacity:1;stroke-width:0.529167;stroke-linecap:square;stroke-linejoin:bevel;paint-order:stroke fill markers"
         d="m 69.92676,81.48283 a 0.60135637,0.6097086 0 0 0 -0.59273,0.60978 0.60135637,0.6097086 0 0 0 0.15813,0.41186 0.80180854,0.6097086 0 0 1 0.57671,-0.18655 0.80180854,0.6097086 0 0 1 0.38861,0.0765 0.60135637,0.6097086 0 0 0 0.0791,-0.30179 0.60135637,0.6097086 0 0 0 -0.601,-0.60978 0.60135637,0.6097086 0 0 0 -0.009,0 z" />
      <path
         id="path1044"
         style="fill:#ffffff;fill-opacity:1;stroke-width:0.529167;stroke-linecap:square;stroke-linejoin:bevel;paint-order:stroke fill markers"
         d="m 71.43015,81.3826 a 0.60135637,0.6097086 0 0 0 -0.59273,0.60979 0.60135637,0.6097086 0 0 0 0.15813,0.41186 0.80180854,0.6097086 0 0 1 0.57671,-0.18656 0.80180854,0.6097086 0 0 1 0.38861,0.0765 0.60135637,0.6097086 0 0 0 0.0791,-0.30178 0.60135637,0.6097086 0 0 0 -0.60099,-0.60979 0.60135637,0.6097086 0 0 0 -0.009,0 z" />
    </g>
  </g>
</svg>
