<?xml version="1.0" encoding="UTF-8" standalone="no"?>
<svg
   xmlns:dc="http://purl.org/dc/elements/1.1/"
   xmlns:cc="http://creativecommons.org/ns#"
   xmlns:rdf="http://www.w3.org/1999/02/22-rdf-syntax-ns#"
   xmlns:svg="http://www.w3.org/2000/svg"
   xmlns="http://www.w3.org/2000/svg"
   id="svg8"
   version="1.1"
   viewBox="0 0 500 500"
   height="1889.7638"
   width="1889.7638">
  <defs
     id="defs2" />
  <metadata
     id="metadata5">
    <rdf:RDF>
      <cc:Work
         rdf:about="">
        <dc:format>image/svg+xml</dc:format>
        <dc:type
           rdf:resource="http://purl.org/dc/dcmitype/StillImage" />
        <dc:title></dc:title>
      </cc:Work>
    </rdf:RDF>
  </metadata>
  <g
     id="layer1">
    <path
       id="path1139"
       style="fill:#cc1924;fill-opacity:1;stroke:none;stroke-width:8.72674;stroke-linecap:round;stroke-linejoin:round;stroke-opacity:1;paint-order:stroke fill markers"
       d="m 248.4536,59.779593 c -9.5669,0.357296 -21.83805,9.358688 -21.83805,9.358688 0,0 -11.89672,9.49791 -19.67369,11.714377 -7.78166,2.216467 -22.92041,0.381937 -22.92041,0.381937 0,0 -15.20602,-1.317067 -23.55726,3.246464 -8.34471,4.561067 -15.4714,18.081881 -15.4714,18.081881 0,0 -6.62476,13.80357 -12.73378,19.164 -6.1073,5.3582 -20.62842,10.12256 -20.62842,10.12256 0,0 -14.211505,5.35451 -19.737271,13.11584 -5.538086,7.77919 -5.921255,22.98435 -5.921255,22.98435 0,0 0.258731,15.28032 -2.610724,22.79289 -2.858367,7.44285 -13.370136,18.78243 -13.370136,18.78243 -0.06518,0.0652 -9.874919,12.3224 -10.6967,21.45599 -0.862438,9.6322 6.558228,22.92041 6.558228,22.92041 0,0 7.949218,13.01124 9.231787,20.9469 1.283801,7.95291 -2.230019,22.79326 -2.230019,22.79326 0,0 -3.038248,14.93706 0.579065,23.74835 3.604993,8.79441 16.235156,17.31776 16.235156,17.31776 0,0 13.032429,8.09337 17.699819,14.77086 4.66579,6.67651 7.83094,21.64708 7.83094,21.64708 0,0 3.64689,14.82051 10.6967,21.20157 7.06461,6.3956 22.15666,8.59481 22.15666,8.59481 0,0 15.15686,1.58073 22.22011,5.41119 7.02641,3.81074 16.74473,15.66237 16.74473,15.66237 0,0 10.17801,11.42608 19.73715,13.75244 9.59648,2.15856 23.81192,-3.56556 23.81192,-3.56556 0,0 13.97582,-6.26254 21.96569,-6.55823 8.02684,-0.29569 22.34726,4.96641 22.34726,4.96641 0,0 14.44917,4.69536 23.62095,2.10312 9.14801,-2.58855 19.03698,-14.19808 19.03698,-14.19808 0,0 9.4708,-12.00514 16.61721,-15.91704 7.14469,-3.91054 22.34763,-5.41241 22.34763,-5.41241 0,0 15.14737,-1.9947 22.28368,-8.27695 7.14715,-6.29087 11.07864,-21.01035 11.07864,-21.01072 0,0 3.40293,-14.89936 8.08597,-21.45611 4.67072,-6.53975 17.57231,-14.64371 17.57231,-14.64371 0,0 12.54318,-8.55539 16.04418,-17.57231 3.49904,-9.01125 0,-24.00301 0,-24.00301 0,0 -4.37009,-14.85168 -3.6284,-22.79326 0.75156,-8.01082 7.70404,-21.58351 7.70404,-21.58351 0,0 6.41162,-13.74431 4.90235,-23.17495 -1.50557,-9.4055 -11.90658,-20.56484 -11.90658,-20.56484 0,0 -10.84947,-10.69547 -13.94316,-18.2094 -3.09369,-7.51307 -2.86576,-22.85684 -2.86576,-22.85684 0,0 -0.40658,-15.25493 -5.85719,-23.0478 -5.45554,-7.79644 -19.6737,-13.37038 -19.6737,-13.37038 0,0 -14.38387,-5.06128 -20.37375,-10.5045 -5.98286,-5.43706 -12.47887,-19.227939 -12.47887,-19.227939 0,0 -6.92661,-13.514902 -15.34401,-18.081636 -8.42848,-4.573388 -23.62095,-3.054264 -23.62095,-3.054264 0,0 -15.13851,2.297782 -23.04781,0.44354 -7.90855,-1.851779 -20.50126,-10.632633 -20.50126,-10.632633 0,0 -12.88964,-8.12417 -22.47478,-7.768106 z" />
    <path
       id="path1181"
       style="fill:#0071c4;fill-opacity:1;stroke:#ffffff;stroke-width:16.2991;stroke-linecap:round;stroke-linejoin:round;stroke-miterlimit:4;stroke-dasharray:none;stroke-opacity:1;paint-order:stroke fill markers"
       d="M 391.59829,249.99986 A 141.59807,141.59807 0 0 1 250.0002,391.59795 141.59807,141.59807 0 0 1 108.40211,249.99986 141.59807,141.59807 0 0 1 250.0002,108.40177 141.59807,141.59807 0 0 1 391.59829,249.99986" />
    <path
       id="path1447"
       style="font-style:normal;font-variant:normal;font-weight:normal;font-stretch:normal;font-size:0.696422px;line-height:1.25;font-family:Pacifico;-inkscape-font-specification:Pacifico;letter-spacing:0px;word-spacing:0px;fill:#ffffff;fill-opacity:1;stroke:none;stroke-width:6.43522"
       d="m 193.98828,223.30283 q 1.12117,0 1.71625,1.03493 0.68995,1.03493 0.68995,2.83126 0,3.34626 -1.63001,5.32001 -4.80501,5.74877 -9.35252,8.06504 -4.46127,2.31626 -10.81128,2.31626 -4.46128,0 -8.23752,-1.12117 -3.77502,-1.12117 -9.18128,-3.34626 -4.89125,-2.14501 -9.43877,-3.51752 -4.37626,7.98002 -13.12791,7.98002 -4.80501,0 -7.63628,-2.14501 -2.9175,-2.23125 -2.9175,-5.66252 0,-4.20377 4.03251,-6.95002 4.03252,-2.83126 10.72504,-2.83126 h 1.12117 l 1.545,-24.9687 q 0.51746,-8.58003 3.08876,-14.15742 2.57376,-5.57751 7.12127,-9.52379 3.94751,-3.4325 9.00879,-5.14875 5.06251,-1.80127 10.72504,-1.80127 9.26628,0 14.24329,4.80502 4.97627,4.80501 4.97627,12.52728 0,5.23377 -1.88751,8.49502 -1.88751,3.17501 -5.23377,3.17501 -2.40251,0 -3.77501,-1.12117 -1.37251,-1.20742 -1.37251,-3.34626 0,-0.7762 0.34497,-2.83127 0.51747,-2.4025 0.51747,-4.29001 0,-3.60376 -2.14501,-5.66252 -2.05877,-2.14501 -6.35001,-2.14501 -7.55127,0 -11.66879,4.97627 -4.11876,4.89125 -5.23377,15.44454 l -1.97375,19.47731 q -0.43122,4.11876 -1.12117,7.12128 5.49126,0.94868 13.72854,3.00252 4.80501,1.20741 7.37877,1.71625 2.57376,0.51746 4.54752,0.51746 4.97627,0 8.49501,-1.63001 3.60376,-1.71625 6.77877,-5.40502 1.03493,-1.20742 2.31626,-1.20742 z" />
    <path
       id="path1449"
       style="font-style:normal;font-variant:normal;font-weight:normal;font-stretch:normal;font-size:0.696422px;line-height:1.25;font-family:Pacifico;-inkscape-font-specification:Pacifico;letter-spacing:0px;word-spacing:0px;fill:#ffffff;fill-opacity:1;stroke:none;stroke-width:6.43522"
       d="m 200.06551,242.86602 q -5.32001,0 -8.49501,-3.86126 -3.17501,-3.86126 -3.17501,-10.12503 0,-6.86378 3.17501,-12.95629 3.175,-6.17752 8.40877,-9.86753 5.32001,-3.77501 11.24003,-3.77501 1.88751,0 2.48876,0.77619 0.68995,0.68995 1.12117,2.57377 1.80126,-0.34498 3.77501,-0.34498 4.20377,0 4.20377,3.00375 0,1.80126 -1.28749,8.58003 -1.97376,9.86753 -1.97376,13.72842 0,1.28749 0.60371,2.05876 0.68995,0.77619 1.71625,0.77619 1.63001,0 3.94751,-2.05876 2.31626,-2.14501 6.26376,-6.86378 1.03493,-1.20741 2.31627,-1.20741 1.12117,0 1.71625,1.03493 0.68995,1.03492 0.68995,2.83126 0,3.4325 -1.63001,5.32001 -3.51752,4.37626 -7.46502,7.37878 -3.9475,3.00251 -7.63628,3.00251 -2.83126,0 -5.23376,-1.8875 -2.31627,-1.97375 -3.51752,-5.32002 -4.46127,7.20752 -11.24004,7.20752 z m 3.08876,-8.66628 q 1.88751,0 3.60376,-2.23125 1.71626,-2.23125 2.48876,-5.92002 l 3.175,-15.7878 q -3.60376,0.0859 -6.69252,2.74625 -3.00252,2.57376 -4.80501,6.86378 -1.80127,4.29001 -1.80127,9.09503 0,2.66 1.03493,3.9475 1.12117,1.2875 3.00251,1.2875 z" />
    <path
       id="path1451"
       style="font-style:normal;font-variant:normal;font-weight:normal;font-stretch:normal;font-size:0.696422px;line-height:1.25;font-family:Pacifico;-inkscape-font-specification:Pacifico;letter-spacing:0px;word-spacing:0px;fill:#ffffff;fill-opacity:1;stroke:none;stroke-width:6.43522"
       d="m 264.56395,214.20781 q 1.88751,0 3.17501,1.3725 1.37251,1.2875 1.37251,3.26002 0,1.12117 -0.51747,2.40251 -1.37251,3.175 -3.86126,5.32001 -2.48875,2.14501 -5.49127,2.14501 -2.4025,0 -4.11875,-1.71625 -1.63001,-1.71626 -1.63001,-4.63376 0,-1.63001 0.17248,-3.51752 0.17249,-1.37251 0.17249,-1.88751 0,-0.68995 -0.34497,-1.03492 -0.25873,-0.34498 -0.68995,-0.34498 -1.1951,0 -3.26002,2.91751 -2.05876,2.83126 -4.11876,7.55126 -2.05876,4.71877 -3.34626,9.95254 -0.94868,4.11876 -2.14501,5.49127 -1.20741,1.37251 -3.9475,1.37251 -3.26002,0 -4.63376,-3.43251 -1.2875,-3.4325 -1.2875,-10.98253 0,-11.1538 3.17501,-21.19332 0.77619,-2.48875 2.48875,-3.60376 1.80249,-1.20741 4.97627,-1.20741 1.71625,0 2.4025,0.43122 0.68996,0.43122 0.68996,1.63001 0,1.37251 -1.2875,6.17752 -0.86244,3.4325 -1.37251,6.00627 -0.51746,2.57376 -0.86244,6.35001 2.83126,-7.37878 6.35001,-12.01254 3.51752,-4.63376 6.86378,-6.60628 3.34626,-1.97375 6.09251,-1.97375 2.48875,0 3.77502,1.45876 1.3725,1.3725 1.3725,4.11875 0,1.63001 -0.94868,6.17753 z" />
    <path
       id="path1453"
       style="font-style:normal;font-variant:normal;font-weight:normal;font-stretch:normal;font-size:0.696422px;line-height:1.25;font-family:Pacifico;-inkscape-font-specification:Pacifico;letter-spacing:0px;word-spacing:0px;fill:#ffffff;fill-opacity:1;stroke:none;stroke-width:6.43522"
       d="m 286.07908,244.75365 q -4.46127,0 -6.86378,-2.05877 -2.31626,-2.05876 -2.31626,-4.63375 0,-2.23126 1.63001,-3.86126 1.63,-1.63001 4.80501,-1.63001 1.12117,0 2.57376,0.25873 1.54377,0.17249 2.31627,0.25873 -0.0858,-2.23125 -1.03493,-4.20377 -0.86244,-1.97375 -2.23125,-3.77502 -1.37251,-1.8875 -2.57376,-3.26001 -2.66001,5.06251 -5.32002,8.40877 -2.57376,3.34626 -5.66252,6.35001 -1.54377,1.54377 -3.26002,1.54377 -1.37251,0 -2.23125,-0.94869 -0.86244,-1.03492 -0.86244,-2.48875 0,-1.71625 1.1951,-3.175 l 1.12117,-1.37251 q 4.71877,-5.83501 7.12127,-9.61003 1.45876,-2.48875 3.43251,-6.60751 1.97375,-4.20377 3.86126,-8.66627 1.63001,-3.77502 6.77876,-3.77502 2.40251,0 3.34626,0.43122 0.94869,0.43122 0.94869,1.37251 0,0.51746 -0.34498,1.63001 -0.34498,1.12117 -0.94868,2.23125 -1.545,3.08876 -1.545,5.23377 0,1.2875 0.86244,2.83126 0.94868,1.54377 2.83126,3.86126 2.74625,3.60376 4.11876,6.17752 1.45875,2.48875 1.45875,5.49127 0,0.86244 -0.17248,2.40251 4.20377,-1.63001 9.86752,-8.66628 1.03493,-1.20741 2.31627,-1.20741 1.12117,0 1.71625,1.03493 0.68995,1.03492 0.68995,2.83126 0,3.26002 -1.63001,5.32001 -4.29001,5.32001 -8.23752,7.29253 -3.86126,1.88751 -9.61003,2.06 -3.4325,2.91751 -8.15127,2.91751 z" />
    <path
       id="path1455"
       style="font-style:normal;font-variant:normal;font-weight:normal;font-stretch:normal;font-size:0.696422px;line-height:1.25;font-family:Pacifico;-inkscape-font-specification:Pacifico;letter-spacing:0px;word-spacing:0px;fill:#ffffff;fill-opacity:1;stroke:none;stroke-width:6.43522"
       d="m 345.08871,223.30283 q 1.12117,0 1.71625,1.03493 0.68996,1.03493 0.68996,2.83126 0,3.43251 -1.63001,5.32001 -3.17501,3.86126 -9.01002,7.12128 -5.74877,3.26002 -12.35554,3.26002 -9.01002,0 -13.98591,-4.89126 -4.97627,-4.89126 -4.97627,-13.38529 0,-5.92002 2.48875,-10.98254 2.48875,-5.14875 6.86377,-8.15127 4.46127,-3.00252 10.03879,-3.00252 4.97627,0 7.98002,3.00252 3.00251,2.91751 3.00251,7.98002 0,5.92002 -4.29001,10.21004 -4.20501,4.20377 -14.32917,6.69252 2.14501,3.9475 8.15128,3.9475 3.86126,0 8.75128,-2.66 4.97627,-2.74625 8.58003,-7.12128 1.03493,-1.20741 2.31626,-1.20741 z M 323.4664,210.86142 q -3.17501,0 -5.40503,3.69001 -2.14501,3.69 -2.14501,8.92377 v 0.17249 q 5.06252,-1.20742 7.98002,-3.60376 2.91751,-2.40251 2.91751,-5.57752 0,-1.63 -0.94868,-2.57376 -0.86244,-1.03492 -2.40251,-1.03492 z" />
    <path
       id="path1457"
       style="font-style:normal;font-variant:normal;font-weight:normal;font-stretch:normal;font-size:0.696422px;line-height:1.25;font-family:Pacifico;-inkscape-font-specification:Pacifico;letter-spacing:0px;word-spacing:0px;fill:#ffffff;fill-opacity:1;stroke:none;stroke-width:6.43522"
       d="m 346.59699,242.86602 q -3.26001,0 -4.63375,-3.43251 -1.2875,-3.4325 -1.2875,-10.98254 0,-11.15379 3.175,-21.19331 0.7762,-2.48875 2.48875,-3.60376 1.80127,-1.20741 4.97627,-1.20741 1.71626,0 2.40251,0.43122 0.68995,0.43122 0.68995,1.63 0,1.37251 -1.2875,6.17753 -0.86243,3.4325 -1.37251,6.00626 -0.51746,2.57377 -0.86243,6.35002 2.83126,-7.37878 6.35001,-12.01254 3.51751,-4.63376 6.86377,-6.60628 3.43251,-1.97375 6.26377,-1.97375 2.74502,0 4.11876,1.45875 1.45875,1.37251 1.45875,4.11876 0,2.23125 -0.94868,8.40878 -0.86244,5.23377 -1.37251,9.95254 -0.51746,4.63375 -0.51746,10.38252 0,3.26002 -1.37251,4.71877 -1.2875,1.37251 -4.29002,1.37251 -2.83126,0 -4.11875,-1.45875 -1.2875,-1.45876 -1.2875,-4.37626 0,-3.43251 1.19509,-11.32628 1.03493,-6.86378 1.03493,-8.75129 0,-1.3725 -0.94868,-1.3725 -1.12117,0 -3.17501,2.9175 -1.97375,2.83126 -4.11876,7.55126 -2.05876,4.71877 -3.34626,9.95254 -0.94868,4.03252 -2.23125,5.49127 -1.19509,1.37251 -3.86126,1.37251 z" />
    <path
       id="path1460"
       style="font-style:normal;font-variant:normal;font-weight:normal;font-stretch:normal;font-size:0.41782px;line-height:1.25;font-family:'Bebas Neue';-inkscape-font-specification:'Bebas Neue';letter-spacing:0px;word-spacing:0px;fill:#faeb56;fill-opacity:1;stroke:none;stroke-width:3.8608"
       d="m 212.80323,295.52367 h -5.92002 v -4.01527 q 2.41976,0 3.86126,-0.40658 1.49325,-0.40657 2.36801,-1.33801 0.87476,-0.97332 1.54377,-2.77951 h 3.80951 v 36.0344 h -5.66253 z" />
    <path
       id="path1462"
       style="font-style:normal;font-variant:normal;font-weight:normal;font-stretch:normal;font-size:0.41782px;line-height:1.25;font-family:'Bebas Neue';-inkscape-font-specification:'Bebas Neue';letter-spacing:0px;word-spacing:0px;fill:#faeb56;fill-opacity:1;stroke:none;stroke-width:3.8608"
       d="m 233.67178,323.52754 q -4.16927,0 -6.38328,-2.36801 -2.214,-2.36801 -2.214,-6.69253 v -18.94382 q 0,-4.32452 2.214,-6.69253 2.21401,-2.36801 6.38328,-2.36801 4.16927,0 6.38327,2.36801 2.21401,2.36801 2.21401,6.69253 V 314.467 q 0,4.32452 -2.21401,6.69253 -2.214,2.36801 -6.38327,2.36801 z m 0,-5.14753 q 2.93475,0 2.93475,-3.55201 v -19.66458 q 0,-3.55202 -2.93475,-3.55202 -2.93476,0 -2.93476,3.55202 V 314.828 q 0,3.55201 2.93476,3.55201 z" />
    <path
       id="path1464"
       style="font-style:normal;font-variant:normal;font-weight:normal;font-stretch:normal;font-size:0.41782px;line-height:1.25;font-family:'Bebas Neue';-inkscape-font-specification:'Bebas Neue';letter-spacing:0px;word-spacing:0px;fill:#faeb56;fill-opacity:1;stroke:none;stroke-width:3.8608"
       d="m 254.28295,323.52754 q -4.16928,0 -6.38328,-2.36801 -2.214,-2.36801 -2.214,-6.69253 v -18.94382 q 0,-4.32452 2.214,-6.69253 2.214,-2.36801 6.38328,-2.36801 4.16927,0 6.38327,2.36801 2.21401,2.36801 2.21401,6.69253 V 314.467 q 0,4.32452 -2.21401,6.69253 -2.214,2.36801 -6.38327,2.36801 z m 0,-5.14753 q 2.93475,0 2.93475,-3.55201 v -19.66458 q 0,-3.55202 -2.93475,-3.55202 -2.93353,0 -2.93353,3.55202 V 314.828 q 0,3.55201 2.93353,3.55201 z" />
    <path
       id="path1466"
       style="font-style:normal;font-variant:normal;font-weight:normal;font-stretch:normal;font-size:0.41782px;line-height:1.25;font-family:'Bebas Neue';-inkscape-font-specification:'Bebas Neue';letter-spacing:0px;word-spacing:0px;fill:#faeb56;fill-opacity:1;stroke:none;stroke-width:3.8608"
       d="m 271.85698,307.00322 q -2.67726,0 -4.06702,-1.49325 -1.38975,-1.49325 -1.38975,-4.27277 v -9.00879 q 0,-2.77951 1.38975,-4.27276 1.38976,-1.49325 4.06702,-1.49325 2.67725,0 4.06701,1.49325 1.38976,1.49325 1.38976,4.27276 v 9.00879 q 0,2.77952 -1.38976,4.27277 -1.38976,1.49325 -4.06701,1.49325 z m 13.07542,-20.02484 h 3.60376 l -13.95043,36.0344 h -3.60376 z m -13.07542,16.7817 q 1.85301,0 1.85301,-2.26452 v -9.52378 q 0,-2.26575 -1.85301,-2.26575 -1.85301,0 -1.85301,2.26575 v 9.52378 q 0,2.26452 1.85301,2.26452 z m 15.80369,19.76746 q -2.67726,0 -4.06702,-1.49326 -1.38975,-1.49325 -1.38975,-4.27276 v -9.00879 q 0,-2.77951 1.38975,-4.27276 1.38976,-1.49325 4.06702,-1.49325 2.67725,0 4.06701,1.49325 1.38976,1.49325 1.38976,4.27276 v 9.00879 q 0,2.77951 -1.38976,4.27276 -1.38976,1.49326 -4.06701,1.49326 z m 0,-3.24277 q 1.85301,0 1.85301,-2.26452 v -9.52378 q 0,-2.26452 -1.85301,-2.26452 -1.85301,0 -1.85301,2.26452 v 9.52378 q 0,2.26452 1.85301,2.26452 z" />
    <path
       id="path1469"
       style="font-style:normal;font-variant:normal;font-weight:normal;font-stretch:normal;font-size:0.246049px;line-height:1.25;font-family:'Bebas Neue';-inkscape-font-specification:'Bebas Neue';letter-spacing:0px;word-spacing:0px;fill:#ffffff;fill-opacity:1;stroke:none;stroke-width:2.27358"
       d="m 170.79509,331.7552 h 8.82152 v 3.03085 h -5.48758 v 5.9114 h 4.3048 v 3.03086 h -4.3048 v 9.24533 h -3.33517 z" />
    <path
       id="path1471"
       style="font-style:normal;font-variant:normal;font-weight:normal;font-stretch:normal;font-size:0.246049px;line-height:1.25;font-family:'Bebas Neue';-inkscape-font-specification:'Bebas Neue';letter-spacing:0px;word-spacing:0px;fill:#ffffff;fill-opacity:1;stroke:none;stroke-width:2.27358"
       d="m 181.21569,331.7552 h 4.94177 q 2.57623,0 3.759,1.20741 1.18277,1.18277 1.18277,3.66783 v 1.30351 q 0,3.30437 -2.1832,4.18406 v 0.0606 q 1.20742,0.36961 1.69777,1.48586 0.51747,1.12116 0.51747,3.00128 v 3.7282 q 0,0.91172 0.0606,1.48586 0.0606,0.5421 0.30802,1.09653 h -3.39554 q -0.18481,-0.51747 -0.24642,-0.97333 -0.0606,-0.45586 -0.0606,-1.6374 v -3.87974 q 0,-1.45506 -0.4805,-2.03043 -0.45586,-0.57906 -1.6066,-0.57906 h -1.14581 v 9.0938 h -3.33518 z m 4.54751,9.09379 q 0.99797,0 1.48586,-0.51746 0.51747,-0.51746 0.51747,-1.72857 v -1.6374 q 0,-1.14581 -0.4189,-1.66697 -0.39426,-0.51747 -1.27272,-0.51747 h -1.51542 v 6.06295 z" />
    <path
       id="path1473"
       style="font-style:normal;font-variant:normal;font-weight:normal;font-stretch:normal;font-size:0.246049px;line-height:1.25;font-family:'Bebas Neue';-inkscape-font-specification:'Bebas Neue';letter-spacing:0px;word-spacing:0px;fill:#ffffff;fill-opacity:1;stroke:none;stroke-width:2.27358"
       d="m 193.41254,331.7552 h 9.09503 v 3.03085 h -5.75986 v 5.60832 h 4.57709 v 3.03085 h -4.57709 v 6.51757 h 5.75986 v 3.03085 h -9.09503 z" />
    <path
       id="path1475"
       style="font-style:normal;font-variant:normal;font-weight:normal;font-stretch:normal;font-size:0.246049px;line-height:1.25;font-family:'Bebas Neue';-inkscape-font-specification:'Bebas Neue';letter-spacing:0px;word-spacing:0px;fill:#ffffff;fill-opacity:1;stroke:none;stroke-width:2.27358"
       d="m 204.42526,331.7552 h 9.09503 v 3.03085 h -5.75986 v 5.60832 h 4.57709 v 3.03085 h -4.57709 v 6.51757 h 5.75986 v 3.03085 h -9.09503 z" />
    <path
       id="path1477"
       style="font-style:normal;font-variant:normal;font-weight:normal;font-stretch:normal;font-size:0.246049px;line-height:1.25;font-family:'Bebas Neue';-inkscape-font-specification:'Bebas Neue';letter-spacing:0px;word-spacing:0px;fill:#ffffff;fill-opacity:1;stroke:none;stroke-width:2.27358"
       d="m 215.43798,331.7552 h 3.33518 v 18.18882 h 5.48634 v 3.03086 h -8.82152 z" />
    <path
       id="path1479"
       style="font-style:normal;font-variant:normal;font-weight:normal;font-stretch:normal;font-size:0.246049px;line-height:1.25;font-family:'Bebas Neue';-inkscape-font-specification:'Bebas Neue';letter-spacing:0px;word-spacing:0px;fill:#ffffff;fill-opacity:1;stroke:none;stroke-width:2.27358"
       d="m 228.55382,331.7552 h 4.51672 l 3.45591,21.22029 h -3.33517 l -0.60371,-4.21362 v 0.0606 h -3.7898 l -0.60371,4.15326 h -3.09245 z m 3.63826,14.18723 -1.48586,-10.48848 h -0.0607 l -1.45505,10.48848 z" />
    <path
       id="path1481"
       style="font-style:normal;font-variant:normal;font-weight:normal;font-stretch:normal;font-size:0.246049px;line-height:1.25;font-family:'Bebas Neue';-inkscape-font-specification:'Bebas Neue';letter-spacing:0px;word-spacing:0px;fill:#ffffff;fill-opacity:1;stroke:none;stroke-width:2.27358"
       d="m 238.11481,331.7552 h 4.18283 l 3.244,12.70187 h 0.0606 V 331.7552 h 2.97048 v 21.22029 h -3.42511 l -4.00171,-15.49075 h -0.0606 v 15.49075 h -2.97049 z" />
    <path
       id="path1483"
       style="font-style:normal;font-variant:normal;font-weight:normal;font-stretch:normal;font-size:0.246049px;line-height:1.25;font-family:'Bebas Neue';-inkscape-font-specification:'Bebas Neue';letter-spacing:0px;word-spacing:0px;fill:#ffffff;fill-opacity:1;stroke:none;stroke-width:2.27358"
       d="m 255.78014,353.27858 q -2.39511,0 -3.66783,-1.36389 -1.24314,-1.36388 -1.24314,-3.85017 v -11.39897 q 0,-2.48629 1.24314,-3.85017 1.27272,-1.36388 3.66783,-1.36388 2.39511,0 3.63826,1.36388 1.27271,1.36388 1.27271,3.85017 v 2.24357 h -3.15283 v -2.45548 q 0,-1.97006 -1.66697,-1.97006 -1.66697,0 -1.66697,1.97006 v 11.85237 q 0,1.94048 1.66697,1.94048 1.66697,0 1.66697,-1.94048 V 345.062 h 3.15283 v 3.00129 q 0,2.48629 -1.27271,3.85017 -1.24315,1.36389 -3.63826,1.36389 z" />
    <path
       id="path1485"
       style="font-style:normal;font-variant:normal;font-weight:normal;font-stretch:normal;font-size:0.246049px;line-height:1.25;font-family:'Bebas Neue';-inkscape-font-specification:'Bebas Neue';letter-spacing:0px;word-spacing:0px;fill:#ffffff;fill-opacity:1;stroke:none;stroke-width:2.27358"
       d="m 262.68618,331.7552 h 9.09503 v 3.03085 h -5.75986 v 5.60832 h 4.57708 v 3.03085 h -4.57708 v 6.51757 h 5.75986 v 3.03085 h -9.09503 z" />
    <path
       id="path1487"
       style="font-style:normal;font-variant:normal;font-weight:normal;font-stretch:normal;font-size:0.246049px;line-height:1.25;font-family:'Bebas Neue';-inkscape-font-specification:'Bebas Neue';letter-spacing:0px;word-spacing:0px;fill:#ffffff;fill-opacity:1;stroke:none;stroke-width:2.27358"
       d="m 273.6989,331.7552 h 4.94177 q 2.57623,0 3.759,1.20741 1.18277,1.18277 1.18277,3.66783 v 1.30351 q 0,3.30437 -2.1832,4.18406 v 0.0606 q 1.20741,0.36961 1.69777,1.48586 0.51747,1.12116 0.51747,3.00128 v 3.7282 q 0,0.91172 0.0606,1.48586 0.0606,0.5421 0.30802,1.09653 h -3.39555 q -0.18481,-0.51747 -0.24641,-0.97333 -0.0607,-0.45586 -0.0607,-1.6374 v -3.87974 q 0,-1.45506 -0.4805,-2.03043 -0.45586,-0.57906 -1.6066,-0.57906 h -1.15813 v 9.0938 h -3.33517 z m 4.54751,9.09379 q 0.99797,0 1.48586,-0.51746 0.51746,-0.51746 0.51746,-1.72857 v -1.6374 q 0,-1.14581 -0.41889,-1.66697 -0.39426,-0.51747 -1.27272,-0.51747 h -1.51542 v 6.06295 z" />
    <path
       id="path1489"
       style="font-style:normal;font-variant:normal;font-weight:normal;font-stretch:normal;font-size:0.246049px;line-height:1.25;font-family:'Bebas Neue';-inkscape-font-specification:'Bebas Neue';letter-spacing:0px;word-spacing:0px;fill:#ffffff;fill-opacity:1;stroke:none;stroke-width:2.27358"
       d="m 286.07341,349.76217 h 3.2132 v 3.2132 h -3.2132 z" />
    <path
       id="path1491"
       style="font-style:normal;font-variant:normal;font-weight:normal;font-stretch:normal;font-size:0.246049px;line-height:1.25;font-family:'Bebas Neue';-inkscape-font-specification:'Bebas Neue';letter-spacing:0px;word-spacing:0px;fill:#ffffff;fill-opacity:1;stroke:none;stroke-width:2.27358"
       d="m 296.27852,353.27858 q -2.39511,0 -3.66783,-1.36389 -1.24314,-1.36388 -1.24314,-3.85017 v -11.39897 q 0,-2.48629 1.24314,-3.85017 1.27272,-1.36388 3.66783,-1.36388 2.39511,0 3.63826,1.36388 1.27271,1.36388 1.27271,3.85017 v 2.24357 h -3.15283 v -2.45548 q 0,-1.97006 -1.66697,-1.97006 -1.66697,0 -1.66697,1.97006 v 11.85237 q 0,1.94048 1.66697,1.94048 1.66697,0 1.66697,-1.94048 V 345.062 h 3.15283 v 3.00129 q 0,2.48629 -1.27271,3.85017 -1.24315,1.36389 -3.63826,1.36389 z" />
    <path
       id="path1493"
       style="font-style:normal;font-variant:normal;font-weight:normal;font-stretch:normal;font-size:0.246049px;line-height:1.25;font-family:'Bebas Neue';-inkscape-font-specification:'Bebas Neue';letter-spacing:0px;word-spacing:0px;fill:#ffffff;fill-opacity:1;stroke:none;stroke-width:2.27358"
       d="m 308.06374,353.27858 q -2.45548,0 -3.759,-1.39469 -1.30351,-1.39468 -1.30351,-3.94134 v -11.15626 q 0,-2.54665 1.30351,-3.94134 1.30352,-1.39469 3.759,-1.39469 2.45549,0 3.759,1.39469 1.30351,1.39469 1.30351,3.94134 v 11.15626 q 0,2.54666 -1.30351,3.94134 -1.30351,1.39469 -3.759,1.39469 z m 0,-3.03209 q 1.72734,0 1.72734,-2.09203 v -11.58008 q 0,-2.09203 -1.72734,-2.09203 -1.72857,0 -1.72857,2.09203 v 11.58008 q 0,2.09203 1.72857,2.09203 z" />
    <path
       id="path1495"
       style="font-style:normal;font-variant:normal;font-weight:normal;font-stretch:normal;font-size:0.246049px;line-height:1.25;font-family:'Bebas Neue';-inkscape-font-specification:'Bebas Neue';letter-spacing:0px;word-spacing:0px;fill:#ffffff;fill-opacity:1;stroke:none;stroke-width:2.27358"
       d="m 315.38141,331.7552 h 4.75942 l 2.1216,15.18766 h 0.0606 l 2.1216,-15.18766 h 4.75943 v 21.22029 h -3.15283 v -16.06673 h -0.0606 l -2.42468,16.06673 h -2.78938 l -2.42468,-16.06673 h -0.0606 v 16.06673 h -2.91011 z" />
    <path
       id="path1498"
       style="font-style:normal;font-variant:normal;font-weight:normal;font-stretch:normal;font-size:0.214751px;line-height:1.25;font-family:'Bebas Neue';-inkscape-font-specification:'Bebas Neue';letter-spacing:0px;word-spacing:0px;fill:#000000;fill-opacity:1;stroke:none;stroke-width:1.98438"
       d="m 222.62037,250.92945 h 4.44525 q 2.16965,0 3.25509,1.15813 1.08421,1.15813 1.08421,3.41279 v 9.36608 q 0,2.2485 -1.08421,3.41279 -1.08421,1.15813 -3.25509,1.15813 h -4.44525 z m 4.39228,15.87514 q 0.71459,0 1.0842,-0.41889 0.39426,-0.4189 0.39426,-1.37621 v -9.63097 q 0,-0.94868 -0.39426,-1.37621 -0.36961,-0.4189 -1.0842,-0.4189 h -1.48217 v 13.22932 z" />
    <path
       id="path1500"
       style="font-style:normal;font-variant:normal;font-weight:normal;font-stretch:normal;font-size:0.214751px;line-height:1.25;font-family:'Bebas Neue';-inkscape-font-specification:'Bebas Neue';letter-spacing:0px;word-spacing:0px;fill:#000000;fill-opacity:1;stroke:none;stroke-width:1.98438"
       d="m 233.36919,250.92945 h 7.93689 v 2.64645 h -5.02678 v 4.89495 h 3.99555 v 2.64522 h -3.99555 v 5.6884 h 5.02678 v 2.64522 h -7.93689 z" />
    <path
       id="path1502"
       style="font-style:normal;font-variant:normal;font-weight:normal;font-stretch:normal;font-size:0.214751px;line-height:1.25;font-family:'Bebas Neue';-inkscape-font-specification:'Bebas Neue';letter-spacing:0px;word-spacing:0px;fill:#000000;fill-opacity:1;stroke:none;stroke-width:1.98438"
       d="m 246.81633,269.71495 q -2.11668,0 -3.20088,-1.19509 -1.08421,-1.21973 -1.08421,-3.46577 v -1.05957 h 2.75118 v 1.27025 q 0,1.7988 1.50803,1.7988 0.73923,0 1.10885,-0.4189 0.39426,-0.45586 0.39426,-1.42918 0,-1.15813 -0.52978,-2.03782 -0.52979,-0.8994 -1.95774,-2.14377 -1.7988,-1.58812 -2.51339,-2.85714 -0.71459,-1.29612 -0.71459,-2.91011 0,-2.19552 1.10885,-3.38692 1.10885,-1.21974 3.22798,-1.21974 2.08956,0 3.1479,1.21974 1.08421,1.19509 1.08421,3.4399 v 0.76387 h -2.75118 v -0.94868 q 0,-0.94868 -0.36962,-1.37621 -0.36961,-0.45586 -1.08421,-0.45586 -1.45505,0 -1.45505,1.77293 0,1.01028 0.52978,1.87888 0.55443,0.87476 1.98484,2.11667 1.82591,1.58812 2.51339,2.88424 0.68995,1.29612 0.68995,3.04318 0,2.2756 -1.13349,3.49287 -1.10885,1.21974 -3.25385,1.21974 z" />
    <path
       id="path1504"
       style="font-style:normal;font-variant:normal;font-weight:normal;font-stretch:normal;font-size:0.214751px;line-height:1.25;font-family:'Bebas Neue';-inkscape-font-specification:'Bebas Neue';letter-spacing:0px;word-spacing:0px;fill:#000000;fill-opacity:1;stroke:none;stroke-width:1.98438"
       d="m 252.8513,250.92945 h 2.91011 v 18.52098 h -2.91011 z" />
    <path
       id="path1506"
       style="font-style:normal;font-variant:normal;font-weight:normal;font-stretch:normal;font-size:0.214751px;line-height:1.25;font-family:'Bebas Neue';-inkscape-font-specification:'Bebas Neue';letter-spacing:0px;word-spacing:0px;fill:#000000;fill-opacity:1;stroke:none;stroke-width:1.98438"
       d="m 262.04317,269.71495 q -2.11667,0 -3.22799,-1.19509 -1.10885,-1.21973 -1.10885,-3.46577 v -9.73693 q 0,-2.2485 1.10885,-3.4399 1.10885,-1.21973 3.22799,-1.21973 2.11667,0 3.22798,1.21973 1.10885,1.1951 1.10885,3.4399 v 1.58812 h -2.75118 v -1.77293 q 0,-1.8259 -1.50803,-1.8259 -1.50804,0 -1.50804,1.8259 V 265.266 q 0,1.7988 1.50804,1.7988 1.50803,0 1.50803,-1.7988 v -3.6247 h -1.45506 v -2.64645 H 266.38 v 6.05924 q 0,2.2485 -1.10885,3.46577 -1.10885,1.19509 -3.22798,1.19509 z" />
    <path
       id="path1508"
       style="font-style:normal;font-variant:normal;font-weight:normal;font-stretch:normal;font-size:0.214751px;line-height:1.25;font-family:'Bebas Neue';-inkscape-font-specification:'Bebas Neue';letter-spacing:0px;word-spacing:0px;fill:#000000;fill-opacity:1;stroke:none;stroke-width:1.98438"
       d="m 268.251,250.92945 h 3.65058 l 2.83126,11.08602 h 0.0528 v -11.08602 h 2.59348 v 18.52098 h -2.9902 l -3.49287,-13.52032 h -0.053 v 13.52032 h -2.59224 z" />
    <path
       id="path1227"
       style="fill:#faeb56;fill-opacity:1;stroke:none;stroke-width:32.5981px;stroke-linecap:butt;stroke-linejoin:miter;stroke-opacity:1"
       d="m 250.00045,121.0466 -15.28069,23.93907 h 10.6967 c -1.52898,19.35546 -3.56433,26.48178 -14.26177,25.97652 -10.6967,-0.50514 -15.78952,-24.95786 -15.78952,-24.95786 l 9.16772,-3.05426 -17.82697,-12.73378 12.73378,51.95353 h 30.56075 30.56075 l 12.73341,-51.95353 -17.82722,12.73378 9.16895,3.05426 c 0,0 -5.09331,24.45321 -15.78989,24.95786 -10.6967,0.50514 -12.73279,-6.62106 -14.26165,-25.97652 h 10.69547 z m -30.56075,65.70548 v 7.38494 h 61.1215 v -7.38494 z" />
    <path
       id="path1246"
       style="opacity:0.1;fill:#000000;fill-opacity:1;stroke:none;stroke-width:8.72674;stroke-linecap:round;stroke-linejoin:round;stroke-opacity:1;paint-order:stroke fill markers"
       d="M 249.97285,59.988672 V 430.28274 c 0.81316,-0.13552 1.81605,-0.6037 2.54542,-0.64067 8.02684,-0.29569 22.34726,4.96642 22.34726,4.96642 0,0 14.44917,4.69289 23.62096,2.09942 9.148,-2.58855 19.03697,-14.19808 19.03697,-14.19808 0,0 9.4708,-12.00514 16.61721,-15.91704 7.14469,-3.91054 22.34763,-5.41118 22.34763,-5.41118 0,0 15.14737,-1.9947 22.2838,-8.27695 7.14715,-6.29087 11.07864,-21.0101 11.07864,-21.01047 0,0 3.40294,-14.89961 8.08598,-21.45636 4.67072,-6.53975 17.57267,-14.64334 17.57267,-14.64334 0,0 12.54306,-8.55539 16.04407,-17.57268 3.49903,-9.01124 0,-24.00301 0,-24.00301 0,0 -4.3701,-14.85144 -3.62964,-22.79289 0.75156,-8.01082 7.70404,-21.58363 7.70404,-21.58363 0,0 6.41161,-13.74468 4.90235,-23.17532 -1.50557,-9.40551 -11.90535,-20.56484 -11.90535,-20.56484 0,0 -10.84947,-10.69547 -13.94353,-18.20903 -3.09369,-7.51307 -2.86576,-22.85696 -2.86576,-22.85696 0,0 -0.40658,-15.25493 -5.85719,-23.0478 -5.45554,-7.79645 -19.67357,-13.37039 -19.67357,-13.37039 0,0 -14.384,-5.06251 -20.37388,-10.50573 -5.98286,-5.43705 -12.47887,-19.227814 -12.47887,-19.227814 0,0 -6.92661,-13.515025 -15.34388,-18.081759 -8.42726,-4.572156 -23.61973,-3.055496 -23.61973,-3.055496 0,0 -15.13887,2.300246 -23.04817,0.443539 -7.90856,-1.851778 -20.5009,-10.632632 -20.5009,-10.632632 0,0 -11.56776,-7.143454 -20.9469,-7.575905 z" />
  </g>
</svg>
