<?xml version="1.0" encoding="UTF-8" standalone="no"?>
<svg
   xmlns:dc="http://purl.org/dc/elements/1.1/"
   xmlns:cc="http://creativecommons.org/ns#"
   xmlns:rdf="http://www.w3.org/1999/02/22-rdf-syntax-ns#"
   xmlns:svg="http://www.w3.org/2000/svg"
   xmlns="http://www.w3.org/2000/svg"
   id="svg8"
   version="1.1"
   viewBox="0 0 500 500"
   height="1889.7638"
   width="1889.7638">
  <defs
     id="defs2" />
  <metadata
     id="metadata5">
    <rdf:RDF>
      <cc:Work
         rdf:about="">
        <dc:format>image/svg+xml</dc:format>
        <dc:type
           rdf:resource="http://purl.org/dc/dcmitype/StillImage" />
        <dc:title></dc:title>
      </cc:Work>
    </rdf:RDF>
  </metadata>
  <g
     id="layer1">
    <path
       d="m 91.771128,84.010939 c 0,0 117.742732,-5.430305 176.657262,-5.430305 58.91453,0 176.65725,5.430305 176.65725,5.430305 0,0 5.52009,118.965611 5.52009,178.489751 0,59.52413 -5.52009,178.48986 -5.52009,178.48986 0,0 -117.74272,5.42888 -176.65725,5.42888 -58.91453,0 -176.657262,-5.42888 -176.657262,-5.42888 0,0 -5.520098,-118.96573 -5.520098,-178.48986 0,-59.52414 5.520098,-178.489751 5.520098,-178.489751 z"
       style="fill:#e8e8e8;fill-opacity:1;stroke-width:13.0074;stroke-linecap:round;stroke-linejoin:round;paint-order:stroke fill markers"
       id="path1015" />
    <path
       id="rect1010"
       style="fill:#279b8d;fill-opacity:1;stroke-width:13.0074;stroke-linecap:round;stroke-linejoin:round;paint-order:stroke fill markers"
       d="m 76.29604,68.535851 c 0,0 117.74272,-5.430305 176.65726,-5.430305 58.91454,0 176.65724,5.430305 176.65724,5.430305 0,0 5.5201,118.965619 5.5201,178.489749 0,59.52413 -5.5201,178.48986 -5.5201,178.48986 0,0 -117.7427,5.42888 -176.65724,5.42888 -58.91454,0 -176.65726,-5.42888 -176.65726,-5.42888 0,0 -5.520098,-118.96573 -5.520098,-178.48986 0,-59.52413 5.520098,-178.489749 5.520098,-178.489749 z" />
    <path
       d="m 97.454704,93.951676 c 0,0 103.640466,-4.65638 155.498596,-4.65638 51.85813,0 155.49858,4.65638 155.49858,4.65638 0,0 4.85877,102.025634 4.85877,153.073774 0,51.04816 -4.85877,153.0739 -4.85877,153.0739 0,0 -103.64045,4.65495 -155.49858,4.65495 -51.85813,0 -155.498596,-4.65495 -155.498596,-4.65495 0,0 -4.858769,-102.02574 -4.858769,-153.0739 0,-51.04814 4.858769,-153.073774 4.858769,-153.073774 z"
       style="fill:#f69419;fill-opacity:1;stroke-width:11.3013;stroke-linecap:round;stroke-linejoin:round;paint-order:stroke fill markers"
       id="path1013" />
    <path
       id="rect1025"
       style="fill:#aa0000;fill-opacity:1;stroke-width:5.49091;stroke-linecap:round;stroke-linejoin:round;paint-order:stroke fill markers"
       d="m 106.71093,146.48186 17.97131,10.53241 -17.97131,10.53238 h 51.9258 l 13.552,-8.7647 h 14.06789 v -3.53536 h -13.99435 l -13.62554,-8.76473 z m 241.8036,0 v 8.76473 h -28.87189 v 3.53536 h 28.87189 v 8.7647 l 50.67341,-10.53238 z" />
    <path
       id="path1188"
       style="font-style:normal;font-variant:normal;font-weight:normal;font-stretch:normal;font-size:0.352811px;line-height:1.25;font-family:'Bebas Neue';-inkscape-font-specification:'Bebas Neue';letter-spacing:0px;word-spacing:0px;fill:#ffffff;fill-opacity:1;stroke:none;stroke-width:3.7714"
       d="m 199.66989,173.11272 q -4.02213,0 -6.08451,-2.26333 -2.06237,-2.31323 -2.06237,-6.58764 v -2.01106 h 5.22934 v 2.41442 q 0,3.41924 2.86623,3.41924 1.41103,0 2.11227,-0.79815 0.75539,-0.85517 0.75539,-2.71515 0,-2.21204 -1.01195,-3.87249 -1.01194,-1.71032 -3.7214,-4.07343 -3.41924,-3.01732 -4.77752,-5.43031 -1.35402,-2.4643 -1.35402,-5.5315 0,-4.17321 2.11226,-6.43656 2.11226,-2.31322 6.13439,-2.31322 3.97225,0 5.98332,2.31322 2.06238,2.26335 2.06238,6.53776 v 1.45806 h -5.22935 v -1.81011 q 0,-1.8101 -0.69839,-2.61538 -0.69838,-0.85517 -2.06237,-0.85517 -2.76504,0 -2.76504,3.36935 0,1.91131 1.01195,3.57033 1.0547,1.65902 3.77128,4.02355 3.46912,3.01731 4.77753,5.48161 1.31125,2.46431 1.31125,5.78235 0,4.32429 -2.16214,6.63752 -2.11226,2.31323 -6.1857,2.31323 z" />
    <path
       id="path1190"
       style="font-style:normal;font-variant:normal;font-weight:normal;font-stretch:normal;font-size:0.352811px;line-height:1.25;font-family:'Bebas Neue';-inkscape-font-specification:'Bebas Neue';letter-spacing:0px;word-spacing:0px;fill:#ffffff;fill-opacity:1;stroke:none;stroke-width:3.7714"
       d="m 211.13966,137.41011 h 5.53151 v 35.19978 h -5.53151 z" />
    <path
       id="path1192"
       style="font-style:normal;font-variant:normal;font-weight:normal;font-stretch:normal;font-size:0.352811px;line-height:1.25;font-family:'Bebas Neue';-inkscape-font-specification:'Bebas Neue';letter-spacing:0px;word-spacing:0px;fill:#ffffff;fill-opacity:1;stroke:none;stroke-width:3.7714"
       d="m 220.7647,137.41011 h 7.89461 l 3.52044,25.19291 h 0.10048 l 3.52044,-25.19291 h 7.8946 v 35.19978 h -5.22934 v -26.65125 h -0.10062 l -4.02213,26.65125 h -4.62646 l -4.02213,-26.65125 h -0.10062 v 26.65125 h -4.82741 z" />
    <path
       id="path1194"
       style="font-style:normal;font-variant:normal;font-weight:normal;font-stretch:normal;font-size:0.352811px;line-height:1.25;font-family:'Bebas Neue';-inkscape-font-specification:'Bebas Neue';letter-spacing:0px;word-spacing:0px;fill:#ffffff;fill-opacity:1;stroke:none;stroke-width:3.7714"
       d="m 255.76879,173.11272 q -4.07344,0 -6.23558,-2.31321 -2.16215,-2.31323 -2.16215,-6.53632 V 145.7581 q 0,-4.22452 2.16215,-6.53775 2.16214,-2.31322 6.23558,-2.31322 4.07345,0 6.23559,2.31322 2.16215,2.31323 2.16215,6.53775 v 18.50509 q 0,4.22451 -2.16215,6.53632 -2.16214,2.31321 -6.23559,2.31321 z m 0,-5.02837 q 2.86623,0 2.86623,-3.46913 V 145.4062 q 0,-3.46912 -2.86623,-3.46912 -2.86622,0 -2.86622,3.46912 v 19.20902 q 0,3.46913 2.86622,3.46913 z" />
    <path
       id="path1196"
       style="font-style:normal;font-variant:normal;font-weight:normal;font-stretch:normal;font-size:0.352811px;line-height:1.25;font-family:'Bebas Neue';-inkscape-font-specification:'Bebas Neue';letter-spacing:0px;word-spacing:0px;fill:#ffffff;fill-opacity:1;stroke:none;stroke-width:3.7714"
       d="m 267.90717,137.41011 h 6.93967 l 5.38042,21.06958 h 0.10049 v -21.06958 h 4.9286 v 35.19978 h -5.68258 l -6.63751,-25.6959 h -0.10063 v 25.6959 h -4.92861 z" />
    <path
       id="path1198"
       style="font-style:normal;font-variant:normal;font-weight:normal;font-stretch:normal;font-size:0.352811px;line-height:1.25;font-family:'Bebas Neue';-inkscape-font-specification:'Bebas Neue';letter-spacing:0px;word-spacing:0px;fill:#ffffff;fill-opacity:1;stroke:none;stroke-width:3.7714"
       d="m 289.26508,137.41011 h 5.6327 l -1.35401,11.36516 h -2.96743 z" />
    <path
       id="path1200"
       style="font-style:normal;font-variant:normal;font-weight:normal;font-stretch:normal;font-size:0.352811px;line-height:1.25;font-family:'Bebas Neue';-inkscape-font-specification:'Bebas Neue';letter-spacing:0px;word-spacing:0px;fill:#ffffff;fill-opacity:1;stroke:none;stroke-width:3.7714"
       d="m 306.03518,173.11272 q -4.02213,0 -6.08451,-2.26333 -2.06237,-2.31323 -2.06237,-6.58764 v -2.01106 h 5.22934 v 2.41442 q 0,3.41924 2.86623,3.41924 1.41103,0 2.11226,-0.79815 0.7554,-0.85517 0.7554,-2.71515 0,-2.21204 -1.01195,-3.87249 -1.01194,-1.71032 -3.7214,-4.07343 -3.41924,-3.01732 -4.77752,-5.43031 -1.35402,-2.4643 -1.35402,-5.5315 0,-4.17321 2.11226,-6.43656 2.11226,-2.31322 6.13439,-2.31322 3.97225,0 5.98332,2.31322 2.06237,2.26335 2.06237,6.53776 v 1.45806 h -5.22935 v -1.81011 q 0,-1.8101 -0.69838,-2.61538 -0.69839,-0.85517 -2.06238,-0.85517 -2.76503,0 -2.76503,3.36935 0,1.91131 1.01195,3.57033 1.0547,1.65902 3.77128,4.02355 3.46912,3.01731 4.77753,5.48161 1.31125,2.46431 1.31125,5.78235 0,4.32429 -2.16214,6.63752 -2.11227,2.31323 -6.1857,2.31323 z" />
    <path
       d="m 190.0086,382.66443 -4.04921,-12.23886 h 3.56176 l 2.2833,7.82477 h 0.0608 l 2.2833,-7.82477 h 3.25818 l -4.04922,12.23886 v 9.07331 h -3.34939 z"
       style="font-style:normal;font-variant:normal;font-weight:normal;font-stretch:normal;font-size:0.213608px;line-height:1.25;font-family:'Bebas Neue';-inkscape-font-specification:'Bebas Neue';letter-spacing:0px;word-spacing:0px;fill:#000000;fill-opacity:1;stroke:none;stroke-width:2.28338"
       id="path1203" />
    <path
       d="m 198.94523,370.42543 h 9.13318 v 3.04439 h -5.7852 v 5.6327 h 4.59651 v 3.04439 h -4.59651 v 6.54629 h 5.7852 v 3.04439 h -9.13318 z"
       style="font-style:normal;font-variant:normal;font-weight:normal;font-stretch:normal;font-size:0.213608px;line-height:1.25;font-family:'Bebas Neue';-inkscape-font-specification:'Bebas Neue';letter-spacing:0px;word-spacing:0px;fill:#000000;fill-opacity:1;stroke:none;stroke-width:2.28338"
       id="path1205" />
    <path
       d="m 212.59311,370.42543 h 4.53666 l 3.47055,21.31159 h -3.3494 l -0.61287,-4.23164 v 0.061 h -3.80549 l -0.61287,4.17036 h -3.10568 z m 3.65298,14.24849 -1.49226,-10.53422 h -0.0608 l -1.46091,10.53422 z"
       style="font-style:normal;font-variant:normal;font-weight:normal;font-stretch:normal;font-size:0.213608px;line-height:1.25;font-family:'Bebas Neue';-inkscape-font-specification:'Bebas Neue';letter-spacing:0px;word-spacing:0px;fill:#000000;fill-opacity:1;stroke:none;stroke-width:2.28338"
       id="path1207" />
    <path
       d="m 222.1952,370.42543 h 4.96282 q 2.5883,0 3.77556,1.21148 1.18298,1.18298 1.18298,3.68434 v 1.31126 q 0,3.31805 -2.19208,4.20172 v 0.0608 q 1.21149,0.37057 1.70463,1.49226 0.51311,1.12597 0.51311,3.01446 v 3.74421 q 0,0.91218 0.0608,1.49226 0.0608,0.54161 0.29931,1.09747 h -3.40927 q -0.18528,-0.51311 -0.24229,-0.96919 -0.0608,-0.45609 -0.0608,-1.64334 v -3.89671 q 0,-1.46092 -0.4846,-2.03957 -0.45608,-0.58438 -1.61341,-0.58438 h -1.15447 v 9.13319 h -3.3494 z m 4.56659,9.13317 q 0.9977,0 1.49227,-0.5131 0.5131,-0.51309 0.5131,-1.73456 v -1.64476 q 0,-1.15449 -0.42758,-1.6747 -0.39908,-0.51311 -1.28276,-0.51311 h -1.52219 v 6.08879 z"
       style="font-style:normal;font-variant:normal;font-weight:normal;font-stretch:normal;font-size:0.213608px;line-height:1.25;font-family:'Bebas Neue';-inkscape-font-specification:'Bebas Neue';letter-spacing:0px;word-spacing:0px;fill:#000000;fill-opacity:1;stroke:none;stroke-width:2.28338"
       id="path1209" />
    <path
       d="m 273.39144,389.42323 q 0,-2.2833 0.72689,-3.89671 0.72689,-1.64334 2.61823,-3.62305 1.85714,-1.97828 2.55695,-3.37933 0.7269,-1.39677 0.7269,-2.92325 0,-1.36826 -0.45609,-1.88706 -0.42759,-0.5416 -1.28276,-0.5416 -1.73598,0 -1.73598,2.10085 v 2.2833 h -3.16696 v -2.07094 q 0,-2.58829 1.28274,-3.95799 1.28275,-1.39677 3.71427,-1.39677 2.4358,0 3.71427,1.39677 1.28275,1.36827 1.28275,3.95799 0,1.94837 -0.94068,3.8055 -0.91218,1.85714 -3.1969,4.26157 -1.49226,1.58349 -2.00964,2.58831 -0.51309,0.96918 -0.51309,2.10086 v 0.45609 h 6.36243 v 3.04438 h -9.68191 z"
       style="font-style:normal;font-variant:normal;font-weight:normal;font-stretch:normal;font-size:0.213608px;line-height:1.25;font-family:'Bebas Neue';-inkscape-font-specification:'Bebas Neue';letter-spacing:0px;word-spacing:0px;fill:#000000;fill-opacity:1;stroke:none;stroke-width:2.28338"
       id="path1211" />
    <path
       d="m 290.48308,392.04147 q -2.46574,0 -3.77556,-1.39677 -1.31126,-1.39678 -1.31126,-3.958 v -11.20411 q 0,-2.55694 1.31126,-3.95799 1.31125,-1.39677 3.77556,-1.39677 2.46573,0 3.77555,1.39677 1.31126,1.39677 1.31126,3.95799 v 11.20411 q 0,2.55694 -1.31126,3.958 -1.31125,1.39677 -3.77555,1.39677 z m 0,-3.0444 q 1.73598,0 1.73598,-2.10086 v -11.63026 q 0,-2.10086 -1.73598,-2.10086 -1.73599,0 -1.73599,2.10086 v 11.63026 q 0,2.10086 1.73599,2.10086 z"
       style="font-style:normal;font-variant:normal;font-weight:normal;font-stretch:normal;font-size:0.213608px;line-height:1.25;font-family:'Bebas Neue';-inkscape-font-specification:'Bebas Neue';letter-spacing:0px;word-spacing:0px;fill:#000000;fill-opacity:1;stroke:none;stroke-width:2.28338"
       id="path1213" />
    <path
       d="m 297.77123,389.42323 q 0,-2.2833 0.7269,-3.89671 0.72688,-1.64334 2.61822,-3.62305 1.85714,-1.97828 2.55695,-3.37933 0.72689,-1.39677 0.72689,-2.92325 0,-1.36826 -0.45608,-1.88706 -0.42759,-0.5416 -1.28275,-0.5416 -1.73457,0 -1.73457,2.10085 v 2.2833 h -3.16697 v -2.07094 q 0,-2.58829 1.28276,-3.95799 1.28275,-1.39677 3.71427,-1.39677 2.4358,0 3.71427,1.39677 1.28275,1.36827 1.28275,3.95799 0,1.94837 -0.94068,3.8055 -0.91218,1.85714 -3.1969,4.26157 -1.49226,1.58349 -2.00964,2.58831 -0.5131,0.96918 -0.5131,2.10086 v 0.45609 h 6.36244 v 3.04438 h -9.68191 z"
       style="font-style:normal;font-variant:normal;font-weight:normal;font-stretch:normal;font-size:0.213608px;line-height:1.25;font-family:'Bebas Neue';-inkscape-font-specification:'Bebas Neue';letter-spacing:0px;word-spacing:0px;fill:#000000;fill-opacity:1;stroke:none;stroke-width:2.28338"
       id="path1215" />
    <path
       d="m 314.86287,392.04147 q -2.46573,0 -3.77556,-1.39677 -1.31126,-1.39678 -1.31126,-3.958 v -11.20411 q 0,-2.55694 1.31126,-3.95799 1.31125,-1.39677 3.77556,-1.39677 2.46573,0 3.77556,1.39677 1.31126,1.39677 1.31126,3.95799 v 11.20411 q 0,2.55694 -1.31126,3.958 -1.31125,1.39677 -3.77556,1.39677 z m 0,-3.0444 q 1.73598,0 1.73598,-2.10086 v -11.63026 q 0,-2.10086 -1.73598,-2.10086 -1.73599,0 -1.73599,2.10086 v 11.63026 q 0,2.10086 1.73599,2.10086 z"
       style="font-style:normal;font-variant:normal;font-weight:normal;font-stretch:normal;font-size:0.213608px;line-height:1.25;font-family:'Bebas Neue';-inkscape-font-specification:'Bebas Neue';letter-spacing:0px;word-spacing:0px;fill:#000000;fill-opacity:1;stroke:none;stroke-width:2.28338"
       id="path1217" />
    <path
       d="m 264.3167,381.08123 a 11.363643,11.363643 0 0 1 -11.36373,11.36373 11.363643,11.363643 0 0 1 -11.36374,-11.36373 11.363643,11.363643 0 0 1 11.36374,-11.36374 11.363643,11.363643 0 0 1 11.36373,11.36374"
       style="fill:#aa0000;fill-opacity:1;stroke:none;stroke-width:11.3132;stroke-linecap:round;stroke-linejoin:round;stroke-opacity:1;paint-order:stroke fill markers"
       id="path1049" />
    <path
       d="m 258.30202,389.46207 -5.40912,-2.89952 -5.45418,2.81236 1.0844,-6.04109 -4.36039,-4.31827 6.08004,-0.83389 2.76039,-5.48106 2.67197,5.5248 6.06681,0.92958 -4.42838,4.248 z"
       style="fill:#ffffff;fill-opacity:1;stroke:none;stroke-width:0.197612;stroke-linecap:round;stroke-linejoin:round;stroke-opacity:1;paint-order:stroke fill markers"
       id="path1101" />
    <path
       id="path1112"
       style="opacity:0.1;fill:#000000;fill-opacity:1;stroke-width:13.0073;stroke-linecap:round;stroke-linejoin:round;paint-order:stroke fill markers"
       d="M 252.9864,63.106354 V 430.93071 c 58.91467,0 176.6203,-5.45028 176.6203,-5.45028 0,0 5.52421,-118.9378 5.52421,-178.46193 0,-59.52411 -5.52421,-178.461817 -5.52421,-178.461817 0,0 -117.70563,-5.450329 -176.6203,-5.450329 z" />
    <path
       id="path1222"
       style="font-style:normal;font-variant:normal;font-weight:normal;font-stretch:normal;font-size:0.220988px;line-height:1.25;font-family:Pacifico;-inkscape-font-specification:Pacifico;letter-spacing:0px;word-spacing:0px;fill:#000000;fill-opacity:1;stroke:none;stroke-width:2.36227;stroke-opacity:1"
       d="m 235.74721,100.52149 q 0.98344,0.18529 1.44951,0.65563 0.49885,0.47034 0.49885,1.09746 0,1.04045 -0.59862,1.51222 -0.57011,0.47034 -1.8272,0.38483 -2.83488,-0.2138 -4.44116,-0.28506 -1.57494,-0.0945 -4.15754,-0.12599 -1.16873,5.79519 -2.14219,11.65451 -0.34206,2.14219 -0.7269,4.97707 -0.38482,2.80352 -0.49884,4.53523 -0.063,0.91218 -0.75539,1.41102 -0.69839,0.47034 -1.669,0.47034 -1.04046,0 -1.60629,-0.49884 -0.57011,-0.49885 -0.57011,-1.32551 0,-0.75539 0.21379,-2.48853 0.25655,-1.76307 0.57011,-3.68434 0.34206,-1.92128 0.5416,-3.338 0.34207,-2.39304 0.7839,-4.75615 0.44184,-2.3617 0.88368,-4.47254 0.0945,-0.47035 0.21379,-1.06896 0.12599,-0.62713 0.28506,-1.38252 -3.08716,0.0945 -4.85023,0.49884 -1.76449,0.41333 -2.51988,1.16873 -0.72689,0.72689 -0.72689,1.88993 0,1.06896 0.62712,2.0467 0.12599,0.21379 0.12599,0.47035 0,0.59862 -0.72688,1.14022 -0.69839,0.49886 -1.44952,0.49886 -0.5416,0 -0.88366,-0.31357 -0.62712,-0.5416 -1.04046,-1.51222 -0.41333,-1.01196 -0.41333,-2.26763 0,-2.67668 1.73172,-4.28297 1.76306,-1.63764 5.32341,-2.39304 3.59027,-0.755394 9.1973,-0.755394 3.46485,0 5.51155,0.125994 2.07805,0.12599 3.62163,0.41333 z" />
    <path
       id="path1224"
       style="font-style:normal;font-variant:normal;font-weight:normal;font-stretch:normal;font-size:0.220988px;line-height:1.25;font-family:Pacifico;-inkscape-font-specification:Pacifico;letter-spacing:0px;word-spacing:0px;fill:#000000;fill-opacity:1;stroke:none;stroke-width:2.36227;stroke-opacity:1"
       d="m 250.21264,119.64004 q 0.41333,0 0.62712,0.38482 0.25654,0.38483 0.25654,1.04046 0,1.25424 -0.59861,1.95262 -1.4495,1.669 -2.99166,2.74081 -1.51221,1.06896 -3.46484,1.06896 -1.60629,0 -2.42583,-0.91218 -0.81241,-0.94068 -0.81241,-2.70802 0,-0.88367 0.44184,-3.14987 0.41333,-1.98398 0.41333,-2.7408 0,-0.49885 -0.34206,-0.49885 -0.41333,0 -1.16873,1.06896 -0.7554,1.04045 -1.51222,2.77217 -0.75539,1.7317 -1.22574,3.6544 -0.59861,2.51989 -2.9603,2.51989 -0.94068,0 -1.25424,-0.65563 -0.28505,-0.69838 -0.28505,-2.45717 0,-1.01195 0.0315,-1.60629 l 0.0315,-2.51989 q 0,-4.85022 0.98344,-10.11092 1.01194,-5.25929 2.92894,-8.81963 1.95263,-3.590277 4.66208,-3.590277 1.44951,0 2.33032,1.254244 0.91219,1.225738 0.91219,3.212573 0,3.18122 -1.85856,6.61472 -1.85856,3.40215 -6.04746,7.96874 -0.0945,1.63765 -0.0945,3.37078 1.04045,-2.67667 2.29897,-4.3471 1.297,-1.70035 2.51989,-2.42582 1.25424,-0.72688 2.29897,-0.72688 2.0467,0 2.0467,2.04811 0,1.22574 -0.69839,4.44117 -0.59861,2.7408 -0.59861,3.62163 0,1.25425 0.91217,1.25425 0.62712,0 1.48087,-0.75541 0.88366,-0.7839 2.33033,-2.51988 0.38482,-0.44184 0.85517,-0.44184 z m -9.3541,-19.46503 q -0.57011,0 -1.25424,1.63764 -0.69838,1.60629 -1.35401,4.37845 -0.62713,2.7394 -1.04046,5.98477 1.95263,-2.29898 3.21258,-5.00845 1.297,-2.70803 1.297,-4.91294 0,-1.01194 -0.21379,-1.54357 -0.2138,-0.54161 -0.62713,-0.54161 z" />
    <path
       id="path1226"
       style="font-style:normal;font-variant:normal;font-weight:normal;font-stretch:normal;font-size:0.220988px;line-height:1.25;font-family:Pacifico;-inkscape-font-specification:Pacifico;letter-spacing:0px;word-spacing:0px;fill:#000000;fill-opacity:1;stroke:none;stroke-width:2.36227;stroke-opacity:1"
       d="m 252.66797,109.90753 q -1.32552,0 -1.984,-0.59862 -0.65563,-0.62713 -0.65563,-1.73172 0,-1.09747 0.85517,-1.82721 0.88368,-0.7554 2.17355,-0.7554 1.16873,0 1.88992,0.57011 0.72689,0.57011 0.72689,1.60629 0,1.25426 -0.8124,2.01536 -0.81241,0.7269 -2.17355,0.7269 z m -0.25656,16.91391 q -2.0467,0 -2.99165,-1.4495 -0.91219,-1.44951 -0.91219,-3.84255 0,-1.41103 0.34208,-3.62163 0.38482,-2.23626 0.94068,-4.15753 0.28505,-1.01195 0.75539,-1.38252 0.47035,-0.38483 1.51222,-0.38483 1.60629,0 1.60629,1.06896 0,0.78391 -0.59862,3.65299 -0.7554,3.46484 -0.7554,4.69344 0,0.94068 0.25656,1.4495 0.25655,0.49885 0.85517,0.49885 0.5701,0 1.41102,-0.78391 0.85516,-0.7839 2.26761,-2.48853 0.38483,-0.44184 0.85517,-0.44184 0.41333,0 0.62712,0.38483 0.25655,0.38483 0.25655,1.04045 0,1.25424 -0.59861,1.95263 -3.11851,3.81119 -5.82654,3.81119 z" />
    <path
       id="path1228"
       style="font-style:normal;font-variant:normal;font-weight:normal;font-stretch:normal;font-size:0.220988px;line-height:1.25;font-family:Pacifico;-inkscape-font-specification:Pacifico;letter-spacing:0px;word-spacing:0px;fill:#000000;fill-opacity:1;stroke:none;stroke-width:2.36227;stroke-opacity:1"
       d="m 262.15147,127.51427 q -1.63765,0 -2.51989,-0.7554 -0.85517,-0.75539 -0.85517,-1.70035 0,-0.81241 0.59862,-1.41103 0.59861,-0.59861 1.76307,-0.59861 0.41333,0 0.94068,0.0945 0.57011,0.063 0.85516,0.0945 -0.0314,-0.8124 -0.38482,-1.54357 -0.31356,-0.72689 -0.81241,-1.38252 -0.49884,-0.69838 -0.94068,-1.19723 -0.98344,1.85856 -1.95262,3.08715 -0.94069,1.22573 -2.07949,2.33032 -0.57011,0.57012 -1.19723,0.57012 -0.49885,0 -0.81241,-0.34207 -0.31356,-0.38483 -0.31356,-0.91217 0,-0.62713 0.44183,-1.16873 l 0.41333,-0.49885 q 1.73172,-2.1422 2.61397,-3.52756 0.57011,-0.91218 1.14022,-2.17355 0.59861,-1.25424 1.54358,-3.43349 0.59861,-1.38252 2.48853,-1.38252 0.88366,0 1.22574,0.15678 0.34206,0.15678 0.34206,0.49885 0,0.18528 -0.12599,0.59861 -0.126,0.41333 -0.34207,0.81241 -0.57011,1.14023 -0.57011,1.92127 0,0.47035 0.31356,1.04046 0.34207,0.5701 1.04045,1.41102 1.01194,1.32551 1.51222,2.26762 0.5416,0.91218 0.5416,2.01534 0,1.32551 -0.62712,2.51989 -0.59862,1.16873 -1.70035,1.88992 -1.09747,0.72688 -2.5199,0.72688 z" />
    <path
       id="path1230"
       style="font-style:normal;font-variant:normal;font-weight:normal;font-stretch:normal;font-size:0.220988px;line-height:1.25;font-family:Pacifico;-inkscape-font-specification:Pacifico;letter-spacing:0px;word-spacing:0px;fill:#000000;fill-opacity:1;stroke:none;stroke-width:2.36227;stroke-opacity:1"
       d="m 281.21198,109.90753 q -1.3255,0 -1.98398,-0.59862 -0.65563,-0.62713 -0.65563,-1.73172 0,-1.09747 0.85517,-1.82721 0.88367,-0.7554 2.17355,-0.7554 1.16872,0 1.88991,0.57011 0.72689,0.57011 0.72689,1.60629 0,1.25426 -0.81241,2.01536 -0.81241,0.7269 -2.17354,0.7269 z m -0.25654,16.91391 q -2.04671,0 -2.99166,-1.4495 -0.91218,-1.44951 -0.91218,-3.84255 0,-1.41103 0.34206,-3.62163 0.38484,-2.23626 0.94069,-4.15753 0.28505,-1.01195 0.7554,-1.38252 0.47034,-0.38483 1.51222,-0.38483 1.60628,0 1.60628,1.06896 0,0.78391 -0.59862,3.65299 -0.75539,3.46484 -0.75539,4.69344 0,0.94068 0.25655,1.4495 0.25655,0.49885 0.85517,0.49885 0.57011,0 1.41102,-0.78391 0.85516,-0.7839 2.26761,-2.48853 0.38483,-0.44184 0.85517,-0.44184 0.41333,0 0.62712,0.38483 0.25656,0.38483 0.25656,1.04045 0,1.25424 -0.59862,1.95263 -3.11851,3.81119 -5.82653,3.81119 z" />
    <path
       id="path1232"
       style="font-style:normal;font-variant:normal;font-weight:normal;font-stretch:normal;font-size:0.220988px;line-height:1.25;font-family:Pacifico;-inkscape-font-specification:Pacifico;letter-spacing:0px;word-spacing:0px;fill:#000000;fill-opacity:1;stroke:none;stroke-width:2.36227;stroke-opacity:1"
       d="m 290.69549,127.51427 q -1.63764,0 -2.51989,-0.7554 -0.85516,-0.75539 -0.85516,-1.70035 0,-0.81241 0.59861,-1.41103 0.59862,-0.59861 1.76449,-0.59861 0.41334,0 0.94068,0.0945 0.57012,0.063 0.85517,0.0945 -0.0315,-0.8124 -0.38482,-1.54357 -0.31356,-0.72689 -0.81241,-1.38252 -0.49884,-0.69838 -0.94068,-1.19723 -0.98344,1.85856 -1.95263,3.08715 -0.94069,1.22573 -2.07805,2.33032 -0.57011,0.57012 -1.19724,0.57012 -0.49885,0 -0.81241,-0.34207 -0.31355,-0.38483 -0.31355,-0.91217 0,-0.62713 0.44183,-1.16873 l 0.41333,-0.49885 q 1.73171,-2.1422 2.61396,-3.52756 0.57011,-0.91218 1.14022,-2.17355 0.59862,-1.25424 1.54358,-3.43349 0.59861,-1.38252 2.48853,-1.38252 0.88367,0 1.22574,0.15678 0.34206,0.15678 0.34206,0.49885 0,0.18528 -0.12599,0.59861 -0.126,0.41333 -0.34207,0.81241 -0.57011,1.14023 -0.57011,1.92127 0,0.47035 0.31356,1.04046 0.34207,0.5701 1.04046,1.41102 1.01195,1.32551 1.51221,2.26762 0.5416,0.91218 0.5416,2.01534 0,1.32551 -0.62711,2.51989 -0.59862,1.16873 -1.70036,1.88992 -1.09746,0.72688 -2.51989,0.72688 z" />
    <path
       id="path1235"
       style="font-style:normal;font-variant:normal;font-weight:normal;font-stretch:normal;font-size:0.776608px;line-height:1.25;font-family:Pacifico;-inkscape-font-specification:Pacifico;letter-spacing:0px;word-spacing:0px;fill:#ffffff;fill-opacity:1;stroke:none;stroke-width:8.3016"
       d="m 127.9233,283.42133 q -6.41945,0 -14.50021,-1.11172 -4.42691,-0.55586 -6.08737,-2.32462 -1.66045,-1.77163 -1.43953,-5.75527 0.76965,-10.95753 3.65299,-27.00786 2.87764,-16.1605 6.9739,-31.10339 0.76964,-2.76646 3.09997,-3.87391 2.32463,-1.11171 6.08736,-1.11171 6.75154,0 6.75154,3.76273 0,1.54927 -0.66988,3.54181 -2.87763,8.85524 -5.75527,23.79786 -2.87763,14.83228 -4.09482,28.33621 3.3209,0.32781 7.52689,0.32781 19.37051,0 28.88965,-11.73288 9.63059,-11.73288 9.63059,-31.32488 0,-13.17241 -7.52688,-20.3665 -7.52689,-7.19479 -21.25202,-7.19479 -8.85525,0 -17.59946,2.76789 -8.63434,2.76646 -15.60709,7.30597 -1.43953,0.99769 -3.09998,0.99769 -1.88136,0 -2.988805,-1.54928 -1.111716,-1.66044 -1.111716,-3.98507 0,-2.65672 0.883672,-4.31716 0.883669,-1.77163 2.988809,-3.20972 7.63806,-5.20227 17.93157,-7.85899 10.29335,-2.76646 19.81306,-2.76646 13.5045,0 23.3553,4.759 9.85151,4.64925 15.16424,13.72542 5.31343,9.07617 5.31343,21.91634 0,16.7138 -6.64179,29.2216 -6.6418,12.39706 -19.37051,19.25977 -12.72915,6.86271 -30.32847,6.86271 z" />
    <path
       id="path1237"
       style="font-style:normal;font-variant:normal;font-weight:normal;font-stretch:normal;font-size:0.776608px;line-height:1.25;font-family:Pacifico;-inkscape-font-specification:Pacifico;letter-spacing:0px;word-spacing:0px;fill:#ffffff;fill-opacity:1;stroke:none;stroke-width:8.3016"
       d="m 241.0397,258.18438 q 1.4381,0 2.21345,1.3255 0.88368,1.32551 0.88368,3.65299 0,4.42833 -2.10372,6.86271 -4.09482,4.98134 -11.6217,9.18733 -7.41572,4.206 -15.93902,4.206 -11.62171,0 -18.04215,-6.3097 -6.41946,-6.30971 -6.41946,-17.26738 0,-7.63806 3.20973,-14.16867 3.20973,-6.64179 8.85525,-10.5157 5.75526,-3.87391 12.95006,-3.87391 6.41945,0 10.29335,3.87391 3.87391,3.76273 3.87391,10.29335 0,7.63806 -5.53435,13.17241 -5.42318,5.42318 -18.48484,8.63433 2.76788,5.09109 10.51569,5.09109 4.98134,0 11.28961,-3.43064 6.41946,-3.54182 11.06871,-9.18734 1.3255,-1.54928 2.98881,-1.54928 z m -27.89353,-16.04976 q -4.09482,0 -6.97388,4.759 -2.76789,4.759 -2.76789,11.51196 v 0.22805 q 6.53062,-1.54928 10.29335,-4.64926 3.76416,-3.09997 3.76416,-7.1948 0,-2.1037 -1.21148,-3.3209 -1.11173,-1.3255 -3.09856,-1.3255 z" />
    <path
       id="path1239"
       style="font-style:normal;font-variant:normal;font-weight:normal;font-stretch:normal;font-size:0.776608px;line-height:1.25;font-family:Pacifico;-inkscape-font-specification:Pacifico;letter-spacing:0px;word-spacing:0px;fill:#ffffff;fill-opacity:1;stroke:none;stroke-width:8.3016"
       d="m 255.71449,285.85642 q -5.75527,0 -8.85524,-2.65672 -2.98881,-2.65672 -2.98881,-5.97761 0,-2.87764 2.10228,-4.98135 2.10371,-2.1037 6.19853,-2.1037 1.43953,0 3.3209,0.32781 1.99254,0.22804 2.9888,0.32782 -0.11074,-2.87764 -1.32551,-5.42319 -1.11171,-2.54554 -2.87763,-4.87016 -1.77162,-2.4358 -3.32089,-4.206 -3.43065,6.53062 -6.86271,10.84779 -3.3209,4.31716 -7.30598,8.19106 -1.99253,1.99253 -4.20599,1.99253 -1.77161,0 -2.87763,-1.21147 -1.11172,-1.32552 -1.11172,-3.20973 0,-2.21346 1.54928,-4.09625 l 1.43953,-1.77161 q 6.08736,-7.5269 9.18734,-12.39707 1.88136,-3.20972 4.4269,-8.52315 2.54555,-5.42318 4.98135,-11.17988 2.10371,-4.87017 8.74407,-4.87017 3.09855,0 4.31717,0.55586 1.21149,0.55586 1.21149,1.77162 0,0.66988 -0.44184,2.10371 -0.44184,1.43953 -1.21149,2.87763 -1.99253,3.98508 -1.99253,6.75154 0,1.66044 1.11171,3.65298 1.21148,1.99254 3.65299,4.98135 3.5418,4.64925 5.31343,7.97015 1.88137,3.20972 1.88137,7.08362 0,1.11172 -0.22805,3.09855 5.42318,-2.10371 12.72915,-11.17986 1.32551,-1.54928 2.9888,-1.54928 1.43811,0 2.21346,1.3255 0.88367,1.32551 0.88367,3.65299 0,4.20599 -2.10371,6.86271 -5.53435,6.86271 -10.62543,9.40825 -4.98135,2.4358 -12.39707,2.65672 -4.42833,3.76416 -10.51569,3.76416 z" />
    <path
       id="path1241"
       style="font-style:normal;font-variant:normal;font-weight:normal;font-stretch:normal;font-size:0.776608px;line-height:1.25;font-family:Pacifico;-inkscape-font-specification:Pacifico;letter-spacing:0px;word-spacing:0px;fill:#ffffff;fill-opacity:1;stroke:none;stroke-width:8.3016"
       d="m 296.9717,223.98172 q -4.64926,0 -6.97388,-2.10228 -2.32463,-2.21346 -2.32463,-6.08736 0,-3.87391 2.98881,-6.41945 3.09998,-2.65672 7.63806,-2.65672 4.09482,0 6.64179,1.99254 2.54554,1.99254 2.54554,5.64552 0,4.42692 -2.87763,7.08363 -2.87763,2.54555 -7.63806,2.54555 z m -0.88367,59.43961 q -7.1948,0 -10.5157,-5.09109 -3.20972,-5.09109 -3.20972,-13.5045 0,-4.98134 1.21149,-12.72915 1.3255,-7.85898 3.32089,-14.61094 0.99769,-3.54181 2.65672,-4.87017 1.66045,-1.32551 5.31343,-1.32551 5.64552,0 5.64552,3.76273 0,2.76789 -2.10371,12.84032 -2.65671,12.17614 -2.65671,16.49246 0,3.32089 0.88367,5.09109 0.88367,1.77161 2.9888,1.77161 1.99254,0 4.98135,-2.76646 2.98881,-2.76789 7.97014,-8.74407 1.32552,-1.54928 2.98881,-1.54928 1.43953,0 2.21346,1.3255 0.88367,1.32552 0.88367,3.65299 0,4.42834 -2.10371,6.86271 -10.95753,13.39333 -20.47738,13.39333 z" />
    <path
       id="path1243"
       style="font-style:normal;font-variant:normal;font-weight:normal;font-stretch:normal;font-size:0.776608px;line-height:1.25;font-family:Pacifico;-inkscape-font-specification:Pacifico;letter-spacing:0px;word-spacing:0px;fill:#ffffff;fill-opacity:1;stroke:none;stroke-width:8.3016"
       d="m 366.38354,258.40572 q 1.43953,0 2.21346,1.43954 0.88367,1.3255 0.88367,3.43063 0,2.54555 -0.76965,3.98508 -0.76965,1.43953 -2.4358,2.54554 -9.51942,6.41945 -13.94633,9.51943 l -7.08363,4.759 q -4.20599,22.91247 -11.0687,35.97371 -6.75154,13.1724 -17.26723,13.1724 -5.64552,0 -9.18734,-3.5418 -3.54181,-3.43065 -3.54181,-9.07617 0,-7.85898 6.19853,-16.93529 6.19853,-8.96642 23.24441,-22.13768 l 0.66989,-4.31716 q -1.88137,2.9888 -4.98135,4.64925 -2.98881,1.54927 -5.97761,1.54927 -6.86271,0 -10.95753,-4.98134 -4.09624,-4.98135 -4.09624,-13.06124 0,-8.85525 4.09624,-16.71394 4.09482,-7.97015 10.84778,-12.72914 6.86272,-4.87018 14.5002,-4.87018 2.4358,0 3.20973,0.99769 0.88367,0.88368 1.43952,3.3209 2.10372,-0.44183 4.87018,-0.44183 2.76788,0 3.8739,0.88366 1.21148,0.76966 1.21148,3.20973 0,1.32551 -0.11073,2.10371 -0.44184,3.43064 -2.76647,17.37812 -0.44184,2.65671 -0.9977,5.86644 -0.44183,3.09855 -0.99769,6.64179 8.52316,-6.64179 16.38185,-11.73288 1.43953,-0.88367 2.54555,-0.88367 z m -39.07283,13.83659 q 2.54555,0 4.87018,-3.09855 2.32462,-3.09855 3.32089,-8.85524 l 3.54181,-18.92768 q -4.53808,0.1106 -8.41198,3.54181 -3.8739,3.32089 -6.19853,8.85525 -2.32463,5.53435 -2.32463,11.73288 0,3.43063 1.32552,5.09109 1.43953,1.66044 3.87389,1.66044 z m -9.18733,50.25242 q 2.76789,0 6.19853,-6.64179 3.54181,-6.64179 6.75154,-21.14142 -8.52316,7.30597 -12.28589,13.17241 -3.76416,5.86644 -3.76416,10.29477 0,1.88137 0.66988,3.09856 0.76965,1.21148 2.4358,1.21148 z" />
    <path
       id="path1245"
       style="font-style:normal;font-variant:normal;font-weight:normal;font-stretch:normal;font-size:0.776608px;line-height:1.25;font-family:Pacifico;-inkscape-font-specification:Pacifico;letter-spacing:0px;word-spacing:0px;fill:#ffffff;fill-opacity:1;stroke:none;stroke-width:8.3016"
       d="m 369.23895,283.42133 q -4.206,0 -5.97762,-4.42691 -1.66044,-4.42691 -1.66044,-14.16868 0,-14.38959 4.09624,-27.34009 0.9977,-3.20972 3.20973,-4.64925 2.32463,-1.54928 6.41945,-1.54928 2.21345,0 3.09997,0.55586 0.88367,0.55585 0.88367,2.10371 0,1.77162 -1.66045,7.97015 -1.11171,4.4269 -1.77161,7.7478 -0.66988,3.32089 -1.11172,8.19107 3.65298,-9.51943 8.19107,-15.49632 4.53808,-5.97762 8.85524,-8.52316 4.42691,-2.54555 8.0799,-2.54555 3.54181,0 5.31344,1.88137 1.88135,1.77162 1.88135,5.31343 0,2.87764 -1.21148,10.84778 -1.11171,6.75154 -1.77162,12.84032 -0.66988,5.97762 -0.66988,13.39333 0,4.206 -1.77161,6.08736 -1.66046,1.77162 -5.53436,1.77162 -3.65298,0 -5.31343,-1.88137 -1.66045,-1.88136 -1.66045,-5.64552 0,-4.4269 1.54928,-14.6108 1.3255,-8.85524 1.3255,-11.28962 0,-1.77162 -1.21149,-1.77162 -1.43952,0 -4.09481,3.76416 -2.54554,3.65299 -5.31344,9.74035 -2.65671,6.08735 -4.31716,12.84031 -1.21148,5.20226 -2.87763,7.08363 -1.54928,1.77162 -4.98135,1.77162 z" />
    <path
       id="rect1109"
       style="fill:#ffffff;fill-opacity:1;stroke:none;stroke-width:8.0209;stroke-linecap:round;stroke-linejoin:round;stroke-opacity:1;paint-order:stroke fill markers"
       d="m 103.66905,327.37602 c 0,0 81.70089,-25.5833 118.6083,-22.86074 36.90741,2.72229 61.01953,37.64328 95.53674,33.54532 34.51722,-4.09767 90.10531,-58.2666 90.10531,-58.2666 0,0 -62.16232,65.42991 -96.58689,73.07581 -34.42458,7.64518 -47.53712,-18.91015 -88.46595,-18.91015 -40.92882,0 -101.52077,43.05534 -101.52077,43.05534 l 8.81391,-42.80934 z" />
  </g>
</svg>
