<?xml version="1.0" encoding="UTF-8" standalone="no"?>
<svg
   xmlns:dc="http://purl.org/dc/elements/1.1/"
   xmlns:cc="http://creativecommons.org/ns#"
   xmlns:rdf="http://www.w3.org/1999/02/22-rdf-syntax-ns#"
   xmlns:svg="http://www.w3.org/2000/svg"
   xmlns="http://www.w3.org/2000/svg"
   id="svg8"
   version="1.1"
   viewBox="0 0 500 500"
   height="1889.7638"
   width="1889.7638">
  <defs
     id="defs2" />
  <metadata
     id="metadata5">
    <rdf:RDF>
      <cc:Work
         rdf:about="">
        <dc:format>image/svg+xml</dc:format>
        <dc:type
           rdf:resource="http://purl.org/dc/dcmitype/StillImage" />
        <dc:title></dc:title>
      </cc:Work>
    </rdf:RDF>
  </metadata>
  <g
     id="layer1">
    <g
       transform="matrix(0.86506076,0,0,0.86506076,33.734811,33.734814)"
       id="g1146">
      <path
         id="path847"
         style="fill:#db5518;fill-opacity:1;stroke-width:434.635;stroke-linecap:round;stroke-linejoin:round;paint-order:stroke fill markers"
         d="m 244.4989,14.708947 c -1.81917,3.146403 -3.56075,6.292807 -5.20328,9.468925 -1.63428,3.176118 -3.22564,6.353887 -4.69155,9.554767 -1.97929,-2.920246 -4.00646,-5.853698 -6.14258,-8.701309 -2.13612,-2.847611 -4.36469,-5.587921 -6.65433,-8.359595 -1.4527,3.296625 -2.8113,6.581695 -4.09396,9.894829 -1.28761,3.313133 -2.46958,6.65433 -3.58221,9.98067 -2.26984,-2.67923 -4.66513,-5.33535 -7.08023,-7.933692 -2.41511,-2.598342 -4.86488,-5.162017 -7.42195,-7.677819 -1.08952,3.417133 -2.13942,6.816107 -3.07047,10.236542 -0.92444,3.420435 -1.79111,6.901949 -2.55872,10.322384 -2.53066,-2.428311 -5.09929,-4.825256 -7.76201,-7.166075 -2.66438,-2.340819 -5.39643,-4.658527 -8.18957,-6.910203 -0.74285,3.506276 -1.37015,6.994393 -1.96113,10.492415 -0.57778,3.498022 -1.10603,7.005948 -1.53524,10.492415 -2.76177,-2.169137 -5.56316,-4.321766 -8.44543,-6.398458 -2.88228,-2.075042 -5.87351,-4.077449 -8.87134,-6.056745 -0.39619,3.565704 -0.69334,7.116551 -0.94095,10.664097 -0.24762,3.544244 -0.4127,7.057123 -0.51175,10.578256 -2.96316,-1.90336 -6.05674,-3.742339 -9.12721,-5.545001 -3.07047,-1.802661 -6.12443,-3.590466 -9.2989,-5.289128 -0.0665,3.595419 -0.0764,7.185885 0,10.748288 0.0791,3.560752 0.21461,7.139662 0.42921,10.662446 -3.1332,-1.634281 -6.32582,-3.171166 -9.55477,-4.691543 -3.22729,-1.518725 -6.4909,-3.025896 -9.81064,-4.43567 0.26413,3.593768 0.6273,7.199091 1.02349,10.748288 0.39619,3.547545 0.8254,7.080234 1.37016,10.578255 -3.27187,-1.353646 -6.62462,-2.692436 -9.98067,-3.923925 -3.35606,-1.238092 -6.71706,-2.382088 -10.15235,-3.498022 0.57777,3.562403 1.25459,7.073631 1.96278,10.578256 0.70984,3.502974 1.46921,6.96633 2.30285,10.406574 -3.38246,-1.056505 -6.784739,-2.051931 -10.236539,-2.986277 -3.45345,-0.94095 -6.972932,-1.748186 -10.492414,-2.558723 0.891426,3.501323 1.804312,6.976234 2.814595,10.406574 1.006981,3.428687 2.109708,6.796297 3.242149,10.150697 -3.461704,-0.75936 -6.972932,-1.50221 -10.492415,-2.13282 -3.519482,-0.6273 -7.004297,-1.12253 -10.578255,-1.61777 1.188568,3.40888 2.446469,6.74017 3.753894,10.06651 1.304123,3.32304 2.674278,6.57179 4.095607,9.81064 -3.509577,-0.44571 -7.108297,-0.79238 -10.662446,-1.10603 -3.555799,-0.31365 -7.065377,-0.59428 -10.664097,-0.75936 1.48571,3.28507 3.01269,6.53382 4.607352,9.7248 1.601266,3.18767 3.247102,6.37865 4.947415,9.46892 -3.527736,-0.13487 -7.101694,-0.26412 -10.664097,-0.26412 -3.562403,0.007 -7.157821,0.10482 -10.748287,0.26412 1.771296,3.1332 3.587164,6.18716 5.459159,9.21306 1.875296,3.02259 3.826529,6.04519 5.800873,8.95718 -3.516181,0.18159 -7.040616,0.4292 -10.578256,0.77587 -3.537641,0.33016 -7.108298,0.70984 -10.664097,1.18857 2.048629,2.94996 4.168242,5.87185 6.312617,8.70131 2.146026,2.8278 4.33167,5.57141 6.568489,8.2754 -3.474911,0.51175 -6.92506,1.12254 -10.408224,1.79111 -3.483165,0.67682 -7.005949,1.4692 -10.492415,2.30285 2.319358,2.73536 4.673383,5.41459 7.080234,8.01788 2.408501,2.60164 4.927605,5.12735 7.421947,7.59198 -3.400625,0.85841 -6.839219,1.79606 -10.236542,2.81459 -3.397324,1.02349 -6.761632,2.14273 -10.150702,3.32799 2.581834,2.49105 5.185128,4.90285 7.847851,7.25027 2.662723,2.34412 5.363413,4.62716 8.103723,6.82436 -3.298276,1.20508 -6.613061,2.46628 -9.894829,3.83809 -3.28342,1.37015 -6.54868,2.80634 -9.810639,4.35148 2.834404,2.21701 5.706777,4.33662 8.615468,6.39845 2.910341,2.05854 5.890015,4.07415 8.87134,5.97091 -3.164563,1.55174 -6.332427,3.21243 -9.468926,4.94741 -3.133198,1.73333 -6.282903,3.5492 -9.383085,5.45916 3.103484,1.91327 6.246586,3.72583 9.383085,5.45916 3.136499,1.73168 6.304363,3.39237 9.468926,4.94907 -2.981325,1.90005 -5.96265,3.91072 -8.87134,5.9709 -2.908691,2.06184 -5.781064,4.1798 -8.615468,6.39846 3.261959,1.55174 6.527219,2.97802 9.810639,4.35148 3.281768,1.37015 6.598203,2.63796 9.894829,3.83808 -2.74031,2.2005 -5.442651,4.47694 -8.103723,6.82436 -2.662723,2.34743 -5.267668,4.84342 -7.847851,7.33611 3.390721,1.18857 6.753378,2.22196 10.150702,3.24215 3.397323,1.02349 6.835917,1.96114 10.236542,2.8146 -2.492691,2.46958 -5.013446,4.98868 -7.421947,7.59197 -2.406851,2.60495 -4.760876,5.28253 -7.080234,8.01789 3.488117,0.82539 7.010901,1.63428 10.492415,2.30285 3.481514,0.67682 6.934964,1.2711 10.408224,1.7911 -2.236819,2.7073 -4.424114,5.44431 -6.568489,8.27541 -2.144375,2.8311 -4.263988,5.75135 -6.312617,8.70131 3.554148,0.47873 7.124805,0.85841 10.664097,1.18857 3.53599,0.33015 7.063726,0.57777 10.578256,0.77587 -1.972693,2.91529 -3.927227,5.93128 -5.800873,8.95718 -1.873645,3.02589 -3.687863,6.07985 -5.459159,9.21305 3.592117,0.15072 7.187535,0.24762 10.748287,0.26413 3.560752,0.004 7.136361,-0.11836 10.664097,-0.26413 -1.700313,3.09358 -3.354403,6.27795 -4.947415,9.46893 -1.601265,3.19097 -3.121642,6.43807 -4.607352,9.72479 3.597069,-0.18158 7.108298,-0.44571 10.664097,-0.75936 3.554149,-0.31365 7.15452,-0.74285 10.662446,-1.18857 -1.419678,3.2405 -2.788182,6.57014 -4.095607,9.89648 -1.304124,3.32634 -2.562025,6.65764 -3.753894,10.06651 3.573958,-0.49523 7.144614,-0.99047 10.664097,-1.61777 3.517831,-0.6273 6.94817,-1.37015 10.406573,-2.13282 -1.122536,3.35771 -2.144375,6.72036 -3.156308,10.1507 -1.006981,3.43034 -2.012312,6.9069 -2.900436,10.40823 3.519482,-0.80889 7.040615,-1.61777 10.492414,-2.55872 3.450149,-0.94095 6.857379,-1.92813 10.236539,-2.98628 -0.8419,3.44354 -1.60126,6.90195 -2.30285,10.40822 -0.70984,3.50463 -1.38666,7.01586 -1.96278,10.57826 3.43529,-1.12254 6.88213,-2.26488 10.23654,-3.49637 3.35275,-1.23809 6.62461,-2.57688 9.89483,-3.92393 -0.52826,3.49967 -0.97397,7.02906 -1.37016,10.57826 -0.39619,3.54919 -0.75936,7.15452 -1.02349,10.74829 3.31974,-1.40318 6.5817,-2.9153 9.81064,-4.43567 3.22564,-1.51873 6.42487,-3.06057 9.55477,-4.69155 -0.2146,3.52609 -0.34667,7.10005 -0.42921,10.6641 -0.0761,3.5624 -0.0669,7.15287 0,10.74829 3.17447,-1.69866 6.31262,-3.48647 9.38309,-5.28913 3.06716,-1.80431 6.08316,-3.63999 9.04302,-5.545 0.10532,3.52113 0.26413,7.03236 0.51175,10.57825 0.24761,3.5459 0.54476,7.09675 0.94094,10.6641 2.99784,-1.97929 5.98907,-3.98005 8.87134,-6.05674 2.87898,-2.0767 5.68697,-4.22767 8.44544,-6.39846 0.42921,3.48646 0.94095,6.99439 1.53524,10.49241 0.59428,3.49968 1.22158,6.98614 1.96113,10.49242 2.79314,-2.25168 5.52519,-4.56773 8.18957,-6.9102 2.66107,-2.34247 5.23465,-4.73612 7.76201,-7.16608 0.77587,3.42209 1.63428,6.9003 2.55872,10.32238 0.92444,3.42209 1.97599,6.81941 3.07047,10.23655 2.55542,-2.51581 5.00684,-5.07948 7.42194,-7.67782 2.41181,-2.59834 4.81371,-5.25446 7.08024,-7.93369 1.12253,3.32633 2.29955,6.66753 3.58221,9.98067 1.28762,3.31478 2.64126,6.5982 4.09396,9.89482 2.28964,-2.77167 4.51821,-5.59782 6.65433,-8.44543 2.13282,-2.84761 4.16659,-5.69357 6.14258,-8.61547 1.46921,3.20088 3.04901,6.37865 4.69155,9.55477 1.65078,3.17612 3.38246,6.32252 5.20328,9.46892 1.9892,-3.01599 3.89256,-6.04188 5.71503,-9.12721 1.82248,-3.09523 3.55745,-6.1723 5.20329,-9.29889 1.82082,3.0391 3.73078,5.98741 5.71503,8.95718 1.9859,2.96977 3.99656,5.89001 6.14259,8.78715 1.63428,-3.22564 3.22894,-6.47605 4.69154,-9.7248 1.4527,-3.24875 2.80634,-6.45789 4.09396,-9.7248 2.12786,2.80139 4.37459,5.54995 6.65433,8.27541 2.27974,2.7238 4.56773,5.37331 6.99439,8.01788 1.27111,-3.36101 2.47618,-6.69395 3.58221,-10.06651 1.10603,-3.37091 2.13117,-6.77319 3.07047,-10.15236 2.40355,2.55543 4.87808,5.1224 7.42195,7.59198 2.54386,2.47123 5.17027,4.86653 7.84785,7.25192 0.92444,-3.46666 1.80101,-6.94322 2.55872,-10.40823 0.75937,-3.46335 1.37016,-6.86563 1.96279,-10.32238 2.64952,2.29955 5.41294,4.52977 8.18956,6.73852 2.77663,2.20876 5.63085,4.36634 8.53128,6.48265 0.57778,-3.54094 1.04,-7.05217 1.4527,-10.57826 0.41269,-3.52443 0.75936,-7.07032 1.02349,-10.57825 2.86577,2.03707 5.80582,4.03123 8.78715,5.9709 2.97967,1.93968 6.03693,3.79021 9.12721,5.63084 0.23111,-3.58386 0.34666,-7.10499 0.4292,-10.66409 0.0839,-3.5558 0.14445,-7.13802 0.0855,-10.6641 3.05066,1.76634 6.14424,3.54094 9.2989,5.20329 3.15301,1.66234 6.30271,3.22069 9.55476,4.77738 -0.0982,-3.59872 -0.28063,-7.18919 -0.51174,-10.74829 -0.24762,-3.55745 -0.47873,-7.06372 -0.85841,-10.57825 3.20583,1.48571 6.42817,2.88888 9.7248,4.26564 3.29662,1.37015 6.59985,2.74526 9.98067,4.00976 -0.4127,-3.58221 -0.89143,-7.13306 -1.4527,-10.66409 -0.56126,-3.52939 -1.18856,-7.01916 -1.87694,-10.49242 3.33129,1.20508 6.74347,2.32926 10.1507,3.41218 3.40888,1.08952 6.84087,2.10806 10.32238,3.07047 -0.74285,-3.53599 -1.53523,-7.02081 -2.38869,-10.49242 -0.85841,-3.46995 -1.83072,-6.9201 -2.81459,-10.32238 3.42538,0.90793 6.9168,1.69206 10.40657,2.47453 3.48977,0.77587 7.02741,1.56825 10.57825,2.21866 -1.03999,-3.4584 -2.16748,-6.93991 -3.32799,-10.32238 -1.15555,-3.37917 -2.39034,-6.68074 -3.66805,-9.98067 3.48977,0.61079 7.03731,1.15555 10.57826,1.61777 3.54094,0.47873 7.07363,0.85841 10.66244,1.18857 -1.33714,-3.3511 -2.72875,-6.63287 -4.17979,-9.89483 -1.4527,-3.26031 -2.95987,-6.47274 -4.52152,-9.64061 3.52279,0.29715 7.10005,0.52826 10.66245,0.67683 3.5624,0.15501 7.14957,0.24762 10.74829,0.26412 -1.63428,-3.21243 -3.29828,-6.35719 -5.03326,-9.46892 -1.73663,-3.10844 -3.53599,-6.20862 -5.37497,-9.21306 3.52609,-0.0252 7.02411,-0.0855 10.57826,-0.26412 3.55415,-0.16508 7.17103,-0.44571 10.74829,-0.75936 -1.91162,-3.04571 -3.87606,-6.02538 -5.88672,-8.95719 -2.01066,-2.9285 -4.12037,-5.80417 -6.22677,-8.61546 3.49802,-0.34667 6.97953,-0.77587 10.49241,-1.28762 3.51453,-0.51174 7.05382,-1.13904 10.57826,-1.79111 -2.18565,-2.84596 -4.37624,-5.55325 -6.65433,-8.2754 -2.27809,-2.71885 -4.62882,-5.4311 -6.9944,-8.01953 3.4419,-0.69333 6.87719,-1.4527 10.32239,-2.30285 3.44519,-0.84191 6.87884,-1.72343 10.32238,-2.73041 -2.45142,-2.61815 -4.88633,-5.19833 -7.42195,-7.67782 -2.53726,-2.47618 -5.14551,-4.91605 -7.76366,-7.25191 3.35441,-1.02349 6.72202,-2.13117 10.06651,-3.32634 3.3445,-1.18857 6.65103,-2.47454 9.98067,-3.83809 -2.70894,-2.35898 -5.48722,-4.61561 -8.2754,-6.82436 -2.78818,-2.20545 -5.58297,-4.34653 -8.44544,-6.39846 3.23555,-1.38666 6.42652,-2.79809 9.64061,-4.34983 3.21409,-1.55174 6.45293,-3.21904 9.63896,-4.94741 -2.95987,-2.06844 -5.92799,-4.06425 -8.95718,-5.97091 -3.0292,-1.90336 -6.11453,-3.72253 -9.21306,-5.45916 3.09853,-1.73993 6.18386,-3.55249 9.21306,-5.45915 3.02919,-1.90667 5.99896,-3.90082 8.95718,-5.97091 -3.18768,-1.72837 -6.42652,-3.39567 -9.63896,-4.94741 -3.21243,-1.55175 -6.40506,-2.97307 -9.64061,-4.34983 2.86082,-2.05358 5.65891,-4.1897 8.44544,-6.39846 2.78653,-2.20876 5.56646,-4.55123 8.2754,-6.9102 -3.32964,-1.37016 -6.63617,-2.55873 -9.98067,-3.7539 -3.34284,-1.18857 -6.71375,-2.29955 -10.06651,-3.32634 2.61815,-2.33751 5.2264,-4.77078 7.76366,-7.25191 2.53562,-2.47949 4.97053,-5.05967 7.42195,-7.67782 -3.44189,-1.00698 -6.87719,-1.88355 -10.32238,-2.73041 -3.44355,-0.8419 -6.88214,-1.61777 -10.32239,-2.30285 2.36558,-2.59174 4.71796,-5.29738 6.9944,-8.01953 2.27643,-2.7205 4.46868,-5.51364 6.65433,-8.3596 -3.52444,-0.66031 -7.06373,-1.20507 -10.57826,-1.70691 -3.51288,-0.49524 -6.99439,-0.92444 -10.49241,-1.27111 2.10475,-2.8146 4.21776,-5.68367 6.22677,-8.61547 2.00901,-2.9318 3.88926,-5.91147 5.80088,-8.95718 -3.57726,-0.31365 -7.10995,-0.59428 -10.66245,-0.75936 -3.5525,-0.16508 -7.05382,-0.23111 -10.57826,-0.26413 1.83733,-3.00774 3.55415,-6.10131 5.28913,-9.21305 1.73498,-3.11174 3.48812,-6.25649 5.11745,-9.46893 -3.59872,0.0149 -7.18589,0.10054 -10.74829,0.26413 -3.56075,0.15847 -7.14296,0.37968 -10.66245,0.67682 1.56825,-3.16951 3.07047,-6.377 4.52151,-9.64061 1.4527,-3.26195 2.84101,-6.54537 4.1798,-9.89483 -3.58881,0.34667 -7.1215,0.72635 -10.66244,1.18857 -3.5393,0.47873 -7.09179,1.00698 -10.57826,1.61778 1.27111,-3.30158 2.5092,-6.68405 3.66805,-10.06486 1.15556,-3.38247 2.28635,-6.778144 3.32799,-10.236547 -3.55084,0.660316 -7.08848,1.353647 -10.57825,2.13282 -3.48812,0.792378 -6.98449,1.650789 -10.40658,2.558727 0.99048,-3.403931 1.95454,-6.850779 2.8146,-10.322388 0.85841,-3.471609 1.65409,-6.956425 2.38869,-10.492415 -3.48151,0.957458 -6.9135,1.98755 -10.32238,3.070468 -3.40558,1.08952 -6.82271,2.208755 -10.1507,3.41218 0.67682,-3.476561 1.32063,-6.961377 1.87694,-10.492414 0.54476,-3.531038 1.02349,-7.080235 1.4527,-10.664097 -3.38082,1.271107 -6.6857,2.631357 -9.98067,4.009766 -3.29333,1.386663 -6.52062,2.774976 -9.7248,4.265639 0.37968,-3.516181 0.61079,-7.019155 0.85841,-10.578256 0.23111,-3.560752 0.4127,-7.149567 0.51174,-10.748287 -3.2504,1.551741 -6.40176,3.113388 -9.55476,4.777383 -3.14971,1.663995 -6.24989,3.435292 -9.2989,5.203287 0.0565,-3.527736 10e-4,-7.104996 -0.0855,-10.664097 -0.0865,-3.559101 -0.28063,-7.164424 -0.51174,-10.748287 -3.09028,1.84063 -6.0617,3.775354 -9.04302,5.715031 -2.97638,1.941328 -5.92304,3.93218 -8.78715,5.970904 -0.26413,-3.507926 -0.6108,-7.05217 -1.02349,-10.578256 -0.4127,-3.526085 -0.95746,-7.037313 -1.53524,-10.578256 -2.89878,2.116312 -5.66881,4.273893 -8.44543,6.482649 -2.77333,2.210406 -5.5417,4.437321 -8.18957,6.738521 -0.59428,-3.458403 -1.28761,-6.857378 -2.04698,-10.322384 -0.75936,-3.463355 -1.55174,-6.941568 -2.47453,-10.408225 -2.67758,2.38539 -5.30564,4.780685 -7.84785,7.251916 -2.54056,2.472882 -5.02005,5.036558 -7.42195,7.591979 -0.94095,-3.379165 -1.96444,-6.77979 -3.07047,-10.152352 -1.10602,-3.370912 -2.30945,-6.791346 -3.58221,-10.152353 -2.42666,2.644564 -4.7163,5.379922 -6.99439,8.103723 -2.27644,2.725453 -4.52977,5.474017 -6.65433,8.273755 -1.28762,-3.266912 -2.63301,-6.561886 -4.09396,-9.810639 -1.4692,-3.248753 -3.05561,-6.413315 -4.69154,-9.638957 -2.14437,2.897135 -4.15669,5.81738 -6.14259,8.78715 -1.98259,2.969769 -3.89751,5.918078 -5.71503,8.957181 -1.65079,-3.126594 -3.37751,-6.203665 -5.20328,-9.298895 -1.82743,-3.088626 -3.72253,-6.107919 -5.71504,-9.127212 z" />
      <path
         d="M 405.98981,249.99986 A 155.98973,155.98973 0 0 1 249.99999,405.98952 155.98973,155.98973 0 0 1 94.010337,249.99986 155.98973,155.98973 0 0 1 249.99999,94.010044 155.98973,155.98973 0 0 1 405.98981,249.99986"
         style="fill:#0a8886;fill-opacity:1;stroke:none;stroke-width:13.1031;stroke-linecap:round;stroke-linejoin:round;stroke-miterlimit:4;stroke-dasharray:none;stroke-opacity:1;paint-order:stroke fill markers"
         id="path903" />
      <path
         id="path896"
         style="fill:#48362a;fill-opacity:1;stroke:#ffffff;stroke-width:13.1031;stroke-linecap:round;stroke-linejoin:round;stroke-miterlimit:4;stroke-dasharray:none;stroke-opacity:1;paint-order:stroke fill markers"
         d="M 247.13158,56.009376 A 194.01225,194.01225 0 0 0 55.95899,249.99739 194.01225,194.01225 0 0 0 250.03169,443.98507 194.01225,194.01225 0 0 0 444.0197,249.99739 194.01225,194.01225 0 0 0 250.03169,56.009376 a 194.01225,194.01225 0 0 0 -2.90044,0 z m 2.90044,62.359544 A 131.61636,131.61636 0 0 1 381.5753,249.99739 131.61636,131.61636 0 0 1 250.03202,381.62586 131.61636,131.61636 0 0 1 118.40355,249.99739 131.61636,131.61636 0 0 1 250.03202,118.36892 Z" />
      <path
         style="fill:#faeb56;fill-opacity:1;stroke:none;stroke-width:13.8402;stroke-linecap:round;stroke-linejoin:round;stroke-miterlimit:4;stroke-dasharray:none;stroke-opacity:1;paint-order:stroke fill markers"
         d="m 115.52375,176.57987 c -3.66475,-0.23111 -7.35757,-0.37968 -11.07019,-0.4127 -2.07669,-3.07872 -4.08405,-6.23503 -6.02208,-9.46562 -1.386662,3.67135 -2.656119,7.36747 -3.790211,11.08009 -3.580562,1.2546 -7.157821,2.65777 -10.721875,4.19961 3.128245,2.00406 6.271348,3.9751 9.430958,5.91643 0.165079,3.79186 0.478729,7.5309 0.907934,11.20555 2.652818,-2.58018 5.370016,-5.0316 8.141694,-7.35426 3.57726,0.95746 7.14296,1.95123 10.69711,2.97967 -1.48571,-3.20253 -2.88228,-6.50246 -4.16824,-9.89153 2.11136,-2.83935 4.31021,-5.59452 6.58995,-8.2655 z"
         id="path959" />
      <path
         style="fill:#faeb56;fill-opacity:1;stroke:none;stroke-width:13.8402;stroke-linecap:round;stroke-linejoin:round;stroke-miterlimit:4;stroke-dasharray:none;stroke-opacity:1;paint-order:stroke fill markers"
         d="m 98.973104,217.02007 c -3.560752,0.80889 -7.121504,1.72012 -10.678954,2.75517 -2.869071,-2.34577 -5.685317,-4.79224 -8.443786,-7.33941 -0.297142,3.92393 -0.462221,7.84125 -0.478728,11.74371 -3.068817,2.26654 -6.094713,4.68494 -9.074388,7.26017 3.590467,0.99048 7.192488,1.93968 10.802764,2.85092 1.287615,3.59541 2.723802,7.09839 4.285448,10.49901 1.749836,-3.30818 3.603672,-6.48429 5.551603,-9.53165 3.715926,-0.15633 7.4269,-0.26413 11.134577,-0.34667 -2.413458,-2.59339 -4.737769,-5.31719 -6.969636,-8.1681 1.17206,-3.31313 2.466279,-6.55693 3.8711,-9.72975 z"
         id="path957" />
      <path
         style="fill:#faeb56;fill-opacity:1;stroke:none;stroke-width:13.8402;stroke-linecap:round;stroke-linejoin:round;stroke-miterlimit:4;stroke-dasharray:none;stroke-opacity:1;paint-order:stroke fill markers"
         d="m 95.488289,260.42097 c -3.144753,1.89015 -6.243284,3.89256 -9.293942,6.00557 -3.469959,-1.32064 -6.928362,-2.75022 -10.371908,-4.30361 0.973966,3.84304 2.081645,7.61344 3.316435,11.31121 -2.179041,3.11503 -4.265638,6.34893 -6.253188,9.69673 3.706021,-0.1981 7.405439,-0.42921 11.099905,-0.70984 2.354025,2.97967 4.79059,5.82894 7.298138,8.54944 0.6273,-3.64495 1.403171,-7.22055 2.289644,-10.71527 3.458403,-1.30413 6.930017,-2.58679 10.411527,-3.82158 -3.07707,-1.71022 -6.122777,-3.56075 -9.130514,-5.55656 0.07494,-3.51453 0.280634,-7.00429 0.627299,-10.4627 z"
         id="path955" />
      <path
         style="fill:#faeb56;fill-opacity:1;stroke:none;stroke-width:13.8402;stroke-linecap:round;stroke-linejoin:round;stroke-miterlimit:4;stroke-dasharray:none;stroke-opacity:1;paint-order:stroke fill markers"
         d="m 105.60928,302.76932 c -2.42336,2.74031 -4.78399,5.56811 -7.081889,8.4801 -3.70272,-0.24762 -7.418646,-0.59429 -11.144476,-1.04 2.035422,3.35275 4.174845,6.61636 6.410013,9.79248 -1.205076,3.60698 -2.3012,7.29814 -3.288371,11.06689 3.507926,-1.2546 7.004297,-2.52405 10.487463,-3.83313 3.10348,2.1972 6.25154,4.26234 9.43261,6.19871 -0.39619,-3.70272 -0.66032,-7.37407 -0.80889,-11.00251 2.96152,-2.24507 5.94119,-4.46043 8.93902,-6.64607 -3.47161,-0.79238 -6.94982,-1.71682 -10.42473,-2.77333 -0.95746,-3.40888 -1.80431,-6.82601 -2.5224,-10.24149 z"
         id="path953" />
      <path
         id="path929"
         style="opacity:0.1;fill:#000000;fill-opacity:1;stroke-width:434.635;stroke-linecap:round;stroke-linejoin:round;paint-order:stroke fill markers"
         d="m 267.26857,14.708947 c -2.14438,2.897134 -4.15669,5.81738 -6.14259,8.787149 -1.9826,2.96977 -3.89751,5.918079 -5.71503,8.957181 -1.65079,-3.126594 -3.37752,-6.203665 -5.20329,-9.298894 -0.0847,-0.142628 -0.16508,-0.280634 -0.26412,-0.429205 V 475.96069 c 0.0844,-0.14246 0.16507,-0.28064 0.26412,-0.42921 1.82247,-3.09523 3.55745,-6.1723 5.20329,-9.29889 1.82082,3.0391 3.73078,5.98741 5.71503,8.95718 1.9859,2.96977 3.99656,5.89002 6.14259,8.78715 1.63428,-3.22564 3.22894,-6.47605 4.69154,-9.7248 1.45269,-3.24875 2.80634,-6.45788 4.09561,-9.7248 2.12786,2.80139 4.37459,5.54996 6.65433,8.27541 2.27974,2.7238 4.56773,5.37497 6.99439,8.01953 1.27111,-3.361 2.47618,-6.69395 3.58221,-10.06651 1.10603,-3.37091 2.13117,-6.77319 3.07212,-10.1507 2.40355,2.55542 4.87808,5.1224 7.42195,7.59198 2.54386,2.47123 5.17027,4.86652 7.84785,7.25191 0.92444,-3.46665 1.80101,-6.94321 2.55872,-10.40657 0.75936,-3.46336 1.37016,-6.86563 1.96114,-10.32238 2.64952,2.29955 5.41294,4.53141 8.18956,6.74017 2.77663,2.20875 5.63084,4.36633 8.53128,6.48265 0.57778,-3.54095 1.04,-7.05217 1.45269,-10.57826 0.4127,-3.52443 0.75937,-7.07033 1.02349,-10.57826 2.86577,2.03708 5.80583,4.03123 8.78715,5.97091 2.97968,1.93968 6.03694,3.78856 9.12722,5.63084 0.23111,-3.58386 0.34666,-7.10335 0.4292,-10.6641 0.0839,-3.5558 0.14412,-7.13801 0.0852,-10.66409 3.05066,1.76634 6.14424,3.54094 9.2989,5.20328 3.153,1.66235 6.30271,3.22069 9.55476,4.77739 -0.0984,-3.59872 -0.28063,-7.18919 -0.51174,-10.74829 -0.24762,-3.55745 -0.47873,-7.06373 -0.85841,-10.57826 3.20583,1.48571 6.42817,2.88888 9.7248,4.26564 3.29662,1.37016 6.59985,2.74526 9.98067,4.00977 -0.4127,-3.58221 -0.89143,-7.13306 -1.4527,-10.6641 -0.56127,-3.52939 -1.18857,-7.01915 -1.87694,-10.49241 3.33129,1.20507 6.74347,2.32926 10.1507,3.41218 3.40888,1.08952 6.84087,2.10805 10.32238,3.07046 -0.74285,-3.53599 -1.53523,-7.0208 -2.38869,-10.49241 -0.85841,-3.46996 -1.83073,-6.92011 -2.8146,-10.32238 3.42539,0.90793 6.91681,1.69205 10.40823,2.47453 3.48977,0.77587 7.02741,1.56825 10.57825,2.21866 -1.03999,-3.4584 -2.16583,-6.93992 -3.32634,-10.32238 -1.15555,-3.37917 -2.39034,-6.68075 -3.66805,-9.98067 3.48977,0.61079 7.03731,1.07301 10.57826,1.53523 3.54094,0.47873 7.07363,0.85841 10.66409,1.18857 -1.33714,-3.3511 -2.72875,-6.63452 -4.17979,-9.89483 -1.4527,-3.26031 -2.95987,-6.47275 -4.52151,-9.64061 3.52278,0.29714 7.10169,0.52825 10.66409,0.67682 3.5624,0.15518 7.14957,0.24762 10.74829,0.26413 -1.63428,-3.21244 -3.29828,-6.35719 -5.03326,-9.46893 -1.73663,-3.10843 -3.53434,-6.20861 -5.37497,-9.21305 3.52609,-0.0249 7.02411,-0.0773 10.57826,-0.24762 3.55415,-0.16508 7.17103,-0.44571 10.74829,-0.75936 -1.91162,-3.04571 -3.87605,-6.02538 -5.88672,-8.95718 -2.01066,-2.9285 -4.12037,-5.80418 -6.22677,-8.61547 3.49802,-0.34667 6.97953,-0.77587 10.49241,-1.27111 3.51453,-0.51174 7.05382,-1.13904 10.57826,-1.7911 -2.18565,-2.84596 -4.37624,-5.55326 -6.65433,-8.27541 -2.27809,-2.71885 -4.62881,-5.43109 -6.99605,-8.01953 3.4419,-0.69333 6.87719,-1.4527 10.32239,-2.30285 3.44519,-0.8419 6.87884,-1.72343 10.32238,-2.73041 -2.45142,-2.61815 -4.88633,-5.19833 -7.42195,-7.67782 -2.53726,-2.47618 -5.14385,-4.91605 -7.76366,-7.25191 3.35441,-1.02349 6.72202,-2.13117 10.06652,-3.32634 3.34449,-1.18857 6.65102,-2.47454 9.98067,-3.83809 -2.70895,-2.35897 -5.48723,-4.6156 -8.27541,-6.82436 -2.78818,-2.20545 -5.58297,-4.34653 -8.44544,-6.39846 3.23555,-1.38666 6.42487,-2.79808 9.63896,-4.34983 3.21409,-1.55174 6.45293,-3.21903 9.63896,-4.94741 -2.95987,-2.06844 -5.92799,-4.06424 -8.95718,-5.9709 -3.0292,-1.90336 -6.11453,-3.72253 -9.21306,-5.45916 3.09853,-1.73994 6.18386,-3.5525 9.21306,-5.45916 3.02919,-1.90666 5.99896,-3.90082 8.95718,-5.97091 -3.18768,-1.72837 -6.42652,-3.39567 -9.63896,-4.94741 -3.21243,-1.55174 -6.40506,-2.97307 -9.63896,-4.34983 2.86082,-2.05358 5.65891,-4.1897 8.44544,-6.39846 2.78653,-2.20875 5.56646,-4.55122 8.27541,-6.9102 -3.32965,-1.37016 -6.63618,-2.55872 -9.98067,-3.7539 -3.34285,-1.18856 -6.71376,-2.29954 -10.06652,-3.32634 2.61816,-2.33751 5.2264,-4.76912 7.76366,-7.25191 2.53562,-2.47949 4.97053,-5.05967 7.42195,-7.67782 -3.44189,-1.00698 -6.87719,-1.88355 -10.32238,-2.73041 -3.44355,-0.8419 -6.88214,-1.61777 -10.32239,-2.30285 2.36559,-2.59174 4.71961,-5.29573 6.99605,-8.01953 2.27644,-2.7205 4.46868,-5.51363 6.65433,-8.35959 -3.52444,-0.66032 -7.06373,-1.20508 -10.57826,-1.70692 -3.51288,-0.49524 -6.99439,-0.94095 -10.49241,-1.28762 2.10475,-2.81459 4.21776,-5.68366 6.22677,-8.61546 2.00901,-2.93181 3.88926,-5.91148 5.80088,-8.95719 -3.57726,-0.31365 -7.10995,-0.51174 -10.6641,-0.67682 -3.5525,-0.16508 -7.05382,-0.31365 -10.57826,-0.34666 1.83733,-3.00774 3.55415,-6.10132 5.28913,-9.21306 1.73498,-3.11173 3.48977,-6.25649 5.1191,-9.46892 -3.59872,0.0149 -7.18589,0.18158 -10.74829,0.34666 -3.56075,0.15848 -7.14461,0.37968 -10.6641,0.67683 1.56825,-3.16952 3.07047,-6.37535 4.52152,-9.63896 1.45269,-3.26196 2.841,-6.54538 4.17979,-9.89483 -3.58881,0.34667 -7.12315,0.64381 -10.66409,1.10603 -3.5393,0.47873 -7.09179,1.00698 -10.57826,1.61777 1.27111,-3.30158 2.5092,-6.68569 3.66805,-10.06651 1.15556,-3.38247 2.2847,-6.77814 3.32634,-10.236543 -3.55084,0.660316 -7.08848,1.353647 -10.57825,2.13282 -3.48812,0.792379 -6.98614,1.650789 -10.40823,2.558723 0.99048,-3.403927 1.95454,-6.850775 2.8146,-10.322384 0.85841,-3.471609 1.65409,-6.956425 2.38869,-10.492415 -3.48151,0.957458 -6.9135,1.98755 -10.32238,3.070468 -3.40558,1.089521 -6.82271,2.208756 -10.15071,3.412181 0.67683,-3.476562 1.32064,-6.961377 1.87695,-10.492415 0.54476,-3.531038 1.02349,-7.080234 1.4527,-10.664097 -3.38082,1.271107 -6.6857,2.631358 -9.98067,4.009766 -3.29333,1.386663 -6.52062,2.774977 -9.7248,4.265639 0.37968,-3.51618 0.61079,-7.019155 0.85841,-10.578256 0.23111,-3.560752 0.4127,-7.149567 0.51174,-10.748287 -3.2504,1.551742 -6.40176,3.113388 -9.55476,4.777383 -3.14971,1.663996 -6.24989,3.435292 -9.2989,5.203287 0.0563,-3.527736 0.001,-7.103345 -0.0852,-10.664097 -0.0865,-3.559101 -0.28063,-7.164424 -0.51174,-10.748287 -3.09028,1.84063 -6.0617,3.775355 -9.04303,5.715032 -2.97637,1.941328 -5.92303,3.932179 -8.78715,5.970904 -0.26412,-3.507927 -0.61079,-7.052171 -1.02349,-10.578256 -0.41269,-3.526086 -0.95745,-7.037314 -1.53523,-10.578256 -2.89878,2.116311 -5.66881,4.275543 -8.44544,6.482648 -2.77332,2.210407 -5.54169,4.437321 -8.18956,6.738521 -0.59428,-3.458403 -1.28762,-6.857378 -2.04698,-10.322384 -0.75936,-3.463355 -1.55174,-6.941568 -2.47453,-10.408224 -2.67758,2.38539 -5.30564,4.779034 -7.84785,7.251916 -2.54057,2.472882 -5.02005,5.036557 -7.42195,7.591978 -0.94095,-3.379165 -1.96444,-6.778139 -3.07212,-10.152352 -1.10603,-3.370911 -2.30945,-6.791346 -3.58221,-10.150702 -2.42666,2.644564 -4.71795,5.379922 -6.99439,8.103724 -2.27644,2.725452 -4.52977,5.475667 -6.65433,8.275405 -1.28762,-3.266912 -2.63466,-6.561886 -4.09561,-9.810639 -1.4692,-3.248753 -3.05561,-6.413315 -4.69154,-9.638957 z" />
      <path
         id="path978"
         d="m 384.4764,176.57987 c 3.66475,-0.23111 7.35757,-0.37968 11.07019,-0.4127 2.0767,-3.07872 4.08405,-6.23503 6.02208,-9.46562 1.38666,3.67135 2.65612,7.36747 3.79021,11.08009 3.58056,1.2546 7.15782,2.65777 10.72188,4.19961 -3.12825,2.00406 -6.27135,3.9751 -9.43096,5.91643 -0.16508,3.79186 -0.47873,7.5309 -0.90793,11.20555 -2.65282,-2.58018 -5.37002,-5.0316 -8.1417,-7.35426 -3.57726,0.95746 -7.14296,1.95123 -10.69711,2.97967 1.48571,-3.20253 2.88228,-6.50246 4.16824,-9.89153 -2.11136,-2.83935 -4.31021,-5.59452 -6.58995,-8.2655 z"
         style="fill:#faeb56;fill-opacity:1;stroke:none;stroke-width:13.8402;stroke-linecap:round;stroke-linejoin:round;stroke-miterlimit:4;stroke-dasharray:none;stroke-opacity:1;paint-order:stroke fill markers" />
      <path
         id="path980"
         d="m 401.02705,217.02007 c 3.56075,0.80889 7.1215,1.72012 10.67895,2.75517 2.86907,-2.34577 5.68532,-4.79224 8.44379,-7.33941 0.29714,3.92393 0.46222,7.84125 0.47873,11.74371 3.06881,2.26654 6.09471,4.68494 9.07438,7.26017 -3.59046,0.99048 -7.19249,1.93968 -10.80276,2.85092 -1.28762,3.59541 -2.7238,7.09839 -4.28545,10.49901 -1.74984,-3.30818 -3.60367,-6.48429 -5.5516,-9.53165 -3.71593,-0.15633 -7.4269,-0.26413 -11.13457,-0.34667 2.41345,-2.59339 4.73776,-5.31719 6.96963,-8.1681 -1.17206,-3.31313 -2.46628,-6.55693 -3.8711,-9.72975 z"
         style="fill:#faeb56;fill-opacity:1;stroke:none;stroke-width:13.8402;stroke-linecap:round;stroke-linejoin:round;stroke-miterlimit:4;stroke-dasharray:none;stroke-opacity:1;paint-order:stroke fill markers" />
      <path
         id="path982"
         d="m 404.51186,260.42097 c 3.14476,1.89015 6.24329,3.89256 9.29394,6.00557 3.46996,-1.32064 6.92837,-2.75022 10.37191,-4.30361 -0.97396,3.84304 -2.08164,7.61344 -3.31643,11.31121 2.17904,3.11503 4.26564,6.34893 6.25319,9.69673 -3.70603,-0.1981 -7.40544,-0.42921 -11.09991,-0.70984 -2.35402,2.97967 -4.79059,5.82894 -7.29814,8.54944 -0.6273,-3.64495 -1.40317,-7.22055 -2.28964,-10.71527 -3.45841,-1.30413 -6.93001,-2.58679 -10.41153,-3.82158 3.07707,-1.71022 6.12278,-3.56075 9.13052,-5.55656 -0.075,-3.51453 -0.28064,-7.00429 -0.6273,-10.4627 z"
         style="fill:#faeb56;fill-opacity:1;stroke:none;stroke-width:13.8402;stroke-linecap:round;stroke-linejoin:round;stroke-miterlimit:4;stroke-dasharray:none;stroke-opacity:1;paint-order:stroke fill markers" />
      <path
         id="path984"
         d="m 394.39088,302.76932 c 2.42335,2.74031 4.78398,5.56811 7.08188,8.4801 3.70272,-0.24762 7.41865,-0.59429 11.14448,-1.04 -2.03543,3.35275 -4.17485,6.61636 -6.41002,9.79248 1.20508,3.60698 2.3012,7.29814 3.28837,11.06689 -3.50792,-1.2546 -7.00429,-2.52405 -10.48746,-3.83313 -3.10348,2.1972 -6.25154,4.26234 -9.43261,6.19871 0.39619,-3.70272 0.66032,-7.37407 0.80889,-11.00251 -2.96152,-2.24507 -5.94119,-4.46043 -8.93902,-6.64607 3.47161,-0.79238 6.94982,-1.71682 10.42473,-2.77333 0.95746,-3.40888 1.80431,-6.82601 2.52241,-10.24149 z"
         style="fill:#faeb56;fill-opacity:1;stroke:none;stroke-width:13.8402;stroke-linecap:round;stroke-linejoin:round;stroke-miterlimit:4;stroke-dasharray:none;stroke-opacity:1;paint-order:stroke fill markers" />
      <path
         d="m 222.69363,231.14851 q 1.12254,0 1.73663,1.04 0.69333,1.04 0.69333,2.86577 0,3.38742 -1.65079,5.38488 -4.16824,5.0382 -8.42397,7.81648 -4.25574,2.69244 -10.07477,2.69244 -5.6457,0 -9.64061,-3.0391 -3.90906,-3.03911 -7.46982,-10.42144 -2.86577,-5.90652 -4.51655,-8.6848 -1.65079,-2.86577 -3.29993,-4.0824 -1.56825,-1.22158 -3.90742,-1.4692 -0.34666,1.82412 -1.99745,11.46473 -0.69333,4.34323 -0.87492,5.29738 -0.87492,5.29738 -3.47491,8.1648 -2.60495,2.77993 -7.90398,2.77993 -5.81903,0 -10.33559,-3.38742 -4.42907,-3.47326 -6.86068,-9.55311 -2.43161,-6.16735 -2.43161,-13.98384 0,-14.59132 5.03656,-25.18707 5.12404,-10.59642 14.243,-16.15463 9.20645,-5.64569 21.19184,-5.64569 8.33814,0 13.98384,2.5191 5.64569,2.5191 8.33813,6.94817 2.77993,4.42907 2.77993,9.98727 0,4.86323 -2.34577,9.55312 -2.25828,4.6024 -6.86068,8.1648 -4.6024,3.56075 -11.20391,5.29738 4.16825,1.12254 6.42653,3.64825 2.25828,2.5191 4.51655,7.38233 2.43162,5.21154 4.77739,7.64315 2.43161,2.43161 5.5582,2.43161 2.77993,0 5.29739,-1.82412 2.5191,-1.91161 6.34068,-6.42652 1.03999,-1.22159 2.34577,-1.22159 z M 164.1555,223.1587 q -2.95326,0 -4.0824,-1.38667 -1.04,-1.38666 -1.04,-3.12659 0,-2.08495 1.30412,-3.29993 1.38667,-1.22158 3.1266,-1.22158 h 2.17079 q 1.38666,-8.51147 2.60494,-14.67882 1.12254,-5.6457 7.29649,-5.6457 4.95071,0 4.95071,4.42907 0,0.95746 -0.0868,1.4692 l -2.60494,14.41799 q 4.68989,-0.26412 8.51147,-2.25828 3.90906,-1.99745 6.16569,-5.5582 2.34577,-3.56075 2.34577,-8.07731 0,-5.47237 -3.73408,-8.59896 -3.73409,-3.1266 -10.94308,-3.1266 -8.51147,0 -14.93799,4.25574 -6.34068,4.16824 -9.90143,12.50637 -3.56076,8.25065 -3.56076,20.14953 0,5.55821 1.12254,9.55312 1.12254,3.99491 2.77993,5.99236 1.65079,1.99746 3.12659,1.99746 1.12254,0 1.82413,-1.12254 0.77587,-1.12253 1.22158,-3.64824 z"
         style="font-style:normal;font-variant:normal;font-weight:normal;font-stretch:normal;font-size:0.526123px;line-height:1.25;font-family:Pacifico;-inkscape-font-specification:Pacifico;letter-spacing:0px;word-spacing:0px;fill:#ffffff;fill-opacity:1;stroke:none;stroke-width:6.51388"
         id="path936" />
      <path
         d="m 255.2046,231.14851 q 1.12254,0 1.73663,1.04 0.69333,1.04 0.69333,2.86577 0,3.47491 -1.65079,5.38488 -3.21408,3.90906 -9.11896,7.20899 -5.81903,3.29993 -12.50637,3.29993 -9.11896,0 -14.15717,-4.95072 -5.03821,-4.95071 -5.03821,-13.54967 0,-5.99237 2.51911,-11.11642 2.5191,-5.21154 6.94817,-8.25064 4.51656,-3.04075 10.16225,-3.04075 5.03821,0 8.07732,3.04075 3.0391,2.95326 3.0391,8.07731 0,5.99236 -4.34323,10.33559 -4.25573,4.25573 -14.50383,6.77484 2.17079,3.99491 8.25064,3.99491 3.90907,0 8.85979,-2.69244 5.03821,-2.77993 8.6848,-7.209 1.04,-1.22158 2.34577,-1.22158 z m -21.88666,-12.59386 q -3.21408,0 -5.47236,3.73408 -2.17079,3.73408 -2.17079,9.03312 v 0.18158 q 5.12405,-1.22158 8.07731,-3.64824 2.95326,-2.43161 2.95326,-5.6457 0,-1.65079 -0.95745,-2.60494 -0.87492,-1.04 -2.43162,-1.04 z"
         style="font-style:normal;font-variant:normal;font-weight:normal;font-stretch:normal;font-size:0.526123px;line-height:1.25;font-family:Pacifico;-inkscape-font-specification:Pacifico;letter-spacing:0px;word-spacing:0px;fill:#ffffff;fill-opacity:1;stroke:none;stroke-width:6.51388"
         id="path938" />
      <path
         d="m 289.30082,231.14851 q 1.12254,0 1.73663,1.04 0.69333,1.04 0.69333,2.86577 0,3.47491 -1.65079,5.38488 -3.73408,4.60405 -8.1648,7.55566 -4.42906,2.95326 -10.16226,2.95326 -17.71775,0 -17.71775,-24.92642 0,-3.82158 0.26413,-7.73065 h -3.38742 q -2.60495,0 -3.56075,-0.95745 -0.87492,-0.95746 -0.87492,-3.03911 0,-4.86322 3.90907,-4.86322 h 4.95071 q 1.46921,-9.55312 4.51656,-17.45709 3.0391,-7.90398 7.29484,-12.59387 4.34322,-4.68989 9.29394,-4.68989 3.64824,0 5.73154,3.21408 2.08495,3.21409 2.08495,8.07731 0,13.46219 -11.2914,23.44995 h 9.7281 q 1.38666,0 1.99745,0.6108 0.6108,0.61079 0.6108,2.25828 0,5.99236 -9.81394,5.99236 h -10.59642 q -0.18159,4.34323 -0.18159,6.77484 0,9.03312 2.08495,12.67971 2.17079,3.64824 6.77484,3.64824 3.73408,0 6.6015,-2.25828 2.86577,-2.25828 6.77484,-6.77484 1.04,-1.22158 2.34577,-1.22158 z m -15.19881,-48.11587 q -1.30413,0 -2.95326,3.29992 -1.56825,3.21409 -3.03911,9.03312 -1.38666,5.73154 -2.34577,12.7672 5.12405,-4.42906 7.64316,-9.90143 2.60494,-5.5582 2.60494,-10.07476 0,-5.12405 -1.91161,-5.12405 z"
         style="font-style:normal;font-variant:normal;font-weight:normal;font-stretch:normal;font-size:0.526123px;line-height:1.25;font-family:Pacifico;-inkscape-font-specification:Pacifico;letter-spacing:0px;word-spacing:0px;fill:#ffffff;fill-opacity:1;stroke:none;stroke-width:6.51388"
         id="path940" />
      <path
         d="m 290.82747,250.95072 q -3.29993,0 -4.68989,-3.47326 -1.30412,-3.47491 -1.30412,-11.11641 0,-11.2914 3.21408,-21.4525 0.77587,-2.51911 2.51911,-3.64825 1.82412,-1.22158 5.0382,-1.22158 1.73663,0 2.43162,0.42921 0.69333,0.4292 0.69333,1.65078 0,1.38667 -1.30412,6.25319 -0.87492,3.47491 -1.38667,6.07986 -0.52825,2.60494 -0.87492,6.42652 2.86577,-7.46982 6.42653,-12.15971 3.56075,-4.68989 6.94817,-6.68735 3.47491,-1.99745 6.34068,-1.99745 5.6457,0 5.6457,5.6457 0,1.12253 -0.77588,5.47236 -0.69333,3.47491 -0.69333,4.34323 0,3.04075 2.17079,3.04075 2.43161,0 6.25319,-3.82158 1.12254,-1.12253 2.34577,-1.12253 1.12254,0 1.73663,1.03999 0.69333,0.95746 0.69333,2.60495 0,3.21409 -1.73663,5.03821 -2.43161,2.5191 -5.73154,4.34322 -3.21408,1.73663 -6.86068,1.73663 -4.6024,0 -7.03566,-2.34577 -2.34577,-2.34577 -2.34577,-6.34068 0,-1.30412 0.26413,-2.60494 0.18158,-1.73663 0.18158,-2.34577 0,-1.38667 -0.95745,-1.38667 -1.30413,0 -3.47492,2.95326 -2.08494,2.86577 -4.16824,7.64316 -2.08494,4.77738 -3.38742,10.07476 -0.95745,4.0824 -2.25828,5.55821 -1.22158,1.38666 -3.90741,1.38666 z"
         style="font-style:normal;font-variant:normal;font-weight:normal;font-stretch:normal;font-size:0.526123px;line-height:1.25;font-family:Pacifico;-inkscape-font-specification:Pacifico;letter-spacing:0px;word-spacing:0px;fill:#ffffff;fill-opacity:1;stroke:none;stroke-width:6.51388"
         id="path942" />
      <path
         d="m 338.86329,250.95072 q -5.12405,0 -8.7723,-2.5191 -3.56075,-2.60495 -5.38487,-6.77484 -1.82412,-4.16825 -1.82412,-8.94563 0,-6.6015 2.43161,-11.72555 2.5191,-5.21154 6.77484,-8.07731 4.25573,-2.95326 9.55311,-2.95326 5.12405,0 8.7723,2.60494 3.64824,2.5191 5.47236,6.68735 1.82412,4.16824 1.82412,8.94562 0,6.59986 -2.5191,11.8114 -2.5191,5.12405 -6.86068,8.07731 -4.25573,2.86577 -9.46727,2.86577 z m 0.95745,-9.37978 q 2.95326,0 4.95072,-3.21409 2.08495,-3.21409 2.08495,-9.37978 0,-4.77739 -1.73663,-7.209 -1.73663,-2.43161 -4.16825,-2.43161 -3.12659,0 -5.21154,3.21409 -1.99745,3.12659 -1.99745,9.37978 0,4.95071 1.73663,7.29483 1.73663,2.34578 4.34322,2.34578 z"
         style="font-style:normal;font-variant:normal;font-weight:normal;font-stretch:normal;font-size:0.526123px;line-height:1.25;font-family:Pacifico;-inkscape-font-specification:Pacifico;letter-spacing:0px;word-spacing:0px;fill:#ffffff;fill-opacity:1;stroke:none;stroke-width:6.51388"
         id="path944" />
      <path
         d="m 195.79799,268.90899 h 8.18296 v 44.63668 h 13.46548 v 7.4401 h -21.64877 z"
         style="font-style:normal;font-variant:normal;font-weight:normal;font-stretch:normal;font-size:0.450659px;line-height:1.25;font-family:'Bebas Neue';-inkscape-font-specification:'Bebas Neue';letter-spacing:0px;word-spacing:0px;fill:#e1b45f;fill-opacity:1;stroke:none;stroke-width:5.57955"
         id="path947" />
      <path
         d="m 232.90921,321.72896 q -6.02538,0 -9.22461,-3.42209 -3.19923,-3.42208 -3.19923,-9.67197 v -27.37702 q 0,-6.24988 3.19923,-9.67197 3.19923,-3.42208 9.22461,-3.42208 6.02538,0 9.22461,3.42208 3.19923,3.42209 3.19923,9.67197 v 27.37702 q 0,6.24989 -3.19923,9.67197 -3.19923,3.42209 -9.22461,3.42209 z m 0,-7.44011 q 4.24088,0 4.24088,-5.13395 v -28.41866 q 0,-5.13396 -4.24088,-5.13396 -4.24088,0 -4.24088,5.13396 v 28.41866 q 0,5.13395 4.24088,5.13395 z"
         style="font-style:normal;font-variant:normal;font-weight:normal;font-stretch:normal;font-size:0.450659px;line-height:1.25;font-family:'Bebas Neue';-inkscape-font-specification:'Bebas Neue';letter-spacing:0px;word-spacing:0px;fill:#e1b45f;fill-opacity:1;stroke:none;stroke-width:5.57955"
         id="path949" />
      <path
         d="m 262.47269,321.72896 q -5.95109,0 -9.07603,-3.3478 -3.12495,-3.42209 -3.12495,-9.74626 v -27.37702 q 0,-6.32417 3.12495,-9.67197 3.12494,-3.42208 9.07603,-3.42208 5.9511,0 9.07604,3.42208 3.12495,3.3478 3.12495,9.67197 v 4.46374 h -7.73725 v -4.98373 q 0,-5.13396 -4.24088,-5.13396 -4.24088,0 -4.24088,5.13396 v 28.49294 q 0,5.05802 4.24088,5.05802 4.24088,0 4.24088,-5.05802 v -10.19197 h -4.09231 v -7.4401 h 11.82791 v 17.0363 q 0,6.32418 -3.12495,9.74626 -3.12494,3.3478 -9.07604,3.3478 z"
         style="font-style:normal;font-variant:normal;font-weight:normal;font-stretch:normal;font-size:0.450659px;line-height:1.25;font-family:'Bebas Neue';-inkscape-font-specification:'Bebas Neue';letter-spacing:0px;word-spacing:0px;fill:#e1b45f;fill-opacity:1;stroke:none;stroke-width:5.57955"
         id="path951" />
      <path
         d="m 291.75621,321.72896 q -6.02538,0 -9.22461,-3.42209 -3.19923,-3.42208 -3.19923,-9.67197 v -27.37702 q 0,-6.24988 3.19923,-9.67197 3.19923,-3.42208 9.22461,-3.42208 6.02538,0 9.2246,3.42208 3.19923,3.42209 3.19923,9.67197 v 27.37702 q 0,6.24989 -3.19923,9.67197 -3.19922,3.42209 -9.2246,3.42209 z m 0,-7.44011 q 4.24087,0 4.24087,-5.13395 v -28.41866 q 0,-5.13396 -4.24087,-5.13396 -4.24088,0 -4.24088,5.13396 v 28.41866 q 0,5.13395 4.24088,5.13395 z"
         style="font-style:normal;font-variant:normal;font-weight:normal;font-stretch:normal;font-size:0.450659px;line-height:1.25;font-family:'Bebas Neue';-inkscape-font-specification:'Bebas Neue';letter-spacing:0px;word-spacing:0px;fill:#e1b45f;fill-opacity:1;stroke:none;stroke-width:5.57955"
         id="path954" />
      <path
         d="m 165.07185,134.7847 q -2.97307,2.1939 -5.72989,1.65079 -2.78488,-0.57778 -5.11414,-3.74234 l -1.08952,-1.48571 3.86449,-2.85092 1.32064,1.78286 q 1.86374,2.5257 3.9817,0.95745 1.04,-0.77587 1.12254,-1.74653 0.0913,-1.04 -0.92445,-2.41676 -1.20507,-1.63428 -2.85421,-2.31275 -1.67555,-0.70984 -4.97053,-0.97397 -4.17154,-0.36317 -6.4909,-1.40317 -2.34577,-1.07301 -4.01802,-3.34615 -2.27479,-3.08367 -1.94958,-5.90817 0.29714,-2.86082 3.27186,-5.05307 2.93511,-2.16583 5.68202,-1.55174 2.75682,0.54476 5.08773,3.70602 l 0.79238,1.07302 -3.8645,2.85091 -0.99047,-1.33714 q -0.99047,-1.33714 -1.94628,-1.55174 -0.99047,-0.24762 -1.9892,0.49524 -2.04368,1.50221 -0.2146,3.99656 1.03999,1.41967 2.68913,2.08989 1.68546,0.64381 4.98043,0.92445 4.20786,0.33015 6.51732,1.45269 2.30945,1.10603 4.11871,3.56075 2.35733,3.19593 2.02057,6.08316 -0.29714,2.86082 -3.30818,5.08113 z"
         style="font-style:normal;font-variant:normal;font-weight:normal;font-stretch:normal;font-size:0.279713px;line-height:1.25;font-family:'Bebas Neue';-inkscape-font-specification:'Bebas Neue';letter-spacing:0px;word-spacing:0px;fill:#ffffff;fill-opacity:1;stroke:none;stroke-width:3.46309"
         id="path958" />
      <path
         d="m 156.70516,100.82235 4.34157,-2.636305 16.77185,27.630415 -4.34157,2.63465 z"
         style="font-style:normal;font-variant:normal;font-weight:normal;font-stretch:normal;font-size:0.279713px;line-height:1.25;font-family:'Bebas Neue';-inkscape-font-specification:'Bebas Neue';letter-spacing:0px;word-spacing:0px;fill:#ffffff;fill-opacity:1;stroke:none;stroke-width:3.46309"
         id="path960" />
      <path
         d="m 167.52393,94.229764 6.59656,-3.007738 12.53609,19.708774 0.084,-0.0383 -6.65433,-22.390149 6.59656,-3.007737 13.4077,29.410456 -4.36963,1.9925 -10.15071,-22.26782 -0.084,0.0383 6.78969,23.80008 -3.86449,1.7614 -13.51171,-20.735563 -0.084,0.0383 10.1507,22.267983 -4.03287,1.83898 z"
         style="font-style:normal;font-variant:normal;font-weight:normal;font-stretch:normal;font-size:0.279713px;line-height:1.25;font-family:'Bebas Neue';-inkscape-font-specification:'Bebas Neue';letter-spacing:0px;word-spacing:0px;fill:#ffffff;fill-opacity:1;stroke:none;stroke-width:3.46309"
         id="path962" />
      <path
         d="m 210.90485,112.27867 q -3.59872,1.02348 -6.08811,-0.47873 -2.48939,-1.50222 -3.54589,-5.23466 l -4.62881,-16.34941 q -1.05651,-3.732434 0.28063,-6.315918 1.33714,-2.585136 4.93091,-3.603673 3.59872,-1.023489 6.08811,0.478729 2.48939,1.502218 3.54589,5.234652 l 4.62881,16.34941 q 1.05651,3.73244 -0.28063,6.31592 -1.33714,2.58514 -4.93091,3.60368 z m -1.2546,-4.44228 q 2.53231,-0.70984 1.664,-3.78196 L 206.5088,87.082838 q -0.87492,-3.065515 -3.40062,-2.349073 -2.53231,0.709839 -1.664,3.781958 l 4.80545,16.971597 q 0.87492,3.06551 3.40062,2.34907 z"
         style="font-style:normal;font-variant:normal;font-weight:normal;font-stretch:normal;font-size:0.279713px;line-height:1.25;font-family:'Bebas Neue';-inkscape-font-specification:'Bebas Neue';letter-spacing:0px;word-spacing:0px;fill:#ffffff;fill-opacity:1;stroke:none;stroke-width:3.46309"
         id="path964" />
      <path
         d="m 216.9956,77.002955 6.30767,-0.907934 7.63655,18.450374 0.0913,-0.01321 -2.74527,-19.151463 4.4786,-0.643808 4.58754,31.995096 -5.16532,0.74286 -9.38143,-22.491509 -0.0915,0.01304 3.3478,23.356509 -4.48024,0.64381 z"
         style="font-style:normal;font-variant:normal;font-weight:normal;font-stretch:normal;font-size:0.279713px;line-height:1.25;font-family:'Bebas Neue';-inkscape-font-specification:'Bebas Neue';letter-spacing:0px;word-spacing:0px;fill:#ffffff;fill-opacity:1;stroke:none;stroke-width:3.46309"
         id="path966" />
      <path
         d="m 249.65911,73.981846 5.07617,0.165079 -0.92444,27.689505 8.35299,0.28064 -0.15352,4.6156 -13.42917,-0.44571 z"
         style="font-style:normal;font-variant:normal;font-weight:normal;font-stretch:normal;font-size:0.279713px;line-height:1.25;font-family:'Bebas Neue';-inkscape-font-specification:'Bebas Neue';letter-spacing:0px;word-spacing:0px;fill:#ffffff;fill-opacity:1;stroke:none;stroke-width:3.46309"
         id="path968" />
      <path
         d="m 273.43856,75.627518 6.7996,1.039997 0.28063,32.747035 -5.02005,-0.77587 0.0644,-6.4843 -0.014,0.0913 -5.70513,-0.87491 -1.87529,6.11122 -4.65523,-0.70984 z m 2.18564,22.201461 0.19809,-16.134812 -0.0913,-0.0142 -4.62386,15.453035 z"
         style="font-style:normal;font-variant:normal;font-weight:normal;font-stretch:normal;font-size:0.279713px;line-height:1.25;font-family:'Bebas Neue';-inkscape-font-specification:'Bebas Neue';letter-spacing:0px;word-spacing:0px;fill:#ffffff;fill-opacity:1;stroke:none;stroke-width:3.46309"
         id="path970" />
      <path
         d="m 291.86895,78.980931 7.23046,2.089898 q 3.7704,1.089521 4.98703,3.364308 1.2381,2.230216 0.18159,5.866905 l -0.54476,1.908312 q -1.40317,4.835161 -4.96392,5.198334 l -0.0256,0.08865 q 1.61777,1.039997 1.85549,2.892182 0.28063,1.85879 -0.51175,4.609 l -1.58475,5.45586 q -0.37969,1.33714 -0.54477,2.19885 -0.14213,0.82539 -0.0181,1.72507 l -4.96888,-1.43618 q -0.0482,-0.8254 0.0555,-1.51873 0.10367,-0.69333 0.61079,-2.42171 l 1.63428,-5.67706 q 0.61079,-2.12952 0.14956,-3.17777 -0.4292,-1.039993 -2.10806,-1.518722 l -1.68545,-0.495237 -3.84799,13.307009 -4.87973,-1.40317 z m 2.80635,15.230179 q 1.4692,0.429205 2.39199,-0.125625 0.97396,-0.528253 1.48571,-2.311105 l 0.69333,-2.395295 q 0.49524,-1.685455 0.0844,-2.619802 -0.36318,-0.924442 -1.65079,-1.287615 l -2.21866,-0.643808 -2.56533,8.87134 z"
         style="font-style:normal;font-variant:normal;font-weight:normal;font-stretch:normal;font-size:0.279713px;line-height:1.25;font-family:'Bebas Neue';-inkscape-font-specification:'Bebas Neue';letter-spacing:0px;word-spacing:0px;fill:#ffffff;fill-opacity:1;stroke:none;stroke-width:3.46309"
         id="path972" />
      <path
         d="m 306.54876,118.49273 q -3.39402,-1.45269 -4.31351,-4.11542 -0.90793,-2.69904 0.64381,-6.30436 l 0.72634,-1.69701 4.41256,1.89676 -0.87492,2.03707 q -1.23809,2.88393 1.17206,3.92392 1.18857,0.51175 2.0734,0.087 0.94095,-0.44571 1.61777,-2.01726 0.80889,-1.86705 0.56127,-3.63174 -0.23111,-1.80761 -1.66235,-4.78564 -1.7911,-3.78526 -2.06018,-6.314264 -0.24762,-2.570278 0.85841,-5.158716 1.51872,-3.521132 4.11542,-4.663478 2.6198,-1.188569 6.01382,0.280634 3.3511,1.436186 4.20951,4.120369 0.92444,2.65612 -0.6273,6.263093 l -0.52825,1.238092 -4.41256,-1.896756 0.66032,-1.535234 q 0.66031,-1.535234 0.34666,-2.461326 -0.28063,-0.973966 -1.43618,-1.469203 -2.33257,-1.006981 -3.5558,1.838979 -0.69334,1.617773 -0.44572,3.375864 0.29714,1.782852 1.72343,4.760876 1.83237,3.80342 2.04202,6.35554 0.2146,2.55212 -0.99047,5.35185 -1.56825,3.64825 -4.23097,4.81536 -2.61981,1.18856 -6.05675,-0.29715 z"
         style="font-style:normal;font-variant:normal;font-weight:normal;font-stretch:normal;font-size:0.279713px;line-height:1.25;font-family:'Bebas Neue';-inkscape-font-specification:'Bebas Neue';letter-spacing:0px;word-spacing:0px;fill:#ffffff;fill-opacity:1;stroke:none;stroke-width:3.46309"
         id="path974" />
      <path
         d="m 332.5122,94.470779 11.98803,6.939921 -2.31275,3.99656 -7.59363,-4.3944 -4.27885,7.39388 6.03364,3.49307 -2.31276,3.99656 -6.03363,-3.49307 -4.97383,8.59236 7.59363,4.3944 -2.31275,3.99656 -11.98803,-6.93992 z"
         style="font-style:normal;font-variant:normal;font-weight:normal;font-stretch:normal;font-size:0.279713px;line-height:1.25;font-family:'Bebas Neue';-inkscape-font-specification:'Bebas Neue';letter-spacing:0px;word-spacing:0px;fill:#ffffff;fill-opacity:1;stroke:none;stroke-width:3.46309"
         id="path976" />
      <path
         d="m 350.4165,105.31267 5.06132,3.8711 -7.82804,18.37014 0.0735,0.056 11.75196,-15.36884 3.59542,2.74856 -19.63333,25.67621 -4.14513,-3.16952 9.49039,-22.44594 -0.0733,-0.0561 -14.33215,18.74372 -3.59377,-2.74856 z"
         style="font-style:normal;font-variant:normal;font-weight:normal;font-stretch:normal;font-size:0.279713px;line-height:1.25;font-family:'Bebas Neue';-inkscape-font-specification:'Bebas Neue';letter-spacing:0px;word-spacing:0px;fill:#ffffff;fill-opacity:1;stroke:none;stroke-width:3.46309"
         id="path979" />
      <path
         d="M 158.08241,139.68341 A 143.58082,143.58082 0 0 1 360.30043,158.08806 143.58082,143.58082 0 0 1 341.89578,360.30608 143.58082,143.58082 0 0 1 139.6776,341.90309 143.58082,143.58082 0 0 1 158.08225,139.68473"
         style="opacity:0.5;fill:none;fill-opacity:1;stroke:none;stroke-width:12.0608;stroke-linecap:round;stroke-linejoin:round;stroke-miterlimit:4;stroke-dasharray:none;stroke-opacity:1;paint-order:stroke fill markers"
         id="circle870" />
      <path
         id="path879"
         style="opacity:0.5;fill:none;fill-opacity:1;stroke:none;stroke-width:15.3008;stroke-linecap:round;stroke-linejoin:round;stroke-miterlimit:4;stroke-dasharray:none;stroke-opacity:1;paint-order:stroke fill markers"
         d="M 102.59791,357.02283 A 182.15167,182.15167 0 0 0 357.01734,397.3861 182.15167,182.15167 0 0 0 397.38045,142.967 182.15167,182.15167 0 0 0 142.96151,102.60207 182.15167,182.15167 0 0 0 102.59824,357.02167" />
      <path
         d="m 130.34437,337.50522 8.82677,11.06689 -3.80342,3.03415 -5.49053,-6.88379 -7.41534,5.91477 4.30691,5.39974 -3.80342,3.03415 -4.30691,-5.39974 -11.59844,9.25268 -3.33625,-4.1831 z"
         style="font-style:normal;font-variant:normal;font-weight:normal;font-stretch:normal;font-size:0.294681px;line-height:1.25;font-family:'Bebas Neue';-inkscape-font-specification:'Bebas Neue';letter-spacing:0.0396875px;word-spacing:0px;fill:#ffffff;fill-opacity:1;stroke:none;stroke-width:3.64841"
         id="path983" />
      <path
         d="m 142.21767,351.90588 5.73649,5.47566 q 2.99123,2.85587 3.01929,5.57307 0.0624,2.68253 -2.69243,5.56811 l -1.43619,1.51872 q -3.66145,3.83479 -7.16938,2.43822 l -0.0672,0.0703 q 1.00698,1.76635 0.33015,3.60533 -0.6438,1.87199 -2.7271,4.05433 l -4.13192,4.32837 q -1.00699,1.05651 -1.56825,1.79111 -0.52826,0.69333 -0.85841,1.60126 l -3.94044,-3.76214 q 0.36318,-0.79238 0.79238,-1.38667 0.42921,-0.59428 1.74323,-1.96774 l 4.29866,-4.50335 q 1.61777,-1.68876 1.68711,-2.89548 0.11027,-1.17206 -1.22159,-2.44812 l -1.33714,-1.27111 -10.07641,10.55679 -3.8711,-3.69446 z m -4.79885,15.595 q 1.15556,1.10603 2.2946,1.04 1.17206,-0.0272 2.5125,-1.43619 l 1.81422,-1.90006 q 1.27111,-1.33714 1.35365,-2.4052 0.11357,-1.03999 -0.90794,-2.00901 l -1.75974,-1.67885 -6.71706,7.03731 z"
         style="font-style:normal;font-variant:normal;font-weight:normal;font-stretch:normal;font-size:0.294681px;line-height:1.25;font-family:'Bebas Neue';-inkscape-font-specification:'Bebas Neue';letter-spacing:0.0396875px;word-spacing:0px;fill:#ffffff;fill-opacity:1;stroke:none;stroke-width:3.64841"
         id="path985" />
      <path
         d="m 158.01011,366.33245 11.85266,8.51477 -2.83771,3.95034 -7.50613,-5.39313 -5.25116,7.30804 5.96595,4.28545 -2.83771,3.95034 -5.96595,-4.28545 -6.10297,8.49331 7.50614,5.39313 -2.8377,3.95034 -11.85267,-8.51477 z"
         style="font-style:normal;font-variant:normal;font-weight:normal;font-stretch:normal;font-size:0.294681px;line-height:1.25;font-family:'Bebas Neue';-inkscape-font-specification:'Bebas Neue';letter-spacing:0.0396875px;word-spacing:0px;fill:#ffffff;fill-opacity:1;stroke:none;stroke-width:3.64841"
         id="path987" />
      <path
         d="m 174.2301,377.48881 12.88111,6.85738 -2.28635,4.2937 -8.1582,-4.34322 -4.22932,7.94359 6.4843,3.4518 -2.28634,4.29371 -6.4843,-3.4518 -4.9144,9.23121 8.1582,4.34322 -2.28634,4.29371 -12.88111,-6.85738 z"
         style="font-style:normal;font-variant:normal;font-weight:normal;font-stretch:normal;font-size:0.294681px;line-height:1.25;font-family:'Bebas Neue';-inkscape-font-specification:'Bebas Neue';letter-spacing:0.0396875px;word-spacing:0px;fill:#ffffff;fill-opacity:1;stroke:none;stroke-width:3.64841"
         id="path989" />
      <path
         d="m 191.86828,386.39614 5.0118,1.8753 -10.22829,27.33624 8.24569,3.08532 -1.70526,4.55618 -13.25749,-4.96062 z"
         style="font-style:normal;font-variant:normal;font-weight:normal;font-stretch:normal;font-size:0.294681px;line-height:1.25;font-family:'Bebas Neue';-inkscape-font-specification:'Bebas Neue';letter-spacing:0.0396875px;word-spacing:0px;fill:#ffffff;fill-opacity:1;stroke:none;stroke-width:3.64841"
         id="path991" />
      <path
         d="m 213.68676,393.62594 7.06868,1.60126 -2.11301,34.43579 -5.21814,-1.18857 0.54476,-6.8095 -0.0215,0.0949 -5.93129,-1.33714 -2.42171,6.28455 -4.84011,-1.08952 z m 0.66032,23.4932 1.38666,-16.94205 -0.0949,-0.0216 -5.99567,15.9004 z"
         style="font-style:normal;font-variant:normal;font-weight:normal;font-stretch:normal;font-size:0.294681px;line-height:1.25;font-family:'Bebas Neue';-inkscape-font-specification:'Bebas Neue';letter-spacing:0.0396875px;word-spacing:0px;fill:#ffffff;fill-opacity:1;stroke:none;stroke-width:3.64841"
         id="path993" />
      <path
         d="m 230.29948,397.01897 6.69395,0.51174 3.62183,20.72252 0.0971,0.007 1.56825,-20.32204 4.75262,0.36318 -2.6198,33.95095 -5.48062,-0.42921 -4.49014,-25.2782 -0.0969,-0.007 -1.91162,24.78429 -4.75262,-0.36318 z"
         style="font-style:normal;font-variant:normal;font-weight:normal;font-stretch:normal;font-size:0.294681px;line-height:1.25;font-family:'Bebas Neue';-inkscape-font-specification:'Bebas Neue';letter-spacing:0.0396875px;word-spacing:0px;fill:#ffffff;fill-opacity:1;stroke:none;stroke-width:3.64841"
         id="path995" />
      <path
         d="m 262.5653,432.22353 q -3.83478,0.26413 -6.01877,-1.79111 -2.13612,-2.05193 -2.4019,-6.03198 l -1.22158,-18.24997 q -0.26413,-3.98005 1.58475,-6.29776 1.89181,-2.32101 5.72659,-2.57688 3.83478,-0.26413 5.9709,1.79441 2.184,2.04863 2.45143,6.02868 l 0.24761,3.59212 -5.04811,0.33015 -0.26413,-3.93218 q -0.2146,-3.15465 -2.88062,-2.97637 -2.66933,0.18159 -2.45803,3.33295 l 1.27111,18.97813 q 0.2146,3.10678 2.87733,2.9285 2.66932,-0.18159 2.46132,-3.28507 l -0.34666,-5.19339 5.04811,-0.33015 0.31365,4.80544 q 0.26413,3.98005 -1.63428,6.30106 -1.84393,2.31771 -5.67872,2.57358 z"
         style="font-style:normal;font-variant:normal;font-weight:normal;font-stretch:normal;font-size:0.294681px;line-height:1.25;font-family:'Bebas Neue';-inkscape-font-specification:'Bebas Neue';letter-spacing:0.0396875px;word-spacing:0px;fill:#ffffff;fill-opacity:1;stroke:none;stroke-width:3.64841"
         id="path997" />
      <path
         d="m 273.2157,396.46199 14.29583,-2.9384 0.97397,4.76417 -9.05293,1.86044 1.81257,8.81522 7.19579,-1.48571 0.97396,4.76417 -7.19579,1.48571 2.10476,10.2448 9.05293,-1.86044 0.97396,4.76418 -14.29418,2.9384 z"
         style="font-style:normal;font-variant:normal;font-weight:normal;font-stretch:normal;font-size:0.294681px;line-height:1.25;font-family:'Bebas Neue';-inkscape-font-specification:'Bebas Neue';letter-spacing:0.0396875px;word-spacing:0px;fill:#ffffff;fill-opacity:1;stroke:none;stroke-width:3.64841"
         id="path999" />
      <path
         d="m 292.22585,392.21897 7.46817,-2.66437 q 3.89422,-1.38667 6.33573,-0.1981 2.42501,1.15555 3.7638,4.90615 l 0.70984,1.97104 q 1.7812,4.99363 -1.04,7.49953 l 0.0327,0.0918 q 2.02882,-0.104 3.36596,1.33713 1.38666,1.41968 2.39694,4.25739 l 2.01066,5.63579 q 0.49524,1.37016 0.89143,2.21206 0.37968,0.79238 1.04,1.48571 l -5.13231,1.83073 q -0.54476,-0.67683 -0.89142,-1.33714 -0.33016,-0.66032 -0.97397,-2.44152 l -2.09155,-5.86525 q -0.79238,-2.19885 -1.82742,-2.808 -0.99047,-0.6273 -2.73866,-0.004 l -1.74158,0.6273 4.90284,13.74612 -5.03986,1.79771 z m 11.77673,11.29305 q 1.51873,-0.54476 1.96774,-1.58476 0.49524,-1.05651 -0.15286,-2.88888 l -0.87492,-2.47453 q -0.6273,-1.74159 -1.53523,-2.2913 -0.87492,-0.56127 -2.20215,-0.0924 l -2.2913,0.82539 3.26856,9.16353 z"
         style="font-style:normal;font-variant:normal;font-weight:normal;font-stretch:normal;font-size:0.294681px;line-height:1.25;font-family:'Bebas Neue';-inkscape-font-specification:'Bebas Neue';letter-spacing:0.0396875px;word-spacing:0px;fill:#ffffff;fill-opacity:1;stroke:none;stroke-width:3.64841"
         id="path1001" />
      <path
         d="m 325.91219,409.93375 4.62551,-2.28139 2.27974,4.62386 -4.62386,2.27974 z"
         style="font-style:normal;font-variant:normal;font-weight:normal;font-stretch:normal;font-size:0.294681px;line-height:1.25;font-family:'Bebas Neue';-inkscape-font-specification:'Bebas Neue';letter-spacing:0.0396875px;word-spacing:0px;fill:#ffffff;fill-opacity:1;stroke:none;stroke-width:3.64841"
         id="path1003" />
      <path
         d="m 348.46427,403.81725 q -3.23554,2.07174 -6.13763,1.33714 -2.85917,-0.77587 -5.01179,-4.12698 l -9.86347,-15.40351 q -2.15098,-3.35935 -1.65079,-6.27795 0.54476,-2.94501 3.77701,-5.01675 3.23554,-2.07174 6.09636,-1.30412 2.90044,0.74285 5.05142,4.10056 l 1.94132,3.03085 -4.26068,2.72875 -2.12457,-3.31808 q -1.70526,-2.66273 -3.95859,-1.22159 -2.25333,1.43619 -0.54476,4.10552 l 10.25635,16.0176 q 1.67885,2.62145 3.93218,1.17206 2.25333,-1.43619 0.57778,-4.06424 l -2.80634,-4.38285 4.26068,-2.72875 2.59669,4.05599 q 2.15098,3.35935 1.61778,6.30436 -0.49524,2.9186 -3.73574,4.99199 z"
         style="font-style:normal;font-variant:normal;font-weight:normal;font-stretch:normal;font-size:0.294681px;line-height:1.25;font-family:'Bebas Neue';-inkscape-font-specification:'Bebas Neue';letter-spacing:0.0396875px;word-spacing:0px;fill:#ffffff;fill-opacity:1;stroke:none;stroke-width:3.64841"
         id="path1005" />
      <path
         d="m 369.00785,388.53986 q -2.99123,2.56532 -6.03529,2.22691 -3.04405,-0.33016 -5.70347,-3.43859 l -11.65358,-13.59012 q -2.65942,-3.10184 -2.52901,-6.1624 0.13157,-3.06056 3.12329,-5.62589 2.99123,-2.56532 6.03529,-2.22691 3.04405,0.33015 5.70347,3.43859 l 11.65292,13.59095 q 2.65942,3.10183 2.52901,6.16239 -0.1314,3.06056 -3.12329,5.62424 z m -3.16622,-3.69282 q 2.10476,-1.80431 -0.0799,-4.35313 L 353.6664,366.38627 q -2.18565,-2.54882 -4.2904,-0.74286 -2.10476,1.80431 0.0799,4.35313 l 12.09533,14.10765 q 2.18565,2.54881 4.2904,0.74285 z"
         style="font-style:normal;font-variant:normal;font-weight:normal;font-stretch:normal;font-size:0.294681px;line-height:1.25;font-family:'Bebas Neue';-inkscape-font-specification:'Bebas Neue';letter-spacing:0.0396875px;word-spacing:0px;fill:#ffffff;fill-opacity:1;stroke:none;stroke-width:3.64841"
         id="path1007" />
      <path
         d="m 356.19211,353.85315 4.92431,-5.83884 20.82602,13.10891 0.0627,-0.0743 -16.43526,-18.31518 4.92431,-5.83884 26.0308,21.95302 -3.26196,3.8678 -19.70894,-16.62147 -0.0627,0.0745 17.20007,19.59635 -2.88558,3.42209 -22.21797,-13.64707 -0.0627,0.0744 19.7091,16.62146 -3.01104,3.57066 z"
         style="font-style:normal;font-variant:normal;font-weight:normal;font-stretch:normal;font-size:0.294681px;line-height:1.25;font-family:'Bebas Neue';-inkscape-font-specification:'Bebas Neue';letter-spacing:0.0396875px;word-spacing:0px;fill:#ffffff;fill-opacity:1;stroke:none;stroke-width:3.64841"
         id="path1009" />
    </g>
  </g>
</svg>
