<?xml version="1.0" encoding="UTF-8" standalone="no"?>
<svg
   xmlns:dc="http://purl.org/dc/elements/1.1/"
   xmlns:cc="http://creativecommons.org/ns#"
   xmlns:rdf="http://www.w3.org/1999/02/22-rdf-syntax-ns#"
   xmlns:svg="http://www.w3.org/2000/svg"
   xmlns="http://www.w3.org/2000/svg"
   width="500"
   height="500"
   viewBox="0 0 132.29166 132.29167"
   version="1.1"
   id="svg8">
  <defs
     id="defs2" />
  <metadata
     id="metadata5">
    <rdf:RDF>
      <cc:Work
         rdf:about="">
        <dc:format>image/svg+xml</dc:format>
        <dc:type
           rdf:resource="http://purl.org/dc/dcmitype/StillImage" />
        <dc:title></dc:title>
      </cc:Work>
    </rdf:RDF>
  </metadata>
  <g
     id="layer1">
    <g
       id="g1065"
       transform="matrix(2.6594083,0,0,2.6594083,-215.30821,-251.49516)">
      <path
         style="display:inline;fill:#000000;stroke:none;stroke-width:0.400767px;stroke-linecap:butt;stroke-linejoin:miter;stroke-opacity:1"
         d="m 87.229496,128.30986 v 3.63802 c -0.0734,1.6096 1.543621,1.80196 4.85087,1.80196 3.30724,0 9.854124,-1.50171 13.819834,-1.50171 3.96571,0 10.51259,1.50171 13.81983,1.50171 3.30725,0 4.92426,-0.19236 4.85087,-1.80196 v -3.63802 c 0.0139,0.30391 -0.0329,0.55732 -0.13953,0.76843 v -0.21807 c 0,-0.0302 -0.001,-0.0578 -0.002,-0.0863 v 0.30747 c -0.46038,0.90396 -2.02978,1.03043 -4.70928,1.03043 -3.30724,0 -9.85412,-1.50172 -13.81983,-1.50172 -3.96571,0 -10.512586,1.50172 -13.819826,1.50172 -2.6795,0 -4.2489,-0.12647 -4.70927,-1.03043 v -0.30747 c -7.93e-4,0.0285 -0.002,0.0561 -0.002,0.0863 v 0.21807 c -0.10652,-0.21111 -0.15326,-0.46452 -0.1394,-0.76843 z"
         id="path1238" />
      <path
         style="display:inline;fill:#000000;stroke:none;stroke-width:0.400767px;stroke-linecap:butt;stroke-linejoin:miter;stroke-opacity:1"
         d="m 118.94075,127.41638 -0.0155,2.53731 c 0.2292,0.0105 0.44763,0.0165 0.65319,0.0165 3.01845,0 4.62418,-0.16375 4.82658,-1.41542 -0.2473,-1.17322 -2.22837,-0.34443 -2.42104,0.10955 -0.22591,0.53227 -3.04324,0.19306 -3.04324,-1.24798 z"
         id="path1236" />
      <path
         style="display:inline;fill:#000000;stroke:none;stroke-width:0.400767px;stroke-linecap:butt;stroke-linejoin:miter;stroke-opacity:1"
         d="m 92.859647,127.41638 c 0,1.44104 -2.81731,1.78025 -3.04322,1.24798 -0.192671,-0.45398 -2.17375,-1.28277 -2.421041,-0.10955 0.20241,1.25167 1.808121,1.41542 4.826571,1.41542 0.205559,0 0.423999,-0.006 0.653189,-0.0165 z"
         id="path1099" />
      <path
         style="color:#000000;font-style:normal;font-variant:normal;font-weight:normal;font-stretch:normal;font-size:medium;line-height:normal;font-family:sans-serif;font-variant-ligatures:normal;font-variant-position:normal;font-variant-caps:normal;font-variant-numeric:normal;font-variant-alternates:normal;font-variant-east-asian:normal;font-feature-settings:normal;font-variation-settings:normal;text-indent:0;text-align:start;text-decoration:none;text-decoration-line:none;text-decoration-style:solid;text-decoration-color:#000000;letter-spacing:normal;word-spacing:normal;text-transform:none;writing-mode:lr-tb;direction:ltr;text-orientation:mixed;dominant-baseline:auto;baseline-shift:baseline;text-anchor:start;white-space:normal;shape-padding:0;shape-margin:0;inline-size:0;clip-rule:nonzero;display:inline;overflow:visible;visibility:visible;isolation:auto;mix-blend-mode:normal;color-interpolation:sRGB;color-interpolation-filters:linearRGB;solid-color:#000000;solid-opacity:1;vector-effect:none;fill:#000000;fill-opacity:1;fill-rule:nonzero;stroke:none;stroke-width:0.343024;stroke-linecap:square;stroke-linejoin:bevel;stroke-miterlimit:4;stroke-dasharray:none;stroke-dashoffset:0;stroke-opacity:1;paint-order:normal;color-rendering:auto;image-rendering:auto;shape-rendering:auto;text-rendering:auto;enable-background:accumulate;stop-color:#000000"
         d="m 111.47548,126.0984 a 5.6794775,0.96867032 0 0 1 0.0372,0.11118 5.6794775,0.96867032 0 0 1 -0.0377,0.1114 h 7.02024 0.26562 v -0.22258 h -0.26562 z"
         id="path1242" />
      <path
         style="color:#000000;font-style:normal;font-variant:normal;font-weight:normal;font-stretch:normal;font-size:medium;line-height:normal;font-family:sans-serif;font-variant-ligatures:normal;font-variant-position:normal;font-variant-caps:normal;font-variant-numeric:normal;font-variant-alternates:normal;font-variant-east-asian:normal;font-feature-settings:normal;font-variation-settings:normal;text-indent:0;text-align:start;text-decoration:none;text-decoration-line:none;text-decoration-style:solid;text-decoration-color:#000000;letter-spacing:normal;word-spacing:normal;text-transform:none;writing-mode:lr-tb;direction:ltr;text-orientation:mixed;dominant-baseline:auto;baseline-shift:baseline;text-anchor:start;white-space:normal;shape-padding:0;shape-margin:0;inline-size:0;clip-rule:nonzero;display:inline;overflow:visible;visibility:visible;isolation:auto;mix-blend-mode:normal;color-interpolation:sRGB;color-interpolation-filters:linearRGB;solid-color:#000000;solid-opacity:1;vector-effect:none;fill:#000000;fill-opacity:1;fill-rule:nonzero;stroke:none;stroke-width:0.343024;stroke-linecap:square;stroke-linejoin:bevel;stroke-miterlimit:4;stroke-dasharray:none;stroke-dashoffset:0;stroke-opacity:1;paint-order:normal;color-rendering:auto;image-rendering:auto;shape-rendering:auto;text-rendering:auto;enable-background:accumulate;stop-color:#000000"
         d="m 92.907096,126.0984 v 0.22258 h 0.26355 7.021284 a 5.6794775,0.96867032 0 0 1 -0.0382,-0.1114 5.6794775,0.96867032 0 0 1 0.0382,-0.11118 h -7.021284 z"
         id="path994" />
      <path
         style="color:#000000;font-style:normal;font-variant:normal;font-weight:normal;font-stretch:normal;font-size:medium;line-height:normal;font-family:sans-serif;font-variant-ligatures:normal;font-variant-position:normal;font-variant-caps:normal;font-variant-numeric:normal;font-variant-alternates:normal;font-variant-east-asian:normal;font-feature-settings:normal;font-variation-settings:normal;text-indent:0;text-align:start;text-decoration:none;text-decoration-line:none;text-decoration-style:solid;text-decoration-color:#000000;letter-spacing:normal;word-spacing:normal;text-transform:none;writing-mode:lr-tb;direction:ltr;text-orientation:mixed;dominant-baseline:auto;baseline-shift:baseline;text-anchor:start;white-space:normal;shape-padding:0;shape-margin:0;inline-size:0;clip-rule:nonzero;display:inline;overflow:visible;visibility:visible;isolation:auto;mix-blend-mode:normal;color-interpolation:sRGB;color-interpolation-filters:linearRGB;solid-color:#000000;solid-opacity:1;vector-effect:none;fill:#000000;fill-opacity:1;fill-rule:nonzero;stroke:none;stroke-width:0.568754;stroke-linecap:square;stroke-linejoin:bevel;stroke-miterlimit:4;stroke-dasharray:none;stroke-dashoffset:0;stroke-opacity:1;color-rendering:auto;image-rendering:auto;shape-rendering:auto;text-rendering:auto;enable-background:accumulate;stop-color:#000000"
         d="m 89.152286,120.43147 c -1.56973,0.67312 -2.42672,1.18597 -2.42672,1.18597 l -0.24236,0.14831 0.29507,0.48628 0.24236,-0.14831 c 0,0 0.84666,-0.50785 2.4014,-1.17306 a 3.3659257,2.722808 0 0 1 -0.26975,-0.49919 z"
         id="path1248" />
      <path
         style="color:#000000;font-style:normal;font-variant:normal;font-weight:normal;font-stretch:normal;font-size:medium;line-height:normal;font-family:sans-serif;font-variant-ligatures:normal;font-variant-position:normal;font-variant-caps:normal;font-variant-numeric:normal;font-variant-alternates:normal;font-variant-east-asian:normal;font-feature-settings:normal;font-variation-settings:normal;text-indent:0;text-align:start;text-decoration:none;text-decoration-line:none;text-decoration-style:solid;text-decoration-color:#000000;letter-spacing:normal;word-spacing:normal;text-transform:none;writing-mode:lr-tb;direction:ltr;text-orientation:mixed;dominant-baseline:auto;baseline-shift:baseline;text-anchor:start;white-space:normal;shape-padding:0;shape-margin:0;inline-size:0;clip-rule:nonzero;display:inline;overflow:visible;visibility:visible;isolation:auto;mix-blend-mode:normal;color-interpolation:sRGB;color-interpolation-filters:linearRGB;solid-color:#000000;solid-opacity:1;vector-effect:none;fill:#000000;fill-opacity:1;fill-rule:nonzero;stroke:none;stroke-width:0.568754;stroke-linecap:square;stroke-linejoin:bevel;stroke-miterlimit:4;stroke-dasharray:none;stroke-dashoffset:0;stroke-opacity:1;color-rendering:auto;image-rendering:auto;shape-rendering:auto;text-rendering:auto;enable-background:accumulate;stop-color:#000000"
         d="m 120.72659,119.67803 a 2.0136113,1.5446881 0 0 1 -0.32246,0.4842 c 2.81886,1.00449 4.37596,1.94149 4.37596,1.94149 l 0.24237,0.14831 0.29507,-0.48628 -0.24237,-0.14831 c 0,0 -1.54889,-0.93081 -4.34857,-1.93941 z"
         id="path1246" />
      <path
         style="color:#000000;font-style:normal;font-variant:normal;font-weight:normal;font-stretch:normal;font-size:medium;line-height:normal;font-family:sans-serif;font-variant-ligatures:normal;font-variant-position:normal;font-variant-caps:normal;font-variant-numeric:normal;font-variant-alternates:normal;font-variant-east-asian:normal;font-feature-settings:normal;font-variation-settings:normal;text-indent:0;text-align:start;text-decoration:none;text-decoration-line:none;text-decoration-style:solid;text-decoration-color:#000000;letter-spacing:normal;word-spacing:normal;text-transform:none;writing-mode:lr-tb;direction:ltr;text-orientation:mixed;dominant-baseline:auto;baseline-shift:baseline;text-anchor:start;white-space:normal;shape-padding:0;shape-margin:0;inline-size:0;clip-rule:nonzero;display:inline;overflow:visible;visibility:visible;isolation:auto;mix-blend-mode:normal;color-interpolation:sRGB;color-interpolation-filters:linearRGB;solid-color:#000000;solid-opacity:1;vector-effect:none;fill:#000000;fill-opacity:1;fill-rule:nonzero;stroke:none;stroke-width:0.568754;stroke-linecap:square;stroke-linejoin:bevel;stroke-miterlimit:4;stroke-dasharray:none;stroke-dashoffset:0;stroke-opacity:1;color-rendering:auto;image-rendering:auto;shape-rendering:auto;text-rendering:auto;enable-background:accumulate;stop-color:#000000"
         d="m 105.89907,117.17792 c -4.08374,0 -7.628854,0.52733 -10.522354,1.21801 a 3.3659257,2.722808 0 0 1 0.23874,0.52348 c 2.83148,-0.66696 6.292844,-1.17305 10.283614,-1.17305 4.28515,0 7.9585,0.58376 10.89856,1.32343 a 2.0136113,1.5446881 0 0 1 0.20154,-0.53123 c -2.99511,-0.75948 -6.73942,-1.36064 -11.1001,-1.36064 z"
         id="path964" />
      <path
         style="display:inline;fill:none;stroke:#000000;stroke-width:0.3;stroke-linecap:square;stroke-linejoin:bevel;stroke-miterlimit:4;stroke-dasharray:none;stroke-opacity:1;paint-order:stroke fill markers"
         d="m 95.738166,114.61883 c 0,-0.49609 -0.15419,-0.90371 -0.6739,-0.90371 -0.51971,0 -0.95739,0.32829 -0.95739,1.06907 0,0.74079 0.71725,1.40816 1.5368,1.40317 0.81955,-0.005 2.07134,-0.73215 2.07134,-1.9377 0,-1.20556 -0.64477,-2.32191 -2.07134,-2.32191 -1.42658,0 -3.00856,1.41819 -4.936589,2.88818 -1.928031,1.46998 -3.535701,2.7746 -4.685111,2.7746 -1.149409,0 -1.603619,-0.90264 -1.603619,-1.5368 0,-0.63417 0.4145,-0.8354 0.852769,-0.8354 0.43826,0 0.68403,0.51708 0.68403,0.8354"
         id="path867" />
      <path
         style="display:inline;fill:#ffffff;stroke:none;stroke-width:0.434647;stroke-linecap:square;stroke-linejoin:bevel;paint-order:stroke fill markers"
         d="m 101.31559,117.93696 a 1.9191172,1.4721994 0 0 1 -1.919124,1.4722 1.9191172,1.4721994 0 0 1 -1.91912,-1.4722 1.9191172,1.4721994 0 0 1 1.91912,-1.4722 1.9191172,1.4721994 0 0 1 1.919124,1.4722 z"
         id="ellipse932" />
      <path
         style="display:inline;fill:#000000;stroke:none;stroke-width:0.342106;stroke-linecap:round;stroke-linejoin:round;stroke-miterlimit:4;stroke-dasharray:none;stroke-opacity:1;paint-order:stroke fill markers"
         d="m 107.36727,109.6672 -1.47129,-0.77737 -1.47447,0.77131 0.28467,-1.6395 -1.1892,-1.16396 1.64722,-0.2359 0.73951,-1.49067 0.73337,1.4937 1.64624,0.24267 -1.19397,1.15906 z"
         id="path1110" />
      <path
         style="display:inline;fill:#000000;stroke:none;stroke-width:0.203161;stroke-linecap:round;stroke-linejoin:round;stroke-miterlimit:4;stroke-dasharray:none;stroke-opacity:1;paint-order:stroke fill markers"
         d="m 102.0467,109.6672 -0.87373,-0.46164 -0.87562,0.45804 0.16905,-0.97362 -0.706214,-0.69122 0.978214,-0.14009 0.43916,-0.88524 0.43551,0.88704 0.97763,0.14411 -0.70905,0.68831 z"
         id="path1112" />
      <path
         style="display:inline;fill:#000000;stroke:none;stroke-width:0.203161;stroke-linecap:round;stroke-linejoin:round;stroke-miterlimit:4;stroke-dasharray:none;stroke-opacity:1;paint-order:stroke fill markers"
         d="m 111.49611,109.6672 -0.87373,-0.46164 -0.87561,0.45804 0.16905,-0.97362 -0.70621,-0.69122 0.97821,-0.14009 0.43916,-0.88524 0.43551,0.88704 0.97762,0.14411 -0.70904,0.68831 z"
         id="path1114" />
      <path
         style="display:inline;fill:none;stroke:#000000;stroke-width:0.3;stroke-linecap:square;stroke-linejoin:bevel;stroke-miterlimit:4;stroke-dasharray:none;stroke-opacity:1;paint-order:stroke fill markers"
         d="m 115.9285,114.61883 c 0,-0.49609 0.15419,-0.90371 0.6739,-0.90371 0.51971,0 0.95739,0.32829 0.95739,1.06907 0,0.74079 -0.71725,1.40816 -1.5368,1.40317 -0.81955,-0.005 -2.07134,-0.73215 -2.07134,-1.9377 0,-1.20556 0.64477,-2.32191 2.07134,-2.32191 1.42658,0 3.00856,1.41819 4.93659,2.88818 1.92803,1.46998 3.5357,2.7746 4.68511,2.7746 1.14941,0 1.60362,-0.90264 1.60362,-1.5368 0,-0.63417 -0.4145,-0.8354 -0.85277,-0.8354 -0.43826,0 -0.68403,0.51708 -0.68403,0.8354"
         id="path1133" />
      <path
         d="m 100.39455,111.14736 h 0.85073 v 0.28358 h -0.53879 v 0.52461 h 0.4282 v 0.28358 h -0.4282 v 0.60968 h 0.53879 v 0.28358 h -0.85073 z"
         style="font-style:normal;font-variant:normal;font-weight:normal;font-stretch:normal;font-size:2.83575px;line-height:1.25;font-family:'Bebas Neue';-inkscape-font-specification:'Bebas Neue';letter-spacing:0px;word-spacing:0px;display:inline;fill:#000000;fill-opacity:1;stroke:none;stroke-width:0.0708938"
         id="path1128" />
      <path
         d="m 101.83511,113.16075 q -0.22686,0 -0.34313,-0.12761 -0.11626,-0.13045 -0.11626,-0.37149 v -0.11343 h 0.29492 v 0.13612 q 0,0.19283 0.16163,0.19283 0.0794,0 0.11911,-0.0454 0.0425,-0.0482 0.0425,-0.15313 0,-0.12477 -0.0567,-0.21835 -0.0567,-0.0964 -0.20985,-0.2297 -0.19283,-0.17014 -0.2694,-0.30626 -0.0766,-0.13895 -0.0766,-0.31193 0,-0.23537 0.1191,-0.36298 0.1191,-0.13044 0.34596,-0.13044 0.22403,0 0.33746,0.13044 0.11626,0.12761 0.11626,0.36865 v 0.0822 h -0.29492 v -0.10209 q 0,-0.10209 -0.0397,-0.14746 -0.0397,-0.0482 -0.11626,-0.0482 -0.15597,0 -0.15597,0.18999 0,0.10776 0.0567,0.20134 0.0596,0.0936 0.21268,0.22686 0.19566,0.17015 0.26939,0.3091 0.0737,0.13895 0.0737,0.32611 0,0.24388 -0.12193,0.37432 -0.1191,0.13044 -0.3488,0.13044 z"
         style="font-style:normal;font-variant:normal;font-weight:normal;font-stretch:normal;font-size:2.83575px;line-height:1.25;font-family:'Bebas Neue';-inkscape-font-specification:'Bebas Neue';letter-spacing:0px;word-spacing:0px;display:inline;fill:#000000;fill-opacity:1;stroke:none;stroke-width:0.0708938"
         id="path1130" />
      <path
         d="m 102.72837,111.43094 h -0.32611 v -0.28358 h 0.96415 v 0.28358 h -0.32611 v 1.70145 h -0.31193 z"
         style="font-style:normal;font-variant:normal;font-weight:normal;font-stretch:normal;font-size:2.83575px;line-height:1.25;font-family:'Bebas Neue';-inkscape-font-specification:'Bebas Neue';letter-spacing:0px;word-spacing:0px;display:inline;fill:#000000;fill-opacity:1;stroke:none;stroke-width:0.0708938"
         id="path1132" />
      <path
         d="m 103.62729,111.14736 h 0.42253 l 0.32328,1.98503 h -0.31194 l -0.0567,-0.39417 v 0.006 h -0.35447 l -0.0567,0.3885 h -0.28925 z m 0.34029,1.32713 -0.13895,-0.98116 h -0.006 l -0.13612,0.98116 z"
         style="font-style:normal;font-variant:normal;font-weight:normal;font-stretch:normal;font-size:2.83575px;line-height:1.25;font-family:'Bebas Neue';-inkscape-font-specification:'Bebas Neue';letter-spacing:0px;word-spacing:0px;display:inline;fill:#000000;fill-opacity:1;stroke:none;stroke-width:0.0708938"
         id="path1134" />
      <path
         d="m 104.52339,111.14736 h 0.47073 q 0.24104,0 0.35164,0.11343 0.11059,0.1106 0.11059,0.34313 v 0.0794 q 0,0.15313 -0.051,0.24955 -0.0482,0.0964 -0.1503,0.13895 v 0.006 q 0.23253,0.0794 0.23253,0.41402 v 0.17014 q 0,0.2297 -0.12193,0.35164 -0.11911,0.1191 -0.35164,0.1191 h -0.49058 z m 0.43387,0.80819 q 0.0936,0 0.13895,-0.0482 0.0482,-0.0482 0.0482,-0.16163 v -0.1106 q 0,-0.10776 -0.0397,-0.15597 -0.0369,-0.0482 -0.1191,-0.0482 h -0.1503 v 0.52462 z m 0.0567,0.89326 q 0.0822,0 0.12194,-0.0425 0.0397,-0.0454 0.0397,-0.15313 v -0.17298 q 0,-0.13611 -0.0482,-0.18716 -0.0454,-0.0539 -0.15313,-0.0539 h -0.13895 v 0.60969 z"
         style="font-style:normal;font-variant:normal;font-weight:normal;font-stretch:normal;font-size:2.83575px;line-height:1.25;font-family:'Bebas Neue';-inkscape-font-specification:'Bebas Neue';letter-spacing:0px;word-spacing:0px;display:inline;fill:#000000;fill-opacity:1;stroke:none;stroke-width:0.0708938"
         id="path1136" />
      <path
         d="m 105.66903,111.14736 h 0.31193 v 1.70145 h 0.51327 v 0.28358 h -0.8252 z"
         style="font-style:normal;font-variant:normal;font-weight:normal;font-stretch:normal;font-size:2.83575px;line-height:1.25;font-family:'Bebas Neue';-inkscape-font-specification:'Bebas Neue';letter-spacing:0px;word-spacing:0px;display:inline;fill:#000000;fill-opacity:1;stroke:none;stroke-width:0.0708938"
         id="path1138" />
      <path
         d="m 106.64453,111.14736 h 0.31193 v 1.98503 h -0.31193 z"
         style="font-style:normal;font-variant:normal;font-weight:normal;font-stretch:normal;font-size:2.83575px;line-height:1.25;font-family:'Bebas Neue';-inkscape-font-specification:'Bebas Neue';letter-spacing:0px;word-spacing:0px;display:inline;fill:#000000;fill-opacity:1;stroke:none;stroke-width:0.0708938"
         id="path1140" />
      <path
         d="m 107.5945,113.16075 q -0.22686,0 -0.34312,-0.12761 -0.11627,-0.13045 -0.11627,-0.37149 v -0.11343 h 0.29492 v 0.13612 q 0,0.19283 0.16164,0.19283 0.0794,0 0.1191,-0.0454 0.0425,-0.0482 0.0425,-0.15313 0,-0.12477 -0.0567,-0.21835 -0.0567,-0.0964 -0.20985,-0.2297 -0.19283,-0.17014 -0.26939,-0.30626 -0.0766,-0.13895 -0.0766,-0.31193 0,-0.23537 0.1191,-0.36298 0.11911,-0.13044 0.34597,-0.13044 0.22402,0 0.33745,0.13044 0.11627,0.12761 0.11627,0.36865 v 0.0822 h -0.29492 v -0.10209 q 0,-0.10209 -0.0397,-0.14746 -0.0397,-0.0482 -0.11627,-0.0482 -0.15597,0 -0.15597,0.18999 0,0.10776 0.0567,0.20134 0.0596,0.0936 0.21268,0.22686 0.19567,0.17015 0.2694,0.3091 0.0737,0.13895 0.0737,0.32611 0,0.24388 -0.12194,0.37432 -0.1191,0.13044 -0.3488,0.13044 z"
         style="font-style:normal;font-variant:normal;font-weight:normal;font-stretch:normal;font-size:2.83575px;line-height:1.25;font-family:'Bebas Neue';-inkscape-font-specification:'Bebas Neue';letter-spacing:0px;word-spacing:0px;display:inline;fill:#000000;fill-opacity:1;stroke:none;stroke-width:0.0708938"
         id="path1142" />
      <path
         d="m 108.24389,111.14736 h 0.31193 v 0.80819 h 0.33462 v -0.80819 h 0.31193 v 1.98503 h -0.31193 v -0.89326 h -0.33462 v 0.89326 h -0.31193 z"
         style="font-style:normal;font-variant:normal;font-weight:normal;font-stretch:normal;font-size:2.83575px;line-height:1.25;font-family:'Bebas Neue';-inkscape-font-specification:'Bebas Neue';letter-spacing:0px;word-spacing:0px;display:inline;fill:#000000;fill-opacity:1;stroke:none;stroke-width:0.0708938"
         id="path1144" />
      <path
         d="m 109.4349,111.14736 h 0.85072 v 0.28358 h -0.53879 v 0.52461 h 0.4282 v 0.28358 h -0.4282 v 0.60968 h 0.53879 v 0.28358 h -0.85072 z"
         style="font-style:normal;font-variant:normal;font-weight:normal;font-stretch:normal;font-size:2.83575px;line-height:1.25;font-family:'Bebas Neue';-inkscape-font-specification:'Bebas Neue';letter-spacing:0px;word-spacing:0px;display:inline;fill:#000000;fill-opacity:1;stroke:none;stroke-width:0.0708938"
         id="path1146" />
      <path
         d="m 110.46427,111.14736 h 0.47641 q 0.23253,0 0.34879,0.12478 0.11627,0.12477 0.11627,0.36581 v 1.00385 q 0,0.24104 -0.11627,0.36582 -0.11626,0.12477 -0.34879,0.12477 h -0.47641 z m 0.47074,1.70145 q 0.0766,0 0.11626,-0.0454 0.0425,-0.0454 0.0425,-0.14746 v -1.03221 q 0,-0.10209 -0.0425,-0.14746 -0.0397,-0.0454 -0.11626,-0.0454 h -0.15881 v 1.41788 z"
         style="font-style:normal;font-variant:normal;font-weight:normal;font-stretch:normal;font-size:2.83575px;line-height:1.25;font-family:'Bebas Neue';-inkscape-font-specification:'Bebas Neue';letter-spacing:0px;word-spacing:0px;display:inline;fill:#000000;fill-opacity:1;stroke:none;stroke-width:0.0708938"
         id="path1148" />
      <path
         d="m 104.5207,114.60583 h -0.2514 v -0.17052 q 0.10274,0 0.16396,-0.0175 0.0634,-0.0175 0.10056,-0.0568 0.0372,-0.0415 0.0656,-0.11805 h 0.16178 v 1.5303 h -0.24048 z"
         style="font-style:normal;font-variant:normal;font-weight:normal;font-stretch:normal;font-size:2.18614px;line-height:1.25;font-family:'Bebas Neue';-inkscape-font-specification:'Bebas Neue';letter-spacing:0px;word-spacing:0px;display:inline;fill:#000000;fill-opacity:1;stroke:none;stroke-width:0.0546534"
         id="path1151" />
      <path
         d="m 105.39734,115.79509 q -0.17489,0 -0.26671,-0.0984 -0.0918,-0.10056 -0.0918,-0.28639 v -0.0284 h 0.22736 v 0.0437 q 0,0.15084 0.12461,0.15084 0.0678,0 0.10056,-0.0415 0.0328,-0.0415 0.0328,-0.14647 v -0.29294 h -0.004 q -0.0634,0.13335 -0.21862,0.13335 -0.13117,0 -0.19894,-0.0896 -0.0678,-0.0896 -0.0678,-0.26015 v -0.27326 q 0,-0.18364 0.094,-0.2842 0.094,-0.10056 0.27107,-0.10056 0.17708,0 0.27108,0.10056 0.094,0.10056 0.094,0.2842 v 0.79138 q 0,0.39788 -0.36728,0.39788 z m 0.002,-0.78483 q 0.12461,0 0.12461,-0.15084 v -0.27108 q 0,-0.14866 -0.12461,-0.14866 -0.12461,0 -0.12461,0.14866 v 0.27108 q 0,0.15084 0.12461,0.15084 z"
         style="font-style:normal;font-variant:normal;font-weight:normal;font-stretch:normal;font-size:2.18614px;line-height:1.25;font-family:'Bebas Neue';-inkscape-font-specification:'Bebas Neue';letter-spacing:0px;word-spacing:0px;display:inline;fill:#000000;fill-opacity:1;stroke:none;stroke-width:0.0546534"
         id="path1153" />
      <path
         d="m 106.2718,115.79509 q -0.17489,0 -0.26671,-0.0984 -0.0918,-0.10056 -0.0918,-0.28639 v -0.0284 h 0.22736 v 0.0437 q 0,0.15084 0.12461,0.15084 0.0678,0 0.10056,-0.0415 0.0328,-0.0415 0.0328,-0.14647 v -0.29294 h -0.004 q -0.0634,0.13335 -0.21861,0.13335 -0.13117,0 -0.19894,-0.0896 -0.0678,-0.0896 -0.0678,-0.26015 v -0.27326 q 0,-0.18364 0.094,-0.2842 0.094,-0.10056 0.27108,-0.10056 0.17708,0 0.27109,0.10056 0.094,0.10056 0.094,0.2842 v 0.79138 q 0,0.39788 -0.36727,0.39788 z m 0.002,-0.78483 q 0.12461,0 0.12461,-0.15084 v -0.27108 q 0,-0.14866 -0.12461,-0.14866 -0.12461,0 -0.12461,0.14866 v 0.27108 q 0,0.15084 0.12461,0.15084 z"
         style="font-style:normal;font-variant:normal;font-weight:normal;font-stretch:normal;font-size:2.18614px;line-height:1.25;font-family:'Bebas Neue';-inkscape-font-specification:'Bebas Neue';letter-spacing:0px;word-spacing:0px;display:inline;fill:#000000;fill-opacity:1;stroke:none;stroke-width:0.0546534"
         id="path1155" />
      <path
         d="m 107.155,115.79509 q -0.18145,0 -0.27983,-0.0962 -0.0962,-0.0984 -0.0962,-0.28201 v -0.13554 q 0,-0.11368 0.0372,-0.1902 0.0372,-0.0787 0.12023,-0.12242 v -0.004 q -0.0765,-0.0415 -0.11367,-0.11368 -0.035,-0.0743 -0.035,-0.18801 v -0.0634 q 0,-0.18364 0.094,-0.27983 0.0962,-0.0984 0.27327,-0.0984 0.17708,0 0.27108,0.0984 0.0962,0.0962 0.0962,0.27983 v 0.0634 q 0,0.21861 -0.14866,0.30169 v 0.004 q 0.0831,0.0437 0.12024,0.12242 0.0372,0.0765 0.0372,0.1902 v 0.13554 q 0,0.18363 -0.0984,0.28201 -0.0962,0.0962 -0.27764,0.0962 z m 0,-0.92911 q 0.12679,0 0.12679,-0.15303 v -0.12024 q 0,-0.15303 -0.12679,-0.15303 -0.1268,0 -0.1268,0.15303 v 0.12024 q 0,0.15303 0.1268,0.15303 z m 0,0.71049 q 0.13554,0 0.13554,-0.1727 v -0.14647 q 0,-0.17271 -0.13554,-0.17271 -0.13554,0 -0.13554,0.17271 v 0.14647 q 0,0.1727 0.13554,0.1727 z"
         style="font-style:normal;font-variant:normal;font-weight:normal;font-stretch:normal;font-size:2.18614px;line-height:1.25;font-family:'Bebas Neue';-inkscape-font-specification:'Bebas Neue';letter-spacing:0px;word-spacing:0px;display:inline;fill:#000000;fill-opacity:1;stroke:none;stroke-width:0.0546534"
         id="path1157" />
      <path
         d="m 101.62263,125.20858 h 0.48053 q 0.23454,0 0.35182,0.12585 0.11727,0.12586 0.11727,0.36898 v 1.01255 q 0,0.24313 -0.11727,0.36898 -0.11728,0.12586 -0.35182,0.12586 h -0.48053 z m 0.47481,1.71619 q 0.0772,0 0.11727,-0.0458 0.0429,-0.0458 0.0429,-0.14874 v -1.04115 q 0,-0.10297 -0.0429,-0.14874 -0.04,-0.0458 -0.11727,-0.0458 h -0.16018 v 1.43016 z"
         style="font-style:normal;font-variant:normal;font-weight:normal;font-stretch:normal;font-size:2.86031px;line-height:1.25;font-family:'Bebas Neue';-inkscape-font-specification:'Bebas Neue';letter-spacing:0px;word-spacing:0px;display:inline;fill:#000000;fill-opacity:1;stroke:none;stroke-width:0.0715081"
         id="path1160" />
      <path
         d="m 102.78391,125.20858 h 0.85809 v 0.28603 h -0.54346 v 0.52916 h 0.43191 v 0.28603 h -0.43191 v 0.61497 h 0.54346 v 0.28603 h -0.85809 z"
         style="font-style:normal;font-variant:normal;font-weight:normal;font-stretch:normal;font-size:2.86031px;line-height:1.25;font-family:'Bebas Neue';-inkscape-font-specification:'Bebas Neue';letter-spacing:0px;word-spacing:0px;display:inline;fill:#000000;fill-opacity:1;stroke:none;stroke-width:0.0715081"
         id="path1162" />
      <path
         d="m 103.8222,125.20858 h 0.31463 v 1.71619 h 0.51772 v 0.28603 h -0.83235 z"
         style="font-style:normal;font-variant:normal;font-weight:normal;font-stretch:normal;font-size:2.86031px;line-height:1.25;font-family:'Bebas Neue';-inkscape-font-specification:'Bebas Neue';letter-spacing:0px;word-spacing:0px;display:inline;fill:#000000;fill-opacity:1;stroke:none;stroke-width:0.0715081"
         id="path1164" />
      <path
         d="m 104.80614,125.20858 h 0.31464 v 2.00222 h -0.31464 z"
         style="font-style:normal;font-variant:normal;font-weight:normal;font-stretch:normal;font-size:2.86031px;line-height:1.25;font-family:'Bebas Neue';-inkscape-font-specification:'Bebas Neue';letter-spacing:0px;word-spacing:0px;display:inline;fill:#000000;fill-opacity:1;stroke:none;stroke-width:0.0715081"
         id="path1166" />
      <path
         d="m 105.79867,127.2394 q -0.22596,0 -0.3461,-0.12871 -0.11727,-0.12872 -0.11727,-0.36326 v -1.07548 q 0,-0.23455 0.11727,-0.36326 0.12014,-0.12871 0.3461,-0.12871 0.22596,0 0.34324,0.12871 0.12013,0.12871 0.12013,0.36326 v 0.21166 h -0.29747 v -0.23168 q 0,-0.18592 -0.15732,-0.18592 -0.15732,0 -0.15732,0.18592 v 1.11838 q 0,0.18306 0.15732,0.18306 0.15732,0 0.15732,-0.18306 v -0.30605 h 0.29747 v 0.28317 q 0,0.23454 -0.12013,0.36326 -0.11728,0.12871 -0.34324,0.12871 z"
         style="font-style:normal;font-variant:normal;font-weight:normal;font-stretch:normal;font-size:2.86031px;line-height:1.25;font-family:'Bebas Neue';-inkscape-font-specification:'Bebas Neue';letter-spacing:0px;word-spacing:0px;display:inline;fill:#000000;fill-opacity:1;stroke:none;stroke-width:0.0715081"
         id="path1168" />
      <path
         d="m 106.45082,125.20858 h 0.31463 v 2.00222 h -0.31463 z"
         style="font-style:normal;font-variant:normal;font-weight:normal;font-stretch:normal;font-size:2.86031px;line-height:1.25;font-family:'Bebas Neue';-inkscape-font-specification:'Bebas Neue';letter-spacing:0px;word-spacing:0px;display:inline;fill:#000000;fill-opacity:1;stroke:none;stroke-width:0.0715081"
         id="path1170" />
      <path
         d="m 107.45479,127.2394 q -0.23169,0 -0.35468,-0.13158 -0.123,-0.13157 -0.123,-0.37184 v -1.05259 q 0,-0.24027 0.123,-0.37184 0.12299,-0.13157 0.35468,-0.13157 0.23168,0 0.35467,0.13157 0.123,0.13157 0.123,0.37184 v 1.05259 q 0,0.24027 -0.123,0.37184 -0.12299,0.13158 -0.35467,0.13158 z m 0,-0.28603 q 0.16303,0 0.16303,-0.19736 v -1.09264 q 0,-0.19736 -0.16303,-0.19736 -0.16304,0 -0.16304,0.19736 v 1.09264 q 0,0.19736 0.16304,0.19736 z"
         style="font-style:normal;font-variant:normal;font-weight:normal;font-stretch:normal;font-size:2.86031px;line-height:1.25;font-family:'Bebas Neue';-inkscape-font-specification:'Bebas Neue';letter-spacing:0px;word-spacing:0px;display:inline;fill:#000000;fill-opacity:1;stroke:none;stroke-width:0.0715081"
         id="path1172" />
      <path
         d="m 108.60177,127.2394 q -0.22883,0 -0.34896,-0.12871 -0.12013,-0.13158 -0.12013,-0.37471 v -1.5274 h 0.31463 v 1.55029 q 0,0.10297 0.0401,0.14873 0.0429,0.0458 0.12013,0.0458 0.0772,0 0.11727,-0.0458 0.0429,-0.0458 0.0429,-0.14873 v -1.55029 h 0.30319 v 1.5274 q 0,0.24313 -0.12013,0.37471 -0.12014,0.12871 -0.34896,0.12871 z"
         style="font-style:normal;font-variant:normal;font-weight:normal;font-stretch:normal;font-size:2.86031px;line-height:1.25;font-family:'Bebas Neue';-inkscape-font-specification:'Bebas Neue';letter-spacing:0px;word-spacing:0px;display:inline;fill:#000000;fill-opacity:1;stroke:none;stroke-width:0.0715081"
         id="path1174" />
      <path
         d="m 109.70298,127.2394 q -0.22882,0 -0.34609,-0.12871 -0.11728,-0.13158 -0.11728,-0.37471 v -0.11441 h 0.29748 v 0.1373 q 0,0.1945 0.16303,0.1945 0.0801,0 0.12014,-0.0458 0.0429,-0.0486 0.0429,-0.15446 0,-0.12585 -0.0572,-0.22024 -0.0572,-0.0973 -0.21167,-0.23169 -0.1945,-0.17162 -0.27173,-0.30891 -0.0772,-0.14016 -0.0772,-0.31464 0,-0.2374 0.12013,-0.36611 0.12013,-0.13158 0.34896,-0.13158 0.22596,0 0.34037,0.13158 0.11728,0.12871 0.11728,0.37184 v 0.0829 h -0.29748 v -0.10297 q 0,-0.10297 -0.04,-0.14874 -0.0401,-0.0486 -0.11727,-0.0486 -0.15732,0 -0.15732,0.19164 0,0.1087 0.0572,0.20309 0.0601,0.0944 0.21452,0.22882 0.19736,0.17162 0.27173,0.31177 0.0744,0.14016 0.0744,0.32894 0,0.24599 -0.123,0.37756 -0.12013,0.13158 -0.35182,0.13158 z"
         style="font-style:normal;font-variant:normal;font-weight:normal;font-stretch:normal;font-size:2.86031px;line-height:1.25;font-family:'Bebas Neue';-inkscape-font-specification:'Bebas Neue';letter-spacing:0px;word-spacing:0px;display:inline;fill:#000000;fill-opacity:1;stroke:none;stroke-width:0.0715081"
         id="path1176" />
      <path
         d="m 90.232926,130.87465 0.371791,0.0179 -0.114251,2.36589 -0.371779,-0.0179 z"
         style="font-style:normal;font-variant:normal;font-weight:normal;font-stretch:normal;font-size:3.38378px;line-height:1.25;font-family:'Bebas Neue';-inkscape-font-specification:'Bebas Neue';letter-spacing:0.132292px;word-spacing:0px;display:inline;fill:#ffffff;fill-opacity:1;stroke:none;stroke-width:0.0845942"
         id="path1179" />
      <path
         d="m 91.218326,131.24594 -0.3891,-0.005 0.005,-0.33834 1.15037,0.0162 -0.005,0.33834 -0.38909,-0.006 -0.0286,2.03007 -0.37218,-0.005 z"
         style="font-style:normal;font-variant:normal;font-weight:normal;font-stretch:normal;font-size:3.38378px;line-height:1.25;font-family:'Bebas Neue';-inkscape-font-specification:'Bebas Neue';letter-spacing:0.132292px;word-spacing:0px;display:inline;fill:#ffffff;fill-opacity:1;stroke:none;stroke-width:0.0845942"
         id="path1181" />
      <path
         d="m 92.303416,130.91243 0.50379,-0.02 0.479311,2.3515 -0.37192,0.0147 -0.0863,-0.4673 2.64e-4,0.007 -0.42264,0.0168 -0.0493,0.4659 -0.34487,0.0137 z m 0.46849,1.56627 -0.212069,-1.1633 -0.007,2.7e-4 -0.1159,1.1763 z"
         style="font-style:normal;font-variant:normal;font-weight:normal;font-stretch:normal;font-size:3.38378px;line-height:1.25;font-family:'Bebas Neue';-inkscape-font-specification:'Bebas Neue';letter-spacing:0.132292px;word-spacing:0px;display:inline;fill:#ffffff;fill-opacity:1;stroke:none;stroke-width:0.0845942"
         id="path1183" />
      <path
         d="m 93.358217,130.85216 0.370379,-0.0369 0.201271,2.02027 0.609449,-0.0607 0.0336,0.33671 -0.97983,0.0976 z"
         style="font-style:normal;font-variant:normal;font-weight:normal;font-stretch:normal;font-size:3.38378px;line-height:1.25;font-family:'Bebas Neue';-inkscape-font-specification:'Bebas Neue';letter-spacing:0.132292px;word-spacing:0px;display:inline;fill:#ffffff;fill-opacity:1;stroke:none;stroke-width:0.0845942"
         id="path1185" />
      <path
         d="m 94.597866,130.71997 0.36943,-0.0455 0.28936,2.35091 -0.36942,0.0455 z"
         style="font-style:normal;font-variant:normal;font-weight:normal;font-stretch:normal;font-size:3.38378px;line-height:1.25;font-family:'Bebas Neue';-inkscape-font-specification:'Bebas Neue';letter-spacing:0.132292px;word-spacing:0px;display:inline;fill:#ffffff;fill-opacity:1;stroke:none;stroke-width:0.0845942"
         id="path1187" />
      <path
         d="m 95.622526,130.58844 0.49949,-0.0687 0.70484,2.29401 -0.36875,0.0507 -0.13112,-0.45674 9.26e-4,0.007 -0.41902,0.0576 -0.004,0.46847 -0.34193,0.047 z m 0.61801,1.51352 -0.32376,-1.13728 -0.007,9.3e-4 -10e-4,1.182 z"
         style="font-style:normal;font-variant:normal;font-weight:normal;font-stretch:normal;font-size:3.38378px;line-height:1.25;font-family:'Bebas Neue';-inkscape-font-specification:'Bebas Neue';letter-spacing:0.132292px;word-spacing:0px;display:inline;fill:#ffffff;fill-opacity:1;stroke:none;stroke-width:0.0845942"
         id="path1189" />
      <path
         d="m 96.786506,130.425 0.46203,-0.0677 0.56372,1.35036 0.007,-0.001 -0.20548,-1.40283 0.32811,-0.0481 0.34328,2.34363 -0.37833,0.0554 -0.69254,-1.64612 -0.007,9.8e-4 0.2506,1.71086 -0.32811,0.0481 z"
         style="font-style:normal;font-variant:normal;font-weight:normal;font-stretch:normal;font-size:3.38378px;line-height:1.25;font-family:'Bebas Neue';-inkscape-font-specification:'Bebas Neue';letter-spacing:0.132292px;word-spacing:0px;display:inline;fill:#ffffff;fill-opacity:1;stroke:none;stroke-width:0.0845942"
         id="path1191" />
      <path
         d="m 99.026946,130.09519 0.974594,-0.14057 0.0483,0.33491 -0.606194,0.0874 0.0942,0.65308 0.475574,-0.0686 0.0483,0.33492 -0.475584,0.0686 0.14734,1.02148 -0.3684,0.0531 z"
         style="font-style:normal;font-variant:normal;font-weight:normal;font-stretch:normal;font-size:3.38378px;line-height:1.25;font-family:'Bebas Neue';-inkscape-font-specification:'Bebas Neue';letter-spacing:0.132292px;word-spacing:0px;display:inline;fill:#ffffff;fill-opacity:1;stroke:none;stroke-width:0.0845942"
         id="path1193" />
      <path
         d="m 100.51241,129.88407 0.49969,-0.0671 0.69767,2.29621 -0.3689,0.0496 -0.1297,-0.45715 9e-4,0.007 -0.4192,0.0563 -0.005,0.46846 -0.34207,0.046 z m 0.61327,1.51545 -0.3202,-1.13829 -0.007,9e-4 -0.005,1.18199 z"
         style="font-style:normal;font-variant:normal;font-weight:normal;font-stretch:normal;font-size:3.38378px;line-height:1.25;font-family:'Bebas Neue';-inkscape-font-specification:'Bebas Neue';letter-spacing:0.132292px;word-spacing:0px;display:inline;fill:#ffffff;fill-opacity:1;stroke:none;stroke-width:0.0845942"
         id="path1195" />
      <path
         d="m 101.76186,129.71592 0.52809,-0.0579 0.42018,1.65937 0.007,-7.4e-4 0.0507,-1.71099 0.52809,-0.0579 0.25809,2.35455 -0.34981,0.0383 -0.19542,-1.78273 -0.007,7.4e-4 -0.0737,1.81222 -0.30946,0.0339 -0.4645,-1.75322 -0.007,7.4e-4 0.19542,1.78273 -0.32291,0.0354 z"
         style="font-style:normal;font-variant:normal;font-weight:normal;font-stretch:normal;font-size:3.38378px;line-height:1.25;font-family:'Bebas Neue';-inkscape-font-specification:'Bebas Neue';letter-spacing:0.132292px;word-spacing:0px;display:inline;fill:#ffffff;fill-opacity:1;stroke:none;stroke-width:0.0845942"
         id="path1197" />
      <path
         d="m 103.77767,129.50956 0.3711,-0.0287 0.18286,2.36158 -0.37111,0.0287 z"
         style="font-style:normal;font-variant:normal;font-weight:normal;font-stretch:normal;font-size:3.38378px;line-height:1.25;font-family:'Bebas Neue';-inkscape-font-specification:'Bebas Neue';letter-spacing:0.132292px;word-spacing:0px;display:inline;fill:#ffffff;fill-opacity:1;stroke:none;stroke-width:0.0845942"
         id="path1199" />
      <path
         d="m 104.63437,129.44822 0.37184,-0.0167 0.0909,2.02824 0.61185,-0.0274 0.0151,0.33804 -0.98369,0.0441 z"
         style="font-style:normal;font-variant:normal;font-weight:normal;font-stretch:normal;font-size:3.38378px;line-height:1.25;font-family:'Bebas Neue';-inkscape-font-specification:'Bebas Neue';letter-spacing:0.132292px;word-spacing:0px;display:inline;fill:#ffffff;fill-opacity:1;stroke:none;stroke-width:0.0845942"
         id="path1201" />
      <path
         d="m 106.09848,130.77257 -0.42321,-1.36886 0.39583,0.008 0.23663,0.87445 0.007,1.3e-4 0.27083,-0.86447 0.362,0.007 -0.4767,1.35117 -0.0198,1.00817 -0.37215,-0.007 z"
         style="font-style:normal;font-variant:normal;font-weight:normal;font-stretch:normal;font-size:3.38378px;line-height:1.25;font-family:'Bebas Neue';-inkscape-font-specification:'Bebas Neue';letter-spacing:0.132292px;word-spacing:0px;display:inline;fill:#ffffff;fill-opacity:1;stroke:none;stroke-width:0.0845942"
         id="path1203" />
      <path
         d="m 108.10223,129.51365 0.54897,0.0534 q 0.28627,0.0278 0.40452,0.17533 0.11857,0.14412 0.0917,0.42028 l -0.0141,0.14482 q -0.0357,0.3671 -0.28768,0.44119 l -6.6e-4,0.007 q 0.13079,0.0535 0.17256,0.18337 0.0451,0.13018 0.0248,0.33899 l -0.0403,0.41425 q -0.01,0.10104 -0.009,0.16568 8.4e-4,0.0613 0.0219,0.12452 l -0.37721,-0.0367 q -0.0146,-0.0592 -0.0165,-0.11039 -0.002,-0.0512 0.0109,-0.18252 l 0.0419,-0.43109 q 0.0157,-0.16166 -0.0319,-0.23089 -0.0443,-0.0689 -0.17227,-0.0813 l -0.12798,-0.0124 -0.0982,1.01037 -0.37047,-0.036 z m 0.40694,1.05949 q 0.11114,0.0108 0.17059,-0.0412 0.0628,-0.0517 0.0759,-0.1864 l 0.0177,-0.18187 q 0.0124,-0.12798 -0.0291,-0.18981 -0.0382,-0.0615 -0.13589,-0.071 l -0.16839,-0.0164 -0.0655,0.67357 z"
         style="font-style:normal;font-variant:normal;font-weight:normal;font-stretch:normal;font-size:3.38378px;line-height:1.25;font-family:'Bebas Neue';-inkscape-font-specification:'Bebas Neue';letter-spacing:0.132292px;word-spacing:0px;display:inline;fill:#ffffff;fill-opacity:1;stroke:none;stroke-width:0.0845942"
         id="path1205" />
      <path
         d="m 109.64995,129.6734 1.00746,0.12461 -0.0415,0.33582 -0.63806,-0.0789 -0.0768,0.62126 0.50709,0.0627 -0.0415,0.33582 -0.50708,-0.0627 -0.0893,0.72201 0.63806,0.0789 -0.0415,0.33582 -1.00745,-0.1246 z"
         style="font-style:normal;font-variant:normal;font-weight:normal;font-stretch:normal;font-size:3.38378px;line-height:1.25;font-family:'Bebas Neue';-inkscape-font-specification:'Bebas Neue';letter-spacing:0.132292px;word-spacing:0px;display:inline;fill:#ffffff;fill-opacity:1;stroke:none;stroke-width:0.0845942"
         id="path1207" />
      <path
         d="m 111.19289,132.29656 q -0.26814,-0.0372 -0.38464,-0.20708 -0.11603,-0.17324 -0.0765,-0.45813 l 0.0186,-0.13407 0.34857,0.0483 -0.0223,0.16088 q -0.0316,0.22792 0.15943,0.25442 0.0938,0.013 0.14821,-0.0341 0.0582,-0.05 0.0754,-0.17402 0.0205,-0.14747 -0.0312,-0.26738 -0.0512,-0.12325 -0.21036,-0.30589 -0.20002,-0.23271 -0.2682,-0.40615 -0.0677,-0.17678 -0.0394,-0.38124 0.0386,-0.27819 0.20029,-0.40948 0.16215,-0.13466 0.43029,-0.0975 0.26478,0.0367 0.37746,0.2095 0.1165,0.16989 0.077,0.45478 l -0.0135,0.0972 -0.34858,-0.0483 0.0167,-0.12066 q 0.0167,-0.12066 -0.0228,-0.1808 -0.039,-0.0635 -0.12951,-0.076 -0.18435,-0.0256 -0.2155,0.199 -0.0177,0.12736 0.034,0.24726 0.055,0.12037 0.21418,0.30301 0.20337,0.23318 0.26774,0.4095 0.0644,0.17632 0.0337,0.39753 -0.04,0.28825 -0.20549,0.42243 -0.16216,0.13465 -0.43364,0.097 z"
         style="font-style:normal;font-variant:normal;font-weight:normal;font-stretch:normal;font-size:3.38378px;line-height:1.25;font-family:'Bebas Neue';-inkscape-font-specification:'Bebas Neue';letter-spacing:0.132292px;word-spacing:0px;display:inline;fill:#ffffff;fill-opacity:1;stroke:none;stroke-width:0.0845942"
         id="path1209" />
      <path
         d="m 112.67758,130.42355 -0.38505,-0.0562 0.0489,-0.33483 1.13841,0.16623 -0.0489,0.33483 -0.38506,-0.0562 -0.29335,2.00896 -0.3683,-0.0538 z"
         style="font-style:normal;font-variant:normal;font-weight:normal;font-stretch:normal;font-size:3.38378px;line-height:1.25;font-family:'Bebas Neue';-inkscape-font-specification:'Bebas Neue';letter-spacing:0.132292px;word-spacing:0px;display:inline;fill:#ffffff;fill-opacity:1;stroke:none;stroke-width:0.0845942"
         id="path1211" />
      <path
         d="m 113.92833,130.26568 0.49882,0.0734 0.037,2.39957 -0.36826,-0.0542 0.001,-0.47519 -0.001,0.007 -0.41847,-0.0615 -0.13441,0.4488 -0.34147,-0.0502 z m 0.17131,1.62584 0.006,-1.18245 -0.007,-9.8e-4 -0.33105,1.13469 z"
         style="font-style:normal;font-variant:normal;font-weight:normal;font-stretch:normal;font-size:3.38378px;line-height:1.25;font-family:'Bebas Neue';-inkscape-font-specification:'Bebas Neue';letter-spacing:0.132292px;word-spacing:0px;display:inline;fill:#ffffff;fill-opacity:1;stroke:none;stroke-width:0.0845942"
         id="path1213" />
      <path
         d="m 115.29301,132.8913 q -0.26808,-0.0376 -0.38768,-0.20812 -0.11912,-0.17389 -0.0792,-0.45872 l 0.25091,-1.78943 0.3686,0.0517 -0.25466,1.81624 q -0.0169,0.12063 0.0225,0.18083 0.0427,0.0607 0.13321,0.0734 0.0905,0.0127 0.14492,-0.0344 0.0578,-0.0466 0.0747,-0.16721 l 0.25468,-1.81623 0.35519,0.0498 -0.25091,1.78943 q -0.0399,0.28483 -0.2023,0.41924 -0.16188,0.13106 -0.42997,0.0935 z"
         style="font-style:normal;font-variant:normal;font-weight:normal;font-stretch:normal;font-size:3.38378px;line-height:1.25;font-family:'Bebas Neue';-inkscape-font-specification:'Bebas Neue';letter-spacing:0.132292px;word-spacing:0px;display:inline;fill:#ffffff;fill-opacity:1;stroke:none;stroke-width:0.0845942"
         id="path1215" />
      <path
         d="m 116.52406,130.63715 0.54751,0.0667 q 0.28551,0.0348 0.40015,0.18508 0.11504,0.14696 0.0815,0.42239 l -0.0176,0.14444 q -0.0446,0.36612 -0.2983,0.43408 l -8e-4,0.007 q 0.12945,0.0567 0.16806,0.18749 0.042,0.13124 0.0166,0.3395 l -0.0503,0.41315 q -0.0123,0.10077 -0.0133,0.16541 -5.3e-4,0.0613 0.0189,0.12501 l -0.37619,-0.0458 q -0.0132,-0.0596 -0.0138,-0.11076 -5.3e-4,-0.0512 0.0154,-0.1822 l 0.0524,-0.42995 q 0.0196,-0.16122 -0.0263,-0.23159 -0.0426,-0.07 -0.17025,-0.0855 l -0.12764,-0.0156 -0.12273,1.00769 -0.36949,-0.045 z m 0.38111,1.06905 q 0.11085,0.0135 0.17155,-0.0371 0.064,-0.0502 0.0804,-0.18451 l 0.0221,-0.18138 q 0.0155,-0.12764 -0.0245,-0.19047 -0.0367,-0.0624 -0.13412,-0.0743 l -0.16796,-0.0205 -0.0818,0.67179 z"
         style="font-style:normal;font-variant:normal;font-weight:normal;font-stretch:normal;font-size:3.38378px;line-height:1.25;font-family:'Bebas Neue';-inkscape-font-specification:'Bebas Neue';letter-spacing:0.132292px;word-spacing:0px;display:inline;fill:#ffffff;fill-opacity:1;stroke:none;stroke-width:0.0845942"
         id="path1217" />
      <path
         d="m 118.20692,130.82982 0.50246,0.0417 0.18857,2.39243 -0.37094,-0.0308 -0.0285,-0.47433 -5.3e-4,0.007 -0.42153,-0.035 -0.10578,0.4564 -0.34396,-0.0285 z m 0.27372,1.61177 -0.0684,-1.18049 -0.007,-5.6e-4 -0.25868,1.15335 z"
         style="font-style:normal;font-variant:normal;font-weight:normal;font-stretch:normal;font-size:3.38378px;line-height:1.25;font-family:'Bebas Neue';-inkscape-font-specification:'Bebas Neue';letter-spacing:0.132292px;word-spacing:0px;display:inline;fill:#ffffff;fill-opacity:1;stroke:none;stroke-width:0.0845942"
         id="path1219" />
      <path
         d="m 119.22841,130.90876 0.46694,0.004 0.35049,1.42071 0.007,6e-5 0.0116,-1.41776 0.3316,0.003 -0.0193,2.36856 -0.38235,-0.003 -0.43254,-1.73269 -0.007,-6e-5 -0.0141,1.72905 -0.3316,-0.003 z"
         style="font-style:normal;font-variant:normal;font-weight:normal;font-stretch:normal;font-size:3.38378px;line-height:1.25;font-family:'Bebas Neue';-inkscape-font-specification:'Bebas Neue';letter-spacing:0.132292px;word-spacing:0px;display:inline;fill:#ffffff;fill-opacity:1;stroke:none;stroke-width:0.0845942"
         id="path1221" />
      <path
         d="m 120.9997,131.2378 -0.38884,0.0152 -0.0132,-0.33812 1.1496,-0.0449 0.0132,0.33812 -0.38884,0.0152 0.0793,2.02872 -0.37193,0.0145 z"
         style="font-style:normal;font-variant:normal;font-weight:normal;font-stretch:normal;font-size:3.38378px;line-height:1.25;font-family:'Bebas Neue';-inkscape-font-specification:'Bebas Neue';letter-spacing:0.132292px;word-spacing:0px;display:inline;fill:#ffffff;fill-opacity:1;stroke:none;stroke-width:0.0845942"
         id="path1223" />
      <path
         style="display:inline;fill:none;stroke:none;stroke-width:0.232024px;stroke-linecap:butt;stroke-linejoin:miter;stroke-opacity:1"
         d="m 90.053666,122.45328 c 0,0 9.47665,-2.9426 15.842634,-2.9426 6.36598,0 15.84262,3.70198 15.84262,3.70198"
         id="path925" />
      <path
         d="m 96.361756,121.459 q 0.0825,-0.022 0.14714,0.0423 0.071,0.0626 0.1065,0.19581 0.0659,0.24738 -0.0158,0.42538 -0.20648,0.44901 -0.46323,0.73478 -0.25844,0.27943 -0.68344,0.39263 -0.41231,0.10982 -0.76323,-0.0345 -0.344581,-0.14598 -0.748271,-0.61588 -0.32422,-0.37559 -0.4988,-0.54647 -0.17628,-0.17722 -0.32046,-0.23393 -0.13783,-0.0584 -0.31416,-0.0318 0.0101,0.13997 0.0771,0.87617 0.0337,0.33068 0.0396,0.40383 0.0396,0.40383 -0.0949,0.66385 -0.136229,0.25367 -0.52317,0.35673 -0.42499,0.1132 -0.82073,-0.0463 -0.39109,-0.16756 -0.68697,-0.56428 -0.29757,-0.40306 -0.44963,-0.97395 -0.28385,-1.06566 -0.12207,-1.93753 0.16812,-0.87355 0.72603,-1.45693 0.56256,-0.5914 1.43792,-0.82456 0.608951,-0.1622 1.07026,-0.0881 0.4613,0.0741 0.74411,0.34526 0.28915,0.26944 0.39728,0.6754 0.0946,0.35522 0.0146,0.74337 -0.0754,0.38012 -0.342291,0.72974 -0.266919,0.34962 -0.715219,0.60489 0.32644,0.001 0.54036,0.14139 0.213929,0.14003 0.473469,0.45132 0.27898,0.33328 0.497561,0.46527 0.224909,0.13031 0.453269,0.0695 0.20298,-0.0541 0.35145,-0.23627 0.14679,-0.18855 0.33803,-0.59274 0.0525,-0.10908 0.14761,-0.13442 z m -4.430769,0.55519 q -0.215671,0.0575 -0.325161,-0.0221 -0.10315,-0.0812 -0.13694,-0.20809 -0.0406,-0.15223 0.0309,-0.26638 0.0778,-0.11584 0.204701,-0.14963 l 0.158579,-0.0422 q -0.0641,-0.64867 -0.0952,-1.12269 -0.0274,-0.43428 0.42301,-0.55424 0.36156,-0.0963 0.44773,0.2272 0.0186,0.0698 0.0224,0.10953 l 0.0902,1.10366 q 0.33747,-0.11027 0.57771,-0.3305 0.24658,-0.22193 0.34224,-0.52593 0.10199,-0.30569 0.0141,-0.63554 -0.106439,-0.39962 -0.440019,-0.55532 -0.333591,-0.15571 -0.860071,-0.0155 -0.621639,0.16558 -1.008249,0.60142 -0.381951,0.42781 -0.47983,1.10604 -0.0996,0.67187 0.131909,1.5409 0.108131,0.40596 0.26832,0.67579 0.16018,0.26982 0.31956,0.38361 0.15938,0.11379 0.267221,0.0851 0.0825,-0.022 0.111239,-0.11794 0.0351,-0.0977 0.0178,-0.29007 z"
         style="font-style:normal;font-variant:normal;font-weight:normal;font-stretch:normal;font-size:6.56438px;line-height:1.25;font-family:Pacifico;-inkscape-font-specification:Pacifico;letter-spacing:0px;word-spacing:0px;display:inline;fill:#000000;fill-opacity:1;stroke:none;stroke-width:0.16411"
         id="path969" />
      <path
         d="m 98.850456,120.9887 q 0.0834,-0.0181 0.14502,0.0491 0.068,0.0658 0.0973,0.20055 0.0557,0.25659 -0.0355,0.42419 -0.17466,0.34021 -0.55793,0.67871 -0.37686,0.3371 -0.8708,0.44437 -0.67356,0.14628 -1.12503,-0.13857 -0.45147,-0.28484 -0.58939,-0.91991 -0.0961,-0.44263 0.008,-0.8615 0.10245,-0.42529 0.38084,-0.72086 0.28482,-0.29697 0.70178,-0.38752 0.37206,-0.0808 0.64534,0.095 0.27189,0.16935 0.35408,0.54782 0.0961,0.44263 -0.15496,0.83303 -0.24606,0.38259 -0.96262,0.73301 0.22446,0.26025 0.6735,0.16273 0.28867,-0.0627 0.61113,-0.34096 0.32748,-0.28607 0.52585,-0.67174 0.0575,-0.10652 0.1537,-0.12742 z m -1.81854,-0.57908 q -0.23735,0.0515 -0.34424,0.3636 -0.10046,0.31067 -0.0155,0.70197 l 0.003,0.0128 q 0.35898,-0.172 0.53807,-0.39898 0.1791,-0.22698 0.12756,-0.46433 -0.0265,-0.12188 -0.11236,-0.17712 -0.0809,-0.0631 -0.19633,-0.038 z"
         style="font-style:normal;font-variant:normal;font-weight:normal;font-stretch:normal;font-size:6.56438px;line-height:1.25;font-family:Pacifico;-inkscape-font-specification:Pacifico;letter-spacing:0px;word-spacing:0px;display:inline;fill:#000000;fill-opacity:1;stroke:none;stroke-width:0.16411"
         id="path971" />
      <path
         d="m 101.4462,120.54236 q 0.084,-0.0151 0.14316,0.0543 0.0656,0.0682 0.09,0.20391 0.0465,0.25843 -0.0507,0.42264 -0.21624,0.39238 -0.50624,0.67129 -0.29,0.27891 -0.71641,0.35559 -1.318004,0.23698 -1.651414,-1.61726 -0.0511,-0.28427 -0.084,-0.57849 l -0.25197,0.0453 q -0.19382,0.0349 -0.27767,-0.0234 -0.0774,-0.0594 -0.10526,-0.21451 -0.0651,-0.36181 0.22568,-0.41408 l 0.36826,-0.0662 q -0.018,-0.73043 0.10246,-1.35902 0.12041,-0.62859 0.37426,-1.0344 0.2603,-0.40696 0.62857,-0.47318 0.271354,-0.0488 0.469394,0.16238 0.19804,0.21116 0.2631,0.57297 0.18006,1.00142 -0.526244,1.89542 l 0.723604,-0.1301 q 0.10337,-0.0186 0.15673,0.0185 0.0534,0.0371 0.0754,0.15984 0.0802,0.4458 -0.64991,0.57707 l -0.788214,0.14173 q 0.0452,0.32536 0.0777,0.50626 0.12081,0.67192 0.32466,0.91539 0.210324,0.24231 0.552744,0.18074 0.27781,-0.05 0.46081,-0.25627 0.183,-0.20631 0.41333,-0.59455 0.0613,-0.10439 0.15817,-0.12182 z m -1.774214,-3.37597 q -0.0969,0.0174 -0.17552,0.28501 -0.0733,0.25996 -0.10531,0.71258 -0.0267,0.445 -0.004,0.9811 0.32193,-0.39804 0.436111,-0.83876 0.119469,-0.44834 0.0591,-0.7843 -0.0685,-0.38118 -0.210681,-0.35563 z"
         style="font-style:normal;font-variant:normal;font-weight:normal;font-stretch:normal;font-size:6.56438px;line-height:1.25;font-family:Pacifico;-inkscape-font-specification:Pacifico;letter-spacing:0px;word-spacing:0px;display:inline;fill:#000000;fill-opacity:1;stroke:none;stroke-width:0.16411"
         id="path973" />
      <path
         d="m 101.83108,122.02335 q -0.2475,0.0311 -0.38445,-0.21632 -0.13044,-0.24824 -0.20249,-0.8214 -0.10642,-0.84671 0.0388,-1.63903 0.0349,-0.19625 0.1545,-0.29729 0.12532,-0.10838 0.3663,-0.13867 0.13026,-0.0164 0.18646,0.01 0.0562,0.026 0.0677,0.1172 0.0131,0.10421 -0.0387,0.48123 -0.0324,0.26871 -0.0469,0.46901 -0.0145,0.20031 -0.005,0.49016 0.14453,-0.58714 0.36736,-0.97242 0.22283,-0.38527 0.45802,-0.567 0.24169,-0.18255 0.45663,-0.20956 0.42335,-0.0532 0.47656,0.37014 0.0106,0.0847 -0.007,0.41769 -0.0194,0.26708 -0.0112,0.33221 0.0286,0.22796 0.19148,0.20749 0.18237,-0.0229 0.43292,-0.34552 0.074,-0.0953 0.16522,-0.10677 0.0847,-0.0106 0.14008,0.0618 0.0611,0.0651 0.0767,0.18884 0.0303,0.24099 -0.0828,0.39414 -0.15863,0.2118 -0.38894,0.37968 -0.22461,0.16056 -0.49816,0.19494 -0.3452,0.0434 -0.54967,-0.10954 -0.19796,-0.15375 -0.23562,-0.45336 -0.0123,-0.0977 -0.005,-0.19785 -0.003,-0.1319 -0.009,-0.17749 -0.0131,-0.10421 -0.0847,-0.0952 -0.0977,0.0123 -0.23269,0.25419 -0.1293,0.23458 -0.24059,0.61245 -0.11129,0.37787 -0.15905,0.78745 -0.0332,0.31513 -0.11694,0.43813 -0.0781,0.11567 -0.28,0.14105 z"
         style="font-style:normal;font-variant:normal;font-weight:normal;font-stretch:normal;font-size:6.56438px;line-height:1.25;font-family:Pacifico;-inkscape-font-specification:Pacifico;letter-spacing:0px;word-spacing:0px;display:inline;fill:#000000;fill-opacity:1;stroke:none;stroke-width:0.16411"
         id="path975" />
      <path
         d="m 107.60811,119.55481 q 0.0853,-0.003 0.13419,0.0807 0.0489,0.0837 0.0535,0.21489 0.011,0.3149 -0.17719,0.38059 -0.38881,0.15152 -0.86047,0.1877 -0.10539,0.55543 -0.46108,0.90284 -0.35592,0.34085 -0.82171,0.35712 -0.39362,0.0138 -0.68237,-0.16664 -0.28218,-0.18063 -0.43751,-0.49048 -0.15533,-0.30986 -0.16816,-0.67724 -0.0174,-0.49859 0.15931,-0.8923 0.1765,-0.40026 0.50351,-0.62845 0.32679,-0.23474 0.73353,-0.24895 0.49859,-0.0174 0.81252,0.31974 0.32025,0.33037 0.39038,0.83369 0.30765,-0.0305 0.73018,-0.15688 0.052,-0.0149 0.0914,-0.0163 z m -2.10459,1.42661 q 0.20993,-0.007 0.35486,-0.18317 0.15149,-0.17607 0.19274,-0.49937 -0.20818,-0.13066 -0.3275,-0.34982 -0.11276,-0.21938 -0.12147,-0.46868 -0.004,-0.10496 0.0123,-0.21062 l -0.0328,10e-4 q -0.26242,0.009 -0.43061,0.27122 -0.16186,0.25525 -0.14582,0.71447 0.0126,0.36083 0.15702,0.54626 0.15098,0.18521 0.34123,0.17857 z"
         style="font-style:normal;font-variant:normal;font-weight:normal;font-stretch:normal;font-size:6.56438px;line-height:1.25;font-family:Pacifico;-inkscape-font-specification:Pacifico;letter-spacing:0px;word-spacing:0px;display:inline;fill:#000000;fill-opacity:1;stroke:none;stroke-width:0.16411"
         id="path977" />
      <path
         d="m 110.77872,120.51197 q 0.0849,0.008 0.12221,0.0979 0.0445,0.0836 0.0321,0.20769 -0.0149,0.15024 -0.0691,0.23062 -0.0542,0.0804 -0.15863,0.13597 -0.5994,0.32308 -0.87885,0.48004 l -0.44596,0.23937 q -0.3825,1.32752 -0.86405,2.05811 -0.47566,0.73776 -1.09623,0.67614 -0.33314,-0.0331 -0.52141,-0.26288 -0.18893,-0.22325 -0.15584,-0.5564 0.0461,-0.46379 0.46505,-0.96311 0.41835,-0.49278 1.50152,-1.17022 l 0.0645,-0.25086 q -0.12857,0.16534 -0.3212,0.24516 -0.18545,0.0739 -0.36182,0.0564 -0.405,-0.0402 -0.6175,-0.35817 -0.21251,-0.31796 -0.16515,-0.79481 0.0519,-0.52258 0.33965,-0.96237 0.2884,-0.44632 0.71476,-0.68763 0.43354,-0.2472 0.88426,-0.20244 0.14371,0.0143 0.1836,0.0776 0.0471,0.0574 0.0655,0.2044 0.12671,-0.0138 0.29001,0.002 0.16331,0.0162 0.22344,0.075 0.0673,0.0529 0.053,0.19657 -0.008,0.0784 -0.0189,0.12346 -0.0462,0.19991 -0.26515,1.00935 -0.0417,0.15418 -0.0932,0.34037 -0.0443,0.18031 -0.0977,0.38609 0.54191,-0.34198 1.03554,-0.59641 0.0901,-0.0438 0.15542,-0.0373 z m -2.38697,0.58754 q 0.15024,0.0149 0.30558,-0.15436 0.15534,-0.16928 0.24786,-0.50312 l 0.31996,-1.09626 q -0.26847,-0.0201 -0.51721,0.15973 -0.24809,0.17327 -0.4177,0.48626 -0.16961,0.31299 -0.20594,0.67879 -0.0201,0.2025 0.0486,0.30827 0.0752,0.10642 0.2189,0.12069 z m -0.83669,2.9118 q 0.16331,0.0162 0.40473,-0.35561 0.24795,-0.37118 0.52237,-1.20809 -0.5458,0.38118 -0.80228,0.70533 -0.25647,0.32416 -0.28242,0.58545 -0.011,0.11105 0.021,0.18679 0.0386,0.0764 0.13657,0.0861 z"
         style="font-style:normal;font-variant:normal;font-weight:normal;font-stretch:normal;font-size:6.56438px;line-height:1.25;font-family:Pacifico;-inkscape-font-specification:Pacifico;letter-spacing:0px;word-spacing:0px;display:inline;fill:#000000;fill-opacity:1;stroke:none;stroke-width:0.16411"
         id="path979" />
      <path
         d="m 110.99588,122.13334 q -0.29005,-0.0559 -0.42602,-0.35625 -0.12827,-0.30552 -0.0512,-0.70515 0.0932,-0.48342 0.23474,-0.87062 0.14275,-0.39365 0.37801,-0.81626 0.10174,-0.18094 0.23392,-0.24236 0.13218,-0.0614 0.38356,-0.013 0.1418,0.0273 0.18467,0.0824 0.0493,0.0563 0.0319,0.14655 -0.01,0.0516 -0.13802,0.33439 -0.11044,0.22606 -0.18641,0.41197 -0.25941,0.65194 -0.30291,0.87753 -0.0261,0.13536 -0.005,0.19959 0.0223,0.0578 0.0932,0.0714 0.0967,0.0186 0.27577,-0.14739 0.18554,-0.16478 0.4225,-0.52689 0.2434,-0.36087 0.50871,-0.9047 0.0889,-0.18343 0.20814,-0.24734 0.12573,-0.0627 0.33844,-0.0216 0.14825,0.0286 0.1988,0.0785 0.0518,0.0434 0.0332,0.1401 -0.0311,0.16114 -0.33142,0.85198 -0.33957,0.79024 -0.37685,0.98361 -0.0236,0.12247 0.0143,0.20332 0.0391,0.0744 0.12292,0.0906 0.12892,0.0249 0.33278,-0.0963 0.21155,-0.12634 0.57641,-0.42368 0.0948,-0.0753 0.19143,-0.0567 0.0838,0.0162 0.114,0.1022 0.0367,0.0873 0.0106,0.22265 -0.0497,0.25783 -0.19953,0.37602 -0.34303,0.28818 -0.70757,0.44518 -0.3581,0.15825 -0.76417,0.0799 -0.30939,-0.0597 -0.41166,-0.32673 -0.0958,-0.26583 -0.0125,-0.69769 -0.19409,0.41717 -0.45923,0.6134 -0.2639,0.18979 -0.51528,0.14132 z"
         style="font-style:normal;font-variant:normal;font-weight:normal;font-stretch:normal;font-size:6.56438px;line-height:1.25;font-family:Pacifico;-inkscape-font-specification:Pacifico;letter-spacing:0px;word-spacing:0px;display:inline;fill:#000000;fill-opacity:1;stroke:none;stroke-width:0.16411"
         id="path981" />
      <path
         d="m 114.45817,123.04819 q -0.33091,-0.0838 -0.47043,-0.2816 -0.13315,-0.19622 -0.0848,-0.38713 0.0419,-0.16545 0.1934,-0.25575 0.15151,-0.0903 0.38697,-0.0307 0.0827,0.0209 0.18607,0.0674 0.11133,0.0417 0.16699,0.0626 0.0355,-0.16707 0.003,-0.33115 -0.0266,-0.16248 -0.0946,-0.32189 -0.0664,-0.16577 -0.1297,-0.29015 -0.29232,0.32552 -0.55241,0.52377 -0.25374,0.19985 -0.53921,0.36459 -0.14354,0.0855 -0.27082,0.0533 -0.10182,-0.0258 -0.14773,-0.11189 -0.0443,-0.0925 -0.0169,-0.20065 0.0322,-0.12728 0.14869,-0.21291 l 0.1085,-0.0809 q 0.45955,-0.34412 0.70861,-0.57902 0.1549,-0.15716 0.37859,-0.42556 0.2253,-0.27477 0.44906,-0.57024 0.19179,-0.24939 0.57361,-0.15274 0.17818,0.0451 0.24013,0.0946 0.0619,0.0495 0.0442,0.11954 -0.01,0.0382 -0.0561,0.11447 -0.0464,0.0763 -0.11188,0.14773 -0.17254,0.2001 -0.21281,0.35919 -0.0242,0.0955 0.0105,0.22611 0.041,0.13226 0.13751,0.33952 0.13598,0.31882 0.18947,0.53551 0.0615,0.21193 0.005,0.43466 -0.0161,0.0636 -0.0578,0.17496 0.34243,-0.042 0.89453,-0.45748 0.0989,-0.0698 0.19437,-0.0456 0.0827,0.0209 0.10794,0.10859 0.0316,0.0893 -0.002,0.22288 -0.0612,0.24182 -0.22079,0.36394 -0.41806,0.314 -0.74784,0.38626 -0.3218,0.0675 -0.75139,-0.0277 -0.30931,0.15193 -0.65932,0.0633 z"
         style="font-style:normal;font-variant:normal;font-weight:normal;font-stretch:normal;font-size:6.56438px;line-height:1.25;font-family:Pacifico;-inkscape-font-specification:Pacifico;letter-spacing:0px;word-spacing:0px;display:inline;fill:#000000;fill-opacity:1;stroke:none;stroke-width:0.16411"
         id="path983" />
      <path
         d="m 119.26013,122.71228 q 0.0818,0.0243 0.10348,0.11284 0.028,0.0905 -0.0112,0.22262 -0.0746,0.25174 -0.23526,0.35475 -0.36952,0.25333 -0.75394,0.37215 -0.38441,0.11882 -0.79979,-0.004 -1.2839,-0.38065 -0.74838,-2.18691 0.0821,-0.27692 0.18495,-0.55453 l -0.24545,-0.0728 q -0.18881,-0.056 -0.23751,-0.14574 -0.0424,-0.0879 0.002,-0.23893 0.10449,-0.35244 0.3877,-0.26848 l 0.35874,0.10636 q 0.31224,-0.66058 0.70231,-1.16799 0.39007,-0.50741 0.79922,-0.75583 0.41544,-0.24656 0.77418,-0.14021 0.26433,0.0784 0.34633,0.35602 0.082,0.27764 -0.0225,0.63008 -0.28922,0.97551 -1.32196,1.45671 l 0.70488,0.20898 q 0.1007,0.0298 0.13169,0.087 0.031,0.0571 -0.004,0.1767 -0.12874,0.43425 -0.83992,0.22341 l -0.7678,-0.22764 q -0.10588,0.31094 -0.15813,0.48716 -0.19405,0.65454 -0.12138,0.96365 0.079,0.31098 0.41254,0.40988 0.27062,0.0802 0.52682,-0.0218 0.25621,-0.10206 0.63645,-0.34536 0.10164,-0.0657 0.19605,-0.0377 z m -0.0677,-3.81319 q -0.0944,-0.028 -0.28489,0.17572 -0.18233,0.19927 -0.41433,0.58922 -0.22385,0.38553 -0.44421,0.87478 0.46648,-0.21088 0.76655,-0.55327 0.30821,-0.34681 0.40524,-0.67408 0.1101,-0.37132 -0.0284,-0.41237 z"
         style="font-style:normal;font-variant:normal;font-weight:normal;font-stretch:normal;font-size:6.56438px;line-height:1.25;font-family:Pacifico;-inkscape-font-specification:Pacifico;letter-spacing:0px;word-spacing:0px;display:inline;fill:#000000;fill-opacity:1;stroke:none;stroke-width:0.16411"
         id="path985" />
      <path
         d="m 119.55322,124.41067 q -0.36713,-0.12334 -0.56785,-0.39161 -0.1924,-0.27239 -0.22272,-0.61498 -0.0303,-0.34258 0.0847,-0.68482 0.15889,-0.47292 0.45647,-0.78151 0.30589,-0.31273 0.67978,-0.41563 0.376,-0.10912 0.75556,0.0184 0.36714,0.12335 0.56577,0.39783 0.20072,0.26827 0.23104,0.61085 0.0303,0.34259 -0.0847,0.68483 -0.15889,0.47291 -0.46478,0.78564 -0.30381,0.3065 -0.68602,0.41354 -0.37389,0.1029 -0.74725,-0.0225 z m 0.29424,-0.64904 q 0.21157,0.0711 0.43204,-0.11106 0.2267,-0.18006 0.37513,-0.62186 0.11499,-0.34225 0.0491,-0.55829 -0.0659,-0.21604 -0.24016,-0.27458 -0.22401,-0.0753 -0.45071,0.10479 -0.21838,0.17593 -0.3689,0.62395 -0.11917,0.35469 -0.0512,0.56451 0.068,0.20982 0.25468,0.27254 z"
         style="font-style:normal;font-variant:normal;font-weight:normal;font-stretch:normal;font-size:6.56438px;line-height:1.25;font-family:Pacifico;-inkscape-font-specification:Pacifico;letter-spacing:0px;word-spacing:0px;display:inline;fill:#000000;fill-opacity:1;stroke:none;stroke-width:0.16411"
         id="path987" />
      <path
         style="display:inline;opacity:0.5;fill:none;stroke:none;stroke-width:0.400767px;stroke-linecap:butt;stroke-linejoin:miter;stroke-opacity:1"
         d="m 87.229496,131.48016 c -0.0734,1.6096 1.543621,1.80196 4.85087,1.80196 3.30724,0 9.854124,-1.50171 13.819834,-1.50171 3.96571,0 10.51259,1.50171 13.81983,1.50171 3.30725,0 4.92426,-0.19236 4.85087,-1.80196 l -4.8508,-1.83606 -13.81983,-1.50172 -13.819834,1.50172 z"
         id="path1042" />
      <g
         id="g1053"
         transform="translate(-134.7553,40.127209)"
         style="display:inline">
        <path
           id="path1047"
           style="fill:#000000;stroke:none;stroke-width:0.0737593;stroke-linecap:round;stroke-linejoin:round;stroke-miterlimit:4;stroke-dasharray:none;stroke-opacity:1;paint-order:stroke fill markers"
           d="m 238.29907,75.38696 -0.31722,-0.167603 -0.3179,0.166297 0.0614,-0.353481 -0.2564,-0.250954 0.35515,-0.05086 0.15944,-0.321394 0.15812,0.322048 0.35493,0.05232 -0.25743,0.249897 z" />
        <path
           id="path1049"
           style="fill:#000000;stroke:none;stroke-width:0.0737593;stroke-linecap:round;stroke-linejoin:round;stroke-miterlimit:4;stroke-dasharray:none;stroke-opacity:1;paint-order:stroke fill markers"
           d="m 243.64446,75.38696 -0.31721,-0.167603 -0.3179,0.166297 0.0614,-0.353481 -0.25639,-0.250954 0.35515,-0.05086 0.15944,-0.321394 0.15811,0.322048 0.35494,0.05232 -0.25743,0.249897 z" />
      </g>
    </g>
  </g>
</svg>
