<?xml version="1.0" encoding="UTF-8" standalone="no"?>
<svg
   xmlns:dc="http://purl.org/dc/elements/1.1/"
   xmlns:cc="http://creativecommons.org/ns#"
   xmlns:rdf="http://www.w3.org/1999/02/22-rdf-syntax-ns#"
   xmlns:svg="http://www.w3.org/2000/svg"
   xmlns="http://www.w3.org/2000/svg"
   width="500"
   height="500"
   viewBox="0 0 132.29166 132.29167"
   version="1.1"
   id="svg8">
  <defs
     id="defs2">
    <clipPath
       clipPathUnits="userSpaceOnUse"
       id="clipEmfPath1">
      <path
         d="M 0,0 H 170.44409 V 113.97795 H 0 Z"
         id="path837" />
    </clipPath>
    <pattern
       id="EMFhbasepattern"
       patternUnits="userSpaceOnUse"
       width="6"
       height="6"
       x="0"
       y="0" />
    <clipPath
       clipPathUnits="userSpaceOnUse"
       id="clipEmfPath1-5">
      <path
         d="M 0,0 H 123.38898 V 172.53543 H 0 Z"
         id="path894" />
    </clipPath>
    <pattern
       id="EMFhbasepattern-9"
       patternUnits="userSpaceOnUse"
       width="6"
       height="6"
       x="0"
       y="0" />
    <clipPath
       clipPathUnits="userSpaceOnUse"
       id="clipEmfPath1-3">
      <path
         d="M 0,0 H 162.07874 V 107.70394 H 0 Z"
         id="path980" />
    </clipPath>
    <pattern
       id="EMFhbasepattern-4"
       patternUnits="userSpaceOnUse"
       width="6"
       height="6"
       x="0"
       y="0" />
  </defs>
  <metadata
     id="metadata5">
    <rdf:RDF>
      <cc:Work
         rdf:about="">
        <dc:format>image/svg+xml</dc:format>
        <dc:type
           rdf:resource="http://purl.org/dc/dcmitype/StillImage" />
        <dc:title></dc:title>
      </cc:Work>
    </rdf:RDF>
  </metadata>
  <g
     id="layer1">
    <g
       id="layer1-9"
       transform="translate(110.83247,-16.016727)">
      <g
         id="g1136"
         transform="matrix(1.1653035,0,0,1.1653035,-121.31875,42.315005)">
        <path
           d="m 23.600521,44.511503 q 0,1.989958 -1.437192,3.135692 -1.427142,1.145733 -3.979916,1.145733 -2.351769,0 -4.160822,-0.884426 v -2.894484 q 1.487444,0.663319 2.512574,0.934677 1.03518,0.271358 1.889455,0.271358 1.02513,0 1.567845,-0.391961 0.552767,-0.391962 0.552767,-1.165834 0,-0.432163 -0.241208,-0.763823 -0.241207,-0.34171 -0.71357,-0.653269 -0.462314,-0.311559 -1.899506,-0.994979 -1.346739,-0.633168 -2.020109,-1.216085 -0.673369,-0.582917 -1.075381,-1.35679 -0.402012,-0.773872 -0.402012,-1.809053 0,-1.949756 1.316589,-3.065339 1.326638,-1.115582 3.658306,-1.115582 1.145734,0 2.180914,0.271357 1.04523,0.271358 2.180914,0.763823 l -1.00503,2.42212 q -1.175884,-0.482414 -1.949757,-0.673369 -0.763822,-0.190956 -1.507544,-0.190956 -0.884425,0 -1.356789,0.412062 -0.472364,0.412062 -0.472364,1.075382 0,0.412062 0.190956,0.723621 0.190955,0.301508 0.603017,0.592967 0.422113,0.281408 1.979908,1.02513 2.06031,0.984929 2.824132,1.979908 0.763823,0.984928 0.763823,2.42212 z"
           style="font-style:normal;font-variant:normal;font-weight:bold;font-stretch:normal;font-size:20.583px;line-height:1.25;font-family:'Open Sans';-inkscape-font-specification:'Open Sans Bold';letter-spacing:0px;word-spacing:0px;fill:#000000;fill-opacity:1;stroke:none;stroke-width:0.514577"
           id="path881" />
        <path
           id="path883"
           style="font-style:normal;font-variant:normal;font-weight:bold;font-stretch:normal;font-size:20.583px;line-height:1.25;font-family:'Open Sans';-inkscape-font-specification:'Open Sans Bold';letter-spacing:0px;word-spacing:0px;fill:#000000;fill-opacity:1;stroke:none;stroke-width:0.514578"
           d="m 29.600704,33.83795 -5.185731,14.753622 h 3.356386 l 1.065567,-3.497461 h 5.35678 l 1.065567,3.497461 h 7.929232 c -2.846347,-2.379922 -7.756871,-6.9097 -7.813992,-9.897071 -0.05616,-2.936684 1.684668,-4.353009 3.754808,-4.832781 z m 12.707752,0.03152 c 1.851721,0.556464 2.867525,2.046388 2.867525,2.046388 0,0 1.000983,-1.465432 2.82515,-2.031918 z m 9.044409,0.02273 c 2.012323,0.508693 3.679558,1.927394 3.624585,4.802291 -0.05713,2.987371 -4.967647,7.517149 -7.813993,9.89707 h 6.678661 8.462534 v -2.572454 h -5.34696 v -3.789431 h 4.974889 v -2.55229 h -4.974889 v -3.22616 h 5.34696 v -2.552814 h -8.462534 z m -19.832382,2.227255 c 0.0536,0.241207 0.140362,0.569539 0.260967,0.984951 0.127301,0.415411 0.683702,2.207741 1.668632,5.376934 h -3.829225 c 1.045231,-3.383598 1.678519,-5.50426 1.899626,-6.361885 z" />
        <path
           d="m 79.681156,48.591922 h -3.547753 l -1.989959,-7.718625 q -0.110553,-0.412062 -0.381911,-1.698499 -0.261307,-1.296488 -0.301508,-1.738701 -0.0603,0.542716 -0.301509,1.748751 -0.241207,1.195985 -0.371861,1.70855 l -1.979908,7.698524 H 67.269044 L 63.520285,33.898394 h 3.065339 l 1.879405,8.020134 q 0.492464,2.221114 0.713571,3.849262 0.0603,-0.572867 0.271358,-1.768852 0.221106,-1.206035 0.412062,-1.869354 l 2.140712,-8.23119 h 2.944736 l 2.140712,8.23119 q 0.140704,0.552766 0.351761,1.688449 0.211056,1.135683 0.321609,1.949757 0.100503,-0.783923 0.321609,-1.949757 0.221107,-1.175884 0.402012,-1.899505 l 1.869355,-8.020134 h 3.065339 z"
           style="font-style:normal;font-variant:normal;font-weight:bold;font-stretch:normal;font-size:20.583px;line-height:1.25;font-family:'Open Sans';-inkscape-font-specification:'Open Sans Bold';letter-spacing:0px;word-spacing:0px;fill:#000000;fill-opacity:1;stroke:none;stroke-width:0.514577"
           id="path889" />
        <path
           d="M 93.731469,48.591922 H 85.269121 V 33.898394 h 8.462348 v 2.552774 h -5.346758 v 3.226144 h 4.974898 v 2.552775 h -4.974898 v 3.78896 h 5.346758 z"
           style="font-style:normal;font-variant:normal;font-weight:bold;font-stretch:normal;font-size:20.583px;line-height:1.25;font-family:'Open Sans';-inkscape-font-specification:'Open Sans Bold';letter-spacing:0px;word-spacing:0px;fill:#000000;fill-opacity:1;stroke:none;stroke-width:0.514577"
           id="path891" />
        <path
           d="M 96.796812,48.591922 V 33.898394 h 3.115593 v 12.120653 h 5.959835 v 2.572875 z"
           style="font-style:normal;font-variant:normal;font-weight:bold;font-stretch:normal;font-size:20.583px;line-height:1.25;font-family:'Open Sans';-inkscape-font-specification:'Open Sans Bold';letter-spacing:0px;word-spacing:0px;fill:#000000;fill-opacity:1;stroke:none;stroke-width:0.514577"
           id="path893" />
        <path
           d="M 108.42501,48.591922 V 33.898394 h 3.11559 v 12.120653 h 5.95982 v 2.572875 z"
           style="font-style:normal;font-variant:normal;font-weight:bold;font-stretch:normal;font-size:20.583px;line-height:1.25;font-family:'Open Sans';-inkscape-font-specification:'Open Sans Bold';letter-spacing:0px;word-spacing:0px;fill:#000000;fill-opacity:1;stroke:none;stroke-width:0.514577"
           id="path895" />
        <path
           style="fill:#000000;stroke:none;stroke-width:0.628831px;stroke-linecap:butt;stroke-linejoin:miter;stroke-opacity:1"
           d="m 80.67032,22.060858 c 0,0 -0.78095,-0.489566 -1.7488,-0.07941 -0.96786,0.410156 -3.017273,3.414282 -3.017273,3.414282 0,0 1.60788,-3.643625 2.773823,-4.12365 0.98622,-0.406034 2.38731,0.232963 2.38731,0.232963 0,0 1.42922,-1.985049 2.38204,-1.905648 0.95283,0.07941 4.44651,2.143855 4.44651,2.143855 0,0 -3.6525,-1.349835 -4.44651,-1.349835 -0.79401,0 -1.08341,1.160847 -1.08341,1.160847 0,0 0.38484,0.5443 0.24347,0.927229 -0.14137,0.382928 -0.35097,0.849796 -1.2245,0.849796 -0.87341,0 -1.09361,-0.206768 -1.19101,-0.55581 -0.0974,-0.349042 0.47836,-0.714619 0.47836,-0.714619 z"
           id="path914" />
        <path
           style="fill:#000000;stroke:none;stroke-width:0.628831px;stroke-linecap:butt;stroke-linejoin:miter;stroke-opacity:1"
           d="m 90.007714,25.735237 -5.24054,2.699666 c 0,0 4.76413,-3.573087 6.03455,-4.049496 1.27045,-0.476416 3.25549,-0.397013 4.44651,-0.714617 1.19103,-0.317611 4.208301,-1.905645 4.208301,-1.905645 0,0 -1.667443,1.826242 -2.540863,1.985049 -0.873408,0.158783 -4.128888,0.635213 -4.128888,0.635213 0,0 -0.15892,1.032224 -0.95283,1.508633 -0.79401,0.47641 -1.82624,-0.158814 -1.82624,-0.158814 z"
           id="path916" />
      </g>
    </g>
  </g>
</svg>
