<?xml version="1.0" encoding="UTF-8" standalone="no"?>
<svg
   xmlns:dc="http://purl.org/dc/elements/1.1/"
   xmlns:cc="http://creativecommons.org/ns#"
   xmlns:rdf="http://www.w3.org/1999/02/22-rdf-syntax-ns#"
   xmlns:svg="http://www.w3.org/2000/svg"
   xmlns="http://www.w3.org/2000/svg"
   xmlns:xlink="http://www.w3.org/1999/xlink"
   id="svg8"
   version="1.1"
   viewBox="0 0 132.29166 132.29167"
   height="500"
   width="500">
  <defs
     id="defs2">
    <pattern
       xlink:href="#pattern4149"
       id="pattern4231"
       patternTransform="matrix(0.26458333,0,0,0.26458333,149.17469,152.58566)" />
    <pattern
       xlink:href="#pattern4069"
       id="pattern4149"
       patternTransform="translate(-239.02969,985.98713)" />
    <pattern
       patternUnits="userSpaceOnUse"
       width="124.19037"
       height="87.85714"
       patternTransform="translate(-239.02969,985.98714)"
       id="pattern4069">
      <rect
         y="0"
         x="0"
         height="87.85714"
         width="0.75590551"
         id="rect1704"
         style="opacity:1;fill:#363638;fill-opacity:1;stroke:none;stroke-width:2.33285;stroke-linecap:round;stroke-linejoin:round;stroke-miterlimit:4;stroke-dasharray:none;stroke-opacity:1;paint-order:stroke fill markers" />
      <rect
         style="opacity:1;fill:#363638;fill-opacity:1;stroke:none;stroke-width:2.33285;stroke-linecap:round;stroke-linejoin:round;stroke-miterlimit:4;stroke-dasharray:none;stroke-opacity:1;paint-order:stroke fill markers"
         id="rect1735"
         width="0.75590551"
         height="87.85714"
         x="5.2525315"
         y="0" />
      <rect
         style="opacity:1;fill:#363638;fill-opacity:1;stroke:none;stroke-width:2.33285;stroke-linecap:round;stroke-linejoin:round;stroke-miterlimit:4;stroke-dasharray:none;stroke-opacity:1;paint-order:stroke fill markers"
         id="rect1737"
         width="0.75590551"
         height="87.85714"
         x="10.505063"
         y="0" />
      <rect
         y="0"
         x="15.757581"
         height="87.85714"
         width="0.75590551"
         id="rect1739"
         style="opacity:1;fill:#363638;fill-opacity:1;stroke:none;stroke-width:2.33285;stroke-linecap:round;stroke-linejoin:round;stroke-miterlimit:4;stroke-dasharray:none;stroke-opacity:1;paint-order:stroke fill markers" />
      <rect
         style="opacity:1;fill:#363638;fill-opacity:1;stroke:none;stroke-width:2.33285;stroke-linecap:round;stroke-linejoin:round;stroke-miterlimit:4;stroke-dasharray:none;stroke-opacity:1;paint-order:stroke fill markers"
         id="rect1741"
         width="0.75590551"
         height="87.85714"
         x="2.6262658"
         y="0" />
      <rect
         y="0"
         x="7.8787975"
         height="87.85714"
         width="0.75590551"
         id="rect1743"
         style="opacity:1;fill:#363638;fill-opacity:1;stroke:none;stroke-width:2.33285;stroke-linecap:round;stroke-linejoin:round;stroke-miterlimit:4;stroke-dasharray:none;stroke-opacity:1;paint-order:stroke fill markers" />
      <rect
         y="0"
         x="13.13133"
         height="87.85714"
         width="0.75590551"
         id="rect1745"
         style="opacity:1;fill:#363638;fill-opacity:1;stroke:none;stroke-width:2.33285;stroke-linecap:round;stroke-linejoin:round;stroke-miterlimit:4;stroke-dasharray:none;stroke-opacity:1;paint-order:stroke fill markers" />
      <rect
         style="opacity:1;fill:#363638;fill-opacity:1;stroke:none;stroke-width:2.33285;stroke-linecap:round;stroke-linejoin:round;stroke-miterlimit:4;stroke-dasharray:none;stroke-opacity:1;paint-order:stroke fill markers"
         id="rect1747"
         width="0.75590551"
         height="87.85714"
         x="18.383862"
         y="0" />
      <rect
         style="opacity:1;fill:#363638;fill-opacity:1;stroke:none;stroke-width:2.33285;stroke-linecap:round;stroke-linejoin:round;stroke-miterlimit:4;stroke-dasharray:none;stroke-opacity:1;paint-order:stroke fill markers"
         id="rect1757"
         width="0.75590551"
         height="87.85714"
         x="21.010126"
         y="0" />
      <rect
         y="0"
         x="26.262659"
         height="87.85714"
         width="0.75590551"
         id="rect1759"
         style="opacity:1;fill:#363638;fill-opacity:1;stroke:none;stroke-width:2.33285;stroke-linecap:round;stroke-linejoin:round;stroke-miterlimit:4;stroke-dasharray:none;stroke-opacity:1;paint-order:stroke fill markers" />
      <rect
         y="0"
         x="31.51519"
         height="87.85714"
         width="0.75590551"
         id="rect1761"
         style="opacity:1;fill:#363638;fill-opacity:1;stroke:none;stroke-width:2.33285;stroke-linecap:round;stroke-linejoin:round;stroke-miterlimit:4;stroke-dasharray:none;stroke-opacity:1;paint-order:stroke fill markers" />
      <rect
         style="opacity:1;fill:#363638;fill-opacity:1;stroke:none;stroke-width:2.33285;stroke-linecap:round;stroke-linejoin:round;stroke-miterlimit:4;stroke-dasharray:none;stroke-opacity:1;paint-order:stroke fill markers"
         id="rect1763"
         width="0.75590551"
         height="87.85714"
         x="36.767723"
         y="0" />
      <rect
         y="0"
         x="23.636393"
         height="87.85714"
         width="0.75590551"
         id="rect1765"
         style="opacity:1;fill:#363638;fill-opacity:1;stroke:none;stroke-width:2.33285;stroke-linecap:round;stroke-linejoin:round;stroke-miterlimit:4;stroke-dasharray:none;stroke-opacity:1;paint-order:stroke fill markers" />
      <rect
         style="opacity:1;fill:#363638;fill-opacity:1;stroke:none;stroke-width:2.33285;stroke-linecap:round;stroke-linejoin:round;stroke-miterlimit:4;stroke-dasharray:none;stroke-opacity:1;paint-order:stroke fill markers"
         id="rect1767"
         width="0.75590551"
         height="87.85714"
         x="28.888926"
         y="0" />
      <rect
         style="opacity:1;fill:#363638;fill-opacity:1;stroke:none;stroke-width:2.33285;stroke-linecap:round;stroke-linejoin:round;stroke-miterlimit:4;stroke-dasharray:none;stroke-opacity:1;paint-order:stroke fill markers"
         id="rect1769"
         width="0.75590551"
         height="87.85714"
         x="34.141457"
         y="0" />
      <rect
         y="0"
         x="39.39399"
         height="87.85714"
         width="0.75590551"
         id="rect1771"
         style="opacity:1;fill:#363638;fill-opacity:1;stroke:none;stroke-width:2.33285;stroke-linecap:round;stroke-linejoin:round;stroke-miterlimit:4;stroke-dasharray:none;stroke-opacity:1;paint-order:stroke fill markers" />
      <rect
         y="0"
         x="42.020252"
         height="87.85714"
         width="0.75590551"
         id="rect1773"
         style="opacity:1;fill:#363638;fill-opacity:1;stroke:none;stroke-width:2.33285;stroke-linecap:round;stroke-linejoin:round;stroke-miterlimit:4;stroke-dasharray:none;stroke-opacity:1;paint-order:stroke fill markers" />
      <rect
         style="opacity:1;fill:#363638;fill-opacity:1;stroke:none;stroke-width:2.33285;stroke-linecap:round;stroke-linejoin:round;stroke-miterlimit:4;stroke-dasharray:none;stroke-opacity:1;paint-order:stroke fill markers"
         id="rect1775"
         width="0.75590551"
         height="87.85714"
         x="47.272785"
         y="0" />
      <rect
         style="opacity:1;fill:#363638;fill-opacity:1;stroke:none;stroke-width:2.33285;stroke-linecap:round;stroke-linejoin:round;stroke-miterlimit:4;stroke-dasharray:none;stroke-opacity:1;paint-order:stroke fill markers"
         id="rect1777"
         width="0.75590551"
         height="87.85714"
         x="52.525318"
         y="0" />
      <rect
         y="0"
         x="57.777836"
         height="87.85714"
         width="0.75590551"
         id="rect1779"
         style="opacity:1;fill:#363638;fill-opacity:1;stroke:none;stroke-width:2.33285;stroke-linecap:round;stroke-linejoin:round;stroke-miterlimit:4;stroke-dasharray:none;stroke-opacity:1;paint-order:stroke fill markers" />
      <rect
         style="opacity:1;fill:#363638;fill-opacity:1;stroke:none;stroke-width:2.33285;stroke-linecap:round;stroke-linejoin:round;stroke-miterlimit:4;stroke-dasharray:none;stroke-opacity:1;paint-order:stroke fill markers"
         id="rect1781"
         width="0.75590551"
         height="87.85714"
         x="44.646519"
         y="0" />
      <rect
         y="0"
         x="49.899036"
         height="87.85714"
         width="0.75590551"
         id="rect1783"
         style="opacity:1;fill:#363638;fill-opacity:1;stroke:none;stroke-width:2.33285;stroke-linecap:round;stroke-linejoin:round;stroke-miterlimit:4;stroke-dasharray:none;stroke-opacity:1;paint-order:stroke fill markers" />
      <rect
         y="0"
         x="55.151569"
         height="87.85714"
         width="0.75590551"
         id="rect1785"
         style="opacity:1;fill:#363638;fill-opacity:1;stroke:none;stroke-width:2.33285;stroke-linecap:round;stroke-linejoin:round;stroke-miterlimit:4;stroke-dasharray:none;stroke-opacity:1;paint-order:stroke fill markers" />
      <rect
         style="opacity:1;fill:#363638;fill-opacity:1;stroke:none;stroke-width:2.33285;stroke-linecap:round;stroke-linejoin:round;stroke-miterlimit:4;stroke-dasharray:none;stroke-opacity:1;paint-order:stroke fill markers"
         id="rect1787"
         width="0.75590551"
         height="87.85714"
         x="60.404087"
         y="0" />
      <rect
         style="opacity:1;fill:#363638;fill-opacity:1;stroke:none;stroke-width:2.33285;stroke-linecap:round;stroke-linejoin:round;stroke-miterlimit:4;stroke-dasharray:none;stroke-opacity:1;paint-order:stroke fill markers"
         id="rect1789"
         width="0.75590551"
         height="87.85714"
         x="63.030365"
         y="0" />
      <rect
         y="0"
         x="68.282898"
         height="87.85714"
         width="0.75590551"
         id="rect1791"
         style="opacity:1;fill:#363638;fill-opacity:1;stroke:none;stroke-width:2.33285;stroke-linecap:round;stroke-linejoin:round;stroke-miterlimit:4;stroke-dasharray:none;stroke-opacity:1;paint-order:stroke fill markers" />
      <rect
         y="0"
         x="73.535431"
         height="87.85714"
         width="0.75590551"
         id="rect1793"
         style="opacity:1;fill:#363638;fill-opacity:1;stroke:none;stroke-width:2.33285;stroke-linecap:round;stroke-linejoin:round;stroke-miterlimit:4;stroke-dasharray:none;stroke-opacity:1;paint-order:stroke fill markers" />
      <rect
         style="opacity:1;fill:#363638;fill-opacity:1;stroke:none;stroke-width:2.33285;stroke-linecap:round;stroke-linejoin:round;stroke-miterlimit:4;stroke-dasharray:none;stroke-opacity:1;paint-order:stroke fill markers"
         id="rect1795"
         width="0.75590551"
         height="87.85714"
         x="78.787949"
         y="0" />
      <rect
         y="0"
         x="65.656631"
         height="87.85714"
         width="0.75590551"
         id="rect1797"
         style="opacity:1;fill:#363638;fill-opacity:1;stroke:none;stroke-width:2.33285;stroke-linecap:round;stroke-linejoin:round;stroke-miterlimit:4;stroke-dasharray:none;stroke-opacity:1;paint-order:stroke fill markers" />
      <rect
         style="opacity:1;fill:#363638;fill-opacity:1;stroke:none;stroke-width:2.33285;stroke-linecap:round;stroke-linejoin:round;stroke-miterlimit:4;stroke-dasharray:none;stroke-opacity:1;paint-order:stroke fill markers"
         id="rect1799"
         width="0.75590551"
         height="87.85714"
         x="70.909164"
         y="0" />
      <rect
         style="opacity:1;fill:#363638;fill-opacity:1;stroke:none;stroke-width:2.33285;stroke-linecap:round;stroke-linejoin:round;stroke-miterlimit:4;stroke-dasharray:none;stroke-opacity:1;paint-order:stroke fill markers"
         id="rect1801"
         width="0.75590551"
         height="87.85714"
         x="76.161697"
         y="0" />
      <rect
         y="0"
         x="81.414246"
         height="87.85714"
         width="0.75590551"
         id="rect1803"
         style="opacity:1;fill:#363638;fill-opacity:1;stroke:none;stroke-width:2.33285;stroke-linecap:round;stroke-linejoin:round;stroke-miterlimit:4;stroke-dasharray:none;stroke-opacity:1;paint-order:stroke fill markers" />
      <rect
         y="0"
         x="84.040482"
         height="87.85714"
         width="0.75590551"
         id="rect1805"
         style="opacity:1;fill:#363638;fill-opacity:1;stroke:none;stroke-width:2.33285;stroke-linecap:round;stroke-linejoin:round;stroke-miterlimit:4;stroke-dasharray:none;stroke-opacity:1;paint-order:stroke fill markers" />
      <rect
         style="opacity:1;fill:#363638;fill-opacity:1;stroke:none;stroke-width:2.33285;stroke-linecap:round;stroke-linejoin:round;stroke-miterlimit:4;stroke-dasharray:none;stroke-opacity:1;paint-order:stroke fill markers"
         id="rect1807"
         width="0.75590551"
         height="87.85714"
         x="89.293015"
         y="0" />
      <rect
         style="opacity:1;fill:#363638;fill-opacity:1;stroke:none;stroke-width:2.33285;stroke-linecap:round;stroke-linejoin:round;stroke-miterlimit:4;stroke-dasharray:none;stroke-opacity:1;paint-order:stroke fill markers"
         id="rect1809"
         width="0.75590551"
         height="87.85714"
         x="94.54554"
         y="0" />
      <rect
         y="0"
         x="99.798073"
         height="87.85714"
         width="0.75590551"
         id="rect1811"
         style="opacity:1;fill:#363638;fill-opacity:1;stroke:none;stroke-width:2.33285;stroke-linecap:round;stroke-linejoin:round;stroke-miterlimit:4;stroke-dasharray:none;stroke-opacity:1;paint-order:stroke fill markers" />
      <rect
         style="opacity:1;fill:#363638;fill-opacity:1;stroke:none;stroke-width:2.33285;stroke-linecap:round;stroke-linejoin:round;stroke-miterlimit:4;stroke-dasharray:none;stroke-opacity:1;paint-order:stroke fill markers"
         id="rect1813"
         width="0.75590551"
         height="87.85714"
         x="86.666748"
         y="0" />
      <rect
         y="0"
         x="91.919273"
         height="87.85714"
         width="0.75590551"
         id="rect1815"
         style="opacity:1;fill:#363638;fill-opacity:1;stroke:none;stroke-width:2.33285;stroke-linecap:round;stroke-linejoin:round;stroke-miterlimit:4;stroke-dasharray:none;stroke-opacity:1;paint-order:stroke fill markers" />
      <rect
         y="0"
         x="97.171806"
         height="87.85714"
         width="0.75590551"
         id="rect1817"
         style="opacity:1;fill:#363638;fill-opacity:1;stroke:none;stroke-width:2.33285;stroke-linecap:round;stroke-linejoin:round;stroke-miterlimit:4;stroke-dasharray:none;stroke-opacity:1;paint-order:stroke fill markers" />
      <rect
         style="opacity:1;fill:#363638;fill-opacity:1;stroke:none;stroke-width:2.33285;stroke-linecap:round;stroke-linejoin:round;stroke-miterlimit:4;stroke-dasharray:none;stroke-opacity:1;paint-order:stroke fill markers"
         id="rect1819"
         width="0.75590551"
         height="87.85714"
         x="102.42434"
         y="0" />
      <rect
         style="opacity:1;fill:#363638;fill-opacity:1;stroke:none;stroke-width:2.33285;stroke-linecap:round;stroke-linejoin:round;stroke-miterlimit:4;stroke-dasharray:none;stroke-opacity:1;paint-order:stroke fill markers"
         id="rect1821"
         width="0.75590551"
         height="87.85714"
         x="105.05061"
         y="0" />
      <rect
         y="0"
         x="110.30314"
         height="87.85714"
         width="0.75590551"
         id="rect1823"
         style="opacity:1;fill:#363638;fill-opacity:1;stroke:none;stroke-width:2.33285;stroke-linecap:round;stroke-linejoin:round;stroke-miterlimit:4;stroke-dasharray:none;stroke-opacity:1;paint-order:stroke fill markers" />
      <rect
         y="0"
         x="115.55567"
         height="87.85714"
         width="0.75590551"
         id="rect1825"
         style="opacity:1;fill:#363638;fill-opacity:1;stroke:none;stroke-width:2.33285;stroke-linecap:round;stroke-linejoin:round;stroke-miterlimit:4;stroke-dasharray:none;stroke-opacity:1;paint-order:stroke fill markers" />
      <rect
         style="opacity:1;fill:#363638;fill-opacity:1;stroke:none;stroke-width:2.33285;stroke-linecap:round;stroke-linejoin:round;stroke-miterlimit:4;stroke-dasharray:none;stroke-opacity:1;paint-order:stroke fill markers"
         id="rect1827"
         width="0.75590551"
         height="87.85714"
         x="120.8082"
         y="0" />
      <rect
         y="0"
         x="107.67687"
         height="87.85714"
         width="0.75590551"
         id="rect1829"
         style="opacity:1;fill:#363638;fill-opacity:1;stroke:none;stroke-width:2.33285;stroke-linecap:round;stroke-linejoin:round;stroke-miterlimit:4;stroke-dasharray:none;stroke-opacity:1;paint-order:stroke fill markers" />
      <rect
         style="opacity:1;fill:#363638;fill-opacity:1;stroke:none;stroke-width:2.33285;stroke-linecap:round;stroke-linejoin:round;stroke-miterlimit:4;stroke-dasharray:none;stroke-opacity:1;paint-order:stroke fill markers"
         id="rect1831"
         width="0.75590551"
         height="87.85714"
         x="112.92941"
         y="0" />
      <rect
         style="opacity:1;fill:#363638;fill-opacity:1;stroke:none;stroke-width:2.33285;stroke-linecap:round;stroke-linejoin:round;stroke-miterlimit:4;stroke-dasharray:none;stroke-opacity:1;paint-order:stroke fill markers"
         id="rect1833"
         width="0.75590551"
         height="87.85714"
         x="118.18194"
         y="0" />
      <rect
         y="0"
         x="123.43447"
         height="87.85714"
         width="0.75590551"
         id="rect1835"
         style="opacity:1;fill:#363638;fill-opacity:1;stroke:none;stroke-width:2.33285;stroke-linecap:round;stroke-linejoin:round;stroke-miterlimit:4;stroke-dasharray:none;stroke-opacity:1;paint-order:stroke fill markers" />
    </pattern>
  </defs>
  <metadata
     id="metadata5">
    <rdf:RDF>
      <cc:Work
         rdf:about="">
        <dc:format>image/svg+xml</dc:format>
        <dc:type
           rdf:resource="http://purl.org/dc/dcmitype/StillImage" />
        <dc:title></dc:title>
      </cc:Work>
    </rdf:RDF>
  </metadata>
  <g
     id="layer1">
    <g
       transform="matrix(2.9937675,0,0,2.9937675,-522.75928,-349.92843)"
       id="g1197">
      <path
         d="m 177.71706,144.87833 c 0,0 12.62302,2.11667 18.99331,2.11667 6.3703,0 18.99331,-2.11667 18.99331,-2.11667 v -5.10267 -5.10268 c 0,0 -12.62301,2.11667 -18.99331,2.11667 -6.37029,0 -18.99331,-2.11667 -18.99331,-2.11667 v 5.10268 z"
         style="opacity:1;fill:#a25031;fill-opacity:1;stroke:#363638;stroke-width:1.2;stroke-linecap:round;stroke-linejoin:round;stroke-miterlimit:4;stroke-dasharray:none;stroke-opacity:1;paint-order:stroke fill markers"
         id="path4193" />
      <path
         id="path4195"
         style="opacity:1;fill:#d7734d;fill-opacity:1;stroke:none;stroke-width:0.36123;stroke-linecap:round;stroke-linejoin:round;stroke-miterlimit:4;stroke-dasharray:none;paint-order:stroke fill markers"
         d="m 209.12769,150.75193 -4.1391,2.38971 -4.13911,2.38971 c -5.11267,2.99529 -3.28908,2.88049 -8.27822,0 l -4.13911,-2.38971 -4.1391,-2.38972 c -5.15033,-2.93006 -4.13911,-1.40818 -4.13911,-7.16914 v -4.77944 -4.77943 c -0.0377,-5.92534 -0.85003,-4.28867 4.13911,-7.16915 l 4.1391,-2.38971 4.13911,-2.38972 c 5.11267,-2.99528 3.28908,-2.88047 8.27822,0 l 4.13911,2.38972 4.1391,2.38971 c 5.15033,2.93007 4.13911,1.40819 4.13911,7.16915 v 4.77943 4.77944 c 0.0377,5.92534 0.85003,4.28867 -4.13911,7.16915 z" />
      <path
         d="m 208.58484,150.22957 -3.95816,2.28523 -3.95815,2.28524 c -4.88916,2.86435 -3.14529,2.75456 -7.91632,0 l -3.95815,-2.28524 -3.95816,-2.28524 c -4.92517,-2.80197 -3.95815,-1.34662 -3.95815,-6.85573 v -4.57049 -4.57048 c -0.036,-5.66631 -0.81287,-4.10119 3.95815,-6.85574 l 3.95816,-2.28523 3.95815,-2.28525 c 4.88916,-2.86434 3.14529,-2.75454 7.91632,0 l 3.95815,2.28525 3.95816,2.28523 c 4.92516,2.80198 3.95815,1.34663 3.95815,6.85574 v 4.57048 4.57049 c 0.036,5.6663 0.81287,4.10119 -3.95815,6.85574 z"
         style="opacity:1;fill:#363638;fill-opacity:1;stroke:none;stroke-width:0.345437;stroke-linecap:round;stroke-linejoin:round;stroke-miterlimit:4;stroke-dasharray:none;paint-order:stroke fill markers"
         id="path4197" />
      <path
         id="path4199"
         style="opacity:1;fill:#fbf8e7;fill-opacity:1;stroke:none;stroke-width:0.289232;stroke-linecap:round;stroke-linejoin:round;stroke-miterlimit:4;stroke-dasharray:none;paint-order:stroke fill markers"
         d="m 206.6528,148.37046 -3.31414,1.91341 -3.31415,1.91342 c -4.09366,2.3983 -2.63353,2.30638 -6.62828,0 l -3.31414,-1.91342 -3.31415,-1.91342 c -4.12381,-2.34607 -3.31414,-1.12751 -3.31414,-5.74026 v -3.82685 -3.82684 c -0.0301,-4.74436 -0.68061,-3.4339 3.31414,-5.74027 l 3.31415,-1.91341 3.31414,-1.91342 c 4.09366,-2.3983 2.63353,-2.30637 6.62828,0 l 3.31415,1.91342 3.31414,1.91341 c 4.12381,2.34608 3.31414,1.12752 3.31414,5.74027 v 3.82684 3.82685 c 0.0301,4.74436 0.68061,3.4339 -3.31414,5.74027 z" />
      <path
         style="fill:#363638;fill-opacity:1;stroke-width:0.0152654"
         d="m 198.57225,136.85209 c -1.06792,0.38222 -2.11455,0.43523 -3.20036,0.16212 -0.24977,-0.0628 -0.83331,-0.28221 -1.06202,-0.39927 -1.43985,-0.73694 -2.44846,-2.02881 -2.80438,-3.59196 -0.3218,-1.4133 -0.042,-2.93509 0.76017,-4.13413 0.5602,-0.8374 1.3335,-1.49235 2.25203,-1.90741 1.11189,-0.50284 2.34176,-0.60782 3.52257,-0.30167 0.45295,0.11744 0.82578,0.2622 1.20682,0.46861 1.62022,0.8777 2.67075,2.51616 2.79113,4.35322 0.0605,0.92328 -0.12235,1.84536 -0.53468,2.69631 -0.436,0.89981 -1.14144,1.67316 -2.01732,2.21146 -0.157,0.0964 -0.75243,0.3849 -0.91395,0.44274 z m 0.82066,-0.62715 c 0.18725,-0.11518 0.39065,-0.25553 0.49948,-0.34472 l 0.0489,-0.0401 -0.19987,0.0169 -0.19986,0.0169 -0.91542,0.41162 -0.91541,0.41162 -0.13579,0.11633 -0.13578,0.11633 0.0691,-0.009 c 0.26546,-0.0362 0.68388,-0.14494 0.98751,-0.25658 0.23971,-0.0881 0.66891,-0.29785 0.89742,-0.43824 z m 0.24269,-1.31446 0.21133,-0.93181 -0.42491,-0.28214 c -0.2337,-0.15519 -0.58552,-0.38874 -0.7818,-0.51899 l -0.3569,-0.23684 -0.9879,0.44608 -0.9879,0.44608 -0.1442,0.90113 -0.14419,0.90113 0.0542,0.0299 c 0.0298,0.0165 0.42172,0.2316 0.87098,0.4781 l 0.81681,0.44817 0.83151,-0.3747 0.83152,-0.37472 0.21132,-0.9318 z m 2.03728,-1.7475 c 0.22421,-0.8299 0.22881,-1.75213 0.0129,-2.59274 -0.0469,-0.18255 -0.14486,-0.48715 -0.1868,-0.58069 l -0.0325,-0.0725 -0.13603,0.38292 -0.13603,0.38293 0.0171,0.33553 c 0.009,0.18454 0.0312,0.61926 0.0485,0.96605 l 0.0314,0.6305 0.12151,0.43555 c 0.0668,0.23954 0.12665,0.44617 0.13292,0.45915 0.0125,0.0259 0.0655,-0.11858 0.12713,-0.34666 z m -7.41096,2.95452 -0.21746,-0.33736 -0.66502,-0.63797 c -0.36576,-0.35088 -0.67889,-0.64679 -0.69585,-0.65757 -0.0545,-0.0346 -0.49615,-0.22554 -0.49903,-0.21573 -0.001,0.003 0.04,0.0777 0.0911,0.16516 0.42596,0.72955 1.03245,1.34838 1.75295,1.78861 0.16623,0.10156 0.4453,0.2501 0.44875,0.23884 0.001,-0.003 -0.0958,-0.15844 -0.21542,-0.34398 z m 5.95494,-2.58264 c 0.16766,-0.16949 0.45946,-0.45954 0.64843,-0.64455 l 0.3436,-0.33639 -0.0466,-0.91086 -0.0466,-0.91085 -0.50313,-0.34952 c -0.27672,-0.19225 -0.66177,-0.4521 -0.85567,-0.57745 l -0.35255,-0.22792 -0.30266,0.26633 c -0.72134,0.63476 -0.88774,0.78352 -0.89321,0.79847 -0.003,0.009 0.0114,0.24705 0.0324,0.52959 0.021,0.28254 0.0549,0.77854 0.0755,1.10222 0.0205,0.32369 0.0452,0.59828 0.0548,0.6102 0.01,0.0119 0.34859,0.24291 0.75326,0.51332 0.66747,0.446 0.73815,0.48949 0.76164,0.46861 0.0142,-0.0126 0.16308,-0.16166 0.33072,-0.3312 z m -4.23497,1.81174 c 0.0226,-0.14143 0.0864,-0.53568 0.14157,-0.8761 0.0552,-0.34042 0.0973,-0.62575 0.0936,-0.63408 -0.004,-0.008 -0.1425,-0.15477 -0.30833,-0.32546 -0.16583,-0.17069 -0.5101,-0.53653 -0.76505,-0.81298 l -0.46354,-0.50265 -0.77376,0.10131 c -0.44353,0.058 -0.77922,0.10926 -0.78652,0.11994 -0.007,0.0103 -0.0695,0.33804 -0.13878,0.72843 -0.12715,0.71617 -0.20704,1.2777 -0.18708,1.31497 0.009,0.0169 0.56846,0.55625 1.13015,1.08955 l 0.14337,0.13612 0.46157,-0.01 c 0.51392,-0.0106 1.3492,-0.0486 1.38712,-0.063 0.0164,-0.007 0.0381,-0.0939 0.0657,-0.2665 z m 2.68057,-5.24965 c 0.29175,-0.24783 0.56195,-0.4759 0.60043,-0.5068 l 0.07,-0.0562 -0.0247,-0.075 c -0.062,-0.18861 -0.72194,-1.85016 -0.73678,-1.85503 -0.009,-0.003 -0.40226,-0.10863 -0.87348,-0.23471 -0.47121,-0.12607 -0.87986,-0.23702 -0.90809,-0.24656 l -0.0513,-0.0173 -0.0627,0.0616 c -0.0485,0.0476 -0.94362,0.89336 -1.39929,1.32204 l -0.0676,0.0636 0.34625,0.76753 0.34626,0.76752 1.10487,0.23466 c 0.60768,0.12905 1.10954,0.23254 1.11524,0.22997 0.006,-0.002 0.24907,-0.20744 0.54083,-0.45527 z m -3.52077,1.17533 c 0.25569,-0.44854 0.50816,-0.89103 0.56106,-0.98329 l 0.0962,-0.16775 -0.35163,-0.77055 -0.35162,-0.77055 -0.38724,0.0324 c -0.21298,0.0179 -0.66205,0.0553 -0.99793,0.0832 -0.33589,0.0279 -0.61963,0.0548 -0.63055,0.0597 -0.0109,0.005 -0.21663,0.39336 -0.45715,0.8632 l -0.43731,0.85426 0.096,0.19116 c 0.0905,0.18022 0.55357,1.08319 0.753,1.46841 l 0.0911,0.17601 0.15002,-0.0201 c 0.58307,-0.0779 1.36742,-0.18767 1.38268,-0.19351 0.0101,-0.004 0.22756,-0.37403 0.48325,-0.82259 z m 4.21346,-3.82517 c -0.0441,-0.031 -0.26664,-0.15212 -0.37798,-0.20574 -0.68082,-0.32782 -1.33757,-0.49395 -2.06632,-0.52267 -0.24075,-0.009 -0.55054,-0.003 -0.5561,0.0117 -0.001,0.004 0.087,0.0734 0.19664,0.1541 l 0.19942,0.14681 0.71894,0.19326 c 0.39541,0.10629 0.81806,0.22015 0.93921,0.25302 l 0.22027,0.0597 0.30412,-0.0294 c 0.16727,-0.0161 0.32615,-0.0306 0.35307,-0.0322 0.068,-0.004 0.0905,-0.0134 0.0689,-0.0283 z m -7.45375,3.20333 0.18551,-0.16425 0.46112,-0.90285 0.46112,-0.90285 0.008,-0.20147 c 0.005,-0.1108 0.006,-0.20027 0.002,-0.19883 -0.0153,0.007 -0.19449,0.21005 -0.30028,0.34046 -0.45171,0.55688 -0.80088,1.25135 -0.97651,1.94221 -0.0644,0.25337 -0.0712,0.29564 -0.0433,0.26785 0.009,-0.008 0.0995,-0.0899 0.20153,-0.18025 z"
         id="path4201" />
      <path
         id="path4203"
         style="opacity:1;fill:#fbf8e7;fill-opacity:1;stroke:#363638;stroke-width:1.2;stroke-linecap:round;stroke-linejoin:round;stroke-miterlimit:4;stroke-dasharray:none;stroke-opacity:1;paint-order:stroke fill markers"
         d="m 177.71706,133.99263 c 0,0 12.62302,-2.11667 18.99331,-2.11667 6.3703,0 18.99331,2.11667 18.99331,2.11667 v 5.10267 5.10268 c 0,0 -12.62301,-2.11667 -18.99331,-2.11667 -6.37029,0 -18.99331,2.11667 -18.99331,2.11667 v -5.10268 z" />
      <path
         id="path4205"
         style="opacity:1;fill:url(#pattern4231);fill-opacity:1;stroke:none;stroke-width:1.2;stroke-linecap:round;stroke-linejoin:round;stroke-miterlimit:4;stroke-dasharray:none;stroke-opacity:1;paint-order:stroke fill markers"
         d="m 196.42669,146.80595 c -2.90974,0 -7.10105,0.44418 -10.82105,0.92398 0.34083,0.18377 0.71057,0.38333 1.16221,0.64027 l 3.314,1.91358 3.31453,1.91358 c 3.99476,2.30638 2.53436,2.3983 6.62802,0 l 3.31401,-1.91358 3.31453,-1.91358 c 0.39759,-0.22955 0.73724,-0.41548 1.04799,-0.58291 -3.82536,-0.50164 -8.24733,-0.98134 -11.27424,-0.98134 z m 0.2837,1.11518 a 3.4726562,1.9371279 0 0 1 3.47266,1.93683 3.4726562,1.9371279 0 0 1 -3.47266,1.93735 3.4726562,1.9371279 0 0 1 -3.47266,-1.93735 3.4726562,1.9371279 0 0 1 3.47266,-1.93683 z" />
      <path
         d="m 186.08148,146.57888 -0.0338,-0.27075 q 0.0516,0.0352 0.11999,0.06 0.0697,0.0246 0.14374,0.039 0.0752,0.0128 0.14921,0.0161 0.074,0.003 0.13555,-0.004 0.21195,-0.0265 0.30614,-0.11738 0.0954,-0.0925 0.077,-0.24014 -0.01,-0.0793 -0.0528,-0.13367 -0.0415,-0.0545 -0.10904,-0.0947 -0.0677,-0.0415 -0.15792,-0.0747 -0.0891,-0.0347 -0.19228,-0.0718 -0.10905,-0.0392 -0.20459,-0.0814 -0.0955,-0.0422 -0.1692,-0.0983 -0.0737,-0.0561 -0.12202,-0.13197 -0.0472,-0.0774 -0.0608,-0.18683 -0.0167,-0.134 0.0298,-0.2398 0.0463,-0.10716 0.13403,-0.18338 0.0877,-0.0762 0.20546,-0.12287 0.11914,-0.0468 0.24631,-0.0627 0.2899,-0.0362 0.43125,0.017 l 0.0323,0.25844 q -0.18869,-0.0986 -0.46081,-0.0647 -0.0752,0.009 -0.14837,0.0352 -0.0733,0.0244 -0.12769,0.0673 -0.0544,0.0429 -0.0843,0.10357 -0.0299,0.0607 -0.0198,0.14135 0.009,0.0752 0.0436,0.12649 0.0356,0.0511 0.0959,0.0894 0.0603,0.0383 0.14356,0.0709 0.0846,0.0325 0.19348,0.0703 0.11178,0.0388 0.2133,0.0845 0.10152,0.0456 0.18134,0.10651 0.0798,0.0609 0.13142,0.14052 0.053,0.0795 0.0666,0.18888 0.0181,0.14495 -0.0267,0.25331 -0.0436,0.10682 -0.13283,0.18184 -0.0879,0.0749 -0.21025,0.11791 -0.12222,0.0444 -0.2617,0.0618 -0.0465,0.006 -0.11589,0.006 -0.0692,0.002 -0.14221,-0.004 -0.0728,-0.005 -0.13964,-0.0173 -0.0656,-0.014 -0.10716,-0.0352 z"
         style="font-style:normal;font-variant:normal;font-weight:normal;font-stretch:normal;font-size:2.82222px;line-height:1.25;font-family:Ebrima;-inkscape-font-specification:Ebrima;letter-spacing:0px;word-spacing:0px;fill:#363638;fill-opacity:1;stroke:none;stroke-width:0.076803"
         id="path4320" />
      <path
         d="m 188.23288,146.43079 q -0.31073,0.036 -0.5196,-0.13813 -0.20765,-0.17569 -0.24527,-0.50011 -0.0409,-0.35317 0.12905,-0.57403 0.17,-0.22087 0.49852,-0.25896 0.31347,-0.0363 0.51107,0.13634 0.19896,0.17254 0.23864,0.51476 0.0389,0.33537 -0.12789,0.56002 -0.16558,0.22313 -0.48452,0.26011 z m -0.13182,-1.28042 q -0.21628,0.0251 -0.32507,0.18751 -0.10896,0.16107 -0.079,0.41979 0.0289,0.24913 0.17285,0.3781 0.14397,0.12897 0.35752,0.10421 0.21765,-0.0252 0.31765,-0.17972 0.10138,-0.15464 0.0712,-0.41473 -0.0305,-0.26282 -0.1647,-0.39153 -0.13286,-0.12887 -0.35051,-0.10363 z"
         style="font-style:normal;font-variant:normal;font-weight:normal;font-stretch:normal;font-size:2.82222px;line-height:1.25;font-family:Ebrima;-inkscape-font-specification:Ebrima;letter-spacing:0px;word-spacing:0px;fill:#363638;fill-opacity:1;stroke:none;stroke-width:0.076803"
         id="path4322" />
      <path
         d="m 190.23764,146.11201 q -0.15138,0.11445 -0.37338,0.13801 -0.3001,0.0318 -0.50575,-0.14311 -0.20442,-0.17647 -0.23743,-0.48753 -0.0368,-0.3467 0.13966,-0.57745 0.1763,-0.23212 0.50792,-0.26731 0.185,-0.0196 0.33342,0.0339 l 0.0244,0.23022 q -0.16786,-0.0931 -0.346,-0.0741 -0.21514,0.0228 -0.33712,0.19237 -0.12074,0.16802 -0.0941,0.41879 0.0262,0.24666 0.17012,0.37551 0.1453,0.1287 0.36319,0.10557 0.18362,-0.0195 0.33238,-0.1586 z"
         style="font-style:normal;font-variant:normal;font-weight:normal;font-stretch:normal;font-size:2.82222px;line-height:1.25;font-family:Ebrima;-inkscape-font-specification:Ebrima;letter-spacing:0px;word-spacing:0px;fill:#363638;fill-opacity:1;stroke:none;stroke-width:0.076803"
         id="path4324" />
      <path
         d="m 191.53773,145.98603 q -0.15255,0.11289 -0.37477,0.13417 -0.30042,0.0288 -0.50426,-0.1483 -0.20259,-0.17857 -0.2324,-0.48996 -0.0332,-0.34705 0.14558,-0.57598 0.17868,-0.23029 0.51065,-0.26207 0.18519,-0.0177 0.33305,0.0373 l 0.0221,0.23046 q -0.16689,-0.0948 -0.34522,-0.0777 -0.21537,0.0206 -0.33907,0.18889 -0.12247,0.16677 -0.0984,0.4178 0.0236,0.24692 0.16624,0.37724 0.14397,0.13019 0.36208,0.10931 0.18382,-0.0176 0.334,-0.15518 z"
         style="font-style:normal;font-variant:normal;font-weight:normal;font-stretch:normal;font-size:2.82222px;line-height:1.25;font-family:Ebrima;-inkscape-font-specification:Ebrima;letter-spacing:0px;word-spacing:0px;fill:#363638;fill-opacity:1;stroke:none;stroke-width:0.076803"
         id="path4326" />
      <path
         d="m 192.96527,145.27985 -0.99298,0.0815 q 0.0248,0.2344 0.15613,0.35221 0.13134,0.1178 0.34285,0.10044 0.2376,-0.0195 0.42389,-0.19243 l 0.0174,0.2115 q -0.17436,0.14982 -0.47926,0.17486 -0.29803,0.0245 -0.48401,-0.15246 -0.18609,-0.17829 -0.21462,-0.52577 -0.0269,-0.32824 0.14155,-0.54948 0.16976,-0.22272 0.44581,-0.24539 0.27606,-0.0227 0.44179,0.14348 0.16574,0.16614 0.19179,0.4834 z m -0.24641,-0.17196 q -0.0174,-0.19491 -0.11968,-0.29574 -0.10093,-0.10095 -0.26574,-0.0874 -0.15932,0.0131 -0.2612,0.13621 -0.10189,0.12313 -0.11287,0.30931 z"
         style="font-style:normal;font-variant:normal;font-weight:normal;font-stretch:normal;font-size:2.82222px;line-height:1.25;font-family:Ebrima;-inkscape-font-specification:Ebrima;letter-spacing:0px;word-spacing:0px;fill:#363638;fill-opacity:1;stroke:none;stroke-width:0.076803"
         id="path4328" />
      <path
         d="m 194.01703,144.67438 q -0.0622,-0.0414 -0.17354,-0.034 -0.14437,0.01 -0.23287,0.15233 -0.0871,0.14257 -0.0714,0.37769 l 0.0481,0.71773 -0.22549,0.0151 -0.0943,-1.40796 0.22549,-0.0151 0.0194,0.29012 0.006,-3.7e-4 q 0.0382,-0.15172 0.13165,-0.24085 0.0934,-0.0905 0.21574,-0.0987 0.088,-0.006 0.13604,0.0102 z"
         style="font-style:normal;font-variant:normal;font-weight:normal;font-stretch:normal;font-size:2.82222px;line-height:1.25;font-family:Ebrima;-inkscape-font-specification:Ebrima;letter-spacing:0px;word-spacing:0px;fill:#363638;fill-opacity:1;stroke:none;stroke-width:0.076803"
         id="path4330" />
      <path
         d="m 196.87359,145.78923 q -0.0785,0.002 -0.13958,-0.0193 -0.0597,-0.0195 -0.11138,-0.0571 -0.0518,-0.039 -0.10108,-0.0945 -0.0479,-0.0556 -0.1017,-0.1262 -0.054,0.0603 -0.1259,0.11686 -0.0706,0.0565 -0.15791,0.10094 -0.0874,0.0444 -0.19158,0.0713 -0.1042,0.0282 -0.22682,0.0306 -0.1488,0.003 -0.27352,-0.0319 -0.12473,-0.0348 -0.2143,-0.10471 -0.0896,-0.0713 -0.14127,-0.17643 -0.0503,-0.10515 -0.053,-0.24292 -0.004,-0.2108 0.11285,-0.36194 0.11694,-0.15251 0.33415,-0.25185 -0.0419,-0.0295 -0.084,-0.0687 -0.0421,-0.0405 -0.0762,-0.0909 -0.0327,-0.0517 -0.0546,-0.11333 -0.0205,-0.063 -0.022,-0.1374 -0.002,-0.10885 0.0348,-0.19364 0.0383,-0.0848 0.10608,-0.14404 0.0678,-0.0592 0.16089,-0.09 0.0931,-0.0321 0.20194,-0.0343 0.10746,-0.002 0.19623,0.0265 0.0901,0.0272 0.15457,0.0811 0.0658,0.0539 0.10316,0.13031 0.0373,0.0765 0.0392,0.17152 0.003,0.16534 -0.0897,0.27741 -0.0916,0.11067 -0.27882,0.19151 0.0958,0.0353 0.174,0.0876 0.0782,0.0522 0.14425,0.1171 0.0674,0.0649 0.12538,0.13952 0.058,0.0747 0.11467,0.15489 0.10856,-0.15786 0.1614,-0.34634 0.0528,-0.18848 0.0488,-0.39377 -10e-4,-0.0523 -0.009,-0.0977 -0.006,-0.0467 -0.0183,-0.092 l 0.21906,-0.004 q 0.0119,0.0453 0.0141,0.0865 0.004,0.0399 0.007,0.0963 0.002,0.12538 -0.0213,0.25264 -0.0237,0.12727 -0.0655,0.248 -0.0418,0.11934 -0.0989,0.22797 -0.0558,0.10859 -0.11878,0.19941 0.0495,0.0652 0.0904,0.11401 0.0409,0.0474 0.0815,0.0797 0.042,0.0323 0.085,0.048 0.0444,0.0143 0.0995,0.0132 0.0413,-8.2e-4 0.0838,-0.0127 0.0425,-0.0119 0.0876,-0.0293 l 0.004,0.20942 q -0.0492,0.0203 -0.10415,0.031 -0.0535,0.0107 -0.1059,0.0117 z m -1.15976,-0.17311 q 0.10471,-0.002 0.19245,-0.0258 0.0877,-0.0251 0.1614,-0.0638 0.0737,-0.04 0.1333,-0.0908 0.0596,-0.0522 0.10816,-0.10824 -0.0866,-0.12925 -0.16004,-0.22017 -0.0721,-0.0923 -0.14643,-0.1584 -0.073,-0.0661 -0.15657,-0.11273 -0.0822,-0.0466 -0.1905,-0.0859 -0.0861,0.0361 -0.15832,0.0803 -0.0722,0.0428 -0.12482,0.10167 -0.0512,0.0575 -0.0801,0.13388 -0.0288,0.0764 -0.0268,0.17832 0.002,0.0937 0.0377,0.16466 0.0358,0.071 0.096,0.11804 0.0615,0.0457 0.14193,0.0689 0.0804,0.0219 0.17268,0.0201 z m 0.31701,-1.41342 q -0.001,-0.0689 -0.0285,-0.1166 -0.0257,-0.0477 -0.0663,-0.0787 -0.0392,-0.0309 -0.0877,-0.0438 -0.0485,-0.0142 -0.0954,-0.0133 -0.13502,0.003 -0.21488,0.0772 -0.0785,0.0746 -0.0774,0.19999 0.001,0.0565 0.0186,0.10576 0.0189,0.0493 0.05,0.0914 0.0325,0.0421 0.0745,0.0744 0.042,0.0323 0.0893,0.0548 0.17242,-0.064 0.25628,-0.14559 0.0838,-0.083 0.0814,-0.20557 z"
         style="font-style:normal;font-variant:normal;font-weight:normal;font-stretch:normal;font-size:2.82222px;line-height:1.25;font-family:Ebrima;-inkscape-font-specification:Ebrima;letter-spacing:0px;word-spacing:0px;fill:#363638;fill-opacity:1;stroke:none;stroke-width:0.076803"
         id="path4332" />
      <path
         d="m 199.25513,144.07883 -0.77083,-0.0365 -0.0323,0.68274 0.71302,0.0338 -0.01,0.20785 -0.71302,-0.0338 -0.0414,0.87407 -0.23125,-0.011 0.0935,-1.97389 1.00209,0.0475 z"
         style="font-style:normal;font-variant:normal;font-weight:normal;font-stretch:normal;font-size:2.82222px;line-height:1.25;font-family:Ebrima;-inkscape-font-specification:Ebrima;letter-spacing:0px;word-spacing:0px;fill:#363638;fill-opacity:1;stroke:none;stroke-width:0.076803"
         id="path4334" />
      <path
         d="m 200.32656,144.73607 q -0.0561,-0.0493 -0.16748,-0.0567 -0.14437,-0.01 -0.25107,0.11998 -0.10533,0.12971 -0.12101,0.36483 l -0.0479,0.71774 -0.22549,-0.015 0.0939,-1.40798 0.22549,0.015 -0.0194,0.29012 0.005,3.7e-4 q 0.058,-0.14529 0.16253,-0.22119 0.10459,-0.0773 0.22697,-0.0691 0.088,0.006 0.13346,0.0282 z"
         style="font-style:normal;font-variant:normal;font-weight:normal;font-stretch:normal;font-size:2.82222px;line-height:1.25;font-family:Ebrima;-inkscape-font-specification:Ebrima;letter-spacing:0px;word-spacing:0px;fill:#363638;fill-opacity:1;stroke:none;stroke-width:0.076803"
         id="path4336" />
      <path
         d="m 200.74522,144.18044 q -0.0605,-0.005 -0.0998,-0.0492 -0.0394,-0.0445 -0.0345,-0.10771 0.005,-0.0632 0.0507,-0.10112 0.0459,-0.0393 0.10635,-0.0346 0.0618,0.005 0.10111,0.0507 0.0408,0.0446 0.0359,0.10783 -0.005,0.0605 -0.052,0.0996 -0.0459,0.0393 -0.10771,0.0345 z m -0.0268,1.77262 -0.22532,-0.0174 0.109,-1.4069 0.22532,0.0175 z"
         style="font-style:normal;font-variant:normal;font-weight:normal;font-stretch:normal;font-size:2.82222px;line-height:1.25;font-family:Ebrima;-inkscape-font-specification:Ebrima;letter-spacing:0px;word-spacing:0px;fill:#363638;fill-opacity:1;stroke:none;stroke-width:0.076803"
         id="path4338" />
      <path
         d="m 202.36299,145.44316 -0.9924,-0.0883 q -0.0154,0.2352 0.094,0.3736 0.10943,0.1384 0.32082,0.15721 0.23746,0.0211 0.45041,-0.11765 l -0.0188,0.21139 q -0.19727,0.11803 -0.50199,0.0909 -0.29786,-0.0265 -0.45109,-0.23244 -0.15311,-0.20731 -0.12221,-0.55458 0.0292,-0.32805 0.2328,-0.51746 0.20512,-0.19066 0.48101,-0.16611 0.2759,0.0245 0.41101,0.21642 0.13511,0.19187 0.10691,0.50894 z m -0.21362,-0.21131 q 0.016,-0.19504 -0.0677,-0.31178 -0.0823,-0.11661 -0.24704,-0.13127 -0.15922,-0.0142 -0.28054,0.0899 -0.12132,0.10404 -0.16376,0.28565 z"
         style="font-style:normal;font-variant:normal;font-weight:normal;font-stretch:normal;font-size:2.82222px;line-height:1.25;font-family:Ebrima;-inkscape-font-specification:Ebrima;letter-spacing:0px;word-spacing:0px;fill:#363638;fill-opacity:1;stroke:none;stroke-width:0.076803"
         id="path4340" />
      <path
         d="m 203.8099,146.24229 -0.22483,-0.023 0.0819,-0.80059 q 0.0457,-0.4469 -0.28053,-0.4803 -0.16862,-0.0172 -0.2927,0.0989 -0.12258,0.1149 -0.14236,0.30819 l -0.0819,0.8006 -0.22483,-0.023 0.14367,-1.40378 0.22482,0.023 -0.0238,0.23305 0.005,5.6e-4 q 0.18624,-0.24968 0.48784,-0.21881 0.2303,0.0236 0.33702,0.18548 0.10686,0.16055 0.0781,0.44158 z"
         style="font-style:normal;font-variant:normal;font-weight:normal;font-stretch:normal;font-size:2.82222px;line-height:1.25;font-family:Ebrima;-inkscape-font-specification:Ebrima;letter-spacing:0px;word-spacing:0px;fill:#363638;fill-opacity:1;stroke:none;stroke-width:0.076803"
         id="path4342" />
      <path
         d="m 205.43475,146.42517 -0.22455,-0.0256 0.0271,-0.23824 -0.006,-6.1e-4 q -0.18693,0.25334 -0.51281,0.21626 -0.26425,-0.0301 -0.40174,-0.23572 -0.13596,-0.20686 -0.099,-0.53136 0.0396,-0.34778 0.23867,-0.53733 0.19909,-0.18955 0.49073,-0.15636 0.2889,0.0329 0.39449,0.27511 l 0.006,6.1e-4 0.0988,-0.86807 0.22454,0.0255 z m -0.15242,-0.65949 0.0235,-0.20675 q 0.0193,-0.16978 -0.0796,-0.30031 -0.0989,-0.13052 -0.2714,-0.15015 -0.20538,-0.0234 -0.34027,0.11385 -0.13488,0.13721 -0.16511,0.40284 -0.0276,0.24234 0.0686,0.39615 0.0978,0.15259 0.28808,0.17424 0.18757,0.0213 0.31938,-0.10097 0.13317,-0.12215 0.1567,-0.3289 z"
         style="font-style:normal;font-variant:normal;font-weight:normal;font-stretch:normal;font-size:2.82222px;line-height:1.25;font-family:Ebrima;-inkscape-font-specification:Ebrima;letter-spacing:0px;word-spacing:0px;fill:#363638;fill-opacity:1;stroke:none;stroke-width:0.076803"
         id="path4344" />
      <path
         d="m 205.81646,146.41972 0.0294,-0.24074 q 0.16674,0.15782 0.38696,0.18473 0.29546,0.0361 0.31954,-0.16085 0.007,-0.0561 -0.0145,-0.0976 -0.0198,-0.0427 -0.0599,-0.0781 -0.0387,-0.0353 -0.0947,-0.0657 -0.0544,-0.0316 -0.11829,-0.0658 -0.0885,-0.0483 -0.15512,-0.0939 -0.0651,-0.0468 -0.10727,-0.0992 -0.0407,-0.0536 -0.0579,-0.11675 -0.0159,-0.063 -0.006,-0.14373 0.012,-0.0985 0.0664,-0.16821 0.0545,-0.0711 0.13593,-0.11249 0.0816,-0.0428 0.18051,-0.0571 0.10029,-0.0141 0.20288,-0.002 0.18193,0.0222 0.31786,0.10271 l -0.0277,0.22706 q -0.1422,-0.12011 -0.34327,-0.14469 -0.0629,-0.008 -0.11537,0.001 -0.0523,0.008 -0.0924,0.029 -0.0387,0.0216 -0.0638,0.0561 -0.0235,0.0332 -0.0289,0.077 -0.007,0.0547 0.008,0.094 0.016,0.0394 0.0508,0.0728 0.0348,0.0334 0.0867,0.0633 0.0519,0.03 0.11829,0.0658 0.0887,0.0469 0.15785,0.0943 0.0693,0.046 0.11548,0.10019 0.0463,0.0529 0.0661,0.11776 0.0212,0.0651 0.0108,0.14987 -0.0127,0.10396 -0.0686,0.17487 -0.0545,0.0711 -0.13729,0.11233 -0.0828,0.0412 -0.18565,0.0537 -0.10286,0.0124 -0.21229,-0.001 -0.21612,-0.0264 -0.3646,-0.12925 z"
         style="font-style:normal;font-variant:normal;font-weight:normal;font-stretch:normal;font-size:2.82222px;line-height:1.25;font-family:Ebrima;-inkscape-font-specification:Ebrima;letter-spacing:0px;word-spacing:0px;fill:#363638;fill-opacity:1;stroke:none;stroke-width:0.076803"
         id="path4346" />
      <path
         d="m 177.71706,147.88324 c 0,0 12.62302,-2.11667 18.99331,-2.11667 6.3703,0 18.99331,2.11667 18.99331,2.11667 v 5.10267 5.10268 c 0,0 -12.62301,-2.11667 -18.99331,-2.11667 -6.37029,0 -18.99331,2.11667 -18.99331,2.11667 v -5.10268 z"
         style="opacity:0.5;fill:none;fill-opacity:1;stroke:none;stroke-width:1.2;stroke-linecap:round;stroke-linejoin:round;stroke-miterlimit:4;stroke-dasharray:none;stroke-opacity:1;paint-order:stroke fill markers"
         id="path4211" />
      <path
         d="m 186.67202,140.34269 q -0.5519,0.0689 -0.88399,-0.208 -0.3321,-0.27687 -0.40351,-0.84921 l -0.31288,-2.5074 q -0.0714,-0.57234 0.18246,-0.92232 0.25388,-0.34999 0.80578,-0.41885 0.5519,-0.0689 0.88399,0.208 0.3321,0.27686 0.40351,0.84921 l 0.31288,2.5074 q 0.0714,0.57234 -0.18246,0.92232 -0.25388,0.34999 -0.80578,0.41885 z m -0.085,-0.68136 q 0.38837,-0.0485 0.32971,-0.5186 l -0.32477,-2.60279 q -0.0587,-0.47014 -0.44704,-0.42167 -0.38838,0.0485 -0.32971,0.51859 l 0.32477,2.6028 q 0.0587,0.47013 0.44704,0.42167 z"
         style="font-style:normal;font-variant:normal;font-weight:normal;font-stretch:normal;font-size:6.86643px;line-height:1.25;font-family:'Bebas Neue';-inkscape-font-specification:'Bebas Neue';letter-spacing:0px;word-spacing:0px;fill:#363638;fill-opacity:1;stroke:none;stroke-width:0.171661"
         id="path4349" />
      <path
         d="m 187.63868,135.30352 0.72394,-0.0752 0.71656,3.63956 0.0137,-0.001 -0.0268,-3.71126 0.81955,-0.0852 0.73705,3.63743 0.0137,-0.001 -0.0473,-3.70913 0.64882,-0.0674 0.012,4.83114 -0.93566,0.0973 -0.67654,-3.1881 -0.0137,0.001 -0.006,3.25908 -0.99713,0.10364 z"
         style="font-style:normal;font-variant:normal;font-weight:normal;font-stretch:normal;font-size:6.86643px;line-height:1.25;font-family:'Bebas Neue';-inkscape-font-specification:'Bebas Neue';letter-spacing:0px;word-spacing:0px;fill:#363638;fill-opacity:1;stroke:none;stroke-width:0.171661"
         id="path4351" />
      <path
         d="m 191.75879,134.89071 0.75321,-0.0562 0.30635,4.10845 1.23939,-0.0924 0.0511,0.68474 -1.9926,0.14858 z"
         style="font-style:normal;font-variant:normal;font-weight:normal;font-stretch:normal;font-size:6.86643px;line-height:1.25;font-family:'Bebas Neue';-inkscape-font-specification:'Bebas Neue';letter-spacing:0px;word-spacing:0px;fill:#363638;fill-opacity:1;stroke:none;stroke-width:0.171661"
         id="path4353" />
      <path
         d="m 196.63423,139.52314 q -0.54245,0.002 -0.83177,-0.30648 -0.28246,-0.30814 -0.28416,-0.87118 l -0.008,-2.58177 q -0.002,-0.56304 0.27889,-0.87288 0.28745,-0.30986 0.8299,-0.3115 0.54244,-0.002 0.8249,0.3065 0.28932,0.30812 0.29102,0.87116 l 0.001,0.50812 -0.7141,0.002 -0.002,-0.55618 q -0.001,-0.44631 -0.379,-0.44517 -0.37766,0.001 -0.37631,0.44746 l 0.008,2.68476 q 10e-4,0.43945 0.37898,0.43831 0.37766,-0.001 0.37633,-0.44059 l -0.002,-0.73471 0.7141,-0.002 0.002,0.67978 q 0.002,0.56304 -0.28575,0.8729 -0.28059,0.30984 -0.82303,0.31148 z"
         style="font-style:normal;font-variant:normal;font-weight:normal;font-stretch:normal;font-size:6.86643px;line-height:1.25;font-family:'Bebas Neue';-inkscape-font-specification:'Bebas Neue';letter-spacing:0px;word-spacing:0px;fill:#363638;fill-opacity:1;stroke:none;stroke-width:0.171661"
         id="path4355" />
      <path
         d="m 198.47507,134.67908 1.11732,0.0653 q 0.58265,0.034 0.83397,0.32385 0.25172,0.28295 0.21888,0.84504 l -0.0172,0.29475 q -0.0436,0.74717 -0.54881,0.91712 l -7.9e-4,0.0137 q 0.26938,0.0983 0.36424,0.35831 0.10172,0.26044 0.0769,0.68543 l -0.0493,0.84313 q -0.012,0.20565 -0.006,0.33669 0.006,0.12418 0.0541,0.25077 l -0.76773,-0.0448 q -0.0343,-0.11893 -0.042,-0.22256 -0.008,-0.10362 0.008,-0.37095 l 0.0513,-0.87741 q 0.0192,-0.32903 -0.0828,-0.46568 -0.0952,-0.13624 -0.35569,-0.15146 l -0.26048,-0.0152 -0.12014,2.05642 -0.75402,-0.044 z m 0.90807,2.1165 q 0.22621,0.0132 0.34269,-0.0969 0.12334,-0.10972 0.13936,-0.38391 l 0.0216,-0.37016 q 0.0152,-0.26048 -0.0739,-0.38262 -0.0823,-0.12173 -0.28109,-0.13335 l -0.34274,-0.02 -0.0801,1.37095 z"
         style="font-style:normal;font-variant:normal;font-weight:normal;font-stretch:normal;font-size:6.86643px;line-height:1.25;font-family:'Bebas Neue';-inkscape-font-specification:'Bebas Neue';letter-spacing:0px;word-spacing:0px;fill:#363638;fill-opacity:1;stroke:none;stroke-width:0.171661"
         id="path4357" />
      <path
         d="m 201.38646,134.86864 2.05147,0.18651 -0.0622,0.68382 -1.29926,-0.11812 -0.11502,1.26507 1.03258,0.0939 -0.0622,0.68382 -1.03258,-0.0939 -0.13366,1.47021 1.29927,0.11812 -0.0622,0.68383 -2.05147,-0.18651 z"
         style="font-style:normal;font-variant:normal;font-weight:normal;font-stretch:normal;font-size:6.86643px;line-height:1.25;font-family:'Bebas Neue';-inkscape-font-specification:'Bebas Neue';letter-spacing:0px;word-spacing:0px;fill:#363638;fill-opacity:1;stroke:none;stroke-width:0.171661"
         id="path4359" />
      <path
         d="m 203.9655,135.1118 2.04741,0.22678 -0.0756,0.68246 -1.29669,-0.14362 -0.13985,1.26257 1.03053,0.11414 -0.0756,0.68247 -1.03053,-0.11414 -0.16252,1.46731 1.29669,0.14362 -0.0756,0.68247 -2.04741,-0.22677 z"
         style="font-style:normal;font-variant:normal;font-weight:normal;font-stretch:normal;font-size:6.86643px;line-height:1.25;font-family:'Bebas Neue';-inkscape-font-specification:'Bebas Neue';letter-spacing:0px;word-spacing:0px;fill:#363638;fill-opacity:1;stroke:none;stroke-width:0.171661"
         id="path4361" />
      <path
         d="m 206.51763,135.39945 0.74936,0.0946 -0.2538,2.00964 1.20752,-1.88919 0.74936,0.0946 -1.11352,1.63807 0.52491,3.13228 -0.78341,-0.0989 -0.36513,-2.20545 -0.37631,0.56844 -0.19185,1.51915 -0.74936,-0.0946 z"
         style="font-style:normal;font-variant:normal;font-weight:normal;font-stretch:normal;font-size:6.86643px;line-height:1.25;font-family:'Bebas Neue';-inkscape-font-specification:'Bebas Neue';letter-spacing:0px;word-spacing:0px;fill:#363638;fill-opacity:1;stroke:none;stroke-width:0.171661"
         id="path4363" />
      <path
         d="m 177.71706,141.57104 c 0,0 12.62302,-2.11667 18.99331,-2.11667 6.3703,0 18.99331,2.11667 18.99331,2.11667 v 5.10267 5.10268 c 0,0 -12.62301,-2.11667 -18.99331,-2.11667 -6.37029,0 -18.99331,2.11667 -18.99331,2.11667 v -5.10268 z"
         style="opacity:1;fill:none;fill-opacity:1;stroke:none;stroke-width:1.2;stroke-linecap:round;stroke-linejoin:round;stroke-miterlimit:4;stroke-dasharray:none;stroke-opacity:1;paint-order:stroke fill markers"
         id="path4219" />
      <path
         d="m 195.09306,150.61333 h -0.1719 v -1.29867 q -0.0199,0.0199 -0.0587,0.0461 -0.0377,0.0251 -0.0859,0.0503 -0.0472,0.0252 -0.10063,0.0472 -0.0524,0.022 -0.10272,0.0346 v -0.174 q 0.0566,-0.0157 0.11949,-0.0419 0.0639,-0.0273 0.12473,-0.0597 0.0618,-0.0335 0.11635,-0.0692 0.0545,-0.0367 0.0943,-0.0713 h 0.065 z"
         style="font-style:normal;font-variant:normal;font-weight:normal;font-stretch:normal;font-size:2.14664px;line-height:1.25;font-family:Ebrima;-inkscape-font-specification:Ebrima;letter-spacing:0px;word-spacing:0px;fill:#363638;fill-opacity:1;stroke:none;stroke-width:0.0536662"
         id="path4311" />
      <path
         d="m 196.54371,149.77166 q 0,0.20649 -0.0409,0.3679 -0.0409,0.16037 -0.11949,0.27253 -0.0786,0.1111 -0.19181,0.1698 -0.1132,0.0576 -0.25785,0.0576 -0.14884,0 -0.26204,-0.0524 v -0.16456 q 0.12473,0.0702 0.26623,0.0702 0.10168,0 0.18134,-0.0419 0.0807,-0.0419 0.13626,-0.12159 0.0556,-0.0807 0.0849,-0.1981 0.0293,-0.1174 0.0293,-0.26938 h -0.004 q -0.0964,0.19391 -0.33541,0.19391 -0.0964,0 -0.17714,-0.0335 -0.0807,-0.0346 -0.13941,-0.0964 -0.0587,-0.0629 -0.0912,-0.14884 -0.0325,-0.0859 -0.0325,-0.18972 0,-0.1111 0.0356,-0.20334 0.0367,-0.0922 0.10062,-0.15828 0.065,-0.0671 0.15303,-0.10376 0.0891,-0.0367 0.19392,-0.0367 0.1132,0 0.20019,0.0461 0.0881,0.0451 0.1478,0.13312 0.0597,0.087 0.0912,0.21487 0.0314,0.12788 0.0314,0.29244 z m -0.18552,-0.15408 q 0,-0.087 -0.0231,-0.15828 -0.022,-0.0713 -0.0618,-0.12158 -0.0398,-0.0514 -0.0954,-0.0786 -0.0545,-0.0283 -0.11949,-0.0283 -0.0618,0 -0.1153,0.0251 -0.0535,0.0241 -0.0933,0.0692 -0.0388,0.044 -0.0618,0.10586 -0.022,0.0608 -0.022,0.13312 0,0.0797 0.021,0.14255 0.022,0.0629 0.0618,0.10691 0.0398,0.043 0.0954,0.066 0.0566,0.0231 0.12473,0.0231 0.0597,0 0.11216,-0.022 0.0535,-0.0231 0.0922,-0.0608 0.0398,-0.0388 0.0618,-0.0901 0.0231,-0.0524 0.0231,-0.11215 z"
         style="font-style:normal;font-variant:normal;font-weight:normal;font-stretch:normal;font-size:2.14664px;line-height:1.25;font-family:Ebrima;-inkscape-font-specification:Ebrima;letter-spacing:0px;word-spacing:0px;fill:#363638;fill-opacity:1;stroke:none;stroke-width:0.0536662"
         id="path4313" />
      <path
         d="m 196.74287,150.19407 q 0,-0.0597 0.0189,-0.11949 0.0189,-0.0608 0.0535,-0.1132 0.0356,-0.0524 0.087,-0.0954 0.0524,-0.043 0.11844,-0.0681 -0.0975,-0.0545 -0.15513,-0.1394 -0.0576,-0.0859 -0.0576,-0.18972 0,-0.0828 0.0314,-0.15303 0.0325,-0.0702 0.0891,-0.12159 0.0566,-0.0514 0.13417,-0.0797 0.0776,-0.0293 0.1677,-0.0293 0.0912,0 0.16876,0.0293 0.0776,0.0294 0.13416,0.0807 0.0566,0.0514 0.0881,0.12158 0.0314,0.0702 0.0314,0.15199 0,0.10377 -0.0576,0.18972 -0.0576,0.0849 -0.15303,0.1394 0.065,0.0252 0.11635,0.0681 0.0514,0.043 0.086,0.0954 0.0356,0.0524 0.0545,0.1132 0.0189,0.0597 0.0189,0.11949 0,0.0985 -0.0356,0.18028 -0.0356,0.0818 -0.10063,0.14046 -0.0639,0.0577 -0.15408,0.0901 -0.0891,0.0325 -0.19705,0.0325 -0.10692,0 -0.19601,-0.0325 -0.0891,-0.0325 -0.15408,-0.0901 -0.065,-0.0587 -0.10167,-0.14046 -0.0356,-0.0817 -0.0356,-0.18028 z m 0.18657,-0.0147 q 0,0.0702 0.021,0.12683 0.022,0.0566 0.0608,0.0964 0.0398,0.0398 0.0954,0.0618 0.0566,0.021 0.12473,0.021 0.066,0 0.12159,-0.022 0.0556,-0.022 0.0954,-0.0618 0.0409,-0.0398 0.0629,-0.0964 0.0231,-0.0566 0.0231,-0.12578 0,-0.0629 -0.022,-0.11739 -0.021,-0.0555 -0.0608,-0.0975 -0.0398,-0.0419 -0.0954,-0.066 -0.0556,-0.0241 -0.12473,-0.0241 -0.065,0 -0.12054,0.0231 -0.0545,0.022 -0.0954,0.0629 -0.0398,0.0398 -0.0629,0.0964 -0.0231,0.0555 -0.0231,0.12263 z m 0.0535,-0.69703 q 0,0.0535 0.0189,0.0996 0.0199,0.0451 0.0535,0.0797 0.0346,0.0335 0.0797,0.0535 0.0451,0.0189 0.0964,0.0189 0.0514,0 0.0964,-0.0199 0.0461,-0.0199 0.0797,-0.0535 0.0335,-0.0346 0.0535,-0.0797 0.0199,-0.0461 0.0199,-0.0985 0,-0.0545 -0.0199,-0.10062 -0.0189,-0.0461 -0.0524,-0.0797 -0.0335,-0.0335 -0.0797,-0.0524 -0.0451,-0.0199 -0.0975,-0.0199 -0.0556,0 -0.10167,0.0199 -0.0451,0.0199 -0.0786,0.0545 -0.0325,0.0335 -0.0503,0.0797 -0.0178,0.0461 -0.0178,0.0985 z"
         style="font-style:normal;font-variant:normal;font-weight:normal;font-stretch:normal;font-size:2.14664px;line-height:1.25;font-family:Ebrima;-inkscape-font-specification:Ebrima;letter-spacing:0px;word-spacing:0px;fill:#363638;fill-opacity:1;stroke:none;stroke-width:0.0536662"
         id="path4315" />
      <path
         d="m 198.61489,149.50438 q 0,-0.0692 -0.022,-0.12054 -0.021,-0.0514 -0.0587,-0.0849 -0.0367,-0.0346 -0.087,-0.0514 -0.0503,-0.0168 -0.10901,-0.0168 -0.0503,0 -0.0985,0.0136 -0.0482,0.0136 -0.0943,0.0377 -0.0451,0.0241 -0.088,0.0576 -0.0419,0.0335 -0.0786,0.0744 v -0.18447 q 0.0723,-0.0702 0.16142,-0.10692 0.0901,-0.0377 0.21906,-0.0377 0.0922,0 0.17085,0.0273 0.0786,0.0262 0.13626,0.0776 0.0576,0.0514 0.0901,0.12682 0.0335,0.0755 0.0335,0.17295 0,0.0891 -0.021,0.16142 -0.0199,0.0723 -0.0618,0.13626 -0.0409,0.0639 -0.10376,0.12264 -0.0629,0.0587 -0.14779,0.11949 -0.10587,0.0755 -0.17505,0.12892 -0.0681,0.0535 -0.10901,0.10062 -0.0398,0.0461 -0.0566,0.0933 -0.0157,0.0461 -0.0157,0.10691 h 0.74839 v 0.15408 h -0.92762 v -0.0744 q 0,-0.0964 0.021,-0.1698 0.021,-0.0734 0.0692,-0.1394 0.0482,-0.066 0.12578,-0.13207 0.0786,-0.066 0.19181,-0.14884 0.0818,-0.0587 0.13626,-0.11216 0.0555,-0.0534 0.0891,-0.10691 0.0335,-0.0535 0.0472,-0.10796 0.0147,-0.0556 0.0147,-0.11739 z"
         style="font-style:normal;font-variant:normal;font-weight:normal;font-stretch:normal;font-size:2.14664px;line-height:1.25;font-family:Ebrima;-inkscape-font-specification:Ebrima;letter-spacing:0px;word-spacing:0px;fill:#363638;fill-opacity:1;stroke:none;stroke-width:0.0536662"
         id="path4317" />
      <g
         id="g4229"
         transform="translate(212.07867,-107.76094)">
        <path
           id="path4225"
           style="fill:#363638;fill-opacity:1;stroke:none;stroke-width:1.07466;stroke-linecap:round;stroke-linejoin:round;stroke-miterlimit:4;stroke-dasharray:none;stroke-opacity:1;paint-order:stroke fill markers"
           d="m -29.943431,248.04954 -1.238142,-0.45307 -1.270611,0.35188 0.04829,-1.31755 -0.727293,-1.09969 1.267986,-0.36122 0.821119,-1.03152 0.735369,1.09431 1.234772,0.46217 -0.813504,1.03754 z" />
        <path
           d="m 1.5230865,248.04954 -1.23814126,-0.45307 -1.27061086,0.35188 0.0482903,-1.31755 -0.72729278,-1.09969 1.26798627,-0.36122 0.82111919,-1.03152 0.73536834,1.09431 1.2347724,0.46217 -0.8135037,1.03754 z"
           style="fill:#363638;fill-opacity:1;stroke:none;stroke-width:1.07466;stroke-linecap:round;stroke-linejoin:round;stroke-miterlimit:4;stroke-dasharray:none;stroke-opacity:1;paint-order:stroke fill markers"
           id="path4227" />
      </g>
    </g>
  </g>
</svg>
