<?xml version="1.0" encoding="UTF-8" standalone="no"?>
<svg
   xmlns:dc="http://purl.org/dc/elements/1.1/"
   xmlns:cc="http://creativecommons.org/ns#"
   xmlns:rdf="http://www.w3.org/1999/02/22-rdf-syntax-ns#"
   xmlns:svg="http://www.w3.org/2000/svg"
   xmlns="http://www.w3.org/2000/svg"
   id="svg8"
   version="1.1"
   viewBox="0 0 148 105"
   height="105mm"
   width="148mm">
  <defs
     id="defs2" />
  <metadata
     id="metadata5">
    <rdf:RDF>
      <cc:Work
         rdf:about="">
        <dc:format>image/svg+xml</dc:format>
        <dc:type
           rdf:resource="http://purl.org/dc/dcmitype/StillImage" />
        <dc:title></dc:title>
      </cc:Work>
    </rdf:RDF>
  </metadata>
  <g
     transform="translate(0,-192)"
     style="display:inline;opacity:1"
     id="layer2">
    <g
       transform="matrix(2.0650796,0,0,2.0650796,-255.20063,-54.27872)"
       id="g927">
      <path
         style="opacity:1;fill:#e6493c;fill-opacity:1;stroke:none;stroke-width:8.33333302;stroke-linecap:round;stroke-miterlimit:4;stroke-dasharray:none;stroke-opacity:1"
         d="m 134.70584,137.94389 a 6.013564,6.013564 0 0 0 -6.01359,6.01358 6.013564,6.013564 0 0 0 6.01359,6.01359 6.013564,6.013564 0 0 0 6.01359,-6.01359 6.013564,6.013564 0 0 0 -6.01359,-6.01358 z m 0.0667,1.12758 a 0.79345636,0.79345636 0 0 1 0.79375,0.79375 0.79345636,0.79345636 0 0 1 -0.79375,0.79323 0.79345636,0.79345636 0 0 1 -0.79323,-0.79323 0.79345636,0.79345636 0 0 1 0.79323,-0.79375 z m -0.0475,2.1549 c 0.63785,0.006 1.91685,1.42366 1.81901,1.67742 -0.0978,0.25376 -1.20509,0 -1.20509,0 0,0 -0.37203,3.35616 -0.63769,3.35432 -0.26566,-0.002 -0.59066,-3.35432 -0.59066,-3.35432 0,0 -1.02316,0.20884 -1.11001,0 -0.0868,-0.20884 1.08659,-1.6833 1.72444,-1.67742 z m -4.14135,0.47646 a 0.79345636,0.79345636 0 0 1 0.72761,0.39894 0.79345636,0.79345636 0 0 1 -0.29508,1.08262 0.79345636,0.79345636 0 0 1 -1.08262,-0.29507 0.79345636,0.79345636 0 0 1 0.29456,-1.08262 0.79345636,0.79345636 0 0 1 0.35553,-0.10387 z m 8.21242,0 a 0.79345636,0.79345636 0 0 1 0.4346,0.10387 0.79345636,0.79345636 0 0 1 0.29455,1.08262 0.79345636,0.79345636 0 0 1 -1.08262,0.29507 0.79345636,0.79345636 0 0 1 -0.29455,-1.08262 0.79345636,0.79345636 0 0 1 0.64802,-0.39894 z m -7.03936,1.86758 c 0.7296,0.006 1.88955,0.50086 1.91254,0.68317 0.0283,0.2244 -0.96376,0.55087 -0.96376,0.55087 0,0 1.38199,3.07187 1.15238,3.20549 -0.2297,0.13349 -2.21899,-2.59519 -2.21899,-2.59519 0,0 -0.83506,0.76962 -1.04593,0.59789 -0.21091,-0.17171 0.19601,-2.03717 0.74673,-2.35902 0.10327,-0.0603 0.24866,-0.0847 0.41703,-0.0832 z m 5.94537,0 c 0.16837,-0.001 0.31376,0.0229 0.41703,0.0832 0.55072,0.32185 0.95763,2.18731 0.74672,2.35902 -0.21088,0.17173 -1.04593,-0.59789 -1.04593,-0.59789 0,0 -1.98928,2.72868 -2.21898,2.59519 -0.22962,-0.13362 1.15238,-3.20549 1.15238,-3.20549 0,0 -0.99205,-0.32647 -0.96376,-0.55087 0.023,-0.18231 1.18293,-0.67674 1.91254,-0.68317 z"
         id="path826" />
      <text
         xml:space="preserve"
         style="font-style:normal;font-variant:normal;font-weight:bold;font-stretch:normal;font-size:14.12358189px;line-height:1.25;font-family:Arial;-inkscape-font-specification:'Arial, Bold';font-variant-ligatures:normal;font-variant-caps:normal;font-variant-numeric:normal;font-feature-settings:normal;text-align:start;letter-spacing:0px;word-spacing:0px;writing-mode:lr-tb;text-anchor:start;fill:#e6493c;fill-opacity:1;stroke:none;stroke-width:0.35308954"
         x="141.72694"
         y="148.71008"
         id="text913"><tspan
           id="tspan911"
           x="141.72694"
           y="148.71008"
           style="font-style:normal;font-variant:normal;font-weight:bold;font-stretch:normal;font-size:14.12358189px;font-family:Arial;-inkscape-font-specification:'Arial, Bold';font-variant-ligatures:normal;font-variant-caps:normal;font-variant-numeric:normal;font-feature-settings:normal;text-align:start;writing-mode:lr-tb;text-anchor:start;fill:#e6493c;fill-opacity:1;stroke-width:0.35308954">Grupily</tspan></text>
    </g>
  </g>
</svg>
