<?xml version="1.0" standalone="no"?>
<!DOCTYPE svg PUBLIC "-//W3C//DTD SVG 20010904//EN"
 "http://www.w3.org/TR/2001/REC-SVG-20010904/DTD/svg10.dtd">
<svg version="1.0" xmlns="http://www.w3.org/2000/svg"
 width="2000.000000pt" height="2093.000000pt" viewBox="0 0 2000.000000 2093.000000"
 preserveAspectRatio="xMidYMid meet">

<g transform="translate(0.000000,2093.000000) scale(0.100000,-0.100000)"
fill="#000000" stroke="none">
<path d="M12401 17225 c-167 -47 -349 -235 -434 -447 -33 -82 -73 -243 -82
-334 l-8 -68 -24 30 c-63 75 -157 162 -200 184 -131 66 -295 -6 -381 -169 -35
-64 -72 -200 -72 -260 0 -23 -3 -41 -7 -41 -5 0 -31 23 -60 50 -132 123 -383
266 -548 311 -94 25 -220 22 -295 -7 -68 -26 -227 -135 -301 -206 -108 -102
-204 -266 -245 -418 -22 -79 -24 -225 -5 -295 49 -179 186 -328 370 -403 29
-12 57 -22 62 -22 4 0 19 -4 34 -10 l26 -10 -59 -87 c-125 -185 -183 -303
-214 -432 -58 -246 58 -447 286 -492 83 -17 246 28 339 93 15 11 27 16 28 11
0 -4 0 -66 -1 -138 -3 -369 148 -596 439 -661 93 -21 246 -14 344 15 263 77
502 281 689 587 28 47 55 87 58 89 3 2 19 -26 35 -63 73 -173 176 -302 284
-356 212 -108 378 -82 518 80 26 30 50 54 53 54 6 0 90 -136 90 -146 0 -10
121 -180 158 -220 49 -55 156 -135 212 -158 25 -10 54 -22 65 -27 91 -40 279
-51 376 -23 134 38 212 95 290 210 27 41 53 74 58 74 4 0 23 -17 42 -38 50
-57 97 -88 175 -119 63 -25 81 -27 204 -27 124 0 141 2 210 28 103 39 209 106
269 171 52 57 136 190 166 260 70 169 92 386 56 571 -11 61 -21 115 -21 121 0
6 31 13 69 17 37 3 106 17 152 30 164 48 264 104 392 219 68 61 167 174 167
191 0 3 11 29 24 58 93 201 116 359 80 548 -31 163 -90 284 -207 421 -140 163
-314 259 -523 289 -95 13 -201 0 -339 -39 -52 -16 -97 -26 -99 -24 -2 2 5 27
16 55 76 202 60 395 -44 499 -55 55 -180 121 -278 145 -125 31 -356 6 -490
-53 -250 -110 -380 -213 -552 -435 l-60 -77 -61 120 c-98 196 -223 309 -338
309 -67 0 -155 -26 -237 -71 -41 -21 -75 -39 -76 -39 -2 0 -6 28 -10 63 -21
209 -143 432 -272 497 -62 31 -209 38 -293 15z m232 -149 c48 -18 68 -36 112
-101 63 -95 87 -175 95 -315 8 -136 20 -176 60 -199 23 -12 30 -12 70 7 25 12
74 40 110 62 36 23 96 50 134 62 59 18 73 19 109 8 84 -25 181 -158 256 -355
35 -89 63 -125 101 -125 39 0 65 24 124 113 68 103 166 218 237 278 282 238
613 313 853 193 99 -49 146 -115 146 -204 0 -65 -29 -169 -69 -256 -50 -106
-54 -158 -15 -197 40 -40 67 -40 219 -1 198 51 210 53 308 54 132 0 257 -45
376 -135 67 -51 100 -86 163 -176 82 -116 120 -247 121 -409 0 -104 -23 -190
-86 -319 -55 -112 -204 -253 -328 -311 -122 -56 -232 -81 -357 -81 -113 1
-114 0 -143 -28 -35 -36 -36 -60 -4 -130 69 -148 84 -404 31 -566 -32 -101
-114 -239 -183 -310 -114 -117 -296 -168 -478 -134 -82 15 -127 40 -177 100
-103 124 -103 124 -148 124 -37 0 -47 -6 -77 -40 -18 -21 -36 -51 -40 -65 -9
-34 -75 -123 -116 -154 -131 -100 -334 -112 -503 -29 -103 50 -211 169 -293
323 -40 75 -120 189 -144 204 -65 43 -122 28 -160 -42 -75 -137 -220 -184
-379 -123 -116 45 -195 149 -267 354 -49 141 -69 166 -129 167 -41 0 -85 -42
-115 -110 -46 -106 -170 -287 -267 -390 -46 -49 -187 -157 -252 -194 -109 -61
-170 -77 -304 -83 -96 -4 -132 -2 -180 12 -172 49 -255 146 -296 345 -18 89
-19 106 -7 258 12 158 12 163 -8 190 -30 41 -68 40 -128 -3 -66 -48 -220 -98
-305 -99 -105 -1 -197 60 -220 146 -35 127 25 293 208 578 30 47 61 99 68 117
37 87 0 142 -114 173 -114 32 -199 78 -269 146 -88 86 -116 150 -121 274 -3
84 -1 105 26 187 41 128 92 214 181 304 251 253 443 255 861 8 125 -74 252
-195 294 -281 21 -43 35 -58 67 -72 22 -10 41 -16 42 -15 1 2 10 19 19 37 12
23 15 39 9 50 -5 9 -14 60 -21 113 -30 236 55 434 195 455 81 12 138 -34 271
-215 97 -133 126 -155 169 -127 35 23 43 47 50 162 12 186 54 373 107 478 57
112 170 241 249 281 81 43 192 56 262 31z"/>
<path d="M3833 15418 c-29 -14 -34 -30 -22 -70 11 -39 33 -210 49 -388 17
-199 30 -309 45 -390 8 -41 19 -115 25 -165 6 -49 17 -126 25 -170 7 -44 17
-107 20 -140 4 -33 15 -114 26 -180 27 -172 27 -211 1 -238 -18 -17 -26 -19
-40 -11 -21 13 -71 102 -72 127 0 9 -4 25 -10 35 -5 9 -21 67 -35 127 -14 61
-30 126 -35 145 -5 19 -16 73 -25 120 -9 47 -23 114 -30 150 -8 36 -16 79 -20
95 -18 95 -35 188 -44 245 -6 36 -18 101 -26 145 -8 44 -24 139 -35 210 -12
72 -27 165 -35 208 -8 42 -15 86 -15 96 0 43 -66 67 -97 35 -14 -13 -14 -24
-4 -82 30 -174 74 -430 78 -457 2 -16 10 -64 18 -105 8 -41 21 -115 30 -165
18 -97 33 -172 66 -330 12 -55 25 -118 30 -140 30 -150 61 -275 80 -322 45
-116 62 -146 105 -192 37 -40 46 -44 86 -44 55 0 111 32 135 76 22 41 20 114
-6 312 -12 83 -30 215 -40 295 -11 80 -24 165 -29 190 -6 25 -13 74 -17 110
-3 36 -15 117 -26 181 -10 64 -19 140 -19 168 0 89 -39 408 -56 458 -14 41
-38 73 -54 72 -3 0 -15 -5 -27 -11z"/>
<path d="M4815 15409 c-16 -5 -91 -16 -165 -23 -304 -32 -350 -39 -366 -57
-15 -17 -14 -20 6 -49 17 -24 28 -30 44 -25 40 12 146 28 151 23 3 -3 18 -99
35 -214 38 -273 67 -470 90 -624 11 -69 22 -150 25 -180 4 -30 15 -104 25
-165 10 -60 22 -150 26 -198 7 -93 16 -107 64 -107 41 0 52 23 41 87 -5 32
-12 90 -16 128 -10 109 -110 800 -119 826 -3 8 -15 95 -26 194 -11 99 -24 198
-30 220 -6 27 -5 42 2 46 6 4 45 10 88 13 93 9 178 30 198 50 13 13 13 18 -2
40 -18 28 -25 29 -71 15z"/>
<path d="M2713 15389 c-23 -11 -57 -35 -77 -52 -39 -36 -39 -21 -2 -177 9 -36
27 -159 41 -275 14 -115 29 -232 35 -260 5 -27 12 -77 15 -110 4 -33 15 -112
25 -175 10 -63 24 -146 30 -185 6 -38 15 -97 20 -130 11 -69 31 -188 61 -360
23 -131 49 -188 93 -199 38 -9 109 28 161 86 99 110 144 403 91 594 -28 100
-79 207 -128 265 -46 55 -114 109 -138 109 -18 0 -11 27 24 97 86 172 114 344
81 490 -33 142 -96 252 -166 289 -39 20 -116 17 -166 -7z m132 -83 c41 -29 75
-116 100 -259 20 -117 7 -194 -62 -354 -54 -126 -61 -119 -83 87 -12 105 -39
273 -66 407 -19 98 -19 102 19 118 41 18 68 18 92 1z m86 -894 c35 -26 102
-111 126 -162 79 -167 83 -432 8 -597 -21 -47 -68 -93 -81 -80 -3 2 -11 47
-19 98 -14 91 -40 253 -70 429 -46 276 -55 332 -49 341 8 13 42 2 85 -29z"/>
<path d="M11963 13538 c-44 -60 -162 -238 -191 -289 -10 -19 -54 -95 -97 -169
-87 -150 -173 -308 -278 -509 -48 -92 -70 -145 -71 -172 -1 -68 60 -103 104
-59 11 11 56 93 101 182 45 90 98 192 119 228 20 36 61 110 90 165 29 55 56
105 60 110 4 6 35 64 70 130 34 66 79 152 100 190 95 180 112 216 106 230 -3
9 -18 15 -39 15 -30 0 -40 -7 -74 -52z"/>
<path d="M12294 13482 c-30 -29 -84 -126 -229 -407 -43 -82 -81 -154 -85 -160
-4 -5 -33 -59 -65 -120 -53 -100 -162 -286 -275 -470 -84 -136 -297 -512 -303
-534 -8 -31 7 -67 33 -81 42 -23 56 -4 254 345 34 61 111 190 171 288 199 323
266 440 369 637 181 349 232 473 210 508 -18 28 -49 26 -80 -6z"/>
<path d="M12671 13428 c-19 -19 -105 -169 -354 -613 -81 -144 -172 -325 -327
-650 -87 -184 -92 -206 -49 -233 19 -12 25 -11 48 6 14 10 32 30 39 43 17 33
124 262 152 329 25 57 148 300 205 405 18 33 46 85 62 115 17 30 52 96 80 145
27 50 92 170 142 268 75 145 90 181 81 192 -18 22 -56 18 -79 -7z"/>
<path d="M13047 13290 c-46 -37 -65 -68 -301 -500 -31 -58 -41 -87 -42 -125 0
-27 -4 -61 -9 -75 l-7 -25 24 23 c13 12 33 22 44 22 44 0 94 79 253 405 107
217 119 250 105 273 -16 25 -37 25 -67 2z"/>
<path d="M11298 13193 c-10 -2 -30 -30 -46 -61 -37 -76 -92 -175 -167 -302
-84 -141 -175 -300 -175 -305 0 -2 -20 -38 -45 -79 -25 -42 -45 -78 -45 -80 0
-2 -19 -35 -42 -72 -36 -58 -43 -77 -43 -122 0 -37 3 -48 10 -39 6 7 24 19 41
25 26 11 53 53 175 265 79 139 179 313 223 387 71 123 186 340 186 353 0 3 -7
13 -16 21 -16 16 -24 17 -56 9z"/>
<path d="M14234 13090 c-31 -12 -57 -53 -125 -197 -60 -128 -127 -261 -202
-403 -21 -41 -73 -140 -114 -220 -42 -80 -86 -163 -98 -185 -67 -120 -425
-845 -455 -922 -7 -17 -27 -25 -107 -43 -115 -26 -218 -54 -290 -80 l-52 -20
-98 49 c-293 145 -508 225 -737 273 -146 31 -159 32 -406 32 -140 1 -275 -2
-298 -7 l-44 -8 62 118 63 117 -22 17 c-35 28 -61 10 -111 -74 -25 -42 -47
-76 -50 -77 -3 0 -18 26 -35 58 -37 71 -130 167 -189 193 -59 26 -188 29 -233
6 -66 -35 -98 -107 -67 -155 26 -40 41 -49 129 -72 128 -34 178 -57 226 -106
24 -25 53 -49 63 -53 16 -7 7 -15 -52 -45 -39 -21 -97 -63 -130 -94 -32 -32
-89 -82 -127 -112 -103 -83 -273 -256 -439 -445 -141 -161 -255 -287 -428
-472 -42 -45 -122 -137 -178 -205 -55 -68 -109 -132 -118 -143 -50 -61 -282
-383 -347 -483 -41 -64 -91 -128 -110 -142 -19 -14 -40 -38 -47 -54 -6 -17
-25 -44 -40 -62 -34 -39 -58 -93 -58 -132 0 -19 -35 -88 -101 -198 -114 -191
-235 -412 -278 -506 -16 -35 -40 -88 -54 -118 -141 -305 -326 -946 -402 -1389
-46 -269 -61 -822 -30 -1119 32 -301 120 -561 246 -727 55 -72 168 -187 231
-232 82 -61 266 -136 550 -226 l98 -30 -5 -36 c-2 -20 -7 -92 -10 -161 -9
-191 -33 -468 -55 -640 -20 -162 -54 -316 -63 -290 -2 8 -15 94 -27 190 -26
210 -43 284 -75 326 -41 54 -111 49 -163 -10 -35 -40 -51 -105 -53 -209 -1
-40 -3 -63 -6 -52 -2 11 -13 50 -24 87 -22 76 -61 118 -110 118 -67 0 -134
-62 -144 -134 -9 -58 11 -235 35 -322 23 -81 25 -132 5 -158 -13 -18 -16 -18
-39 -2 -50 32 -83 128 -106 306 -30 225 -92 304 -208 266 -96 -32 -178 -145
-189 -259 -11 -118 58 -301 168 -446 101 -135 162 -174 380 -245 196 -64 259
-73 353 -52 78 18 167 75 205 131 13 19 32 72 43 117 12 46 26 88 32 93 6 6
11 24 12 40 0 17 17 86 37 155 50 173 81 406 107 800 26 390 23 365 45 363 11
-1 52 -6 90 -9 69 -7 70 -8 130 -68 83 -84 183 -215 238 -311 80 -137 109
-314 87 -515 -19 -180 -50 -276 -161 -505 -84 -173 -107 -213 -191 -342 -101
-153 -176 -233 -338 -362 -214 -171 -229 -181 -288 -181 -138 0 -242 -99 -166
-159 66 -52 184 -66 654 -81 173 -5 412 -14 530 -20 129 -6 249 -6 300 -1 46
5 110 5 143 1 32 -5 68 -7 80 -5 141 26 193 90 132 163 -52 62 -290 153 -505
193 -232 43 -654 24 -865 -38 -17 -5 -17 -4 -5 9 8 7 33 27 55 43 22 17 44 33
50 38 5 4 55 40 110 81 191 140 296 272 429 535 129 256 178 420 192 646 14
237 -42 435 -186 655 -43 65 -128 172 -142 178 -5 2 -8 8 -8 14 0 6 59 8 173
3 153 -6 333 1 532 21 l60 6 130 -114 c459 -404 587 -652 602 -1165 11 -359
-55 -615 -226 -877 -39 -61 -51 -88 -51 -118 0 -21 -7 -49 -16 -63 -39 -59 56
-111 281 -152 143 -26 164 -28 455 -28 327 1 446 12 567 55 32 12 80 25 107
31 64 12 86 32 86 79 0 67 -77 149 -170 183 -110 39 -217 51 -475 51 -273 1
-395 -13 -526 -60 -37 -13 -80 -24 -98 -24 l-31 0 43 68 c73 114 147 309 184
482 25 118 24 450 -1 600 -40 241 -101 408 -212 576 -40 60 -41 64 -14 64 12
0 32 12 46 27 39 42 194 360 288 592 19 46 40 87 47 92 8 4 32 5 55 2 48 -6
66 2 153 71 69 54 171 183 204 256 76 170 76 353 2 875 -45 311 -56 469 -54
748 1 237 4 267 23 267 20 0 90 41 125 74 54 50 173 214 218 301 51 99 80 168
108 265 l23 75 6 -75 c3 -41 13 -199 21 -350 9 -151 22 -369 30 -485 75 -1094
81 -1212 95 -1725 15 -561 30 -824 75 -1305 8 -88 15 -167 15 -175 -1 -33 -18
16 -40 115 -85 369 -108 434 -180 499 -35 31 -47 36 -90 36 -44 0 -54 -4 -91
-40 l-42 -40 6 -67 c7 -81 34 -188 81 -315 19 -51 37 -109 41 -128 l6 -35 -21
24 c-11 13 -37 54 -57 90 -60 110 -141 226 -174 250 -34 25 -101 38 -144 27
-14 -4 -43 -22 -64 -41 -74 -67 -77 -156 -10 -325 47 -116 242 -388 347 -481
109 -96 306 -163 408 -138 61 16 153 98 182 164 29 64 28 116 -2 363 -44 361
-56 540 -66 1037 -17 822 -33 1185 -90 1960 -11 149 -29 410 -40 580 -11 171
-27 391 -36 490 -9 99 -17 206 -18 238 -1 48 -5 62 -24 78 l-23 18 113 133
c160 188 199 236 243 298 69 98 191 243 270 320 88 86 141 155 279 363 195
295 275 517 276 762 0 297 -87 546 -282 808 -32 43 -58 79 -58 81 0 2 88 7
196 11 180 7 199 9 229 30 l33 22 -18 41 c-14 30 -27 43 -47 48 -15 4 -140 2
-278 -4 -218 -10 -252 -10 -272 3 -13 9 -23 19 -23 24 0 9 154 25 460 46 118
9 222 18 230 20 9 3 24 18 33 35 16 27 17 32 2 60 -27 51 -46 55 -238 41 -246
-17 -419 -37 -540 -62 -96 -20 -107 -20 -127 -6 -22 15 -22 16 16 26 145 38
489 100 699 126 158 19 159 19 175 50 9 17 28 29 54 35 78 20 85 29 22 28 -41
0 -63 4 -70 14 -31 42 -87 41 -351 -2 -96 -16 -99 -15 -81 18 9 15 51 101 95
192 44 91 102 206 128 255 27 50 84 158 127 240 44 83 96 179 116 215 20 36
62 112 92 170 246 465 313 620 318 730 3 51 2 57 -16 74 -17 18 -20 18 -50 6z
m-3308 -1538 c42 -35 73 -66 71 -69 -3 -2 -36 6 -74 20 -37 14 -93 28 -123 32
-77 10 -100 21 -100 45 0 27 26 77 42 83 21 7 104 -43 184 -111z m889 -342
c142 -17 362 -73 490 -127 295 -123 420 -186 577 -289 153 -101 335 -271 428
-401 74 -104 161 -278 189 -381 11 -41 25 -129 32 -197 18 -194 -5 -311 -92
-471 -60 -111 -212 -353 -284 -454 -33 -47 -85 -128 -116 -180 -76 -130 -176
-252 -553 -669 -107 -119 -186 -194 -320 -304 -22 -18 -49 -41 -60 -53 -12
-12 -41 -32 -66 -44 -42 -22 -56 -23 -225 -23 -764 2 -1210 153 -1981 669
-230 154 -473 387 -617 592 -20 28 -37 58 -37 65 0 7 11 24 24 38 13 14 27 36
31 50 28 87 364 572 579 832 92 112 123 147 270 306 44 47 167 187 274 311
248 286 267 307 431 474 124 126 144 143 224 182 100 49 188 71 332 84 113 10
336 5 470 -10z m-2497 -2896 c72 -98 155 -210 184 -249 98 -132 311 -430 356
-500 59 -91 140 -262 187 -395 52 -146 91 -217 137 -247 71 -48 130 -18 338
173 30 28 113 99 183 158 70 60 144 128 164 152 20 24 38 42 40 41 1 -2 -4
-56 -12 -122 -23 -187 -3 -281 76 -349 l39 -33 -29 -100 c-43 -150 -83 -365
-160 -858 -11 -66 -28 -154 -39 -195 -11 -41 -18 -87 -15 -102 4 -23 -42 -270
-67 -358 -17 -60 -12 -91 46 -255 104 -302 164 -479 164 -490 0 -20 -308 -65
-580 -86 -192 -15 -677 -6 -840 16 -63 8 -118 15 -122 15 -5 0 -8 53 -8 118 0
64 -7 302 -16 527 -21 517 -20 1348 0 1910 9 231 16 538 16 682 0 229 -2 264
-16 278 -19 19 -62 13 -80 -10 -7 -9 -13 -114 -18 -282 -3 -148 -14 -441 -22
-653 -19 -473 -22 -1415 -6 -1825 17 -422 22 -698 14 -712 -6 -9 -42 -1 -137
33 -72 25 -157 53 -190 63 -87 27 -203 80 -255 117 -65 46 -191 179 -233 246
-107 166 -157 387 -180 783 -6 100 13 551 29 700 45 423 247 1158 426 1555 83
184 242 480 328 610 l23 36 72 -106 c40 -58 131 -187 203 -286z m353 -80 c193
-143 546 -362 736 -457 99 -50 361 -161 406 -172 15 -4 27 -10 27 -14 0 -9
-194 -200 -240 -238 -34 -27 -51 -43 -205 -184 -80 -74 -144 -124 -150 -118
-2 3 -32 79 -66 169 -100 269 -169 390 -401 706 -189 259 -384 529 -393 543
-5 8 37 -26 92 -75 56 -50 143 -122 194 -160z m2579 -691 c0 -45 -115 -244
-222 -385 -64 -84 -113 -128 -146 -128 -65 0 -324 285 -395 435 -1 2 115 6
258 8 276 4 308 8 433 61 71 30 72 30 72 9z m-943 -93 c87 -39 133 -167 100
-274 -9 -29 -23 -61 -31 -71 -13 -18 -13 -15 -6 25 10 52 11 155 2 188 -11 36
-60 81 -102 92 -23 6 -40 17 -43 29 -9 37 16 40 80 11z m460 -522 c21 -14 22
-16 8 -61 -25 -83 -39 -256 -39 -472 0 -220 9 -312 64 -665 34 -217 55 -463
45 -529 -10 -73 -35 -152 -61 -198 -30 -51 -36 -54 -27 -11 5 23 2 34 -12 44
-16 12 -17 21 -6 121 20 189 12 205 -14 28 -13 -88 -21 -115 -40 -135 -12 -14
-35 -43 -49 -64 -31 -47 -33 -35 -6 36 40 105 42 129 20 291 -28 200 -84 494
-121 637 -103 391 -121 465 -139 557 -12 57 -29 175 -39 263 l-18 161 62 62
c39 40 71 84 89 124 l29 61 116 -118 c64 -65 126 -124 138 -132z m-697 151 c0
-18 -2 -19 -15 -9 -15 12 -12 30 6 30 5 0 9 -10 9 -21z m186 -73 c-7 -30 -27
-34 -47 -10 -11 14 -10 19 10 36 29 23 46 11 37 -26z m39 4 c-3 -5 -10 -10
-16 -10 -5 0 -9 5 -9 10 0 6 7 10 16 10 8 0 12 -4 9 -10z m-81 -151 c-2 -4
-15 -4 -28 -2 -19 4 -33 -3 -56 -26 l-31 -30 6 37 c10 59 12 61 57 64 36 2 44
0 49 -17 3 -11 4 -23 3 -26z m15 -161 c18 -170 35 -257 111 -553 101 -399 142
-600 175 -856 l16 -125 -51 -160 c-28 -87 -57 -178 -66 -201 -16 -43 -34 -57
-34 -28 0 9 -12 27 -26 40 l-27 25 50 72 c103 149 118 214 63 269 -23 23 -35
28 -55 23 l-25 -6 25 50 c14 27 25 61 25 73 0 32 -34 86 -59 94 -25 7 -25 12
-6 45 8 14 14 43 15 66 0 48 -36 90 -88 100 -18 4 -32 8 -32 9 0 2 14 29 30
60 32 61 36 90 19 128 -13 28 -61 59 -86 55 -15 -3 -18 3 -15 40 4 55 -28 110
-69 119 -16 3 -29 7 -29 10 0 2 11 24 24 48 48 86 56 164 19 200 -13 14 -11
23 24 83 52 89 66 125 67 177 1 55 -24 85 -71 85 l-34 0 29 53 c16 28 37 67
46 85 9 17 18 32 20 32 2 0 9 -51 15 -112z m-309 -1585 c-1 -5 -7 -19 -14 -32
l-14 -24 -7 23 c-5 15 -3 25 6 31 17 11 29 11 29 2z m59 -190 c0 -10 -4 -26
-8 -36 -6 -15 -9 -13 -24 17 l-17 36 25 0 c17 0 25 -5 24 -17z m69 -156 c12 1
22 -1 22 -3 0 -11 -35 -74 -41 -74 -4 0 -14 21 -23 46 -14 43 -14 45 2 38 9
-4 27 -7 40 -7z m250 -269 c-6 -18 -13 -27 -15 -21 -4 11 13 53 22 53 2 0 -1
-15 -7 -32z m-176 -64 c3 -39 11 -61 23 -70 14 -11 16 -21 10 -59 -3 -26 -9
-45 -11 -42 -8 7 -54 187 -54 208 0 10 6 19 14 19 9 0 15 -17 18 -56z m-137
-114 c15 -63 41 -157 56 -209 16 -51 29 -96 29 -99 0 -2 -56 53 -124 124 -68
71 -155 156 -195 189 -59 49 -69 61 -54 66 41 15 248 56 254 50 4 -3 19 -58
34 -121z m1381 -390 c25 -51 52 -153 105 -390 25 -111 75 -226 149 -344 l42
-67 -23 -26 c-13 -14 -42 -37 -64 -51 -38 -24 -42 -25 -108 -14 -125 22 -187
70 -342 265 -140 175 -224 346 -225 453 0 46 19 57 58 34 39 -24 74 -72 148
-203 119 -212 186 -257 263 -176 29 30 51 94 51 146 0 15 -16 73 -36 128 -42
117 -93 299 -94 335 l0 25 25 -30 c14 -16 37 -55 51 -85z m-3410 -497 c27
-212 55 -337 81 -352 12 -6 11 -19 -6 -89 -32 -123 -35 -129 -90 -157 -40 -20
-65 -25 -123 -25 -63 0 -98 9 -247 60 -184 63 -227 87 -296 171 -107 127 -185
314 -168 401 9 48 40 106 64 119 56 29 89 -31 109 -200 33 -266 103 -391 220
-391 80 0 160 110 160 220 0 31 -9 87 -19 125 -33 119 -52 295 -32 295 16 0
42 -81 62 -194 39 -215 125 -295 206 -189 32 41 34 75 19 309 -5 73 -6 140 -1
150 15 38 35 -43 61 -253z m1066 -1398 c105 -14 310 -64 403 -99 53 -19 18
-20 -63 -1 -35 8 -140 20 -235 25 -95 6 -242 19 -327 30 -85 10 -197 22 -248
26 -51 3 -91 8 -89 11 9 9 175 20 309 22 75 0 188 -6 250 -14z m2088 -50 c97
-23 100 -25 50 -41 -179 -54 -718 -34 -1025 39 -43 10 -3 13 290 18 433 7 603
4 685 -16z"/>
<path d="M12108 9622 c-15 -10 -36 -29 -47 -44 -56 -70 -175 -129 -322 -158
-45 -9 -59 -16 -68 -36 -21 -48 -5 -96 40 -114 55 -23 243 27 334 90 58 40
131 123 145 165 13 39 -1 79 -35 101 -17 11 -24 11 -47 -4z"/>
<path d="M12276 9426 c-34 -33 -51 -120 -51 -261 0 -137 5 -161 41 -204 59
-71 140 -16 115 76 -14 50 -14 135 1 243 13 100 4 140 -38 159 -35 15 -42 14
-68 -13z"/>
<path d="M10565 8483 c-61 -7 -171 -34 -188 -48 -10 -7 -17 -22 -15 -32 3 -15
12 -17 48 -15 168 10 235 7 280 -14 115 -54 192 -152 221 -279 13 -60 17 -65
67 -85 42 -16 52 -5 52 61 0 96 -67 251 -129 297 -20 15 -38 29 -41 32 -44 49
-199 92 -295 83z"/>
<path d="M13424 13055 c-33 -22 -89 -123 -295 -532 -449 -888 -452 -894 -450
-946 2 -59 16 -77 60 -77 23 0 44 7 53 18 16 17 406 796 532 1062 164 345 196
432 176 470 -13 24 -47 26 -76 5z"/>
<path d="M13728 12876 c-10 -7 -58 -89 -107 -182 -49 -93 -108 -203 -130 -244
-66 -120 -206 -401 -225 -450 -20 -53 -11 -89 27 -115 42 -27 68 -5 112 93 63
141 143 309 204 432 32 63 82 171 110 240 29 69 61 145 72 169 15 33 17 46 8
57 -14 17 -48 18 -71 0z"/>
<path d="M3195 12638 c-12 -13 -11 -34 20 -448 26 -336 57 -634 76 -730 24
-119 72 -201 125 -214 35 -9 91 18 114 56 24 39 25 114 9 423 -6 110 -13 351
-17 536 -7 351 -10 369 -52 369 -10 0 -22 -6 -27 -12 -11 -16 -1 -560 17 -975
14 -310 13 -323 -31 -323 -39 0 -76 198 -114 615 -15 167 -45 603 -45 656 0
46 -48 76 -75 47z"/>
<path d="M2664 12601 c-34 -16 -44 -28 -72 -89 -71 -160 -97 -331 -97 -642 0
-258 13 -352 62 -463 28 -61 86 -122 128 -133 38 -9 92 4 116 29 34 36 65 107
85 192 16 68 19 122 19 365 0 308 -11 402 -71 590 -23 73 -74 160 -93 160 -5
0 -15 2 -23 5 -7 2 -31 -4 -54 -14z m74 -108 c27 -64 68 -254 83 -382 18 -165
7 -513 -20 -628 -35 -145 -86 -180 -143 -98 -66 95 -92 259 -85 535 6 224 28
381 71 506 44 131 61 143 94 67z"/>
<path d="M2261 12546 c-13 -15 -31 -131 -52 -318 -7 -65 -15 -118 -18 -118 -3
0 -28 39 -54 86 -27 46 -76 121 -110 167 -34 45 -66 91 -72 102 -12 24 -50 31
-71 15 -21 -18 -17 -35 15 -72 51 -59 171 -245 226 -352 l55 -105 -10 -78
c-12 -98 -50 -533 -50 -572 0 -27 22 -61 38 -61 34 1 43 46 61 295 6 83 18
213 27 290 25 229 74 648 79 676 3 17 -2 33 -14 43 -22 20 -35 20 -50 2z"/>
<path d="M12584 12358 c-26 -28 -104 -151 -104 -163 0 -3 -37 -80 -82 -172
-63 -130 -81 -177 -80 -208 4 -141 4 -142 37 -105 10 11 26 20 35 20 39 0 67
49 202 355 86 195 101 245 87 281 -13 36 -58 32 -95 -8z"/>
<path d="M5956 12312 c-4 -3 -4 -33 -1 -66 4 -34 10 -333 15 -666 5 -333 12
-618 16 -633 32 -139 264 103 344 358 17 55 23 104 27 231 5 142 3 174 -17
265 -53 247 -141 403 -269 473 -57 31 -106 47 -115 38z m144 -149 c51 -58 77
-109 119 -227 103 -291 74 -624 -72 -828 -24 -35 -54 -71 -65 -81 -20 -18 -20
-18 -26 95 -11 217 -16 1088 -7 1088 5 0 28 -21 51 -47z"/>
<path d="M4169 12238 c-9 -17 -11 -146 -5 -533 7 -552 17 -767 36 -790 7 -8
26 -15 43 -15 l30 0 -7 73 c-23 261 -34 801 -18 922 l7 50 52 -180 c134 -459
267 -849 300 -877 11 -9 17 -8 29 3 12 13 13 58 3 339 -6 179 -9 479 -7 667 4
365 6 353 -42 353 -11 0 -24 -9 -29 -19 -13 -23 -18 -809 -7 -926 6 -56 5 -77
-2 -70 -10 9 -106 324 -161 530 -31 113 -119 380 -147 443 -25 58 -54 69 -75
30z"/>
<path d="M4885 12247 c-11 -9 -15 -19 -10 -27 9 -14 20 -268 35 -765 13 -461
18 -519 43 -546 19 -20 25 -21 131 -14 85 6 113 11 123 24 9 13 8 20 -5 34
-14 16 -29 18 -102 15 l-85 -3 -6 60 c-4 33 -10 174 -15 314 l-7 254 101 -7
c93 -6 102 -5 111 12 7 14 6 24 -3 38 -11 15 -31 19 -114 22 l-100 4 -7 254
c-4 140 -7 257 -6 261 1 5 42 8 91 8 91 0 118 10 107 38 -13 33 -243 52 -282
24z"/>
<path d="M5445 12247 c-11 -9 -15 -19 -10 -27 9 -14 20 -268 35 -765 13 -461
18 -519 43 -546 19 -20 25 -21 131 -14 85 6 113 11 123 24 9 13 8 20 -5 34
-14 16 -29 18 -102 15 l-85 -3 -6 60 c-4 33 -10 174 -15 314 l-7 254 101 -7
c93 -6 102 -5 111 12 7 14 6 24 -3 38 -11 15 -31 19 -114 22 l-100 4 -7 254
c-4 140 -7 257 -6 261 1 5 42 8 91 8 91 0 118 10 107 38 -13 33 -243 52 -282
24z"/>
<path d="M14670 11981 c-128 -26 -324 -171 -415 -309 -24 -36 -26 -46 -17 -67
14 -31 38 -32 69 -3 23 22 123 61 200 78 24 6 108 15 188 20 80 6 157 15 172
21 118 45 60 209 -89 254 -56 16 -56 16 -108 6z m115 -106 c34 -35 54 -79 41
-93 -4 -4 -76 -10 -159 -13 -84 -4 -172 -10 -196 -15 -53 -9 -50 -1 22 55 89
68 156 101 209 101 41 0 52 -5 83 -35z"/>
<path d="M3709 9944 c-36 -59 -58 -266 -68 -654 -5 -184 -15 -402 -21 -483
-11 -138 -11 -149 6 -168 20 -22 53 -22 65 1 8 17 29 355 29 478 0 60 3 82 13
82 7 0 50 5 96 10 46 6 86 9 88 6 5 -5 31 -169 58 -371 8 -60 17 -116 19 -125
2 -8 7 -27 10 -42 5 -21 12 -28 31 -28 13 0 27 5 31 12 9 14 6 114 -7 198 -5
36 -18 137 -30 225 -60 486 -144 810 -225 874 -40 32 -69 27 -95 -15z m91
-145 c41 -138 108 -415 112 -459 l3 -45 -60 -6 c-33 -4 -76 -10 -96 -14 l-37
-7 5 139 c6 211 32 463 48 463 2 0 14 -32 25 -71z"/>
<path d="M13784 9962 c-7 -4 -13 -59 -17 -137 -7 -171 -42 -324 -137 -605 -16
-47 -25 -78 -19 -70 133 209 165 273 205 407 23 76 27 107 28 225 1 134 0 138
-24 162 -14 14 -30 22 -36 18z"/>
<path d="M5251 7796 c-8 -9 -12 -135 -14 -422 l-2 -409 -99 -3 -99 -3 7 394
c6 356 5 396 -9 411 -19 19 -58 21 -73 4 -6 -8 -11 -128 -13 -303 -4 -325 -4
-351 2 -946 4 -468 4 -463 63 -457 l31 3 2 405 1 405 92 5 c56 3 95 1 98 -5 4
-5 9 -194 12 -420 l5 -409 24 -12 c20 -10 29 -9 49 4 l25 16 -8 331 c-4 181
-9 570 -10 863 -2 400 -6 536 -15 547 -16 19 -54 19 -69 1z"/>
<path d="M8221 7722 c-18 -33 -70 -220 -95 -340 -94 -448 -158 -965 -159
-1277 0 -210 21 -572 35 -611 8 -22 8 -53 2 -102 -12 -86 -1 -86 15 0 7 35 19
73 27 86 14 21 13 55 -1 300 -22 365 -9 626 51 1042 33 222 111 652 147 806
20 85 6 148 -22 96z"/>
<path d="M3648 7692 c-36 -1 -71 -8 -77 -15 -6 -9 -7 -55 -1 -140 5 -71 14
-327 20 -570 6 -243 17 -526 25 -629 8 -103 15 -198 15 -212 0 -14 10 -36 21
-47 21 -21 28 -22 153 -15 106 5 134 10 149 24 17 17 16 19 -4 41 -20 21 -28
23 -123 19 l-101 -3 -11 110 c-7 61 -15 228 -19 372 l-8 261 29 4 c16 2 67 0
114 -4 90 -6 120 1 120 30 0 45 -19 52 -141 53 l-117 0 -5 47 c-4 26 -9 170
-13 320 l-7 274 113 -4 c100 -3 114 -1 124 15 17 29 -22 54 -96 62 -35 3 -70
7 -78 9 -8 1 -45 0 -82 -2z"/>
<path d="M4380 7642 c-95 -48 -148 -157 -177 -372 -21 -154 -12 -514 16 -675
54 -304 86 -408 143 -462 85 -81 186 -100 270 -50 90 52 125 128 70 148 -19 7
-32 0 -77 -41 -66 -60 -106 -66 -167 -24 -54 38 -82 105 -117 284 -47 241 -55
327 -55 570 1 249 11 322 62 450 25 63 36 79 68 97 48 28 66 29 89 3 21 -23
43 -25 68 -5 31 23 18 57 -33 83 -57 29 -93 27 -160 -6z"/>
<path d="M3190 7599 c-36 -4 -143 -8 -238 -8 -134 1 -178 -2 -195 -14 -21 -14
-21 -15 -3 -41 17 -27 18 -27 96 -20 l78 6 6 -53 c7 -68 47 -1088 46 -1191 0
-66 3 -79 19 -88 28 -14 59 -12 68 4 10 17 -1 473 -18 746 -11 185 -15 277
-21 485 l-2 90 123 7 c140 8 163 18 143 63 -6 14 -17 24 -24 24 -7 -1 -42 -5
-78 -10z"/>
<path d="M3729 4850 c-20 -12 -21 17 31 -670 18 -234 34 -387 70 -675 12 -94
53 -216 87 -263 36 -48 75 -65 122 -52 51 13 86 50 101 107 11 37 11 92 1 292
-20 419 -28 698 -26 901 3 217 -6 305 -35 334 -16 17 -23 18 -42 8 l-23 -13 3
-317 c2 -300 7 -440 33 -954 9 -192 9 -220 -6 -247 -33 -64 -77 -22 -104 99
-20 91 -61 442 -80 700 -12 146 -23 285 -26 310 -3 25 -10 128 -16 229 -6 102
-15 193 -20 203 -10 19 -44 23 -70 8z"/>
<path d="M2986 4729 c-55 -44 -104 -193 -126 -389 -17 -153 -23 -506 -11 -650
12 -141 49 -307 81 -370 23 -46 83 -99 137 -124 42 -19 43 -19 112 3 l69 22
22 62 c31 90 50 250 50 422 0 189 -4 197 -85 207 -33 5 -84 12 -113 18 -64 12
-92 1 -92 -36 0 -28 24 -40 93 -49 23 -4 57 -8 75 -11 l32 -5 0 -113 c0 -198
-36 -403 -77 -433 -51 -39 -121 15 -153 115 -11 37 -25 81 -30 97 -25 78 -32
238 -27 554 5 335 16 447 54 543 31 83 64 96 137 57 44 -23 84 -22 100 4 9 16
5 23 -24 48 -62 53 -175 67 -224 28z"/>
<path d="M4911 4736 c-7 -8 -23 -106 -37 -218 -13 -112 -26 -214 -28 -228 -2
-14 -5 -35 -5 -48 -1 -33 -20 -23 -45 23 -46 84 -82 143 -141 224 -33 47 -76
108 -96 135 -39 57 -61 66 -90 40 -29 -26 -24 -45 37 -120 73 -92 173 -252
250 -399 l62 -120 -19 -175 c-20 -197 -36 -365 -48 -520 -7 -98 -7 -107 12
-127 50 -56 72 -15 86 162 6 77 13 174 16 215 9 113 35 350 45 392 4 20 5 47
3 60 -3 14 7 111 21 217 44 324 58 472 45 487 -15 18 -53 18 -68 0z"/>
<path d="M5310 3333 c-22 -9 -50 -44 -50 -63 0 -44 53 -53 94 -15 31 29 32 39
6 65 -21 21 -25 22 -50 13z"/>
<path d="M5756 3319 c-36 -28 -36 -76 0 -85 18 -5 34 -1 52 13 35 26 39 57 10
77 -29 20 -30 20 -62 -5z"/>
<path d="M6235 3331 c-30 -12 -52 -58 -39 -79 16 -25 56 -26 87 -2 33 26 35
54 5 74 -25 18 -25 18 -53 7z"/>
</g>
</svg>
