<?xml version="1.0" standalone="no"?>
<!DOCTYPE svg PUBLIC "-//W3C//DTD SVG 20010904//EN"
 "http://www.w3.org/TR/2001/REC-SVG-20010904/DTD/svg10.dtd">
<svg version="1.0" xmlns="http://www.w3.org/2000/svg"
 width="2000.000000pt" height="2093.000000pt" viewBox="0 0 2000.000000 2093.000000"
 preserveAspectRatio="xMidYMid meet">

<g transform="translate(0.000000,2093.000000) scale(0.100000,-0.100000)"
fill="#000000" stroke="none">
<path d="M9935 19490 c4 -6 -7 -26 -24 -46 -35 -39 -35 -39 -21 -172 6 -53 13
-121 16 -151 11 -100 85 -142 145 -82 25 26 29 37 29 88 0 83 -18 242 -32 279
-11 32 -53 64 -82 64 -9 0 -16 7 -16 15 0 8 -5 15 -11 15 -5 0 -7 -5 -4 -10z"/>
<path d="M11970 19043 c-12 -9 -38 -16 -58 -15 -36 2 -65 -10 -92 -37 -45 -44
-121 -145 -126 -168 -14 -53 48 -112 103 -98 25 6 40 19 119 106 50 54 64 80
64 113 0 14 9 35 20 46 23 23 25 43 7 58 -10 9 -19 7 -37 -5z"/>
<path d="M7570 18610 c0 -6 29 -25 65 -42 40 -20 65 -39 65 -48 0 -27 41 -57
125 -90 112 -45 164 -60 208 -60 46 0 67 18 67 57 0 42 -23 68 -77 87 -26 10
-87 33 -136 52 -91 35 -134 41 -169 23 -15 -8 -31 -6 -68 10 -53 23 -80 27
-80 11z"/>
<path d="M9728 18472 c-167 -60 -443 -387 -547 -647 -13 -33 -34 -82 -47 -110
-40 -91 -83 -208 -139 -385 -31 -96 -71 -215 -90 -265 -83 -218 -119 -324
-214 -632 -17 -57 -47 -139 -66 -184 -19 -44 -35 -93 -35 -107 0 -29 -40 -144
-120 -347 -28 -71 -65 -168 -82 -215 -16 -47 -53 -141 -80 -210 -214 -537
-322 -919 -497 -1760 -32 -151 -99 -545 -125 -735 -33 -237 -47 -320 -58 -332
-6 -7 -14 -54 -18 -105 -6 -68 -16 -112 -38 -165 -32 -75 -61 -195 -87 -355
-18 -113 -51 -493 -60 -678 -4 -74 -13 -191 -21 -260 -8 -69 -17 -213 -20
-320 -6 -183 -9 -205 -45 -355 -108 -441 -155 -777 -169 -1209 -5 -153 -12
-281 -15 -284 -3 -3 -54 7 -113 21 -159 39 -213 35 -260 -23 -20 -25 -90 -164
-139 -279 -147 -345 -437 -826 -596 -986 -90 -91 -102 -114 -87 -160 48 -144
341 -215 1015 -246 267 -12 341 -9 585 22 219 28 244 42 399 225 190 223 256
318 443 639 180 309 280 505 391 770 30 72 80 191 112 265 63 149 170 462 181
529 7 43 7 43 43 37 151 -25 247 -14 337 40 73 44 118 102 152 196 22 63 26
90 26 193 1 66 -3 132 -8 148 -17 56 11 23 68 -81 169 -306 231 -388 315 -417
125 -42 245 -25 431 62 153 71 368 187 392 211 6 6 16 12 21 12 13 0 131 87
252 186 114 92 268 241 372 359 l71 80 7 -200 c7 -220 26 -501 50 -755 36
-375 46 -552 52 -865 6 -351 -4 -502 -47 -710 -138 -669 -391 -1118 -830
-1472 -209 -167 -488 -344 -616 -388 -117 -41 -303 -85 -414 -100 -167 -22
-491 -38 -635 -30 -392 19 -803 112 -1052 238 -49 25 -198 134 -261 191 -134
121 -255 272 -322 402 -39 78 -66 104 -105 104 -8 0 -15 8 -16 18 0 13 -2 13
-9 -5 -5 -12 -15 -25 -23 -30 -20 -12 -37 -47 -37 -80 0 -78 125 -269 302
-460 37 -40 48 -59 48 -85 0 -132 208 -1030 376 -1623 171 -605 257 -856 469
-1380 31 -77 94 -232 140 -345 86 -212 243 -557 359 -787 69 -139 78 -168 49
-160 -10 3 -43 11 -73 17 -65 15 -248 66 -305 85 -144 50 -456 95 -655 95
-212 0 -585 -64 -783 -135 -80 -28 -147 -71 -165 -105 -18 -35 -8 -95 22 -135
24 -31 151 -105 182 -105 7 0 24 -4 39 -10 22 -8 24 -12 14 -29 -18 -28 -6
-45 46 -70 101 -47 290 -48 716 -2 101 11 238 25 304 31 189 18 517 69 570 90
17 6 75 21 130 32 135 28 148 33 136 56 -10 18 -14 18 -83 5 -101 -18 -170
-30 -338 -54 -80 -11 -157 -23 -172 -26 -21 -4 -28 -2 -28 10 0 27 24 35 145
47 100 9 130 16 181 42 l60 30 78 -16 c43 -9 90 -16 105 -16 62 0 132 80 115
133 -4 12 -71 153 -150 314 -79 161 -144 295 -144 298 0 2 -16 37 -36 77 -67
138 -283 666 -466 1143 -55 144 -151 437 -223 685 -91 311 -143 502 -231 849
-69 270 -74 299 -64 332 9 27 10 77 3 195 -6 88 -8 161 -6 164 2 2 25 -4 51
-14 106 -40 244 -76 333 -86 52 -7 162 -25 244 -41 260 -51 384 -63 670 -62
348 1 490 15 747 77 239 58 356 112 613 280 101 67 138 86 166 86 45 0 155 45
439 177 158 74 334 151 497 217 89 36 176 72 192 81 17 8 81 26 143 40 62 14
152 34 201 45 264 59 544 94 701 88 88 -3 97 -5 133 -34 56 -45 69 -88 49
-156 -46 -158 -357 -561 -667 -864 -306 -300 -477 -451 -704 -620 -221 -165
-409 -288 -567 -375 -62 -33 -125 -72 -140 -87 -32 -30 -37 -75 -11 -104 15
-17 15 -20 -7 -43 -23 -25 -23 -25 -4 -40 10 -8 33 -17 49 -20 17 -4 80 -22
140 -40 132 -41 292 -80 395 -96 50 -8 223 -13 510 -13 380 -1 446 1 520 17
149 31 147 56 -10 124 l-25 11 30 7 c198 45 357 136 371 212 16 87 -89 182
-236 214 -101 22 -621 -2 -887 -41 -37 -5 -113 -17 -167 -25 -86 -13 -120 -14
-105 -2 6 5 168 119 195 137 48 33 312 235 364 279 175 148 599 559 712 691
93 109 280 362 333 451 75 127 98 192 99 274 1 58 -4 79 -28 125 -36 70 -88
124 -146 153 -42 21 -57 22 -245 21 -224 -2 -371 -19 -653 -79 -395 -84 -673
-155 -876 -224 -63 -21 -117 -37 -119 -34 -3 2 24 42 59 88 239 318 410 767
490 1290 34 217 28 817 -12 1205 -13 136 -44 466 -44 483 0 21 21 0 65 -64 27
-39 64 -83 83 -97 18 -15 60 -65 92 -112 95 -140 192 -255 388 -458 308 -321
455 -424 682 -477 160 -37 272 0 418 139 137 130 283 413 325 631 75 390 91
1116 31 1435 -57 306 -63 329 -115 430 -50 98 -121 157 -245 202 -50 17 -91
22 -255 27 -108 3 -218 3 -245 0 -123 -15 -241 -114 -315 -264 -58 -118 -80
-216 -82 -365 -2 -114 0 -129 22 -169 22 -42 23 -48 11 -100 -18 -77 -15 -157
6 -211 68 -175 311 -314 549 -315 79 0 96 4 141 27 28 15 64 38 81 52 19 16
52 29 97 37 64 11 69 10 114 -15 26 -14 64 -34 84 -44 45 -20 43 1 23 -272
-29 -385 -69 -549 -183 -753 -97 -174 -226 -304 -320 -323 -45 -9 -219 42
-292 86 -256 154 -481 412 -771 882 -40 65 -199 379 -199 394 0 4 -57 124
-156 329 l-68 140 -4 110 c-3 95 -1 117 17 158 28 66 63 204 63 249 -1 41 -26
96 -48 105 -7 3 -14 13 -14 22 0 18 53 183 70 216 32 63 377 1063 409 1185 66
253 90 491 72 743 -21 307 -55 458 -142 634 -48 98 -74 137 -132 199 -186 200
-394 303 -842 419 -184 48 -688 131 -860 143 l-110 7 -6 60 c-3 33 -12 132
-19 220 -13 173 -31 263 -54 281 -9 6 -19 21 -24 35 l-9 23 -13 -24 c-22 -42
-39 -122 -35 -164 3 -23 12 -115 20 -206 9 -91 18 -180 22 -197 l5 -33 -50 0
c-28 0 -54 5 -58 11 -7 11 -17 147 -44 559 -6 102 -16 201 -21 221 -8 33 -62
99 -80 99 -3 0 -19 -18 -35 -41 l-28 -40 13 -187 c10 -158 38 -529 44 -597 1
-12 -4 -20 -13 -20 -18 0 -70 340 -115 750 -16 138 -35 263 -42 278 -8 16 -30
35 -48 43 -28 12 -34 20 -38 51 l-4 38 -1 -38 c-2 -29 -10 -46 -32 -67 -26
-24 -30 -35 -30 -82 0 -29 7 -100 15 -158 8 -58 26 -205 40 -328 14 -122 37
-284 50 -359 27 -149 26 -152 -30 -153 -16 0 -59 -7 -95 -15 -36 -8 -110 -20
-165 -25 -250 -26 -492 -83 -620 -145 -76 -36 -104 -57 -177 -132 -94 -94
-208 -238 -208 -261 0 -7 -11 -32 -24 -55 -13 -23 -36 -71 -51 -107 -16 -36
-45 -103 -66 -150 -46 -104 -124 -360 -174 -575 -48 -206 -108 -434 -146 -557
-50 -157 -50 -135 -4 142 13 80 34 208 45 285 19 122 76 411 125 630 9 39 20
93 26 120 14 74 116 474 149 590 58 200 152 472 230 670 28 72 77 200 109 285
33 85 83 218 114 295 65 167 136 376 207 615 96 324 99 329 181 426 125 148
158 178 224 201 76 28 211 52 539 98 351 49 414 71 472 166 46 77 48 144 4
212 -16 26 -30 51 -30 55 0 4 11 17 24 29 18 17 31 21 58 17 126 -21 302 85
369 222 27 54 33 79 37 157 9 175 -54 307 -173 363 -64 31 -85 30 -170 -6 -38
-17 -73 -30 -77 -30 -4 0 -15 16 -24 36 -19 40 -73 80 -119 89 -20 4 -62 -4
-123 -24 -107 -35 -118 -37 -126 -16 -10 26 -69 55 -111 55 -22 -1 -61 -9 -87
-18z m118 -159 c17 -92 -79 -309 -149 -338 -71 -28 -76 -28 -89 2 -26 62 -68
81 -102 47 -37 -36 1 -150 64 -192 43 -29 86 -26 185 13 42 17 70 24 73 17 13
-41 93 -92 145 -92 30 0 137 54 159 81 20 24 38 17 38 -14 0 -12 11 -45 24
-72 17 -38 21 -57 14 -75 -5 -13 -11 -26 -13 -28 -2 -2 -28 8 -57 22 -105 51
-360 102 -458 91 -71 -9 -171 -42 -223 -74 -116 -74 -142 -209 -55 -287 54
-50 175 -84 298 -84 81 0 195 32 213 60 6 11 20 20 29 20 29 0 20 23 -23 59
-44 36 -50 37 -162 8 -45 -12 -73 -13 -129 -5 -94 13 -142 29 -146 50 -5 26
50 74 110 94 111 39 356 13 495 -53 115 -54 148 -154 65 -197 -45 -23 -146
-46 -291 -66 -411 -56 -487 -70 -600 -112 -57 -21 -118 -63 -158 -108 -20 -22
-22 -23 -23 -6 0 10 13 57 29 105 16 47 38 120 50 161 24 83 22 78 116 309
104 257 130 304 242 447 94 121 219 231 279 247 38 10 43 6 50 -30z m338 -33
c0 -41 -11 -78 -41 -148 -48 -108 -98 -174 -156 -203 l-41 -21 -23 28 c-24 30
-30 68 -13 79 18 11 70 194 70 249 l0 54 53 10 c28 6 75 9 102 9 l50 -2 -1
-55z m336 -12 c62 -32 91 -91 91 -185 0 -151 -78 -254 -219 -293 -41 -11 -45
-10 -71 17 -15 15 -35 49 -45 75 -10 28 -25 50 -37 53 -24 8 -24 16 1 65 31
61 71 178 79 229 5 37 11 46 31 52 54 15 125 9 170 -13z m-230 -3588 c91 -6
201 -17 245 -25 44 -8 161 -28 260 -45 308 -53 663 -150 809 -222 119 -58 241
-152 316 -243 77 -95 147 -279 177 -467 22 -143 25 -571 5 -688 -23 -127 -80
-337 -142 -515 -159 -462 -244 -706 -305 -875 -37 -102 -74 -209 -83 -239
l-16 -54 -200 -98 c-111 -54 -259 -119 -331 -145 -126 -45 -271 -103 -500
-199 -359 -151 -509 -197 -702 -217 -100 -10 -137 -9 -210 2 -48 8 -126 14
-173 15 -47 0 -90 4 -96 7 -6 4 -53 12 -105 18 -211 26 -416 94 -664 222 -222
114 -486 328 -627 508 -32 41 -77 89 -100 105 -90 66 -100 108 -74 316 18 141
77 472 102 574 9 33 42 143 75 245 66 203 113 373 184 669 67 277 119 445 192
615 95 223 164 331 240 374 16 9 60 34 97 56 103 59 507 226 548 226 15 0 18
-5 13 -20 -8 -26 1 -25 66 4 112 48 250 88 337 95 130 12 474 12 662 1z m3020
-3300 c194 -17 246 -65 316 -289 47 -150 61 -223 69 -351 4 -58 13 -168 20
-244 8 -77 13 -142 11 -144 -3 -2 -13 1 -24 7 -65 35 -246 43 -342 15 -30 -8
-80 -17 -110 -18 -66 -3 -160 -32 -177 -54 -12 -14 -18 -14 -70 2 -114 36
-207 99 -249 172 -24 40 -25 50 -19 114 l7 69 51 24 c29 13 85 42 125 65 72
41 73 41 82 19 8 -21 9 -20 9 6 1 24 9 32 54 53 62 28 145 46 153 33 6 -11
-65 -78 -185 -176 -64 -52 -87 -77 -97 -108 -22 -65 -19 -72 35 -85 42 -10 55
-9 84 5 29 13 44 14 101 5 89 -14 170 9 199 57 4 7 15 13 23 13 20 0 62 27
107 69 48 45 74 127 83 255 9 120 3 143 -39 154 -29 8 -34 6 -49 -20 -13 -20
-18 -49 -18 -101 0 -90 -15 -181 -37 -224 -22 -44 -33 -41 -33 6 0 22 -5 43
-10 46 -6 4 -8 28 -4 59 6 45 2 63 -20 109 -21 46 -26 70 -26 139 0 91 -4 102
-38 113 -41 12 -62 -18 -62 -92 0 -62 -1 -63 -24 -57 -21 5 -117 -9 -152 -23
-7 -3 -13 27 -17 92 -7 108 -18 135 -51 135 -48 0 -61 -31 -66 -167 -4 -98 -8
-128 -20 -134 -8 -5 -51 -29 -94 -55 l-79 -45 6 103 c7 114 24 183 69 272 39
78 121 160 173 173 51 14 201 15 335 3z m-5490 -7 c1 -29 262 -295 384 -392
249 -197 639 -374 938 -425 21 -4 39 -10 42 -15 10 -15 -142 -155 -186 -171
-42 -15 -65 -50 -34 -50 9 0 16 -2 16 -5 0 -12 -232 -235 -291 -279 -69 -53
-230 -136 -262 -136 -29 0 -102 45 -170 104 -123 106 -280 428 -390 801 -50
168 -67 268 -74 433 -5 128 -4 142 10 142 10 0 17 -3 17 -7z m3734 -290 c3
-21 6 -71 6 -112 0 -72 -1 -77 -47 -145 -153 -230 -445 -517 -693 -683 -167
-111 -474 -270 -578 -298 -65 -19 -152 -17 -190 4 -11 6 -53 66 -92 133 -40
68 -102 173 -138 233 -36 61 -89 140 -119 177 -29 37 -53 71 -53 75 0 4 51 9
113 11 162 4 283 26 442 81 147 51 302 110 370 141 218 97 465 200 480 200 3
0 58 21 123 46 105 41 275 124 327 160 31 22 42 17 49 -23z m-3829 -328 c67
-235 141 -413 268 -645 41 -77 120 -182 165 -222 77 -67 94 -79 150 -108 79
-40 119 -45 189 -25 66 19 202 85 250 121 35 27 53 30 53 12 0 -24 48 -113 75
-142 28 -28 28 -28 10 -60 -116 -204 -252 -385 -391 -521 -86 -85 -88 -87
-172 -138 -279 -170 -599 -258 -876 -242 -61 4 -113 9 -115 11 -6 5 -1 260 9
455 18 341 82 718 201 1179 28 107 67 258 86 335 19 76 37 143 40 149 8 12 13
-1 58 -159z m5553 -122 c-3 -24 -8 -28 -38 -31 l-35 -4 29 31 c37 38 48 39 44
4z m-3865 -301 c35 -32 95 -147 107 -205 13 -67 0 -174 -30 -244 -38 -86 -185
-141 -307 -113 -155 34 -223 85 -223 165 0 52 30 137 65 185 14 19 54 64 88
100 34 36 83 89 109 117 l48 51 62 -19 c34 -11 71 -27 81 -37z m2357 -132 c27
-53 25 -68 -5 -40 -15 14 -25 35 -25 52 0 38 6 35 30 -12z m-3110 -1140 c0 -5
-4 -10 -10 -10 -5 0 -10 5 -10 10 0 6 5 10 10 10 6 0 10 -4 10 -10z m18 -185
c1 -1 -23 -55 -53 -121 -181 -387 -438 -837 -604 -1059 -130 -174 -269 -333
-311 -355 -9 -5 -78 -17 -155 -27 -204 -26 -672 -24 -957 6 -188 19 -321 41
-335 55 -3 3 8 19 25 36 17 17 48 58 68 90 20 33 51 68 70 79 18 11 45 38 60
60 14 22 35 43 45 46 10 4 28 20 40 36 25 36 31 32 34 -18 1 -40 -34 -93 -62
-93 -18 0 -16 -37 3 -44 48 -18 121 21 311 166 56 43 104 78 107 78 19 0 0
-56 -40 -114 -31 -47 -44 -76 -42 -95 4 -39 41 -40 76 -2 20 22 33 29 49 25
28 -8 60 15 108 76 22 27 45 50 51 50 6 0 17 12 24 28 l13 27 9 -40 c10 -47
43 -85 74 -85 20 0 46 20 77 62 16 22 90 11 95 -14 3 -15 -62 -134 -129 -235
-11 -18 -17 -33 -12 -33 4 0 15 10 22 23 43 69 159 191 196 207 35 15 46 29
89 110 27 51 60 106 75 124 54 64 90 124 140 233 28 62 51 117 51 123 0 5 6
10 14 10 10 0 15 -20 18 -76 3 -66 7 -79 28 -96 19 -15 33 -18 62 -14 44 7 42
11 23 -73 -9 -35 -14 -66 -11 -68 2 -2 12 29 21 69 21 85 40 128 59 128 26 0
48 41 82 156 41 137 96 274 107 267 4 -2 7 -17 7 -34 0 -19 11 -40 30 -61 24
-24 30 -41 31 -77 l2 -46 7 49 c3 28 12 52 19 54 31 10 49 42 56 98 5 42 15
68 36 93 16 20 29 39 29 43 0 4 11 31 24 60 14 29 31 69 40 90 14 35 15 36 58
31 23 -3 44 -7 46 -8z m-1010 -277 c-6 -18 -28 -21 -28 -4 0 9 7 16 16 16 9 0
14 -5 12 -12z m50 -226 c-1 -4 -14 -35 -28 -70 -28 -69 -40 -78 -40 -29 0 33
42 107 61 107 6 0 9 -3 7 -8z m-488 -200 c0 -18 -18 -42 -31 -42 -5 0 -3 14 2
30 12 33 29 40 29 12z m292 -231 c-43 -86 -69 -106 -58 -45 8 45 39 132 63
177 l17 32 8 -45 c7 -40 4 -53 -30 -119z m-322 -8 c-11 -17 -11 -17 -6 0 3 10
6 24 7 30 0 9 2 9 5 0 3 -7 0 -20 -6 -30z m630 -1658 c0 -8 -4 -15 -9 -15 -13
0 -22 16 -14 24 11 11 23 6 23 -9z m4978 -1341 c23 -10 41 -22 39 -28 -10 -29
-185 -89 -303 -102 -48 -6 -52 -5 -57 17 -9 36 -54 57 -148 68 -95 11 -155 10
-419 -13 -194 -17 -232 -22 -240 -36 -5 -7 -105 -15 -140 -11 -25 4 62 27 161
45 87 15 215 31 459 57 296 31 573 33 648 3z m-1478 -169 c0 -8 -9 -15 -19
-15 -24 0 -36 16 -19 23 24 10 38 7 38 -8z m1231 -136 c117 -21 150 -34 108
-43 -161 -34 -278 -38 -694 -27 -376 10 -401 13 -549 52 -21 6 -36 12 -33 15
2 3 200 7 438 11 239 3 436 7 438 9 13 12 193 1 292 -17z m-4881 -2568 c0 -37
37 -70 86 -78 21 -3 46 -11 54 -19 8 -7 27 -15 43 -18 15 -3 39 -9 55 -12 l27
-6 -25 -10 c-14 -5 -113 -10 -220 -10 -172 0 -209 3 -314 26 -167 36 -172 45
-48 87 72 24 323 78 335 72 4 -2 7 -17 7 -32z m1010 -26 c0 -17 -54 -12 -58 6
-2 14 3 16 28 10 17 -3 31 -10 30 -16z m-181 -200 c12 -13 -21 -20 -157 -36
-271 -33 -311 -20 -74 23 128 23 215 28 231 13z m-871 -82 c100 -7 104 -8 52
-14 -87 -11 -164 -10 -219 3 -69 16 -66 33 4 24 30 -3 104 -9 163 -13z"/>
<path d="M10940 14299 c-210 -24 -460 -131 -460 -196 0 -7 9 -17 20 -23 11 -6
20 -16 20 -23 0 -17 49 -63 125 -118 67 -48 157 -138 183 -181 11 -18 30 -32
54 -39 25 -6 38 -16 39 -27 0 -14 2 -14 9 3 27 63 -5 138 -102 241 -37 39 -68
75 -68 79 0 9 111 -3 183 -21 50 -13 60 -13 78 0 12 8 28 12 35 9 22 -8 17 40
-7 70 -26 34 -99 56 -206 64 -78 6 -101 14 -70 26 8 3 59 10 113 17 154 18
160 19 184 40 13 11 31 20 42 20 10 0 18 2 18 4 0 2 3 13 7 23 3 10 3 15 -2
11 -4 -4 -25 2 -46 12 -41 22 -39 21 -149 9z"/>
<path d="M9345 14224 c-116 -24 -142 -36 -162 -72 l-19 -37 30 -29 c31 -30 36
-31 161 -7 65 13 192 14 200 2 3 -5 -32 -28 -77 -51 -124 -61 -207 -119 -214
-146 -10 -38 4 -74 33 -85 23 -8 38 -3 117 45 109 66 302 159 318 154 6 -2
-11 -20 -38 -40 -55 -41 -159 -148 -204 -210 -52 -72 -33 -143 31 -115 14 7
53 44 86 82 66 78 137 144 228 214 76 58 89 71 104 99 15 28 0 52 -30 52 -13
0 -19 7 -19 24 0 13 -6 28 -13 34 -19 16 -241 70 -337 82 -84 10 -157 11 -195
4z"/>
<path d="M11661 13751 c-20 -16 -25 -30 -32 -116 -16 -166 -86 -323 -197 -441
-92 -96 -209 -177 -389 -268 -287 -144 -631 -181 -1000 -106 -116 24 -271 87
-491 201 -96 50 -196 99 -224 110 -27 11 -64 35 -83 54 -18 19 -40 35 -50 35
-28 0 -95 -74 -95 -104 0 -51 27 -85 95 -118 36 -17 65 -31 65 -32 0 -1 -9
-26 -19 -57 -115 -326 -200 -754 -201 -1005 0 -375 137 -661 378 -787 104 -55
178 -70 302 -64 123 6 183 25 335 102 189 96 296 187 460 389 55 68 88 115
216 306 88 132 145 235 282 510 161 325 171 348 172 403 l0 57 79 45 c206 118
356 264 431 419 42 88 85 210 85 242 0 30 33 49 59 34 11 -5 21 -10 23 -10 5
0 1 98 -6 124 -3 14 -27 41 -53 61 -53 40 -103 46 -142 16z m-2139 -912 c198
-99 398 -171 563 -201 45 -8 160 -13 323 -13 138 0 252 -2 252 -5 0 -3 -39
-44 -88 -90 -129 -126 -265 -190 -402 -190 -134 0 -538 72 -723 129 -53 17
-112 33 -131 37 -42 7 -44 -15 21 214 49 177 50 180 58 180 3 0 60 -27 127
-61z m1508 -109 c0 -5 -4 -10 -10 -10 -5 0 -10 5 -10 10 0 6 5 10 10 10 6 0
10 -4 10 -10z m-1440 -1001 c0 -5 -7 -9 -15 -9 -15 0 -20 12 -9 23 8 8 24 -1
24 -14z"/>
<path d="M8352 8335 c0 -16 2 -22 5 -12 2 9 2 23 0 30 -3 6 -5 -1 -5 -18z"/>
<path d="M12770 17951 c-14 -5 -47 -14 -75 -20 -31 -8 -74 -31 -120 -65 -38
-29 -90 -66 -115 -82 -59 -39 -76 -73 -56 -112 8 -16 29 -35 46 -42 28 -12 36
-10 88 17 83 43 201 132 218 164 8 15 14 37 14 47 0 11 7 25 15 32 8 7 12 16
9 21 -3 5 0 18 6 29 12 22 8 23 -30 11z"/>
<path d="M12018 14556 c-34 -25 -21 -55 55 -130 82 -80 113 -127 152 -236 32
-89 80 -314 90 -421 4 -42 10 -81 14 -88 4 -6 23 -13 43 -14 32 -3 37 0 47 29
25 70 -19 334 -86 514 -58 156 -89 209 -169 288 -77 75 -108 88 -146 58z"/>
<path d="M7287 10878 c-115 -89 -318 -1095 -321 -1595 -1 -140 1 -153 19 -166
16 -13 22 -13 41 -1 11 8 26 26 33 40 6 15 23 146 36 293 14 146 27 286 31
311 23 176 144 767 189 925 27 97 37 175 24 191 -14 17 -30 18 -52 2z"/>
<path d="M5875 7267 c-39 -33 -22 -68 52 -105 80 -40 288 -124 403 -162 184
-61 495 -119 640 -120 59 0 68 3 93 30 16 17 24 30 19 30 -5 0 -12 9 -15 19
-9 35 -48 49 -172 61 -278 26 -609 116 -918 249 -61 26 -70 26 -102 -2z"/>
<path d="M5940 7092 c-22 -6 -40 -33 -40 -58 0 -55 301 -191 582 -263 100 -26
129 -30 195 -24 44 3 94 1 115 -5 24 -7 40 -7 44 -1 9 15 -13 36 -45 42 -15 3
-55 22 -87 41 -33 20 -65 36 -72 36 -53 0 -426 123 -547 180 -117 56 -125 59
-145 52z"/>
</g>
</svg>
