<?xml version="1.0" standalone="no"?>
<!DOCTYPE svg PUBLIC "-//W3C//DTD SVG 20010904//EN"
 "http://www.w3.org/TR/2001/REC-SVG-20010904/DTD/svg10.dtd">
<svg version="1.0" xmlns="http://www.w3.org/2000/svg"
 width="606.000000pt" height="535.000000pt" viewBox="0 0 606.000000 535.000000"
 preserveAspectRatio="xMidYMid meet">

<g transform="translate(0.000000,535.000000) scale(0.100000,-0.100000)"
fill="#000000" stroke="none">
<path d="M2993 5248 c-6 -7 -22 -51 -36 -98 -33 -104 -62 -155 -151 -259 -143
-168 -355 -313 -616 -424 -58 -24 -226 -90 -374 -146 -147 -56 -316 -124 -374
-151 -209 -99 -386 -239 -496 -393 -95 -133 -166 -319 -181 -473 -8 -81 12
-179 69 -339 20 -55 36 -100 36 -101 0 0 -63 -6 -140 -14 -77 -7 -172 -20
-212 -29 -70 -16 -73 -18 -73 -46 l0 -30 265 0 c146 0 271 4 277 8 8 6 13 33
13 72 0 68 53 379 70 407 11 20 13 49 4 72 -7 20 -57 21 -73 3 -9 -11 -35
-113 -88 -337 l-6 -25 -13 31 c-7 17 -20 68 -30 115 -24 119 -16 247 25 367
55 165 109 254 232 379 139 141 281 228 589 358 230 98 695 331 815 409 210
136 385 302 440 417 36 76 70 200 61 224 -7 18 -20 19 -33 3z"/>
<path d="M2087 3223 c-2 -5 0 -66 4 -138 4 -71 10 -184 13 -250 4 -66 12 -172
19 -235 10 -93 15 -115 29 -118 25 -5 30 12 19 80 -19 124 -21 168 -7 168 8 0
27 15 44 34 34 39 52 132 52 274 0 99 -16 138 -72 172 -33 20 -93 27 -101 13z
m104 -62 c28 -28 29 -33 29 -123 0 -148 -27 -268 -60 -268 -15 0 -19 32 -26
228 -6 177 -5 192 10 192 10 0 31 -13 47 -29z"/>
<path d="M1726 3201 c-6 -9 56 -453 80 -571 21 -104 47 -158 77 -165 33 -9 65
9 73 41 3 13 -4 111 -16 217 -12 105 -25 252 -30 325 -8 125 -21 175 -41 155
-11 -11 4 -235 31 -487 16 -149 19 -201 10 -210 -15 -14 -37 14 -51 66 -17 63
-67 377 -80 498 -7 63 -17 121 -22 128 -11 14 -24 16 -31 3z"/>
<path d="M1557 3144 c-4 -4 -7 -35 -8 -68 -1 -34 -4 -88 -8 -120 l-6 -60 -29
45 c-46 71 -120 159 -133 159 -27 0 -22 -23 15 -68 62 -74 153 -215 148 -228
-3 -7 -6 -90 -7 -186 -1 -152 0 -173 14 -176 10 -2 18 5 21 20 4 21 19 455 20
617 1 59 -9 83 -27 65z"/>
<path d="M2840 2575 c-10 -11 -10 -19 -2 -27 15 -15 44 -2 40 19 -4 23 -22 27
-38 8z"/>
<path d="M2636 2565 c-19 -19 -13 -35 14 -35 23 0 33 25 15 40 -10 8 -17 7
-29 -5z"/>
<path d="M2420 2545 c-10 -12 -10 -19 -2 -27 13 -13 42 6 42 28 0 19 -24 18
-40 -1z"/>
<path d="M4624 2203 c12 -351 16 -393 36 -393 24 0 67 52 99 120 36 76 37 214
2 310 -25 70 -40 93 -85 128 -57 44 -58 41 -52 -165z m65 119 c57 -81 85 -231
61 -330 -6 -28 -25 -72 -42 -99 -27 -42 -32 -45 -38 -28 -12 33 -22 485 -11
485 5 0 19 -13 30 -28z"/>
<path d="M4422 2363 c-19 -4 -22 -9 -17 -36 2 -18 10 -140 16 -272 6 -132 14
-244 18 -248 11 -11 101 -4 101 8 0 6 -17 10 -38 11 l-37 0 -7 55 c-3 30 -6
89 -7 132 l-1 77 45 0 c51 0 62 19 13 21 -18 1 -39 1 -46 0 -18 -3 -20 11 -24
127 l-4 102 43 0 c24 0 43 4 43 9 0 8 -53 23 -69 20 -3 -1 -16 -4 -29 -6z"/>
<path d="M3429 2355 c-7 -6 18 -278 36 -403 19 -130 36 -172 68 -172 14 0 30
7 37 15 13 15 13 22 -13 514 -1 19 -8 36 -14 39 -17 5 -17 -71 -1 -331 8 -142
9 -200 1 -208 -26 -26 -50 92 -72 342 -19 206 -22 224 -42 204z"/>
<path d="M3704 2318 c3 -18 11 -141 17 -273 6 -132 13 -243 15 -247 8 -12 114
-10 114 2 0 6 -20 10 -44 10 l-43 0 -6 68 c-4 37 -7 97 -7 135 l0 67 45 0 c25
0 45 5 45 10 0 6 -20 10 -44 10 -25 0 -47 3 -50 8 -2 4 -6 54 -7 112 l-3 105
40 1 c59 1 42 19 -21 22 l-56 3 5 -33z"/>
<path d="M3964 2339 c-42 -12 -54 -28 -60 -85 -10 -80 10 -129 76 -195 72 -71
89 -116 69 -180 -11 -33 -22 -48 -46 -59 -42 -19 -42 -34 0 -26 53 10 77 47
77 117 0 72 -23 122 -75 163 -45 35 -74 96 -75 156 0 58 22 90 61 90 19 0 29
5 29 15 0 17 -10 17 -56 4z"/>
<path d="M4183 2340 c-41 -17 -58 -83 -42 -163 9 -42 20 -61 59 -97 64 -61 90
-106 90 -155 0 -51 -18 -87 -53 -103 -15 -7 -27 -17 -27 -23 0 -31 91 23 101
61 24 85 2 148 -74 222 -61 59 -83 112 -71 176 9 48 19 60 60 68 19 3 34 10
34 15 0 11 -48 11 -77 -1z"/>
<path d="M5147 2248 c-4 -46 -14 -146 -22 -223 -20 -191 -20 -255 1 -255 9 0
14 6 11 13 -5 14 16 272 33 404 12 89 9 143 -9 143 -4 0 -11 -37 -14 -82z"/>
<path d="M5567 2323 c-3 -5 -1 -55 4 -113 4 -58 4 -160 0 -225 -8 -111 -3
-150 16 -131 10 10 17 332 8 411 -6 58 -16 79 -28 58z"/>
<path d="M3173 2310 c-30 -12 -43 -63 -50 -200 -9 -176 17 -303 67 -330 25
-13 68 -3 80 20 12 23 23 192 13 206 -4 6 -28 15 -52 19 -34 6 -42 4 -39 -6 3
-8 19 -15 38 -17 l33 -3 -6 -78 c-5 -82 -19 -121 -41 -121 -45 0 -70 115 -64
300 5 172 13 194 64 184 40 -7 46 8 9 24 -14 7 -27 12 -28 11 -1 0 -12 -4 -24
-9z"/>
<path d="M2615 2301 c-6 -11 12 -438 21 -486 15 -83 49 -114 84 -79 17 17 19
43 20 274 3 297 3 280 -12 280 -10 0 -14 -61 -17 -263 -2 -144 -5 -265 -8
-269 -10 -18 -23 -5 -33 31 -9 35 -29 358 -30 479 0 39 -11 54 -25 33z"/>
<path d="M2366 2272 c-38 -74 -50 -145 -51 -297 0 -133 2 -154 20 -185 25 -42
71 -52 98 -22 56 62 63 403 11 504 -20 38 -58 38 -78 0z m75 -92 c25 -140 0
-379 -41 -405 -17 -10 -47 30 -55 74 -19 101 1 306 40 397 15 36 17 38 30 21
7 -10 19 -50 26 -87z"/>
<path d="M2226 2282 c-3 -6 -11 -47 -18 -91 -11 -79 -22 -99 -35 -63 -11 30
-84 142 -93 142 -22 0 -17 -22 16 -72 20 -29 47 -75 61 -103 l25 -49 -17 -143
c-10 -79 -15 -146 -12 -150 15 -15 25 16 36 117 7 58 24 172 37 254 15 90 21
153 15 159 -5 5 -11 5 -15 -1z"/>
<path d="M5270 2280 c0 -5 14 -10 31 -10 l32 0 -4 -232 c-3 -149 0 -235 6
-238 6 -3 13 79 19 228 l8 232 49 0 c69 0 61 16 -12 24 -88 9 -129 8 -129 -4z"/>
<path d="M5551 1766 c-8 -10 -9 -16 -1 -21 13 -8 30 3 30 21 0 18 -14 18 -29
0z"/>
<path d="M1756 1028 c-7 -215 -4 -264 15 -252 12 7 12 474 0 474 -4 0 -11
-100 -15 -222z"/>
<path d="M2092 1204 c-13 -46 -10 -66 7 -48 4 5 13 28 19 52 14 60 -10 57 -26
-4z"/>
<path d="M2232 1240 c-26 -11 -42 -47 -42 -95 0 -51 16 -84 70 -141 51 -53 68
-101 55 -146 -9 -30 -34 -58 -52 -58 -7 0 -13 -4 -13 -10 0 -26 64 4 79 37 15
33 14 99 -3 131 -8 15 -32 44 -54 66 -73 70 -81 181 -14 201 18 5 32 13 32 17
0 10 -29 9 -58 -2z"/>
<path d="M2838 1244 c-3 -5 -7 -164 -9 -354 -4 -322 -3 -345 14 -348 15 -3 17
7 18 95 1 54 4 177 8 273 6 167 7 173 20 130 25 -85 63 -171 75 -167 6 2 25
37 43 78 18 40 36 75 40 76 5 2 5 -34 1 -79 -8 -107 -10 -342 -2 -391 4 -20
12 -37 19 -37 9 0 14 66 19 273 3 149 9 307 12 350 9 117 -11 102 -74 -58 -30
-74 -57 -135 -60 -135 -4 1 -27 61 -50 135 -43 132 -64 177 -74 159z"/>
<path d="M1860 1221 c0 -5 12 -11 28 -13 l27 -3 10 -195 c6 -123 14 -193 20
-190 6 3 9 7 9 10 -1 3 -5 89 -9 193 l-7 187 36 0 c19 0 38 5 41 10 4 6 -23
10 -74 10 -45 0 -81 -4 -81 -9z"/>
<path d="M3527 1223 c-2 -5 0 -42 4 -83 7 -64 9 -252 5 -450 -1 -43 2 -55 15
-58 15 -3 18 15 24 145 11 216 -5 453 -31 453 -7 0 -15 -3 -17 -7z"/>
<path d="M3227 989 c-4 -129 -7 -289 -7 -356 l0 -121 61 -4 c34 -1 66 0 72 4
20 12 -5 27 -53 30 -35 2 -46 7 -49 22 -2 11 0 85 4 164 l7 144 54 -6 c30 -3
55 -2 59 3 9 15 -29 31 -74 31 l-41 0 0 63 c0 35 3 99 7 141 l6 78 50 -4 c31
-2 52 1 54 8 5 15 -18 23 -87 31 l-57 6 -6 -234z"/>
<path d="M3513 524 c-9 -23 13 -40 32 -24 8 7 15 19 15 26 0 19 -39 18 -47 -2z"/>
</g>
</svg>
