<svg id="Panel_6" data-name="Panel 6" xmlns="http://www.w3.org/2000/svg" viewBox="0 0 738.85 729.28"><defs><style>.cls-1{fill:#2e809a;}.cls-2{fill:#f7d617;}.cls-3{fill:#f9d819;}.cls-4{fill:#38869e;}.cls-5{fill:#348398;}.cls-6{fill:#33839c;}.cls-7{fill:#35849a;}.cls-8{fill:#39869f;}.cls-9{fill:#39879f;}.cls-10{fill:#38869f;}.cls-11{fill:#37859e;}.cls-12{fill:#3d89a1;}.cls-13{fill:#36859e;}.cls-14{fill:#3b88a0;}.cls-15{fill:#35849d;}.cls-16{fill:#458ea5;}.cls-17{fill:#ecd120;}.cls-18{fill:#408ba2;}.cls-19{fill:#38838b;}.cls-20{fill:#35818e;}</style></defs><title>PANEL 06</title><path id="ARROW" class="cls-1" d="M308.88,542.34c3-12.66,6-25.32,9.13-38a39.25,39.25,0,0,1,2.31-7.46c2.26-4.8,6-6.59,9.62-5,3.17,1.42,4.74,6.39,3.81,10.55-3.33,14.78-6.79,29.55-9.59,44.44-1.27,6.72-1.28,13.69-1.56,20.56-.32,7.78-3.24,10-10.8,8.2a24.5,24.5,0,0,0-6.31-.55c-17.36.4-34.71.88-52.07,1.32a42.59,42.59,0,0,1-5.7,0c-3.74-.41-6.38-2.54-6.55-6.32-.17-4.05,2.61-5.55,6.44-6.07,18.08-2.45,36.13-5.08,54.87-7.74-.7-1.9-1.52-4-2.23-6.07-3.38-10.13-7-20.19-10-30.42-6.1-20.69-1.45-40.47,5.95-59.87,14.32-37.59,40.95-64,75.77-82.83,27.71-15,57.64-24.62,86.92-35.81,26.87-10.27,53.64-20.73,77.88-36.61a211.07,211.07,0,0,0,46-40.25,91.61,91.61,0,0,0,20.12-39.6,27.38,27.38,0,0,1,3-7.89,4.62,4.62,0,0,1,4.2-1.54c1.12.38,2.23,2.44,2.32,3.83.13,2.07-.64,4.19-1,6.29-4.13,22.18-15.83,39.64-32.39,54.71-30.34,27.59-66.15,46.18-102.63,63.63-27,12.91-54.61,24.52-81.74,37.15-26.18,12.19-49.81,28.12-67.16,51.66-23.89,32.41-33.35,67.91-20.5,107.49.26.81.59,1.59.89,2.38Z" transform="translate(-241.14 -215.37)"/><g id="LETTERS"><path class="cls-2" d="M457.57,581.09l22-3.26c.46,2.79,1,5.57,1.34,8.37.84,7.55,1.33,15.15,2.49,22.65.26,1.7,2.67,3.07,4.08,4.59,1.14-1.91,2.37-3.78,3.37-5.76.24-.48-.33-1.34-.42-2-1.25-9.34-2.47-18.69-3.69-27.93,6.69-2.49,10.28-7,12.86-12.57,8-5.38,17.43-6.81,26.41-6.35,7.28.38,13.34-1.36,19.78-3.7,3-1.09,6.77-1.76,9.73-.95,7.16,2,13.49-.49,20.2-1.92,5.64-1.2,11.56-1.3,17.37-1.5,7.23-.25,14.15,3,21.76.28,13.28-4.67,24.56,4.75,21.81,18.52-1.94,9.69-.51,18,3.43,26.81,5.1,11.42-3,23.36-15.47,23.38a32.27,32.27,0,0,1-12.4-2.4c-4.76-2-8.93-1.74-13.75-.4a33,33,0,0,1-13.26,1c-9.78-1.44-19.29-2-28.7,1.81-2.35,1-5.08,1-7.64,1.42-9,1.5-18.2,2.54-27.12,4.62-5.45,1.27-10.08,1.46-14.86-1.84-1.9-1.32-4.92-2.34-7-1.83-11,2.64-21.77,5.84-32.66,8.76a27,27,0,0,1-4.24.31q-15.85,1.58-31.7,3.22a13.58,13.58,0,0,0-2,.68c-8.89,2.44-17.76,4.94-26.68,7.25-1.54.4-3.29.05-4.94-.07-4-.28-8-.66-12-.95-6.36-.46-12.75-1.4-19.08-1.15-3.88.16-7.69,2.17-11.54,3.35l-3.77,3.39c-4.68,1-9.32,2.38-14,2.75-3.39.26-6.88-.86-10.33-1.37a3.17,3.17,0,0,0-.94-.5l-5.78-5.68a3.11,3.11,0,0,0-.51-.94l-3.47-9.22L315,628.45c.11-2.6.21-5.2.32-7.81.33-7.48,2.61-10.27,9.88-12.74,6.4-2.17,13.05-3.94,19-7,8.31-4.33,17.28-4.44,26.09-5.94,5.23-.89,10.31-2.7,15.47-4,3.62-.93,7.28-1.75,10.92-2.61-.05,8.05,0,16.11-.24,24.15-.1,3.08-.3,6.27,3.44,6.54s3.36-3.4,3.49-5.8c.42-8,.57-16.1.82-24.15,5.78-.18,11.6,0,17.33-.69,3-.34,5.92-1.91,8.66-3.34,1.56-.82,2.7-2.46,4-3.74.56,2.29,1,4.6,1.7,6.85,2.33,7.68,4.42,15.46,7.26,23,1.3,3.42,4.48,5.37,8.72,4.6,4.39-.8,6.63-3.63,7.41-7.62a26.9,26.9,0,0,0,0-7.09C458.78,594.34,458.15,587.71,457.57,581.09Zm69.19,28.65c2-2.65,3.65-4.24,4.25-6.17.21-.66-3.06-3.36-3.45-3.11a12.26,12.26,0,0,0-4.42,4.7C522.84,605.78,525,607.6,526.76,609.73Zm30.33-2.1c1.95-2.34,3.66-3.93,4.59-5.89.2-.42-2.39-2.18-3.7-3.32-1.42,1.64-3.17,3.12-4.07,5C553.62,604,555.58,605.71,557.09,607.64Zm35.76-7.86c-2.69-1.52-4.69-3.36-5.45-2.94-1.82,1-3.05,3.06-4.52,4.7,1.18,1,2.75,3.11,3.47,2.85C588.31,603.68,589.92,602,592.85,599.78Z" transform="translate(-241.14 -215.37)"/><path class="cls-3" d="M574.08,930.66c.53-9,2-10.51,11-12.22,4.37-.84,8.52-2.75,12.89-3.58a67.33,67.33,0,0,1,12.47-1c5,0,9.86,0,13.53-4.32,2.56-3,5.59-3.74,9.58-2.24a9.35,9.35,0,0,0,7-.6c7.38-4.22,14.7-5.8,23-2.65,1.95.74,4.83-.59,7.16-1.35,2.17-.71,4.59-3.22,6.18-2.71,8.64,2.8,17,.6,25.52-.28a54.61,54.61,0,0,0,6.13-.65c5.23-1.15,7.85.75,9,6.12,1.25,6,3.53,12.75-2.85,16.55-5.24,3.13-12,6.31-17.65,5.59-9.71-1.25-18.1,2.48-27.09,3.7-5.29.71-10.76,2.62-15.81,1.81a17.57,17.57,0,0,0-11.31,1.78c-2.43,1.15-5.74.57-8.65.53-2.66,0-5.44-1-8-.5-8.74,1.77-17.4,4-26.06,6.07-4.73,1.16-9.34,3-14.12,3.65-9.15,1.31-12.31-1.63-12.44-10.72A18.38,18.38,0,0,1,574.08,930.66Z" transform="translate(-241.14 -215.37)"/><path class="cls-4" d="M612,880c0-14,4-34,1.15-57.32l-10,22.11c-7.39-8.8-8.81-18.87-14.06-27.52,0,14.41,0,28.82,0,43.23,0,7.61-.17,15.21-.21,22.82,0,3.13.36,7-4.07,6.79-3.94-.15-3.38-3.74-3.34-6.62.35-30.18.64-60.37,1.08-90.55,0-1.57.29-4.26,1.94-4.68s3.38,1.83,3.88,3.19c4.26,11.58,8.24,23.27,12.31,34.92.35,1,.66,2,1.46,4.47,4.76-11.57,8.83-21.85,13.27-32,1.19-2.72,2.36-8,5.34-7.38s2.06,6,2,9c-1,28.25.36,84.54-2.64,87.54C615.05,892.95,612,887,612,880Z" transform="translate(-241.14 -215.37)"/><path class="cls-5" d="M457.57,581.09c.58,6.63,1.21,13.25,1.71,19.88a26.9,26.9,0,0,1,0,7.09c-.78,4-3,6.82-7.41,7.62-4.24.77-7.42-1.18-8.72-4.6-2.84-7.49-4.93-15.27-7.26-23-.68-2.25-1.14-4.56-1.7-6.85q-3.83-27.07-7.66-54.14a128.87,128.87,0,0,1-1.7-13.37c-.07-1.91,1.46-3.88,2.27-5.82,1.66,1.56,4.5,2.92,4.79,4.71,1.56,9.33,2.3,18.8,3.65,28.18,1.75,12.19,3.8,24.34,5.73,36.5,1.62,11.06,2.44,22.35,9.43,32.08,3.08-10.64.15-21-1-31.49-1.84-21-3.66-42.06-5.57-63.08-.24-2.62-1.31-5.9,2.38-6,1.48-.06,4.21,3.08,4.46,5,1.15,8.69,1.49,17.48,2.35,26.22C454.6,553.72,456.12,567.4,457.57,581.09Z" transform="translate(-241.14 -215.37)"/><path class="cls-5" d="M500.38,560.34l-.76,4.8c-2.57,5.54-6.17,10.08-12.86,12.57,1.22,9.24,2.45,18.59,3.69,27.93.09.7.66,1.55.42,2-1,2-2.22,3.85-3.37,5.76-1.42-1.52-3.82-2.89-4.08-4.59-1.16-7.5-1.66-15.1-2.49-22.65-.31-2.81-.89-5.58-1.34-8.37q-1.32-28.32-2.64-56.64a80.94,80.94,0,0,0-.71-10.61c-.88-4.84,1.69-5.89,5.56-5.9,10.41,0,20,7.83,20.45,18.87C502.7,535.78,501.1,548.08,500.38,560.34Zm-14.52,8.75c6.26-1.56,7.36-5.72,7.69-9.63,1-11.53,1.76-23.1,2-34.67.14-7-4.13-11.21-11.91-13.07Z" transform="translate(-241.14 -215.37)"/><path class="cls-6" d="M646.46,798.93v37.72a114.08,114.08,0,0,1,11.47,1.68c1.47.35,4,1.62,3.87,3.34s-2.89,2.4-4.36,2.43c-3.75.07-7.52-.53-12.31-1-.21,14.53-.52,28.49-.43,42.44,0,1.11,2.59,2.72,4.23,3.17,2.47.68,5.23.26,7.73.86a3.88,3.88,0,0,1,2.37,2.93c-.06.91-1.79,2.4-2.83,2.44a96.89,96.89,0,0,1-14.24-.24c-3.91-.43-4.35-3.69-4.31-7,.11-10,0-20,.19-30q.65-30.65,1.64-61.29c0-1.38,1.16-3.87,1.88-3.91,8.63.45,21.63-.55,21.3,4.19C662.16,804.14,652.41,797.16,646.46,798.93Z" transform="translate(-241.14 -215.37)"/><path class="cls-7" d="M404.13,589c-.25,8.05-.4,16.11-.82,24.15-.12,2.4.31,6.07-3.49,5.8s-3.54-3.46-3.44-6.54c.27-8,.18-16.1.24-24.15l.07-2.68c.26-6.16.72-12.33.68-18.49a12.31,12.31,0,0,0-2-6.58c-6.89-9.92-14-19.7-21.15-29.43-1.66-2.25-4.84-4.19-1.28-6.95,3.36-2.6,5,.56,6.75,2.77l18.34,23.2c.56-7.81,1.07-14.91,1.57-22,.18-2.6-.08-5.33.62-7.78.4-1.41,2.34-2.38,3.58-3.54,1,1.35,2.94,2.67,3,4,.17,5-.3,10-.5,14.94Q405.22,562.41,404.13,589Z" transform="translate(-241.14 -215.37)"/><path class="cls-8" d="M685.41,707.85c0-3.62.15-7.24,0-10.85-1-20.65-2.06-41.3-3-62-.07-1.54.06-4.4,1.71-4.71,1.85-.35,2.74,2.65,3.71,4.23.56.9.34,2.31.39,3.5q1.4,31.71,2.78,63.42c.07,1.66.6,3.66-.11,4.92-1.41,2.49-3.23,5.9-5.46,6.42-2.07.48-6-1.7-7.16-3.8a35.39,35.39,0,0,1-4.06-12.77c-2.48-20.53-4.62-41.1-6.67-61.68-.17-1.67.08-5,1.95-5.25,2-.29,3.43,3.17,3.63,4.92,2.29,20.07,4.17,40.19,6.41,60.27.51,4.6,2,9.1,3,13.64Z" transform="translate(-241.14 -215.37)"/><path class="cls-9" d="M564.9,715.29c.2-2.71.54-5.41.57-8.12.29-21.38.47-42.75.85-64.13,0-1.54.43-4.35,2.1-4.58s2.62,2.38,3.25,3.86.45,3.26.42,4.91q-.54,31-1.14,62c-.14,7.87-2,11.27-6.4,11.88-4.6.64-8.2-2.59-9-10.65C553.87,693.69,553,676.85,552,660c-.39-6.16-.54-12.35-.4-18.52,0-1.7.49-4.95,2.37-5.05,2.06-.12,3.12,3.44,3.21,5.23,1,19.69,1.56,39.4,2.54,59.09.25,5,1.57,10,2.39,14.94Z" transform="translate(-241.14 -215.37)"/><path class="cls-10" d="M531.06,705.72c-1.74,8.7-5.72,12.43-10.83,12.17-4.43-.23-9-5-10.37-12.18a111.52,111.52,0,0,1,5.46-61.49,15.11,15.11,0,0,1,2.94-4.81c3.25-3.49,6.81-3.28,9.48.71a19,19,0,0,1,3.06,7.11C532.47,657.25,536,694,531.06,705.72Zm-6.94-64c-1.94,1.45-2.44,1.64-2.65,2a20.13,20.13,0,0,0-1.56,3.2c-6.36,17.83-7.67,36.17-5.41,54.84a18.28,18.28,0,0,0,2.16,6.73,8.37,8.37,0,0,0,4.34,3.8c.78.22,2.67-2.22,3.5-3.76a14.78,14.78,0,0,0,2-6.06c.6-14,1.38-28,1.23-42C527.64,654.55,525.49,648.59,524.12,641.74Z" transform="translate(-241.14 -215.37)"/><path class="cls-11" d="M838.47,624.08c6-3.71,12.28,5,15.57,10.76,10.47,18.23,13.59,37.44,5,57.23-2.37,5.49-6.89,10.11-10.76,14.85-1,1.24-3.61,2.31-4.9,1.84s-2.08-3-2.31-4.66c-.64-4.7-1.06-9.44-1.23-14.18-.76-20.87-1.4-41.74-2-62.62C837.81,626.44,837.19,624.88,838.47,624.08ZM846,701.86c17.06-18.37,15.47-56.77-2.29-69.9Z" transform="translate(-241.14 -215.37)"/><path class="cls-10" d="M632.07,699.12a8.49,8.49,0,0,0,1.23,4.05c1.64,2.1,2.91,6.14,5.57,5.8,2.43-.31,3.15-4.12,3.54-6.39.81-4.66.74-9.46,1.16-14.19.36-4.07-.45-6.83-5.37-7.2-1.59-.12-4.91-1.37-4.56-3.22s3.71-1.53,5.48-1.37c10.07.9,10.33,1,10.08,10.94a127.31,127.31,0,0,1-1.9,19.81c-1.23,6.64-7.38,9.11-12.94,5.29-2.57-1.77-5.22-4.6-6.09-7.48-6.27-20.75-5.8-41.79-.93-62.69,1.7-7.28,8.95-9.46,14.36-5.15.94.75,2.4,2.15,1.95,3.37s-2.48,1.41-3.6,1.25c-7.48-1.09-8-.77-9.16,6.79-.35,2.35-.65,4.72-.79,7.09C629.8,660.8,630.91,689.71,632.07,699.12Z" transform="translate(-241.14 -215.37)"/><path class="cls-10" d="M816.77,704.36c4.58,2.28,14.18-2.55,12.84,3.59-1.25,5.74-10.18,2.83-15.06,1.85-1.51-.3-3-4.46-3.18-6.94-1.24-17.75-2.12-35.53-3.15-53.3-.32-5.45-.51-10.91-1.18-16.32-.42-3.4.54-4.91,4-5,4.84-.09,16.62-2.09,14.1,4.15-.93,2.31-5,.93-7.41.75-3.46-.25-4.71.84-4.47,4.37.58,8.51.89,17,1.34,26.14,3.61.16,6.9.11,10.11.56,1.08.15,3,1.16,2.94,2.46s-1.92,2.17-3,2.29a93.07,93.07,0,0,1-9.83.11Z" transform="translate(-241.14 -215.37)"/><path class="cls-12" d="M716.9,706.56c4.65.4,11.34-3.2,13.12,1.12,1.95,4.72-12.25,6.44-15.3,4.19-2-1.45-3.15-5-3.34-7.7-1.58-23-2.91-45.93-4.1-68.9-.08-1.64,1.24-4.61,2.32-4.82,5.27-1,12.5-3.07,15.47,1.69a2,2,0,0,1,.18,2.1c-2.39,3-7.58,1-12,1.58l1.51,29.6c3.15.15,6,0,8.67.52,1.58.31,4.47.93,4.41,2.66s-2.83,2-4.37,2.26c-2.49.38-5.08.1-8.6.1Z" transform="translate(-241.14 -215.37)"/><path class="cls-11" d="M491.81,664.66c1.34-7.69,2.29-14.22,3.72-20.64.36-1.62,1.58-4.67,3.4-4.34s2,3.73,1.74,5.42c-2.34,16.2-5,32.36-7.45,48.54-1,6.57-1.5,13.22-2.64,19.77-.28,1.62-2.18,3-3.34,4.43-.67-1.77-2.08-3.62-1.9-5.29,1.1-10.15,2.86-20.23,3.76-30.39.36-4,0-8.64-1.66-12.2-3.51-7.48-8.22-14.38-12.2-21.65-.82-1.5-2.33-4.28-.87-5.38s4,1,5,2.33C483.49,651.23,487.26,657.49,491.81,664.66Z" transform="translate(-241.14 -215.37)"/><path class="cls-13" d="M689.52,871.52c-.18,2.13-2.13,5.84-3.24,5.83-3.73,0-3.76-3.38-3.6-6.35.48-9,1.44-18,1.3-27-.24-15.15-1.19-30.3-1.86-45.44-.05-1.18-.77-2.57-.34-3.48.79-1.68,1.44-4.53,3.33-4.58s3.26,2.76,3.46,4.33c1,7.76,1.71,15.57,2,23.38.33,8.29.07,16.6.07,24.89C690.82,843.1,690.33,862.07,689.52,871.52Z" transform="translate(-241.14 -215.37)"/><path class="cls-11" d="M745.2,710.2c-.37-1.48,1.07-1.81,1.43-2,4.63-1.9,9.17-3.54,10.24-9.6,1.26-7.15.86-13.82-3.88-19.54-2.71-3.26-6.07-6-9.09-9-8.61-8.57-10.33-18.91-7.26-30.21,1.6-5.91,8.62-10,14.5-8.88,1,.18,2.43,1.19,2.48,1.89.05.86-1.13,2.55-1.82,2.57-6,.19-10,2.4-10.69,8.94-.89,8.16.33,15.64,6.31,21.72,2.33,2.37,4.89,4.51,7.3,6.8A28,28,0,0,1,761,703.82c-2.29,5.18-6.89,7-11.76,8.23C748.23,712.31,745.65,712,745.2,710.2Z" transform="translate(-241.14 -215.37)"/><path class="cls-13" d="M784.63,630.19l2.7,2.12c-1.13,1-2.11,2.5-3.41,2.85-8,2.13-8.73,2.59-9.41,10.67-.67,7.92,1.36,14.93,7.32,20.69,4.06,3.92,8.28,7.92,11.32,12.6,4.68,7.22,4.5,15.33,1.63,23.32-1.56,4.32-7.9,9.08-12,8.88-1.11-.05-3-.73-3.25-2-.18-1.06,1.17-2.17,2-2.45,4.31-1.4,7.6-3.49,8.7-8.39,1.34-6,1.63-12-1.93-17.17a62.3,62.3,0,0,0-9.52-10.43c-8.95-8.17-11.68-18.18-9.19-29.73C771.19,633.94,776,630.33,784.63,630.19Z" transform="translate(-241.14 -215.37)"/><path class="cls-14" d="M960.26,644c-2.56,4.72-9.63.62-14.73.95-.21,4.42-.48,9-.63,13.66q-.76,22.77-1.45,45.54c0,1.19.32,2.57-.18,3.51-.66,1.24-1.57,3.3-3,3.17s-2.41-2.43-2.4-3.63c.06-8.3.6-16.6.69-24.9.14-12.53,0-25.06,0-38.16a30.33,30.33,0,0,1-5.35-.55,3.28,3.28,0,0,1-2-2.36c0-.78,1.31-2.33,2-2.29,8.44.5,16.87,1.21,25.29,1.93C958.72,640.87,961.57,641.57,960.26,644Z" transform="translate(-241.14 -215.37)"/><path class="cls-9" d="M918.61,645.21c-1.8,22-3.55,44-5.52,65.92-.12,1.38-1.35,4-3,3.91s-2.41-2.57-2.39-3.84c.11-6.63.48-13.27,1-19.88q2.3-26.93,4.92-53.83c.12-1.27,1-3.52,2.43-3.62,1.3-.08,2.31,1.81,2.52,2.9C919.14,639.54,918.86,645.22,918.61,645.21Z" transform="translate(-241.14 -215.37)"/><path class="cls-8" d="M499.52,853.45C510,847,513,833.7,501.62,823.73c-9.39-8.22-12.76-18.6-9.26-28.48,2.24-6.31,15.5-14.9,16.19-5.81.21,2.74-3.86,2.5-5.28,2.52-5,.09-6.4,3.14-7,7.31-1.31,8.76,1.42,15.95,8.35,21.4a24.41,24.41,0,0,1,9.23,14.77c2,9.76-2.06,18-9.93,20.18-1.38.39-3.59.87-4.57-.31A1.42,1.42,0,0,1,499.52,853.45Z" transform="translate(-241.14 -215.37)"/><path class="cls-15" d="M974.79,667.68c-.59-9.08-1.36-18.56-1.7-28-.07-1.89,1.24-5.31,2.31-5.48,3.56-.54,2.86,2.74,3.12,5,2.26,19.69,1.68,39.39-.06,59.06-.16,1.81-1.73,5-2.51,5-3.61-.19-3.25-3.26-3.08-5.91C973.49,687.55,974.13,677.82,974.79,667.68Z" transform="translate(-241.14 -215.37)"/><path class="cls-10" d="M452,795.82c-2.91-.72-6.41.14-7.93-1.95-.45-.62-.61-2.26.16-2.31C453,791,458,790,467.87,790.8c.76.06.77,1.65.33,2.28-2,2.9-6.92,1.45-11.07,2.32,0,4-.15,8.42,0,12.81.5,12.57,1.22,25.13,1.57,37.71,0,1.59-.58,4.87-2.39,4.83s-2-3-2.06-4.62C453.41,829.33,452.74,812.53,452,795.82Z" transform="translate(-241.14 -215.37)"/><path class="cls-16" d="M429.36,819.62c0-9.45-.05-18.91.07-28.36,0-1.18.2-3.27,1.45-3.52,1.44-.29,2.92,2,3,3.08.46,5.65.65,11.33.59,17q-.2,21.3-.77,42.6c-.06,2,.23,5.88-1.88,6-2.34.18-3-4.16-3-6.29C428.49,840,429.13,819.62,429.36,819.62Z" transform="translate(-241.14 -215.37)"/><path class="cls-17" d="M449.63,577.92c1.17,10.44,4.09,20.85,1,31.49-7-9.73-7.81-21-9.43-32.08Z" transform="translate(-241.14 -215.37)"/><path class="cls-18" d="M481.39,786.69a2.91,2.91,0,0,1,2,2.56c-1.09,4.32-2.51,8.57-3.83,12.83a35.69,35.69,0,0,1-3.63-1.2c1-4.34,2.14-8.64,3.42-12.91A2,2,0,0,1,481.39,786.69Z" transform="translate(-241.14 -215.37)"/><path class="cls-12" d="M683.41,898.47c-3.31-.11-4-4.89-3.57-5.88.75-1.77,2.93-3.22,4.84-4,.51-.22,3.35,2.61,3.12,3.55C687.33,894,686.95,898.58,683.41,898.47Z" transform="translate(-241.14 -215.37)"/><path class="cls-9" d="M973.73,720c-2.55.17-3.63-3.42-3.38-4.12a6.9,6.9,0,0,1,3.47-3.55c.53-.24,3,1.83,2.94,2.63C976.58,716.43,976.33,719.79,973.73,720Z" transform="translate(-241.14 -215.37)"/><path class="cls-19" d="M526.76,609.73c-1.74-2.13-3.92-4-3.61-4.58a12.26,12.26,0,0,1,4.42-4.7c.4-.25,3.66,2.44,3.45,3.11C530.41,605.49,528.71,607.08,526.76,609.73Z" transform="translate(-241.14 -215.37)"/><path class="cls-20" d="M557.09,607.64c-1.51-1.92-3.47-3.6-3.18-4.21.9-1.89,2.65-3.36,4.07-5,1.31,1.14,3.9,2.9,3.7,3.32C560.75,603.71,559,605.29,557.09,607.64Z" transform="translate(-241.14 -215.37)"/><path class="cls-19" d="M592.85,599.78c-2.94,2.2-4.54,3.9-6.5,4.61-.72.26-2.29-1.83-3.47-2.85,1.47-1.63,2.7-3.7,4.52-4.7C588.16,596.42,590.17,598.26,592.85,599.78Z" transform="translate(-241.14 -215.37)"/></g></svg>