<svg id="PANEL_3" data-name="PANEL 3" xmlns="http://www.w3.org/2000/svg" viewBox="0 0 1200 1200"><defs><style>.cls-1{fill:#f8d406;}.cls-2{fill:#2e7f95;}.cls-3{fill:#30819b;}.cls-4{fill:#31819b;}.cls-5{fill:#31829b;}.cls-6{fill:#2c7f99;}.cls-7{fill:#32839c;}.cls-8{fill:#b5eafa;}.cls-9{fill:#6fa8b9;}.cls-10{fill:#f9fcfc;}.cls-11{fill:#b4edfd;}.cls-12{fill:#f5f9f9;}.cls-13{fill:#b4ecfd;}.cls-14{fill:#92d5e9;}.cls-15{fill:#b4eafa;}.cls-16{fill:#b5ecfd;}.cls-17{fill:#f0f7f8;}.cls-18{fill:#90d2e6;}.cls-19{fill:#f0f5f7;}.cls-20{fill:#f3f7f8;}.cls-21{fill:#e9f5f8;}.cls-22{fill:#86c9de;}.cls-23{fill:#aae5f7;}</style></defs><title>PANEL 03</title><g id="LETTERS"><path class="cls-1" d="M546.95,914.73v15.63c-24.78,2.56-49.07,5-73.6,3.23-4.25-.3-8.63,1.14-12.95,1.84-52.32,8.42-102.9,23.13-152,42.92-12.16,4.9-23.67,11.38-35.54,17-3.77,1.79-7.63,4-11.64,4.5-3,.38-7.43-.72-9.15-2.84s-1.89-6.84-.67-9.43c2.37-5,6.21-9.33,9.44-13.93,2,4.69,5.23,5.42,9.76,3.32,83.09-38.66,170.89-56.13,262.13-58.33C537.5,918.53,542.21,916.09,546.95,914.73Z"/><path class="cls-2" d="M546.95,914.73c-4.74,1.36-9.45,3.8-14.21,3.91-91.23,2.21-179,19.67-262.13,58.33-4.53,2.11-7.72,1.37-9.76-3.32.14-4.6,3.74-6.09,7.11-7.37,24.72-9.42,49.27-19.35,74.3-27.89,47.85-16.32,97.25-25,147.76-26.93,16.79-.64,33.63-.26,50.45,0C542.65,911.5,544.79,913.6,546.95,914.73Z"/><path class="cls-3" d="M324,848.32c-.42,8.21-.81,16.43-1.29,24.64-.16,2.7,1.14,6.86-3.22,6.61-1.63-.09-3.94-3.88-4.4-6.29-3.47-18.12-6.63-36.3-9.72-54.48-1.93-11.34-3.71-22.71-5.22-34.11-.21-1.62,1.48-3.49,2.28-5.25,1.49,1.25,4,2.29,4.3,3.78,2,9.65,3.46,19.4,5,29.12,1.53,9.33,3,18.68,5.31,28,.59-6.37,1-12.76,1.89-19.09.25-1.74,2-3.25,3.13-4.87,1.38,1.48,3.53,2.75,4,4.48,2.39,8.8,4.34,17.72,6.48,26.59a10.34,10.34,0,0,0,2.58,5.08c.34-7.62.64-15.25,1-22.87.81-15.89,1.54-31.78,2.66-47.64.14-1.93,2.27-5.13,3.72-5.28,3.48-.35,3.42,2.84,3.29,5.52q-2,43.29-4,86.58a4.82,4.82,0,0,1-.31,2.15c-1.32,2.18-2.78,4.28-4.19,6.41-1.58-1.82-3.84-3.39-4.62-5.51-2.85-7.8-5.22-15.78-7.76-23.69Z"/><path class="cls-3" d="M400.45,274c-2-19.8-4.12-39.59-6-59.41a13.37,13.37,0,0,1,1.28-6c.2-.49,2.75-.75,3.28-.21a8.13,8.13,0,0,1,2.24,4.4c2.45,22.52,4.71,45.07,7.14,67.6.74,6.9,2,13.75,2.71,20.65.18,1.72-.66,3.54-1,5.32-1.58-1.16-3.88-2-4.63-3.52q-9.2-19.26-17.86-38.77c-3.9-8.79-7.43-17.74-11.12-26.62l-1.63.32L384,307.89c-4.44,1.68-6.64-.09-7.24-5.12-3.42-29-7-58-10.33-87.08-.2-1.77,1.31-3.73,2-5.61,1.43,1.21,3.47,2.13,4.19,3.67,5.41,11.56,10.7,23.19,15.76,34.91,3.75,8.71,7.1,17.59,10.63,26.39l1.2,2.52.61-.17Z"/><path class="cls-3" d="M265.21,250.74l-6.6,24.91c-7.58-6-10.1-14.26-14.81-20.78l-1.35.4a59.12,59.12,0,0,0,.33,6q4.05,26.29,8.21,52.57c.17,1.08.72,2.38.33,3.22a31.76,31.76,0,0,1-3.18,4.68c-1.28-1.25-3.43-2.34-3.69-3.77-1.54-8.64-2.55-17.36-3.93-26-3.32-20.94-6.81-41.85-10-62.81-.27-1.74.86-3.7,1.35-5.56l2.56-.34,21,38.37c2.72-11.8,5.18-23,8-34.19.51-2,2.5-3.69,3.8-5.53,1,1.94,2.62,3.79,2.88,5.83q5.52,43.23,10.63,86.52c.23,2-.75,4.06-2.44,6C269.83,298.16,268,275.11,265.21,250.74Zm-23.45-.37c-.47.56-1,.92-1,1.23s.53.77.83,1.15c.32-.26.9-.52.9-.79C242.5,251.53,242.12,251.1,241.76,250.37Z"/><path class="cls-3" d="M518.14,277.18c.31-5.61.42-11.25,1.06-16.83.2-1.76,1.8-3.36,2.76-5,1.38,1.5,3.45,2.78,4,4.55,2.47,7.83,4.48,15.8,6.73,23.7a10.76,10.76,0,0,0,2.75,4.84c0-6.73,0-13.46,0-20.19.12-15,.31-30,.45-45,0-2.62-.13-5.88,3.45-5.36,1.31.19,3.05,3.67,3.06,5.66.12,26.17.08,52.33-.28,78.5,0,3.07-2.2,6.11-3.38,9.16-2-2.34-4.67-4.39-5.83-7.09-2.71-6.24-4.68-12.8-8.24-19,0,7.39.2,14.8-.12,22.18-.1,2.32-1.57,4.58-2.42,6.87-1.63-2.1-4.19-4-4.73-6.33-4.56-19.95-8.78-40-13-60-1.48-7-3-13.94-4.07-21-.24-1.51,1.16-3.27,1.8-4.92,1.44,1,3.84,1.84,4.16,3.15,2.37,9.75,4.36,19.6,6.42,29.43,1.59,7.61,3.12,15.23,4.68,22.84Z"/><path class="cls-4" d="M425.64,826c7.55,4.09,10,11,11,18,1.44,10.64,1.81,21.44,2.27,32.18.05,1.21-2.27,2.51-3.49,3.77-1.26-1.3-3.48-2.51-3.61-3.9-.5-5.63.26-11.41-.59-17A164,164,0,0,0,426,837.54c-.63-2.12-2.9-3.74-5.41-6.79,0,12.46,0,23.12,0,33.78,0,3,.5,6.53-3.75,6.42-3.52-.09-3.7-3.09-3.68-6.11,0-9.5.08-19-.41-28.5-1.16-22.18-2.6-44.35-4-66.52-.3-4.74,1.43-5.86,6.26-4.67,13.68,3.37,17.39,14.48,19.13,26C436,803.34,435.11,815.63,425.64,826Zm-5.88-4.75c11.75-7.4,9-44.33-2.85-47.44Z"/><path class="cls-3" d="M467.41,837.12c.75,12.57,1.62,25.14,2.08,37.73.06,1.66-2,3.4-3.11,5.1-1.43-1.67-4-3.23-4.13-5-2.58-28.19-4.82-56.42-7.24-84.63-.45-5.28-1.67-10.5-1.85-15.77-.06-1.81,2-3.69,3-5.54,1.4,1.53,3.78,2.91,4,4.63,1.94,12.44,3.46,25,5.11,37.44l1.95.22c2-12.39,4.11-24.76,5.89-37.17.37-2.61-.28-5.48,3.44-5.52s4.6,2.69,4,5.71c-2.84,15.24-5.64,30.5-8.87,45.67-.91,4.26-.82,7.43,1.46,11.53,7.3,13.13,12.88,27.08,15,42.09.28,2-1,5.62-2.3,6-3.47,1.09-4.15-2-5-4.86-3.64-12.71-7.5-25.35-11.29-38Z"/><path class="cls-3" d="M306.38,472.57c3.7-10.11,7-19.71,10.78-29.15,1-2.54,3.16-4.62,4.78-6.91.75,2.91,2.16,5.83,2.13,8.73-.18,17.36-.87,34.71-1,52.07-.08,9.31.72,18.63.8,27.94,0,1.73-1.49,3.48-2.3,5.22-1-1.56-2.68-3.09-2.77-4.7-.88-16.23-1.52-32.46-2.17-48.7a62.73,62.73,0,0,0-.75-10.41l-7.94,18.63-2.11.37-11-24c0,7.53-.14,15,0,22.38q.43,19.46,1.21,38.91c.11,2.8,0,5.76-3.27,5.55-1.35-.09-3.52-3.39-3.58-5.29-.78-23.2-1.2-46.41-1.79-69.61-.13-4.93-.76-9.85-.76-14.77,0-1.43,1.39-2.86,2.15-4.29,1.13,1,2.81,1.68,3.31,2.9C296.88,448.86,301.46,460.38,306.38,472.57Z"/><path class="cls-4" d="M566.16,256.21l10.33-.78c0-14.2,0-27.85,0-41.5,0-1.65-.55-3.45,0-4.9.62-1.76,2.08-3.23,3.18-4.82,1.16,1.6,3,3.06,3.34,4.83.64,3,.36,6.18.52,9.29q2.19,41.56,4.39,83.12c.12,2.37.57,4.83.11,7.1-.31,1.54-1.94,2.81-3,4.2-1.29-1.35-3.6-2.63-3.72-4.08-.72-9.11-.88-18.26-1.36-27.39-.33-6.37-.88-12.72-1.36-19.62l-10.37.83c.6,14.66,1.21,29,1.77,43.38.1,2.62,1.11,6.17-3.17,6.09-3.84-.08-3.48-3.49-3.6-6.22q-2-46.31-4.05-92.61c-.12-2.72-.83-6.32,3.17-6,1.45.13,3.64,3.86,3.69,6C566.32,227.21,566.16,241.28,566.16,256.21Z"/><path class="cls-3" d="M358.93,828.41c1.7-11.74,3.3-24.78,5.63-37.69a46.34,46.34,0,0,1,5.35-13.7c3.5-6.36,10.2-6.44,14-.3a42.46,42.46,0,0,1,4.53,10.52c6.55,23.26,7.1,46.91,3.78,70.69a43.68,43.68,0,0,1-4.34,13.46c-4,7.91-13,9-18.34,2a39,39,0,0,1-6.89-15.23C360.71,848.87,360.2,839.33,358.93,828.41Zm19.43-49-2,.1a54.83,54.83,0,0,0-2.8,6.35,149.43,149.43,0,0,0-4,70.48,39.71,39.71,0,0,0,4.83,12.09c2.12,3.75,5.56,3.48,7.48-.4a29,29,0,0,0,2.61-8.32c3.45-22.44,3.29-44.8-2.1-67C381.24,788.27,379.7,783.87,378.37,779.43Z"/><path class="cls-5" d="M394.21,630.81l6.65,61.14c-3.6,1.51-5.89.3-6.32-4.12-2.56-26.39-5.14-52.77-7.57-79.17-.14-1.51.92-3.14,1.43-4.71l1.67-.35c1.68,2.85,3.77,5.54,5,8.58,6.1,15.26,12,30.61,17.94,45.91a18.32,18.32,0,0,0,3.22,5.71c-.86-10.05-1.8-20.09-2.57-30.15-.66-8.56-1.28-17.14-1.53-25.72,0-1.68,1.5-4.65,2.7-4.87,3.14-.57,3.35,2.09,3.57,4.7,2.19,26.06,4.53,52.1,6.71,78.16.15,1.74-.61,3.57-.95,5.35-1.49-1.28-3.67-2.26-4.36-3.88-7.24-17-14.25-34-21.32-51.05-.81-2-1.59-3.92-2.38-5.88Z"/><path class="cls-6" d="M545.43,804c0,9,.21,17.93-.11,26.88a28.08,28.08,0,0,1-2.4,10.51c-1,2.09-4.51,5.11-5.48,4.66-2.49-1.15-4.48-3.82-6.09-6.27-.77-1.17-.3-3.21-.26-4.85a389,389,0,0,0-5.58-76.39c-.72-4.09-1.3-8.51,4.54-9.26,10.54-1.34,12.51-.43,13.15,7.14,1.34,15.82,2.17,31.68,3.21,47.53Z"/><path class="cls-7" d="M631.79,268.24c-.88,9.06-1.33,18.18-2.79,27.15-1,6-3.16,11.92-10.71,12.81-5.11.61-10.72-3.08-13.05-10.56A129.34,129.34,0,0,1,599.62,271c-1.49-16.6-1.14-33.26,4-49.4,1.59-5,3.13-10.95,9.81-10.89,6.06.06,7.58,5.77,9.29,10.23C628.49,236.1,630.91,251.93,631.79,268.24Zm-18.43-52a26.18,26.18,0,0,0-1.85,3.08,61.29,61.29,0,0,0-2.23,6.75,141.64,141.64,0,0,0-1.39,56.6c1,5.63,3.53,11,5.77,16.37.55,1.31,2.87,2.82,4.13,2.62s3-2.11,3.51-3.62a39.09,39.09,0,0,0,2.25-10.14c1.29-21.85.32-43.5-6.76-64.48A72.26,72.26,0,0,0,613.37,216.27Z"/><path class="cls-4" d="M188.9,269.29c1.66-11,3.18-21.93,5-32.85.75-4.43,3.42-8.72,8.08-8.12,3.07.39,7.18,3.69,8.27,6.64,4.29,11.58,8.9,23.32,10.88,35.41,2.13,13,2.16,26.54,1.75,39.79-.3,9.86-4.22,14.09-10.12,14.94-5.71.83-11.16-3.22-14.76-11.67C192.05,299.42,190.9,284.48,188.9,269.29Zm13.93-34.68-1.66.43c-.85,3.32-1.94,6.6-2.52,10-2.77,16.18-2,32.4.84,48.43,1.3,7.23,4.2,14.23,7,21.1.76,1.91,3.59,3,5.47,4.44,1.3-2,3.56-4,3.74-6.08a196.18,196.18,0,0,0,.73-22.85A142.34,142.34,0,0,0,206.31,241,59.74,59.74,0,0,0,202.82,234.61Z"/><path class="cls-4" d="M356.9,490.53c-11.82.12-11.87.11-12.74,10.74-.71,8.7-1.18,17.43-2.09,26.11-.14,1.29-2.12,2.4-3.24,3.59-1.28-1.53-3.58-3-3.64-4.6-.17-4.53.63-9.09.93-13.65,1.1-17.12,2-34.25,3.27-51.37a90.15,90.15,0,0,1,2.44-16.77c.79-3,3.56-5.41,5.43-8.08,2.33,2.11,5.8,3.81,6.77,6.42a120.75,120.75,0,0,1,6.5,23.1c2.84,18.39,4.87,36.91,7.19,55.38.16,1.26.46,2.73,0,3.79a24.83,24.83,0,0,1-3.06,4.36c-1-1.21-2.74-2.32-2.93-3.65-1.44-9.75-2.56-19.55-3.81-29.34C357.66,494.63,357.27,492.71,356.9,490.53Zm-7.6-43.29-1.93.2-3.21,37.93,13.3-1.77Z"/><path class="cls-3" d="M324,252.46c1.24-9.2,2.37-18.41,3.79-27.57a19.87,19.87,0,0,1,2.49-6.63c2.93-5.12,8.33-5.68,12.15-1.22a26.92,26.92,0,0,1,4.32,6.93c9.67,23,13,47,11,71.81-.78,9.81-4.4,14.43-10.5,15.39-5.49.86-11.08-3.43-14.62-11.87C326.44,284.37,325.17,268.55,324,252.46Zm13.58-31.86-1.47.22a51.2,51.2,0,0,0-2.15,6.68,138.35,138.35,0,0,0,3.33,65,34.48,34.48,0,0,0,5.21,10.11c2.8,3.86,6,3.19,7.41-1.41a35.05,35.05,0,0,0,1.52-9.14c.54-22.27-2.11-44.05-10.39-64.91A64.67,64.67,0,0,0,337.6,220.61Z"/><path class="cls-5" d="M398.12,495.59c0,10.58,0,21.16,0,31.73,0,2.46.37,5.22-3.2,5-3.26-.19-3.33-2.37-3.48-5.41-1.18-23.55-2.73-47.08-4.28-70.61-.37-5.65-1.46-11.26-1.67-16.9-.06-1.64,1.82-3.35,2.8-5,1.2,1.51,3.25,2.9,3.47,4.53,1.46,10.81,2.53,21.68,3.73,32.53l1.68.28c2-10.58,4.08-21.15,5.89-31.76.42-2.45-.6-5.75,3.2-5.66s3.86,3.46,3.3,6.17c-2.65,12.86-5.37,25.71-8.35,38.5a16.55,16.55,0,0,0,.91,11.14c5,12.09,8.64,24.73,12.48,37.25.43,1.4-1.32,3.47-2.05,5.22-1.42-1.46-3.62-2.69-4.15-4.42-3.29-10.91-6.21-21.92-9.25-32.9Z"/><path class="cls-7" d="M343.13,653,334,654c1,13,2.11,25.68,3,38.37.17,2.29,1.56,5.88-2.5,5.75-1.25,0-3.26-3.46-3.44-5.46q-3.68-41.75-6.78-83.55c-.11-1.42,1.61-3,2.47-4.46,1.21,1.52,3.35,3,3.49,4.56.94,10.55,1.44,21.14,2.09,31.72.14,2.35.32,4.69.51,7.42l9.57-.88c-.94-13.1-1.84-25.64-2.74-38.18-.07-.91-.47-1.94-.18-2.71a44.13,44.13,0,0,1,2.43-4.79c1.24,1.47,3.41,2.84,3.58,4.42.9,8.53,1.12,17.13,1.91,25.68,1.83,19.8,3.85,39.59,5.78,59.38a6.29,6.29,0,0,1,.06,2.71,43,43,0,0,1-2.46,4.62c-1.24-1.41-3.4-2.72-3.57-4.25-1.36-12.16-2.33-24.36-3.44-36.55C343.7,656.35,343.42,654.93,343.13,653Z"/><path class="cls-5" d="M439.87,205.37c-4.33,7.81-11,2.88-15.66,6.24l5.08,35.63c3.58-.17,6.82-.17,10-.54,2.75-.31,5.65-.44,5.85,2.87.06,1-3.42,2.62-5.48,3.13-2.94.72-6.07.69-9.88,1l6.43,43.18c3.49-.44,6.5-1.2,9.47-1.07,1.88.08,3.69,1.5,5.54,2.32-1.5,1.25-2.82,3.06-4.54,3.64-2.55.85-5.39.86-8.11,1.19-7.29.88-8.13.42-9.23-7q-6-40.37-11.65-80.77c-1.46-10.19-1-10.85,9.46-11.11C431,204,434.84,204.82,439.87,205.37Z"/><path class="cls-5" d="M292.87,223.83l5.34,37.08c4-.23,7.63-.79,11.17-.5,1.71.14,3.28,1.89,4.92,2.9-1.41,1-2.71,2.7-4.26,3-3.47.65-7.08.63-11.35.93L305,310c5.3,1.75,10.86-3.57,16.08,2.57-2.07,1.15-3.7,2.73-5.48,2.92-15.71,1.67-16,5.71-18.47-12.34-3.45-24.76-7-49.51-10.5-74.27-.41-2.95-1.64-7.79-.45-8.56,3-1.91,7.1-2.22,10.83-2.67a18.93,18.93,0,0,1,7,.68c1.28.34,2.26,1.77,3.38,2.71-1.22.93-2.36,2.51-3.67,2.66A102.28,102.28,0,0,1,292.87,223.83Z"/><path class="cls-7" d="M457.82,654.38a70,70,0,0,1-8.74-1.25c-1.09-.29-1.84-1.83-2.74-2.8,1.07-.83,2.1-2.32,3.2-2.36a38.47,38.47,0,0,1,10.34.64c1.4.33,3.19,2.72,3.27,4.26.46,8.73.6,17.48.54,26.22,0,5-1.82,8.85-7.61,9.66s-10.17-1.53-12.22-6.23c-2.88-6.62-5.62-13.7-6.3-20.79-1.34-13.95-1.35-28-1.61-42.07a27.64,27.64,0,0,1,1.88-9.06A9.52,9.52,0,0,1,453.18,606c.94.75,1.26,2.27,1.87,3.44-1.37.48-2.88,1.6-4.1,1.34-7.35-1.6-8.34-1.47-8.94,6-1.56,19.21-.78,38.32,4.48,57a7.5,7.5,0,0,0,1.21,3c2.08,2.26,4.38,4.33,6.59,6.48,1.18-2.64,3.18-5.23,3.37-7.94C458.14,668.53,457.82,661.6,457.82,654.38Z"/><path class="cls-4" d="M452.88,440.83c-4.71,6.65-10.06,1.63-14.83,3.42V479c4,.3,7.61.25,11.09,1,1.5.31,2.66,2.24,4,3.44-1.45.75-2.87,2.07-4.36,2.15a96.17,96.17,0,0,1-10.14-.39v41.76c3.64,0,6.72-.35,9.66.14,1.57.27,2.88,2,4.31,3.08-1.42.86-2.82,1.74-4.26,2.55-.28.16-.72,0-1.08,0-14.39-.42-14.78,3.66-15.13-14q-.71-34.8-1.1-69.62c-.13-11.86,1.18-12.84,13.19-10.77C446.8,438.81,449.3,439.8,452.88,440.83Z"/><path class="cls-4" d="M185.33,309.13c.11,11.64-3.62,18-13,21.55-1.74.66-4.19-.53-6.31-.87,1.14-1.47,2-3.57,3.48-4.3,8.14-4,11.29-13.51,7.62-24.53-2.28-6.84-6.77-11.94-12.79-15.87-14-9.1-19.75-21.93-17-38.42,1.33-7.94,9.62-14.26,17.48-13.39,1.14.13,3.14,1.86,3,2.38a6.4,6.4,0,0,1-2.69,3.57c-3.29,1.92-8.94,2.75-9.77,5.29-1.67,5.08-1.52,11.12-.73,16.57,1.43,10,8.77,16,16.58,21.35,8.5,5.87,12.74,14.27,13.94,24.37C185.28,307.75,185.3,308.66,185.33,309.13Z"/><path class="cls-5" d="M482.29,440.64l3.11,2.45c-1.37,1.17-2.6,3.13-4.13,3.39-9,1.56-10.52,3-11.59,11.94-1.5,12.51,4,21.73,13.16,29.57,8.28,7.07,11.12,16.5,10.08,27.12-.86,8.8-4.28,16-13.73,18.26-2.06.49-4.53-.73-6.81-1.16,1.47-1.36,2.73-3.34,4.46-3.95,4.54-1.59,7.35-4.26,8.6-9,3.14-11.85.13-21.75-9.23-29.5-11.43-9.47-15.38-21.46-12.37-35.73C465.81,444.68,471.55,440.49,482.29,440.64Z"/><path class="cls-7" d="M491.55,597.94c.36.33,1.83,1.09,2.1,2.16.19.75-1,2.24-2,2.82a9.62,9.62,0,0,1-3.69.79c-3.94.52-6.38,2.68-6.93,6.62-1.5,10.74.41,20.25,9.44,27.53a74.48,74.48,0,0,1,12.11,11.7c4.83,6.19,5.48,13.69,4.66,21.4-.8,7.45-5,12-11.79,14.22-1.57.5-3.72-.79-5.6-1.26,1.09-1.16,2-2.77,3.31-3.41,7.74-3.72,11.19-13.85,6.51-23.53a37.84,37.84,0,0,0-11-13.1c-11.43-8.63-15.88-19.68-13.7-33.52C476.18,602.48,482.49,597.67,491.55,597.94Z"/><path class="cls-7" d="M291.76,622.62c-2.5.41-4.53,1.15-6.43.9-1.2-.16-2.21-1.78-3.31-2.75,1-.9,1.84-2.46,2.89-2.59,8-1,15.94-1.8,23.94-2.37,1.22-.09,2.56,1.32,3.84,2-1,.92-1.84,2.39-3,2.66-3.52.82-7.14,1.19-11.4,1.83.94,8.57,1.81,17,2.82,25.51,1.6,13.41,3.34,26.8,4.94,40.21.28,2.37,1.51,5.65-2.48,6s-3.25-2.9-3.54-5.42q-3.71-31.81-7.56-63.61A15.46,15.46,0,0,0,291.76,622.62Z"/><path class="cls-3" d="M367.94,638.3c-.8-8.91-1.69-17.61-2.27-26.34-.1-1.48,1.08-3,1.67-4.58,1.3,1.18,3.56,2.25,3.73,3.57,1.09,8.66,1.89,17.36,2.49,26.07q1.8,26.2,3.2,52.43c.1,1.9-1.08,3.87-1.67,5.8-1.39-1.73-3.83-3.37-4-5.22-1.3-13.44-2.22-26.92-3.11-40.4C367.72,645.82,367.94,642,367.94,638.3Z"/><path class="cls-6" d="M543,860.28c0,6.8-4.15,12.82-8.6,12.65-5.37-.21-11.47-5.94-11.35-10.68.12-5.06,6.1-11,11.07-11A8.77,8.77,0,0,1,543,860.28Z"/><path class="cls-7" d="M658.77,301.81c-2.78,1.92-4.46,3.53-6.45,4.2-.7.24-2.17-1.82-3.29-2.83,1.51-1.59,2.8-3.57,4.63-4.56C654.35,298.24,656.29,300.19,658.77,301.81Z"/><path class="cls-5" d="M714.13,299.75c-2.85,1.8-4.57,3.31-6.57,3.91-.66.2-3.06-2.74-2.9-2.94a14.18,14.18,0,0,1,4.62-4.46C709.93,295.93,711.77,298,714.13,299.75Z"/><path class="cls-4" d="M681.58,295.65c1.75,2.43,3.76,4.43,3.44,4.93a14.34,14.34,0,0,1-4.8,4.27c-.31.18-3.06-2.36-2.84-3C678.09,300,679.66,298.33,681.58,295.65Z"/></g><g id="MAN"><path class="cls-6" d="M702.78,727c6.48-18.05,13.16-36,19.35-54.19,2.34-6.87,3.61-14.12,5.22-21.23.29-1.28-.16-2.73-.34-5-1.73,1.46-2.84,2.26-3.78,3.21-13.3,13.35-26.42,26.87-39.9,40a111.52,111.52,0,0,1-35.72,23.14c-17.76,7.33-26.58.95-25.14-18.19a58.53,58.53,0,0,1,3.84-17,228.76,228.76,0,0,1,67.72-93c7.33-6.06,14.91-11.83,22.09-18.05,1.35-1.17,1.93-3.87,1.91-5.86,0-3.8-1.16-7.62-1-11.4.23-7.93,4.92-11.69,13.29-10.9-3-23.6-7.44-46.78-14.61-69.41-.46-1.46.1-3.25.19-4.88l4.9.8,1.07,1.58.56-.25-.78-2.05c-.8-3.75-1.34-7.57-2.46-11.23-5.76-18.88,1.9-33.42,15.47-45.37a135.28,135.28,0,0,1,53.06-28.88l11.76-3.31c-2.36-9-13.38-12.88-13.13-23.11,5.66-1.2,9.33,1.29,12.23,5.34a152.23,152.23,0,0,1,8.66,12.63c1.81,3.17,3.55,3.72,7.75.85-5.92-7.56-11.66-15-17.5-22.3-1.59-2-3.75-3.58-5.13-5.7-1.5-2.3-3.33-5.07-3.16-7.51.1-1.41,3.86-2.56,6.41-4.09-5.62-7.3-16-12.14-15.73-24,19.5,8.43,31.25,25.71,45,40.54,4.61,5,7.75,11.48,10.78,17.66,1.53,3.12,3.05,3.74,6.18,3.52a204.29,204.29,0,0,1,69,7.18c14.24,3.92,23.43,12.8,30,25.93,17.58,35.36,27,72.52,26.63,112-.2,20.83-.72,41.67-1.38,62.5-.32,10.15,1.08,11.7,10.75,13.73,19.62,4.13,37,12.53,50,28.41a50.42,50.42,0,0,1,3.1,59.36c-13.06,19.83-32.4,30.62-54.42,37.48-7.8,2.43-15.61,4.84-24.46,7.58l15.51,22c4.06-3,7.34-6.4,11.35-8.09,6.43-2.71,13.26-5.5,20.07-5.93,5.77-.36,11.78.28,17.72.28,4.81,0,7,3.9,7.18,8.77.56,19-15.39,39.85-34.1,43.23-12.34,2.23-21.57-4.88-29-13.39-4.33-4.94-6.79-11.56-9.83-17.56-1.61-3.18-2.66-6.65-5-10l-3.94,18-2.19,9.6a167,167,0,0,1-32.38,73.81l-.07.06c-16.39,7-32.6,14.45-49.27,20.69-6.11,2.29-8.72,4.57-9.82,11.37-2.65,16.41-3.54,32.68-.66,49A250.62,250.62,0,0,0,866,987.37c4.24,8.39,8.31,16.87,12.77,25.15,2.65,4.92,6,9.46,8.83,14.29,2.26,3.87,2,7.58-1.57,10.7-2.61,1.5-5.11,4-7.86,4.33-22.15,2.62-44.36,4.83-66.55,7.17l-20.82-1.21-.08,1.12,20.83,1.62a232.56,232.56,0,0,0,69.66-7.14l.64,1.41-7.83,4.82-40.5,5c-1.07-.12-2.14-.3-3.22-.36-12.8-.82-25.64-1.23-38.39-2.56-8.07-.84-11.23-4.6-10-11.79.54-3.1,4.25-5.65,6.52-8.45,6.48-1.78,12.93-3.7,19.46-5.3a121.92,121.92,0,0,1,50.7-1.84l17.81,2.77.53-1.2-5.72-7-17.75-33.16c-.69-1.88-1.33-3.79-2.09-5.64-13.19-32-18.83-65.41-17.78-100,.09-3,.55-6.08.83-9a5.07,5.07,0,0,0-1.31-.48,21.06,21.06,0,0,0-2.73.18c-24.5,3.48-48.84,3.34-72.85-3.39-3-.84-4.56.3-5.58,2.7-4.59,10.9-10.17,21.53-13.43,32.83a162,162,0,0,0,.16,92l10.06,31.45,5.44,1.5,0,0c-1.14,1.82-1.84,4.33-3.48,5.36-11.79,7.46-25.25,10.37-38.66,13-12.16,2.38-24.5,3.82-36.77,5.68-8.91-1.63-17.94-2.76-26.67-5.07-5.75-1.52-6.38-8.5-1.58-12.1a23.58,23.58,0,0,1,5.31-2.82c24.87-10.08,50.77-13.32,77.42-11.5,2.63.18,5.24.56,8.58.93L729,995.84c-9.24-36.33-8.53-72.3,3.78-107.9,2.91-8.42,5.43-17,7.73-24.2-9-6.59-18.26-12-25.68-19.29-6.35-6.25-10.61-14.63-15.69-22.15a112.73,112.73,0,0,1-6.17-10.2,12.74,12.74,0,0,1-1.53-5.56c-.15-10.18-.07-20.37-.07-30.55l-1.7,0c-.3,5.15-.39,10.32-1,15.42-.28,2.34-1.62,4.55-2.47,6.83l-.92,0c-.83-2.08-2.38-4.16-2.38-6.25-.08-22.18,4.76-43.43,12.66-64,.62-1.63,1.74-3.07,3.29-5.76l2.63,4.7-5.29,17.53-6,21,2.23.52,3.72-21.55ZM830.2,711.62l-.24.06.15-.14,1.07-1.15c5.89.34,7.43,3,4.65,8.56-1.14,2.28-2.56,4.28.83,5.67,4.46,1.84,3.89,5,2.44,8.54-.56,1.35-.95,2.76-1.54,4.52,1.55,0,2.26,0,3,0,2.43.11,4.86.24,7.29.37-.86,2.74-1.24,5.78-2.71,8.14-1.35,2.16-3.89,3.58-6.43,5.78,6.08,1.09,6.64,4.37,4.52,8.78l-16.52,15.42-.61.86,1.06-.42,16.3-9.46,5.09,1.94-4.85,11.33c5.13,1.56,6.36,4.54,2.76,9.91-2.79,4.16-6.14,8-9.62,12.39,5.67-1.26,7.58,1.16,7.14,6l-.28,1.17.76-.65c3.73-5.14,7.39-10.34,11.22-15.4,5.13-6.79,7.21-14.31,5.57-22.68-4.26-21.64-8.45-43.31-13-64.89-2.63-12.42-5.93-24.7-9.18-38.07l-3.49,5.84c9,8.29-1.46,13.43-2.47,19.38l5.72.83c-.44,2-.48,4.23-1.39,6-1.79,3.51-4.07,6.77-6.14,10.13Zm3,82-1.44.71-16.82,9.69,9.34,22.81L830.63,815l-8.93-.84c.88-2.94,1.22-6.21,2.77-8.75,2.24-3.69,5.34-6.85,8.08-10.23l1-1.22.4-1ZM797.43,333.5l-1.43-.7.49,1.55,1.13,1.11,1.06,1.11,1,1.1,1,1.1,1.72.72-.57-1.6-1.1-1.1-1.1-1.09-1.1-1.09ZM830.2,636.9l0,0c-2.29,3.6-4.76,7.11-6.83,10.83s-.4,5.95,3,8c6.19,3.73,12.08,2.2,18.06-.27a9.33,9.33,0,0,0,2.43-1c6.42-5.23,6.27-11.14-.42-19s-8.2-7.87-15.22.18Zm125.65,107-1.14-1.43-.53.29.86,1.85c1.74,4.39,2.95,9.11,5.33,13.12,8.92,15,23.12,24.15,41.24,10.19,8.94-6.88,13.23-15.88,13.91-28.59-3.49,1.71-6.4,2.31-8,4.09-5.12,5.63-9.86,11.63-14.54,17.65-1.8,2.31-3.43,6-6.53,3.73-1.44-1-1.18-5.51-.49-8.11s2.75-5.11,4.44-7.49c2.37-3.33,5-6.52,8.23-10.79-1.91.78-2.9.88-3.39,1.44-5,5.75-10.06,11.49-14.86,17.42-1.75,2.17-3.3,5.43-6.21,3.26-1.3-1-1.28-5.09-.45-7.23,1.37-3.49,3.9-6.54,5.94-9.77l.61-1.11-1.31.42a38.58,38.58,0,0,0-4.77,3.44c-9.3,9.07-9.27,9.1-17.3-1.15C956.56,744.74,956.2,744.34,955.85,743.94ZM859.67,623.56l-10.68.53-.79,1.36c9,9.64,17.61,19.72,27.16,28.78,8.22,7.8,11.58,8,20.52,1.13,11.08-8.51,21.32-18.11,31.92-27.24l15.7-18.63,4.19-5.54,5.61-8.5-1.14-1c-17.13,9.79-35.45,16.38-54.59,20.73C885,618.09,872.31,620.79,859.67,623.56Zm-99.84-14.08-19.94-8.82c-3.26,6.89-2.33,12.45,1.21,17.87,11.17,17.08,22.39,34.14,33.35,51.35,2.3,3.62,4.84,4.52,8,2.12a164.24,164.24,0,0,0,13.3-11.26c10.94-10.27,19.29-22.62,27.74-34.88-.92-.66-1.77-1.74-2.77-1.92-13.31-2.34-26.74-4.11-39.93-7C773.61,615.4,766.81,612,759.83,609.48Zm199.78,8.68-.69,9.95-.15,5.41-4.53,46.19-5.09,34.83c11.49-3.83,21.78-7,31.84-10.73a111.91,111.91,0,0,0,16.17-8,71.62,71.62,0,0,0,25.07-23.26c10.23-15.81,8-38.07-5.09-51.64C1005.8,609.15,991.51,603,976,599.47c-5.21-1.18-10.77-.82-16.38-1.18Zm-112,53.76L852,688.56c.88,4.46,1.69,8.94,2.66,13.38,4.79,22.08,10,44.09,14.24,66.27,1.55,8.07,3.62,17.27-1.54,24.57-13.89,19.65-28.56,38.75-42.93,58.07l-3,1.24c-1.2-1.93-3-3.72-3.47-5.82-1.18-5.15-1.64-10.46-2.61-15.66-2.88-15.44-10.56-28.72-19-41.58-4.32-6.53-6.47-13.32-2.92-20.65,15.21-31.4,22.45-65.18,29.82-98.92a5.62,5.62,0,0,0-.9-4.22c-3.13-3.81-6.58-7.35-9.13-10.15l-28.79,26.47c-9.74,2-11.53,1.18-16.8-7.54-5.58-9.22-11.09-18.48-16.75-27.66-2.81-4.56-5.88-9-9.29-14.13-.84,5.27-1.49,9.4-2.16,13.53-4.61,28.56-15.66,55.12-26.23,81.71-8.43,21.22-14.77,42.72-12.49,65.53,2.56,25.57,13.87,46.66,38.08,58.15a121.88,121.88,0,0,0,45.38,11.49l19.32.74c.91.05,1.82.17,2.72.15,31.35-.63,60.45-9.85,88.14-23.81a27.86,27.86,0,0,0,11.49-11.22c6.9-13.23,14.25-26.56,18.64-40.71,16-51.63,21.21-105.14,25.16-158.77.42-5.67.06-11.4.06-16.88l-24.22,26.43c-2,1.61-3.91,3.24-5.89,4.84-8.8,7.08-17.39,14.45-26.48,21.15-7.79,5.74-11.66,5.57-19.22-.4-5.8-4.57-11-9.87-16.34-14.69l-8.93,11.1,5.42.71,0,.49-8.81.66ZM747.16,595.48c7.85,3.26,15.79,6.5,23.69,9.86a127.61,127.61,0,0,0,41.86,10.24c47.62,3.15,92.65-6.3,135.44-27.23,4.87-2.38,7-5.58,7-11,.26-22.84,1.24-45.67,1.07-68.51C956,474.45,948,441.72,934,410.16c-5.77-13-14.18-20.75-27.9-24.21-31.08-7.84-62.15-7.91-93.51-2.14-25.45,4.68-49,13.61-68.8,30.58-11.55,9.88-17.24,21.43-13,37.78,5.83,22.6,9.7,45.72,14,68.69,1.32,7,1.31,14.3,2,22.28,6.34-3.61,11.93-6.63,17.36-9.92,7.82-4.72,16.27-5.13,24.94-3.82a11,11,0,0,1,9.36,8.2c1.34,4.41-.51,8.12-3.86,10.65a30,30,0,0,1-9.63,4.92c-8.88,2.52-17.91,4.49-26.87,6.67,10.2,10.05,12.26,21.83-7.64,24.2Zm-14.29,2.94c-2.84-1.88-6.21-4.35-9.82-6.4-2-1.12-4.77-2.7-6.47-2.08-9.22,3.33-20,5.24-27,11.38-24.26,21.42-42.2,47.85-54.54,77.86A66.36,66.36,0,0,0,630.63,696c-1.26,10.09,1.68,12.71,10.73,8.38,10.45-5,21.13-10.52,29.82-18,14.9-12.87,28.68-27.12,42.23-41.45,6.33-6.7,11.27-14.78,16.34-22.57,1.47-2.26,1.35-5.63,1.69-8.52C732,608.89,732.38,603.89,732.88,598.42Zm57.4-55.73-.21-2.51c-4.59-4.06-10.41-3.76-15.48-1.93-9.87,3.56-19.42,8.06-29,12.45-3.49,1.6-6.62,4-10.54,6.42l-8.6-10.36-2.44,1.1c1.07,5.16,1.92,10.39,3.27,15.48,1.15,4.35,0,7.38-3.7,9.83-3.08,2-5.92,4.38-8,6l13.06,6.54c2.58,1.29,5.06,3,7.79,3.66a5.79,5.79,0,0,0,5-2c.74-1.18-.08-3.61-.73-5.29-.55-1.43-1.82-2.57-2.88-4,2.86-2.85,5.2-4.79,9.56-3.77,3.17.73,6.79-.51,10.21-.87l.17-1.94c-3.76-3-6.58-7.59-12.87-6.26-.78.16-2.78-1.42-2.68-1.82.59-2.38,1.06-6.1,2.61-6.71,7.73-3,15.77-5.29,23.74-7.7C775.78,546.81,783,544.78,790.28,542.69ZM799.38,1039l.28,3,68-5.77C844.42,1029.87,821.79,1032.85,799.38,1039Zm-80.14-7.79-.28-1.38a202.91,202.91,0,0,0-49.62,6.63l.24,1.67Zm-57,16.14a208.13,208.13,0,0,0,61.39-8.73Zm146.2-701.59c4.72,8,9.43,16.12,14.38,24.11.49.79,2.47.65,4.28,1.06C823.67,361,813.88,348.21,808.47,345.74ZM690.74,768.61a7.31,7.31,0,0,0-1,1.52c-.08.26.22.63.35,1,.41-.27,1-.46,1.17-.84S691,769.43,690.74,768.61Zm40.77-230.56c-.32.38-.7.71-.65.8a6.57,6.57,0,0,0,.86,1c.19-.24.58-.54.53-.7A4.83,4.83,0,0,0,731.51,538.05Z"/><path class="cls-8" d="M833.49,1054.6l40.5-5c3,2.46,5.72,1.16,7.31-1.46,2-3.3,3.17-7.08,4.7-10.66,3.55-3.12,3.83-6.84,1.57-10.7-2.83-4.83-6.18-9.37-8.83-14.29-4.45-8.28-8.53-16.75-12.77-25.15,2.4-.74,4.76-1.84,7.22-2.15,3.62-.45,7.55-1.19,10.92-.25,4.25,1.18,8,4.17,12.13,5.87a8.89,8.89,0,0,0,5.71-.25c11.51-4,23-3.77,34.71-.81,5.31,1.34,11.1,1.23,16.1,3.21,11.07,4.39,14.63,11.39,12,22.82a14,14,0,0,0,2.32,12.25c4.22,6,4.82,15.37-.76,21.19-2.48,2.58-3.82,6.21-6.07,9.05-7.83,9.9-18.47,10.08-29.35,7.45-7.31-1.76-14-2.84-21.83-1.21-6.73,1.4-14.29-1.81-21.51-2a165.45,165.45,0,0,0-26,1.18c-9.84,1.33-19.34,5-29.62,2.73-2.55-.56-5.56,1.41-8.42,1.76-7.11.89-14.25,1.81-21.4,2.2-11.17.61-22.47,1.86-33.54.86-12.91-1.17-25.29,1.18-37.93,2.13-12.21.93-24.59-.18-36.88-.66-2-.08-4-1.79-6-2.25-2.4-.53-5.23-1.37-7.33-.59-15.37,5.7-29.66,3.18-43.09-5.36-3.86-2.46-7.38-3.28-11.82-2.22-9.77,2.32-27-4.79-32.23-13.29-1.3-2.09-1.81-4.7-2.5-7.12-1-3.64-1.47-7.5-2.91-11-3-7.14-2.2-12.15,3.2-17.35,8.09-7.8,17.22-13.89,28.19-16.72a13.86,13.86,0,0,1,7.38-.05c8.66,2.84,16.36-2,24.54-2.49,7.49-.41,14.95-3.1,22.61-.06,2.71,1.07,6.14.3,9.23.45,7.73.38,15.45,1,23.19,1.15s15.18,0,22.77-.06l9.34,25.49c-3.34-.37-6-.75-8.58-.93-26.64-1.82-52.54,1.43-77.42,11.5a23.58,23.58,0,0,0-5.31,2.82c-4.8,3.6-4.17,10.59,1.58,12.1,8.73,2.31,17.77,3.44,26.67,5.07,4.58,6.22,9.78,7,14.88,2,2.42-2.39,4.5-3.27,8.16-2.47,3.29.72,7-.66,10.59-1.06,2.51-.28,5.09-.93,7.54-.61,6,.76,11.73,3.93,17.76-.58,1.35-1,4.68.44,7,1,3.47.81,6.85,2.4,10.34,2.65,9.43.7,18.9.8,28.34,1.27,5.69.28,12.34-.9,16.81,1.65,5.12,2.92,10.18,2.83,15.11,3.13C819.2,1059.34,826.84,1058.85,833.49,1054.6Z"/><path class="cls-7" d="M938.72,770.55l2.19-9.6c5.37.08,7,2.8,6.35,8-2.71,23-9.41,44.64-21.09,64.58-6,10.23-18.1,19.91-29.65,24.19,2.48-2.93,5-5.78,7.4-8.81a27.84,27.84,0,0,0,2.36-4.48l.07-.06c3.06.45,4.83-.15,8.85-5.64,14.32-19.51,21.08-42,25-65.52C940.34,772.42,939.25,771.44,938.72,770.55Z"/><path class="cls-7" d="M950.84,411.16c-11.29-13.87-16.33-32.23-32.24-42.72C929.77,366.78,946.38,389.25,950.84,411.16Z"/><path class="cls-7" d="M686.28,731.28c-.35-1.36-1.35-3-.94-4,2.43-6.23,5.13-12.35,7.89-18.45.37-.81,1.58-1.23,2.81-2.14.44,1.63,1.3,3,1,3.93-2.28,6.47-4.72,12.9-7.39,19.22-.34.81-2.27.94-3.47,1.38Z"/><path class="cls-9" d="M696.14,744.45l5.29-17.53,1.35.06-6.66,17.46Z"/><path class="cls-3" d="M685.23,798.26l.92,0-1,5.07-.94-.18Z"/><path class="cls-7" d="M686.15,731.2l0,.76h-.48l.56-.67Z"/><path class="cls-10" d="M747.16,595.48l3.29-11.43c19.9-2.38,17.84-14.15,7.64-24.2,9-2.19,18-4.16,26.87-6.67a30,30,0,0,0,9.63-4.92c3.35-2.53,5.2-6.24,3.86-10.65a11,11,0,0,0-9.36-8.2c-8.67-1.3-17.12-.9-24.94,3.82-5.44,3.28-11,6.31-17.36,9.92-.66-8-.65-15.25-2-22.28-4.31-23-8.18-46.09-14-68.69-4.22-16.35,1.47-27.9,13-37.78,19.84-17,43.35-25.89,68.8-30.58,31.36-5.77,62.43-5.7,93.51,2.14,13.72,3.46,22.13,11.17,27.9,24.21,14,31.56,22,64.29,22.22,98.73.17,22.83-.81,45.67-1.07,68.51-.06,5.37-2.17,8.57-7,11-42.79,20.93-87.82,30.37-135.44,27.23a127.61,127.61,0,0,1-41.86-10.24C763,602,755,598.75,747.16,595.48ZM850.25,456.1c1-1.75,2-3.28,2.83-4.87a2.7,2.7,0,0,0,.21-1.61c-2.08-12.41-6-24.08-15-33.23-1.17-1.17-4.14-.55-6.27-.76,0,2.16-.68,4.57,0,6.45,3.07,8.11,7.07,15.91,9.68,24.15C843.17,450.95,844.76,454.61,850.25,456.1ZM840,463.95c-3.6-8.34-6.71-16.25-10.54-23.8-.66-1.3-4.74-2-6.55-1.24-1.39.56-2.79,4.13-2.29,5.79a176.73,176.73,0,0,0,8,21.39c.8,1.76,4.16,3.53,6.07,3.28S837.9,466.22,840,463.95Zm-26.55,69.72c.45,5.65,1.75,8.73,6,9.14,3.46.33,7.72-3.88,7.42-7.26-.42-4.66-4-6.32-7.71-5.89C816.89,529.94,814.85,532.64,813.46,533.67Z"/><path class="cls-11" d="M784.33,681.57l28.79-26.47c2.55,2.79,6,6.34,9.13,10.15a5.62,5.62,0,0,1,.9,4.22c-7.37,33.74-14.62,67.52-29.82,98.92-3.55,7.33-1.4,14.11,2.92,20.65,8.49,12.85,16.17,26.14,19,41.58,1,5.2,1.43,10.51,2.61,15.66.48,2.09,2.27,3.89,3.47,5.82a27.12,27.12,0,0,1-4.84,2.15c-5.65,1.31-10.45,3.69-13.15,9.16l-19.32-.74c0-4.5-3.71-4.54-6.63-5.87-5.31-2.41-10.27-7-15.64-7.47-4.57-.38-7.93-2.57-11.88-3.66-2.83-.78-5.4-2.81-7.83-4.62s-5.36-3.59-6.56-6.11c-2.16-4.53-3-9.57-7.22-13.15-1-.81-.62-4.72.49-6.13,5.34-6.82,5.51-14.7,4.47-22.44-1-7.17,3.45-15.48-4-21.45-.21-.17-.13-.7-.18-1.06-1-8.8,2.63-16.46,5.56-24.39,2.55-6.88,5.52-13.92,6.24-21.09.91-9,5.38-15,12-20.08,4.4-3.37,7.46-6.37,6.28-13.06-1-5.6,1-11.72,1.6-17.61l2-.13c1.19,7.71,6.34,12.1,12.83,14.42,2.47.88,6.07-.79,8.87-2C785,686.57,784.41,683.39,784.33,681.57Z"/><path class="cls-12" d="M803.4,863.4c2.7-5.47,7.5-7.85,13.15-9.16a27.12,27.12,0,0,0,4.84-2.15l3-1.24c2-.25,4.15,0,5.81-.85,6-3,11.63-6.74,17.75-9.42,4.34-1.91,6.28-4.72,7.67-9.08a45.33,45.33,0,0,1,6.29-11.7c4.1-5.9,9.62-11,12.82-17.31a350.21,350.21,0,0,0,14.53-34c3.46-9.08,5.5-18.72,9.13-27.72,2.39-5.92,5.58-12.12,10.13-16.37,3.61-3.37,7.64-6.06,9.42-10.83,1.11-3,1.33-6.33,2.68-9.17a25.9,25.9,0,0,0,1.66-18,16.87,16.87,0,0,1,.6-8.81c1.4-4.19,1.76-7.76-.32-12-2.46-5.06-3.52-10.48-.21-16.15,1.83-3.14,2.05-7.21,3-10.86l24.22-26.43c0,5.49.36,11.21-.06,16.88-4,53.63-9.14,107.14-25.16,158.77-4.39,14.15-11.74,27.48-18.64,40.71a27.86,27.86,0,0,1-11.49,11.22c-27.69,14-56.79,23.19-88.14,23.81C805.22,863.56,804.31,863.45,803.4,863.4Z"/><path class="cls-13" d="M925.39,638.57c-.95,3.65-1.18,7.72-3,10.86-3.3,5.68-2.25,11.09.21,16.15,2.07,4.26,1.71,7.83.32,12a16.87,16.87,0,0,0-.6,8.81,25.9,25.9,0,0,1-1.66,18c-1.35,2.84-1.57,6.19-2.68,9.17-1.78,4.77-5.81,7.46-9.42,10.83-4.54,4.25-7.74,10.45-10.13,16.37-3.64,9-5.67,18.63-9.13,27.72a350.21,350.21,0,0,1-14.53,34c-3.2,6.31-8.72,11.41-12.82,17.31a45.33,45.33,0,0,0-6.29,11.7c-1.39,4.36-3.33,7.17-7.67,9.08-6.11,2.68-11.75,6.43-17.75,9.42-1.66.83-3.86.59-5.81.85,14.36-19.32,29-38.42,42.93-58.07,5.16-7.3,3.09-16.5,1.54-24.57-4.26-22.18-9.45-44.19-14.24-66.27-1-4.44-1.78-8.92-2.66-13.38,0-2.13.65-4.57-.16-6.33-1.55-3.39,1.5-8.71-4.23-10.31l-2.48-9.5,8.81-.66,0-.49-5.42-.71,8.93-11.1c5.32,4.83,10.55,10.12,16.34,14.69,7.56,6,11.42,6.14,19.22.4,9.09-6.69,17.68-14.06,26.48-21.15C921.48,641.81,923.43,640.18,925.39,638.57Z"/><path class="cls-14" d="M784.33,681.57c.08,1.82.72,5,.13,5.24-2.81,1.17-6.41,2.84-8.87,2-6.49-2.32-11.64-6.71-12.83-14.42l-2,.13c-.65,5.89-2.59,12-1.6,17.61,1.18,6.69-1.88,9.69-6.28,13.06-6.59,5-11.07,11.07-12,20.08-.72,7.17-3.7,14.21-6.24,21.09-2.93,7.93-6.61,15.59-5.56,24.39,0,.36,0,.89.18,1.06,7.46,6,3.05,14.28,4,21.45,1,7.73.86,15.62-4.47,22.44-1.11,1.41-1.44,5.33-.49,6.13,4.24,3.58,5.07,8.62,7.22,13.15,1.2,2.52,4.15,4.32,6.56,6.11s5,3.84,7.83,4.62c3.95,1.09,7.31,3.29,11.88,3.66,5.37.44,10.33,5.05,15.64,7.47,2.93,1.33,6.64,1.37,6.63,5.87a121.89,121.89,0,0,1-45.38-11.49c-24.21-11.49-35.52-32.58-38.08-58.15-2.29-22.81,4.06-44.31,12.49-65.53,10.56-26.59,21.62-53.15,26.23-81.71.67-4.13,1.32-8.27,2.16-13.53,3.41,5.17,6.48,9.57,9.29,14.13,5.66,9.17,11.18,18.43,16.75,27.66C772.8,682.75,774.59,683.55,784.33,681.57Z"/><path class="cls-15" d="M738.69,994.95c15.07-.8,30.14-1.46,45.2-2.44q30.42-2,60.8-4.43c3-.24,5.85-1.52,8.77-2.32l17.75,33.15-15,2,2.36,3.41a121.92,121.92,0,0,0-50.7,1.84c-6.53,1.6-13,3.52-19.46,5.3-3.46-5-8.62-3.48-13.39-3.48-7,0-13.92-.06-20.88-.09l0,0c-.84-4-2.6-4.73-5.44-1.5Z"/><path class="cls-13" d="M823.51,625.86c-8.45,12.26-16.81,24.62-27.74,34.88A164.24,164.24,0,0,1,782.47,672c-3.17,2.4-5.71,1.5-8-2.12-11-17.22-22.18-34.27-33.35-51.35-3.55-5.42-4.47-11-1.21-17.87l19.94,8.82c2,5.49,6.45,8.09,11.72,9.49C788.57,623.5,806,625.37,823.51,625.86Z"/><path class="cls-16" d="M947.7,603.95l-4.19,5.54c-10.66,1.64-12.56,10.66-15.7,18.63-10.6,9.13-20.84,18.73-31.92,27.24-8.94,6.87-12.3,6.66-20.52-1.13-9.56-9.06-18.15-19.14-27.16-28.78l.79-1.36,10.68-.53c7.39,2.83,14.84,6.35,22.86,2.86,8.85-3.85,17.28-8.86,27.56-7.24a4.34,4.34,0,0,0,3.06-.91c5.44-4.51,11.75-6.94,18.61-8.23a4.77,4.77,0,0,0,2.81-1.58C937.91,603.8,942.64,603.46,947.7,603.95Z"/><path class="cls-17" d="M843.19,760.75c2.12-4.41,1.56-7.69-4.52-8.78,2.54-2.2,5.07-3.62,6.43-5.78,1.48-2.35,1.86-5.4,2.71-8.14-2.43-.12-4.86-.25-7.29-.37-.7,0-1.41,0-3,0,.59-1.75,1-3.17,1.54-4.52,1.45-3.52,2-6.7-2.44-8.54-3.39-1.4-2-3.39-.83-5.67,2.78-5.55,1.24-8.22-4.65-8.56l.05.05c2.07-3.36,4.35-6.63,6.14-10.13.91-1.78,1-4,1.39-6l-5.72-.83c1-6,11.44-11.09,2.47-19.38l3.49-5.84c3.25,13.37,6.55,25.65,9.18,38.07,4.57,21.58,8.76,43.24,13,64.89,1.65,8.37-.44,15.89-5.57,22.68-3.83,5.07-7.49,10.26-11.22,15.4l-.49-.53c.46-4.87-1.46-7.3-7.13-6,3.48-4.44,6.83-8.23,9.62-12.39,3.6-5.37,2.37-8.35-2.76-9.91l4.85-11.33-5.09-1.94Q843.3,763.95,843.19,760.75Z"/><path class="cls-18" d="M754.17,1027.87c7,0,13.92.08,20.88.09,4.77,0,9.93-1.55,13.39,3.48-2.27,2.8-6,5.35-6.52,8.45-1.26,7.19,1.9,10.95,10,11.79,12.75,1.33,25.59,1.75,38.39,2.56,1.08.07,2.15.24,3.22.36-6.65,4.24-14.3,4.74-21.66,4.29-4.93-.3-10-.21-15.11-3.13-4.47-2.55-11.11-1.37-16.81-1.65-9.45-.47-18.91-.57-28.34-1.27-3.49-.26-6.87-1.84-10.34-2.65-2.36-.55-5.69-2-7-1-6,4.51-11.81,1.34-17.76.58-2.45-.31-5,.33-7.54.61-3.55.4-7.29,1.77-10.59,1.06-3.66-.8-5.74.08-8.16,2.47-5.09,5-10.3,4.21-14.88-2,12.26-1.86,24.61-3.3,36.77-5.68,13.41-2.62,26.87-5.54,38.66-13C752.32,1032.19,753,1029.69,754.17,1027.87Z"/><path class="cls-19" d="M790.28,542.69c-7.24,2.09-14.5,4.12-21.71,6.3-8,2.41-16,4.67-23.74,7.7-1.55.61-2,4.33-2.61,6.71-.1.4,1.9,2,2.68,1.82,6.28-1.33,9.1,3.26,12.87,6.26l-.17,1.94c-3.42.36-7,1.6-10.21.87-4.36-1-6.7.92-9.56,3.77,1.06,1.41,2.33,2.55,2.88,4,.64,1.68,1.46,4.11.73,5.29a5.79,5.79,0,0,1-5,2c-2.73-.62-5.21-2.37-7.79-3.66l-13.06-6.54c2.13-1.6,5-4,8-6,3.74-2.44,4.85-5.48,3.7-9.83-1.35-5.09-2.2-10.31-3.27-15.48l2.44-1.1,8.6,10.36c3.92-2.42,7.05-4.81,10.54-6.42,9.55-4.39,19.1-8.88,29-12.45,5.07-1.83,10.89-2.13,15.48,1.93Z"/><path class="cls-20" d="M955.85,743.93c.35.41.71.81,1,1.24,8,10.25,8,10.22,17.3,1.15a38.58,38.58,0,0,1,4.77-3.44l.69.69c-2,3.23-4.57,6.27-5.94,9.77-.84,2.14-.85,6.26.45,7.23,2.91,2.17,4.45-1.1,6.21-3.26,4.8-5.93,9.84-11.67,14.86-17.42.48-.55,1.48-.65,3.39-1.44-3.28,4.27-5.86,7.45-8.23,10.79-1.69,2.37-3.73,4.78-4.44,7.49s-.95,7.07.49,8.11c3.1,2.24,4.73-1.41,6.53-3.73,4.69-6,9.42-12,14.54-17.65,1.62-1.78,4.53-2.38,8-4.09-.68,12.71-5,21.71-13.91,28.59-18.13,14-32.33,4.81-41.24-10.19-2.38-4-3.59-8.73-5.33-13.12Z"/><path class="cls-21" d="M947.7,603.95c-5.06-.48-9.79-.15-13.13,4.52a4.77,4.77,0,0,1-2.81,1.58c-6.86,1.29-13.17,3.72-18.61,8.23a4.34,4.34,0,0,1-3.06.91c-10.28-1.62-18.71,3.4-27.56,7.24-8,3.49-15.47,0-22.86-2.86,12.64-2.77,25.29-5.47,37.9-8.34,19.14-4.36,37.47-10.94,54.59-20.73l1.14,1Z"/><path class="cls-12" d="M831.15,635.63c7-8.05,8.51-8.07,15.22-.18s6.84,13.78.42,19a9.33,9.33,0,0,1-2.43,1c-8-2.84-14.18-10.86-14.19-18.53l0,0Z"/><path class="cls-21" d="M799.38,1039c22.41-6.13,45-9.11,68.33-2.81l-68,5.77Z"/><path class="cls-22" d="M886,1037.51c-1.53,3.57-2.71,7.36-4.7,10.66-1.58,2.62-4.29,3.92-7.31,1.46l7.83-4.82-.64-1.41a232.61,232.61,0,0,1-69.66,7.14l.07-1.53c22.19-2.34,44.39-4.54,66.55-7.17C880.9,1041.52,883.39,1039,886,1037.51Z"/><path class="cls-21" d="M823.51,625.86c-17.56-.5-34.94-2.36-52-6.89-5.27-1.4-9.7-4-11.72-9.49,7,2.55,13.78,5.92,21,7.48,13.19,2.87,26.62,4.64,39.93,7C821.75,624.12,822.59,625.2,823.51,625.86Z"/><path class="cls-15" d="M830.17,636.94c0,7.68,6.15,15.7,14.19,18.53-6,2.47-11.87,4-18.06.27-3.35-2-4.94-4.39-3-8S827.88,640.54,830.17,636.94Z"/><path class="cls-23" d="M832.54,795.21c-2.74,3.39-5.84,6.55-8.08,10.23-1.54,2.54-1.89,5.81-2.77,8.75l8.93.84-6.35,11.85-9.34-22.81,16.82-9.69Z"/><path class="cls-21" d="M719.24,1031.19l-49.66,6.92-.24-1.67a202.91,202.91,0,0,1,49.62-6.63Z"/><path class="cls-22" d="M662.27,1047.34l61.39-8.73A208.13,208.13,0,0,1,662.27,1047.34Z"/><path class="cls-18" d="M858.6,1024.3l-2.36-3.41,15-2,5.72,7-.53,1.2Z"/><path class="cls-21" d="M927.81,628.12c3.14-8,5-17,15.7-18.63Z"/><path class="cls-23" d="M843.19,760.75q.11,3.2.23,6.4l-16.3,9.46-.45-.44Z"/><path class="cls-9" d="M696.12,744.43,692.4,766l-2.23-.52,6-21Z"/><path class="cls-9" d="M811.6,1049l-.07,1.53-20.83-1.63.08-1.12Z"/><path class="cls-21" d="M847.61,671.92c5.73,1.59,2.68,6.92,4.23,10.31.81,1.76.15,4.2.16,6.33Z"/><path class="cls-18" d="M748.75,1026.39c2.84-3.23,4.59-2.52,5.44,1.5Z"/><path class="cls-3" d="M690.74,768.61c.27.81.63,1.34.49,1.63s-.76.57-1.17.84c-.13-.32-.43-.7-.35-1A7.31,7.31,0,0,1,690.74,768.61Z"/><path class="cls-20" d="M955,744.64l-.86-1.85.53-.29,1.14,1.43Z"/><path class="cls-17" d="M844.41,809.28l-.76.65c.09-.39.19-.78.27-1.17Z"/><path class="cls-23" d="M831.76,794.38l1.44-.71.32.32-1,1.22Z"/><path class="cls-23" d="M833.21,793.67l.72-.69-.4,1Z"/><path class="cls-23" d="M827.12,776.61l-1.06.42.61-.86Z"/><path class="cls-15" d="M831.15,635.63l-1,1.27Z"/><path class="cls-20" d="M979,742.88l1.31-.42-.61,1.11Z"/><polygon class="cls-17" points="830.11 711.54 829.96 711.68 830.2 711.62 830.11 711.54"/><path class="cls-17" d="M830.2,711.62l1-1.18-.05-.05-1.07,1.15Z"/><path class="cls-6" d="M850.25,456.1c-5.49-1.49-7.08-5.15-8.58-9.87-2.61-8.24-6.6-16-9.68-24.15-.71-1.88-.06-4.29,0-6.45,2.14.21,5.11-.41,6.27.76,9.09,9.15,13,20.82,15,33.23a2.7,2.7,0,0,1-.21,1.61C852.23,452.82,851.28,454.35,850.25,456.1Z"/><path class="cls-6" d="M840,463.95c-2.11,2.28-3.56,5.18-5.36,5.42s-5.28-1.52-6.07-3.28a176.73,176.73,0,0,1-8-21.39c-.5-1.66.9-5.23,2.29-5.79,1.81-.73,5.89-.06,6.55,1.24C833.3,447.69,836.41,455.6,840,463.95Z"/><path class="cls-3" d="M813.46,533.67c1.38-1,3.43-3.73,5.76-4,3.7-.43,7.29,1.23,7.71,5.89.3,3.38-4,7.59-7.42,7.26C815.21,542.4,813.91,539.32,813.46,533.67Z"/></g></svg>