<svg id="Panel_6" data-name="Panel 6" xmlns="http://www.w3.org/2000/svg" viewBox="0 0 1200 1200"><defs><style>.cls-1{fill:#2e809a;}.cls-2{fill:#f7d617;}.cls-3{fill:#f9d819;}.cls-4{fill:#38869e;}.cls-5{fill:#348398;}.cls-6{fill:#33839c;}.cls-7{fill:#35849a;}.cls-8{fill:#39869f;}.cls-9{fill:#39879f;}.cls-10{fill:#38869f;}.cls-11{fill:#37859e;}.cls-12{fill:#3d89a1;}.cls-13{fill:#36859e;}.cls-14{fill:#3b88a0;}.cls-15{fill:#35849d;}.cls-16{fill:#458ea5;}.cls-17{fill:#ecd120;}.cls-18{fill:#408ba2;}.cls-19{fill:#38838b;}.cls-20{fill:#35818e;}</style></defs><title>PANEL 06</title><path id="ARROW" class="cls-1" d="M181.18,604.49c4.21-17.54,8.38-35.08,12.65-52.61a54.39,54.39,0,0,1,3.2-10.33c3.13-6.65,8.35-9.13,13.33-6.91,4.4,2,6.57,8.85,5.27,14.63-4.61,20.49-9.41,41-13.3,61.58-1.75,9.31-1.77,19-2.17,28.5-.45,10.78-4.49,13.92-15,11.36a34,34,0,0,0-8.75-.76c-24.05.55-48.1,1.22-72.16,1.83a59,59,0,0,1-7.9,0c-5.18-.57-8.85-3.52-9.07-8.76-.24-5.62,3.61-7.69,8.93-8.41,25.05-3.39,50.07-7,76-10.73-1-2.63-2.11-5.49-3.09-8.41-4.69-14-9.73-28-13.91-42.16-8.45-28.68-2-56.08,8.24-83,19.85-52.09,56.74-88.7,105-114.79C306.91,354.82,348.38,341.46,389,326c37.24-14.23,74.33-28.73,107.92-50.74a292.49,292.49,0,0,0,63.74-55.78c13.67-16.16,23.24-34.19,27.88-54.87a38,38,0,0,1,4.12-10.93c.87-1.46,4.22-2.67,5.82-2.13s3.09,3.38,3.21,5.3c.18,2.86-.89,5.81-1.44,8.72-5.73,30.74-21.93,54.94-44.88,75.81-42,38.24-91.67,64-142.22,88.18-37.41,17.9-75.68,34-113.28,51.48-36.28,16.89-69,39-93.08,71.59-33.1,44.92-46.21,94.11-28.41,149,.36,1.12.82,2.2,1.23,3.3Z"/><g id="LETTERS"><path class="cls-2" d="M387.23,658.17l30.53-4.51c.63,3.87,1.43,7.71,1.86,11.6,1.16,10.46,1.85,21,3.46,31.38.36,2.36,3.7,4.25,5.66,6.36,1.58-2.65,3.28-5.23,4.66-8,.34-.67-.46-1.85-.58-2.82-1.73-12.95-3.43-25.9-5.12-38.71,9.27-3.45,14.25-9.74,17.81-17.42,11.1-7.45,24.15-9.44,36.6-8.79,10.09.52,18.48-1.88,27.41-5.13,4.16-1.51,9.39-2.45,13.49-1.31,9.93,2.74,18.7-.68,28-2.66,7.82-1.67,16-1.8,24.07-2.08,10-.35,19.61,4.1,30.16.39,18.41-6.47,34,6.58,30.22,25.67-2.68,13.43-.7,25,4.75,37.16,7.07,15.82-4.2,32.38-21.44,32.4a44.72,44.72,0,0,1-17.18-3.33c-6.6-2.81-12.37-2.42-19-.56a45.66,45.66,0,0,1-18.38,1.38c-13.55-2-26.73-2.78-39.78,2.51-3.26,1.32-7,1.38-10.59,2-12.54,2.07-25.23,3.52-37.58,6.4-7.55,1.76-14,2-20.59-2.55-2.64-1.82-6.81-3.24-9.73-2.54-15.18,3.65-30.17,8.09-45.26,12.14-1.86.5-3.92.23-5.88.43q-22,2.19-43.93,4.46a18.82,18.82,0,0,0-2.8.95c-12.31,3.39-24.61,6.84-37,10-2.13.55-4.56.07-6.85-.09-5.53-.39-11.05-.91-16.58-1.31C278.8,741,270,739.66,261.17,740c-5.38.22-10.66,3-16,4.65l-5.22,4.7c-6.48,1.34-12.91,3.29-19.46,3.81-4.69.37-9.54-1.2-14.31-1.9a4.4,4.4,0,0,0-1.3-.69l-8-7.87a4.31,4.31,0,0,0-.71-1.31l-4.8-12.78-1.77-4.79c.15-3.61.29-7.21.45-10.82.46-10.36,3.62-14.23,13.69-17.66,8.87-3,18.09-5.46,26.32-9.76,11.52-6,23.94-6.15,36.15-8.22,7.25-1.23,14.28-3.74,21.43-5.57,5-1.29,10.09-2.42,15.13-3.62-.08,11.16,0,22.32-.33,33.47-.14,4.26-.41,8.69,4.76,9.06s4.66-4.71,4.83-8c.58-11.14.78-22.31,1.13-33.46,8-.25,16.08,0,24-1,4.14-.48,8.2-2.65,12-4.63,2.17-1.13,3.74-3.41,5.57-5.18.78,3.17,1.41,6.38,2.35,9.49,3.23,10.64,6.13,21.42,10.07,31.81,1.8,4.74,6.21,7.44,12.08,6.38,6.08-1.1,9.18-5,10.27-10.56.62-3.16.31-6.56.06-9.82C388.91,676.53,388,667.36,387.23,658.17Zm95.89,39.7c2.71-3.67,5.06-5.88,5.9-8.55.29-.92-4.23-4.65-4.78-4.31a17,17,0,0,0-6.12,6.52C477.69,692.39,480.7,694.92,483.11,697.87Zm42-2.9c2.7-3.25,5.07-5.44,6.36-8.16.28-.59-3.32-3-5.13-4.61-2,2.27-4.4,4.32-5.64,6.93C520.34,690,523.06,692.3,525.15,695Zm49.56-10.89c-3.72-2.11-6.5-4.65-7.55-4.07-2.52,1.39-4.23,4.24-6.26,6.51,1.64,1.41,3.81,4.31,4.81,4C568.42,689.49,570.64,687.13,574.71,684.08Z"/><path class="cls-3" d="M548.69,1142.61c.73-12.49,2.84-14.56,15.25-16.94,6-1.16,11.81-3.81,17.86-5a93.31,93.31,0,0,1,17.28-1.41c7,0,13.67,0,18.75-6,3.55-4.18,7.75-5.18,13.28-3.11a13,13,0,0,0,9.76-.83c10.22-5.85,20.37-8,31.85-3.68,2.7,1,6.7-.81,9.93-1.87,3-1,6.36-4.47,8.56-3.75,12,3.88,23.62.83,35.37-.38a75.68,75.68,0,0,0,8.5-.9c7.25-1.59,10.87,1,12.42,8.48,1.73,8.34,4.89,17.67-3.95,22.94-7.27,4.33-16.68,8.74-24.45,7.74-13.46-1.73-25.08,3.44-37.54,5.12-7.33,1-14.91,3.63-21.9,2.51-6.12-1-10.44,0-15.67,2.47-3.37,1.59-8,.79-12,.73-3.69-.05-7.54-1.39-11-.69-12.11,2.45-24.11,5.47-36.11,8.41-6.55,1.6-12.94,4.12-19.57,5.06-12.68,1.81-17.06-2.26-17.24-14.85A25.47,25.47,0,0,1,548.69,1142.61Z"/><path class="cls-4" d="M601.24,1072.4c0-19.45,5.54-47.12,1.59-79.43l-13.92,30.64c-10.24-12.2-12.22-26.16-19.48-38.14,0,20,0,39.94,0,59.91,0,10.54-.23,21.08-.3,31.62,0,4.34.5,9.64-5.64,9.41-5.46-.21-4.68-5.19-4.64-9.17.49-41.83.89-83.66,1.5-125.48,0-2.17.4-5.91,2.69-6.48s4.68,2.54,5.37,4.42c5.91,16.05,11.42,32.24,17.05,48.4.48,1.38.91,2.78,2,6.2,6.6-16,12.24-30.29,18.39-44.31,1.65-3.77,3.28-11.09,7.41-10.23s2.86,8.32,2.72,12.43c-1.36,39.15.5,117.15-3.66,121.31C605.47,1090.35,601.24,1082.1,601.24,1072.4Z"/><path class="cls-5" d="M387.23,658.17c.81,9.18,1.68,18.36,2.38,27.56.25,3.26.56,6.66-.06,9.82-1.08,5.53-4.18,9.45-10.27,10.56-5.87,1.07-10.28-1.63-12.08-6.38-3.94-10.38-6.84-21.16-10.07-31.81-.95-3.12-1.58-6.33-2.35-9.49q-5.31-37.51-10.62-75c-.87-6.17-2.13-12.34-2.35-18.53-.09-2.65,2-5.37,3.14-8.06,2.3,2.16,6.23,4,6.64,6.52,2.16,12.94,3.19,26.05,5.06,39,2.43,16.89,5.27,33.72,7.93,50.58,2.25,15.33,3.38,31,13.06,44.46,4.27-14.75.21-29.16-1.41-43.63-2.55-29.14-5.07-58.28-7.72-87.42-.33-3.64-1.81-8.18,3.3-8.38,2.06-.08,5.83,4.26,6.19,6.94,1.59,12,2.07,24.23,3.26,36.33C383.12,620.25,385.23,639.2,387.23,658.17Z"/><path class="cls-5" d="M446.56,629.42l-1,6.65c-3.56,7.68-8.54,14-17.81,17.42,1.69,12.81,3.39,25.76,5.12,38.71.13,1,.92,2.15.58,2.82-1.38,2.75-3.08,5.34-4.66,8-2-2.11-5.3-4-5.66-6.36-1.61-10.39-2.3-20.92-3.46-31.38-.43-3.89-1.23-7.74-1.86-11.6q-1.82-39.24-3.66-78.48c-.23-4.91-.11-9.9-1-14.7-1.22-6.71,2.35-8.16,7.71-8.18,14.43-.05,27.78,10.85,28.33,26.15C449.77,595.38,447.55,612.43,446.56,629.42Zm-20.13,12.12c8.67-2.17,10.2-7.93,10.66-13.35,1.35-16,2.44-32,2.76-48,.19-9.65-5.73-15.54-16.5-18.11Z"/><path class="cls-6" d="M649,960.05v52.27c4.95.67,10.52,1.05,15.89,2.33,2,.49,5.61,2.25,5.37,4.63s-4,3.33-6,3.37c-5.2.1-10.42-.74-17.06-1.33-.29,20.14-.71,39.47-.59,58.81,0,1.53,3.59,3.77,5.86,4.39,3.42.94,7.24.36,10.71,1.19,1.43.34,3.37,2.72,3.28,4.07s-2.48,3.33-3.93,3.39a134.27,134.27,0,0,1-19.73-.33c-5.42-.59-6-5.11-6-9.75.16-13.84,0-27.68.27-41.51q.9-42.47,2.27-84.93c.06-1.91,1.6-5.36,2.61-5.42,12,.63,30-.76,29.52,5.81C670.75,967.28,657.24,957.61,649,960.05Z"/><path class="cls-7" d="M313.18,669.19c-.35,11.16-.56,22.32-1.13,33.46-.17,3.32.44,8.41-4.83,8s-4.91-4.8-4.76-9.06c.37-11.15.25-22.31.33-33.47l.09-3.72c.36-8.54,1-17.09.95-25.63a17.06,17.06,0,0,0-2.74-9.12c-9.54-13.75-19.38-27.3-29.31-40.78-2.3-3.12-6.71-5.8-1.78-9.63,4.65-3.61,6.93.77,9.35,3.83l25.42,32.16c.77-10.83,1.49-20.66,2.17-30.5.25-3.61-.11-7.38.86-10.78.56-1.95,3.24-3.29,5-4.91,1.45,1.87,4.07,3.69,4.14,5.61.23,6.88-.41,13.8-.7,20.7Q314.68,632.29,313.18,669.19Z"/><path class="cls-8" d="M703,833.84c0-5,.2-10,0-15-1.35-28.62-2.86-57.24-4.1-85.86-.09-2.14.08-6.09,2.37-6.52,2.56-.48,3.8,3.68,5.14,5.86.77,1.25.47,3.21.54,4.85q1.95,43.94,3.85,87.88c.1,2.3.83,5.07-.16,6.82-2,3.45-4.47,8.18-7.57,8.9-2.86.67-8.29-2.36-9.92-5.26a49,49,0,0,1-5.63-17.7c-3.44-28.45-6.4-57-9.24-85.47-.23-2.31.11-6.91,2.7-7.28,2.83-.4,4.75,4.39,5,6.82,3.17,27.82,5.78,55.69,8.89,83.52.71,6.38,2.75,12.6,4.18,18.9Z"/><path class="cls-9" d="M536,844.15c.27-3.75.74-7.5.79-11.25.4-29.62.65-59.25,1.18-88.87,0-2.13.59-6,2.92-6.34s3.63,3.3,4.5,5.35.62,4.51.58,6.8q-.75,43-1.58,85.91c-.2,10.9-2.71,15.62-8.86,16.46-6.38.88-11.36-3.58-12.48-14.76-2.33-23.23-3.52-46.57-5-69.88-.53-8.54-.75-17.12-.55-25.67.06-2.36.69-6.85,3.28-7,2.86-.16,4.32,4.77,4.45,7.25,1.37,27.29,2.16,54.6,3.52,81.89.35,6.94,2.17,13.8,3.31,20.7Z"/><path class="cls-10" d="M489.07,830.89c-2.41,12.05-7.93,17.23-15,16.86-6.14-.32-12.5-6.88-14.38-16.88a154.55,154.55,0,0,1,7.56-85.21,20.94,20.94,0,0,1,4.08-6.66c4.51-4.84,9.44-4.54,13.13,1a26.34,26.34,0,0,1,4.24,9.86C491,763.72,495.92,814.65,489.07,830.89Zm-9.62-88.67c-2.69,2-3.38,2.28-3.67,2.78a27.89,27.89,0,0,0-2.17,4.43c-8.81,24.7-10.64,50.13-7.49,76a25.34,25.34,0,0,0,3,9.33c1.3,2.26,3.66,4.6,6,5.27,1.08.31,3.7-3.08,4.85-5.21a20.48,20.48,0,0,0,2.74-8.4c.83-19.38,1.91-38.78,1.71-58.16C484.34,760,481.36,751.71,479.45,742.23Z"/><path class="cls-11" d="M915.09,717.75c8.28-5.15,17,7,21.57,14.9,14.51,25.27,18.83,51.89,7,79.31-3.28,7.61-9.55,14-14.91,20.58-1.4,1.71-5,3.2-6.79,2.55s-2.88-4.09-3.2-6.46c-.89-6.51-1.46-13.09-1.7-19.65-1-28.92-1.94-57.85-2.84-86.77C914.16,721,913.3,718.86,915.09,717.75ZM925.5,825.53c23.64-25.46,21.43-78.68-3.17-96.86Z"/><path class="cls-10" d="M629,821.74c.24,1.93.57,4.17,1.7,5.61,2.27,2.92,4,8.5,7.72,8,3.37-.43,4.36-5.71,4.91-8.86,1.13-6.45,1-13.11,1.61-19.66.5-5.63-.62-9.47-7.44-10-2.2-.16-6.81-1.9-6.32-4.47s5.14-2.12,7.59-1.9c14,1.25,14.32,1.44,14,15.16a176.43,176.43,0,0,1-2.63,27.45c-1.7,9.2-10.23,12.62-17.94,7.33-3.56-2.45-7.24-6.37-8.44-10.36-8.68-28.75-8-57.91-1.29-86.87,2.35-10.1,12.4-13.1,19.9-7.14,1.31,1,3.33,3,2.7,4.67s-3.44,2-5,1.73c-10.37-1.51-11.14-1.06-12.7,9.41-.48,3.26-.9,6.54-1.09,9.82C625.9,768.64,627.44,808.71,629,821.74Z"/><path class="cls-10" d="M885,829c6.34,3.15,19.65-3.54,17.79,5-1.74,8-14.11,3.93-20.87,2.57-2.09-.42-4.17-6.17-4.41-9.62-1.72-24.6-2.94-49.24-4.37-73.86-.44-7.55-.71-15.13-1.63-22.62-.58-4.71.75-6.8,5.54-6.9,6.71-.13,23-2.9,19.54,5.74-1.29,3.2-6.88,1.28-10.26,1-4.79-.34-6.53,1.16-6.19,6.06.8,11.79,1.24,23.61,1.86,36.22,5,.22,9.56.15,14,.78,1.49.21,4.12,1.61,4.08,3.41s-2.67,3-4.15,3.18c-3.87.45-7.83.15-13.62.15Z"/><path class="cls-12" d="M746.61,832c6.44.55,15.72-4.43,18.19,1.55,2.7,6.54-17,8.93-21.21,5.81-2.73-2-4.37-6.93-4.63-10.68-2.19-31.81-4-63.64-5.68-95.48-.12-2.27,1.72-6.39,3.22-6.68,7.3-1.41,17.32-4.25,21.43,2.34.52.83.86,2.15.25,2.91-3.32,4.13-10.5,1.38-16.69,2.19l2.09,41c4.37.21,8.28,0,12,.72,2.19.44,6.19,1.29,6.11,3.68s-3.93,2.8-6.06,3.13c-3.45.53-7,.14-11.91.14Z"/><path class="cls-11" d="M434.69,774c1.86-10.66,3.18-19.7,5.16-28.6.5-2.24,2.18-6.47,4.71-6s2.74,5.17,2.41,7.51c-3.24,22.45-6.94,44.84-10.33,67.27-1.38,9.11-2.07,18.33-3.65,27.39-.39,2.25-3,4.1-4.62,6.14-.93-2.45-2.89-5-2.64-7.34,1.52-14.06,4-28,5.21-42.12.49-5.58,0-12-2.29-16.91-4.87-10.36-11.39-19.93-16.91-30-1.14-2.08-3.22-5.92-1.21-7.45s5.61,1.43,6.86,3.23C423.15,755.38,428.37,764,434.69,774Z"/><path class="cls-13" d="M708.66,1060.65c-.25,2.95-2.95,8.1-4.48,8.08-5.17,0-5.21-4.69-5-8.8.66-12.47,2-25,1.8-37.42-.34-21-1.65-42-2.58-63-.07-1.64-1.06-3.57-.48-4.82,1.09-2.33,2-6.28,4.62-6.34s4.52,3.83,4.79,6c1.34,10.75,2.37,21.57,2.8,32.39.45,11.48.1,23,.1,34.5C710.46,1021.27,709.79,1047.55,708.66,1060.65Z"/><path class="cls-11" d="M785.83,837.09c-.52-2,1.48-2.51,2-2.71,6.42-2.63,12.71-4.9,14.19-13.3,1.74-9.91,1.19-19.16-5.38-27.08-3.75-4.52-8.42-8.28-12.6-12.45-11.93-11.88-14.31-26.21-10.07-41.87,2.22-8.19,12-13.86,20.09-12.3,1.34.26,3.37,1.65,3.43,2.62.07,1.19-1.56,3.53-2.52,3.56-8.31.26-13.82,3.32-14.81,12.39-1.24,11.3.45,21.67,8.74,30.1,3.23,3.28,6.77,6.25,10.11,9.43,11.37,10.81,14.9,28.7,8.69,42.77-3.17,7.17-9.55,9.65-16.3,11.41C790,840,786.45,839.55,785.83,837.09Z"/><path class="cls-13" d="M840.46,726.22l3.74,2.94c-1.56,1.36-2.92,3.47-4.72,3.94-11.12,2.95-12.09,3.59-13,14.79-.93,11,1.89,20.7,10.15,28.67,5.63,5.44,11.48,11,15.68,17.47,6.48,10,6.24,21.25,2.26,32.31-2.16,6-11,12.58-16.57,12.31-1.54-.07-4.21-1-4.5-2.77-.24-1.47,1.62-3,2.79-3.39,6-1.95,10.54-4.83,12.05-11.62,1.86-8.36,2.25-16.61-2.68-23.8a86.33,86.33,0,0,0-13.19-14.46c-12.4-11.32-16.18-25.2-12.74-41.2C821.84,731.42,828.53,726.42,840.46,726.22Z"/><path class="cls-14" d="M1083.85,745.34c-3.55,6.54-13.35.86-20.41,1.31-.29,6.13-.66,12.53-.88,18.94q-1.05,31.55-2,63.1c-.05,1.64.44,3.57-.25,4.86-.92,1.72-2.17,4.58-4.2,4.39s-3.34-3.36-3.33-5c.08-11.5.83-23,1-34.5.19-17.36,0-34.72,0-52.89a42,42,0,0,1-7.41-.76,4.54,4.54,0,0,1-2.81-3.28c0-1.09,1.82-3.23,2.74-3.18,11.7.69,23.38,1.67,35.05,2.67C1081.72,741,1085.67,742,1083.85,745.34Z"/><path class="cls-9" d="M1026.14,747c-2.5,30.46-4.92,60.92-7.65,91.35-.17,1.92-1.87,5.53-4.18,5.42-2.12-.1-3.34-3.56-3.31-5.31.16-9.19.66-18.39,1.44-27.55q3.18-37.32,6.82-74.6c.17-1.76,1.34-4.88,3.36-5,1.8-.12,3.2,2.51,3.5,4C1026.87,739.18,1026.48,747,1026.14,747Z"/><path class="cls-8" d="M445.36,1035.61c14.53-8.94,18.68-27.37,2.92-41.18-13-11.4-17.69-25.78-12.84-39.47,3.1-8.75,21.48-20.65,22.43-8.05.29,3.8-5.35,3.46-7.31,3.5-6.92.12-8.86,4.35-9.73,10.14-1.81,12.14,2,22.1,11.57,29.65a33.83,33.83,0,0,1,12.79,20.47c2.72,13.53-2.85,24.89-13.76,28-1.92.54-5,1.21-6.33-.43A2,2,0,0,1,445.36,1035.61Z"/><path class="cls-15" d="M1104,778.18c-.82-12.58-1.88-25.71-2.36-38.87-.1-2.61,1.72-7.36,3.19-7.59,4.93-.75,4,3.79,4.32,6.89,3.13,27.29,2.33,54.58-.08,81.85-.22,2.51-2.4,7-3.48,6.91-5-.27-4.51-4.52-4.27-8.19C1102.19,805.7,1103.07,792.23,1104,778.18Z"/><path class="cls-10" d="M379.52,955.75c-4-1-8.88.19-11-2.7-.63-.86-.84-3.13.23-3.2,12.14-.78,19.07-2.17,32.75-1.05,1.06.09,1.07,2.28.46,3.15-2.81,4-9.59,2-15.34,3.21,0,5.57-.2,11.67,0,17.75.69,17.42,1.68,34.83,2.18,52.25.06,2.2-.8,6.74-3.31,6.69-2.35-.05-2.75-4.22-2.86-6.4C381.47,1002.19,380.53,978.91,379.52,955.75Z"/><path class="cls-16" d="M348.14,988.73c0-13.1-.07-26.2.09-39.3,0-1.63.27-4.54,2-4.88,2-.4,4,2.74,4.17,4.26.64,7.82.89,15.7.82,23.56q-.28,29.52-1.06,59c-.08,2.81.31,8.15-2.61,8.37-3.24.25-4.09-5.77-4.19-8.71C346.93,1017,347.82,988.73,348.14,988.73Z"/><path class="cls-17" d="M376.23,653.79c1.62,14.47,5.67,28.89,1.41,43.63C368,683.93,366.83,668.29,364.58,653Z"/><path class="cls-18" d="M420.24,943.1c1.6.28,3,2.68,2.75,3.55-1.51,6-3.48,11.87-5.3,17.78a49.47,49.47,0,0,1-5-1.66c1.36-6,3-12,4.74-17.88A2.77,2.77,0,0,1,420.24,943.1Z"/><path class="cls-12" d="M700.19,1098c-4.59-.15-5.53-6.78-4.95-8.15,1-2.46,4.07-4.46,6.71-5.6.71-.3,4.64,3.62,4.32,4.92C705.63,1091.84,705.1,1098.16,700.19,1098Z"/><path class="cls-9" d="M1102.53,850.63c-3.54.24-5-4.73-4.69-5.71a9.56,9.56,0,0,1,4.81-4.93c.74-.34,4.21,2.54,4.08,3.65C1106.47,845.73,1106.12,850.39,1102.53,850.63Z"/><path class="cls-19" d="M483.11,697.87c-2.41-2.95-5.43-5.48-5-6.34a17,17,0,0,1,6.12-6.52c.55-.35,5.07,3.39,4.78,4.31C488.17,692,485.82,694.2,483.11,697.87Z"/><path class="cls-20" d="M525.15,695c-2.09-2.67-4.81-5-4.41-5.83,1.24-2.61,3.67-4.66,5.64-6.93,1.81,1.58,5.41,4,5.13,4.61C530.22,689.52,527.85,691.72,525.15,695Z"/><path class="cls-19" d="M574.71,684.08c-4.07,3.05-6.29,5.41-9,6.39-1,.36-3.17-2.54-4.81-4,2-2.26,3.74-5.12,6.26-6.51C568.21,679.42,571,682,574.71,684.08Z"/></g></svg>