<svg id="FLOWCHART" xmlns="http://www.w3.org/2000/svg" viewBox="0 0 2000 2000"><defs><style>.cls-1{fill:#fbde3e;}.cls-2{fill:#fadd3a;}.cls-3{fill:#f8dc3d;}.cls-4{fill:#fbdd3c;}.cls-5{fill:#f9dc3a;}.cls-6{fill:#fbdf42;}.cls-7{fill:#f8dd41;}.cls-8{fill:#277c97;}.cls-9{fill:#297d98;}.cls-10{fill:#2b7e98;}.cls-11{fill:#2d7f99;}.cls-12{fill:#2f809a;}.cls-13{fill:#2c7e98;}.cls-14{fill:#2e7f93;}.cls-15{fill:#33839c;}.cls-16{fill:#35849d;}.cls-17{fill:#37859e;}.cls-18{fill:#f8fafb;}.cls-19{fill:#338191;}.cls-20{fill:#fbfcfb;}.cls-21{fill:#bbe8f7;}.cls-22{fill:#18a05f;}.cls-23{fill:#fbfcfd;}.cls-24{fill:#fdfdfd;}.cls-25{fill:#b8e7f5;}.cls-26{fill:#dc4e42;}.cls-27{fill:#f9d403;}.cls-28{fill:#fefefe;}.cls-29{fill:#4c8bf4;}</style></defs><title>Panel 05_Flowchart</title><g id="YELLOW"><path class="cls-1" d="M1363,650.18c-12.3-13-24.34-26.23-37-38.87-8.42-8.41-17.85-15.8-26.54-23.94a138.21,138.21,0,0,1-13.36-14.47c-7.34-9.18-14.78-18.22-26-22.84-10.27-4.24-15.09-13.71-21.88-21.41-9.07-10.3-19-19.86-28.2-30-7.49-8.25-6.79-21.53.5-29.75,5.09-5.74,10.35-11.63,14-18.29,6.82-12.42,17.83-20.27,28.59-28.45,6.75-5.13,18.43-3.4,24.87,2.11,8.47,7.26,17.47,13.9,26.13,21a31.39,31.39,0,0,1,4.54,5.32c1.62,2.08,2.75,5.64,4.73,6.16,9.87,2.59,13.09,11.74,19.27,18,9.06,9.15,18.88,17.53,28.16,26.47,9,8.63,17.49,17.69,26.44,26.32,5.72,5.52,11.7,10.8,17.88,15.8,5.52,4.46,11.91,7.73,13.84,15.65.64,2.63,3.91,4.92,6.43,6.72,10,7.12,19.52,14.51,24.86,26a16.8,16.8,0,0,0,3.54,4.28c5.89,6,12.34,11.44,13.54,20.69.38,2.94,2.39,6,4.43,8.35,12.23,14,3.14,32.52-9,39.23-11.63,6.46-23.19,13-34.75,19.6-19,10.77-33.63,6.91-45.5-11.7-2.84-4.45-6.47-8.4-9.74-12.58,11.95.39,23.9.69,35.84,1.21,10.49.46,13.66-1.89,13.9-12.49.25-11.42-.19-22.86-.59-34.28-.17-4.91-1-10.61-7.39-10.26-6.93.38-6.72,6.37-6.39,11.56.44,7,1.05,14,1.59,20.93l-1.95.85c-8.66-9.52-17.05-19.3-26-28.51q-59.73-61.19-119.74-122.1c-4.29-4.37-8.38-9-12.87-13.12-4-3.69-7.82-11.07-14.22-4.57-5.83,5.91.63,10,4.33,13.81q75.31,77.66,150.8,155.15c2.32,2.38,5.75,3.68,8.67,5.48l-2.41,2.78c-5.47-.26-11-1.27-16.39-.57C1374.19,646.18,1368.63,648.53,1363,650.18Z"/><path class="cls-2" d="M1617.46,1431.5c-10.76-2.69-21.53-5.33-32.27-8.1-2.31-.59-4.49-2.33-6.74-2.36-16.61-.24-22.86-10.89-25.25-25.1-.63-3.76.74-7.81.54-11.69-.84-16.6-2.58-33.18-2.76-49.79-.23-22,.92-43.92,1-65.88.08-14-.69-28-.88-42,0-2.33,1.27-4.65,1.37-7,.21-5.08.57-10.24-.11-15.23-.89-6.44,7.29-38.91,12.52-42.61a50.2,50.2,0,0,1,16.44-7.25c7.91-2,16.2-2.47,24.24-4,11.1-2.12,20.38,1.34,28.66,8.44a33.68,33.68,0,0,0,2.86,2.78c15,10,18,25.26,19,41.63.72,11.91,2.51,23.78,2.64,35.68.09,8.59-2.54,17.19-2.6,25.8-.12,16.31,1,32.63,1.12,48.94.1,16.87-.42,33.74-.69,50.61,0,1.85-1,4.06-.24,5.48,9.25,18.11-2.36,31.34-10.47,45.32C1639.66,1425.85,1629.95,1430.36,1617.46,1431.5Zm-19.31-43.56c-6.8-6.39-12.12-12-18.16-16.67-1.74-1.34-5.58,0-8.46.19.33,2.84-.37,6.57,1.18,8.38,7.62,8.86,15.79,17.25,23.84,25.74,4.34,4.58,9.19,5.5,13.87.7,7.61-7.8,15.28-15.6,22.2-24,1.62-2,.34-6.32.39-9.57-3.16.85-7.14.79-9.32,2.74-4.77,4.26-8.62,9.53-13.9,15.6,0-37.08,0-72.18,0-107.28q0-49.93,0-99.85c0-4.23-1.12-8.34-5.75-7.44-2.36.46-4,5-5.84,7.68-.25.37-.07,1-.07,1.58q0,67.9,0,135.79C1598.15,1343.24,1598.15,1365,1598.15,1387.94Z"/><path class="cls-3" d="M1389.84,1538.79c1,12.36,2.42,24.69,3,37.07.58,12.1-1.72,22.56-13.28,30.35-9.1,6.14-18.82,7.6-28.66,10.72-16.26,5.17-31.45-3.32-47.15.17-7.78,1.72-16.09,1.48-24.14,1.34-4.31-.07-8.56-2.08-12.9-2.71-4.14-.6-8.38-.57-12.57-.78-13.37-.66-26.73-1.44-40.11-1.89-7.61-.25-15.26-.15-22.87.16-7.06.29-14.13,1.77-21.16,1.51-17.9-.67-27.92-13.28-29.79-29.58-1-8.35-4.27-14.58-9.51-20.37-8.67-9.58-11.28-21.41-9.67-33.43.74-5.51,5.33-12.72,10.15-15,11.32-5.43,22.32-12,36.69-9.65,10.56,1.75,21.95-2.28,32.94-2.12,14.6.21,29,1.44,43.39,6.06,9.91,3.17,22,1,32.8-.57,8-1.11,15.18-1.7,23.35-.18,10.41,1.94,21.45.47,32.22.5s21.77.09,32.65.13C1382.92,1510.55,1392.15,1523.44,1389.84,1538.79Zm-214.74,44.45q80.63-1.88,161.26-3.75c13.58-.31,27.17-.3,40.73-.87,2.51-.11,5.36-1.85,7.2-3.69.83-.83.24-4.81-.87-5.5a16.67,16.67,0,0,0-8.58-2.63c-50,.9-100.06,2.1-150.1,3-16.34.3-32.7,0-48.87,0,4.61-5,10.06-10.08,14.29-16,1.57-2.19.29-6.41.31-9.71-3,.65-6.9.33-8.91,2.12-8.13,7.25-15.56,15.28-23.5,22.75-5.11,4.81-6.79,9.81-1.34,15,7.87,7.54,15.91,15,24.47,21.68,2,1.56,6.34.08,9.61,0-1-3.17-1.06-7.12-3.06-9.36-4-4.51-9.09-8.09-13.72-12.05Q1174.61,1583.81,1175.11,1583.23Z"/><path class="cls-4" d="M1146.89,836.73c.8-7.66,1.19-15.39,2.48-23,2.71-15.81,20.47-29.5,38.37-31.05,14.7-1.27,29.31-3.66,44-5.32,3.87-.44,7.85,0,11.77,0a238.26,238.26,0,0,1,44.72,4.81c6.19,1.23,13.33-2.25,20-3.64,4.67-1,9.35-2.93,14-2.83,9.8.22,19.56,1.76,29.37,2.22,3.57.17,8.13-.07,10.65-2.1,8.82-7.11,19.24-7.18,28.93-5.73a125.38,125.38,0,0,1,33.11,10c16.72,7.64,19.71,27.6,6.6,40.18-4.77,4.58-6,9.31-5.71,15.58.66,16.86-9.54,35.57-23.55,40-9,2.85-19.22,2.76-28.88,2.63-10.62-.14-20.76-2.61-31.95-.29-11.49,2.39-24-.73-36.12-.6-6.68.07-13.33,1.9-20,2.89-3.85.57-7.7,1.28-11.57,1.53-9.65.63-19.31,1.25-29,1.47a139.5,139.5,0,0,1-18.7-.73c-18.3-2-36.6-4.2-54.83-6.75-12.39-1.74-22-13.8-22.95-28.07-.25-3.71,0-7.46,0-11.19Zm242.55-7.63c-5.17,5.72-11.2,11.69-16.24,18.4-1.49,2-.17,6.09-.13,9.23,3.31-.35,7.71.54,9.74-1.25,9.54-8.44,18.49-17.57,27.54-26.57,3.9-3.89,6.45-8.75,1.77-13.29q-14.56-14.15-30.18-27.18c-1.52-1.27-7.4-.4-8,.94-1.08,2.43-.81,6.89.85,8.83,3.59,4.18,8.45,7.25,12.7,10.88,1.62,1.38,3,3,4.47,4.58l-.8,2.11c-21.28,0-42.56-.2-63.83,0-52.69.6-105.38,1.43-158.07,2.11-4.74.06-9.12,1.08-8.87,6.65.23,5.15,4.22,6.73,9.15,6.6,12-.33,23.92-.4,35.88-.6,28.46-.48,56.91-1.2,85.37-1.42C1323.78,828.9,1356.74,829.09,1389.45,829.09Z"/><path class="cls-5" d="M673.06,1626.51c-19,1-37.92,2.38-56.89,2.91a49.35,49.35,0,0,1-17.88-3c-16-5.84-31.57-.82-47.32.49-8.62.72-17.28,1-25.91,1.55-4.23.29-8.6.27-12.62,1.41-16,4.51-31.58-1.51-47.27-2.52-5.4-.35-11.62-7.91-15-13.63-4.3-7.16-6.68-15.67-8.78-23.88-1.21-4.71-.54-10-.15-15,.59-7.64,2-15.22,2.47-22.86,1-16.38,9.38-27.61,27.71-27.62,14.12,0,28.56-2.4,42.29-.21,16.88,2.7,32.32-4.44,48.62-3.55,6.34.35,13.23-.63,18.91,1.52,15,5.68,29.36.89,44-.77a12,12,0,0,1,1.56-.35c18,.51,36.1-.22,53.88,1.94,17.48,2.12,29.88,24.13,27.5,44.63a36.79,36.79,0,0,0,.16,11c3.2,16.73-5.25,29.71-14.89,41.25-4.09,4.9-12.84,5.9-19.47,8.68Zm-201.64-59.95c6.26-6.56,11.79-11.58,16.23-17.43,1.49-2,.24-6,.24-9.12-2.89.34-6.68-.36-8.53,1.21-8.88,7.6-17.28,15.76-25.77,23.82-4.55,4.32-5.5,9.17-.69,13.87,7.79,7.62,15.7,15.13,23.78,22.44,2.81,2.54,6.32,4.61,9.66.45,3.55-4.43.54-7.29-2.62-10l-14.22-12.38a25.74,25.74,0,0,1,3.62-.77q98.94.08,197.89.21c4.6,0,10.11.62,10.34-5.68.22-6.09-4.91-6.51-9.76-6.5q-46.72,0-93.44-.08C543.09,1566.55,508,1566.56,471.42,1566.56Z"/><path class="cls-6" d="M486.91,631.61c7.52-13.21,7.64-28.76,21.65-36.64,2.29-1.29,5-2.68,6.26-4.79C524.5,573.52,540.91,565,556.21,555c1.83-1.19,3.79-3.51,4.06-5.53,1.5-11.47,8-19.54,18.13-23.45,10.73-4.12,14.59-14,21.6-21.27s15.25-13.81,22.93-20.66c2.15-1.91,4.29-3.83,6.41-5.78,7.51-6.91,14.94-13.91,22.53-20.74,5.72-5.15,11.37-10.46,17.57-15a26.52,26.52,0,0,1,12.09-5.08c8.08-.87,16.3-.55,24.46-.5,13,.08,20.89,11.35,16.65,23.54-4.71,13.55-4.71,13.55,6.14,23.35A22.45,22.45,0,0,1,725.4,520c-10.52,6.38-19.71,13.4-26.23,24.76-3.95,6.89-13.36,10.57-20.12,15.94-3.15,2.5-7.23,5.11-8.43,8.53-2.63,7.5-6.56,14-13.58,17-13,5.39-18.6,17.81-28,26.52-17.43,16.16-35.69,31.43-53.78,46.87-2.11,1.8-5.47,2.06-8,3.46-7.07,3.89-15,6.95-20.83,12.23-14,12.62-25.29,11.69-36.15-4-3.62-5.22-9.15-9.22-12.23-14.67C493.57,648.67,490.53,639.93,486.91,631.61ZM685.39,489.14c-49.2,44.2-97.23,87.36-145.27,130.51-7.72,6.93-15.71,13.59-23.08,20.88-1.73,1.71-2.6,5.95-1.7,8.11.73,1.75,4.71,2.82,7.28,2.89,1.68,0,3.55-2.1,5.11-3.52,16.91-15.33,33.66-30.85,50.69-46.06q42.86-38.29,86-76.27c9.26-8.2,18.64-16.28,27.49-24,0,8.42-.54,16.68.3,24.8.29,2.83,4,5.31,6.16,7.94,2.31-2.74,6.22-5.24,6.66-8.25,1.77-12.07,2.4-24.3,3.57-36.46.74-7.65-1.93-12-9.72-12.6-11.65-.94-23.38-1.11-35.08-1.17-4.25,0-9.27.86-9,6.72.27,6.08,5.15,6.53,10,6.5C671.26,489.11,677.78,489.14,685.39,489.14Z"/><path class="cls-7" d="M583.73,772.62c4,1,10.11,2.48,16.22,3.9,2,.47,4.62,1.69,6.12.92,8.63-4.39,16.44.11,24.74,1,10.7,1.19,22.09,1.47,32.45-1,15.68-3.7,30.56.85,45.79,1.11,18.21.31,36.41,1,54.61,1.68s33.82,8.7,37.34,31c1,6.17.1,12.61.42,18.91.35,7.12.08,14.48,1.85,21.27,4.75,18.31-5.1,36.43-26.78,34.86-18-1.3-36.09-2.63-54.16-3.24-10.29-.35-20.74,1.82-30.93.9a363.81,363.81,0,0,1-46.7-7.21,117.87,117.87,0,0,0-27.34-2.91c-13.62.1-27.39-2.68-40.85-5.43-8-1.65-16.73-4.1-23.19-8.83-14.15-10.35-17.62-26-12.26-42.69a147.25,147.25,0,0,0,5-21.61c1.72-10.74,8.64-18.63,19.41-20.55C570.71,773.86,576,773.51,583.73,772.62Zm188.35,44.8H596.88c-9.85,0-19.73-.46-29.55.17-2.87.18-7.61,3.1-7.9,5.26-.67,4.86,3.49,6.45,8.08,6.16,1.33-.08,2.66,0,4,.06,29.53.21,59.06.52,88.59.58,25.47.05,50.95-.2,76.42-.29,10.38,0,20.75,0,32.79,0-6.8,7.26-12.23,12.39-16.7,18.25-1.36,1.79-.09,5.59,0,8.46,2.87-.24,6.67.61,8.45-.9,8.89-7.6,17.25-15.81,25.78-23.82,4.63-4.35,5.62-9.18.87-13.89-7.74-7.68-15.69-15.16-23.74-22.51-2.86-2.61-6.45-4.58-9.67-.43-3.38,4.35-.52,7.31,2.74,10.06C761.64,808.47,766.22,812.42,772.07,817.42Z"/></g><g id="CHART"><path class="cls-8" d="M1597.43,1728.15q-75.54,0-151.08,0c-13,0-18.56-5.83-18.85-18.85-1.69-76.19-3.3-152.39-5.22-228.58-.41-16.42.2-21.59,20.65-22,96.71-1.9,193.4-4.68,290.1-7a123.39,123.39,0,0,1,20.61,1.42c6.77,1,10.58,4.69,10.56,12.44q-.25,121.13-.1,242.25c0,1.07,0,2.13,0,3.2-1,19.17-3.74,21.58-22.73,21.54q-71.95-.14-143.89,0Zm68.1-134.19c1.08,19.69-2.38,36-13.19,50.36-34,45.1-79.46,39.39-117.62,8a39.67,39.67,0,0,1-11-15.51c-10.46-26.37-12.08-52.88,1.84-78.75,11.7-21.75,30-34.83,54-40,4.48-1,8.71-2.6,7.43-8.27-1.12-5-5.05-6.54-9.9-5.78a53.22,53.22,0,0,0-5.47,1.14c-72.1,19.15-83,101.34-56,144.43,11.19,17.87,29.1,25.94,47.43,34.78,54.56,26.3,117.86-26.92,116.81-75.25-.09-4.35,0-8.7,0-14,10,5.72,18.61,10.89,27.48,15.5,3.6,1.87,7.92,3.91,11.12-1.41,2.78-4.63,2.82-8.82-2-11.68q-21-12.36-42.27-24.21c-4.85-2.7-10-2.73-13.73,2.08q-15,19.61-29.59,39.6c-3.17,4.38-.84,11.11,3.93,11.37,2.65.14,6.23-1.71,8-3.83C1650.25,1613.71,1657.22,1604.48,1665.53,1594Z"/><path class="cls-9" d="M934.65,1461.14v64.11c6.64,0,12.95,0,19.26,0,22.66,0,45.32,0,68,.19,10.19.09,12.82,2.72,12.94,12.83.18,14.58,0,29.16,0,45.39,15.7,0,29.51.29,43.29-.11,8-.23,10.66,2.73,10.71,10.73.15,27.19.81,54.37,1.65,81.55.21,6.79-1.62,9.26-8.87,9.38-35.18.56-70.35,1.79-105.52,2.63-12.25.29-12.25.09-12.25-12.23q0-41.59,0-83.17c0-3.13.42-6.27.69-10H1020v-39.76H836.8v39.54c6,0,12,.1,18.08,0,7.46-.16,14.92-.68,22.38-.74,11.27-.1,11.67.41,11.67,11.54,0,27.72-.18,55.45.12,83.17.08,7.17-1.91,10.22-9.52,9.53-7.08-.64-14.26-.14-23.29-.14,4.34,5.54,7.7,9.81,11,14.11,2.61,3.36,5.17,6.77,7.78,10.13,3.45,4.46,5.18,8.87-.35,13.07s-9.2.12-12.06-3.53c-7-9-13.73-18.31-20.25-27.71-5-7.15-4.74-7.3-14.78-5.75,0,8.07-.09,16.26,0,24.45.08,5.42-.43,10.53-7.06,11.42-5.11.69-9.16-4.81-9.15-11.67,0-8.18,0-16.36,0-24.45-8-3-13-.16-17.26,6.72-5.42,8.84-11.78,17.1-17.66,25.65-3,4.38-6.64,7.41-12,4.2-5.72-3.44-4.72-8.29-1.77-13.12,4.83-7.89,9.7-15.75,15.11-24.52-11.06,1.25-12.37-4.9-12.41-13.58-.13-25.85-.84-51.71-1.68-77.55-.22-6.83,1.75-9.6,9-9.4,15.38.43,30.78.13,46.73.13,0-15.65-.05-29.42,0-43.19s2-15.75,15.63-15.76h81.22v-65.78c-14.4,0-28.7.06-43,0-9.82-.06-10.85-1.2-11.08-11.07-.71-30.91-1.28-61.83-2.26-92.73-.23-7.28,1.41-10.44,9.59-10.56,40-.59,79.95-1.81,119.92-2.77,2.66-.06,5.32.2,8,.25,4.61.09,6.59,2.31,6.58,7q-.16,51.18-.09,102.37c0,6.89-2.74,9.61-10.22,9.39C974.38,1460.76,954.92,1461.14,934.65,1461.14Z"/><path class="cls-10" d="M240.92,853.24c-30.71-.88-51.39-15.5-64.11-43.37-11.45-25.08-14.79-50-3.9-75.69,10.5-24.75,30.58-39,55.52-46.68a37.3,37.3,0,0,1,19-.4c13.88,3.42,28.07,6.85,40.94,12.84,23.34,10.87,37.46,29.31,38.12,57.58,21-1.53,41.35-2.86,61.72-4.57,20.71-1.73,41.37-4,62.09-5.68,12.95-1,16.86,2.89,16.62,16.05-.82,44.5-2.23,89-2.47,133.49-.1,18.34,2.07,36.71,3.41,55,1.85,25.24-1.22,29.86-26.08,30.08-59.69.54-119.39.13-179.09,0a56,56,0,0,1-10.3-1.25c-8.4-1.61-11.07-5.24-11-13.74q.16-54.39.14-108.78A49.13,49.13,0,0,0,240.92,853.24ZM452.15,964.18c-10.31-66.7-2.21-132.86-2.25-199.58L324.57,775.26c-3.63,39.06-26.35,62.68-62.69,75.14-1.93.66-3.83,4.68-3.85,7.15-.23,33.57-.13,67.14-.06,100.72,0,2,.41,4,.71,6.72C322.85,964.87,386.4,969.09,452.15,964.18ZM274.55,711l-1-2.15c-2.13,1.49-4.5,2.74-6.34,4.53-8.28,8-17.56,7.7-24.79-1.11-6.3-7.68-10.83-8.52-19.89-4.21,3.67,6.84,9.93,13.59,10.31,20.65.36,6.78-5.39,13.88-8.68,21.35l6,5.18-2.26.4c-.25,3.52-1.5,7.44-.33,10.4.62,1.57,5.54,2.31,8.35,2,5.42-.64,11-3.91,15.59,1.6,4.83,5.77,1.92,11.59-.52,17.22-.94,2.17-2.77,4-3.72,6.13-1.42,3.25-2,7-3.68,10-6.62,11.68-3.15,29.18-21.14,34.79,28.88,4.6,53.87-1.77,64.85-16.35-9.79-4.68-11-13.37-8.67-22.28,2.26-8.49,1.15-14.77-5.78-20.49-5.91-4.87-5.39-11.75-.11-16,4.85-3.9,11.48-6.42,17.7-7.57,6.9-1.27,14.2-.29,22.53-.29l-3-15.51c-5.11,1.22-9.13,1.74-12.81,3.13-9.68,3.67-17.51-2.06-25.47-5.38-2.4-1-4.2-7.36-3.59-10.78C269,721,272.27,716.09,274.55,711Zm-93.48,45.82c-8.49,23.81,13.84,70.68,36.89,77.84-2.29-7.79-3.84-16.12-7.2-23.65a25.28,25.28,0,0,1-.29-21.44,10.15,10.15,0,0,0-.4-7.62C203.87,770.07,195.74,760.05,181.07,756.85Zm96.42,9.21c1.57,4,1.74,6.33,3,7.24,10.37,7.69,9.77,17.35,6.65,28.41-.9,3.18,2.51,7.58,3.95,11.42l2.79-.53c9.77-14.16,18.9-28.56,17.82-48.17Zm-60.69-45.4c-5.15,1.35-10.42,4.47-14.66,3.43-6.94-1.69-9.09,2.06-11.74,6.38-1.52,2.48-2.73,5.16-4.31,7.6-2.29,3.53-2,6.49,1.64,8.75,2.16,1.34,4.58,2.27,6.76,3.59,7.27,4.39,14.48,8.87,21.52,13.2-.1-1,.5-4.14-.76-6-5-7.34-1.73-12.59,3.74-17.23s6.79-9.12,1-14.5C218.49,724.54,217.79,722.35,216.8,720.66Zm27,58.32c-5.94,1.5-10.18,2-13.87,3.67a21.67,21.67,0,0,0-8.3,6.56c-6.11,8.44,1.52,16.42,1.58,24.75,0,3.54,1.31,7.08,2.38,12.37ZM305.12,730c-4.64-4.08-8.93-7.58-12.91-11.39-7.08-6.79-8.29-6.84-13,1.92-1.26,2.36-1.54,8-.92,8.18C286.36,731.51,294.18,738.14,305.12,730Z"/><path class="cls-11" d="M1037.51,775.26c2.67,10.69,4.71,21.65,8.16,32.14,7.6,23.11,13.48,46.39,14.58,70.92,1.88,42-12.17,78.91-35,113.15-4.39,6.6-10.69,9.83-18.61,5.95-14.29-7-29.43-6.24-44.62-5.31-26.38,1.63-53,3.18-78.73-3.52-15-3.9-29.2-11.14-43.3-17.84-8-3.8-7.94-9.64-1.42-15.76s13.25-11.63,18.87-18.29c17.72-21,19.59-46.15,13.66-71.13-6.19-26-15.45-51.35-24.15-76.72-6.32-18.43-13.28-36.43-11.88-56.55C836.88,707,847.7,686.45,865.45,669c6.39-6.28,14.2-7,22.33-5.51,32.33,6.05,64.82,9.42,97.77,7,11.69-.84,23.42-1.2,35.14-1.54,19.09-.56,35.49,6.45,49.36,19.09a36.37,36.37,0,0,1,9.25,13.69c8.77,23.55-6.39,59.07-29.23,69.38C1046.5,772.75,1042.6,773.62,1037.51,775.26Zm9.74-84.31.44-2.61c-9.06-1.42-18.11-3.89-27.19-4-15.17-.22-30.36.9-45.53,1.75-30.06,1.68-59.51-2.8-88.92-8.17-2.68-.49-6.85,0-8.43,1.74C855.42,704.29,845.69,732.18,857,765c3.91,11.31,8.36,22.44,12.39,33.71,9.33,26,19.61,51.79,21.21,80,1.27,22.4-1.3,43.69-15.19,62.21-5.79,7.72-12.14,15-18.41,22.7,1.9.91,4,2,6.17,2.95,30.52,14.19,62.91,12,95.11,10.37,17.8-.9,35.56-3.32,52.41,5.68,14-20.78,24.28-42.6,29.32-66.57,7-33.29,2.31-65.75-8.8-97.44-8.13-23.19-12.34-46.87-10.22-71.42C1022.89,725.3,1026.25,704,1047.25,690.95Zm-10.1,69.39c2.45-.26,3.79-.17,5-.56,17.1-5.62,31.27-29.39,28.24-47.24-1.28-7.51-9.32-11.52-15.76-7a32.87,32.87,0,0,0-9.64,11.25C1037.9,730,1038,744.75,1037.16,760.34Z"/><path class="cls-12" d="M1492.53,841.78q0-49.59,0-99.18a26.74,26.74,0,0,0-.48-6.33c-2.24-9.08.43-17.23,7.75-22a235.51,235.51,0,0,1,34.31-18.2c31.28-13.54,64-12.11,96.71-7.29a458.91,458.91,0,0,1,45.35,9.05c6.22,1.57,12.28,5.27,17.41,9.3,6.59,5.17,9.63,12.46,8.06,21.29a103.78,103.78,0,0,0-2.09,18.08q.11,95.19.57,190.38c0,2.93,0,5.87,0,8.8-.13,8.84-2.88,15-12.12,19.15-36,16.09-73.26,24.82-112.66,20.44-26.89-3-53.14-8.8-74.2-28.13-5.25-4.82-8.29-9.44-8.2-17,.41-32.79.18-65.59.18-98.39Zm25.89-128.06c-4.55,2.56-9.62,4.51-13.5,7.84-4.91,4.22-3.57,12.33,2.45,14.37a319,319,0,0,0,33.57,9.42c8.79,1.94,18,1.9,26.82,3.73,33.5,6.94,66.18,3,98.34-7.13a71.56,71.56,0,0,0,19.13-9.6c7.08-4.95,6.59-12.09-.61-16.85a39.93,39.93,0,0,0-12.16-5.81c-40.83-9.92-81.87-16.41-123.63-5.41Zm-14.35,33c-.17,2-.38,3.31-.39,4.61-.36,61.29-.78,122.58-.84,183.86,0,3.36,2.21,7.48,4.69,10,13.9,13.92,31.44,20.92,50.48,23.63,43.87,6.23,88,13.3,126.54-18.36,3.48-2.86,5.07-5.2,5.07-9.67q0-93.14.25-186.27c0-2.46-.29-4.92-.47-7.74C1627.33,775.84,1566.14,766,1504.07,746.75Z"/><path class="cls-11" d="M963.61,113.55c11.59,1.82,22.55,3.06,33.29,5.36,11.86,2.54,13.71,8.52,7.74,18.68-4.28,7.29-7.51,15.24-10.81,23.06-7.32,17.4-14.46,34.89-21.53,52.4-3.15,7.78-8.14,11.41-17.07,11.24-28.25-.53-56.51-.23-84.77-.4-13.16-.08-17.14-4.08-22.79-15.92-13.33-27.9-16.87-58.08-22.58-87.86-3.25-16.94-8.17-33.59-12.93-50.21-1.83-6.38-1.09-9.81,6.08-10.16,19.94-1,39.87-2.14,59.82-2.87,7.13-.26,12.57,5.6,14.7,14.5,3.36,14,3.36,14,18.32,13.72,10.39-.22,20.79-.49,31.18-.58,12.58-.1,17.29,3.61,19.83,15.9C963,104.84,963.15,109.39,963.61,113.55Zm29.54,17.62c-14.16,0-26.6.12-39,0-16.22-.19-32.5.13-48.63-1.25-7-.6-10.21,1-12.58,7.07-8.19,21-16.68,42-24.88,63-2.6,6.67-1.23,8.24,6.43,8.29,26.89.16,53.79.45,80.67.17,2.81,0,7-2.87,8.15-5.46C973.27,179.86,982.7,156.51,993.15,131.17Zm-163.06-60c4.39,20.44,9,40.63,13,60.92,4,20.12,6.09,40.69,14.27,62.35,3.24-9.2,5.38-16.22,8.15-23q10.26-25.09,21-50c3.14-7.26,8.74-7.75,16.39-7.2,16.07,1.16,32.29.35,48.42.35,2.36-14.59.24-17.26-13.82-17.15-10.13.08-20.26.5-30.39.44-24-.16-21.06-1.9-23.73-19.85-1.07-7.2-4.39-10.3-11.7-9.73C857.69,69.44,843.62,70.25,830.09,71.15Z"/><path class="cls-13" d="M246.42,1441.5a147,147,0,0,1,147,146.92c0,82.55-65.31,148.69-146.94,148.74s-147-66.19-147-148.68C99.44,1507.39,165.32,1441.5,246.42,1441.5Zm-27.75,281.73c56.74,10.13,108.58-9.49,141-57.93,23.83-35.6,28.95-74.66,16.69-115.84-.66-2.56-1.11-5.2-2-7.68-22.73-63.24-89.91-100.7-155.64-86.61-30.39,6.51-56.08,21.09-75.72,45.6a14.25,14.25,0,0,0-2.36,2c-23.94,31.11-34.07,65.82-28.87,105.15C119.35,1665.26,162.37,1712.11,218.67,1723.23Z"/><path class="cls-13" d="M908.75,559.86c0,18.12,0,36.25,0,54.37,0,5.38-.39,11.12-7.19,11.08-6.46,0-7.69-5.58-7.68-11,.07-36.25.11-72.49.37-108.74,0-4.61-1-7.66-4.86-10.73-7.75-6.11-8.67-18.43-1.21-24.7,5.81-4.89,6.56-10.27,6.35-16.76-.14-4.26.34-8.57-.18-12.77-.27-2.16-1.6-4.9-3.33-6-11.3-7.41-11.73-23.14-1-31.88,2.35-1.93,3.67-5.65,4.45-8.8s.22-6.36.18-9.56c-.08-7.18.36-13.59-5.29-20.33-9.34-11.15-7.18-20.28,3.44-30.31,1.46-1.37,2.14-4.11,2.25-6.26.29-6.12.05-12.26.1-18.39s.27-11.29-6-15.88c-7.43-5.42-6.38-18.71,1.41-23.69,5.08-3.25,5.48-7,5.44-11.91a66.8,66.8,0,0,1,1.21-14.25c.37-1.76,3.12-3,4.78-4.5,1.39,1.7,3.7,3.25,4,5.13a123.2,123.2,0,0,1,1,15.14c.31,8.94,5.22,13.73,14.25,13.66,9.86-.08,19.72-.24,29.58-.33,4.57,0,9.07.7,9.15,6.43.09,6.08-4.34,7.14-9.4,7-5.33-.13-10.91,1-15.94-.29-12.25-3-18.79,4.94-25.83,12.13-1.07,1.09-1.27,3.33-1.33,5.06-.17,5.06,1,10.39-.27,15.14-3,11.58,5.6,17.08,11.52,23.95,1.07,1.23,3.86,1.33,5.87,1.33,7.73,0,15.46-.16,23.18-.33,4.68-.1,7.83,1.58,8,6.69.21,5.44-3.32,6.72-7.83,6.69-8,0-16-.48-24,0-2.44.15-5.08,2.43-7,4.36a57.1,57.1,0,0,0-6.6,8.59c-1.09,1.62-2.37,3.53-2.42,5.35-.19,7.19-.05,14.39.22,21.58.17,4.49,8.57,11,14.29,11.18,7.72.26,15.45.34,23.18.5,5.27.11,10.3,1.76,10.4,7.58.1,6.13-5.09,7.3-10.34,7.25-4.26,0-8.74.88-12.75-.11-11.85-2.93-16.68,6.68-23.62,12.48-.94.78-1,2.94-1,4.47-.1,6.93-.18,13.86,0,20.79.14,5.64,6,11.44,11.69,11.57,9.32.22,18.66.15,28,.43,4.63.14,9.63.56,9.49,7-.13,6.13-4.59,7-9.54,7-7.2,0-14.39.28-21.58.32a18,18,0,0,0-17.68,18.13c-.05,18.39,0,36.78,0,55.17Z"/><path class="cls-9" d="M1082,372.41H991c0-19.67-.16-39,.1-58.36.07-5.44,3.6-7.78,9.18-7.45,6.9.41,13.83.28,20.75.49,5.36.16,10.9-1.35,15,4.62,1.29,1.85,6.44,1.29,9.83,1.37,10.63.26,21.27.31,31.9.41,6.42.06,9.37,3.54,8.85,9.62C1085.29,339.22,1083.64,355.32,1082,372.41Z"/><path class="cls-9" d="M990.93,292c0-18.49-.05-36.56,0-54.64,0-6.48,3-9.73,10-9.19s13.83.29,20.74.46c5.13.13,10.34-1.17,14.28,4.51,1.29,1.86,6.41,1.36,9.78,1.45,10.63.27,21.27.33,31.9.42,6.88.06,9.61,3.89,9,10.27-1.4,15.33-3,30.64-4.58,46.72Z"/><path class="cls-9" d="M991.19,527.34c0-14.5.17-29,0-43.59-.29-19.91-.41-19.91,19.5-19.84,4.53,0,9.14-.54,13.55.19,3.78.62,7.24,3,11,4.06a44.4,44.4,0,0,0,10.68,1.78c10.63.32,21.27.31,31.9.4,6.38.05,9.42,3.49,8.9,9.59-1.33,15.59-3,31.16-4.55,47.43Z"/><path class="cls-9" d="M991,449.63c0-18.49-.09-36.84.05-55.18,0-6.13,3.21-9.1,9.71-8.7,7.17.44,14.37.26,21.56.39,4.91.1,9.92-1.05,13.44,4.61,1.05,1.7,5.82,1.41,8.9,1.46,10.12.16,20.24-.21,30.35.14s12.41,2.8,11.59,12.72c-1.2,14.55-2.92,29.07-4.52,44.55Z"/><path class="cls-14" d="M1363,650.18c5.65-1.65,11.21-4,17-4.76,5.35-.7,10.92.31,16.39.57l2.41-2.78c-2.91-1.8-6.35-3.1-8.67-5.48q-75.53-77.45-150.8-155.15c-3.7-3.82-10.15-7.9-4.33-13.81,6.4-6.5,10.25.88,14.22,4.57,4.49,4.16,8.58,8.74,12.87,13.12q59.89,61,119.74,122.1c9,9.2,17.38,19,26,28.51l1.95-.85c-.54-7-1.15-13.95-1.59-20.93-.33-5.19-.53-11.18,6.39-11.56,6.37-.35,7.22,5.35,7.39,10.26.39,11.42.84,22.86.59,34.28-.23,10.6-3.4,13-13.9,12.49-11.94-.53-23.89-.82-35.84-1.21C1366.58,659.54,1362.19,657.59,1363,650.18Z"/><path class="cls-15" d="M226.62,1797.36q0,27.06,0,54.11c0,8.79.3,17.6-.23,26.35-.16,2.64-2.66,5.13-4.09,7.69-2-1.93-4.8-3.51-5.76-5.86-2.49-6-4.17-12.43-7.62-18.55-.33,6.84-.46,13.69-1.14,20.5-.19,1.88-2,3.6-3.12,5.39-1.13-1.53-3-2.94-3.3-4.62-4.62-24.86-9.15-49.74-13.31-74.69-.44-2.63,1.58-5.67,2.46-8.52,1.63,2.68,4.19,5.19,4.72,8.07,2.52,13.84,4.5,27.79,8,41.78l2.2-17.81,3-.49c5.63,9.83,5.06,22,10.13,34.2,1.16-21.93,2.1-41.75,3.39-61.54.17-2.54,2.16-5,3.31-7.45Z"/><path class="cls-15" d="M1557.93,1823.28v67c-5,2.56-7.76.63-7.76-5.64,0-26.92,0-53.83.23-80.74,0-2.25,1.57-4.48,3.47-6.7,11.21,20.6,15,43.33,23.26,64.82-.39-3.07-1.16-6.14-1.11-9.2.27-16.52.65-33,1.31-49.54.07-1.66,2.3-3.23,3.52-4.84.91,1.64,2.59,3.28,2.61,4.93.33,28.25.47,56.51.61,84.76,0,1-.36,2-2.35,3.82-1.52-2.62-3.56-5.08-4.46-7.9-5.89-18.5-11.52-37.09-17.27-55.64C1559.58,1827,1558.94,1825.75,1557.93,1823.28Z"/><path class="cls-15" d="M879.46,1820.27l-6.83,17.48-2.16.37-11.54-23.24c0,3.52-.07,5.35,0,7.18.83,17.83,1.82,35.66,2.38,53.5.07,2.23-2.1,4.52-3.23,6.79-1.26-2.16-3.48-4.26-3.62-6.49q-2.54-38.65-4.46-77.33c-.16-3.14.84-6.33,1.31-9.5l3.46-.37,15.9,37.38,12.42-35.76,2.37-.11c.7,2.12,2,4.23,2,6.37q.93,41.12,1.48,82.26c0,1.53-.85,3.07-2.52,4.56-6.22-20.3-4.77-41.17-5.63-61.82,0-.69.08-1.38.12-2.08Z"/><path class="cls-16" d="M1751.68,1796.7l15.78,37.28,12.53-35.8,2.45,0c.58,1.94,1.62,3.87,1.68,5.82.74,26.62,1.34,53.24,2,79.86,0,1.07.35,2.29-.05,3.17-1,2.13-2.31,4.11-3.5,6.15-1.22-2-3.42-3.93-3.51-6-.66-15.7-.93-31.42-1.27-47.13-.09-4,0-8-1-12.36l-8.51,20.43-13-26.62c1.05,20.83,2,39.91,3,59,.11,2.13.48,4.34.05,6.37-.25,1.2-1.78,2.87-2.84,2.94s-2.87-1.28-3.34-2.43a19.23,19.23,0,0,1-1.09-6.26c-1.32-24.74-2.63-49.48-3.78-74.23-.15-3.2.6-6.43.94-9.65Z"/><path class="cls-15" d="M1064.47,1122.29c-1.4-2.31-3.35-4.45-4.12-6.95-6.1-19.81-12-39.69-18-59.53-.11-.35-.78-.53-1.29-.86v67c-2.24-2.19-5.18-3.71-5.22-5.3-.66-28.76-1-57.53-1.3-86.3,0-.88.95-1.77,2.37-4.26,11.76,20.34,13.8,42.81,23.42,62.92q0-23.82,0-47.64c0-2.13-.46-4.4.12-6.36.69-2.33,2.28-4.39,3.48-6.56,1.14,2.35,3.19,4.68,3.25,7.06.2,8.25-.49,16.51-.48,24.76,0,17.85.3,35.7.46,53.55,0,2.52,0,5,0,7.55Z"/><path class="cls-15" d="M881.35,1071.71c3.15,8.08,6.57,14.13,7.77,20.6,1.48,8,1.28,16.42,1.42,24.67,0,1.55-1.78,3.12-2.74,4.68-1.07-1.54-2.92-3-3.06-4.64-.46-5.56-.07-11.19-.46-16.77-.53-7.6-2-14.91-8.79-21.27,0,8.74,0,16.06,0,23.37,0,2.39.41,4.88-.12,7.15-.41,1.78-2,3.29-3,4.92-1.31-1.64-3.57-3.18-3.77-5-1.37-12.43-2.43-24.9-3.34-37.37-1-14.33-2-28.67-2.69-43-.37-7.45,2.37-9.73,9-6.49,4.44,2.18,9.3,5.86,11.33,10.13C889.4,1046.5,889.07,1060.46,881.35,1071.71Zm-9.79-43.82,2.71,42.31C884.16,1058.35,883,1039.19,871.56,1027.88Z"/><path class="cls-16" d="M1721,1850.22c0,10.6.27,21.22-.18,31.8-.12,2.82-2.46,5.54-3.78,8.31-1.62-2.5-4.54-4.94-4.65-7.51-1.21-27.36-2-54.74-2.87-82.12-.33-9.9,2.79-12.26,10.91-6.88,4.06,2.69,7.45,7.54,9.32,12.15,5.5,13.54,3.66,26.16-4.48,38,8.94,5.84,9.07,15.58,10.28,24.63a112.35,112.35,0,0,1,.41,18.32c0,1.55-1.78,3-2.75,4.57-1.09-1.55-3-3-3.14-4.66-1-8.93-1.22-18-2.57-26.84-.57-3.75-3.27-7.17-5-10.74Zm-3.83-51.77,2.66,41.83C1730,1827.74,1728.44,1807.31,1717.19,1798.45Z"/><path class="cls-15" d="M1724.5,1067.37c0,9.92.13,17.35,0,24.78-.1,4.11,2.4,10.33-4.73,10.45-6.55.1-4.66-6-4.67-9.72-.07-20.49.18-41,.29-61.47,0-6.56,0-13.13,0-20.17,7.37-.27,13.2,2.66,16.36,9,7.2,14.57,7.17,29.1-2.14,43.28,7.69,5.88,9.14,14.57,9.94,23.4.55,6.08.72,12.22.69,18.33,0,1.47-1.48,2.92-2.28,4.38-1.23-1.36-3.38-2.62-3.53-4.09-.52-5-.19-10.1-.46-15.15C1733.49,1082.47,1731.65,1075,1724.5,1067.37Zm-3.22-49.17,2.41,41C1733.84,1049.66,1732.93,1028.31,1721.28,1018.2Z"/><path class="cls-16" d="M326.44,1093.9c.72,10.14,1.65,19.13,1.8,28.13,0,2.58-2.17,5.2-3.35,7.8-1.43-2.67-4-5.28-4.11-8-1.43-26.33-2.43-52.67-3.61-79-.34-7.65.89-8.67,7.92-5.63s11.4,8.67,13,16.14a52.4,52.4,0,0,1-2.37,31.37c-.87,2.16-.86,6,.49,7.49,10.75,11.62,7.7,26,8.18,39.54.05,1.46-2.76,3-4.24,4.54-1.27-1.7-3.47-3.31-3.63-5.11-.54-6.09-.19-12.25-.49-18.37C335.63,1104.29,333.39,1099.82,326.44,1093.9Zm-.21-9c10.34-13.34,8.31-35.42-2.54-40.42Z"/><path class="cls-15" d="M1479.92,1843.83c10,7.84,9.17,19.57,10.53,30.48a53.42,53.42,0,0,1,.06,12c-.19,1.86-1.84,3.58-2.83,5.36-1.06-1.84-2.8-3.58-3.05-5.52-1.19-9.18-1.64-18.46-3.08-27.6-.51-3.22-3.08-6.13-5.59-10.83-3.75,14.2,2.35,27.15-3.33,38.64l-3.13.28c-.78-2.71-2.13-5.4-2.26-8.15-1.21-26.3-2.24-52.61-3.24-78.92-.32-8.3,2.66-10.47,9.89-6.22a24.06,24.06,0,0,1,9.33,10.19C1489.36,1817.21,1488.76,1830.84,1479.92,1843.83Zm-8.32-45.93,2.55,42C1484.23,1829.28,1483.25,1809.06,1471.6,1797.9Z"/><path class="cls-16" d="M443.75,1093.18c0,10.59.23,19.76-.16,28.91-.1,2.35-2.15,4.61-3.3,6.91-1.34-2.2-3.74-4.34-3.85-6.6q-1.94-38.68-3.17-77.39c-.1-2.94,1.31-5.93,2-8.9,3.21.84,6.87,1,9.56,2.65,8.32,5.2,10.77,14.17,10.7,22.88-.07,8.94-2.75,17.86-4.57,28.43,6.9,5.83,7.54,16.52,8.17,27.15a132.38,132.38,0,0,1,.08,14.37c-.08,1.52-1.42,3-2.18,4.46-1.27-1.37-3.53-2.65-3.65-4.11-.51-6.09-.1-12.25-.54-18.35C452.33,1106.29,451,1099.16,443.75,1093.18Zm-3.3-49.88,2.54,40.87C453.32,1073.81,451.82,1051.19,440.44,1043.3Z"/><path class="cls-17" d="M941.92,1784.5c5.14,4.12,11.32,7.44,15.25,12.5,14.27,18.38,14.43,55.06,1,74-1.53,2.17-3,4.63-5.09,6.08-3.32,2.28-7.15,3.82-10.76,5.67-.93-3.65-2.6-7.29-2.66-11-.45-26-.6-52.1-.78-78.15,0-2.5.41-5,.64-7.49Zm5.54,10.43v78.83C966.48,1857,966.29,1813.07,947.45,1794.94Z"/><path class="cls-17" d="M292.23,1832.19c12.14,12.6,15.07,31.73,6.44,46.26-2.22,3.74-7.61,5.59-11.55,8.32-1.67-3.87-4.55-7.67-4.8-11.64-1.63-26.06-2.52-52.16-4.06-78.23-.31-5.21,2-7.18,6.16-8.65,5.07-1.8,8.74-.1,11.71,4.1,6.43,9.09,5.87,25.83-1.3,36.37C294.1,1829.78,293.28,1830.79,292.23,1832.19ZM288.86,1881c12.47-12.5,10.31-39.16-2.62-43.48Zm-4.36-87.23,2.19,33.38C297.19,1810.41,296.17,1794.55,284.5,1793.8Z"/><path class="cls-17" d="M1536.26,1070.45c-12.19,0-12.12,0-12.61,10.36-.39,8.23-.84,16.45-1.54,24.66-.13,1.47-1.62,2.81-2.48,4.22a50.1,50.1,0,0,1-4-4c-.39-.47-.07-1.54,0-2.34q2.17-37,4.36-74c.06-1.06-.1-2.3.39-3.14,1.64-2.8,3.54-5.46,5.34-8.18,2.29,2.06,5.87,3.72,6.64,6.23a333.85,333.85,0,0,1,9.19,35.37c2.55,13.56,3.95,27.35,5.53,41.07.28,2.44-1,5.05-1.5,7.58l-3.32-.25Zm-8.42-42.24-2.09.14-2.46,37.5,13.36-2.53Z"/><path class="cls-16" d="M1773.8,1069.95l-11.91,1.21c-.74,11.44-1.31,22.28-2.24,33.09-.16,1.86-1.84,3.6-2.83,5.39-1.18-1.76-3.45-3.56-3.37-5.26,1.17-25.24,2.6-50.46,4.12-75.68a20.7,20.7,0,0,1,2.09-7.61c1.85-3.79,4.89-4.21,7.47-.88,2.08,2.67,4.3,5.77,4.89,9,4.5,24.28,8.68,48.62,12.7,73,.31,1.87-1.36,4.08-2.11,6.12l-2.8-.23Zm-8-41-2.64.24-2,36.64,13-2.64Z"/><path class="cls-16" d="M1453.25,1107.59l-5.77-37.47-12,1c-.73,11.46-1.3,22.3-2.23,33.11-.16,1.86-1.87,3.58-2.86,5.36-1.17-1.77-3.42-3.59-3.34-5.3,1.17-25.24,2.45-50.47,4.28-75.67.27-3.65,3.54-7.08,5.42-10.61,2.81,3.22,7.28,6,8.15,9.71,4.16,17.55,7.46,35.31,10.8,53a191.92,191.92,0,0,1,2.59,20.56c.17,2.23-1.15,4.58-1.79,6.87ZM1439.36,1029l-2.63.24-2,36.66,13-2.63Z"/><path class="cls-16" d="M1524.22,1850.32l-11.84,1.09c-.74,11.43-1.35,22.75-2.33,34-.18,2.08-1.91,4-2.93,6-1.11-2-3.26-4.14-3.18-6.14,1-24.74,2.11-49.49,3.9-74.18.32-4.36,3.9-8.48,6-12.71,3,3.79,7.77,7.23,8.59,11.44,4.8,24.51,8.74,49.2,12.7,73.87.28,1.76-1.6,3.86-2.48,5.81-1.15-1.76-3-3.39-3.34-5.29C1527.44,1873.3,1526,1862.25,1524.22,1850.32Zm.36-6.37-8.67-35.37-2.38.34-2,37.07Z"/><path class="cls-16" d="M381.93,1042.48l-9.8,93.48-2.94.73c-1.59-3.22-4.14-6.31-4.6-9.68q-5-36.75-9.05-73.61c-.36-3.28,1.82-6.84,2.82-10.28,2,3.29,5.29,6.39,5.78,9.89,1.88,13.58,2.88,27.29,5.83,41.11l6.63-52.33Z"/><path class="cls-17" d="M1388.84,1012.27c5,4.06,10.89,7.37,14.69,12.31,14.21,18.52,14.48,53.38,1.14,72.33a50.85,50.85,0,0,1-7.9,8.91,8.66,8.66,0,0,1-6.25,2c-1-.15-2.13-3.43-2.19-5.33q-.73-25.89-1-51.79c-.15-12.15,0-24.31,0-36.47Zm5,87.46c19.4-16.7,18.62-63.11,0-76.49Z"/><path class="cls-17" d="M933.93,1102c0-22.89-.23-45.79.12-68.67.12-7.91,2.53-9,10.14-6.27s12.85,9.12,12.18,17.8c-.88,11.35-3.25,22.59-5.13,33.86-.25,1.49-1,3.51-2.18,4.13-13,7.06-7.67,19-8.34,29.48-.2,3.17-1.73,8.93-2.63,8.93-5.31,0-6.73-4-6.46-8.86.19-3.46,0-6.93,0-10.4Zm6.61-70.57v48.47c6.34-2.47,7.65-6.41,9.59-28.11C950.84,1043.88,951.31,1036.13,940.54,1031.39Z"/><path class="cls-17" d="M927.85,1839.31c-1.79,13-2.81,22.75-4.61,32.38-.94,5-3.41,9.78-9.69,10.11-6.49.34-9.61-4.1-11.55-9.27-6.18-16.45-5.18-33.58-3.54-50.54a99.2,99.2,0,0,1,5.7-23.94c1.19-3.29,5.59-5.43,8.53-8.09,2.52,2.81,6.57,5.27,7.3,8.49C923.3,1812.87,925.66,1827.5,927.85,1839.31Zm-15.15,37.42c10.82-10.4,10-66.78-.77-80C900.34,1814.09,900.58,1864.77,912.7,1876.73Z"/><path class="cls-15" d="M1666.34,1845.67c2.46-12.62,4.62-26,7.94-39.06.85-3.35,5.37-5.77,8.2-8.61,2.78,2.85,7,5.23,8.11,8.62,7.85,23.5,8.24,47.58,3.56,71.74-1.05,5.43-3.3,11.28-10.36,11.47s-10.61-5.14-11.9-10.95C1669.52,1868.3,1668.24,1857.48,1666.34,1845.67Zm16.25-41.47c-.95,1-1.76,1.47-2,2.15-8,23.24-9.36,46.84-3.23,70.68.76,2.95,3.41,5.41,5.31,8.29C1693.84,1874.46,1693.38,1821.63,1682.58,1804.2Z"/><path class="cls-17" d="M1701.91,1069.2c-1.5,10-2.25,20.11-4.87,29.75-1,3.65-6,8.14-9.67,8.55-3.12.35-7.27-4.15-10.14-7.26-1.83-2-2.56-5.28-3.08-8.11a136,136,0,0,1,2.83-63.26c.44-1.53.79-3.34,1.83-4.38,2.46-2.49,5.14-6.06,8-6.39,2.13-.24,6.22,3.59,6.91,6.26,2.85,11,4.91,22.26,6.88,33.49.64,3.62.1,7.44.1,11.18Zm-13.46-45.4c-10.91,14.77-13.68,54.18-6.93,71.2,1.11,2.81,4.07,4.88,6.17,7.3,1.63-2.58,4.55-5.09,4.67-7.74.74-15.64,1.42-31.32.88-47C1693,1039.63,1690.14,1031.74,1688.46,1023.8Z"/><path class="cls-15" d="M1104.22,1038.39c-.65.41-1.34,1.21-2,1.16-11.44-.89-12.2-.92-12.68,10.45-.69,16.45-.42,33-.05,49.42.09,4.11,1.8,8.32,3.46,12.19.78,1.83,3.18,3,4.84,4.42,1-1.63,2.61-3.13,3-4.9a103.81,103.81,0,0,0,2.43-14.14c.65-6.87,1.91-14.45-8.91-14.39-.42,0-.93-.52-1.25-.92a20.12,20.12,0,0,1-1.3-3c5.14,0,10-.92,14.07.4,2,.64,3.79,5.47,3.75,8.38-.12,8-1.29,15.9-2,23.85-.48,5.5-2,10.06-8.65,10.38s-11.06-3.08-12.84-8.78c-2.45-7.83-5.12-16-5.18-24.06a379.09,379.09,0,0,1,2.85-46.94c.42-3.56,5.29-8.13,9-9.33,3.44-1.1,8.13,1.71,12.27,2.8Z"/><path class="cls-16" d="M1826.06,1028.13c-1,.31-2,.93-2.86.82-10.18-1.16-11.52-.81-11.89,9.46-.62,17.51-.58,35.09.32,52.58.23,4.46,4.75,8.69,7.3,13,1.8-4.31,4.32-8.47,5.22-13,1.07-5.35.76-11,1-16l-13.25-5.13c13.77-5.16,19.61-1.66,19.2,9.54a147.73,147.73,0,0,1-2.28,22.19c-1.58,8.31-8.81,11.06-15.5,5.87a21.5,21.5,0,0,1-7.22-10c-5.77-19.21-4.73-39-3.2-58.64.41-5.24,4.38-10.79,8.05-15C1815.34,1018.77,1822.62,1021.1,1826.06,1028.13Z"/><path class="cls-17" d="M251,1798.79l1.46,33.06,16.09,2.31-.05,3.79-14.63.85v41.81c4.44-.42,7.59-1,10.71-.89,1.52.06,3,1.46,4.47,2.26-.83,1.45-1.31,3.5-2.56,4.25-8.69,5.24-18.79,0-19.27-9.91-1.24-25.46-2.21-50.94-3.66-76.4-.31-5.46,1.74-7.24,6.65-7.29,4.24,0,8.48-.48,12.71-.28,1.49.07,2.91,1.53,4.36,2.35-1.28,1.35-2.42,3.65-3.88,3.88C259.73,1799.17,256,1798.79,251,1798.79Z"/><path class="cls-17" d="M407.22,1081.18l15.21,2.37-.24,3.56L409,1088.19V1129l13.89,2.19-.15,3.85c-6.25.08-12.53.48-18.73,0-1.21-.1-3-3.64-3.07-5.66-1.17-25.27-2.26-50.55-2.84-75.83-.09-3.73,1.65-10,4-10.81,5.64-2,12.31-2.09,19.62,4.23l-14.53,1Z"/><path class="cls-15" d="M1859.1,1056.42l15.29,2.73-.32,2.68c-1.13.46-2.25,1.28-3.39,1.31-11.3.34-11.35.31-10.88,11.45.4,9.54.91,19.08,1.37,28.53l13.77,1.56,0,3.5c-6.31.5-12.62,1.27-18.92,1.21-1,0-2.71-3.75-2.79-5.82-1-26.61-1.82-53.22-2.75-79.83-.15-4.35,1.49-6.63,6-6.35,5.14.32,10.27.73,15.4,1.09l.12,3.64-12.83,1Z"/><path class="cls-15" d="M191,852.35c-10.73-1-15.94-7.78-20.44-15.34-12.81-21.52-19.44-44.77-18.68-69.86.09-2.9,3.06-5.72,4.69-8.57,1.48,2.94,4.1,5.81,4.25,8.82,1.36,26.34,7.81,50.84,23.79,72.38C187.32,843.36,188.79,847.83,191,852.35Z"/><path class="cls-17" d="M302.27,1047l-12.57,1.09v32.93l15,2.8-.41,3.39-13.19.93V1129l15.86,2.18c-6.32,6.46-12.52,4.76-17.63,3.89-1.88-.32-3.81-6.29-4-9.77-1.29-26-2.22-52.06-3-78.1-.05-1.69,2-4.89,3.1-4.91,5.57-.14,11.16.55,16.75,1Z"/><path class="cls-16" d="M806.36,1033c-1.94.9-3,1.73-4.24,1.91-11.14,1.71-13.39,4.11-13.14,15.3.21,9.59,4.36,17.27,11.85,23.34,12.6,10.22,14.76,23.28,9.86,38.1-2.44,7.39-14,13-21,9.94-1.14-.49-2.51-2.44-2.32-3.45a4.36,4.36,0,0,1,3.24-2.69c5.43-.13,11.55.17,12.8-6.47,1-5.46,1.3-11.81-.53-16.88-2.36-6.54-6.52-12.73-11-18.13-9-10.83-11.17-22.67-6.86-35.71C787.74,1029.92,798.65,1027,806.36,1033Z"/><path class="cls-17" d="M1004.23,1834.8H991.28v42l13.67,1.69c-4.37,6.46-10.4,4.67-15.56,4.23-1.53-.13-3.63-5.26-3.78-8.17-1.36-27.88-2.36-55.77-3.53-85.31l19.88,1.73v3.54l-12.28,1v33l15.22,2.9Z"/><path class="cls-17" d="M1481.62,1028.3c-2.38,0-4.22.52-5.44-.12-1.76-.93-3.08-2.71-4.59-4.12,1.45-1.47,2.91-4.22,4.34-4.2,8.47.12,16.95.81,25.4,1.53.93.08,2.62,2,2.46,2.32-.6,1.27-1.68,2.95-2.85,3.19a102.28,102.28,0,0,1-10.46,1.24c0,13.29-.12,26.23,0,39.17.12,9.83.8,19.66.77,29.49,0,2.12-2,4.23-3.07,6.34-1.33-2.16-3.7-4.26-3.81-6.48C1483.27,1074.11,1482.51,1051.55,1481.62,1028.3Z"/><path class="cls-17" d="M1026.75,1877.66l14.77,1.72v3.68c-6.52.36-13,1-19.55.79-.93,0-2.45-3.83-2.52-5.92-.39-12-.26-24-.61-36-.44-15.43-1.16-30.86-1.78-46.28-.05-1.33-.77-2.86-.32-3.93a43.16,43.16,0,0,1,3.7-6c1.21,1.91,3.41,3.77,3.49,5.73,1.1,25.83,1.92,51.66,2.78,77.5C1026.83,1871.88,1026.75,1874.73,1026.75,1877.66Z"/><path class="cls-17" d="M1599.5,1822.83c-.26,8,5.72,15.32,13.37,22.15a32.44,32.44,0,0,1,8.52,36.4c-2.91,7.43-9.06,10.13-16.24,10.74-1.62.14-3.46-2.26-5.2-3.48,1.68-1.24,3.56-3.74,5-3.51,8.49,1.31,10.92-4,12-10.5,1.84-11.39-1.59-20.89-10.75-28.25-12.19-9.8-15.29-22.55-11.16-37.2,2.08-7.36,14-13,20.89-10.16,1.21.51,1.92,2.21,2.87,3.36-1.83,1.24-3.59,3.43-5.51,3.58C1601.3,1806.87,1599.57,1808.44,1599.5,1822.83Z"/><path class="cls-17" d="M828.48,1069.11c2.47,12.63,4.51,26.57,8.1,40.09,2.31,8.71,6.51,8.94,12.5,2.36,1-1.08,2.93-1.28,4.43-1.89.1,2.15,1.08,5.59.15,6.23-3.52,2.43-8.07,6-11.49,5.29-4.23-.83-10-4.72-11.17-8.52-7.07-22-10.2-44.7-5.14-67.6,1.19-5.39,5.52-10.43,9.44-14.68,1.42-1.54,5.92-.69,8.88-.15,1,.19,1.65,2.7,2.46,4.16-1.34.52-3.08,1.85-4,1.42-6.48-3.13-8.5,1.53-9.5,5.9C831.24,1050.2,830.17,1058.89,828.48,1069.11Z"/><path class="cls-17" d="M1599.52,1042.56c-.22,7.89,5.56,15.33,13.35,22.09,10.47,9.08,13.28,22.19,8.65,34.79-2.59,7-8.3,9.56-14.75,10.35-2.1.26-4.57-2.52-6.88-3.91,1.95-1.2,3.83-3.29,5.86-3.45,8-.6,11.13-5.1,11.66-12.45.75-10.25-4-17.73-11.42-24.2-11.57-10.07-15.58-24.27-10.92-37.26,2.26-6.29,13.64-12.33,19.61-10.15,1.11.4,2.62,3,2.35,3.31-1.2,1.54-2.85,3.56-4.54,3.76C1601.26,1026.77,1599.58,1028.44,1599.52,1042.56Z"/><path class="cls-17" d="M976.12,1038.53c-4.06,0-6.1.51-7.66-.14s-3.72-2.35-3.89-3.79,1.72-4.65,2.69-4.64c9.25.09,18.51.63,27.74,1.29.84.06,2.37,2.1,2.15,2.75-.42,1.27-1.71,2.94-2.88,3.16-4.12.79-8.35,1-13.19,1.55l2.6,66.82c.05,1.33.46,2.78.07,4a32.41,32.41,0,0,1-2.64,5c-1.17-1.68-3.26-3.31-3.36-5.06q-1.15-19.92-1.59-39.89C975.94,1059.53,976.12,1049.45,976.12,1038.53Z"/><path class="cls-17" d="M260.52,1046c-.91,1.18-1.29,2.21-1.87,2.34-5.87,1.3-12,1.37-13.06,9.88-1.2,9.85.23,18.5,7.31,25.75,2.42,2.47,5.12,4.67,7.55,7.13,9.54,9.61,12.68,27.74,5.07,37.24-3.14,3.92-9.62,5.29-14.77,7.34-.74.29-2.55-2.12-3.86-3.28a18,18,0,0,1,3-3.21c4-2.58,10.87-4.4,11.5-7.54,1.33-6.62.47-14.23-1.56-20.8-1.35-4.37-6-8-9.65-11.34-10.19-9.33-14.08-23.46-9.55-36.31C243.54,1045,253.29,1041.19,260.52,1046Z"/><path class="cls-17" d="M1656.89,1803.92l-15.16,1.22v31.45l15.64,1.36.11,3.63-14.42,1.91c0,12.5,0,25.18,0,37.86a33.47,33.47,0,0,1-.13,6.36,3.64,3.64,0,0,1-2.58,2.34,4.08,4.08,0,0,1-3-2c-.58-1.06-.41-2.58-.45-3.89-.83-25.56-1.41-51.14-2.61-76.69-.35-7.43,2.36-9.57,9.16-8.68,4.46.58,9,.71,13.46,1Z"/><path class="cls-17" d="M913,1028.83c.64,4,1.82,8,1.83,12,.1,23.92-.06,47.84-.18,71.75a13.62,13.62,0,0,1-.77,5.46c-.65,1.43-2.3,2.41-3.51,3.58-1-1.37-2-2.73-3-4.12a1.52,1.52,0,0,1-.1-.78c-.44-27.11-1-54.21-1.15-81.32,0-2.34,2.35-4.7,3.61-7.06Z"/><path class="cls-17" d="M1641.29,1028c-2.66.14-4.76.84-6.23.17-1.85-.85-3.19-2.83-4.74-4.32,1.43-1.16,2.78-3.21,4.29-3.34a199.81,199.81,0,0,1,22.3-.82c1.87.05,3.66,2.65,5.49,4.08-1.68,1.24-3.2,3.07-5.07,3.57-2.75.72-5.75.48-9,.68,0,8.76-.19,17.17,0,25.58.4,14.37,1.16,28.72,1.5,43.09,0,1.91-1.53,3.85-2.35,5.78-1.17-1.93-3.27-3.81-3.37-5.79C1643,1074.07,1642.22,1051.47,1641.29,1028Z"/><path class="cls-17" d="M1431.76,1808.54c-4.42-1.18-11.13,2.72-10.63-7,10.71,2.32,21.56-2.58,31.82,1.32l.21,3.75-14.41,2c0,8.41-.19,17.06,0,25.7.4,14.89,1.18,29.78,1.5,44.67,0,1.83-1.75,3.71-2.69,5.57-1.07-1.8-3-3.55-3.08-5.39C1433.45,1855.78,1432.64,1832.39,1431.76,1808.54Z"/><path class="cls-17" d="M1016.78,1028.73c.7,3.7,2,7.4,2,11.1-.26,25.83-.76,51.65-1.36,77.48,0,1.45-1.57,2.86-2.41,4.3-1.35-1.08-3.28-1.9-3.9-3.3a16.79,16.79,0,0,1-1.26-6.9q.63-37.92,1.56-75.84c.06-2.32,1.32-4.61,2-6.92Z"/><path class="cls-11" d="M884.4,1761.67c-8.76-.35-15.64-6.54-15.46-13.9s6.83-13.73,13.9-13.51c9.51.3,16,6.79,15.5,15.42C897.87,1757.21,892.31,1762,884.4,1761.67Z"/><path class="cls-11" d="M771,1747.32c.08,6.72-6.14,12.18-14.07,12.34-7.51.15-13.12-4.95-13.17-12-.06-7.84,6-15.2,12.48-15.07C762.29,1732.74,771,1741.38,771,1747.32Z"/><path class="cls-12" d="M818.25,1761.78c-7.13.11-13.05-5.26-13.27-12-.22-6.93,5-13.49,10.78-13.51,8.88,0,16.59,6,16.48,12.83C832.14,1755.43,825.27,1761.68,818.25,1761.78Z"/><path class="cls-17" d="M1486.69,875.78c4.37,9.18,4.16,76.26-.49,83.52C1483.83,930.19,1485.06,903,1486.69,875.78Z"/><path class="cls-12" d="M301.59,694.76c11.68.39,18.15,7,19,19.18Z"/><path class="cls-17" d="M1481.12,923.64v28.08l-1.68.06V923.86Z"/><path class="cls-18" d="M1665.53,1594c-8.3,10.52-15.27,19.75-22.76,28.55-1.8,2.11-5.38,4-8,3.83-4.77-.26-7.1-7-3.93-11.37q14.5-20,29.59-39.6c3.69-4.81,8.88-4.78,13.73-2.08q21.28,11.84,42.27,24.21c4.85,2.86,4.82,7.05,2,11.68-3.2,5.32-7.51,3.29-11.12,1.41-8.87-4.61-17.44-9.78-27.48-15.5,0,5.26-.08,9.61,0,14,1.05,48.33-62.25,101.55-116.81,75.25-18.33-8.83-36.24-16.9-47.43-34.78-27-43.08-16.06-125.27,56-144.43a53.22,53.22,0,0,1,5.47-1.14c4.85-.75,8.78.82,9.9,5.78,1.28,5.67-3,7.3-7.43,8.27-24,5.22-42.33,18.3-54,40-13.92,25.87-12.29,52.38-1.84,78.75a39.67,39.67,0,0,0,11,15.51c38.15,31.39,83.6,37.1,117.62-8C1663.14,1630,1666.61,1613.65,1665.53,1594Z"/><path class="cls-9" d="M1598.15,1387.94c0-23,0-44.7,0-66.42q0-67.9,0-135.79c0-.53-.18-1.21.07-1.58,1.87-2.72,3.48-7.22,5.84-7.68,4.62-.9,5.75,3.21,5.75,7.44q-.09,49.93,0,99.85c0,35.1,0,70.19,0,107.28,5.28-6.07,9.13-11.35,13.9-15.6,2.18-1.95,6.16-1.89,9.32-2.74-.05,3.25,1.23,7.61-.39,9.57-6.92,8.39-14.59,16.19-22.2,24-4.68,4.8-9.53,3.88-13.87-.7-8-8.49-16.23-16.87-23.84-25.74-1.55-1.8-.84-5.53-1.18-8.38,2.88-.14,6.72-1.53,8.46-.19C1586,1375.93,1591.35,1381.55,1598.15,1387.94Z"/><path class="cls-14" d="M1174.05,1584.33c4.63,4,9.7,7.54,13.72,12.05,2,2.24,2.1,6.19,3.06,9.36-3.27.08-7.63,1.56-9.61,0-8.56-6.72-16.6-14.14-24.47-21.68-5.45-5.22-3.77-10.23,1.34-15,7.94-7.47,15.37-15.5,23.5-22.75,2-1.79,5.89-1.47,8.91-2.12,0,3.29,1.25,7.52-.31,9.71-4.24,5.93-9.68,11-14.29,16,16.17,0,32.52.26,48.87,0,50-.93,100.06-2.13,150.1-3a16.67,16.67,0,0,1,8.58,2.63c1.1.69,1.7,4.67.87,5.5-1.85,1.84-4.69,3.58-7.2,3.69-13.57.57-27.16.56-40.73.87q-80.63,1.84-161.26,3.76h-1.92Z"/><path class="cls-14" d="M1389.45,829.09c-32.71,0-65.67-.19-98.62.06-28.46.21-56.92.93-85.37,1.42-12,.2-23.92.28-35.88.6-4.93.13-8.92-1.44-9.15-6.6-.25-5.57,4.13-6.59,8.87-6.65,52.69-.68,105.38-1.51,158.07-2.11,21.28-.24,42.56,0,63.83,0l.8-2.11c-1.48-1.53-2.85-3.2-4.47-4.58-4.25-3.63-9.12-6.7-12.7-10.88-1.66-1.94-1.94-6.4-.85-8.83.6-1.34,6.47-2.21,8-.94q15.58,13,30.18,27.18c4.68,4.54,2.13,9.41-1.77,13.29-9,9-18,18.12-27.54,26.57-2,1.8-6.43.91-9.74,1.25,0-3.13-1.36-7.24.13-9.23C1378.24,840.78,1384.27,834.81,1389.45,829.09Z"/><path class="cls-19" d="M471.42,1566.56c36.59,0,71.67,0,106.75,0q46.72,0,93.44.08c4.85,0,10,.41,9.76,6.5-.23,6.3-5.75,5.69-10.34,5.68q-98.94-.14-197.89-.21a25.74,25.74,0,0,0-3.62.77l14.22,12.38c3.16,2.75,6.17,5.62,2.62,10-3.34,4.17-6.85,2.1-9.66-.45-8.08-7.31-16-14.82-23.78-22.44-4.81-4.7-3.86-9.55.69-13.87,8.48-8.06,16.88-16.22,25.77-23.82,1.84-1.57,5.63-.87,8.53-1.21,0,3.1,1.26,7.16-.24,9.12C483.21,1555,477.68,1560,471.42,1566.56Z"/><path class="cls-20" d="M452.15,964.18c-65.75,4.91-129.3.69-193.47.8-.3-2.71-.71-4.71-.71-6.72-.07-33.57-.17-67.15.06-100.72,0-2.47,1.92-6.49,3.85-7.15,36.34-12.45,59.06-36.08,62.69-75.14L449.9,764.6C449.94,831.32,441.85,897.48,452.15,964.18Z"/><path class="cls-21" d="M274.55,711c-2.28,5.06-5.54,9.94-6.49,15.23-.61,3.42,1.19,9.78,3.59,10.78,8,3.32,15.79,9.05,25.47,5.38,3.68-1.4,7.7-1.92,12.81-3.13l3,15.51c-8.33,0-15.64-1-22.53.29-6.21,1.14-12.84,3.67-17.7,7.57-5.27,4.24-5.8,11.12.11,16,6.93,5.72,8,12,5.78,20.49-2.37,8.91-1.13,17.6,8.67,22.28-11,14.58-36,21-64.85,16.35,18-5.61,14.52-23.1,21.14-34.79,1.73-3,2.26-6.75,3.68-10,.95-2.17,2.78-4,3.72-6.13,2.44-5.62,5.35-11.44.52-17.22-4.61-5.5-10.16-2.24-15.59-1.6-2.81.33-7.73-.41-8.35-2-1.17-3,.08-6.88.33-10.4l2.26-.4-6-5.18c3.29-7.47,9-14.57,8.68-21.35-.38-7.06-6.64-13.81-10.31-20.65,9.06-4.31,13.58-3.47,19.89,4.21,7.22,8.8,16.5,9.15,24.79,1.11,1.84-1.79,4.21-3,6.34-4.53Z"/><path class="cls-21" d="M181.07,756.85c14.67,3.2,22.8,13.21,29,25.13a10.15,10.15,0,0,1,.4,7.62,25.28,25.28,0,0,0,.29,21.44c3.35,7.53,4.91,15.85,7.2,23.65C194.91,827.54,172.59,780.66,181.07,756.85Z"/><path class="cls-22" d="M277.49,766.06l34.17-1.62c1.08,19.6-8,34-17.82,48.17l-2.79.53c-1.43-3.84-4.84-8.24-3.95-11.42,3.12-11.06,3.72-20.72-6.65-28.41C279.23,772.39,279.06,770.06,277.49,766.06Z"/><path class="cls-22" d="M216.8,720.66c1,1.69,1.7,3.88,3.17,5.24,5.81,5.38,4.52,9.83-1,14.5s-8.77,9.9-3.74,17.23c1.26,1.83.66,4.95.76,6-7-4.33-14.25-8.81-21.52-13.2-2.18-1.32-4.6-2.25-6.76-3.59-3.63-2.26-3.93-5.21-1.64-8.75,1.58-2.44,2.79-5.12,4.31-7.6,2.65-4.32,4.8-8.07,11.74-6.38C206.38,725.12,211.64,722,216.8,720.66Z"/><path class="cls-22" d="M243.82,779,225.6,826.33c-1.07-5.29-2.35-8.83-2.38-12.37-.06-8.33-7.69-16.32-1.58-24.75a21.67,21.67,0,0,1,8.3-6.56C233.64,781,237.88,780.47,243.82,779Z"/><path class="cls-22" d="M305.12,730c-10.95,8.09-18.77,1.46-26.79-1.29-.61-.21-.33-5.82.92-8.18,4.67-8.75,5.88-8.71,13-1.92C296.2,722.47,300.48,726,305.12,730Z"/><path class="cls-14" d="M685.39,489.14c-7.61,0-14.14,0-20.66,0-4.81,0-9.69-.42-10-6.5-.26-5.86,4.75-6.74,9-6.72,11.7.06,23.43.23,35.08,1.17,7.79.63,10.46,4.94,9.72,12.6-1.17,12.16-1.8,24.39-3.57,36.46-.44,3-4.35,5.52-6.66,8.25-2.15-2.64-5.86-5.11-6.16-7.94-.84-8.12-.3-16.38-.3-24.8-8.86,7.73-18.23,15.81-27.49,24q-43,38.09-86,76.27c-17,15.21-33.78,30.72-50.69,46.06-1.56,1.41-3.43,3.56-5.11,3.52-2.57-.07-6.55-1.14-7.28-2.89-.9-2.17,0-6.41,1.7-8.11,7.37-7.29,15.36-13.94,23.08-20.88C588.17,576.5,636.2,533.34,685.39,489.14Z"/><path class="cls-14" d="M772.07,817.42c-5.85-5-10.43-8.95-15.06-12.84-3.26-2.75-6.13-5.71-2.74-10.06,3.22-4.15,6.81-2.18,9.67.43,8.05,7.35,16,14.83,23.74,22.51,4.75,4.71,3.76,9.54-.87,13.89-8.53,8-16.89,16.22-25.78,23.82-1.78,1.52-5.58.66-8.45.9-.06-2.88-1.33-6.68,0-8.46,4.47-5.86,9.91-11,16.7-18.25-12,0-22.42,0-32.79,0-25.47.09-50.95.34-76.42.29-29.53-.06-59.06-.38-88.59-.58-1.33,0-2.67-.14-4-.06-4.59.29-8.75-1.31-8.08-6.16.3-2.16,5-5.07,7.9-5.26,9.81-.63,19.69-.17,29.55-.17Z"/><path class="cls-23" d="M1047.25,690.95c-21,13-24.36,34.35-26.24,56.18-2.11,24.55,2.09,48.23,10.22,71.42,11.11,31.68,15.8,64.14,8.8,97.44-5,24-15.32,45.79-29.32,66.57-16.85-9-34.61-6.58-52.41-5.68-32.2,1.63-64.58,3.82-95.11-10.37-2.15-1-4.27-2-6.17-2.95,6.27-7.69,12.62-15,18.41-22.7,13.88-18.52,16.46-39.81,15.19-62.21-1.6-28.17-11.88-53.92-21.21-80-4-11.27-8.48-22.4-12.39-33.71-11.34-32.79-1.61-60.68,20.6-85.33,1.58-1.75,5.75-2.23,8.43-1.74,29.41,5.37,58.86,9.85,88.92,8.17,15.17-.85,30.36-2,45.53-1.75,9.08.13,18.13,2.6,27.19,4Zm-95.41,73.22,0,.88c10.86-.66,21.74-1.2,32.59-2,4.45-.34,8.7-1.5,8.1-7.5-.64-6.38-4.66-7.07-10.21-6.84-14,.56-28.12.82-42.18.59-14.62-.25-29.21-1.5-43.83-1.68-3.66,0-7.79,1.67-10.91,3.75-3.9,2.61-3.2,6,1.28,7.63a28.12,28.12,0,0,0,7.79,1.41C913.62,761.7,932.73,762.92,951.84,764.17Zm21.22-27.7.43-1.64c3.46,0,7.18.79,10.3-.23,2.85-.94,6.83-3.68,7-5.93.23-2.44-3.1-5.45-5.35-7.77-.88-.91-3-.6-4.58-.86-17.25-2.91-34.5-5.79-51.74-8.75-11-1.89-21.87-4.39-32.91-5.5-2.59-.26-5.63,4-8.46,6.15,2.78,2.63,5.15,6.65,8.42,7.62,8.09,2.4,16.64,3.2,24.91,5C938.48,728.4,955.76,732.49,973.07,736.47Zm-40.89,58.88c12.25-1.27,29.19-2.65,46-5.12,2.82-.42,5-5.57,7.4-8.53-3.2-1.65-6.47-4.83-9.59-4.69-20.67.94-41.32,2.56-62,4-5.83.42-11.86.34-17.35,2-2.76.83-4.52,5-6.72,7.7,2.67,1.54,5.27,4.24,8,4.4C907.73,795.67,917.58,795.34,932.18,795.34Zm10.64,23.58v.21c-10.39,0-20.78,0-31.17,0-4.7,0-9.9,0-10.29,6.11-.41,6.38,4.63,7.78,9.8,7.81q31.57.19,63.14.13c4.85,0,10-1.33,10-6.88.06-6-5-7.4-10.32-7.37C963.6,819,953.21,818.93,942.82,818.93Zm2.45,61.81c-8.14,1.41-18.44,2.65-28.39,5.25-3,.78-5,5.36-7.46,8.2,3.23,1.24,6.48,3.59,9.68,3.51,9.54-.24,19.06-2.14,28.58-2.07,10.59.08,21.17,2.12,31.76,2.21,2.82,0,5.67-4,8.51-6.13-2.39-2.3-4.51-6.16-7.22-6.63C969.77,883.15,958.62,882.27,945.27,880.74Zm2.07-13.32c9.29,0,18.58-.07,27.86,0,5.35.06,8.8-1.72,8.62-7.71s-3.83-7.59-9-7.5c-7.69.14-15.39.2-23.08.3-10.08.12-20.16.17-30.24.38-5.43.11-9.44,2.44-9.53,8.37-.09,6.27,5,6,9.16,6.07C929.83,867.55,938.59,867.42,947.34,867.42Z"/><path class="cls-18" d="M1037.16,760.34c.83-15.6.75-30.3,7.82-43.57a32.87,32.87,0,0,1,9.64-11.25c6.43-4.49,14.48-.49,15.76,7,3,17.85-11.14,41.61-28.24,47.24C1040.95,760.17,1039.61,760.08,1037.16,760.34Z"/><path class="cls-24" d="M1504.07,746.75c62.07,19.28,123.26,29.09,185.33,0,.18,2.82.47,5.28.47,7.74q-.14,93.14-.25,186.27c0,4.47-1.59,6.81-5.07,9.67C1646,982.12,1601.88,975,1558,968.82c-19-2.7-36.58-9.71-50.48-23.63-2.47-2.48-4.69-6.6-4.69-10,.06-61.29.48-122.58.84-183.86C1503.69,750.06,1503.9,748.76,1504.07,746.75Z"/><path class="cls-23" d="M1548.84,704.28c41.77-11,82.8-4.51,123.63,5.41a39.93,39.93,0,0,1,12.16,5.81c7.2,4.77,7.69,11.91.61,16.85a71.56,71.56,0,0,1-19.13,9.6c-32.16,10.12-64.84,14.07-98.34,7.13-8.82-1.83-18-1.79-26.82-3.73a319,319,0,0,1-33.57-9.42c-6-2-7.36-10.15-2.45-14.37,3.88-3.34,9-5.28,13.5-7.84l-.06,2.88-8.61,12.22c4.37,3.07,8.34,7.39,13.19,9,8.55,2.75,17.61,4,26.51,5.51,2,.35,4.25-.55,6.38-.88-13.63-7.76-30.36-4.79-43.35-15.84,8.58-5.18,17.17-9.77,26.27-12.86,8.85-3,18.23-4.45,27.37-6.58l-.66-3.11-16.73,2.18Z"/><path class="cls-25" d="M1548.84,704.28q0,1-.09,1.94l-30.39,10.39.06-2.88Z"/><path class="cls-20" d="M993.15,131.17c-10.45,25.34-19.88,48.7-29.87,71.81-1.12,2.59-5.34,5.43-8.15,5.46-26.89.28-53.78,0-80.67-.17-7.66,0-9-1.62-6.43-8.29,8.2-21,16.69-42,24.88-63,2.36-6.07,5.61-7.67,12.58-7.07,16.13,1.38,32.41,1.06,48.63,1.25C966.55,131.29,979,131.17,993.15,131.17Z"/><path class="cls-25" d="M830.09,71.15c13.53-.9,27.61-1.71,41.66-2.82,7.31-.58,10.64,2.52,11.7,9.73,2.66,18-.32,19.7,23.73,19.85,10.13.07,20.26-.36,30.39-.44,14.06-.11,16.19,2.56,13.82,17.15-16.13,0-32.35.81-48.42-.35-7.65-.55-13.25-.06-16.39,7.2q-10.77,24.87-21,50c-2.77,6.76-4.91,13.78-8.15,23-8.19-21.65-10.25-42.22-14.27-62.35C839,111.78,834.48,91.59,830.09,71.15Z"/><path class="cls-26" d="M143,1500.76c19.63-24.51,45.33-39.09,75.72-45.6,65.74-14.09,132.92,23.37,155.64,86.61.89,2.48,1.35,5.12,2,7.68-5-.47-10-.9-15-1.41q-40.93-4.18-81.85-8.4c-14.29-9.21-29.67-13.07-46.46-9-26.18,6.34-41.7,26.62-44.83,58.18-1.66-3-3.39-6-5-9.09Q163.12,1540.26,143,1500.76Z"/><path class="cls-22" d="M143,1500.76q20.13,39.48,40.27,79c1.57,3.07,3.3,6.06,5,9.09.24,2.37.44,4.75.71,7.12,3.26,28.3,22.91,49.08,50,53.16,12.3,1.85,23.5-2,34.74-5.9-1.16,2.45-2,5.13-3.54,7.32q-25.62,36.42-51.44,72.71c-56.3-11.11-99.32-58-106.9-115.32-5.2-39.33,4.93-74,28.87-105.15A14.25,14.25,0,0,1,143,1500.76Z"/><path class="cls-27" d="M218.67,1723.23q25.74-36.34,51.44-72.71c1.54-2.19,2.38-4.87,3.54-7.32l-.13,0,2.54-1.71c35.61-24.49,36.9-76,3.48-101.88q40.93,4.2,81.85,8.4c5,.51,10,.94,15,1.41,12.26,41.19,7.14,80.25-16.69,115.84C327.25,1713.73,275.41,1733.35,218.67,1723.23Z"/><path class="cls-28" d="M879.46,1820.27l1.49-.82c0,.69-.08,1.38-.12,2.08Z"/><path class="cls-3" d="M1174.05,1584.33l-.87-1.08h1.92C1174.77,1583.61,1174.42,1584,1174.05,1584.33Z"/><path class="cls-12" d="M951.84,764.17c-19.11-1.25-38.22-2.47-57.33-3.79a28.12,28.12,0,0,1-7.79-1.41c-4.48-1.67-5.19-5-1.28-7.63,3.12-2.08,7.25-3.8,10.91-3.75,14.61.18,29.21,1.43,43.83,1.68,14.05.24,28.13,0,42.18-.59,5.56-.22,9.57.46,10.21,6.84.6,6-3.65,7.16-8.1,7.5-10.85.83-21.73,1.37-32.59,2Z"/><path class="cls-11" d="M973.07,736.47c-17.3-4-34.59-8.06-51.92-11.89-8.28-1.83-16.83-2.62-24.91-5-3.27-1-5.64-5-8.42-7.62,2.83-2.17,5.87-6.41,8.46-6.15,11,1.11,21.94,3.61,32.91,5.5,17.24,3,34.49,5.84,51.74,8.75,1.56.26,3.7,0,4.58.86,2.24,2.32,5.58,5.33,5.35,7.77-.21,2.25-4.2,5-7,5.93-3.12,1-6.84.23-10.3.23Z"/><path class="cls-12" d="M932.18,795.34c-14.59,0-24.45.33-34.25-.21-2.74-.15-5.34-2.86-8-4.4,2.21-2.67,4-6.86,6.72-7.7,5.49-1.65,11.52-1.57,17.35-2,20.65-1.48,41.29-3.1,62-4,3.12-.14,6.39,3,9.59,4.69-2.45,3-4.57,8.11-7.4,8.53C961.37,792.7,944.43,794.08,932.18,795.34Z"/><path class="cls-12" d="M942.82,818.93c10.39,0,20.78,0,31.17,0,5.31,0,10.38,1.39,10.32,7.37-.05,5.56-5.16,6.88-10,6.88q-31.57,0-63.14-.13c-5.17,0-10.21-1.43-9.8-7.81.39-6.08,5.58-6.12,10.29-6.11,10.39,0,20.78,0,31.17,0Z"/><path class="cls-12" d="M945.27,880.74c13.35,1.53,24.5,2.41,35.46,4.34,2.71.48,4.83,4.33,7.22,6.63-2.84,2.15-5.69,6.15-8.51,6.13-10.59-.09-21.17-2.12-31.76-2.21-9.52-.07-19,1.83-28.58,2.07-3.19.08-6.45-2.27-9.68-3.51,2.46-2.84,4.46-7.41,7.46-8.2C926.83,883.38,937.13,882.15,945.27,880.74Z"/><path class="cls-9" d="M947.34,867.42c-8.76,0-17.52.13-26.27-.06-4.16-.09-9.25.19-9.16-6.07.09-5.93,4.1-8.26,9.53-8.37,10.08-.21,20.16-.26,30.24-.38,7.69-.09,15.39-.15,23.08-.3,5.21-.1,8.86,1.59,9,7.5s-3.27,7.77-8.62,7.71C965.92,867.34,956.63,867.42,947.34,867.42Z"/><path class="cls-17" d="M1518.35,716.61l30.39-10.39,16.73-2.18.66,3.11c-9.15,2.13-18.52,3.58-27.37,6.58-9.1,3.08-17.69,7.68-26.27,12.86,13,11,29.71,8.08,43.35,15.84-2.13.33-4.36,1.23-6.38.88-8.9-1.55-18-2.76-26.51-5.51-4.85-1.56-8.82-5.88-13.19-9Z"/><path class="cls-20" d="M279.54,1539.64c33.43,25.85,32.13,77.39-3.48,101.88l-2.54,1.71.13,0c-11.25,3.94-22.45,7.76-34.74,5.9-27-4.08-46.69-24.87-50-53.16-.27-2.37-.48-4.75-.71-7.12,3.14-31.57,18.66-51.84,44.83-58.18C249.86,1526.57,265.25,1530.43,279.54,1539.64Zm-76.68,48.67c0,25.95,18.82,46.29,42.85,46.29,24.42,0,43.81-20.87,43.46-46.79-.32-24.38-19.81-44.05-43.57-44C221.68,1543.94,202.86,1563.5,202.85,1588.31Z"/><path class="cls-22" d="M273.52,1643.23l2.54-1.71Z"/><path class="cls-29" d="M202.85,1588.31c0-24.8,18.82-44.37,42.75-44.46,23.75-.09,43.24,19.58,43.57,44,.34,25.92-19,46.8-43.46,46.79C221.67,1634.59,202.84,1614.25,202.85,1588.31Z"/></g></svg>