<svg id="PANEl_2" data-name="PANEl 2" xmlns="http://www.w3.org/2000/svg" viewBox="0 0 1200 1200"><defs><style>.cls-1{fill:#fad509;}.cls-2{fill:#2f819b;}.cls-3{fill:#31819b;}.cls-4{fill:#35849d;}.cls-5{fill:#32829c;}.cls-6{fill:#33839c;}.cls-7{fill:#37859e;}.cls-8{fill:#3a879f;}.cls-9{fill:#2d7f9a;}.cls-10{fill:#b3ebfb;}.cls-11{fill:#b5ecfc;}.cls-12{fill:#2f809a;}.cls-13{fill:#d0f0f9;}.cls-14{fill:#f9fbfb;}.cls-15{fill:#b2eafb;}.cls-16{fill:#7dbdd0;}.cls-17{fill:#f6f9fa;}.cls-18{fill:#b3eafa;}.cls-19{fill:#aee8f9;}.cls-20{fill:#f1f7f8;}.cls-21{fill:#e4f0f4;}.cls-22{fill:#fefefe;}.cls-23{fill:#2b7f99;}.cls-24{fill:#83c3d6;}.cls-25{fill:#f4f8f9;}.cls-26{fill:#b2ebfc;}.cls-27{fill:#79bace;}</style></defs><title>PANEL 02</title><g id="LETTERS"><path class="cls-1" d="M399.16,778.69c7.81-.32,15.62-.9,23.43-.81,2.91,0,5.81,1.63,9.07,2.63-13,11.55-28.47,9.49-42.83,11.17-42.27,4.95-84.6,9.4-126.9,14-3.27.36-6.54.72-9.82.91-3.84.22-7.22-.9-7.65-5.23s2.85-6,6.6-6.43c17-2.08,34.07-4.24,51.14-6.1,30.5-3.32,61-6.45,91.54-9.67Z"/><path class="cls-2" d="M267.29,312.42C285,323.12,285.83,347.94,279.41,363a4.26,4.26,0,0,1-1.1,1.87c-3.49,2.37-7,6.43-10.6,6.51-5,.12-5.28-5.68-5.9-9.76-3.65-24.2-7.16-48.43-10.78-72.64-.65-4.33-1-8.83-2.46-12.9-1.89-5.23-.2-8.18,4.31-10.53,5.51-2.87,10.39-2.59,13.9,1.76a30.71,30.71,0,0,1,6.63,24.67C272.31,298.86,269.43,305.5,267.29,312.42Zm2.1,52.39c11.35-10.4,7.08-43.55-7.69-46.42Zm-8.49-57.3c6.84-11.43,7.84-22.52,2.24-33.81-.84-1.69-3.81-2.33-5.8-3.46-.51,2-1.68,4.13-1.41,6C257.33,286.39,259.1,296.44,260.9,307.51Z"/><path class="cls-3" d="M324.94,359.61a48,48,0,0,0,0-6.47c-2.26-16.46-4.73-32.9-6.92-49.37-1.61-12.11-3-24.25-4.18-36.4-.13-1.27,1.26-3.26,2.47-3.89.71-.37,3.17,1,3.63,2.11a32.88,32.88,0,0,1,2.15,8.43c3.31,25.53,6.47,51.08,9.79,76.6,1.14,8.79-.57,13.58-5.93,15.23-5.17,1.6-10.06-1.38-12.51-10.17-4.25-15.26-7.59-30.8-10.82-46.32-2.71-13-4.71-26.24-7-39.36-.48-2.73-1.32-6.18,2.45-6.46,1.43-.11,4.16,3.18,4.57,5.26,5,25.25,9.5,50.58,14.47,75.83,1,5.3,3.41,10.35,5.16,15.51Z"/><path class="cls-4" d="M399.16,778.69l-5.43.51c-.24-2.5-.65-5-.69-7.49-.18-10.78-.24-21.57-.39-32.35,0-2-.31-3.9-.49-6h-9.33c0,9.23,0,18.29,0,27.34,0,4.57.27,9.15,0,13.7-.09,1.41-1.66,2.72-2.54,4.07-1.2-1.34-3.24-2.56-3.43-4-.5-4-.23-8-.23-12,0-25,0-50.07.16-75.11,0-1.58,1.94-3.14,3-4.71,1.06,1.66,3,3.32,3,5,.1,11-.23,21.93-.4,32.9,0,2.14,0,4.29,0,6.63h10c0-13.31,0-26.25,0-39.2,0-1.28-.32-2.7.14-3.8s1.89-2.86,2.59-2.73c1.27.25,2.42,1.57,3.39,2.66.38.42.15,1.41.15,2.14Q398.9,732.41,399.16,778.69Z"/><path class="cls-5" d="M326.29,930.09a30.4,30.4,0,0,0,.8-5.54c-.56-15.16-1.35-30.3-1.85-45.46-.34-10.39-.37-20.79-.35-31.19,0-1.12,1.37-3.2,2-3.15,1.31.11,3.17,1,3.65,2.1a17.3,17.3,0,0,1,1.16,6.4q.95,34.79,1.72,69.58c.05,2.35.46,5.16-.62,7-1.43,2.38-4,5.11-6.41,5.55-2.1.38-5.94-1.64-6.92-3.63A43.67,43.67,0,0,1,315,917.23c-2.39-23.07-4.37-46.19-6.25-69.31-.13-1.65,1.67-3.46,2.57-5.2,1.28,1.67,3.52,3.26,3.68,5,1.61,18.2,2.73,36.44,4.31,54.63.65,7.44,2,14.83,3.25,22.21.34,2,1.51,3.82,2.3,5.72Z"/><path class="cls-6" d="M339.22,458.12v54c-2.77.62-4.58-.19-4.63-4-.31-22.46-.73-44.91-1-67.37,0-1.37.88-2.75,2.17-4.15,9.32,16.43,11.81,35,18.62,52.2,0-7.78-.05-15.56,0-23.34s.11-15.71.51-23.55c.08-1.51,1.74-2.95,2.68-4.42.83,1.5,2.35,3,2.37,4.51.36,21.91.53,43.82.68,65.73a10.12,10.12,0,0,1-1.76,5.73C349.73,496.09,345.56,477.28,339.22,458.12Z"/><path class="cls-3" d="M282.47,900.87c-3.7-.7-6.31-.89-8.66-1.78-1.16-.44-1.82-2.19-2.71-3.35,1.16-.68,2.34-2,3.46-1.92,3.44.17,7.07.33,10.2,1.57,1.58.62,3.23,3.57,3.19,5.42-.19,8.36-.81,16.73-1.6,25.06-.47,5-2.06,9.27-8.25,9.79a12.22,12.22,0,0,1-12.53-7.78c-1.85-5.11-4-10.54-4-15.82,0-16.55.92-33.11,1.73-49.66a22.23,22.23,0,0,1,2.41-7.79,9.62,9.62,0,0,1,15.39-3.22c1,.88,1.28,2.62,1.89,4-1.59.25-3.68,1.26-4.7.61-5.45-3.49-7.81-.83-8.7,4.42-3.4,20.1-4.31,40.25-.11,60.39a8.31,8.31,0,0,0,1.21,3.6c1.76,2.08,3.85,3.89,5.81,5.8,1.25-2.06,3.31-4,3.62-6.19C281.24,916.46,281.72,908.84,282.47,900.87Z"/><path class="cls-6" d="M324.83,635.83l-4.78-31.11-9.66,1c-.65,9.43-1.19,18.65-2,27.86-.12,1.34-1.52,2.57-2.32,3.85-1-1.3-3-2.66-2.9-3.91,1.18-21.87,2.51-43.73,4.14-65.57.16-2.1,2.55-4,3.9-6,1.88,1.56,4.73,2.75,5.48,4.74a114.26,114.26,0,0,1,5.9,19.87c2.56,14.37,4.5,28.85,6.43,43.32.28,2.09-.92,4.37-1.44,6.57Zm-11.5-65-1.89.15L309.79,601l10.5-1.65Z"/><path class="cls-4" d="M295,488.07c0-5.17.13-10.35,0-15.51-.51-17.33-1.16-34.65-1.58-52,0-1.21,1.36-2.45,2.09-3.68.95.93,2.41,1.7,2.74,2.82a25.46,25.46,0,0,1,.76,6.48q.75,26.55,1.39,53.11c.06,2.55.76,5.44-.18,7.58-1.1,2.51-3.37,5.57-5.69,6.15-1.75.44-5.85-2.25-6.37-4.22a173.87,173.87,0,0,1-4.86-25.13c-1.53-13.78-2.32-27.65-3.41-41.48a8.57,8.57,0,0,1-.05-3.26,15.44,15.44,0,0,1,2.1-3.26c1,1,2.86,2,3,3.14.61,4.7.58,9.47,1,14.19,1.47,15.81,3,31.61,4.63,47.4.29,2.75,1.42,5.41,2.16,8.11Z"/><path class="cls-4" d="M433.37,432.49c4.64,3.86,10.25,6.55,12.79,11,10.48,18.29,12.79,37.45,2.17,56.67a43.45,43.45,0,0,1-8.74,10.4c-3.25,3-6.08,1.82-6.19-2.47-.64-24.23-1.07-48.47-1.55-72.7C431.84,435.07,432.16,434.75,433.37,432.49Zm4.57,9v63.28C453.75,492.14,453.35,455.36,437.93,441.48Z"/><path class="cls-5" d="M350.78,272.08c-2.71.49-5.24,1.38-7.71,1.22-1.31-.09-2.51-2-3.76-3.08,1-1.1,2-3,3.15-3.18q14.06-2,28.22-3.38c1.2-.12,2.57,1.41,3.85,2.17-.95,1.12-1.72,2.94-2.88,3.24-4.2,1.08-8.53,1.66-13.56,2.55l4.47,31.74c2.14,15.19,4.38,30.37,6.27,45.59.19,1.54-1.7,3.34-2.62,5-1.39-1.46-3.79-2.78-4-4.41-3.65-24.75-7-49.54-10.48-74.31A22.36,22.36,0,0,0,350.78,272.08Z"/><path class="cls-5" d="M320.91,690.43c-3.63,6.24-9.47.76-13.2,3.13v33.13c3.67.19,6.73.05,9.65.62,1.81.36,3.42,1.8,5.11,2.75-1.64.88-3.21,2.26-4.94,2.52a54.34,54.34,0,0,1-8.26.11v39.47c3.68,0,6.39-.32,9,.11,1.71.28,3.24,1.63,4.85,2.5-1.47,1-2.93,2-4.41,3-.13.09-.36,0-.54,0-14.21-.12-14.17,3.42-14.87-13-.94-22.27-1.72-44.55-2.58-66.82a55.79,55.79,0,0,1-.37-6.54c.1-1.21,1-3.28,1.76-3.37C308.36,687.24,314.71,686.51,320.91,690.43Z"/><path class="cls-4" d="M266.15,460.16c-.94,7.38-1.55,14.83-2.94,22.12-.89,4.68-2.82,9.54-8.81,9.6-5.73.06-8.16-4.42-9.71-9-4.08-12-4.05-24.44-2.56-36.78a128.18,128.18,0,0,1,5.2-22.78c.75-2.38,4.19-5.43,6.37-5.4s5.16,3.21,6.15,5.66C264.51,435.27,265.87,447.56,266.15,460.16ZM255,422.45l-3.08.17c-1.54,7.61-3.65,15.16-4.49,22.85-1.3,12-1.89,24.12,2.14,35.8.77,2.25,3.23,3.91,4.91,5.85,1.3-2,3.63-4,3.74-6.08.68-12.7,1.4-25.45,1-38.15C258.93,436,256.44,429.26,255,422.45Z"/><path class="cls-5" d="M370.35,877.09c1-8.09,1.77-15.14,2.76-22.15.35-2.46-.32-6.4,3.89-5.56,1.13.23,2.36,4.06,2.16,6.1-1.75,17.4-3.89,34.77-5.77,52.16-.86,8-1.27,16-2.23,24-.18,1.47-2,2.74-3.1,4.1-1-1.64-2.87-3.35-2.76-4.92.84-12.19,2.26-24.34,3.06-36.54a18.3,18.3,0,0,0-1.87-9.83c-5-8.67-10.75-16.88-15.92-25.45-.82-1.35-.12-3.62-.12-5.46,1.65.59,4,.67,4.84,1.84C360.33,862.2,365,869.29,370.35,877.09Z"/><path class="cls-6" d="M333.55,726c1.39-8.61,2.44-17.29,4.28-25.8,1.16-5.34,4.27-10,10.22-11,2.49-.41,5.35.41,7.79,1.33.87.33,1,2.61,1.46,4-1.44.41-3.35,1.61-4.23,1.09-4.74-2.82-6.72,0-8.28,3.67-4.92,11.49-4.46,23.66-3.6,35.65.68,9.42,2.79,18.75,4.4,28.1a16.24,16.24,0,0,0,1.93,5.09c3,5.32,7,5.91,11.37,1.73,1.72-1.65,3.55-4.22,5.65-1.41.76,1-.37,4.47-1.67,5.81-7.2,7.38-18.18,4.71-21.76-5.58C336.32,755,334.56,740.72,333.55,726Z"/><path class="cls-3" d="M265.33,698.12c-2.53.2-4.6.75-6.47.36-1.21-.25-2.14-1.88-3.19-2.89,1.11-.91,2.18-2.55,3.33-2.6q11.72-.57,23.47-.48c1.48,0,2.95,1.35,4.42,2.07-1.26,1-2.41,2.69-3.8,2.92a85.61,85.61,0,0,1-10.09.64c0,9.5-.19,18.89,0,28.26.34,13.49,1.11,27,1.39,40.47,0,1.53-1.94,3.09-3,4.64-1-1.58-2.84-3.12-2.91-4.74-1-21.87-1.77-43.75-2.62-65.62A22.15,22.15,0,0,0,265.33,698.12Z"/><path class="cls-7" d="M420.24,441.12l-10.46,1V469.5c3.42.27,6.16.23,8.76.81,1.26.28,2.26,1.73,3.38,2.64-1.13.63-2.22,1.68-3.41,1.81a67.37,67.37,0,0,1-7.53.09v33c3.39,0,5.92-.26,8.36.12,1.1.17,2,1.58,3,2.42-.94.7-1.83,1.9-2.85,2-3.07.36-6.37,1-9.22.15-1.75-.49-3.77-3.25-4-5.21-.83-6.5-1-13.09-1.27-19.66q-.89-23.52-1.53-47c0-1.16.94-3.27,1.66-3.36,5.16-.7,10.42-1.25,15,2Z"/><path class="cls-7" d="M389.46,441.14l-10.56.92v27.38a87.87,87.87,0,0,1,9.54.91c1,.21,1.82,1.76,2.72,2.7-1,.6-1.92,1.63-2.95,1.73-2.69.25-5.42.08-7.94.08v33a77.61,77.61,0,0,1,8.44.1c1,.12,1.91,1.3,2.86,2-1,.85-1.82,2.25-2.9,2.45-2.3.42-4.75,0-7.09.33-4.3.59-6.06-1.34-6.24-5.43-.28-6.2-.8-12.38-1-18.58q-.91-24.06-1.58-48.13c0-1.14,1-3.23,1.74-3.32,5.13-.62,10.39-1.26,14.9,2.1Z"/><path class="cls-6" d="M225.43,444c.95-7.09,1.64-13.35,2.73-19.54.24-1.36,1.86-2.48,2.84-3.71.69,1.47,2.09,3,2,4.41q-3,31.59-6.54,63.13c-.2,1.78-1.83,3.41-2.8,5.1-.75-1.94-2.25-3.92-2.14-5.81.51-8.74.93-17.55,2.42-26.15,1.19-6.9-1.7-12.11-4.9-17.38-3-5-6.6-9.62-9.69-14.56-.78-1.24-.61-3.07-.88-4.63,1.6.52,3.86.53,4.7,1.63C217.26,432,221,437.66,225.43,444Z"/><path class="cls-5" d="M427.72,929.63c-2.53,1.73-4,3.15-5.84,3.77-.61.21-1.92-1.6-2.92-2.49,1.34-1.45,2.49-3.25,4.13-4.18C423.68,926.4,425.45,928.15,427.72,929.63Z"/><path class="cls-6" d="M396.74,935c-1.65-2.06-3.53-3.63-3.26-4.23a9,9,0,0,1,3.75-3.95c.51-.28,3.28,2,3.13,2.42C399.74,931,398.39,932.5,396.74,935Z"/><path class="cls-8" d="M448.68,925.14c1.52,2.25,3.27,4.17,3,4.55a14.19,14.19,0,0,1-4.63,3.75c-.29.16-2.69-2.24-2.47-2.73C445.35,929,446.83,927.52,448.68,925.14Z"/></g><g id="MAN"><path class="cls-9" d="M890.54,398.09c-4.82,10.81-9.22,21.84-14.53,32.39C865.74,450.86,855,471,844.4,491.2c-.74,1.42-1.29,2.94-2.2,5,10.47-.75,20.48-5,30.26,1.52-5.77,1.8-11.83,4.25-18.13,5.53-12.25,2.49-24.64,4.31-37,6.42l.27,1.71c6.48-.92,12.95-2,19.46-2.72,7.81-.82,15.66-1.22,23.48-1.92,3.38-.3,6.21.64,6.41,4.22s-2.57,4.59-5.95,4.79c-9.66.56-19.31,1.37-29,2.15a7,7,0,0,0-3.63,1.41h25.87c5.28,0,5.55.21,7.3,6-7.35,4.86-16.05,1.06-24,3.6,2.83,4.46,6,8.84,8.54,13.54,13.73,25,12.47,49.87-4,72.75-15.95,22.16-33.63,43.08-50.11,64,.36,3.12.79,6,1,8.88,5.17,64.49,9.8,129,10.54,193.74.18,16.2,2.82,32.37,4,48.58.28,3.85.1,8.14-1.33,11.63-3.07,7.48-10.26,10.73-17.95,8.5-4-1.15-8.24-2.65-11.31-5.25-11-9.3-19.88-20.32-24.21-34.41a18.94,18.94,0,0,1-.66-4.33c-.3-4.77,1.94-8.13,6.17-10s8.09-.65,10.72,2.93c3.43,4.68,6.39,9.71,9.55,14.59l.86.93.05-1.68c-1.88-6.29-3.88-12.54-5.61-18.87-1.28-4.69-.6-9,4.59-10.84,5-1.81,8.5,1.18,10.15,5.17,2.62,6.35,4.25,13.12,6.29,19.72a3.62,3.62,0,0,0,1.5,2.4L785.15,698.1l-1.07,0c-2.77,5.89-4.82,12.27-8.48,17.53-4.28,6.14-10,11.27-15,16.93-1.1,1.24-2.38,2.84-2.49,4.35-1.09,14.63-.65,29.12,3.38,43.41,1.36,4.83,1.71,10,2,15.08.4,6.75-.15,13.57.53,20.27a42.49,42.49,0,0,1-6.88,28.17c-3.38,5.06-10.32,8.24-16.29,10.84-2.53,1.1-4.17,1.78-5.29,4.24-4.56,10-9.17,19.9-14,29.74-1.07,2.2-3,4-4.77,6.27,13.68,21.43,16.37,45.33,11.82,70.44l-8.36,23L762,986.3l17.87,3.53c2.15,1.61,4.68,2.9,6.38,4.9,4.15,4.87,2.59,8.55-3.66,9.82-2.65.54-5.16,1.73-7.8,2.3-3.33.72-6.74,1.1-10.11,1.62-5.82.32-11.77,0-17.44,1.08-12.13,2.36-23.43-1.41-34.91-3.79-6.29-1.3-7.19-3.16-5.93-9.36a73.16,73.16,0,0,1,2.43-7.7l10.21-21.92c5.15-18.36,3.81-36.53-2.23-54.34-4.88-14.39-16.24-23.91-26.72-34.11-5.46-5.31-10.95-7.41-18.8-6.52-9.93,1.12-20.07.27-31.1.27,2,2.59,3.22,4.17,4.48,5.69,13.69,16.68,17.36,35.76,11.41,56.07-3.19,10.9-9,21-13.68,31.49-7,11-17.11,18.58-27.62,25.76l-.91,1.42,1.86-.44c9.33-.88,18.65-2,28-2.55,5.86-.34,11.77.21,17.66.35,2.19,1,4.35,2,6.58,2.91,6.08,2.37,12.29,4.42,18.21,7.12,1.62.74,3.7,3.73,3.3,4.94-.69,2.07-3,4.65-4.93,5-4.16.78-8.56.33-12.85.27-21.35-.32-42.71-.53-64.06-1.11a103.48,103.48,0,0,1-17.8-2.41c-1.77-.36-4.67-3-4.42-3.91.61-2.14,2.51-4.14,4.35-5.63,1.12-.91,3.13-.65,4.68-1.1,2.38-.68,5-1.06,7-2.36,3.8-2.47,7.24-5.49,10.83-8.29,7.72-5.66,14.36-12.25,18.37-21.13,4.19-7.42,8.93-14.58,12.47-22.3,10.81-23.56,9.57-45.51-9.22-65.18-4.36-4.56-8.78-6.6-14.84-5.85a7.68,7.68,0,0,0-.46,1.6c-1.46,23.82-2,47.75-9.27,70.81-2.36,7.5-3.41,15.82-12,19.5-6.51,2.5-12.93,1.46-19.33-.48-16-3.23-26.79-12.63-32.36-28-2.6-7.16-3.42-14.25,1.56-20.86,2.76-3.66,6.13-6.6,11-5.61,4.69.95,5.9,5.06,6.69,9.1.87,4.48,1.19,9.09,2.35,13.47.92,3.46,2.77,6.68,4.21,10l2.06-.54a62.23,62.23,0,0,0-.05-7.51c-.64-5.24-1.74-10.42-2.33-15.66-.53-4.77.94-8.87,5.9-10.51s7.23,1.86,9.17,6.91c.7-3,.57-5.5,1.73-6.87,2.06-2.45,4.67-5.24,7.51-5.88,1.39-.31,4.92,3.63,5.52,6.12,1.75,7.19,2.5,14.62,3.64,22l1.7.11,5.51-58.93c-9.67-3.5-18.52-6.33-27.08-9.88-14.33-5.95-23.43-17.11-28.89-31.29-8.37-21.72-8.37-44.46-6.54-67.09,3.85-47.53,18-91.88,43-132.64,3.48-5.65,5.34-12.37,9.17-17.72,17.08-23.85,33.65-48.12,54.4-69.13,10-10.13,19-21.31,29-31.4,7.92-8,16.77-15,25.31-22.55-2.95-4-7.74-6.56-13.53-7.84-4.09-.91-9.29-1.36-9.12-7.43.13-4.54,4.63-7,11.42-6.69,9.43.36,13.79,7.08,18.13,14.55,1.41-2.26,2.47-4.62,4.14-6.4,1-1.1,3-1.32,4.55-1.93,0,1.59.54,3.37,0,4.72a91.85,91.85,0,0,1-4.73,8.82c2.23,0,3.75.13,5.23,0a115.6,115.6,0,0,1,65.37,12c9.75,5,18.63,7.12,29.82,3.33,7.19-2.44,11-5.54,14.16-12,11.88-24.26,24.38-48.22,36.58-72.33,2.71-5.36,5.1-10.88,7.64-16.33.81-1.41,1.37-3.06,2.48-4.16a65.83,65.83,0,0,1,6-4.76ZM624.74,651l.86,1.18,6.29,8.16,1,1.23,0,0,1.34,1.93.07.1a39.66,39.66,0,0,0,2.52,4.12c13,16.53,24.33,34,30.49,54.3.07.23.56.33,1.42.8l14.81-13.94,17-14.9c-28-10.14-51.68-25.14-73.94-42.53l-1.17-1-1.92-.7Zm80.38-172.43,2.11.53-1.06-1.49c-2.27-1.8-4.51-3.63-6.82-5.38-3.95-3-6.15-1.93-6.84,3.49ZM747,701l-10.46-.82-1,1.51c5.85,6.58,11.61,13.25,17.59,19.72,3.5,3.79,6.87,3.57,9.46-1.21a82.12,82.12,0,0,0,14.56-22.67Zm-17.66,104.3c-.21,2.54-1.57,6.23-.4,7.42,3.65,3.69,2.92,7.06.93,10.83,7.29,3.66,7.13,5.22-2.13,20.81l3.4,4.77c2.44-8.84,6.91-16.72,6.17-24.07-1.64-16.23-5.91-32.19-9.11-48.25l-8.13-38.93-3.61,6.86c5.15,2.38,6.1,5.71,3.5,11.68-1.08,2.48-3.05,4.8-3.36,7.34-.55,4.6-.16,9.32-.16,14.71.67,1.26,1.94,3.51,3.07,5.84.44.91.32,2.68.87,2.87,8.26,2.86,5.29,8,2.86,12.49Zm-41.77-88c-5.07,4.17-10,8.57-15.25,12.43-4.74,3.45-8.3,2.5-11.47-2.47a23.07,23.07,0,0,1-2.64-5.39c-4.64-14.83-12.36-27.95-21.63-40.34-11.87-15.87-23.33-32.06-35.3-48.56l-5.53,9.85c-1.13,1.87-2.31,3.72-3.39,5.62-15.77,27.83-24.84,58.05-30.72,89.22-5,26.36-6.39,53-1.06,79.52,2.83,14.07,10.17,25.26,22.91,32.5l28.47,11c0-3.94,0-6.24,0-8.55-.6-31.79-1.69-63.59-1.66-95.38,0-27.59,1.31-55.17,2-82.76,0-1.09-.13-2.44.43-3.19.87-1.16,2.25-2.52,3.5-2.61.81-.06,2.3,1.88,2.56,3.11a32.36,32.36,0,0,1,.56,7.63c-.49,17.9-1.57,35.79-1.54,53.68.07,42,.65,84.07,1,126.11a16.45,16.45,0,0,0,.49,2.54,255.49,255.49,0,0,0,84.82-2.56c-3.41-9.53-6.37-18.14-9.58-26.66a31,31,0,0,1-1.44-19.19c2.56-10.38,3.85-21.07,5.81-31.6,3-16.31,6.24-32.6,9.27-48.92.23-1.26.2-3.29-.56-3.9-5.45-4.37-5.31-10.48-5.64-16.5l1.61-9.48ZM617.47,606.44c-1.82,3-3.3,6.37-5.53,9.07-3,3.67-2,6.37,1.06,9.08,1.53,2,3,4.17,4.62,6.09,17.83,20.59,40.44,34.76,64.68,46.11,12.26,5.74,25.64,9.6,38.91,12.48,10.76,2.34,22.1,2.42,33.19,2.59,4.85.08,10.48-.95,14.42-3.51,6.35-4.13,11.82-9.72,17.26-15.09,20.4-20.15,37-43.25,51.7-67.75,3.63-6.05,7.64-12.45,9-19.18,4.62-22.91-4.12-42.13-20.79-57-28.35-25.24-61.72-37.69-100.15-34.41-9.49.81-18.26,3.59-24.9,11-19.41,21.62-39.21,42.91-58,65C633.5,582,625.89,594.56,617.47,606.44ZM738.23,717.29c-3.54,4.24-6.73,7.92-9.72,11.76a5.44,5.44,0,0,0-.86,3.51,84.65,84.65,0,0,0,1.41,11.38c3.88,17.43,8.33,34.74,11.81,52.25,2.44,12.26,6.16,24.5,4.88,37.78l3-6.16,2.11,7.75,1.56-.11c.86-3.5,2.58-7,2.43-10.49a311,311,0,0,0-2.7-32.05c-3-19.78-4.75-39.48-.92-59.34a5.1,5.1,0,0,0-1.13-3.82C746.2,725.43,742.1,721.31,738.23,717.29ZM579,914l-1.84.4c.91,4.78,1.68,9.6,2.77,14.34,1.18,5.17,1.42,10.14-1.83,14.71-3.8,5.35-9.37,5.78-13,.36-2.25-3.37-3.43-7.6-4.47-11.6-1.19-4.57-1.52-9.37-2.6-14-.31-1.32-1.91-3.23-2.95-3.25a4.48,4.48,0,0,0-3.38,2.83c-.5,3.49-1.13,7.32-.19,10.58,4.65,16.3,21.14,28,38.14,27.66,7.83-.17,13.6-8.17,11.19-15.13a84.26,84.26,0,0,1-3.14-12.6c-1.16-6.46-2-13-2.93-19.48a6.06,6.06,0,0,0-1.44,4.53c.31,5.1,1.32,10.25.82,15.26-.25,2.52-3.18,4.77-4.89,7.15-2.08-1.71-4.55-3.14-6.12-5.24-1.22-1.63-1.4-4.09-1.89-6.21C580.43,920.93,579.74,917.47,579,914Zm220.52,24.26c-2.44-4.44-5.36-8.72-7.22-13.42-1.93-4.88-2.82-10.16-4.18-15.27-1.22-4.58-2.28-9.21-3.78-13.69-.7-2.1-2.27-3.92-3.45-5.86l-1.25.67c1.94,5.85,4.21,11.63,5.68,17.59.93,3.77,1.6,8.05.74,11.72-1.42,6.05-7.17,7.06-11,2.11-3.1-4-5.29-8.72-8.15-12.94-1.93-2.85-4.32-5.38-6.89-8.52a14.22,14.22,0,0,0-1.34,2.64,5.86,5.86,0,0,0,.06,2.15c3.6,15.29,12.58,27.05,25.13,35.85C790.35,945.82,794.56,944.32,799.52,938.28ZM773,1002.7c-18-4.24-36.18-1-54.24-1.55C736.73,1004.83,754.78,1006.94,773,1002.7Zm-60.92-114.4-5.86-21.76-12.4,2.77ZM627.91,999.38l42.94,4.12L671,1002A89.49,89.49,0,0,0,627.91,999.38Z"/><path class="cls-10" d="M890.54,398.09l-2.13-6.61a65.83,65.83,0,0,0-6,4.76c-1.11,1.1-1.67,2.75-2.48,4.16l-17.24,2.36-5.79,2.12-11.67-2.67a17.67,17.67,0,0,0,.93-4.25,30.54,30.54,0,0,0-1-5.21c-1.68.83-3.73,1.3-4.94,2.57-1.71,1.8-2.8,4.19-4.15,6.33L819.35,397c1.71-3.83,3.6-7.59,5.05-11.52.6-1.61.24-3.58.32-5.38-1.83.75-4.29,1-5.37,2.34-2.81,3.53-5,7.55-7.45,11.38l-13.36-5.62L806,373l-1.53-1.58c-1.79,1.1-4.05,1.83-5.26,3.38-2.19,2.81-3.75,6.1-5.57,9.2l-12.94-.33a76.76,76.76,0,0,0,3.5-9.07c.46-1.79-.19-3.87-.35-5.82-1.87,1-4.47,1.59-5.46,3.16-3.54,5.64-6.54,11.62-9.75,17.48l-13.71,3.33,13.93-27.35c-3.77-2.63-5.65-.72-7.21,1.73-6.34,10-12.63,19.95-18.93,29.93l-19,3.12a94.91,94.91,0,0,0,4.41-9.32c.54-1.5-.09-3.41-.19-5.13-1.62.85-3.83,1.31-4.74,2.64-2.43,3.57-4.31,7.53-6.41,11.33-4.91-1.6-9.71-3.68-14.74-4.7-9.51-1.93-18-5.3-24.08-13.29-.55-6.31-5.35-10.69-13.19-12l-5.47-4.42c-2.19-7-4.81-13.86-6.41-21-.85-3.79.19-8-3.54-10.82L646,321.58c.8-6.94.09-13.63-3.21-19.91-4.64-11.21-9.36-22.39-13.86-33.65a48.59,48.59,0,0,1-3.42-11.46c-1.67-12.75,1.47-24.28,7.12-36,7.77-16.15,21.43-24.25,36.27-31.4,4.26-2.05,9.32-2.35,13.86-3.9A49.2,49.2,0,0,0,693,180.37c7-4.42,13.67-9.3,20.62-13.78,1.61-1,3.85-1,5.64-1.87,8.44-3.92,16.77-8.07,25.26-11.88,2-.92,4.53-1,6.83-1.19,3.18-.25,6.46.15,9.56-.42,6.37-1.16,12.63-2.92,19-4.11,2.07-.39,4.32.32,6.49.39,6.64.22,13.29.44,19.93.5a4.61,4.61,0,0,0,2.89-1.29c6.53-6.31,14.25-5.65,20.57-1.23,7.93,5.55,16.78,6.19,25.54,8.12,9.07,2,18,4.49,27.1,6.51,5.11,1.14,10.4,1.48,15.49,2.68,16,3.77,31.93,7.44,47,14.3,9.94,4.52,20.78,7.15,30.54,12a129.52,129.52,0,0,1,25.88,16.7,68.53,68.53,0,0,1,15.87,19.6c4.08,7.63,5.72,16.57,8.46,24.93,1.72,5.26,3.93,10.41,5.14,15.79,2.68,11.91,3.92,23.74-5.16,34-2.28,2.57-3.76,5.91-6.27,8.17-2.27,2-5.53,2.93-8.18,4.6-4.1,2.6-8,5.44-12.06,8.16-3.13,2.12-6,4.82-9.48,6.19-5.66,2.24-6.45,7.4-7.55,11.88-2.91,11.84-8.77,21.11-19,28.17-8,5.53-14.76,12.84-22.61,18.63-3.77,2.78-8.66,4.29-13.26,5.63q-14,4.07-28.2,7.2C896.42,399.34,893.4,398.36,890.54,398.09ZM747.19,366.51l3-2.44L755,360c4.55-2.44,9.39-4.47,13.54-7.46,2.56-1.84,4.08-5.14,6.07-7.78.76,1,1.61,1.95,2.27,3,8.29,13.26,18.7,17.72,33.79,14.44,1.66.64,3.31,1.8,5,1.81a102.45,102.45,0,0,0,10.45-1c10,15.63,23.78,23.76,42.72,21.91,9.05,3.38,22.94-1.41,27.45-9.47,10.83,4.44,21.58,4.87,32.28-.48,15.78-7.88,25.89-29,23.05-48.42-.55-3.74-1.2-7.47-1.8-11.21,36.68-4.8,50.71-31.6,49.25-52.58a48.58,48.58,0,0,0-15.9-33.32c-14.08-13-30.42-15.35-48.83-8.28.84-3.18,1.36-5.09,1.85-7,4.41-17.1-1.53-27.18-18.64-31.47a31.82,31.82,0,0,0-7-.84c-16.27-.33-29.84,6.17-41.47,17-4.48,4.18-8.32,9.06-12.45,13.61C841.08,187.3,841.08,187.3,818.31,195c-1.87-5.83-3.16-11.93-5.72-17.43-7.1-15.22-21.71-18.63-35.4-8.64C767.4,176,762,186,759.2,197.49c-.95,3.91-1.71,7.86-2.69,12.42-2.25-2.45-3.79-4.25-5.45-5.93-8.73-8.86-19.46-7.83-26.13,2.76-1.9,3-3,6.61-4.12,10a74.54,74.54,0,0,0-1.74,8,84.41,84.41,0,0,0-31.72-19.15c-6.76-2.26-13.39-2.16-19.68,1.12-13.93,7.25-23.78,18.06-27.88,33.51-4,15.12,2.53,29.74,16.5,36.87,3,1.54,6.25,2.68,9.2,3.92-4.1,7.43-8.6,14.37-11.88,21.84-6.26,14.26-3.28,24.14,8.94,32.79,1.29,5,5.37,5.72,9.58,6.49,5.7,1,10.15-1.76,14.7-4.38.86,13.59,3.32,26.42,16.15,34.39,2.34,7,8.29,8.94,14.48,9.33,11,.7,18.53-6.6,26.39-12.84l0,0,3.26-2.16Z"/><path class="cls-11" d="M630.68,964.21c-4,8.88-10.65,15.48-18.37,21.13l-20.81,1.5-12.66,7-.92,12.75c3.86-.32-.59,2.76.44,3.92a36.78,36.78,0,0,1,5.62,5.7c.74.86,1.51,2.28,2.37,2.36,7.29.69,14.6,1.33,21.92,1.57,4.79.15,9.61-.34,14.41-.65,2.72-.17,5.42-.55,7.69-.79,4.21,0,8,.08,11.84,0,1.85-.05,3.69-.65,5.54-.69,5.6-.11,11.2-.2,16.8,0,11,.29,22.32-.77,32.83,1.64a68.3,68.3,0,0,0,21.66,1.94c10.19-.85,20.51-.1,30.77-.35,2.38-.06,5.39-.69,6.94-2.23,3.08-3.05,5.36-6.93,8-10.46,3.37-.53,6.78-.91,10.11-1.62,2.64-.57,5.16-1.76,7.8-2.3,6.25-1.27,7.81-4.95,3.66-9.82-1.7-2-4.23-3.29-6.38-4.9-.54-.82-.9-2-1.66-2.41-5.18-3.08-10.67-2.79-16.21-1.12l-41.73,2.08,8.36-23c14.79-.89,29.59-1.64,44.36-2.73,5.84-.43,11.73-2.77,17.41-2.26,14.48,1.3,29.88,1.64,39,15.85,2.44,3.79,3.09,8.81,4.22,13.35,1.39,5.58,2.16,11.31,3.67,16.85,1.14,4.21,1,7.47-2.25,11a74.47,74.47,0,0,0-11,14.7c-6.37,11.81-19.21,16.43-32.07,12.84-9.15-2.55-17.87-1-26.75-.24-15.16,1.38-30.21,4.05-45.58,2-5-.67-10.13.46-15.22.61-4.85.14-9.71,0-14.57.12-15.58.22-31.18,2.52-46.72-1.23-3.35-.81-7.13.24-10.72.27-11.82.1-23.69,1.94-35.39-1.94-3.07-1-6.78,0-10.19-.13-5.35-.25-10.68-.72-16-1.1-1.27-.09-3,.28-3.73-.41-5.91-5.86-13.32-3.7-20.24-4.05-9.16-.46-20.11-9.72-20.34-22.61-.13-7.21.38-14.14,3.53-20.79.88-1.86.87-4.25.89-6.39.12-16.74,8.86-25.53,25.67-25.88,7.14-.15,14.28-.56,21.42-.86,6.4,1.93,12.82,3,19.33.48a17.69,17.69,0,0,0,3.39.64c3.56,0,7.12-.38,10.67-.26C617.84,963.38,624.26,963.85,630.68,964.21Z"/><path class="cls-2" d="M768.61,389.44c3.2-5.85,6.2-11.84,9.75-17.48,1-1.58,3.6-2.14,5.46-3.16.15,1.95.81,4,.35,5.82a76.76,76.76,0,0,1-3.5,9.07l-43.32,75.91c-.9,1.58-1.52,3.5-2.81,4.65-1.63,1.45-3.82,2.28-5.76,3.37-.12-2.46-1.19-5.42-.21-7.3,4.56-8.71,9.75-17.08,14.6-25.64C751.69,419.63,760.13,404.52,768.61,389.44Z"/><path class="cls-12" d="M836.1,401.65c1.35-2.14,2.44-4.53,4.15-6.33,1.21-1.27,3.26-1.74,4.94-2.57a30.54,30.54,0,0,1,1,5.21,17.67,17.67,0,0,1-.93,4.25q-17.67,36.13-35.34,72.26c-.56,1.14-.94,2.67-1.88,3.26-1.39.88-3.36,1.71-4.81,1.38-1.06-.24-2.35-2.39-2.35-3.69a14.4,14.4,0,0,1,1.57-6.21Q819.18,435.39,836.1,401.65Z"/><path class="cls-3" d="M793.61,384c1.82-3.09,3.38-6.39,5.57-9.2,1.21-1.55,3.47-2.28,5.26-3.38L806,373l-7.42,15.22c-10.54,20.63-21,41.31-31.73,61.84-1.22,2.33-5,5.87-5.84,5.44-4.42-2.18-1.42-5.62,0-8.29C771.74,426.11,782.7,405.08,793.61,384Z"/><path class="cls-12" d="M742.69,397.08c6.31-10,12.59-20,18.93-29.93,1.56-2.45,3.44-4.36,7.21-1.73L754.9,392.78q-9.85,18.29-19.7,36.58c-1.45,2.7-2.69,6.58-6.62,4.52-3.4-1.78-2.41-5.33-.89-8.25C732.65,416.09,737.68,406.59,742.69,397.08Z"/><path class="cls-8" d="M558.43,685.24c-.18,2.37-.22,4.77-.57,7.12-3.61,23.8-7.83,47.53-10.66,71.42-1.32,11.13.22,22.58.09,33.89a135.94,135.94,0,0,1-2,20.21c-6.64-35,.24-109.78,11.57-132.65Z"/><path class="cls-12" d="M856.92,404.88l5.79-2.12c-.32,1.87-.27,3.92-1,5.6-6.95,15.42-13.94,30.81-21.22,46.08-.86,1.79-3.91,4.18-5.23,3.8-3.56-1-3.36-4.4-1.94-7.23,5.72-11.38,11.58-22.68,17.4-34Z"/><path class="cls-6" d="M716.79,399.71c2.1-3.8,4-7.75,6.41-11.33.91-1.34,3.12-1.79,4.74-2.64.1,1.72.72,3.64.19,5.13a94.91,94.91,0,0,1-4.41,9.32c-9.89,14.37-16.41,30.92-27.27,44.66l-2.6-1.15c.71-2.48,1-5.21,2.2-7.41C702.83,424,709.85,411.89,716.79,399.71Z"/><path class="cls-6" d="M925.17,463.44c-1.07.91-2.62,3-4.67,3.79-2.47.92-5.36.79-8.08.95-7.83.45-15.6,1-22.2,6.07-.66.51-2.49.61-2.85.16a4.38,4.38,0,0,1-.87-3.36c2.08-7.81,19.7-19.7,27.78-18.91C919.66,452.65,925.22,457.7,925.17,463.44Zm-26.95,1.47,20.45-1.37C916.12,453.08,907.81,455.54,898.22,464.91Z"/><path class="cls-2" d="M780,469.46c1.45-6.06,2.09-11.1,3.89-15.69,2.31-5.9,5.5-11.45,8.38-17.12.74-1.45,1.45-3.14,2.67-4.06,1.55-1.17,3.6-1.68,5.44-2.47.31,1.82,1.38,3.92.81,5.4-3,7.79-6.56,15.36-9.63,23.13C789.68,463.41,786.83,467,780,469.46Z"/><path class="cls-2" d="M811.91,393.86c2.44-3.83,4.64-7.84,7.45-11.38,1.07-1.35,3.54-1.59,5.37-2.34-.08,1.8.28,3.77-.32,5.38-1.45,3.93-3.34,7.69-5.05,11.52-2.63,4.92-4.94,10-8,14.68-2.19,3.36-5.35,6.08-8.91,10C800.58,409.3,809.19,402.7,811.91,393.86Z"/><path class="cls-8" d="M854.45,603.2l7.81-40.67c1.07,1.55,2.79,2.92,3,4.47a48.64,48.64,0,0,1-9.72,35.94C855.27,603.25,854.52,603.19,854.45,603.2Z"/><path class="cls-13" d="M649.36,333.48c3.74,2.81,2.69,7,3.54,10.82,1.59,7.11,4.21,14,6.41,21-1.83-2.13-4.56-4-5.33-6.45-2.22-7.16-3.72-14.54-5.34-21.88C648.41,335.9,649.1,334.64,649.36,333.48Z"/><path class="cls-13" d="M642.74,301.67c3.3,6.28,4,13,3.21,19.91-1.41-3.29-3.47-6.47-4-9.9C641.37,308.48,642.4,305,642.74,301.67Z"/><path class="cls-13" d="M664.78,369.7c7.84,1.34,12.65,5.72,13.19,12Z"/><path class="cls-14" d="M617.47,606.44c8.42-11.88,16-24.45,25.44-35.5,18.83-22.12,38.63-43.4,58-65,6.64-7.4,15.41-10.17,24.9-11,38.43-3.29,71.8,9.16,100.15,34.41,16.67,14.85,25.41,34.06,20.79,57-1.36,6.74-5.37,13.13-9,19.18-14.69,24.5-31.3,47.61-51.7,67.75-5.44,5.38-10.92,11-17.26,15.09-3.95,2.57-9.58,3.59-14.42,3.51-11.1-.18-22.44-.25-33.19-2.59-13.27-2.89-26.65-6.75-38.91-12.48-24.24-11.35-46.85-25.52-64.68-46.11-1.66-1.92-3.08-4.05-4.62-6.09,1.49-2.83,2.85-5.74,4.52-8.47C619.54,612.81,620.56,609.65,617.47,606.44ZM673,649.77c2,.23,3.47.74,4.86.53,14.49-2.23,21.78,2.05,25.91,15.76,1.06,3.52,2.81,5.18,6.4,4.93,2.26-9.39-2.88-19.7-11.87-24.19C690,642.69,677.85,643.79,673,649.77Zm76.21-47.25c9.06-1.47,16.2-3.45,21.52-9.33,1.44-1.59,3.1-3.4,3.55-5.36s-.64-4-1-6c-1.88.56-4.42.53-5.53,1.77-4.88,5.48-11,8-18,9.37-1.82.36-4.56,3.25-4.4,4.71C745.51,599.61,748.13,601.3,749.2,602.52Zm36.19-4.34,1.21-.89-5-5.95c-1.61,1.87-4,3.49-4.66,5.66a29.59,29.59,0,0,0-1.37,10.72,36.22,36.22,0,0,0,2.7,10.86c.41,1,3.29,2,4.49,1.56s2.4-2.68,2.47-4.19C785.56,610,785.4,604.1,785.4,598.17Z"/><path class="cls-15" d="M595.78,642.82l5.53-9.85c12,16.51,23.43,32.69,35.3,48.56,9.27,12.39,17,25.51,21.63,40.34a23.07,23.07,0,0,0,2.64,5.39c3.16,5,6.73,5.92,11.47,2.47,5.29-3.86,10.19-8.26,15.25-12.43,1.91-.15,4,.16,5.69-.55a89.3,89.3,0,0,0,8.82-4.86c.33,6,.19,12.13,5.64,16.5.76.61.79,2.64.56,3.9-3,16.32-6.23,32.6-9.27,48.92-2,10.53-3.25,21.22-5.81,31.6A31,31,0,0,0,694.65,832c3.21,8.51,6.17,17.13,9.58,26.66a255.49,255.49,0,0,1-84.82,2.56,16.45,16.45,0,0,1-.49-2.54c-.39-42-1-84.07-1-126.11,0-17.89,1-35.79,1.54-53.68a32.36,32.36,0,0,0-.56-7.63c-.27-1.24-1.75-3.17-2.56-3.11-1.25.09-2.62,1.45-3.5,2.61-.56.75-.4,2.1-.43,3.19-.74,27.59-2,55.17-2,82.76,0,31.79,1.07,63.59,1.66,95.38,0,2.3,0,4.6,0,8.55l-28.47-11c-1-2-1.89-4-3-5.94-.67-1.19-2.39-2.32-2.29-3.34.61-6-1.83-9.65-6.29-10.6.33-4.1,1.49-7.7.71-10.82-1.94-7.77-6.86-15.06-2.57-23.51a2.71,2.71,0,0,0-.29-2.08c-2.8-5.33-1.65-10.33.42-15.66,1-2.58.12-5.88.15-8.85,0-2.61-.91-6.11.41-7.64,3.17-3.69,3.52-6.87,1.1-9.87,1.55-3.09,3.44-5.47,3.94-8.11,1.45-7.66,2.34-15.43,3.45-23.15a46.13,46.13,0,0,1,.78-5.28c1-3.64,2-7.28,3.25-10.83s2.82-6.94,4.24-10.4c.71-2.56,2.17-4.87,3.38-7.31.72-1.45.87-3.18,1.57-4.64,4-8.4,8.84-16.5,12.07-25.2C607.61,648.24,604.57,644.43,595.78,642.82Z"/><path class="cls-16" d="M764.71,1008.46c-2.61,3.53-4.88,7.41-8,10.46-1.56,1.54-4.57,2.18-6.94,2.23-10.26.25-20.57-.49-30.77.35a68.3,68.3,0,0,1-21.66-1.94c-10.52-2.41-21.85-1.35-32.83-1.64-5.6-.15-11.2-.06-16.8,0-1.85,0-3.69.63-5.54.69-3.81.11-7.62,0-11.84,0-2.27.24-5,.61-7.69.79-4.8.3-9.62.8-14.41.65-7.32-.24-14.63-.88-21.92-1.57-.86-.08-1.63-1.5-2.37-2.36a36.78,36.78,0,0,0-5.62-5.7c-1-1.16,3.42-4.24-.44-3.92l.92-12.75,12.66-7,20.81-1.5c-3.59,2.8-7,5.82-10.83,8.29-2,1.3-4.63,1.68-7,2.36-1.56.44-3.56.19-4.68,1.1-1.84,1.49-3.74,3.49-4.35,5.63-.25.87,2.65,3.54,4.42,3.91a103.48,103.48,0,0,0,17.8,2.41c21.35.58,42.71.79,64.06,1.11,4.3.06,8.7.51,12.85-.27,2-.37,4.24-3,4.93-5,.4-1.2-1.67-4.2-3.3-4.94-5.92-2.7-12.13-4.75-18.21-7.12-2.23-.87-4.39-1.94-6.58-2.91,8.06-1.28,16.11-2.58,24.18-3.82,7.42-1.14,14.28,4.55,21.87,1.86.33-.12.92.51,1.39.79a73.16,73.16,0,0,0-2.43,7.7c-1.26,6.21-.36,8.06,5.93,9.36,11.48,2.38,22.79,6.15,34.91,3.79C752.94,1008.44,758.89,1008.78,764.71,1008.46Z"/><path class="cls-17" d="M595.78,642.82c8.79,1.61,11.83,5.42,8.79,13.62-3.23,8.69-8,16.8-12.07,25.2-.7,1.46-.85,3.19-1.57,4.64-1.21,2.44-2.67,4.75-3.38,7.31-1.43,3.46-3,6.88-4.24,10.4s-2.28,7.19-3.25,10.83a46.13,46.13,0,0,0-.78,5.28c-1.11,7.73-2,15.49-3.45,23.15-.5,2.64-2.38,5-3.94,8.11,2.42,3,2.07,6.18-1.1,9.87-1.32,1.53-.38,5-.41,7.64,0,3,.85,6.27-.15,8.85-2.07,5.33-3.22,10.33-.42,15.66a2.71,2.71,0,0,1,.29,2.08c-4.29,8.45.63,15.74,2.57,23.51.78,3.12-.38,6.71-.71,10.82,4.47,1,6.91,4.65,6.29,10.6-.1,1,1.62,2.14,2.29,3.34,1.08,1.93,2,4,3,5.94-12.74-7.23-20.08-18.42-22.91-32.49-5.33-26.54-3.91-53.16,1.06-79.52,5.89-31.17,15-61.39,30.72-89.22C593.47,646.54,594.65,644.69,595.78,642.82Z"/><path class="cls-18" d="M708.86,988.7c-.47-.28-1.06-.91-1.39-.79-7.59,2.69-14.45-3-21.87-1.86-8.06,1.24-16.12,2.54-24.18,3.82-5.89-.15-11.8-.69-17.66-.35-9.35.54-18.67,1.67-28,2.55l-1-1c10.52-7.18,20.67-14.76,27.63-25.76,8.34.75,16.69,2.13,25,2.08,12-.08,24-1.41,36-1.78,5.2-.16,10.43.74,15.64,1.15Z"/><path class="cls-19" d="M738.23,717.29c3.87,4,8,8.14,11.86,12.45a5.1,5.1,0,0,1,1.13,3.82c-3.83,19.86-2,39.56.92,59.34a311,311,0,0,1,2.7,32.05c.15,3.45-1.57,7-2.43,10.49l-1.56.11-2.11-7.75-3,6.16c1.28-13.28-2.44-25.52-4.88-37.78-3.48-17.51-7.93-34.82-11.81-52.25a84.65,84.65,0,0,1-1.41-11.38,5.44,5.44,0,0,1,.86-3.51C731.5,725.21,734.69,721.53,738.23,717.29Z"/><path class="cls-15" d="M683.53,708.84l-14.81,13.94c-.86-.47-1.35-.57-1.42-.8-6.16-20.35-17.52-37.78-30.49-54.3a39.68,39.68,0,0,1-2.52-4.12,34.37,34.37,0,0,1,5.12,2.67c2.29,1.71,4.2,3.94,6.51,5.63,10.79,7.93,21.8,15.57,32.38,23.77,2.13,1.65,2.86,5.2,4,8A33.82,33.82,0,0,1,683.53,708.84Z"/><path class="cls-20" d="M579,914c.74,3.45,1.43,6.91,2.23,10.35.5,2.12.67,4.58,1.89,6.21,1.57,2.1,4,3.52,6.12,5.24,1.72-2.37,4.64-4.63,4.89-7.15.5-5-.52-10.16-.82-15.26a6.06,6.06,0,0,1,1.44-4.53c1,6.49,1.77,13,2.93,19.48a84.26,84.26,0,0,0,3.14,12.6c2.4,7-3.36,15-11.19,15.13-17,.37-33.48-11.36-38.14-27.66-.93-3.27-.31-7.1.19-10.58a4.48,4.48,0,0,1,3.38-2.83c1,0,2.64,1.93,2.95,3.25,1.08,4.61,1.41,9.4,2.6,14,1,4,2.22,8.23,4.47,11.6,3.63,5.42,9.2,5,13-.36,3.25-4.57,3-9.54,1.83-14.71-1.08-4.75-1.86-9.56-2.77-14.34Z"/><path class="cls-20" d="M799.52,938.28c-5,6-9.17,7.54-15.6,3-12.55-8.8-21.53-20.56-25.13-35.85a5.86,5.86,0,0,1-.06-2.15,14.22,14.22,0,0,1,1.34-2.64c2.57,3.14,5,5.68,6.89,8.52,2.86,4.22,5.06,8.92,8.15,12.94,3.81,4.95,9.55,3.94,11-2.11.86-3.67.19-7.95-.74-11.72-1.48-6-3.75-11.74-5.68-17.59l1.25-.67c1.18,1.94,2.74,3.76,3.45,5.86,1.5,4.48,2.56,9.12,3.78,13.69,1.36,5.1,2.25,10.39,4.18,15.27C794.16,929.56,797.08,933.84,799.52,938.28Z"/><path class="cls-20" d="M683.53,708.84a33.82,33.82,0,0,0-1.25-5.23c-1.13-2.78-1.86-6.33-4-8-10.58-8.2-21.59-15.84-32.38-23.77-2.3-1.69-4.22-3.92-6.51-5.63a34.37,34.37,0,0,0-5.12-2.67l-.07-.1-1.34-1.93,0,0-1-1.23-6.29-8.16,1-.77c22.25,17.39,45.89,32.39,73.94,42.53Z"/><path class="cls-19" d="M729.36,805.27l-6.1-5.62c2.43-4.49,5.4-9.63-2.86-12.49-.55-.19-.43-2-.87-2.87-1.13-2.33-2.4-4.58-3.07-5.84,0-5.39-.4-10.11.16-14.71.3-2.54,2.28-4.86,3.36-7.34,2.6-6,1.65-9.3-3.5-11.68l3.61-6.86,8.13,38.93c-1.49,7.36-1.84,14.54,2.07,21.45C731.55,800.47,733.94,803.51,729.36,805.27Z"/><path class="cls-20" d="M747,701l30.11-3.47a82.11,82.11,0,0,1-14.56,22.66c-3.51-1.52-8.34-1.81-8.78-6.73A17.18,17.18,0,0,0,747,701Z"/><path class="cls-21" d="M729.36,805.27c4.58-1.76,2.19-4.8.92-7-3.91-6.92-3.56-14.1-2.07-21.45,3.2,16.07,7.47,32,9.11,48.25.74,7.35-3.73,15.22-6.17,24.07l-3.4-4.77c9.26-15.59,9.42-17.15,2.13-20.81,2-3.77,2.72-7.14-.93-10.83C727.79,811.51,729.16,807.82,729.36,805.27Z"/><path class="cls-19" d="M747,701a17.18,17.18,0,0,1,6.76,12.47c.44,4.91,5.28,5.2,8.78,6.73-2.59,4.78-6,5-9.46,1.21-6-6.47-11.74-13.13-17.59-19.72l1-1.51Z"/><path class="cls-21" d="M773,1002.7c-18.19,4.23-36.24,2.13-54.24-1.55C736.79,1001.69,754.93,998.47,773,1002.7Z"/><path class="cls-21" d="M627.91,999.38A89.49,89.49,0,0,1,671,1002l-.14,1.52Z"/><path class="cls-21" d="M702.1,711.9a89.3,89.3,0,0,1-8.82,4.86c-1.67.71-3.78.4-5.69.55l16.11-14.89Z"/><path class="cls-13" d="M617.47,606.44c3.09,3.22,2.07,6.37,0,9.68-1.66,2.72-3,5.64-4.52,8.47-3.07-2.7-4.09-5.4-1.06-9.08C614.17,612.81,615.65,609.48,617.47,606.44Z"/><path class="cls-21" d="M705.12,478.57l-12.61-2.84c.69-5.42,2.89-6.49,6.84-3.49,2.31,1.75,4.55,3.59,6.82,5.38Z"/><path class="cls-21" d="M762,986.3c5.55-1.68,11-2,16.21,1.12.76.45,1.12,1.59,1.66,2.41Z"/><path class="cls-21" d="M706.17,477.62l1.06,1.49-2.11-.53Z"/><path class="cls-15" d="M632.87,661.53l1.34,1.93Z"/><path class="cls-20" d="M624.73,651l-1.24-1.31,1.92.7Z"/><path class="cls-18" d="M615.75,992.06l-1.86.44.91-1.42Z"/><path class="cls-22" d="M779.57,913.27l-.05,1.68-.86-.93Z"/><path class="cls-15" d="M631.89,660.35l1,1.23Z"/><path class="cls-20" d="M625.59,652.19l-.86-1.18.68-.61,1.17,1Z"/><path class="cls-23" d="M703,372.24c-12.83-8-15.29-20.8-16.15-34.39l1-6.85c-8.57,4.93-16.55,7.27-25.32,4.74-12.22-8.65-15.2-18.53-8.94-32.79,3.28-7.47,7.79-14.41,11.88-21.84-2.94-1.24-6.17-2.38-9.2-3.92-14-7.13-20.52-21.75-16.5-36.87,4.11-15.45,14-26.26,27.88-33.51,6.29-3.27,12.92-3.38,19.68-1.12a84.41,84.41,0,0,1,31.72,19.15,74.54,74.54,0,0,1,1.74-8c1.15-3.43,2.22-7,4.12-10,6.66-10.59,17.39-11.62,26.13-2.76,1.66,1.68,3.2,3.48,5.45,5.93,1-4.57,1.74-8.52,2.69-12.42,2.8-11.54,8.21-21.48,18-28.61,13.69-10,28.3-6.58,35.4,8.64,2.57,5.5,3.85,11.6,5.72,17.43,22.77-7.65,22.77-7.65,38.27,17.58,4.13-4.56,8-9.43,12.45-13.61,11.62-10.85,25.2-17.35,41.47-17a31.82,31.82,0,0,1,7,.84c17.12,4.29,23,14.37,18.64,31.47-.49,1.91-1,3.82-1.85,7,18.41-7.07,34.75-4.73,48.83,8.28A48.58,48.58,0,0,1,999,262.8c1.46,21-12.57,47.78-49.25,52.58.6,3.74,1.25,7.46,1.8,11.21,2.84,19.39-7.27,40.54-23.05,48.42-10.71,5.35-21.45,4.92-32.28.48l-7.19-6.69c-2.85,3.46-5.13,7.33-8.42,9.92-3.44,2.72-7.85,4.21-11.84,6.24-18.94,1.85-32.75-6.28-42.72-21.91l-5.77-11.18c-2.14,2.61-3.43,4.38-4.92,5.95s-3.15,2.93-4.73,4.39c-15.09,3.28-25.5-1.19-33.79-14.44-.66-1.06-1.51-2-2.28-3L772,337.62,755,360l-4.77,4.06-3.05,2.44,0,0-3.26,2.16,0,0a14.71,14.71,0,0,0-3.06,1C728.6,376.62,716,377.32,703,372.24Zm241.33-37.79c-1.23-6.92-1.92-14-3.86-20.71-1.89-6.55-.72-9,6.11-8.77,12.94.46,23.93-3.93,33.25-12.84,11.45-11,14.6-30.64,7-44.53C978,231.35,962,223.87,945.11,228.07c-4.07,1-8.08,2.54-12.2,3-2.39.26-5.91-.4-7.18-2s-1-5.12-.41-7.52c1.11-4.19,3.48-8.06,4.52-12.26,2-8-.4-12.35-7.88-15.88a30.94,30.94,0,0,0-20.87-2c-16.77,4-28.78,14.31-38.22,28.3-1.68,2.48-4.62,4.11-7,6.13a85.32,85.32,0,0,1-5.63-7.42c-3-5-5.4-10.33-8.65-15.11-3.08-4.53-7.75-5.23-12.64-2.86-3.44,1.67-6.71,3.68-10.07,5.51-4.87,2.66-8.14,1.13-8.9-4.4-.37-2.7.12-5.51-.24-8.21-1.07-8.19-3.32-16.11-11.43-19.94-6.64-3.14-16,.53-21.88,8.63a55.17,55.17,0,0,0-8.38,16.37c-2,6.74-2.11,14-3.43,21-.43,2.26-2.1,4.29-3.2,6.42-2.17-1.32-4.73-2.27-6.41-4.06-2.86-3-5-6.73-7.75-9.91-6.73-7.81-15.41-6.46-18.08,3.52-1.73,6.47-.9,13.62-1.24,20.46-.12,2.31-.32,4.62-.57,8.14-2.87-2-5.18-2.77-5.91-4.28-5.92-12.33-17.28-18-28.65-23.42-8.6-4.09-17.92-6.65-26.54-.31-5.21,3.83-10.37,8.32-14,13.57-9.91,14.29-8.37,28.55,3.61,37.41,3.57,2.64,8,4.24,12.32,5.7,6.82,2.33,8.33,5.52,4.75,11.81-1.53,2.69-3.61,5.1-5,7.87-3.29,6.67-6.85,13.3-9.17,20.32-1,2.92,1,6.8,1.56,10.24,3.49,5.09,8.49,6.29,14,4.61a97.7,97.7,0,0,0,14-5.83c4.15-2,6.9-.9,7.1,3.75a59.46,59.46,0,0,1-.75,9.78c-1.36,10.88,2.37,27.72,16,30.53,9.12,1.88,18.12,1.38,26.53-3.35,13.22-7.44,22-18.8,28.79-32,1.39-2.71,4.74-4.4,7.19-6.56,2,2.35,4.44,4.45,5.88,7.1,2.59,4.78,4.16,10.13,6.89,14.82,5.23,9,23.35,13.24,29.21-.17,1.61-3.68,4.94-4.42,8.22-2.26a19.66,19.66,0,0,1,5.15,5.46c3.76,5.59,7,11.58,10.93,17,8.13,11.08,34.09,16,42.56-3.63,3.12-7.24,8.15-7.66,12.51-1.18,4.23,6.29,10.07,8.51,17.2,8.76C931.64,370.39,943.32,350.78,944.32,334.45Z"/><path class="cls-24" d="M868.81,385c4-2,8.4-3.52,11.84-6.24,3.29-2.59,5.57-6.46,8.42-9.92l7.19,6.69C891.76,383.56,877.87,388.35,868.81,385Z"/><path class="cls-24" d="M703,372.24c13,5.08,25.61,4.38,37.82-2.56a14.71,14.71,0,0,1,3.06-1c-7.86,6.24-15.39,13.54-26.39,12.84C711.28,381.18,705.32,379.2,703,372.24Z"/><path class="cls-24" d="M662.55,335.74c8.76,2.53,16.74.19,25.32-4.74l-1,6.85c-4.55,2.62-9,5.42-14.7,4.38C667.92,341.46,663.84,340.73,662.55,335.74Z"/><path class="cls-16" d="M755,360l17-22.39,2.58,7.15c-2,2.64-3.5,5.93-6.07,7.78C764.39,355.54,759.56,357.57,755,360Z"/><path class="cls-16" d="M810.68,362.22c1.59-1.45,3.26-2.83,4.73-4.39s2.78-3.34,4.92-5.95l5.77,11.18a102.51,102.51,0,0,1-10.45,1C814,364,812.33,362.86,810.68,362.22Z"/><path class="cls-24" d="M743.89,368.7l3.26-2.16Z"/><path class="cls-24" d="M747.19,366.51l3.05-2.44Z"/><path class="cls-25" d="M898.22,464.91c9.59-9.37,17.9-11.83,20.45-1.37Z"/><path class="cls-5" d="M673,649.77c4.86-6,17.05-7.08,25.29-3,9,4.49,14.13,14.8,11.87,24.19-3.59.24-5.34-1.42-6.4-4.93-4.13-13.71-11.42-18-25.91-15.76C676.46,650.51,675,650,673,649.77Z"/><path class="cls-12" d="M749.2,602.52c-1.07-1.21-3.69-2.9-3.9-4.85-.16-1.46,2.58-4.36,4.4-4.71,7-1.38,13.13-3.89,18-9.37,1.11-1.24,3.65-1.21,5.53-1.77.41,2,1.46,4.19,1,6s-2.11,3.76-3.55,5.36C765.4,599.06,758.26,601,749.2,602.52Z"/><path class="cls-3" d="M785.4,598.17c0,5.92.17,11.86-.11,17.77-.07,1.5-1.26,3.73-2.47,4.19s-4.08-.52-4.49-1.56a36.22,36.22,0,0,1-2.7-10.86A29.59,29.59,0,0,1,777,597c.7-2.16,3-3.79,4.66-5.66l5,5.95Z"/><path class="cls-26" d="M660.38,322.91c-.61-3.44-2.53-7.32-1.56-10.24,2.32-7,5.88-13.65,9.17-20.32,1.36-2.77,3.44-5.17,5-7.87,3.58-6.29,2.07-9.48-4.75-11.81-4.27-1.46-8.75-3.06-12.32-5.7-12-8.85-13.52-23.11-3.61-37.41,3.65-5.26,8.81-9.74,14-13.57,8.62-6.34,17.95-3.78,26.54.31,11.37,5.41,22.73,11.09,28.65,23.42.73,1.52,3,2.27,5.91,4.28.25-3.53.45-5.83.57-8.14.34-6.84-.49-14,1.24-20.46,2.66-10,11.34-11.32,18.08-3.52,2.74,3.17,4.89,6.87,7.75,9.91,1.68,1.78,4.24,2.73,6.41,4.06,1.1-2.13,2.77-4.16,3.2-6.42,1.32-7,1.42-14.27,3.43-21a55.17,55.17,0,0,1,8.38-16.37c5.92-8.11,15.23-11.77,21.88-8.63,8.11,3.83,10.36,11.75,11.43,19.94.35,2.7-.13,5.51.24,8.21.76,5.53,4,7.06,8.9,4.4,3.36-1.83,6.63-3.84,10.07-5.51,4.89-2.37,9.56-1.67,12.64,2.86,3.25,4.78,5.64,10.15,8.65,15.11a85.32,85.32,0,0,0,5.63,7.42c2.36-2,5.3-3.65,7-6.13,9.44-14,21.45-24.34,38.22-28.3a30.94,30.94,0,0,1,20.87,2c7.48,3.54,9.86,7.92,7.88,15.88-1,4.2-3.41,8.07-4.52,12.26-.63,2.39-.88,5.88.41,7.52s4.79,2.27,7.18,2c4.13-.45,8.13-2,12.2-3,16.9-4.2,32.86,3.28,41.73,19.53,7.58,13.89,4.44,33.58-7,44.53-9.32,8.91-20.31,13.3-33.25,12.84-6.83-.24-8,2.22-6.11,8.77,1.94,6.71,2.63,13.79,3.86,20.71l-5.31-1a1.5,1.5,0,0,0,.39-.17c.06,0,.05-.19.08-.29l-.43.5c-3.16,2.32-6.78,4.22-9.39,7-6,6.5-12.64,10-21.73,7.72-10.47-2.66-19.74-.78-27.16,7.76a12,12,0,0,1-5.38,3.53c-16,4.62-33.5-5.27-38.63-21.64-1.53-1.77-2.74-4.14-4.67-5.17-3.23-1.73-6.9-3.25-10.52-.45-1.81.78-3.6,1.61-5.44,2.31-2.85,1.09-5.74,2.1-8.61,3.14L792,324.89l-4.24-4.64c-2.68-4.43-9.92-6.85-13.31-4.45-6.29.64-10.21,4.92-14.32,9.09-4.28,4.34-8.74,8.52-13.38,12.47a142.85,142.85,0,0,1-11.8,8.74c-4.73,3.24-9.6,6.27-15.22,9.91-.92-4.54-1.38-8.13-2.38-11.56-2-7-3.56-14.2-6.69-20.64-4.81-9.88-19-12.36-30.33-5.55-5.19,3.11-9.71,4.94-14.25.21Z"/><path class="cls-27" d="M939,333.47l5.31,1c-1,16.33-12.68,35.94-32.52,35.23-7.13-.25-13-2.47-17.2-8.76-4.36-6.48-9.4-6.06-12.51,1.18-8.46,19.65-34.43,14.71-42.56,3.63-4-5.42-7.17-11.41-10.93-17a19.66,19.66,0,0,0-5.15-5.46c-3.28-2.17-6.61-1.43-8.22,2.26-5.86,13.41-24,9.15-29.21.17-2.73-4.69-4.3-10-6.89-14.82-1.43-2.65-3.88-4.75-5.88-7.1-2.45,2.16-5.8,3.86-7.19,6.56-6.83,13.25-15.56,24.6-28.79,32-8.4,4.73-17.41,5.23-26.53,3.35-13.67-2.81-17.4-19.65-16-30.53a59.46,59.46,0,0,0,.75-9.78c-.2-4.65-2.95-5.77-7.1-3.75a97.7,97.7,0,0,1-14,5.83c-5.48,1.68-10.49.48-14-4.6l5.68-4.45c4.54,4.73,9.06,2.9,14.25-.21,11.34-6.8,25.52-4.32,30.33,5.55,3.13,6.44,4.67,13.69,6.69,20.64,1,3.43,1.47,7,2.38,11.56,5.62-3.64,10.5-6.67,15.22-9.91a142.85,142.85,0,0,0,11.8-8.74c4.64-3.94,9.11-8.13,13.38-12.47,4.11-4.17,8-8.44,14.32-9.09,2.16,4.34,9,6.62,13.31,4.45l4.24,4.64c.61,7.5,6.78,10.09,12,13.37.76.48,2.3-.29,3.48-.49,2.87-1,5.75-2,8.61-3.14,1.84-.7,3.63-1.54,5.44-2.31,4.6,3.12,8.71,7.58,15.19,5.62,5.13,16.36,22.64,26.26,38.63,21.64a12,12,0,0,0,5.38-3.53c7.42-8.55,16.69-10.42,27.16-7.76,9.09,2.31,15.73-1.22,21.73-7.72,2.61-2.83,6.23-4.73,9.39-7Z"/><path class="cls-24" d="M836.76,337.93c-6.48,2-10.59-2.5-15.19-5.62,3.62-2.8,7.29-1.28,10.52.45C834,333.79,835.22,336.16,836.76,337.93Z"/><path class="cls-24" d="M807.52,337.76c-1.18.19-2.72,1-3.48.49-5.26-3.28-11.43-5.87-12-13.37Z"/><path class="cls-24" d="M787.75,320.24c-4.33,2.17-11.15-.11-13.31-4.45C777.83,313.39,785.07,315.81,787.75,320.24Z"/><path class="cls-27" d="M939.05,333.51l.43-.5c0,.1,0,.24-.08.29a1.5,1.5,0,0,1-.39.17Z"/></g></svg>