<svg id="PANEL_4" data-name="PANEL 4" xmlns="http://www.w3.org/2000/svg" viewBox="0 0 1200 1200"><defs><style>.cls-1{fill:#2c7f99;}.cls-2{fill:#bbe8f8;}.cls-3{fill:#86bccf;}.cls-4{fill:#31829b;}.cls-5{fill:#f7d40a;}.cls-6{fill:#f8d40a;}.cls-7{fill:#2f7f91;}.cls-8{fill:#fbfdfd;}.cls-9{fill:#bce9f9;}.cls-10{fill:#e9f6fb;}.cls-11{fill:#86bdd0;}.cls-12{fill:#bae7f8;}.cls-13{fill:#82b9cc;}.cls-14{fill:#f4f9fa;}.cls-15{fill:#f6fafb;}.cls-16{fill:#bae8f8;}.cls-17{fill:#f6fafa;}.cls-18{fill:#f6f9fa;}.cls-19{fill:#f3f8f9;}.cls-20{fill:#f0f6f8;}.cls-21{fill:#b6e4f4;}.cls-22{fill:#edf5f6;}.cls-23{fill:#e5eff2;}.cls-24{fill:#d2e4e9;}.cls-25{fill:#a6c9d4;}.cls-26{fill:#297d98;}.cls-27{fill:#2e809a;}.cls-28{fill:#f8fbfc;}</style></defs><title>PANEL 04</title><g id="MAN"><path class="cls-1" d="M394.22,773c11.76,5.77,24.46,7.7,37.3,9,3.78.38,7.82.12,9.81,4.43l0,1.43c-2.61.86-5.32,2.66-7.82,2.41-8-.79-15.83-2.38-23.74-3.59-1.91-.29-3.84-.36-5.77-.54l.05,0L399.65,785l.06,0-3.36-1.12.06,0-11.06-4.42.09.05-2.29-1.16.07.09a33.55,33.55,0,0,1-5.12-3.29,55.81,55.81,0,0,1-4.74-5.58l7.16-1.6,2.29.23-.9-1.51c-4.63-5.63-3.62-6.67.64-12.42,9.2-12.4,17.83-25.28,25.8-38.5,5-8.22,8.26-17.45,12.4-26.18,4.21-8.89,6.33-9.88,15.81-7.78,2.47.55,4.95,1.06,8.31,1.79.36-28.89,2.26-57.19,10.67-84.6l.25-1.25.85-3,.54-2.83.66-18.8.14-3.94c2.11-21.63,1.74-43.87,6.86-64.76,9.27-37.81,12.62-76.61,22-114.36,8-32,19.82-62.64,31.26-93.46,7.16-19.28,13-39,19.79-58.47,5.76-16.54,11.64-33.06,18.1-49.34a76.84,76.84,0,0,1,22.78-31.11c5.59-4.62,11.57-9,18.93-2.36.84.75,3.42-.1,5.06-.64,8.87-2.91,10.38-2.52,15.92,4.52.34.06.74.24,1,.14,9.54-3.41,13.77-2.75,18.08,2.84,5.75,7.46,6.18,19.52.77,27.36-4.43,6.43-10.63,10-18.52,10-4.48,0-5.11,1.18-3,5.12,3.74,7,.85,14.92-7,17-9.48,2.55-19.32,3.75-29,5.46-3.06.54-6.15.92-9.24,1.24-15.83,1.68-24.41,11.59-29.4,25.68-9.82,27.7-19.52,55.44-29.57,83.06-14.32,39.35-23,80-29.16,121.31q-.25,1.72-.51,3.44l.64.17,1.1-2.6c3.1-12.22,6.05-24.47,9.33-36.64,4.09-15.2,9.43-29.92,18.09-43.21,8.31-12.75,20.29-19.59,35.26-21.7,11-1.55,22-3.45,32.89-5.18-2.12-17-4.17-33.41-6.23-49.86-.46-3.65-1.12-7.19,2.3-10.12.83-.71.44-2.86.68-5,11.55,14.87,7.56,32.58,11.24,48.53.69,3,1,6,1.75,9,2-14-4.54-28.31.54-42.07l2.93-.46c1.31,3,3.45,5.86,3.77,8.94,1.24,12,2,24.06,2.76,36.11.21,3.13,1,5,4.88,3.43,1.06-10.73-4.79-21.77.79-33.47,8.17,10.58,4.19,22.78,7.28,33.32,12.68,1.92,25.52,3.49,38.2,5.89a315.83,315.83,0,0,1,31.4,7.6c28.11,8.38,42.29,27.6,45.37,56.73,2.83,26.76-3.49,51.5-12.59,76.05-5.59,15.07-10.91,30.25-16.09,45.47-.61,1.81.41,4.18.72,6.29.38,2.63,1.42,5.35,1.05,7.87-.54,3.75-2.58,7.3-3,11.05-.59,4.79-1.84,10.41,0,14.43,10.9,24.32,21,49.27,38.22,70,7.28,8.77,16.36,16.06,24.69,23.94a17,17,0,0,0,4.19,2.58c10.71,5.31,18.05,3.58,25.29-5.94,8.42-11.08,12.85-23.7,14.26-37.44.65-6.37.61-12.83,1.66-19.12.86-5.13-1.25-7.63-5.44-9.68s-8.29-2.11-11.74.94c-12.6,11.16-38.42-.58-42.79-12.31-.25-.68-.83-1.38-.76-2,1.19-12.5-4.29-24.9-.34-37.48,5.92-18.87,15.48-24.5,30.39-23,2.72.28,5.49.14,8.22.34,16.55,1.2,23.87,8.14,27.52,24.45,5.55,24.82,4.76,49.78,2.88,74.84-1.17,15.56-4.93,30.28-14.07,43.26-.42.6-.75,1.26-1.17,1.86-9.87,14.25-22.5,17.77-38.1,10.19-11.22-5.45-20.11-14-28.15-23.28s-15.53-18.89-23.39-28.25c-3-3.57-6.35-6.86-10.17-10.95.95,9.72,2.25,18.69,2.61,27.7.73,18.44,2.38,37,1.09,55.34-2.32,33-9.93,51.85-29.87,83.33,10.42-2.88,20.43-6.3,30.72-8.34,18.8-3.74,37.75-6.73,56.67-9.86a33,33,0,0,1,8.75,0c13.25,1.4,20.23,12.87,14.65,25-7.09,15.48-18.07,28.35-29.76,40.49-16.9,17.55-35,33.77-55.16,47.63-1.43,1-2.75,2.14-5.24,4.11,10.79-1.17,20.12-2.49,29.5-3.1a258.06,258.06,0,0,1,30.11-.61c4.23.22,8.77,2.58,12.34,5.13,4.82,3.46,4.56,8.55-.45,11.73s-10.59,5.42-15.61,7.91l5.17,3.62c-8.86,9.28-76.36,5.13-95.85-5.49.29-1.26,1.27-2.92.79-3.82-2.75-5.22,1.26-6.83,4.42-8.9,12.54-8.19,25.7-15.57,37.54-24.67,24.44-18.78,46.81-39.83,64.75-65.16A84.8,84.8,0,0,0,773.64,796c3.53-7.23-.08-13.23-8.22-12.64-12.19.88-24.33,2.63-36.42,4.43-22.4,3.35-42.07,14.27-62.57,22.92-7.66,3.23-15.68,5.59-23.51,8.43a12.94,12.94,0,0,0-3.27,1.93c-22.31,16.84-47.92,22.09-75.28,22.76-15.24.37-29.89-2.12-44.65-4.86-9.83-1.82-19.64-3.79-29.92-5.78.08,1.43.32,3.51.3,5.59-.37,32,11,61.62,20.79,91.14,10.9,32.85,25.3,64.54,38.17,96.74L560.83,1050c2.62,7.72-.22,13.84-7.55,16.28l-9.27,3.14c-14.45,1.62-28.89,3.4-43.36,4.81-11.78,1.15-23.59,2.31-35.4,2.5-3.87.06-7.87-2.77-11.64-4.61-2-1-3.6-2.66-5.39-4-1.7-1.05-3.49-2-5.08-3.18-6.32-4.74-5.85-10.37,1.23-14,2.57-1.31,5.35-2.2,8-3.28l25.74-5.59a153.22,153.22,0,0,1,49.94,4.34l19.56,5.86.6-1.4-1.66-3.29L535.26,1023c-19.53-44.13-36.76-89.1-48.09-136.11-5.6-23.24-10.34-46.68-15.61-70-.41-1.8-1.8-3.45-2.94-5-4.63-6.31-9.45-12.48-14-18.86-3-4.24-2.91-8.48,1.12-12.21,2.59,2,6.23,3.54,7.59,6.2,5.29,10.36,13.14,18.48,21.9,25.63,5.3,4.32,11.34,8.33,17.72,10.63,21.86,7.88,44.6,10.64,67.8,9.15,7-.45,14-1.36,21.06-2.05l6.6-1.4c25.29-5.29,44.65-20.94,61.49-38.77,24-25.45,33.31-58,33.45-92.12.13-31.33-3.47-62.67-5.43-94V585.45L674,600.52l-23.29,18.27c-1.59.89-3.14,1.86-4.78,2.64-10,4.81-19.76,10.37-30.15,14.15-9.88,3.6-17.35,0-22.83-8.84-3.35-5.42-6.48-11-9.71-16.47l-1.06-1.21.3,1.87c.06,1.46.2,2.92.16,4.38-.51,17.73-9.59,26.16-26.69,24.82-1.25-.1-2.5-.15-3.89-.23-.32.79-.65,1.43-.84,2.1a375.57,375.57,0,0,1-30.86,73.64c-10.05,18.49-20.55,36.77-35.63,51.76-3.06,3-7.6,4.58-11.46,6.82l-15.54,3.25c-2.47-.36-4.93-.89-7.41-1.06q-27.53-1.86-55.08-3.6l-5-2.48-.52,1.73Zm-6.68-2.14.55.19-.43-.31-2.79-2.52-.73,1.47Zm69.24-19.75,1-1.19,3.78-6.21-.89-1.22a43.41,43.41,0,0,0-4.57,1.14c-1.87.67-3.9,2.53-5.39,2.12s-2.42-3-3.11-3.89L433.54,752l-4.34-.93,4.49-10a1.3,1.3,0,0,0,.42-.17c.06,0,0-.22,0-.34l-.35.57a21.05,21.05,0,0,0-3.33,1.47c-4.58,3-9,6.34-13.7,9.08-1.59.92-4,.43-6.54.62L414.5,745l-1.76-1.3L395.18,763.4l19.91,1.84c17.27,2.45,34.55,2.27,51.91.68,6.83-.62,11.83-3.32,15.54-8.71,8.79-12.76,17.37-25.66,26.26-38.36,2.29-3.28,3.14-6.16.64-9.52,3.49-4.83-.84-7.72-3.07-12.36l-3.85,13.85L495,724.56,488.75,723l-3-7.38c-3.4,5.55-7.09,11.57-10.76,17.59s-6.83,12.19-12.89,16.17L457,754.54l-1-.85,1-2.6ZM719.31,897.3l-16.75,1.89.18,1.47,16.64-1.78c7.16.42,15.06-2.45,20.72,4.68.16.2.72.2,1.05.12q8.36-2,16.71-4l-.41-2.23C744.81,894.08,732,897.11,719.31,897.3ZM574.48,177l7.85,4.09c6.3-1.57,12.27-13.35,8.84-20.46-8,2.85-12.66,9.35-17.6,15.57l-.85,1.3c-1.15,1.61-2.68,3.08-3.39,4.87-6,15.13-11.77,30.32-17.61,45.5l-.22,1.31,1-.6c5-2.31,9.9-5.28,15.17-6.76,6.41-1.81,13.17-2.37,19.77-3.47,5.92-.94,11.92-1.53,17.71-3,2.45-.62,4.43-3.08,6.62-4.7-1.88-2.27-3.39-6-5.7-6.55a135.65,135.65,0,0,0-23.45-3.92c-3.72-.28-7.88,1.24-10.33,7.27,6.08.15,11.66,1.38,16.58.09s7.89-.33,11.07,4.42l-12.51,4.84c-5.34-.89-11-1-16-2.84-7.3-2.68-8.79-10.64-3-15.73a27.62,27.62,0,0,1,11.95-5.83c4.57-1,9.53-.22,15.09-.22l-4.7-5.23-.17,1.74c-4.61,0-9.63,1.23-13.7-.24-3.72-1.34-4.82-6.07-3.67-10.43Zm-3.26,450.12c5.36-8,4.59-19-1.8-25.56-3.71-3.8-8.33-3.77-11.93.15-2.57,2.8-5,5.71-7.55,8.56-1.6,2.58-4,5-4.57,7.79s-.34,7,1.39,8.85C552.34,633,564.54,632.74,571.21,627.12Zm115.22-56.93.86-3.63v-8c-15.93,6.38-31.15,12.78-46.6,18.56Q619,585.2,596.9,592.14c-4.33,1.37-9.23.92-13.87,1.3l-.82,1.16,3.84,2.84c4,6.72,8.32,13.29,12,20.2,6.32,11.91,9.69,12.17,21.93,7.16a40.1,40.1,0,0,0,5.43-2.6c9.53-5.71,19.24-11.15,28.47-17.32a101.88,101.88,0,0,0,31.38-32.83ZM542.68,599.68l13.45-9.22c-31-7.75-56.2-22.51-75.46-47.11l-1,.84,1.62,15.67a135.18,135.18,0,0,0,17.47,49c2.94,5,7.6,9.14,12.06,13,1.54,1.33,5.18,1.42,7.33.62,9.65-3.56,16.93-10.51,23.59-18.07C542.65,603.37,542.39,601.29,542.68,599.68ZM473,684.4c32.43-3.41,53.05-22.52,67.08-49.94L534.13,625c-2.33,1.36-4.49,2.73-6.74,3.92-12.08,6.38-19,5.76-28.12-4.62-5.57-6.36-9.4-14.24-14-21.44-3.09-8.17-6.12-16.37-9.32-24.5-.64-1.63-2-3-3.75-5.66-2.39,9.5-4.12,17.11-6.22,24.61-7.53,26.83-10.71,54.24-11.27,82,0,2.36-1,5.7,3,5.71C462.83,685,467.91,684.63,473,684.4Zm245-247.79c0-3.66.22-7.33,0-11-2.16-30.7-12.5-43.92-42-52.64-22.86-6.75-46.33-10-70.11-11.71-19.33-1.42-37.41,4.21-55.84,8-5.27,1.07-10.07,4.28-15.22,6.11-12,4.27-20.2,12.34-24,24.42-5.16,16.33-10.19,32.72-14.74,49.22-5.52,20-10.89,40.15-15.51,60.41-2.33,10.22-4,19.86,6.08,29.25,11.83,11,22.82,22.59,37.31,30.08,15.43,8,31.89,11.37,49.17,13.39s33-1.29,48.5-7.85c9.93-4.19,20-8.12,29.92-12.24,10.77-4.46,21.57-8.88,32.19-13.66a10.06,10.06,0,0,0,4.76-5.28c7.58-21.14,14.92-42.37,22.27-63.59C715.46,465.64,718.86,451.47,717.95,436.61Zm89.23,162.1c-1.69-12.43-2.1-24.4-5.11-35.67-5.15-19.23-7.08-20-27.09-20.34-11.67-.22-16.77,3.06-20.39,14.11-1.55,4.74-2,9.85-3,15.25,9.92-3.2,10.54-4,10.59-12.47,0-1.81-.2-3.83.52-5.38.64-1.38,2.42-2.24,3.7-3.33.82,1.25,2.12,2.41,2.35,3.76a73.82,73.82,0,0,1,.55,8.66l10-1.69c0-1.32-.35-2.57.08-3.45a31.43,31.43,0,0,1,3-4.35c1,1.49,2.49,2.87,2.78,4.48,1.37,7.57,2.39,15.21,3.54,22.83a16,16,0,0,0,2.86-7.56c.34-2.89-.13-5.89.41-8.72.27-1.44,1.83-2.83,3.15-3.77.4-.28,2.43.8,2.88,1.68,2.77,5.55-1.6,20.06-7.08,23.27s-10.76,8-18.11,5c-.66-.26-1.69.59-2.56.62-2.68.09-5.36,0-8.52,0,1.79-10.84,12.29-12.49,16.81-20.78-3.64,1.23-6.57,1.89-9.2,3.18a95.4,95.4,0,0,0-12.77,7.23,10.21,10.21,0,0,0-4.08,6c-.89,6.12,11.69,16.93,17.48,14.81C781.72,597.91,793.46,595.15,807.18,598.71Zm-193-417.07c1.36,2.42,2.52,5.28,4.37,7.6,2.89,3.61,6,1,8.7-.55,6.6-3.86,9.33-13.42,6-20.12-2.14-4.35-7.38-5.64-13.19-3.57Zm134,734c-7-2.5-58-3.14-66.05-.79C704.11,917.5,726.11,918.53,748.17,915.63ZM601.9,161.83c-2,6.29-3.68,11.42-5.08,16.63-.36,1.34-.19,3.49.66,4.27.69.64,3.44.34,4.09-.48a61.48,61.48,0,0,0,7.44-11.2c1.31-2.73,1.22-6.13,1.76-9.23ZM451.16,1058.19c11.09,5.45,22.4,4.8,34.16,4.37l-15.72-9.13Zm60.69-351.94L514.7,708a159.11,159.11,0,0,0,12.73-27.32c-1.82.35-4,.88-4.6,2.16C519,690.57,515.48,698.44,511.86,706.25Zm86.41-513.34L612.83,198l-2.78-10.06ZM525,1065.22l.23,1.87,26.5-4.25-.4-2.3Z"/><path class="cls-2" d="M560.83,1050l-11.76-23.39c8.42,2.62,16.49,0,24.75-1.28s16.48-5.52,24.75,0c.91.6,2.54.38,3.78.18,7.88-1.23,15.75-2.58,23.63-3.83a36.51,36.51,0,0,1,5.42-.5c7.59-.06,15.19-.25,22.77.06,3.35.14,6.65,1.36,10,2.06a37.53,37.53,0,0,0,5.84,1.08c9.83.46,19.79,0,29.46,1.45,6.26.95,12.44,4.08,18,7.35,4.08,2.4,7.46,1,11.34.9,4.72-.15,9.85.29,14.08,2.13,2.38,1,4.2,5.26,4.67,8.29.59,3.78.41,7.2,3.44,10.43,3.58,3.83,2.75,9.09-.37,12.6-4.87,5.5-10.67,10.19-16.24,15a5.59,5.59,0,0,1-4.12,1.07c-7.62-1.33-15.08-.31-22.52,1.2a34.63,34.63,0,0,0-5.27,1.2c-4.91,1.84-9.62,2.43-14.88.65a193.81,193.81,0,0,0-22.42-6c-2.69-.57-5.9,1.27-8.58.68-13.34-3-25.63,4.68-38.76,3.54-1.45-.13-3,1.48-4.54,1.69-5.1.67-10.22,1.21-15.35,1.53-9.17.57-18.35,1.07-27.53,1.34-5.77.17-11.62.43-17.32-.3-9.65-1.25-19-1.54-28.71.48-12.24,2.55-24.73,3.39-37.31,1.18-4.34-.77-9,.28-13.52.46-18.52.71-37,1.67-55.27-3.18-7.92-2.11-11.69-7.07-12.06-15.27s-1.08-16.68-2.13-25c-1.48-11.68,6.92-19.9,18.6-17.75a42.67,42.67,0,0,0,25-2.79c5.5-2.35,10.59-1.35,16.37,0s12.69.77,18.49-1c9.81-3,19.46-1.42,29.22-1.48,7.83-.05,15.66-1.27,23.49-2l11.33,24.64c-1.59-.28-3.25-1-4.76-.76-4.64.74-9.05-5-13.74-.41a153.21,153.21,0,0,0-49.94-4.34c-6.89.34-13.82.39-20.65,1.22-1.85.23-3.4,2.85-5.09,4.37-2.68,1.08-5.47,2-8,3.28-7.08,3.6-7.55,9.23-1.23,14,1.59,1.2,3.38,2.13,5.08,3.19-.15,4.57,1.16,9,5.84,9.94,8.1,1.58,16.44,1.86,24.64,3,7.31,1,14.55,2,21.79-.39.54-.18,1.34.68,2,.69a58.4,58.4,0,0,0,8.82-.22c3.12-.45,6.28-2.46,9.21-2.1,9.3,1.16,18.46,4,27.76,4.53,11.51.61,23.13-.32,34.68-.94,12-.64,12-.83,15.09-10.92,6.62-.47,13-.95,19.4-1.36a30.09,30.09,0,0,1,4.7.05c4.13.38,8.3,1.49,12.36,1.18,6.85-.53,12.13-10.61,8.22-16.18-2.87-4.09-7.31-7.12-11.25-10.39-.73-.6-2.38-.15-3.6-.08-3,.15-5.92.3-8.88.58a39.39,39.39,0,0,0-6.86,1c-8.47,2.35-16.69,3.8-25.76,1.94C578.06,1046.67,569.14,1046.3,560.83,1050Z"/><path class="cls-3" d="M457.77,777.46l15.54-3.25c1.85,4.44,3.57,8.95,5.62,13.3,1.14,2.42,2.31,5.44,4.37,6.71a268.42,268.42,0,0,0,26,14.54c6.29,3,13.68,3.72,19.82,6.91,4.89,2.53,9.19,6,14.9,6.79,4.93.7,9.77,2,14.7,2.65a29.41,29.41,0,0,0,7.29-.49c5.22-.65,10.59-6.39,15.62.54.29.4,1.67-.07,2.52,0,3.2.36,6.39.79,10.52,1.32l-2.82,3.78c-7,.7-14,1.6-21.06,2.05-23.2,1.5-45.94-1.27-67.8-9.15-6.38-2.3-12.42-6.31-17.72-10.63-8.77-7.15-16.61-15.27-21.9-25.63-1.36-2.66-5-4.16-7.59-6.2Z"/><path class="cls-4" d="M458,569.23l-.14,3.94c-.75.31-2.08.48-2.18.93-3.36,15.14-7.06,30.23-9.71,45.5-2.21,12.75-3.12,25.72-4.72,38.58-.47,3.83.08,8.26-5.52,10.66-.69-2.28-1.93-4.38-1.87-6.45a298.66,298.66,0,0,1,14.94-86.54c1.18-3.52,2.33-8.31,8.1-4.9C456.91,571,457.61,569.83,458,569.23Z"/><path class="cls-5" d="M762.81,171.34c.15.29.34,1.47,1,1.86,9.32,5.51,10.79,14.48,2.37,21.05a97.79,97.79,0,0,1-21.27,12.14c-7,3-15.94-2.21-17.27-9.66-.38-2.15,1.59-5.74,3.57-7.11,6.74-4.65,13.93-8.65,21-12.79C755.2,175.11,758.35,173.65,762.81,171.34Zm-6.5,10.58c-9.05-.12-14.47,6.22-20.82,10.53-1.19.81-1.92,4.57-1.14,5.45,1.22,1.38,4.46,2.61,5.87,1.92C747.77,196.15,755.14,192,756.31,181.93Z"/><path class="cls-6" d="M718.59,104.87c3.37,3,6.9,5.15,9.15,8.27,2.6,3.6,1.84,8.05-1.37,11-6.94,6.44-14.15,12.59-21.5,18.56-3.94,3.2-8.44,1.84-12.31-.41-1.42-.83-3-3.48-2.68-4.86,2.2-9.21,2.89-19.5,14.33-23.14,1.56-.5,2.54-2.62,4-3.58C711.22,108.85,714.37,107.24,718.59,104.87Zm-5.22,17.69c-.68-.26-1.71-1-2.62-.92-6.79.85-11.53,4.87-14.68,10.62a7,7,0,0,0,0,5.89c.72,1.21,3.47,2,5.09,1.72C704.9,139.2,713.59,126.89,713.37,122.56Z"/><path class="cls-6" d="M603.27,124.11c-3.8,4.9-8.74,5.18-11-.25A161,161,0,0,1,583.49,97c-.74-3.27,1.24-8.09,3.58-10.83,2-2.32,6.6-4.15,9.44-3.5s6.07,4.33,6.85,7.29c1.48,5.62,1.33,11.66,1.85,17.53.16-5.41-2.72-8.56-7.9-10.32-1,2.57-2.84,5.14-3,7.78-.18,4.31.68,8.68,1.21,13C596.1,122.44,598.39,124.93,603.27,124.11Z"/><path class="cls-5" d="M486.48,159.12c-7.32.54-13.44-2.52-19-6.77-3.55-2.74-2.74-14.73.82-17.57a2.16,2.16,0,0,1,.44-.33c9.16-4,16.19,1.12,23.12,5.74,7.52,5,9.45,9.54,7.5,15.87-.25.82-1.33,1.39-2,2.08-.83-2.06-1.08-5.13-2.59-6-8.31-4.76-17.57-6.12-27.23-6,5.16,4,10.57,7.42,16,10.91C484.53,157.66,485.49,158.41,486.48,159.12Z"/><path class="cls-4" d="M736.74,409.63c-1.28,2.74-2.25,7.61-3.88,7.84-5.33.76-3.21-4.31-3.85-7.08-1.4-6-2.39-12.18-3.88-18.2-1.7-6.87-4.8-13-10.63-17.43-1.93-1.48-4.41-3.48-1.75-6.31s4.55-.55,6.52,1.11c10.92,9.18,13.07,22.32,15.9,35.15a26.57,26.57,0,0,1,.25,4.36Z"/><path class="cls-4" d="M404,786.14a35.56,35.56,0,0,0,4.55,2.57c5.72,2.24,11.51,4.32,17.26,6.48a3.76,3.76,0,0,1,2.36,1.85c-18.55,2-34.62-3.8-49.87-12.47-1.25-.71-2.73-3.07-2.39-4.13,1.24-4,4.62-1.94,7.27-1.9l-.07-.09,2.29,1.16-.09-.05L396.42,784l-.06,0,3.36,1.12-.06,0,4.45,1.11Z"/><path class="cls-7" d="M603.27,124.11c-4.88.82-7.16-1.67-7.71-6.18-.53-4.33-1.39-8.69-1.21-13,.11-2.64,1.92-5.21,3-7.78,5.18,1.76,8.06,4.91,7.9,10.32.23,2.45.92,5,.59,7.33C605.36,117.95,604.14,121,603.27,124.11Z"/><path class="cls-7" d="M486.48,159.12c-1-.71-1.94-1.46-3-2.11-5.39-3.49-10.8-7-16-10.91,9.66-.08,18.91,1.29,27.23,6,1.51.86,1.76,3.94,2.59,6l.08-.05-1.28,1Z"/><path class="cls-4" d="M394.22,773l-4.48-.95.52-1.73,5,2.48A3,3,0,0,1,394.22,773Z"/><path class="cls-4" d="M457.19,592l-.54,2.83Z"/><path class="cls-4" d="M441.38,787.85l0-1.43,1.23,1.11Z"/><path class="cls-4" d="M455.8,597.84l-.25,1.25Z"/><path class="cls-5" d="M496.16,159.1l1.28-1Z"/><path class="cls-8" d="M717.95,436.61c.91,14.86-2.49,29-7.3,42.92-7.36,21.22-14.7,42.45-22.27,63.59a10.06,10.06,0,0,1-4.76,5.28c-10.63,4.79-21.42,9.2-32.19,13.66-10,4.13-20,8.06-29.92,12.24-15.54,6.55-31.16,9.87-48.5,7.85s-33.74-5.41-49.17-13.39c-14.5-7.5-25.48-19.12-37.31-30.08-10.13-9.39-8.42-19-6.08-29.25,4.63-20.26,10-40.36,15.51-60.41,4.55-16.51,9.57-32.89,14.74-49.22,3.82-12.08,12-20.15,24-24.42,5.16-1.83,10-5,15.22-6.11,18.43-3.75,36.51-9.38,55.84-8,23.78,1.75,47.26,5,70.11,11.71,29.52,8.72,39.86,21.94,42,52.64C718.17,429.29,717.95,433,717.95,436.61ZM580.31,402.25l.84,1c-3,3.43-6.28,6.66-8.85,10.39-.94,1.37-.21,3.89-.25,5.89,1.84-.64,4.1-.81,5.46-2,5.87-5.18,11.39-10.76,17.22-16,4.86-4.36,4.64-8.61-1.49-10.84-9.85-3.58-20.12-5.83-30.63-3.68-3,.62-5.67,3.11-8.75,4.89,7,8.57,14.78-.54,21.33,3.37-4.4,2.58-8.84,4.74-12.69,7.67-1.35,1-1.26,3.93-1.83,6,2.06.18,4.44,1.12,6.11.4C571.45,407.36,575.82,404.67,580.31,402.25Zm123.5,20.49,1.17.62c0-1.27,0-2.53,0-3.8-.17-3.94-4.3-8.2-8.13-8.15-5,.07-5.52,3.57-5.73,7.58-.69,12.74-6.72,22.7-17,29.89-26.58,18.65-55.1,22.21-85.15,9.56a189.19,189.19,0,0,1-27.72-14.13c-3.78-2.39-5.77-3.23-8.51.19-2.88,3.59-1.39,6.5,1.85,8.8a40.1,40.1,0,0,0,4.78,2.61c-3,12-6.27,23.56-8.73,35.31-3.3,15.72-4.39,31.5,1.52,47,7.49,19.65,27,28.21,46.44,20.25a73.81,73.81,0,0,0,30.79-23.94c15-19.43,27-40.58,37.31-62.78.45-1,1.2-2.17,1-3.06-1.09-4.34,1.92-5.67,4.83-7.31,13.81-7.79,23.6-18.8,27.71-34.47C700.63,425.32,702.58,424.12,703.81,422.73ZM662.1,400c-2.45-10.1-10.67-7-16.32-9.74,6.82-1.76,14.33.24,20.2-6.6-3.52-.63-6.4-1.94-8.95-1.45-7.81,1.49-15.73,3-23.17,5.74-8.51,3.1-8.55,6.11-1.4,12,3.95,3.23,7.79,6.57,11.63,9.92,2.57,2.24,5,4.6,8.37,7.63,1.93-9.5-4.64-13.33-8.57-18.67Z"/><path class="cls-9" d="M591.82,830.3l2.82-3.78c-4.14-.53-7.33-1-10.52-1.32-.85-.1-2.23.37-2.52,0-5-6.93-10.39-1.2-15.62-.54a29.41,29.41,0,0,1-7.29.49c-4.93-.64-9.77-2-14.7-2.65-5.71-.81-10-4.25-14.9-6.79-6.15-3.19-13.53-3.93-19.82-6.91a268.42,268.42,0,0,1-26-14.54c-2.07-1.28-3.23-4.29-4.37-6.71-2-4.35-3.76-8.86-5.62-13.3,3.86-2.23,8.4-3.78,11.46-6.82,15.08-15,25.58-33.26,35.63-51.76A375.57,375.57,0,0,0,551.26,642c.2-.67.52-1.31.84-2.1,1.39.08,2.64.13,3.89.23,17.1,1.35,26.18-7.08,26.69-24.82,0-1.46-.1-2.92-.16-4.38q.39-.32.76-.66c3.23,5.5,6.35,11.05,9.71,16.47,5.48,8.86,12.95,12.44,22.83,8.84,10.39-3.78,20.14-9.34,30.15-14.15,1.64-.79,3.19-1.76,4.78-2.64,2.41,2.44,2.16,4.64.3,7.56a26.49,26.49,0,0,0-3.13,9.06c-1,5.13-1.38,10.38-2.29,15.54-1.35,7.62-2.42,15.35-4.54,22.77-2.67,9.37-6.27,18.44.81,27.45.57.73.32,2.11.45,3.19.87,7.36,1.65,14.74,2.63,22.08.48,3.58.51,7.58,2.19,10.57,3.35,6,4.21,11.59,1.87,18.06-1.69,4.67-1.73,10.08-4,14.36-3.61,6.82-8.58,12.9-12.74,19.45-2.32,3.65-5.63,7.5-5.91,11.45-.69,9.7-8.83,10.22-14.67,13-4.54,2.19-12.61,10.06-13.28,15.55Z"/><path class="cls-10" d="M598.42,828.9c.68-5.49,8.74-13.36,13.28-15.55,5.85-2.82,14-3.34,14.67-13,.28-3.94,3.59-7.8,5.91-11.45,4.16-6.55,9.13-12.63,12.74-19.45,2.27-4.29,2.31-9.69,4-14.36,2.35-6.47,1.48-12.11-1.87-18.06-1.68-3-1.71-7-2.19-10.57-1-7.35-1.76-14.72-2.63-22.08-.13-1.08.12-2.46-.45-3.19-7.08-9-3.48-18.08-.81-27.45,2.12-7.42,3.19-15.14,4.54-22.77.91-5.15,1.28-10.4,2.29-15.54a26.49,26.49,0,0,1,3.13-9.06c1.86-2.93,2.12-5.12-.3-7.56L674,600.52l13.9,3.5c2,31.33,5.56,62.67,5.43,94-.14,34.12-9.42,66.67-33.45,92.12C643.07,808,623.71,823.61,598.42,828.9Z"/><path class="cls-11" d="M560.83,1050c8.31-3.7,17.23-3.33,25.55-1.62,9.07,1.86,17.29.41,25.76-1.94a39.39,39.39,0,0,1,6.86-1c3-.27,5.91-.42,8.88-.58,1.22-.06,2.87-.52,3.6.08,3.94,3.27,8.38,6.3,11.25,10.39,3.91,5.57-1.37,15.65-8.22,16.18-4.06.31-8.23-.79-12.36-1.18a30.09,30.09,0,0,0-4.7-.05c-6.39.41-12.78.89-19.4,1.36-3.13,10.08-3.12,10.27-15.09,10.92-11.55.62-23.17,1.55-34.68.94-9.3-.49-18.46-3.36-27.76-4.53-2.93-.37-6.09,1.65-9.21,2.1a58.4,58.4,0,0,1-8.82.22c-.68,0-1.48-.86-2-.69-7.24,2.36-14.48,1.39-21.79.39-8.2-1.12-16.54-1.4-24.64-3-4.68-.91-6-5.37-5.84-9.94,1.79,1.36,3.41,3.05,5.39,4,3.78,1.84,7.77,4.67,11.64,4.61,11.81-.18,23.62-1.35,35.4-2.5,14.47-1.41,28.91-3.19,43.37-4.81,6.9,3.25,7.91,2.9,9.27-3.14C560.61,1063.84,563.45,1057.72,560.83,1050Z"/><path class="cls-12" d="M485.27,602.85c4.61,7.2,8.44,15.08,14,21.44,9.08,10.38,16,11,28.12,4.62,2.26-1.19,4.42-2.56,6.74-3.92l5.92,9.47C526,661.88,505.42,681,473,684.4c.72-4.9.48-10.24,2.44-14.58s2.85-7.61,1.15-10.08c1.36-4.4,2.54-7.47,3.24-10.64,1-4.28,1.1-8.77,2.4-12.92,2.9-9.31,3.23-18.68,2.12-28.25C484.15,606.3,484.93,604.55,485.27,602.85Z"/><path class="cls-13" d="M485.27,602.85c-.34,1.7-1.12,3.44-.93,5.08,1.11,9.57.78,18.94-2.12,28.25-1.29,4.15-1.44,8.65-2.4,12.92-.71,3.17-1.88,6.24-3.24,10.64,1.7,2.47.76,5.88-1.15,10.08s-1.72,9.68-2.44,14.58c-5.08.23-10.16.65-15.23.63-4.07,0-3.1-3.35-3-5.71.56-27.77,3.75-55.19,11.27-82,2.11-7.5,3.83-15.12,6.22-24.61,1.8,2.66,3.11,4,3.75,5.66C479.15,586.48,482.18,594.68,485.27,602.85Z"/><path class="cls-2" d="M685.24,572.06a101.88,101.88,0,0,1-31.38,32.83c-9.23,6.17-18.94,11.61-28.47,17.32a40.1,40.1,0,0,1-5.43,2.6c-12.24,5-15.61,4.75-21.93-7.16-3.66-6.91-8-13.47-12-20.2,8.6.32,17.23,1.26,25.79.8,9-.49,17.83-2.33,26.74-3.61a1.88,1.88,0,0,0,.89-.61,40.93,40.93,0,0,1,13.49-9.3C663.63,580.22,673.62,574.13,685.24,572.06Z"/><path class="cls-14" d="M807.18,598.71c-13.72-3.57-25.45-.8-37.18,3.48-5.79,2.11-18.37-8.69-17.48-14.81a10.21,10.21,0,0,1,4.08-6,95.4,95.4,0,0,1,12.77-7.23c2.63-1.29,5.57-2,9.2-3.18-4.52,8.3-15,9.95-16.81,20.78,3.16,0,5.85.06,8.52,0,.87,0,1.9-.89,2.56-.62,7.35,2.93,12.57-1.8,18.11-5s9.85-17.72,7.08-23.27c-.44-.88-2.48-2-2.88-1.68-1.32.93-2.87,2.32-3.15,3.77-.54,2.83-.07,5.84-.41,8.72a16,16,0,0,1-2.86,7.56c-1.15-7.61-2.17-15.25-3.54-22.83-.29-1.61-1.82-3-2.78-4.48a31.42,31.42,0,0,0-3,4.35c-.42.88-.08,2.13-.08,3.45l-10,1.69a73.82,73.82,0,0,0-.55-8.66c-.23-1.35-1.53-2.51-2.35-3.76-1.28,1.09-3.05,1.95-3.7,3.33-.72,1.54-.51,3.56-.52,5.38-.05,8.47-.66,9.28-10.59,12.47,1-5.4,1.43-10.52,3-15.25,3.62-11.05,8.72-14.33,20.39-14.11,20,.37,21.95,1.11,27.09,20.34C805.08,574.31,805.49,586.28,807.18,598.71Z"/><path class="cls-15" d="M457,754.54l5.07-5.17c1.5.71,4,2.38,4.37,2,5.21-5.27,13-8.31,14.73-16.7.29-1.39,1.82-3.4,3-3.56,5.4-.74,4.47-4.64,4.61-8.11l6.23,1.58,7.53-13.72,6.93-1.5c2.5,3.36,1.66,6.24-.64,9.52-8.88,12.69-17.46,25.6-26.26,38.36-3.71,5.39-8.71,8.09-15.54,8.71-17.36,1.58-34.63,1.77-51.91-.68.42-6.7,5.78-12.08,14.11-14.15l4.34.93,23.42-.93-1,2.6-1.51,2.76-1,1.67.56.36,1.19-1.4Z"/><path class="cls-16" d="M542.68,599.68c-.29,1.6,0,3.68-1,4.73-6.66,7.56-13.94,14.52-23.59,18.07-2.15.79-5.79.7-7.33-.62-4.46-3.85-9.12-8-12.06-13a135.18,135.18,0,0,1-17.47-49c1,.29,2.25.32,3,.91,3.74,2.78,7.44,5.63,11,8.64,2.6,2.2,6.89,4.55,7.05,7.06A13.72,13.72,0,0,0,512,588.55a53.52,53.52,0,0,1,16.63,8.31C532.09,599.44,537.91,598.85,542.68,599.68Z"/><path class="cls-17" d="M685.24,572.06c-11.62,2.07-21.61,8.16-32.27,12.67a40.93,40.93,0,0,0-13.49,9.3,1.88,1.88,0,0,1-.89.61c-8.91,1.28-17.79,3.12-26.74,3.61-8.56.47-17.19-.47-25.79-.8l-3.84-2.84.82-1.16c4.64-.38,9.54.07,13.87-1.3q22.08-7,43.8-15.06c15.45-5.78,30.67-12.19,46.6-18.56v8l-.86,3.63Z"/><path class="cls-18" d="M542.68,599.68c-4.77-.83-10.59-.25-14.08-2.82A53.52,53.52,0,0,0,512,588.55a13.72,13.72,0,0,1-9.61-12.07c-.17-2.51-4.45-4.86-7.05-7.06-3.56-3-7.26-5.85-11-8.64-.8-.59-2-.62-3-.91l-1.62-15.67,1-.84c19.26,24.6,44.44,39.37,75.46,47.11Z"/><path class="cls-15" d="M549.93,610.28c2.51-2.86,5-5.76,7.55-8.56,3.6-3.92,8.22-3.95,11.93-.15,6.39,6.53,7.16,17.58,1.8,25.56-4.71.29-9.44,1-14.11.71a15.51,15.51,0,0,1-8.2-3.12c-1.11-.87-1.38-4.88-.4-5.92C551.15,616,550.47,613.27,549.93,610.28Z"/><path class="cls-19" d="M551.71,227.86c5.85-15.17,11.66-30.37,17.62-45.5.7-1.79,2.24-3.25,3.39-4.87l.58.51c-1.15,4.36,0,9.09,3.67,10.43,4.07,1.46,9.09.27,13.7.24l.17-1.74,4.7,5.23c-5.56,0-10.51-.77-15.09.22a27.62,27.62,0,0,0-11.95,5.83c-5.83,5.1-4.34,13.06,3,15.73,5,1.83,10.62,2,16,2.84v1.54c-6.61,1.1-13.37,1.66-19.77,3.47-5.27,1.49-10.13,4.45-15.17,6.76A8.11,8.11,0,0,0,551.71,227.86Z"/><path class="cls-15" d="M614.15,181.64,620.05,165c5.81-2.07,11-.77,13.19,3.57,3.3,6.7.57,16.26-6,20.12-2.66,1.56-5.81,4.16-8.7.55C616.67,186.93,615.51,184.06,614.15,181.64Z"/><path class="cls-20" d="M587.43,218.35V216.8L599.92,212c-3.19-4.75-6-5.75-11.07-4.42s-10.49.05-16.58-.09c2.44-6,6.6-7.55,10.33-7.27a135.65,135.65,0,0,1,23.45,3.92c2.31.6,3.82,4.28,5.7,6.55-2.19,1.62-4.17,4.08-6.62,4.7C599.35,216.82,593.34,217.4,587.43,218.35Z"/><path class="cls-21" d="M429.19,751.09c-8.33,2.08-13.69,7.45-14.11,14.15l-19.91-1.84,17.56-19.67,1.76,1.3-4.33,7.32c2.53-.19,4.95.31,6.54-.62,4.73-2.74,9.12-6.06,13.7-9.08a21.06,21.06,0,0,1,3.33-1.47l-.07-.06Z"/><path class="cls-21" d="M488.75,723c-.13,3.47.79,7.38-4.61,8.11-1.17.16-2.7,2.18-3,3.56-1.76,8.39-9.52,11.43-14.73,16.7-.39.39-2.86-1.28-4.37-2,6.06-4,9.28-10.23,12.89-16.17s7.36-12,10.76-17.59Z"/><path class="cls-22" d="M748.17,915.63c-22.06,2.9-44.06,1.87-66.05-.79C690.15,912.49,741.2,913.13,748.17,915.63Z"/><path class="cls-19" d="M573.56,176.2c4.95-6.21,9.64-12.72,17.6-15.57,3.43,7.11-2.54,18.89-8.84,20.46L574.48,177Z"/><path class="cls-14" d="M601.9,161.83h8.86c-.54,3.1-.45,6.5-1.76,9.23a61.48,61.48,0,0,1-7.44,11.2c-.65.82-3.4,1.12-4.09.48-.85-.78-1-2.93-.66-4.27C598.22,173.25,599.95,168.12,601.9,161.83Z"/><path class="cls-22" d="M451.16,1058.19l18.44-4.76,15.72,9.13C473.56,1063,462.25,1063.64,451.16,1058.19Z"/><path class="cls-22" d="M719.31,897.3c12.72-.19,25.5-3.22,38.14.12l.41,2.23q-8.36,2-16.71,4c-.33.08-.89.08-1.05-.12-5.66-7.13-13.56-4.26-20.72-4.68Z"/><path class="cls-21" d="M457,751.09l-23.42.93,14.06-10.15c.69.94,1.61,3.49,3.11,3.89s3.53-1.45,5.39-2.12a43.41,43.41,0,0,1,4.57-1.14l.89,1.22-3.78,6.21-1,1.19Z"/><path class="cls-2" d="M549.93,610.28c.54,3,1.21,5.73-1.42,8.51-1,1-.71,5.05.4,5.92a15.51,15.51,0,0,0,8.2,3.12c4.67.29,9.41-.42,14.11-.71-6.67,5.62-18.87,5.91-24.47-.19-1.72-1.88-1.95-6-1.39-8.85S548.33,612.86,549.93,610.28Z"/><path class="cls-13" d="M511.86,706.25c3.62-7.81,7.12-15.68,11-23.38.64-1.28,2.78-1.81,4.6-2.16A159.11,159.11,0,0,1,514.7,708Z"/><path class="cls-21" d="M687.93,604l-13.9-3.5,13.9-15.07Z"/><path class="cls-23" d="M598.26,192.92l11.79-5L612.83,198Z"/><path class="cls-22" d="M528.09,1046.42c4.69-4.55,9.1,1.15,13.74.41,1.51-.24,3.17.48,4.76.76l1.66,3.29-.6,1.4Z"/><path class="cls-11" d="M509.43,709.34l-6.93,1.5L506.36,697C508.59,701.62,512.91,704.51,509.43,709.34Z"/><path class="cls-24" d="M525,1065.22l26.34-4.68.4,2.3-26.5,4.25Z"/><path class="cls-23" d="M452.41,1047.67c1.69-1.52,3.24-4.14,5.09-4.37,6.83-.84,13.76-.88,20.65-1.22Z"/><path class="cls-22" d="M553.29,1066.28c-1.36,6-2.38,6.39-9.27,3.14Z"/><path class="cls-25" d="M719.31,897.3l.06,1.58-16.64,1.78-.18-1.47Z"/><path class="cls-4" d="M387.54,770.87l-3.41-1.17.73-1.47,2.79,2.52Z"/><path class="cls-2" d="M686.43,570.19l.86-3.63Z"/><path class="cls-9" d="M582.53,610.93l-.3-1.87,1.06,1.21Q582.91,610.61,582.53,610.93Z"/><path class="cls-19" d="M552.48,228.58l-1,.6c.07-.44.14-.88.21-1.32A8.27,8.27,0,0,1,552.48,228.58Z"/><path class="cls-4" d="M387.66,770.75l.43.31-.55-.19Z"/><path class="cls-15" d="M456.78,751.12l1-1.19Z"/><path class="cls-19" d="M572.72,177.5l.85-1.3.91.81-1.18,1Z"/><path class="cls-21" d="M433.75,741.19l.35-.57c0,.12.06.29,0,.34a1.29,1.29,0,0,1-.42.17Z"/><path class="cls-7" d="M756.31,181.93c-1.17,10-8.54,14.23-16.09,17.91-1.41.69-4.66-.54-5.87-1.92-.78-.89,0-4.65,1.14-5.45C741.84,188.14,747.26,181.8,756.31,181.93Z"/><path class="cls-7" d="M713.37,122.56c.22,4.33-8.47,16.64-12.16,17.31-1.62.3-4.38-.51-5.09-1.72a7,7,0,0,1,0-5.89c3.15-5.76,7.88-9.78,14.68-10.62C711.66,121.52,712.69,122.3,713.37,122.56Z"/><path class="cls-26" d="M703.81,422.73c-1.24,1.39-3.18,2.59-3.6,4.19-4.11,15.67-13.89,26.68-27.71,34.47-2.91,1.64-5.92,3-4.83,7.31.22.88-.52,2.08-1,3.06-10.29,22.2-22.34,43.35-37.31,62.78a73.81,73.81,0,0,1-30.79,23.94c-19.41,8-39-.59-46.44-20.25-5.91-15.52-4.82-31.29-1.52-47,2.46-11.75,5.74-23.34,8.73-35.31a40.1,40.1,0,0,1-4.78-2.61c-3.24-2.3-4.72-5.2-1.85-8.8,2.74-3.43,4.73-2.58,8.51-.19A189.19,189.19,0,0,0,589,458.44c30.05,12.65,58.57,9.1,85.15-9.56,10.26-7.2,16.29-17.16,17-29.89.22-4,.71-7.51,5.73-7.58,3.83-.05,8,4.21,8.13,8.15.06,1.26,0,2.53,0,3.8ZM562.05,480.2c4,1.2,7.64,2.58,11.37,3.31,11.46,2.24,22.9,4.81,34.48,6.17,12.39,1.45,21.06-5.5,29.14-15.23-25.45,3.61-47.78-2.52-69.12-14.88Z"/><path class="cls-27" d="M580.31,402.25c-4.49,2.42-8.86,5.11-13.53,7.11-1.67.72-4.05-.22-6.11-.4.57-2,.48-5,1.83-6,3.86-2.93,8.29-5.1,12.69-7.67-6.55-3.9-14.28,5.21-21.33-3.37,3.08-1.78,5.73-4.27,8.75-4.89,10.51-2.15,20.78.1,30.63,3.68,6.14,2.23,6.36,6.48,1.49,10.84-5.83,5.23-11.34,10.81-17.22,16-1.36,1.19-3.61,1.36-5.46,2,0-2-.7-4.52.25-5.89,2.57-3.72,5.85-7,8.85-10.39l.43-1.08Z"/><path class="cls-4" d="M662.1,400l-18.2-1.21c3.93,5.34,10.5,9.17,8.57,18.67-3.32-3-5.8-5.39-8.37-7.63-3.84-3.35-7.69-6.7-11.63-9.92-7.15-5.85-7.11-8.87,1.4-12,7.44-2.71,15.35-4.25,23.17-5.74,2.54-.48,5.43.82,8.95,1.45-5.87,6.84-13.38,4.85-20.2,6.6C651.43,393,659.66,389.93,662.1,400Z"/><path class="cls-1" d="M457,754.54l-1.75,2.55a9.15,9.15,0,0,0-.75-.64l1.51-2.76Z"/><path class="cls-1" d="M455.23,757.08l-1.19,1.4-.56-.36,1-1.67A9.15,9.15,0,0,1,455.23,757.08Z"/><path class="cls-28" d="M562.05,480.2l5.87-20.64c21.34,12.36,43.67,18.49,69.12,14.88-8.08,9.73-16.75,16.68-29.14,15.23-11.58-1.36-23-3.93-34.48-6.17C569.69,482.77,566.1,481.39,562.05,480.2Z"/><path class="cls-8" d="M580.31,402.25l1.27,0-.43,1.08Z"/></g></svg>