<svg id="PANEL_1" data-name="PANEL 1" xmlns="http://www.w3.org/2000/svg" viewBox="0 0 1200 1200"><defs><style>.cls-1{fill:#2d7f9a;}.cls-2{fill:#30819b;}.cls-3{fill:#33839c;}.cls-4{fill:#31829b;}.cls-5{fill:#2f819a;}.cls-6{fill:#38869f;}.cls-7{fill:#2a7e98;}.cls-8{fill:#277c97;}.cls-9{fill:#bbe9f9;}.cls-10{fill:#a1daeb;}.cls-11{fill:#fad70d;}.cls-12{fill:#f8d70f;}.cls-13{fill:#f4d412;}.cls-14{fill:#f6d40e;}.cls-15{fill:#c8eefb;}.cls-16{fill:#f7d713;}.cls-17{fill:#f8fafb;}.cls-18{fill:#b6e7f7;}.cls-19{fill:#a3dbec;}.cls-20{fill:#f8fbfc;}.cls-21{fill:#c3edfb;}.cls-22{fill:#c7effb;}.cls-23{fill:#f4f8f9;}.cls-24{fill:#f2f7f8;}.cls-25{fill:#ebf2f4;}.cls-26{fill:#fefefe;}.cls-27{fill:#fdfdfd;}.cls-28{fill:#fafbfc;}.cls-29{fill:#f6f9fa;}.cls-30{fill:#297d98;}</style></defs><title>PANEL_01</title><g id="LETTERS"><path class="cls-1" d="M456.81,801.44q0-25.11,0-50.22c0-1.28-.41-2.75.1-3.78.66-1.34,2-2.33,3.11-3.47.88,1.33,2.53,2.66,2.53,4,.06,13.31-.32,26.62-.23,39.92.08,11.3.68,22.6.87,33.9,0,1.75-1,3.51-1.48,5.26-1.27-1.28-3.19-2.35-3.71-3.89-5.65-16.91-11.08-33.9-16.57-50.87-.54-1.66-1.06-3.33-1.83-5.74V826c-4.43,1.11-6.42-.74-6.47-5.85-.24-23.7-.75-47.4-.94-71.1,0-1.95,1.65-3.9,2.53-5.86,1.52,1.54,3.85,2.83,4.44,4.67,5.29,16.46,10.28,33,15.36,49.54.42,1.35.9,2.69,1.35,4Z"/><path class="cls-2" d="M394,934.94c-3.83.29-7.3.25-10.61,1-1.16.25-2.66,2.3-2.75,3.62-.72,10.35-1,20.72-1.79,31.06-.12,1.65-2,3.18-3,4.76-1.3-1.54-3.52-3-3.7-4.64-.4-3.57.28-7.25.47-10.89,1.06-20.72,2.08-41.44,3.2-62.15a31.6,31.6,0,0,1,1.38-9.15c.87-2.36,2.78-5.56,4.7-5.94s5.28,2.09,6.15,4.1c3.5,8.08,7.41,16.25,9.06,24.8,3.42,17.67,5.52,35.59,8.11,53.42a11.47,11.47,0,0,1,0,4.88c-.41,1.29-1.81,2.28-2.77,3.4-1-.94-2.8-1.76-3-2.85-1.52-8.6-2.74-17.25-4-25.88C395,941.6,394.57,938.74,394,934.94Zm-9.56-42.22-1.82.25L380.38,930l12.72-1.81Z"/><path class="cls-3" d="M292.32,877.77a25,25,0,0,1,19.05,12.54c11.88,21.73,14.63,44.56,2.75,67.3-2.9,5.56-8.11,10.1-12.84,14.47-3.93,3.63-7.51,2-7.65-3.31-.79-29.84-1.4-59.69-2-89.54C291.58,878.92,291.89,878.6,292.32,877.77Zm7.41,9v77.86C320.72,947.16,318.76,905.27,299.73,886.81Z"/><path class="cls-4" d="M271,681.35l8.07-1.64c-2.2-12.44-4.33-24.59-6.52-36.74-.42-2.32-1.57-5.2,2-5.43,1.15-.07,3.27,2.52,3.61,4.16,5.37,26.22,10.53,52.48,15.74,78.73.49,2.45,1.78,5.61-2,5.93-1.1.09-3.19-3.23-3.65-5.26-2.67-11.86-5-23.8-7.53-36.14l-8.51,1.86L278.81,721c.17.89.7,1.9.45,2.66a29.79,29.79,0,0,1-2.13,4.3c-1.2-1.06-3.18-1.94-3.47-3.21-1.77-7.62-3.08-15.35-4.68-23-3.8-18.26-7.74-36.48-11.37-54.77-.35-1.75,1.1-3.87,1.71-5.81,1.37,1.65,3.53,3.11,4,5C266.05,657.74,268.42,669.42,271,681.35Z"/><path class="cls-5" d="M331.49,716.27l-11.35-32.13c-.71-.15-1.08-.35-1.37-.27-9.24,2.51-9.18,2.51-7.74,12.1,1.11,7.36,2.17,14.73,2.94,22.12.12,1.12-1.86,3.56-2.18,3.45-1.83-.65-4.44-1.54-4.95-3-1.12-3.19-1.14-6.77-1.62-10.19-2.57-18.36-5.23-36.72-7.63-55.1a34.12,34.12,0,0,1,.3-10.81c.7-3.59,3.54-4.86,6.53-2.32s6.48,5.23,7.82,8.63c8,20.27,15.45,40.75,23.06,61.18C336.35,712.77,336.61,715.41,331.49,716.27Zm-12.2-38.77-14.53-29.25-1.94.55,4.16,33Z"/><path class="cls-1" d="M413.18,825.82c-1.52-10.08-3.07-19.73-4.4-29.41-.4-2.9-.47-5.81-4.52-4.94-3.39.73-8.18-1-7.86,5.9.38,8.33-.77,16.71-1,25.08-.06,2.75-.37,5.25-3.53,4.43-1.53-.4-3.47-3.09-3.5-4.76-.09-6,.6-12,.94-18q1.43-25.05,2.83-50.11c.06-1.09-.11-2.44.46-3.19,1.78-2.35,3.86-4.47,5.82-6.67,2.25,2.19,5.71,4,6.52,6.65a275.52,275.52,0,0,1,7.8,30.62c2.23,12,3.6,24.11,5,36.21C418.15,820.59,419.93,824.88,413.18,825.82ZM400.49,754l-2,.1-2.06,33.05,11.79-1.78Z"/><path class="cls-1" d="M336.85,516.39c.87,3.65,1.94,6.56,2.2,9.55,1.74,19.59,3.18,39.22,5,58.8.43,4.59,2,9.08,3.07,13.62l2.29-.3c.15-2.58.5-5.16.43-7.73-.66-22.22-1.44-44.43-2-66.65,0-1.37,1.48-2.78,2.27-4.16a25.58,25.58,0,0,1,4.25,3.13c.61.66.53,2.08.55,3.16q.91,34.18,1.76,68.36c.11,4.14-.88,7.74-5.28,9.16-4.78,1.54-8.79-.39-10.2-6.38a233.27,233.27,0,0,1-4.75-28.49c-1.48-13.76-2.39-27.59-3.27-41.4C333,523.73,331.42,519.72,336.85,516.39Z"/><path class="cls-2" d="M318.5,564.06c-1.49,10.84-2.42,19.68-4,28.4-1,5.34-4,9.48-10.16,9.57-5.92.09-9.51-4-10.43-8.79-2-10.62-4.15-21.51-3.88-32.23.27-10.92,3.12-21.83,5.34-32.63.84-4.09,3-8.39,8.19-8.13s7.59,4.27,8.49,8.67C314.54,541.13,316.58,553.44,318.5,564.06Zm-13.82-38.25h-2.15c-.82,2-1.77,3.91-2.44,5.93-4.35,13-5,26.48-4.35,40,.33,6.65,1.88,13.29,3.52,19.77.51,2,3.12,3.53,4.76,5.28a55.68,55.68,0,0,0,5-5.91,9.35,9.35,0,0,0,1.2-4.71c.27-12.18,1.19-24.41.3-36.51C310,541.59,306.72,533.75,304.68,525.81Z"/><path class="cls-4" d="M358.69,678.8c-1-13.95-2.1-27.89-3-41.84-.21-3.19-2.25-8.32,2.27-8.72,5.07-.45,3.15,5.15,3.42,8.1q3.08,33.7,5.59,67.45c.19,2.58-1,5.27-1.55,7.91-1.67-2.15-3.92-4.06-4.9-6.48-2.66-6.57-4.94-13.3-7.07-20.07q-7.56-24-14.73-48.16c-.37-1.26.85-3,1.33-4.51,1.22.86,3.07,1.46,3.56,2.63,1.47,3.5,2.43,7.23,3.57,10.87q5.18,16.47,10.34,32.93Z"/><path class="cls-5" d="M345.35,968.37c4,0,7.17-.31,10.19.12,1.69.24,3.2,1.73,4.79,2.66-1.47,1.06-2.83,2.79-4.42,3a71.19,71.19,0,0,1-11.45.56c-3.44,0-5.29-1.89-5.46-5.47-.43-8.74-1.15-17.47-1.44-26.22-.56-16.77-.89-33.54-1.32-50.32,0-.73,0-1.46-.07-2.19-.6-9.29-.07-9.92,9.35-9.49a36,36,0,0,1,8.6,1.45c1.22.36,2.06,2,3.08,3-1.31.76-2.6,2.12-3.94,2.17a87.93,87.93,0,0,1-9.75-.61v34.29c4.35.24,8,.11,11.49.79,1.69.33,3.09,2.21,4.61,3.38-1.56.81-3.06,2.15-4.68,2.32-3.4.36-6.86.11-11.24.11Z"/><path class="cls-4" d="M395.84,624c-2.7,5.52-8.71,2.08-13,5l6.63,29.22c3.07-.37,5.9-1,8.7-.93,2,.07,4,1.14,6,1.76-1.88,1.18-3.63,2.72-5.67,3.43-2.33.82-4.91.9-7.86,1.38l9.59,35.16a58,58,0,0,1,8.1-1.38c1.34-.05,2.73,1.09,4.1,1.7-1,1.11-1.72,2.82-2.92,3.22-3.26,1.11-6.71,2.34-10.07,2.29-6-.09-6.25-5.93-7.35-9.72-3-10.31-5-20.88-7.43-31.35-2.72-11.7-5.52-23.38-8.13-35.1-.29-1.31-.14-3.42.7-4.16C380.41,621.81,391,621.58,395.84,624Z"/><path class="cls-5" d="M271.85,549.36c1-7.64,1.67-14.5,2.8-21.29.26-1.57,2-2.9,3-4.34.86,1.68,2.59,3.44,2.44,5q-3.39,34.73-7.33,69.4c-.22,1.91-1.93,3.64-2.95,5.46-.84-2.09-2.5-4.22-2.39-6.25.59-10.35,1.11-20.75,2.75-31,1-6-1.4-10.36-4.23-14.68-4.34-6.63-9.34-12.83-13.83-19.37-.65-.94,0-2.76,0-4.17,1.65.44,4,.33,4.84,1.4C261.94,535.74,266.52,542.18,271.85,549.36Z"/><path class="cls-2" d="M452.47,901.57c-2.15,6.7-3.55,13.77-6.66,20-3.2,6.4-4,12.74-3.58,19.56.14,2.36.7,4.88.08,7.05a5.46,5.46,0,0,1-3.94,3.28c-1.09,0-2.84-2.16-3.31-3.68-.69-2.2-.41-4.69-.71-7-1-7.75,2.06-14.37,5.05-21.27a80.65,80.65,0,0,0,5.52-19.74,9.31,9.31,0,0,0-8.69-10.63c-5-.4-8,2.8-8.06,7.76,0,1.61-1.73,3.22-2.66,4.83-1.33-1.39-3.53-2.61-3.84-4.2-.94-4.82.59-9,5.09-11.69,5.81-3.5,11.71-4.13,17.48-.17C449.64,889.34,452.1,894.59,452.47,901.57Z"/><path class="cls-4" d="M268.44,927.37c0-13.66-.08-27.32.12-41,0-1.41,1.66-2.8,2.55-4.21,1.25,1.34,3.5,2.62,3.58,4,.48,8.35.64,16.73.55,25.1q-.32,29-1.07,57.95c-.05,1.93-1.64,3.82-2.52,5.73-1.3-1.65-3.67-3.26-3.73-5-.36-10.2-.19-20.41-.2-30.62q0-6,0-12Z"/><path class="cls-5" d="M482,934.47c0,5.84.22,11.69-.15,17.5-.1,1.55-2,3-3.12,4.46-1.43-1.46-3.84-2.77-4.08-4.4-.64-4.29-.09-8.74-.43-13.1-1.43-18.5-3.08-37-4.41-55.49-.13-1.84,1-5.12,2.16-5.45,3.44-1,3.78,1.93,4.15,4.68,2.35,17.21,4.84,34.39,7.28,51.59Z"/><path class="cls-6" d="M437.73,975.69l-4.42-6.18c2-1.17,4-2.79,6.14-3.26.74-.16,3.18,2.79,2.94,3.92C442,971.84,440,973.17,437.73,975.69Z"/><path class="cls-6" d="M483.78,969.89c-3.39,2-5.28,3.77-7.36,4-1.08.14-2.51-2.37-3.78-3.69,1.81-1.36,3.46-3.27,5.49-3.87C479.2,966.07,480.95,968,483.78,969.89Z"/></g><g id="MAN"><path class="cls-7" d="M801.87,580.58c-.25,21.1-.36,42.2-.81,63.3-.22,10.18-1.07,20.34-1.63,30.51,13.77.77,17.18,5.58,14.77,21.23,5.85-.81,11.56-1.34,17.17-2.42,31.18-6,56,4.06,76.06,28.46,13,15.81,16.38,34.06,17,53.42.15,4.33.57,7.53,4.43,10.67,6.79,5.51,8.45,17.92,2.69,28-5.51,9.6-8.08,19.77-10.49,30.23-1.29,5.59-4.8,9.6-10.55,10.61-6.13,1.07-10.39-2.3-13.66-7.18-5.05-7.55-4.93-15.4-1.43-23.45a8.65,8.65,0,0,0,1.08-5.19c-2,2-4.24,3.92-6.1,6.1-2.36,2.78-4.35,5.86-6.65,8.68-7.65,9.36-17,5-21.07-2.9-7.06-13.87,4.69-31.24,21.36-31.74,4.17-.13,8.35,0,12.53,0l.15-2c-4.3-.25-8.62-.91-12.88-.65-5.52.33-10.73.91-15.62-2.86A12.46,12.46,0,0,1,866.59,775c9.06-10.13,19.65-10.71,33.61-2.91,4.51,2.52,8.22,6.48,12.3,9.78l4.45,3.57c1.1-12,.38-22.68-2.67-32.94-9.63-32.35-39.3-58.38-80.36-51.09-5.92,1.05-11.85,2-17.78,3-10.57.91-10.57,11.62-17,17.11l3.69,1.76c6.19,17.5,12.68,34.91,18.47,52.55,3.6,11,5.41,22.56,9.36,33.38,4.61,12.6,1.6,25.24,1.67,37.77.07,12.86-1.59,25.87-3.85,38.56-2.6,14.55-12,24.92-24.1,32.9-2.84,1.87-5.92,3.38-9,5.1,12.72,12.56,20.47,27.51,26.17,43.95,2.81,8.1,4,16.16,1.76,24-4.31,15.17-8.62,30.49-17.91,43.69a30.93,30.93,0,0,0-1.81,3.36l-7,10c4.47-.21,7.7-.51,10.93-.49,15.86.1,31.73.19,47.58.5,4.22.08,8.34,1.7,9.07,6.38.76,4.89-3.6,6.14-7.13,7.63a10.8,10.8,0,0,1-2.6.84c-8.26,1.19-16.51,2.43-24.79,3.43-4.88.59-9.8.77-14.7,1.14a44.57,44.57,0,0,1-6.5,0c-8.35-1.15-17-1.41-24.91-4-8.52-2.84-8.4-5.63-1.45-11l9.81-13.3c5-8.46,10.71-16.58,14.83-25.44,14.39-30.94,8.93-60-14.85-83.07-2.87-2.79-5.29-3.74-9.51-2.17-11.92,4.42-23.94,8.8-37.1,7.7-8.72-.72-17.46-1.08-26.2-1.6h-1.25l.6.66c2,3,4.07,6,6,9,8.82,13.56,12.14,28,8.56,44.17a123.46,123.46,0,0,1-27.18,54l-12.59,10.56,49.44-3.88c5.11,1.73,10.47,3,15.25,5.34,3.65,1.83,5.22,6.22,1.77,9.12-3.72,3.13-8.51,6.05-13.19,6.78-13.29,2.06-26.76,3-40.17,4.31v1h33.37c-4.93,1.84-8.88,4.54-12.88,4.61-17.79.34-35.51-1-52.69-6.11-7.58-2.27-8.34-4.5-4.59-11.32.21-.39-.06-1-.11-1.58,1.38-2.41,2.34-5.26,4.25-7.14,3.06-3,6.75-5.42,10.17-8.08,25.31-16,38.06-40.05,42.13-68.77,2.48-17.5-7.79-30.59-19.4-42.07-4-3.91-9.57-6.33-14.73-8.78-12-5.72-22.22-13.84-31.57-23.12-11.67-11.59-21.65-24.41-28.2-39.65-1.86-4.52-3.76-9-5.57-13.57-3.09-7.74-6.13-15.49-9.19-23.24l-.52-1.77-.35-1.36c-2.45-10.64-5.31-21.2-7.24-31.93-2.51-13.9-4.28-27.94-6.29-41.44-6.67.39-14,2.12-20.88,1-20.58-3.41-35.45-15.89-47.45-32.37-10.1-13.87-15.74-29.71-20.94-45.79-2.06-6.38-4.15-12.75-6.46-19.85-5.45,5.74-11.61,7.41-18.48,4.29s-12.8-7.09-15-14.79c-.53-1.86-1.18-4.34-.4-5.8,2.91-5.42,3.11-11.32,4.2-17.13,1.92-10.23,12.88-19.1,25.48-20.62,4.58-.55,5.3-2.35,5.67-6.47a234.38,234.38,0,0,1,4.15-29.68,25.39,25.39,0,0,1,13.46-17.68c4.19-2.14,9-3.36,12.22.06,2.11,2.24,2.59,6.87,2.31,10.31-.33,4.07-2.14,8.06-3.54,12-1.53,4.29-3.49,8.43-5,12.73-3.9,11.43-3.7,11.67,7.82,15.09a29,29,0,0,1,16.48,12.83c4.63,7.3,1.56,18-6.66,20.44-5.71,1.71-12.13,1.12-18.25,1.38a29.81,29.81,0,0,1-5.48-.79c-3.61,32.51-3.11,63.69,20,90.14a74.71,74.71,0,0,0,29.61,20.82,28.78,28.78,0,0,0,24.4-1.09c4.5-2.3,5.43-7.35,2.34-11.41-5.61-7.36-5.51-9.41-.36-16.84,1.21-1.74,1.59-4.33,1.65-6.55.74-29.54.53-59.14,2.22-88.63,1.65-29,7.9-57.28,17.25-84.79.86-2.54,3.71-4.53,5.9-6.47,14.88-13.21,33.44-15.12,52.06-16.87,5-.47,10.62,1,14.55-4,4.21-5.27,8.4-10.58,13-15.52,1.31-1.41,4.45-2.76,5.86-2.13,4.33,1.93,2.8,5.25.56,8-3.2,3.94-6.59,7.72-9.9,11.57l1.11,1.56c1.64-1.06,3.6-1.83,4.88-3.22,7.64-8.3,15-16.89,22.72-25.07,3.86-4.08,8.64-6.45,14.35-3.3-1.63,6.61-6.91,10-11.83,14-6.07,5-11.06,11.4-16.77,17.47,4.45,2.42,6.94,2.11,9.92-1.12,5.27-5.72,11.27-10.77,17-16,2.6-2.37,5.49-3.16,8.13-.16,2.44,2.77,1.38,5.33-.92,7.71-4.43,4.57-8.8,9.19-13.49,14.09a33.06,33.06,0,0,0,4.13,1.34c16,3.1,29.47,10.71,40.81,22.28l0,0,4.39,6.58,0,0,1.13,2.24,0-.08,1.13,2.83.5,1.57,1.71,2.26-.05-.09,1.12,3.36,0-.06,1.13,2.25,0-.07,1.12,4.45,0-.07,1.12,4.46,0-.08,1.15,3.37,0-.1,1.13,5.58,0-.1,1.12,6.67Zm-15.43,126.9-1.17,1.16,0-.12-2.18,1.24v-.08l-14.71,7.09,2.68,2L786.32,731c3.82-6.22,9.37-11.26,9.42-16.36.06-6.2,3.72-8.52,6.25-12.49a62.15,62.15,0,0,0,5.92-13.52c.4-1.17-1.26-3-1.95-4.51l-18.39,22-1.13,1.46Zm-22.84,93.37-.13.16,0-.26,1.36-.81c1.63-.32,3.88-1.44,4.75-.77,1.1.84,1.68,3.25,1.4,4.79a68.21,68.21,0,0,1-2.69,8.82l8.13-5.13,2.72,8.49c4.14.19,4.82,3.22,3.33,7.39s-3.09,8.26-4.64,12.39l-.58.4c.11,0,.27,0,.32,0a1.82,1.82,0,0,0,.18-.45,30.52,30.52,0,0,1,3.67-2.11c1.52-.63,3.72-1.82,4.61-1.23,1.1.73,1.36,3,1.6,4.67a14.3,14.3,0,0,1-.46,3.75l-.06,1.25.75-.57c7.22-.79,2.76,5.67,5.1,8.69,2.29-5.31,4.56-10,6.28-14.94a7.09,7.09,0,0,0-.76-5.41c-10-15.67-20.24-31.21-30.41-46.79l-4.18-6.53-8.49-21.51-3.41,7c8.84,1.32,3.48,7.2,5.34,10.16l4.29,4.4-2.11,9.22,7.92-2q-1.67,7.68-3.34,15.37ZM685.82,1065l-13.24,1.75.08,1.94,2.65,1.71,10.45-4.43c22.06.15,44.12.25,65.85-3.87l0-2.66c-7.69-.19-15.46-1.16-23.06-.39C714.24,1060.54,700.05,1063,685.82,1065Zm126-2.53h5.39c4.84,1.64,9.65,2.74,14.28-.61,4.34-.4,8.71-.61,13-1.25s8.42-1.68,12.63-2.55l-.29-.92H788.07l-.16,1.8,13,3ZM639.1,738.6c16.74,7.71,33.46,15.46,50.28,23a5,5,0,0,0,4.34-.86c4.5-3.85,8.75-8,13.09-12l13.08-19.08c-1.15-.64-2.31-1.84-3.46-1.85-14.55-.06-29.1.06-43.64.12a98.52,98.52,0,0,1-10.26-1.18c-12.41-2.71-24.77-5.63-37.14-8.47-9.7-3.92-16.91-3.53-19.8,1.82,6.23-2.54,9.92-.75,11.17,5.45.14.68,1.22,1.29,2,1.72C625.51,731.07,632.31,734.83,639.1,738.6ZM775.75,920.36l.07.13c11.47-1.82,20.87-8,30.1-14.46,12.94-9,15.88-23.62,17.45-37.38,2.25-19.71,4.21-39.79-1.52-59.53-4.88-16.77-9-33.78-14.11-50.47-3.27-10.64-7.78-20.9-11.68-31.18l-6.32,8.5c-7.91,5.3-12.59-1.6-18-4.8-2.07,5.8-3.43,12-6.44,17.18-2,3.46-2.67,6.11-.9,9.36,6.12,11.26,12,22.69,18.63,33.63,7,11.48,14.76,22.47,22.19,33.68,2.74,4.36,2.81,8.73.54,13.38-1.67,3.4-2.87,7-4.28,10.56-2.45,5.82-4.88,11.65-7.39,17.45a5.53,5.53,0,0,1-1.57,1.7c-5.56,4.82-10.88,2.16-15.8-.94-7.68-4.83-15.08-10.1-22.6-15.18l-.17.22-1.19-1.57c-6.48-4.25-10.46-9.76-9-18,.42-1.13,1.21-2.25,1.21-3.38q.13-20.73,0-41.45c0-1.14-1.15-2.28-1.76-3.42-.32-8.17-.52-16.35-1.05-24.51-.09-1.41-1.36-3.69-2.44-3.92-7.54-1.6-13.17-5.66-16.49-11.78-6.94,7-13.75,13.79-20.46,20.66-6,6.13-12.56,7-20.31,3.34-7.38-3.46-15.08-6.2-22.65-9.26l-.11.16-2.23-1.56-4.27-1.89-10.16-4.48-26.08-15.57c-.17,1.93-.32,2.81-.32,3.7,0,36.27,5.5,71.53,18.26,105.64a161.81,161.81,0,0,0,28.36,48.82c18.53,21.73,42.43,32.78,71.05,33,9.44.06,18.88-.8,28.32-1.24l9-2.8ZM752.59,716c3-2.77,4.51-4.94,6.62-6.07,7-3.76,14.47-6.75,21.28-10.82a34.07,34.07,0,0,0,10.24-9.65c1.18-1.71-.65-5.39-.86-8.2a58.4,58.4,0,0,1,.06-7.11c1.14-23.7,2.43-47.39,3.43-71.09a118,118,0,0,0-7.85-48.31c-4.86-12.44-13.24-22.06-26.1-26.9-28.29-10.65-57.48-13-87.27-8.95-12.72,1.71-25.2,4.41-35.77,12.35-1.5,1.12-3.16,2.79-3.56,4.48-4.07,17.39-9.83,34.67-11.4,52.31-3.39,38.13-4.6,76.46-6.68,114.71a16.63,16.63,0,0,0,.33,2.94c5.79,1.69,11.22,3.2,16.61,4.85,15.42,4.75,31.1,7.94,47.32,7.87,12.41,0,24.83-.32,37.23-.06,4.34.09,8.65,1.47,14.52,2.55C736.71,716.88,744.8,713.56,752.59,716ZM921.9,791.49c-4.06,3.81-8.05,2.7-11.87-.79-2.26-2.07-4.76-3.9-6.82-6.14A26.52,26.52,0,0,0,883.71,776c-3.12-.07-6.58,1.67-9.34,3.44-1.42.92-2.67,4.11-2.11,5.53s3.41,2.47,5.37,2.7c2.47.3,5.06-.48,7.6-.65,7-.46,13.7.61,18.83,5.56a10.71,10.71,0,0,1,2.85,8.08c-.26,1.83-3.6,4.16-5.88,4.57-5.52,1-11.21,1.15-16.84,1.43-6.8.34-14.49,6.73-15.35,13.43a9.7,9.7,0,0,0,5.52,10.4c4.31,2.24,5.69-1.68,7.65-4,2.68-3.22,5-6.74,7.82-9.84,5.19-5.73,11.61-9.59,19.44-9.93,2.27-.1,6,1.37,6.63,3,.93,2.44.24,6-.88,8.52-.71,1.63-3.36,2.63-5.33,3.46-6,2.54-9.43,7.58-9.15,14,.2,4.74,4.17,10.1,7.82,10,4.89-.19,6.84-3.81,7.52-8,1.55-9.6,4.16-18.66,9-27.31C929.15,802.65,927.49,795.79,921.9,791.49ZM520,616.5l0,2.15c2.54.78,5.06,2.09,7.64,2.24,6.64.38,13.44,1.08,19.91,0,5.05-.83,5.42-4.46,2.1-8.58-4.39-5.44-10.24-8-17-9-5.87-.89-9.56-4.31-9.17-10.3a80.37,80.37,0,0,1,3-17.08c1.87-6.46,4.78-12.61,7-19,.52-1.49.07-3.33.07-5-2,.29-4.8-.14-6,1-3.12,3.13-7.16,6.61-7.95,10.54a302.52,302.52,0,0,0-4.38,34c-.67,7.77-1.7,8.76-9.39,10.83-5.62,1.51-11.45,4-15.87,7.59-2.61,2.14-4.33,7.94-3.32,11.08.8,2.48,6.38,3.42,9.86,5a2.44,2.44,0,0,0,1.09,0c4.17-.28,8.49-1.13,9.87-5.49,1.28-4.06-2.79-5.06-5.39-7-1.37-1-1.32-3.93-1.91-6,1.89-.48,3.81-1.44,5.65-1.29,1.66.14,3.22,1.49,4.82,2.3,6-7.4,13.73-10.2,22.67-7.55,2,.59,3.41,3.1,5.1,4.73-2.16,1.17-4.2,2.87-6.5,3.38C528.1,616,524,616.09,520,616.5ZM746.77,724.09c-5.09,1.51-10.74,3.28-14.35,8.63-2,3-1.58,5.79,1.08,8.27,5.77,5.36,17.25,4.75,22.26-1.21,5.43-6.45,3.08-13.57-5-15.06C749.73,724.52,748.65,724.38,746.77,724.09ZM481.33,637.52c-.61,4.25,2.38,8.1,6.22,10.12,4.07,2.14,9.06,2.74,13.74,3.29.66.08,2.69-4.09,2.43-6.07-.21-1.63-2.69-3.76-4.53-4.21C493.6,639.27,487.82,638.6,481.33,637.52Zm34.4,19.59.71-.12c.61-8.63,1.38-17.26,1.72-25.9.07-1.87-1.38-3.8-2.39-6.38-2.26,3.94-3.81,6.36-5.05,8.94-.63,1.3-1.25,3-.89,4.31C511.62,644.39,513.73,650.73,515.73,657.11Zm176.49,397.24a4.66,4.66,0,0,0-.83-.29c-.11,0-.26.16-.39.25.18.16.36.47.52.46S692,1054.51,692.23,1054.35Z"/><path class="cls-8" d="M771.37,391.33c-1.56,5.15-3.18,9.6-4.24,14.19-1.71,7.36-6.67,11.61-13.21,14.19-21,8.29-41.09,6.31-59.64-6.71-1.85-1.3-2.93-5.49-2.46-8,1.27-6.68,3.58-13.16,5.55-20-5.17-.52-9.82-.94-14.44-1.47-3.6-.42-4.63-2.63-3.53-5.84.83-2.4,1.43-5.26,3.12-6.89a11.83,11.83,0,0,1,7.2-3.07c3.55-.12,7.14,1,11.18,1.7L707,344.36c-9.49-7.09-18.87-13.92-28-21a105.73,105.73,0,0,1-25.51-29c-22.8-37.23-21.43-75.5-4-113.74A115.91,115.91,0,0,1,676,144.34c13.89-13,31-19.51,48.54-25.1,28.71-9.16,57.88-13.43,87.83-6.39,16.86,4,32,11.87,47.11,20C882.13,145.1,899,162.67,907.85,187a108.47,108.47,0,0,1,6,23.42c2.3,18.37,2.55,36.87-2.49,54.89a342.82,342.82,0,0,1-11.87,35.57c-6.72,16.69-19.4,27.53-35.67,35.14-20.91,9.79-42.25,17.07-65.64,16.43-5.23-.14-10.45-1-16.37-1.62l-6.07,22.36c3.39,1,6.39,1.57,9.21,2.63,5.73,2.16,6.88,5.3,5.12,11.83-1.42,5.27-4.83,6.32-9.62,5.27C777.6,392.35,774.73,391.93,771.37,391.33Zm.43-35.55c.72-3.72,1.21-7,2-10.12,1.34-5.41,3.41-5.85,8.76-4.83,6.55,1.25,13.49,2.33,20,1.54,20-2.44,38.94-8.76,57.27-17.47,17.32-8.23,27.59-21.44,32.9-39.26,6.08-20.37,10.09-40.85,9.3-62.44-1.17-32-12.88-57.6-40.11-75.27-22.6-14.66-46.41-25.8-74-27.23-21.79-1.13-42.53,3.65-62.77,10.45-12.14,4.08-24.65,8.92-34.95,16.28-23.81,17-34.54,42.89-40.6,70.32-4,18-1.46,36.08,5.28,53.55,6.24,16.19,15.18,30.31,28.55,41.42,7.69,6.39,15.22,13.11,23.58,18.51,7.9,5.11,13.56,10.2,9.33,20.4,0,.09.17.28.41.67a67.52,67.52,0,0,0,8.9-1.1c1.41-.35,3.27-1.73,3.63-3,3.76-13.27,7.61-26.53,10.7-40,2.25-9.76,3.51-19.76,5-29.68.86-5.7,1.31-11.46,1.87-16.59-7.53-2.21-14.38-4-21.07-6.24-10.1-3.39-14.6-11.33-15.29-21.3-.67-9.71,3.19-17.84,11.11-23.74,4-2.95,8.27-3.23,13-1.59,10.52,3.67,15.89,11.91,19,21.77,2.23,7.07,3.41,14.47,5.18,22.24,3,.2,6.39.47,9.83.64,4.1.21,6.11-1.33,7.52-5.74,2.74-8.56,6.6-16.8,10.39-25a29.16,29.16,0,0,1,5.88-7.82c5.74-5.81,14.49-7.94,19.39-5,5.74,3.39,8.55,13.35,6,21.21-.29.86-.64,1.71-1,2.55-5.15,12.32-15.18,19.29-26.94,24.17-2.83,1.17-4.16,2.48-4.82,5.63-1.69,8.11-3.9,16.13-6.15,24.12-4.85,17.2-9.9,34.34-14.79,51.53-1.17,4.12-2,8.33-3,12.39Zm-12.34-93.51-16.18,89.67c2.38-1.54,5.56-2.42,6.08-4.12q8.54-28,16.31-56.19c2.6-9.4,4.62-19,7-28.79Zm-12.74-9.42c3.89-16.81-1.7-29.5-14.79-36.26-4.06-2.1-7.16-1.47-10.25,1.72-7.31,7.56-5.84,25,5.49,28.64C733.53,249,740,250.83,746.72,252.86Zm23.22,112c-4.93-1.37-9.28-6.3-14,.26-.58.8-5.49.14-5.95-.91-2-4.51-5.54-4-9.07-3.88-7.09.27-14.17.81-21.26,1-5.08.17-7.6,2.32-7.09,6.46l55.29,5.71Zm16.78-114.37c5.33-2.1,9.14-3.26,12.63-5.06,8.83-4.55,14.27-14.63,12.4-22.35-1.42-5.86-4.28-7.68-9.37-4.76-3.45,2-7.21,5-8.67,8.5C790.73,234,789.23,241.67,786.72,250.53ZM767.46,380.8c-17.19-7.62-33.69-8.19-50.23-7.82-7.1.16-7.82,1.71-7.27,9.56a3.75,3.75,0,0,0,1,.32c17.11.52,34.23,1.1,51.34,1.4C763.67,384.29,765.07,382.46,767.46,380.8Zm-4.36,11.28H706.75L705,399.85c19.15-3.88,37.17-1.25,55.3,3.24Zm-59.43,16.69c16.49,8,31.86,7.69,47.38,1.6C735.77,406.75,720.44,405.29,703.67,408.77ZM699,376.09c-11.66-1.55-11.66-1.55-12.81,2.18C695.08,380.91,698,380.48,699,376.09Zm85.54,11.76c-1-7.62-7.41-4-10.38-7.06C773.73,385.55,775.9,386.95,784.56,387.85Z"/><path class="cls-9" d="M815,1068c4.9-.37,9.83-.55,14.7-1.14,8.28-1,16.53-2.25,24.79-3.43a10.8,10.8,0,0,0,2.6-.84c3.53-1.49,7.89-2.74,7.13-7.63-.73-4.68-4.85-6.3-9.07-6.38-15.86-.31-31.72-.4-47.58-.5-3.23,0-6.46.28-10.93.49l7-10c4.82.05,9.64,0,14.45.19,7.28.32,14.55.9,21.83,1.26,6,.29,11.91.55,17.87.55,3.22,0,6.44-.7,9.67-.81,4.45-.15,8.91,0,13.36,0,3.05,3.15,5.85,6.62,9.22,9.38,4.65,3.82,5.45,8.29,1.92,13a10.1,10.1,0,0,0-2.24,5.33c-.09,5.24-3.19,8.18-7.07,10.8-2.48,1.67-4.87,3.47-7.29,5.22-10.89,1.39-21.77,2.95-32.68,4.1-7.48.78-15,1-22.53,1.43-8.07.42-16.15,1-24.22,1-3.86,0-7.72-1.4-11.57-2.17,1.31-6.94,6.71-11.36,12.26-10.21a57.16,57.16,0,0,0,10,1.51C813.9,1079.2,816.86,1075.14,815,1068Z"/><path class="cls-10" d="M815,1068c1.84,7.17-1.11,11.23-8.42,11a57.16,57.16,0,0,1-10-1.51c-5.55-1.15-10.95,3.27-12.26,10.21l-5.33,2.41L735.11,1089c-4.87-.3-9.79-1.16-14.61-.77-7.53.62-14.91,2.39-22.52,0a18.91,18.91,0,0,0-8.67-.11c-5.84,1-11.5,2.26-16.43-2.54-.56-.55-2-.17-3-.29-5-.58-10.1-2.61-10.75-7.67a33.36,33.36,0,0,1,2.23-15.73c1.89-4.83,5.09-4.51,8.17-.16,0,.53.32,1.19.11,1.58-3.75,6.82-3,9.05,4.59,11.32,17.19,5.14,34.9,6.45,52.69,6.11,4-.08,8-2.77,12.88-4.61H706.44v-1c13.4-1.35,26.87-2.25,40.17-4.31,4.68-.73,9.47-3.65,13.19-6.78,3.45-2.9,1.88-7.29-1.77-9.12-4.78-2.39-10.14-3.61-15.25-5.34,1.57-.75,3.18-2.21,4.71-2.13,9.93.53,19.86,1.26,29.75,2.29,1.73.18,3.29,2.1,4.92,3.21-7,5.4-7.07,8.18,1.45,11,7.88,2.63,16.56,2.89,24.91,4A44.57,44.57,0,0,0,815,1068Z"/><path class="cls-11" d="M557,243.75c.05-.54.13-1.09.16-1.63.93-13.69.93-13.66,14.76-14.76a10.68,10.68,0,0,0,4.14-1.22c9.5-5.17,19.78-6.48,30.38-6.46,8,0,11.92,4,12.08,12.05a36.88,36.88,0,0,0,1.45,9c1.35,4.84-.8,8.65-5.88,9.6-12.22,2.29-24.45,4.5-36.67,6.82a78.57,78.57,0,0,0-7.89,2c-7.51,2.25-12.3-1.16-12.32-8.87,0-2.19,0-4.37,0-6.56Zm18.39,7.52c11.31-2.13,21.1-4,30.91-5.8,3.67-.67,6.3-2.38,5.87-6.41-.45-4.2-3.88-5.31-7.27-4.76-10,1.63-20,3.39-29.87,5.81-2,.5-4.67,4.22-4.49,6.23S574.1,250.07,575.39,251.27Z"/><path class="cls-9" d="M669.54,1061.7c-3.08-4.35-6.28-4.67-8.17.16a33.36,33.36,0,0,0-2.23,15.73c.65,5.06,5.71,7.09,10.75,7.67,1,.12,2.44-.26,3,.29,4.93,4.8,10.6,3.57,16.43,2.54a18.91,18.91,0,0,1,8.67.11c7.6,2.43,15,.65,22.52,0,4.82-.39,9.73.47,14.61.77-1.54,1-3.06,2.9-4.64,3-8.83.3-18.21,2-26.39-.32-9-2.58-17.4-.57-25.87-.18-13.39.61-26,.44-37.72-7.43-6-4-9.2-8.85-10-15.71a20.41,20.41,0,0,0-.56-2.39l1.07-6.58c4.46-1.58,9.37-2.66,9.87-8.72.36-.07.71-.16,1.07-.19l42-4c-3.42,2.66-7.11,5.05-10.17,8.08C671.88,1056.44,670.92,1059.28,669.54,1061.7Z"/><path class="cls-12" d="M908,390.73c-.76,9.56-9.68,19.37-19,19.54-2.38,0-5.65-2-7-4a182.32,182.32,0,0,1-12-20.38c-1.24-2.48-.52-5.89-.94-8.85-.28-1.94-.42-4.87-1.63-5.54-3.94-2.18-6.46-4.51-5.25-9.45,1.27-5.21,5-7.27,9.75-8.26,3.72-.78,7.47-1.4,11.19-2.12,5.32-1,8.47,1.1,10.64,6.06,3.75,8.55,8,16.87,11.9,25.37A56.67,56.67,0,0,1,908,390.73Zm-7.13-3.8c-.11-1.37,0-1.82-.18-2.08-5.47-8.08-10.81-16.26-16.66-24.05-.74-1-4.84-.71-6.21.41s-2.48,4.74-1.68,6.06A254.12,254.12,0,0,0,891,389.38c1.17,1.54,4.63,2.3,6.72,1.88C899.2,391,900.12,388,900.84,386.92Z"/><path class="cls-12" d="M638.9,311.18c4.64,3.77,5.23,6.82,1.68,11.52-6.36,8.41-13.11,16.43-23.11,20.88-1.78.79-3.12,2.82-4.92,3.29-3.28.86-7.23,2.22-10,1.14-4.63-1.79-8.68-5.22-12.78-8.23-3.32-2.44-3.91-5.27-.87-8.78s5-7.87,8.28-11,7.65-5.16,11.42-7.83c1.08-.77,1.69-2.18,2.66-3.16,3.24-3.28,6.05-7.35,9.93-9.54,5.71-3.22,9.56-1.23,13.15,5.1-9.06,5.26-18.27,10.29-27.07,16a3.77,3.77,0,0,0,.81,6.72c2.69,1,6.57,1.54,9,.34a142.82,142.82,0,0,0,17.55-11C636.38,315.3,637.48,313,638.9,311.18Z"/><path class="cls-13" d="M985.59,289.59c-5.47.82-12.36-2.24-18.88-7.73-3.9-3.29-9.15-5-13.83-7.36-5.31-2.66-6.91-8.26-3.68-13.12,1.8-2.71,3.59-5.43,5.45-8.11,4.25-6.11,13.68-8.19,19.9-4.15,4.19,2.72,8,6,12.18,8.78a7.79,7.79,0,0,0,4,1c11,.23,16.16,8.31,11.41,18a7.79,7.79,0,0,0-1.17,3C1001,288,995.06,289.45,985.59,289.59Zm1.07-12c1.89-1.56,4.76-2.8,5.22-4.64s-.85-5.63-2.4-6.34a185.62,185.62,0,0,0-22.86-8.72c-1.56-.48-4.91,1.63-5.85,3.4-.74,1.38.33,5.33,1.65,6C970.07,271,978,274,986.66,277.63Z"/><path class="cls-12" d="M965.73,138.15c8-.23,20.85,11.62,20.88,19,0,4.38-3.09,6.41-6.88,8.12a62,62,0,0,0-10.21,6.49c-2.05,1.48-3.6,3.68-5.71,5-4.06,2.63-8.39,4.85-12.55,7.34-8.14,4.88-10.19,1.61-18.05-7.36-1.17-1.33-1.9-3.09-3.18-4.27-4.57-4.19-3.38-10.9,2.21-13.65,2.89-1.42,5.34-3.74,8-5.65s5.45-4.19,8.36-6c4.62-2.84,9.37-5.47,14.12-8.09A13.79,13.79,0,0,1,965.73,138.15Zm6.21,21.09c-.07-5.47-4.49-8.11-8.33-5.76-8.51,5.2-16.82,10.75-25.08,16.35-2.83,1.92-4.22,4.81-1.82,8s5.29,2.78,8.25.87c7.77-5,15.58-10,23.22-15.19C970,162.28,971.14,160.17,971.94,159.25Z"/><path class="cls-14" d="M652.95,129.64c-9.95,10.43-12.46,8.43-22.75,0-6.36-5.19-11.24-12.18-16.86-18.3-2.84-3.09-3.43-6-.9-9.79,2.41-3.56,3.58-8.07,6.34-11.25,7.66-8.78,11.21-8.59,20.9.13,6.06,5.46,11.1,12,16.61,18.13,6.53,7.22,6.12,12.3-1.47,18.18-.83-2-1.24-4.34-2.59-5.86-4.92-5.53-10.15-10.79-15.27-16.14-2.6-2.72-5.85-4.68-9-1.91s-2.14,6.47.39,9.3C633,117.44,638,122.54,643,127.58,645.73,130.39,649.13,131.3,652.95,129.64Z"/><path class="cls-5" d="M617.42,827.27c3.06,7.75,6.1,15.51,9.19,23.24,1.81,4.54,3.71,9,5.57,13.57l-4-.52C638.87,889.85,656,910.69,675.28,930l-1.19,1.61c-4.32-1.94-9.31-3.06-12.85-6a104.4,104.4,0,0,1-26.19-32.39q-12.71-24.15-24.84-48.61a198.84,198.84,0,0,1-7.94-19.44c-1-2.6-2.36-6.2,1.64-7.42s5,2,6.06,5.16c1.94,5.87,4.15,11.65,6.33,17.43a25.3,25.3,0,0,0,2,3.49l1.45-.4Zm11.09,35.81.35-.37a3.08,3.08,0,0,0-.66-.31c-.08,0-.21.21-.32.32Z"/><path class="cls-15" d="M629.95,1065.94a20.41,20.41,0,0,1,.56,2.39c.79,6.86,4,11.69,10,15.71,11.75,7.87,24.33,8,37.72,7.43,8.47-.39,16.84-2.4,25.87.18,8.18,2.33,17.55.62,26.39.32,1.58-.05,3.09-1.92,4.64-3l43.89,1.11c-.71,1-1.27,2.63-2.15,2.82-6.46,1.4-13,2.59-19.49,3.67-7.27,1.2-14.54,2.69-21.86,3.18-10.78.73-21.67,1.43-32.42.75-11.37-.72-23.1-.3-33.83-5.47a5.25,5.25,0,0,0-3.1-.08c-14.42,3-26.44-2.51-36.57-11.76C624.31,1078.44,625.72,1071.65,629.95,1065.94Z"/><path class="cls-16" d="M737.36,66.51c-4.07-3.71-3.84-8.19-1.27-12.55,2.68-4.56,6.2-7.92,12.31-7,1.79.27,3.8-.89,5.71-1.39,7.62-2,12,1.44,12.22,9.17.14,6,1,11.94.94,17.9,0,2.66-1.5,5.33-2.45,7.94-.3.81-1.23,1.38-1.59,2.18-4.12,9.09-8.18,10.61-18.64,8.55C732,88.82,730.51,76.08,737.36,66.51ZM757.27,75h0c0-3.81.56-7.74-.22-11.39-.45-2.1-3.26-5.37-4.66-5.2-2.22.27-5.79,2.84-5.93,4.66a143.14,143.14,0,0,0,.19,23.35c.15,1.77,3.62,4.55,5.49,4.5s4.43-3,4.93-5.08C757.87,82.37,757.27,78.6,757.27,75Z"/><path class="cls-13" d="M880.5,112.37c-8.28-.21-13.56-1.11-16.92-6.39a3,3,0,0,0-1.17-1.11c-3.93-1.79-7.92-4.77-6-9,1.86-4.05,6-7.26,9.69-10.2s8.44-4.35,11.62-7.55c6.14-6.19,14.1-4.93,17.36,3.27,1.23,3.1,3.47,5.82,4.57,8.95.84,2.38,1.82,6.17.65,7.56C894.39,104.92,888.3,112.18,880.5,112.37Zm9.38-19.85c-1-1.41-1.7-3.71-2.85-3.94-2.07-.41-5-.33-6.48.88a42.4,42.4,0,0,0-8.7,9.74c-1,1.55-.58,5.39.68,6.53s5.11,1.18,6.59.06c3.29-2.49,5.87-5.94,8.59-9.13A22.21,22.21,0,0,0,889.89,92.52Z"/><path class="cls-15" d="M875.33,1083.4c2.43-1.74,4.82-3.54,7.29-5.22,3.88-2.62,7-5.56,7.07-10.8a10.1,10.1,0,0,1,2.24-5.33c3.53-4.73,2.73-9.21-1.92-13-3.37-2.76-6.17-6.23-9.22-9.38,5.14.31,10.36.15,15.38,1.05,7,1.26,8.7,5.06,8,12a36.92,36.92,0,0,0,1.43,13.24c1.2,4.34.31,9.62-3.66,11.8a52.18,52.18,0,0,1-24.26,6.74C876.9,1084.46,876.11,1083.77,875.33,1083.4Z"/><path class="cls-6" d="M792.54,548.84l-.5-1.57-1.13-2.83,0,.08-1.13-2.24,0,0c-.06-4.54-1.14-6.14-4.39-6.58l0,0,.35-4.57,1.17-1c2.28,2.73,5.17,5.15,6.74,8.24,6.88,13.56,11.95,27.78,13.37,43,1.27,13.6,2.28,27.22,3.17,40.84.2,3.06-.61,6.18-1,9.28l-1.57,0c-.53-4.34-1.19-8.67-1.57-13-1-11.78-1.94-23.57-3-35.35-.08-.89-.85-1.73-1.3-2.59l0,.1L800.78,574l0,.1-1.13-5.58,0,.1-1.15-3.37,0,.08-1.12-4.46,0,.07-1.12-4.45,0,.07-1.13-2.25,0,.06L794.2,551l.05.09Z"/><path class="cls-8" d="M638.9,311.18c-1.43,1.82-2.53,4.12-4.34,5.38a142.82,142.82,0,0,1-17.55,11c-2.39,1.19-6.27.7-9-.34a3.77,3.77,0,0,1-.81-6.72c8.8-5.67,18-10.69,27.07-16l-.07,0,1.4,1Z"/><path class="cls-8" d="M652.95,129.64c-3.82,1.66-7.21.75-10-2.06-5-5-9.91-10.14-14.64-15.42-2.53-2.83-3.49-6.6-.39-9.3s6.44-.81,9,1.91c5.12,5.36,10.35,10.61,15.27,16.14,1.35,1.52,1.75,3.88,2.59,5.86Z"/><path class="cls-2" d="M535.7,519.37c2.31-5,4.3-9.64,6.68-14.1.48-.9,3.08-1.78,3.51-1.38,1,.94,2.13,2.94,1.76,4a124.3,124.3,0,0,1-6,14c-.44.89-2.8,1.79-3.51,1.38C537,522.59,536.56,520.84,535.7,519.37Z"/><path class="cls-3" d="M566.16,517.29c.06,3.82-5.84,11.28-9.47,11.56a4.56,4.56,0,0,1-3.67-1.63,6.23,6.23,0,0,1-.33-4.61C554.58,517.23,560.75,514.91,566.16,517.29Z"/><path class="cls-3" d="M515.7,500.49c2.82,4.72,5.6,9,7.86,13.47.45.91-.68,3.37-1.77,4.08s-3.72,1-4.66.29C513.29,515.21,512.46,505.87,515.7,500.49Z"/><path class="cls-15" d="M640.89,1050.64c-.5,6.06-5.41,7.14-9.87,8.72C631.79,1053.6,635.57,1051.25,640.89,1050.64Z"/><path class="cls-5" d="M616.54,824.14l.35,1.36a6.28,6.28,0,0,1-.51-.87C616.34,824.5,616.49,824.31,616.54,824.14Z"/><path class="cls-12" d="M635.64,305.51l-1.4-1Z"/><path class="cls-17" d="M752.59,716c-7.79-2.4-15.88.92-21.84,4.9-5.88-1.08-10.18-2.46-14.52-2.55-12.41-.26-24.82,0-37.23.06-16.22.06-31.9-3.13-47.32-7.87-5.39-1.66-10.83-3.17-16.61-4.85a16.63,16.63,0,0,1-.33-2.94c2.07-38.25,3.29-76.58,6.68-114.71,1.57-17.64,7.33-34.92,11.4-52.31.4-1.69,2.06-3.36,3.56-4.48,10.58-7.94,23.05-10.64,35.77-12.35,29.79-4,59-1.71,87.27,8.95,12.87,4.85,21.24,14.47,26.1,26.9A118,118,0,0,1,793.37,603c-1,23.7-2.29,47.4-3.43,71.09a58.4,58.4,0,0,0-.06,7.11c.21,2.81,2,6.49.86,8.2a34.07,34.07,0,0,1-10.24,9.65c-6.81,4.08-14.26,7.06-21.28,10.82C757.1,711,755.55,713.19,752.59,716ZM644.09,574l0,0c-.67,2-1.92,3.94-1.93,5.91-.08,23.35-.63,46.73.35,70,.49,11.66,3.86,23.2,5.93,34.79,4.14,7.67,12.19,11.27,22.21,9.64,16.14-2.63,26.87-12.77,33.68-26.69a320.51,320.51,0,0,0,16.56-40.35c5.53-16.78,6.45-34.31,4.1-51.86-.26-2-2.41-3.65-3.69-5.47-1.43,1.39-3.36,2.53-4.22,4.21-3.88,7.62-7.17,15.57-11.23,23.09a28.61,28.61,0,0,1-32.5,14.09c-9.72-2.71-14.51-9.75-17.41-18.68-1.09-6.73-2-13.51-3.43-20.17-.34-1.54-2.61-2.65-4-4l-2.24,1Zm41.44-6c2.09,2.25,3.63,5.37,5.78,5.87,3,.7,5.83-1.17,6.74-4.89,1.59-6.55,3.33-13.08,5.18-19.56,1.25-4.38,3.38-8.61,3.93-13.05.27-2.2-2.13-4.74-3.32-7.12-2,1.22-4.43,2.05-5.81,3.76-1.54,1.9-2.24,4.54-3.06,6.95C691.86,549,688.86,558.07,685.53,568Zm-15.69-8.9c2,2,3.57,4.23,5.73,5.28.91.44,3.94-1.34,4.52-2.72a129.85,129.85,0,0,0,6.11-18c.39-1.58-1.44-4.56-3.06-5.51-1.17-.69-4.84.35-5.41,1.56C674.84,545.7,672.62,552,669.84,559.1Z"/><path class="cls-18" d="M659.71,758.92c7.56,3.06,15.27,5.81,22.65,9.26,7.75,3.63,14.32,2.8,20.31-3.34,6.71-6.87,13.51-13.65,20.46-20.66,3.32,6.12,8.95,10.18,16.49,11.78,1.08.23,2.35,2.52,2.44,3.92.53,8.16.74,16.34,1.05,24.51l.57,48.26c-1.43,8.22,2.55,13.73,9,18l1.19,1.56.16-.22a20.68,20.68,0,0,1-.35,2.15c-3,11-3.39,22.09-2.58,33.49.27,3.88-2.71,9.82-6,11.7-5.06,2.9-6,5.29-3.46,9.95-4.56.17-9.13.61-12.33-3.91-.67-1-2.52-1.42-3.86-1.49-3.92-.2-7.92.39-11.76-.21s-9.2-1.11-10.82-3.63c-4.61-7.2-13.59-9.83-17-18.21-2.15-5.21-3.06-12.41.81-16.55,2.64-2.82,3.76-5.58,2.42-9.3-1.72-4.76-3.12-9.64-5-14.36-4-10.18-9.26-20-12-30.48C667.65,793.83,662,776.77,659.71,758.92Z"/><path class="cls-19" d="M659.71,758.92c2.26,17.85,7.94,34.91,12.43,52.21,2.72,10.49,8,20.3,12,30.48,1.84,4.71,3.24,9.59,5,14.36,1.34,3.72.22,6.48-2.42,9.3-3.87,4.14-3,11.33-.81,16.55,3.45,8.38,12.43,11,17,18.21,1.62,2.52,7,3,10.82,3.63s7.84,0,11.76.21c1.34.07,3.19.54,3.86,1.49,3.2,4.53,7.77,4.08,12.33,3.91,3,1.17,6.09,2.1,8.93,3.55,5.44,2.77,11.11,5.47,11.93,12.65-9.44.44-18.88,1.3-28.32,1.24-28.62-.18-52.52-11.24-71.05-33a161.81,161.81,0,0,1-28.36-48.82c-12.76-34.11-18.3-69.37-18.26-105.64,0-.89.15-1.77.32-3.7l26.08,15.57c.59,4.89,4.61,6.66,10.16,4.48l4.27,1.89,2.23,1.56Z"/><path class="cls-20" d="M789.72,736l6.32-8.5c3.9,10.28,8.41,20.54,11.68,31.18,5.13,16.69,9.24,33.7,14.11,50.47,5.74,19.74,3.78,39.82,1.52,59.53-1.57,13.76-4.51,28.34-17.45,37.38-9.22,6.45-18.62,12.64-30.09,14.46,2.29-4.88,6-8.1,10.89-10.44,3-1.43,6.3-3.69,7.88-6.47,5.35-9.44,6.33-20.13,7.35-30.72.58-6,1.3-12,1.85-18,.21-2.3,1.8-5.31-2.36-5.94,1.41-3.53,2.62-7.15,4.28-10.56,2.27-4.65,2.2-9-.54-13.38-.27-2.5-.64-5-.79-7.51-.47-7.86-.79-15.72-1.31-23.57-.27-4,0-8.32-1.43-12-4.19-10.85-1.56-23.61-9.45-33.38-.36-.45,0-1.44-.14-2.14C791.3,743,790.5,739.47,789.72,736Z"/><path class="cls-21" d="M801.41,848.95c4.16.63,2.57,3.63,2.36,5.94-.55,6-1.27,12-1.85,18-1,10.6-2,21.29-7.35,30.72-1.58,2.78-4.87,5-7.88,6.47-4.92,2.34-8.59,5.56-10.89,10.44l-.07-.14-4.23,2.31-9,2.8c-.82-7.19-6.5-9.88-11.93-12.65-2.84-1.45-5.94-2.38-8.93-3.55-2.58-4.66-1.6-7,3.46-9.95,3.28-1.88,6.27-7.82,6-11.7-.81-11.4-.42-22.48,2.58-33.49a20.68,20.68,0,0,0,.35-2.15c7.52,5.08,14.92,10.34,22.6,15.17,4.93,3.1,10.25,5.76,15.8.94a5.53,5.53,0,0,0,1.57-1.7C796.54,860.6,799,854.77,801.41,848.95Z"/><path class="cls-22" d="M789.72,736c.78,3.49,1.58,7,2.32,10.49.15.7-.23,1.69.14,2.14,7.9,9.77,5.26,22.53,9.45,33.38,1.4,3.63,1.16,7.94,1.43,12,.52,7.85.84,15.72,1.31,23.57.15,2.51.52,5,.79,7.51-7.43-11.2-15.21-22.2-22.19-33.68-6.65-10.94-12.51-22.37-18.63-33.63-1.76-3.24-1.09-5.9.9-9.36,3-5.21,4.37-11.38,6.44-17.18C777.13,734.38,781.81,741.27,789.72,736Z"/><path class="cls-23" d="M921.9,791.49c5.59,4.29,7.26,11.15,3,18.87-4.8,8.66-7.42,17.72-9,27.31-.68,4.19-2.63,7.8-7.52,8-3.64.14-7.61-5.21-7.82-10-.28-6.45,3.12-11.49,9.15-14,2-.83,4.62-1.83,5.33-3.46,1.12-2.57,1.8-6.09.88-8.52-.63-1.67-4.36-3.13-6.63-3-7.84.35-14.25,4.21-19.44,9.93-2.81,3.1-5.14,6.62-7.82,9.84-2,2.36-3.34,6.27-7.65,4a9.7,9.7,0,0,1-5.52-10.4c.86-6.7,8.55-13.09,15.35-13.43,5.63-.28,11.32-.42,16.84-1.43,2.27-.42,5.61-2.74,5.88-4.57a10.71,10.71,0,0,0-2.85-8.08c-5.13-4.95-11.88-6-18.83-5.56-2.55.17-5.13.95-7.6.65-2-.23-4.81-1.27-5.37-2.7s.69-4.62,2.11-5.53c2.75-1.77,6.21-3.51,9.34-3.44a26.52,26.52,0,0,1,19.49,8.58c2.07,2.24,4.57,4.07,6.82,6.14C913.85,794.2,917.84,795.31,921.9,791.49Z"/><path class="cls-24" d="M520,616.5c4-.41,8-.51,11.94-1.36,2.3-.51,4.34-2.21,6.5-3.38-1.68-1.63-3.11-4.14-5.1-4.73-8.94-2.65-16.71.16-22.67,7.55-1.6-.81-3.16-2.17-4.82-2.3-1.83-.15-3.76.81-5.65,1.29.59,2.06.54,5,1.91,6,2.59,2,6.67,2.95,5.39,7-1.37,4.36-5.69,5.21-9.87,5.49a2.44,2.44,0,0,1-1.09,0c-3.47-1.59-9.06-2.53-9.86-5-1-3.14.71-8.94,3.32-11.08,4.42-3.63,10.25-6.07,15.87-7.59,7.68-2.07,8.72-3.05,9.39-10.83a302.52,302.52,0,0,1,4.38-34c.79-3.93,4.83-7.41,7.95-10.54,1.16-1.17,3.93-.73,6-1,0,1.68.45,3.51-.07,5-2.22,6.37-5.13,12.52-7,19a80.37,80.37,0,0,0-3,17.08c-.39,6,3.29,9.41,9.17,10.3,6.73,1,12.58,3.58,17,9,3.32,4.12,3,7.75-2.1,8.58-6.47,1.06-13.27.35-19.91,0-2.58-.15-5.09-1.46-7.64-2.24Z"/><path class="cls-9" d="M719.88,729.65,706.8,748.73c-2.46-1.61-4.73-3.71-7.42-4.69-3.48-1.28-7.41-1.33-10.93-2.53-5.65-1.92-11.08-4.13-17.1-1.13-1.44.72-3.46.52-5.19.36C658.1,740,650,739.18,642,738.38c-1.57-2.88-2.44-7-4.87-8.39-5.15-2.93-9.94-5.65-11.74-11.72,12.38,2.84,24.74,5.77,37.14,8.47a98.49,98.49,0,0,0,10.26,1.18c1.71.56,3.42,1.58,5.14,1.6C691.9,729.67,705.89,729.63,719.88,729.65Z"/><path class="cls-18" d="M642,738.38c8.06.8,16.11,1.65,24.18,2.36,1.72.15,3.75.35,5.19-.36,6-3,11.45-.79,17.1,1.13,3.52,1.2,7.45,1.25,10.93,2.53,2.68,1,5,3.09,7.42,4.69-4.34,4-8.59,8.19-13.09,12a5,5,0,0,1-4.34.86c-16.81-7.56-33.53-15.31-50.27-23Z"/><path class="cls-9" d="M705.92,1042.87c3.42-.34,6.83-.9,10.26-1,16.1-.45,32.21-.71,48.31-1.15,9.16-.25,18.32-.72,27.48-1.09l-9.81,13.3c-1.64-1.11-3.19-3-4.92-3.21-9.89-1-19.82-1.76-29.75-2.29-1.53-.08-3.14,1.38-4.71,2.13l-49.44,3.88Z"/><path class="cls-15" d="M787.2,840.91a14,14,0,0,0,.46-3.75c-.24-1.66-.5-3.94-1.6-4.67-.89-.59-3.09.6-4.61,1.23a30.52,30.52,0,0,0-3.67,2.11l.09.1c1.55-4.13,3.16-8.24,4.64-12.39s.81-7.2-3.33-7.39l-2.72-8.49-8.13,5.13A68.21,68.21,0,0,0,771,804c.28-1.54-.31-4-1.4-4.79-.87-.67-3.11.44-4.75.77q-.36-.38-.76-.73l3.35-15.37.63-.7c10.16,15.58,20.38,31.13,30.41,46.79a7.09,7.09,0,0,1,.76,5.41c-1.72,4.91-4,9.62-6.28,14.94-2.34-3,2.13-9.47-5.1-8.69Q787.56,841.24,787.2,840.91Z"/><path class="cls-18" d="M787.57,706.17l18.39-22c.68,1.47,2.34,3.34,1.95,4.51A62.15,62.15,0,0,1,802,702.2c-2.53,4-6.19,6.29-6.25,12.49,0,5.1-5.6,10.14-9.42,16.36L771.1,718.73c1.8-1.14,3.69-2.17,5.38-3.46,2.3-1.76,4.44-3.72,6.66-5.59v.08l2.18-1.24,0,.12,1.17-1.16v.15Z"/><path class="cls-21" d="M746.77,724.09c1.88.29,3,.43,4,.63,8.05,1.49,10.4,8.61,5,15.06-5,6-16.49,6.57-22.26,1.21-2.67-2.48-3.11-5.27-1.08-8.27C736,727.37,741.68,725.6,746.77,724.09Z"/><path class="cls-25" d="M817.21,1062.5h-5.39l-10.86-.56-13-3,.16-1.8h68.77l.29.92c-4.21.87-8.39,1.92-12.63,2.55s-8.67.85-13,1.25Z"/><path class="cls-25" d="M685.82,1065c14.23-2,28.42-4.51,42.71-6,7.59-.77,15.37.2,23.06.39l0,2.66c-21.74,4.13-43.79,4-65.85,3.87A3.6,3.6,0,0,0,685.82,1065Z"/><path class="cls-19" d="M642,738.38l-2.88.22c-6.79-3.77-13.59-7.53-20.37-11.34-.76-.43-1.85-1-2-1.72-1.26-6.2-4.95-8-11.17-5.45,2.89-5.35,10.1-5.74,19.8-1.82,1.8,6.06,6.59,8.78,11.74,11.71C639.54,731.36,640.41,735.49,642,738.38Z"/><path class="cls-23" d="M481.33,637.52c6.5,1.08,12.27,1.75,17.87,3.12,1.83.45,4.31,2.59,4.53,4.21.26,2-1.78,6.15-2.43,6.07-4.68-.55-9.67-1.15-13.74-3.29C483.7,645.62,480.71,641.76,481.33,637.52Z"/><path class="cls-25" d="M515.73,657.11c-2-6.38-4.11-12.72-5.91-19.15-.35-1.27.27-3,.89-4.31,1.24-2.58,2.8-5,5.05-8.94,1,2.58,2.47,4.51,2.39,6.38-.34,8.64-1.1,17.27-1.72,25.9Z"/><path class="cls-25" d="M719.88,729.65c-14,0-28,0-42-.13-1.72,0-3.43-1-5.14-1.6,14.55-.07,29.1-.18,43.65-.12C717.58,727.8,718.73,729,719.88,729.65Z"/><path class="cls-8" d="M743.68,832.66l-.57-48.26c.61,1.14,1.75,2.27,1.76,3.42q.18,20.73,0,41.45C744.89,830.4,744.1,831.53,743.68,832.66Z"/><path class="cls-25" d="M761.65,776.66l-4.29-4.4c-1.86-3,3.5-8.85-5.34-10.16l3.41-7,8.49,21.51Z"/><path class="cls-15" d="M761.65,776.66l2.27,0,4.18,6.53-.63.7-7.92,2Z"/><path class="cls-10" d="M685.82,1065a3.6,3.6,0,0,1-.06,1l-10.45,4.43-2.65-1.71-.08-1.94Z"/><path class="cls-15" d="M783.14,709.68c-2.21,1.87-4.36,3.83-6.66,5.59-1.69,1.29-3.58,2.32-5.38,3.46l-2.68-2Z"/><path class="cls-18" d="M653.1,755.63c-5.55,2.18-9.57.41-10.16-4.48Z"/><path class="cls-8" d="M817.21,1062.5l14.28-.61C826.86,1065.25,822,1064.14,817.21,1062.5Z"/><path class="cls-8" d="M801,1061.95l10.86.56Z"/><path class="cls-20" d="M771.52,922.66l4.23-2.31Z"/><path class="cls-26" d="M800.78,574l1.12,6.67Z"/><path class="cls-26" d="M799.68,568.53l1.13,5.58Z"/><path class="cls-26" d="M797.48,560.88l1.12,4.46Z"/><path class="cls-26" d="M796.39,556.5l1.12,4.45Z"/><path class="cls-26" d="M798.58,565.26l1.15,3.37Z"/><path class="cls-26" d="M794.2,551l1.12,3.36Z"/><path class="cls-9" d="M692.23,1054.35c-.24.16-.46.4-.69.41s-.35-.3-.52-.46c.13-.09.28-.26.39-.25A4.66,4.66,0,0,1,692.23,1054.35Z"/><path class="cls-15" d="M785.32,708.52l-2.18,1.24Z"/><path class="cls-26" d="M792.54,548.84l1.71,2.26Z"/><path class="cls-18" d="M659.6,759.08l-2.23-1.56Z"/><path class="cls-26" d="M790.91,544.44l1.13,2.83Z"/><path class="cls-15" d="M763.52,800.75l0,.26.13-.16Z"/><path class="cls-26" d="M789.81,542.28l1.13,2.24Z"/><path class="cls-27" d="M718.49,935.72l-.6-.66h1.25C718.94,935.28,718.72,935.5,718.49,935.72Z"/><path class="cls-15" d="M787.57,706.17l-1.13,1.46Z"/><path class="cls-15" d="M763.61,800.85l.52-1.64c.26.23.51.47.76.73l-1.36.81Z"/><path class="cls-15" d="M786.44,707.48l-1.17,1.16Z"/><path class="cls-15" d="M777.78,835.83a1.82,1.82,0,0,1-.18.45c0,.06-.21,0-.32,0l.58-.4Z"/><path class="cls-15" d="M787.9,841.59l-.75.57c0-.42,0-.84.06-1.26C787.44,841.13,787.67,841.36,787.9,841.59Z"/><path class="cls-21" d="M753.89,852.2l-1.19-1.56Z"/><path class="cls-28" d="M771.8,355.78l-10.84-4c1-4.07,1.86-8.27,3-12.39,4.89-17.19,9.94-34.33,14.79-51.53,2.25-8,4.46-16,6.15-24.12.66-3.15,2-4.46,4.82-5.63,11.76-4.88,21.79-11.86,26.94-24.17.35-.84.7-1.69,1-2.55,2.59-7.85-.21-17.82-6-21.21-4.9-2.89-13.65-.77-19.39,5a29.16,29.16,0,0,0-5.88,7.82c-3.79,8.19-7.65,16.42-10.39,25-1.41,4.41-3.42,5.95-7.52,5.74-3.43-.17-6.86-.44-9.83-.64-1.77-7.77-2.95-15.17-5.18-22.24-3.11-9.86-8.48-18.1-19-21.77-4.69-1.64-9-1.36-13,1.59-7.92,5.9-11.78,14-11.11,23.74.69,10,5.19,17.91,15.29,21.3,6.69,2.24,13.54,4,21.07,6.24-.57,5.13-1,10.89-1.87,16.59-1.5,9.92-2.76,19.92-5,29.68-3.09,13.43-6.94,26.69-10.7,40-.36,1.28-2.22,2.67-3.63,3a67.52,67.52,0,0,1-8.9,1.1c-.24-.39-.45-.58-.41-.67,4.23-10.19-1.42-15.29-9.33-20.4-8.36-5.4-15.89-12.12-23.58-18.51-13.37-11.12-22.3-25.24-28.55-41.42-6.74-17.47-9.24-35.6-5.28-53.55,6.06-27.43,16.79-53.31,40.6-70.32,10.3-7.36,22.81-12.2,34.95-16.28,20.24-6.8,41-11.59,62.77-10.45,27.61,1.43,51.43,12.58,74,27.23,27.23,17.66,38.94,43.3,40.11,75.27.79,21.59-3.22,42.08-9.3,62.44-5.32,17.82-15.58,31-32.9,39.26-18.33,8.71-37.23,15-57.27,17.47-6.53.79-13.46-.29-20-1.54-5.36-1-7.43-.59-8.76,4.83C773,348.83,772.52,352.07,771.8,355.78Z"/><path class="cls-29" d="M759.46,262.28l13.18.58c-2.36,9.82-4.38,19.39-7,28.79q-7.8,28.2-16.31,56.19c-.52,1.69-3.69,2.57-6.08,4.12Z"/><path class="cls-17" d="M746.72,252.86c-6.75-2-13.18-3.87-19.56-5.89-11.32-3.6-12.79-21.09-5.49-28.64,3.09-3.2,6.19-3.82,10.25-1.72C745,223.36,750.61,236,746.72,252.86Z"/><path class="cls-23" d="M769.94,364.9l-2.07,8.68-55.29-5.71c-.51-4.13,2-6.29,7.09-6.46,7.09-.23,14.17-.77,21.26-1,3.52-.13,7.1-.63,9.07,3.88.46,1,5.37,1.71,5.95.91C760.66,358.6,765,363.53,769.94,364.9Z"/><path class="cls-17" d="M786.72,250.53c2.51-8.86,4-16.57,7-23.67,1.46-3.48,5.22-6.53,8.67-8.5,5.09-2.92,7.95-1.09,9.37,4.76,1.87,7.72-3.57,17.8-12.4,22.35C795.86,247.27,792,248.42,786.72,250.53Z"/><path class="cls-29" d="M767.46,380.8c-2.38,1.66-3.79,3.49-5.16,3.47-17.12-.31-34.23-.88-51.34-1.4a3.75,3.75,0,0,1-1-.32c-.55-7.85.16-9.4,7.27-9.56C733.76,372.61,750.27,373.17,767.46,380.8Z"/><path class="cls-29" d="M763.1,392.08l-2.84,11c-18.13-4.49-36.16-7.12-55.3-3.24l1.79-7.78Z"/><path class="cls-25" d="M703.67,408.77c16.77-3.48,32.1-2,47.38,1.6C735.53,416.46,720.16,416.75,703.67,408.77Z"/><path class="cls-25" d="M699,376.09c-1,4.38-3.94,4.82-12.81,2.18C687.36,374.54,687.36,374.54,699,376.09Z"/><path class="cls-25" d="M784.56,387.85c-8.66-.9-10.82-2.31-10.38-7.06C777.14,383.89,783.59,380.23,784.56,387.85Z"/><path class="cls-8" d="M575.39,251.27c-1.29-1.21-4.67-2.92-4.85-4.92s2.47-5.74,4.49-6.23c9.84-2.42,19.86-4.19,29.87-5.81,3.39-.55,6.82.56,7.27,4.76.43,4-2.2,5.74-5.87,6.41C596.49,247.26,586.7,249.15,575.39,251.27Z"/><path class="cls-8" d="M900.84,386.92c-.72,1.09-1.63,4-3.08,4.33-2.09.42-5.55-.33-6.72-1.88a254.12,254.12,0,0,1-14.93-22.12c-.79-1.31.3-4.93,1.68-6.06s5.47-1.39,6.21-.41c5.85,7.79,11.19,16,16.66,24.05C900.83,385.1,900.73,385.55,900.84,386.92Z"/><path class="cls-8" d="M986.66,277.63C978,274,970.07,271,962.41,267.3c-1.32-.64-2.4-4.59-1.65-6,.95-1.76,4.29-3.88,5.85-3.4a185.62,185.62,0,0,1,22.86,8.72c1.55.71,2.87,4.46,2.4,6.34S988.54,276.07,986.66,277.63Z"/><path class="cls-8" d="M971.94,159.25c-.8.93-2,3-3.76,4.25-7.64,5.21-15.46,10.17-23.22,15.19-3,1.91-6,2.16-8.25-.87s-1-6.06,1.82-8c8.26-5.6,16.57-11.15,25.08-16.35C967.45,151.14,971.87,153.78,971.94,159.25Z"/><path class="cls-26" d="M628.51,863.08l-.63-.36c.11-.11.24-.34.32-.32a3.08,3.08,0,0,1,.66.31Z"/><path class="cls-8" d="M757.27,75c0,3.63.6,7.41-.22,10.84-.5,2.09-3.17,5-4.93,5.08s-5.34-2.73-5.49-4.5A143.14,143.14,0,0,1,746.44,63c.14-1.82,3.7-4.39,5.93-4.66,1.4-.17,4.21,3.1,4.66,5.2.78,3.65.22,7.58.22,11.39Z"/><path class="cls-8" d="M889.89,92.52a22.21,22.21,0,0,1-2.17,4.15c-2.72,3.19-5.31,6.64-8.59,9.13-1.47,1.12-5.3,1.09-6.59-.06s-1.66-5-.68-6.53a42.4,42.4,0,0,1,8.7-9.74c1.46-1.22,4.41-1.29,6.48-.88C888.19,88.81,888.93,91.11,889.89,92.52Z"/><path class="cls-8" d="M646.3,569.55l2.24-1c1.47,6.31,2.82,12.65,4.5,18.91.5,1.87,1.92,3.49,2.91,5.22,2.9,8.93,7.69,16,17.41,18.68a28.61,28.61,0,0,0,32.5-14.09c4.06-7.52,7.34-15.46,11.23-23.09.86-1.68,2.78-2.82,4.22-4.21,1.27,1.82,3.42,3.52,3.69,5.47,2.36,17.55,1.44,35.09-4.1,51.86a320.51,320.51,0,0,1-16.56,40.35c-6.82,13.92-17.54,24.06-33.68,26.69-10,1.63-18.07-2-22.21-9.64a12.36,12.36,0,0,0,.34-2.87c-1.52-13.24-4-26.45-4.45-39.73-.75-22.69-.22-45.43-.23-68.15l0,0Z"/><path class="cls-30" d="M685.53,568c3.33-9.93,6.33-19,9.43-28.05.82-2.4,1.52-5,3.06-6.95,1.38-1.7,3.83-2.54,5.81-3.76,1.19,2.38,3.59,4.92,3.32,7.12-.55,4.44-2.68,8.67-3.93,13.05-1.85,6.49-3.59,13-5.18,19.56-.9,3.72-3.75,5.59-6.74,4.89C689.17,573.37,687.63,570.25,685.53,568Z"/><path class="cls-30" d="M669.84,559.1c2.78-7.06,5-13.4,7.87-19.42.58-1.21,4.24-2.25,5.41-1.56,1.62,1,3.46,3.93,3.06,5.51a129.85,129.85,0,0,1-6.11,18c-.57,1.39-3.6,3.16-4.52,2.72C673.4,563.33,671.83,561.05,669.84,559.1Z"/><path class="cls-4" d="M644.12,574c0,22.72-.52,45.45.23,68.15.44,13.28,2.93,26.48,4.45,39.73a12.36,12.36,0,0,1-.34,2.87c-2.07-11.59-5.44-23.13-5.93-34.79-1-23.31-.43-46.69-.35-70C642.19,577.92,643.44,576,644.12,574Z"/><path class="cls-4" d="M656,592.68c-1-1.73-2.41-3.36-2.91-5.22-1.68-6.26-3-12.6-4.5-18.91,1.38,1.31,3.65,2.43,4,4C654,579.17,654.87,586,656,592.68Z"/><path class="cls-4" d="M646.3,569.55,644.09,574Z"/></g></svg>