<?xml version="1.0" encoding="UTF-8" standalone="no"?>
<svg
   xmlns:dc="http://purl.org/dc/elements/1.1/"
   xmlns:cc="http://creativecommons.org/ns#"
   xmlns:rdf="http://www.w3.org/1999/02/22-rdf-syntax-ns#"
   xmlns:svg="http://www.w3.org/2000/svg"
   xmlns="http://www.w3.org/2000/svg"
   id="svg8"
   version="1.1"
   viewBox="0 0 52.916665 52.916668"
   height="200"
   width="200">
  <defs
     id="defs2" />
  <metadata
     id="metadata5">
    <rdf:RDF>
      <cc:Work
         rdf:about="">
        <dc:format>image/svg+xml</dc:format>
        <dc:type
           rdf:resource="http://purl.org/dc/dcmitype/StillImage" />
        <dc:title></dc:title>
      </cc:Work>
    </rdf:RDF>
  </metadata>
  <g
     id="layer1">
    <g
       style="fill:#ffffff"
       transform="matrix(2.4865467,0,0,2.4865467,-202.46987,-283.70866)"
       id="g954">
      <path
         id="path847"
         style="opacity:1;fill:#ffffff;stroke:none;stroke-width:0.23255856;stroke-linecap:round;paint-order:stroke fill markers;fill-opacity:1;stroke-miterlimit:4;stroke-dasharray:none"
         d="m 353.15039,436.02734 a 4.9550052,4.9550052 0 0 0 -4.84766,4.95508 4.9550052,4.9550052 0 0 0 0.94727,2.91211 l -5.47461,5.24609 a 4.9550052,4.9550052 0 0 0 -2.0293,-0.71289 l -0.15234,-3.29296 a 3.6603626,3.6603626 0 0 0 2.86914,-3.57227 3.6603626,3.6603626 0 0 0 -3.66016,-3.66016 3.6603626,3.6603626 0 0 0 -3.66015,3.66016 3.6603626,3.6603626 0 0 0 2.93945,3.58789 l 0.15039,3.33008 a 4.9550052,4.9550052 0 0 0 -4.02734,4.86719 4.9550052,4.9550052 0 0 0 0.0742,0.85351 l -9.10938,4.40625 a 4.9550052,4.9550052 0 0 0 -1.11914,-1.19922 l 3.92383,-6.14258 a 3.6603626,3.6603626 0 0 0 0.91797,0.11719 3.6603626,3.6603626 0 0 0 3.66015,-3.66015 3.6603626,3.6603626 0 0 0 -3.66015,-3.66016 3.6603626,3.6603626 0 0 0 -3.66016,3.66016 3.6603626,3.6603626 0 0 0 1.38477,2.86523 l -3.89649,6.0918 a 4.9550052,4.9550052 0 0 0 -1.68554,-0.29492 4.9550052,4.9550052 0 0 0 -4.95508,4.95507 4.9550052,4.9550052 0 0 0 4.95508,4.95313 4.9550052,4.9550052 0 0 0 1.14843,-0.13672 l 4.75391,7.71094 a 4.9550051,4.9550051 0 0 0 -1.53516,1.85937 l -3.13281,-0.69922 a 3.6603626,3.6603626 0 0 0 0.0156,-0.33984 3.6603626,3.6603626 0 0 0 -3.66016,-3.66016 3.6603626,3.6603626 0 0 0 -3.66016,3.66016 3.6603626,3.6603626 0 0 0 3.66016,3.66016 3.6603626,3.6603626 0 0 0 3.19141,-1.8711 l 3.15039,0.70313 a 4.9550051,4.9550051 0 0 0 -0.0469,0.67773 4.9550051,4.9550051 0 0 0 1.375,3.42383 l -2.26562,2.97852 a 3.6603626,3.6603626 0 0 0 -1.52149,-0.33204 3.6603626,3.6603626 0 0 0 -3.66015,3.66211 3.6603626,3.6603626 0 0 0 3.66015,3.66016 3.6603626,3.6603626 0 0 0 3.66016,-3.66016 3.6603626,3.6603626 0 0 0 -0.92578,-2.43554 l 2.25,-2.95313 a 4.9550051,4.9550051 0 0 0 2.38281,0.61133 4.9550051,4.9550051 0 0 0 0.18555,-0.006 l 1.26953,9.04688 a 4.9550051,4.9550051 0 0 0 -3.55274,4.7539 4.9550051,4.9550051 0 0 0 4.95508,4.95508 4.9550051,4.9550051 0 0 0 4.0332,-2.08203 l 7.54493,3.07812 a 3.6603626,3.6603626 0 0 0 -0.0605,0.65625 3.6603626,3.6603626 0 0 0 3.66016,3.66016 3.6603626,3.6603626 0 0 0 3.66015,-3.66016 3.6603626,3.6603626 0 0 0 -3.66015,-3.66211 3.6603626,3.6603626 0 0 0 -3.02735,1.60547 l -7.43554,-3.03125 a 4.9550051,4.9550051 0 0 0 0.24023,-1.51953 4.9550051,4.9550051 0 0 0 0,-0.0351 l 9.2832,-2.41211 a 4.955005,4.955005 0 0 0 4.59961,3.11523 4.955005,4.955005 0 0 0 3.14063,-1.12305 l 3.48047,3.05469 a 3.6603626,3.6603626 0 0 0 -0.45899,1.77539 3.6603626,3.6603626 0 0 0 3.66016,3.66016 3.6603626,3.6603626 0 0 0 3.66015,-3.66016 3.6603626,3.6603626 0 0 0 -3.66015,-3.66015 3.6603626,3.6603626 0 0 0 -2.20899,0.74023 l -3.46093,-3.03711 a 4.955005,4.955005 0 0 0 0.71289,-1.76172 l 11.83789,0.65625 a 4.374648,4.374648 0 0 0 4.32422,3.71289 4.374648,4.374648 0 0 0 4.375,-4.375 4.374648,4.374648 0 0 0 -4.375,-4.37304 4.374648,4.374648 0 0 0 -4.29102,3.52343 l -11.81445,-0.65039 a 4.955005,4.955005 0 0 0 -0.35938,-1.36914 l 4.85742,-2.78125 a 3.6603626,3.6603626 0 0 0 2.8125,1.32031 3.6603626,3.6603626 0 0 0 3.66016,-3.66015 3.6603626,3.6603626 0 0 0 -3.66016,-3.66016 3.6603626,3.6603626 0 0 0 -3.66015,3.66016 3.6603626,3.6603626 0 0 0 0.14258,1.0039 l -4.94727,2.83008 a 4.955005,4.955005 0 0 0 -3.76758,-1.73633 4.955005,4.955005 0 0 0 -4.95508,4.95508 4.955005,4.955005 0 0 0 0.0156,0.36524 l -9.18945,2.38672 a 4.9550051,4.9550051 0 0 0 -1.20703,-1.96875 l 1.69921,-2.66993 a 3.6603626,3.6603626 0 0 0 1.40625,0.2793 3.6603626,3.6603626 0 0 0 3.66016,-3.66016 3.6603626,3.6603626 0 0 0 -3.66016,-3.66015 3.6603626,3.6603626 0 0 0 -3.66211,3.66015 3.6603626,3.6603626 0 0 0 1.01172,2.52344 l -1.67773,2.63281 a 4.9550051,4.9550051 0 0 0 -2.1836,-0.55468 l -1.28124,-9.13477 a 4.9550051,4.9550051 0 0 0 3.2832,-4.66211 4.9550051,4.9550051 0 0 0 -4.95508,-4.95508 4.9550051,4.9550051 0 0 0 -1.59766,0.26368 l -4.67382,-7.58985 a 4.9550052,4.9550052 0 0 0 1.73828,-1.78711 l 2.76953,0.69336 a 3.6603626,3.6603626 0 0 0 -0.0215,0.38281 3.6603626,3.6603626 0 0 0 3.66016,3.66016 3.6603626,3.6603626 0 0 0 3.66016,-3.66016 3.6603626,3.6603626 0 0 0 -3.66016,-3.66015 3.6603626,3.6603626 0 0 0 -3.17383,1.83594 l -2.69531,-0.67383 a 4.9550052,4.9550052 0 0 0 0.10937,-1.02735 4.9550052,4.9550052 0 0 0 -0.1914,-1.36132 l 8.97265,-4.33204 a 4.9550052,4.9550052 0 0 0 4.38868,2.65625 4.9550052,4.9550052 0 0 0 4.95507,-4.95507 4.9550052,4.9550052 0 0 0 -1.1914,-3.22071 l 5.38476,-5.16406 a 4.9550052,4.9550052 0 0 0 2.41993,0.94336 l 0.0273,2.56641 a 3.6603626,3.6603626 0 0 0 -3.1582,3.625 3.6603626,3.6603626 0 0 0 3.66015,3.66015 3.6603626,3.6603626 0 0 0 3.66016,-3.66015 3.6603626,3.6603626 0 0 0 -2.64649,-3.51563 l -0.0312,-2.74414 a 4.9550052,4.9550052 0 0 0 1.875,-0.80664 l 6.01758,6.66211 a 5.3121483,5.3121483 0 0 0 -1.55273,3.75195 5.3121483,5.3121483 0 0 0 5.3125,5.3125 5.3121483,5.3121483 0 0 0 5.3125,-5.3125 5.3121483,5.3121483 0 0 0 -0.34961,-1.89258 l 1.85351,-1.11328 a 3.6603626,3.6603626 0 0 0 2.60352,1.08594 3.6603626,3.6603626 0 0 0 3.66016,-3.66016 3.6603626,3.6603626 0 0 0 -3.66016,-3.66015 3.6603626,3.6603626 0 0 0 -3.66016,3.66015 3.6603626,3.6603626 0 0 0 0.24024,1.30274 l -1.77344,1.0625 a 5.3121483,5.3121483 0 0 0 -4.22656,-2.0957 5.3121483,5.3121483 0 0 0 -2.54297,0.64843 l -6.14649,-6.80273 a 4.9550052,4.9550052 0 0 0 0.78907,-1.53711 l 4.77539,0.7793 a 3.6603626,3.6603626 0 0 0 3.66015,3.65234 3.6603626,3.6603626 0 0 0 3.66016,-3.66016 3.6603626,3.6603626 0 0 0 -3.66016,-3.66211 3.6603626,3.6603626 0 0 0 -3.34961,2.1875 l -4.86523,-0.79492 a 4.9550052,4.9550052 0 0 0 -4.95508,-4.91797 4.9550052,4.9550052 0 0 0 -0.10742,0 z"
         transform="scale(0.26458333)" />
    </g>
  </g>
</svg>
