<?xml version="1.0" encoding="UTF-8" standalone="no"?>
<svg
   xmlns:dc="http://purl.org/dc/elements/1.1/"
   xmlns:cc="http://creativecommons.org/ns#"
   xmlns:rdf="http://www.w3.org/1999/02/22-rdf-syntax-ns#"
   xmlns:svg="http://www.w3.org/2000/svg"
   xmlns="http://www.w3.org/2000/svg"
   xmlns:sodipodi="http://sodipodi.sourceforge.net/DTD/sodipodi-0.dtd"
   xmlns:inkscape="http://www.inkscape.org/namespaces/inkscape"
   sodipodi:docname="tegning.svg"
   inkscape:version="1.0 (4035a4fb49, 2020-05-01)"
   id="svg8"
   version="1.1"
   viewBox="0 0 210 297"
   height="297mm"
   width="210mm">
  <defs
     id="defs2">
    <inkscape:path-effect
       end_linecap_type="zerowidth"
       scale_width="1"
       miter_limit="4"
       linejoin_type="extrp_arc"
       start_linecap_type="zerowidth"
       interpolator_beta="0.2"
       interpolator_type="CubicBezierJohan"
       sort_points="true"
       offset_points="0,0.1322915"
       lpeversion="1"
       is_visible="true"
       id="path-effect1045"
       effect="powerstroke" />
    <inkscape:path-effect
       end_linecap_type="zerowidth"
       scale_width="1"
       miter_limit="4"
       linejoin_type="extrp_arc"
       start_linecap_type="zerowidth"
       interpolator_beta="0.2"
       interpolator_type="CubicBezierJohan"
       sort_points="true"
       offset_points="0,0.1322915"
       lpeversion="1"
       is_visible="true"
       id="path-effect1041"
       effect="powerstroke" />
    <inkscape:path-effect
       end_linecap_type="zerowidth"
       scale_width="1"
       miter_limit="4"
       linejoin_type="extrp_arc"
       start_linecap_type="zerowidth"
       interpolator_beta="0.2"
       interpolator_type="CubicBezierJohan"
       sort_points="true"
       offset_points="0,0.1322915"
       lpeversion="1"
       is_visible="true"
       id="path-effect1037"
       effect="powerstroke" />
    <inkscape:path-effect
       end_linecap_type="zerowidth"
       scale_width="1"
       miter_limit="4"
       linejoin_type="extrp_arc"
       start_linecap_type="zerowidth"
       interpolator_beta="0.2"
       interpolator_type="CubicBezierJohan"
       sort_points="true"
       offset_points="0,0.1322915"
       lpeversion="1"
       is_visible="true"
       id="path-effect1033"
       effect="powerstroke" />
    <inkscape:path-effect
       end_linecap_type="zerowidth"
       scale_width="1"
       miter_limit="4"
       linejoin_type="extrp_arc"
       start_linecap_type="zerowidth"
       interpolator_beta="0.2"
       interpolator_type="CubicBezierJohan"
       sort_points="true"
       offset_points="0,0.1322915"
       lpeversion="1"
       is_visible="true"
       id="path-effect1029"
       effect="powerstroke" />
    <inkscape:path-effect
       end_linecap_type="zerowidth"
       scale_width="1"
       miter_limit="4"
       linejoin_type="extrp_arc"
       start_linecap_type="zerowidth"
       interpolator_beta="0.2"
       interpolator_type="CubicBezierJohan"
       sort_points="true"
       offset_points="0,0.1322915"
       lpeversion="1"
       is_visible="true"
       id="path-effect1025"
       effect="powerstroke" />
    <inkscape:path-effect
       end_linecap_type="zerowidth"
       scale_width="1"
       miter_limit="4"
       linejoin_type="extrp_arc"
       start_linecap_type="zerowidth"
       interpolator_beta="0.2"
       interpolator_type="CubicBezierJohan"
       sort_points="true"
       offset_points="0,0.1322915"
       lpeversion="1"
       is_visible="true"
       id="path-effect1021"
       effect="powerstroke" />
    <inkscape:path-effect
       end_linecap_type="zerowidth"
       scale_width="1"
       miter_limit="4"
       linejoin_type="extrp_arc"
       start_linecap_type="zerowidth"
       interpolator_beta="0.2"
       interpolator_type="CubicBezierJohan"
       sort_points="true"
       offset_points="0,0.1322915"
       lpeversion="1"
       is_visible="true"
       id="path-effect1017"
       effect="powerstroke" />
    <inkscape:path-effect
       end_linecap_type="zerowidth"
       scale_width="1"
       miter_limit="4"
       linejoin_type="extrp_arc"
       start_linecap_type="zerowidth"
       interpolator_beta="0.2"
       interpolator_type="CubicBezierJohan"
       sort_points="true"
       offset_points="0,0.31345446"
       lpeversion="1"
       is_visible="true"
       id="path-effect1013"
       effect="powerstroke" />
    <inkscape:path-effect
       end_linecap_type="zerowidth"
       scale_width="1"
       miter_limit="4"
       linejoin_type="extrp_arc"
       start_linecap_type="zerowidth"
       interpolator_beta="0.2"
       interpolator_type="CubicBezierJohan"
       sort_points="true"
       offset_points="0,0.1322915"
       lpeversion="1"
       is_visible="true"
       id="path-effect1009"
       effect="powerstroke" />
    <inkscape:path-effect
       end_linecap_type="zerowidth"
       scale_width="1"
       miter_limit="4"
       linejoin_type="extrp_arc"
       start_linecap_type="zerowidth"
       interpolator_beta="0.2"
       interpolator_type="CubicBezierJohan"
       sort_points="true"
       offset_points="0,0.1322915"
       lpeversion="1"
       is_visible="true"
       id="path-effect1005"
       effect="powerstroke" />
  </defs>
  <sodipodi:namedview
     inkscape:window-maximized="1"
     inkscape:window-y="-8"
     inkscape:window-x="-8"
     inkscape:window-height="1017"
     inkscape:window-width="1920"
     inkscape:snap-nodes="false"
     showgrid="false"
     inkscape:document-rotation="0"
     inkscape:current-layer="g1064"
     inkscape:document-units="mm"
     inkscape:cy="552.78254"
     inkscape:cx="589.82243"
     inkscape:zoom="1.4"
     inkscape:pageshadow="2"
     inkscape:pageopacity="0.0"
     borderopacity="1.0"
     bordercolor="#666666"
     pagecolor="#ffffff"
     id="base" />
  <metadata
     id="metadata5">
    <rdf:RDF>
      <cc:Work
         rdf:about="">
        <dc:format>image/svg+xml</dc:format>
        <dc:type
           rdf:resource="http://purl.org/dc/dcmitype/StillImage" />
        <dc:title />
      </cc:Work>
    </rdf:RDF>
  </metadata>
  <g
     id="layer1"
     inkscape:groupmode="layer"
     inkscape:label="Lag 1">
    <g
       inkscape:export-ydpi="96"
       inkscape:export-xdpi="96"
       transform="translate(35.590599,13.229167)"
       id="g1078">
      <path
         d="m 70.811482,21.644667 c -21.80319,0.06048 -39.446164,17.752452 -39.44617,39.555724 -6.3e-5,2.28623 0.198866,4.566018 0.592212,6.815087 h 31.014643 c 0.826248,-1.360032 1.945187,-3.409383 2.049488,-4.681884 0.167043,-2.037929 -1.718759,-4.159435 -1.718759,-4.159435 0,0 -0.166844,0.434081 -0.534334,0.434081 -0.367501,0 -3.441076,-2.472412 -3.24063,-4.610571 0.200451,-2.138156 1.436357,-2.705777 1.770435,-2.705777 0.334092,0 1.436974,0.333854 1.503784,1.102257 0,0 0.968417,-0.768454 0.968417,-1.536857 0,-0.7684 -0.868323,-2.572559 -0.801502,-3.641637 0.0668,-1.069078 1.33604,-6.681404 8.051188,-6.614583 0,0 0.171188,-0.02069 0.463537,-0.01498 0.877054,0.01714 2.844197,0.273574 4.548045,2.052587 2.229302,2.327646 2.718128,4.194392 2.735749,4.263824 -0.282773,-0.258725 -0.947883,-0.842774 -1.26814,-0.908473 -0.410091,-0.08413 -0.998836,0.180745 -1.041281,0.321945 -0.0425,0.1412 -2.27e-4,0.229444 0.05633,0.229444 0.05659,0 0.822055,-0.256469 1.187524,-0.180869 0.31015,0.06416 0.8759,0.445719 1.066601,0.576709 -0.004,0.0431 -0.140721,1.463342 -0.1726,2.443779 -0.752049,-0.107926 -1.477944,-0.236161 -1.477944,-0.236161 0,0 0.470185,0.628292 1.476912,0.878498 0.008,0.113342 0.02159,0.19481 0.04289,0.228928 0.16705,0.267272 1.135102,0.901915 1.569413,2.171444 0.434322,1.269523 -0.166917,4.075853 -0.166915,4.576982 0,0.501134 0.534575,3.039951 0.100251,3.67471 -0.434311,0.634767 -4.108947,1.102622 -4.710306,1.837613 -0.601361,0.734989 -1.302655,1.570136 -1.569929,4.376479 -0.0042,0.04434 -0.0058,0.07856 -0.0098,0.121954 H 109.8825 c 0.39379,-2.250281 0.59463,-4.530093 0.5948,-6.815087 -9e-5,-21.846185 -17.710059,-39.55592 -39.556247,-39.555724 -0.03652,-5e-5 -0.07304,-5e-5 -0.109553,0 z m 0.481624,24.925094 c -2.008002,0 -3.307294,2.05517 -3.307292,2.05517 0,0 1.063138,-1.488281 3.401859,-1.653646 0.992241,-0.07016 2.48054,0.779283 2.575036,0.779283 0.0945,0 0.165436,-0.117973 0.09457,-0.306959 -0.0709,-0.188992 -0.756173,-0.873848 -2.764173,-0.873848 z m 3.425632,3.767728 c 0,0 -2.090973,0.661458 -2.858741,0.661458 -0.76776,0 -2.844271,-0.377753 -2.844271,-0.377753 0,0 0.753441,1.01574 2.407089,0.980299 1.653641,-0.03543 3.295923,-1.264004 3.295923,-1.264004 z m 3.011701,2.527493 c -0.732332,0 -1.216546,0.945163 -1.476396,0.945163 -0.25986,0 -0.566891,-0.189135 -0.566891,-0.189135 0,0 0.0946,0.578993 0.425297,0.614431 0.330734,0.03543 1.228198,-0.649713 1.535308,-0.673343 0.307099,-0.02363 1.039731,0.437182 1.039731,0.437182 0,0 -0.224719,-1.134298 -0.957049,-1.134298 z m 0.933276,2.138373 c -0.165359,0 -0.330581,0.259413 -0.472321,0.259413 -0.14174,0 -0.519938,-0.212389 -0.779799,-0.212389 -0.25986,0 -1.630227,0.756031 -2.268077,1.913578 0,0 2.17374,-0.732173 2.953306,-0.637685 0.779584,0.0945 1.559078,0.306956 1.559078,0.306956 0,0 -0.605477,-1.629873 -0.992187,-1.629873 z m -1.889808,2.315104 c -0.330726,0.0236 -1.465024,0.519348 -1.465024,0.519348 0,0 1.228788,0.0708 1.465024,0.236159 0.236233,0.165359 0.921388,0.354502 1.086758,0.354502 0.165359,0 0.424854,-0.165513 0.684712,-0.354502 0.25985,-0.188986 0.921391,-0.283186 0.921391,-0.283186 0,0 -0.614215,-0.401667 -0.826823,-0.425297 -0.212612,-0.0236 -0.684787,0.236162 -0.944645,0.236162 -0.259858,0 -0.590672,-0.306816 -0.921393,-0.283186 z"
         style="fill:#000000;stroke:none;stroke-width:0.79375;stroke-linecap:round"
         id="path923" />
      <text
         id="text835"
         y="85.385818"
         x="51.348217"
         style="font-style:normal;font-variant:normal;font-weight:normal;font-stretch:normal;font-size:18.7932px;line-height:1.25;font-family:'Courier New';-inkscape-font-specification:'Courier New';letter-spacing:0px;word-spacing:0px;fill:#000000;fill-opacity:1;stroke:none;stroke-width:0.469832"
         xml:space="preserve"><tspan
           style="font-style:normal;font-variant:normal;font-weight:normal;font-stretch:normal;font-family:'Great Vibes';-inkscape-font-specification:'Great Vibes';stroke-width:0.469832"
           y="85.385818"
           x="51.348217"
           id="tspan833"
           sodipodi:role="line">Jyoti</tspan></text>
      <text
         id="text839"
         y="72.231613"
         x="79.503204"
         style="font-style:normal;font-variant:normal;font-weight:normal;font-stretch:normal;font-size:4.24781px;line-height:1.25;font-family:'Noto Sans';-inkscape-font-specification:'Noto Sans, Normal';font-variant-ligatures:normal;font-variant-caps:normal;font-variant-numeric:normal;font-variant-east-asian:normal;letter-spacing:0px;word-spacing:0px;fill:#000000;fill-opacity:1;stroke:none;stroke-width:0.106196;"
         xml:space="preserve"><tspan
           style="font-style:normal;font-variant:normal;font-weight:normal;font-stretch:normal;font-size:4.2478098px;font-family:'Noto Sans';-inkscape-font-specification:'Noto Sans, Normal';font-variant-ligatures:normal;font-variant-caps:normal;font-variant-numeric:normal;font-variant-east-asian:normal;stroke-width:0.106196;"
           y="72.231613"
           x="79.503204"
           id="tspan837"
           sodipodi:role="line">Beauty Parlour</tspan></text>
    </g>
    <g
       inkscape:export-ydpi="96"
       inkscape:export-xdpi="96"
       transform="translate(56.726633,42.71131)"
       id="g1071">
      <path
         sodipodi:nodetypes="zczccccccccccczczccssscssccscccsccccccssssscccccccczzsccscscscscssccscsssscscsscssscsss"
         d="m 60.446475,90.107465 c -5.532858,-5.34447 -9.382694,-2.695022 -9.467053,-0.754666 -2.181842,-3.519821 -8.244245,-3.170372 -14.459879,-1.431658 -6.215634,1.738715 -25.893094,17.755899 -25.893094,17.755899 0,0 4.332173,-1.51017 6.17068,-1.70665 -1.547904,1.47965 -2.874325,6.14927 -4.901305,6.70872 3.111479,1.84471 6.183808,-1.0627 9.684992,-1.62273 -1.560523,1.65605 -3.497223,2.85748 -5.637899,3.49746 -4.015884,1.20005 -5.064624,1.66305 -8.5498773,-1.0294 0.8102248,3.78478 -0.09424,5.82065 3.3781003,7.96334 0.0069,0.0404 0.01257,0.0811 0.01964,0.12144 h 0.18035 c 0.807091,0.48164 6.571357,2.9698 7.453587,3.30102 4.489666,1.68496 8.152955,2.35662 11.996905,-0.094 0,0 -7.19269,1.91637 -9.302348,1.91624 -2.109658,-1.3e-4 -5.05735,-0.83667 -8.069201,-3.67892 1.386625,6.31914 6.02718,11.82959 14.353129,10.86032 8.325948,-0.96928 15.559553,-8.6174 16.45171,-16.98656 0.167042,-2.03793 -1.71876,-4.15944 -1.71876,-4.15944 0,0 -0.166844,0.43408 -0.534334,0.43408 -0.367501,0 -3.441076,-2.4724 -3.24063,-4.61057 0.200451,-2.13814 1.436357,-2.70577 1.770436,-2.70577 0.334092,0 1.436973,0.33386 1.503783,1.10226 0,0 0.968417,-0.76846 0.968417,-1.53686 0,-0.7684 -0.868323,-2.57256 -0.801502,-3.64164 0.0668,-1.069081 1.33604,-6.681404 8.051188,-6.614584 0,0 0.171189,-0.02069 0.463537,-0.01498 0.877054,0.01709 2.844197,0.273577 4.548045,2.052587 2.229302,2.327651 2.718128,4.194392 2.735749,4.263824 -0.282773,-0.258731 -0.947883,-0.842772 -1.26814,-0.908473 -0.410091,-0.0841 -0.99885,0.180745 -1.041278,0.321945 -0.0425,0.1412 -2.3e-4,0.229444 0.05633,0.229444 0.05659,0 0.822055,-0.256469 1.187524,-0.180869 0.31015,0.0642 0.875901,0.445719 1.066602,0.576709 -0.004,0.0431 -0.140722,1.463357 -0.172601,2.443787 -0.752049,-0.10792 -1.477944,-0.23616 -1.477944,-0.23616 0,0 0.470183,0.62829 1.476912,0.87849 0.008,0.11334 0.02159,0.19481 0.04289,0.22893 0.16705,0.26727 1.135103,0.90192 1.569413,2.17145 0.434322,1.26951 -0.166917,4.07585 -0.166915,4.57698 0,0.50114 0.534575,3.03995 0.100251,3.67471 -0.434311,0.63477 -4.108947,1.10262 -4.710306,1.83761 -0.60136,0.73499 -1.302654,1.57013 -1.569929,4.37648 -0.0042,0.0443 -0.0058,0.0786 -0.0098,0.12195 h 29.56202 c -3.863702,-1.31772 -6.900426,-4.11565 -8.352462,-7.69565 3.447762,2.29401 7.708998,3.18092 11.868007,2.47013 1.215761,-0.20798 2.404528,-0.54956 3.542938,-1.01802 5.29e-4,-0.0446 7.94e-4,-0.0892 0.0016,-0.13384 -3.819728,0.1305 -7.427102,-1.22428 -10.020059,-3.76308 3.27261,0.58386 6.685754,0.13018 9.754442,-1.29656 0,0 -17.114338,-10.3074 -22.130184,-15.327458 -5.015849,-5.020061 -0.930786,2.607177 -6.463644,-2.737292 z M 50.12636,98.163443 c -2.008002,0 -3.307294,2.055167 -3.307292,2.055167 0,0 1.063139,-1.488298 3.401859,-1.653641 0.992241,-0.0702 2.480541,0.77928 2.575037,0.77928 0.0945,0 0.165436,-0.11797 0.09457,-0.306959 -0.0709,-0.188989 -0.756174,-0.873847 -2.764174,-0.873847 z m 3.425632,3.767727 c 0,0 -2.090973,0.66146 -2.858741,0.66146 -0.76776,0 -2.844271,-0.37776 -2.844271,-0.37776 0,0 0.753457,1.01573 2.407087,0.98031 1.653643,-0.0354 3.295925,-1.26401 3.295925,-1.26401 z m 3.011702,2.5275 c -0.732333,0 -1.216547,0.94516 -1.476397,0.94516 -0.25986,0 -0.56689,-0.18914 -0.56689,-0.18914 0,0 0.0946,0.57899 0.425296,0.61443 0.330735,0.0354 1.228199,-0.64971 1.535308,-0.67334 0.3071,-0.0236 1.039731,0.43718 1.039731,0.43718 0,0 -0.224719,-1.13429 -0.957048,-1.13429 z m 0.933275,2.13837 c -0.165359,0 -0.330581,0.25941 -0.472321,0.25941 -0.14174,0 -0.519938,-0.21239 -0.779798,-0.21239 -0.259861,0 -1.630228,0.75603 -2.26808,1.91358 0,0 2.173742,-0.73218 2.953308,-0.63769 0.779584,0.0945 1.559078,0.30696 1.559078,0.30696 0,0 -0.605477,-1.62987 -0.992187,-1.62987 z m -1.889808,2.3151 c -0.330723,0.0236 -1.465027,0.51935 -1.465027,0.51935 0,0 1.228792,0.0708 1.465027,0.23616 0.236234,0.16536 0.921388,0.3545 1.086758,0.3545 0.165359,0 0.424855,-0.16551 0.684712,-0.3545 0.25985,-0.18899 0.921391,-0.28319 0.921391,-0.28319 0,0 -0.614215,-0.40167 -0.826823,-0.4253 -0.212611,-0.0236 -0.684787,0.23617 -0.944645,0.23617 -0.259858,0 -0.590671,-0.30682 -0.921393,-0.28319 z"
         style="fill:#000000;stroke:none;stroke-width:0.79375;stroke-linecap:round"
         id="path944" />
      <text
         id="text948"
         y="136.71228"
         x="39.001446"
         style="font-style:normal;font-variant:normal;font-weight:normal;font-stretch:normal;font-size:18.7932px;line-height:1.25;font-family:'Courier New';-inkscape-font-specification:'Courier New';letter-spacing:0px;word-spacing:0px;fill:#000000;fill-opacity:1;stroke:none;stroke-width:0.469832"
         xml:space="preserve"><tspan
           style="font-style:normal;font-variant:normal;font-weight:normal;font-stretch:normal;font-family:'Great Vibes';-inkscape-font-specification:'Great Vibes';stroke-width:0.469832"
           y="136.71228"
           x="39.001446"
           id="tspan946"
           sodipodi:role="line">Jyoti</tspan></text>
      <text
         id="text952"
         y="142.53421"
         x="62.612854"
         style="font-style:normal;font-variant:normal;font-weight:normal;font-stretch:normal;font-size:4.24781px;line-height:1.25;font-family:'Noto Sans Mono CJK TC';-inkscape-font-specification:'Noto Sans Mono CJK TC, Normal';font-variant-ligatures:normal;font-variant-caps:normal;font-variant-numeric:normal;font-variant-east-asian:normal;letter-spacing:0px;word-spacing:0px;fill:#000000;fill-opacity:1;stroke:none;stroke-width:0.106196"
         xml:space="preserve"><tspan
           style="font-style:normal;font-variant:normal;font-weight:normal;font-stretch:normal;font-size:4.24781px;font-family:'Noto Sans';-inkscape-font-specification:'Noto Sans';font-variant-ligatures:normal;font-variant-caps:normal;font-variant-numeric:normal;font-variant-east-asian:normal;stroke-width:0.106196"
           y="142.53421"
           x="62.612854"
           id="tspan950"
           sodipodi:role="line">Beauty Parlour</tspan></text>
    </g>
    <g
       inkscape:export-ydpi="96"
       inkscape:export-xdpi="96"
       transform="translate(17.733247,51.404762)"
       id="g1064">
      <path
         transform="scale(0.26458333)"
         d="m 427.12695,582.32031 a 28.84007,122.41863 74.957629 0 0 -90.68359,14.21485 28.84007,122.41863 74.957629 0 0 -38.97461,12.11914 c -80.70474,-5.29227 -216.583507,-1.50322 -213.429688,62.04687 2.3839,48.03561 15.838647,65.34606 15.416016,68.6875 l 24.910152,-5.05078 c 1.58488,-3.31071 2.83403,-6.60571 3.03907,-9.10742 0.63137,-7.70241 -6.4961,-15.7207 -6.4961,-15.7207 0,0 -0.6306,1.64062 -2.01953,1.64062 -1.38898,0 -13.0056,-9.34455 -12.24805,-17.42578 0.75762,-8.0812 5.42874,-10.22656 6.69141,-10.22656 1.2627,0 5.43109,1.26182 5.68359,4.16601 0,0 3.66016,-2.9044 3.66016,-5.80859 0,-2.90419 -3.28185,-9.72306 -3.0293,-13.76367 0.25248,-4.04066 5.04959,-25.25255 30.42969,-25 0,0 0.64702,-0.0782 1.75195,-0.0566 3.31488,0.0646 10.74971,1.03399 17.18946,7.75781 8.4257,8.79742 10.2732,15.85282 10.33984,16.11523 -1.06878,-0.97791 -3.58258,-3.18524 -4.79297,-3.43359 -1.54995,-0.31786 -3.77514,0.68313 -3.93554,1.2168 -0.16063,0.53367 -7.8e-4,0.86718 0.21289,0.86718 0.21392,0 3.10698,-0.96928 4.48828,-0.68359 1.17222,0.24265 3.3105,1.68461 4.03125,2.17969 -0.0151,0.1629 -0.53186,5.53076 -0.65235,9.23633 -2.8424,-0.40789 -5.58593,-0.89258 -5.58593,-0.89258 0,0 1.77707,2.37463 5.58203,3.32031 0.0302,0.42837 0.0816,0.73624 0.16211,0.86523 0.63137,1.01012 4.29016,3.40881 5.93164,8.20704 1.64153,4.79818 -0.6309,15.40479 -0.63086,17.29882 0,1.89408 2.02042,11.48958 0.37891,13.88868 -1.6415,2.39913 -15.52988,4.16743 -17.80274,6.94531 -1.54476,1.8881 -3.26335,3.95596 -4.52344,8.41406 h 48.7168 c 0,0 183.71805,1.46301 207.19141,2.73633 9.0127,0.42916 18.33067,0.69153 26.41406,0.56836 7.85064,-0.11641 16.81033,-0.72098 26.3457,-1.5957 9.36151,-0.85743 19.08373,-1.96053 28.67969,-2.9629 9.59475,-1.00323 18.81113,-1.86752 27.125,-2.39257 8.49589,-0.53677 15.80685,-0.68747 21.50976,-0.17383 30.56334,2.83827 37.74415,9.57031 37.74415,9.57031 0,0 -6.128,-10.08017 -37.20313,-18.11719 -5.92978,-1.52269 -13.45689,-2.36541 -22.05078,-2.84961 -8.4257,-0.47308 -17.76573,-0.60911 -27.39453,-0.62695 -9.68323,-0.0189 -19.31381,0.081 -28.64649,-0.0664 -9.49795,-0.14589 -18.23079,-0.52752 -25.77148,-1.36718 -4.43543,-0.48454 -9.62253,-1.21961 -14.57617,-1.87891 4.87222,-0.30614 9.95521,-0.51373 14.33984,-0.96875 7.84146,-0.81059 16.78336,-2.25816 26.27735,-3.98828 9.32113,-1.70071 18.99435,-3.66392 28.54492,-5.52734 9.54924,-1.86407 18.73833,-3.57188 27.02343,-4.8418 8.46656,-1.29804 15.76498,-2.06242 21.47657,-2.05078 30.61088,0.0835 38.01367,6.0957 38.01367,6.0957 0,0 -6.49295,-9.45743 -37.77735,-14.69922 -5.96903,-0.99186 -13.48883,-1.20144 -22.08593,-0.91015 -8.42873,0.29178 -17.74365,1.02865 -27.35938,1.88086 -9.6706,0.85435 -19.32148,1.81156 -28.64648,2.50585 -6.25134,0.4667 -11.50417,0.49263 -16.97852,0.62696 6.16766,-1.79698 12.41288,-3.63272 19.41211,-6.03907 3.36299,-0.35639 6.66208,-0.67732 10.01172,-1.02734 9.59467,-1.00335 18.8443,-1.92417 27.1582,-2.44922 8.49585,-0.53677 15.77349,-0.68908 21.47657,-0.17578 30.56315,2.83828 37.77734,9.57031 37.77734,9.57031 0,0 -6.16079,-10.08028 -37.23633,-18.11718 -4.82933,-1.24271 -11.29987,-1.81962 -17.95898,-2.33594 4.65758,-1.60736 9.60778,-3.38841 13.86718,-4.72852 8.35733,-2.62839 15.58639,-4.52285 21.27344,-5.41406 30.4817,-4.74176 38.1836,0.0644 38.1836,0.0644 0,0 -4.11804,-4.77812 -19.71875,-7.23632 -1.09267,-0.96265 -2.84172,-2.27759 -5.54688,-3.75977 h -0.0371 c -5.52215,-3.01946 -14.95706,-6.72567 -30.57422,-9.34375 h -0.0391 c -5.96489,-0.98861 -13.50191,-1.20336 -22.08594,-0.91211 -8.42865,0.29178 -17.74554,1.02961 -27.36132,1.87891 -9.67064,0.85428 -19.31976,1.81454 -28.64454,2.50586 -6.23898,0.46352 -11.48011,0.49262 -16.94531,0.62695 6.26888,-1.82903 12.62841,-3.69939 19.75195,-6.15234 9.18539,-3.16332 18.70065,-6.66387 28.10547,-10.02735 9.40358,-3.36283 18.47229,-6.54461 26.65039,-9.11719 8.35718,-2.62835 15.55135,-4.52089 21.23828,-5.41211 30.48178,-4.74178 38.1836,0.11719 38.1836,0.11719 -8.71907,-13.17528 -13.44807,-8.71793 -38.41797,-8.71679 l 0.008,0.0117 c -5.46826,-0.0579 -12.23877,0.82989 -19.85742,2.22657 a 22.828128,96.899493 89.841588 0 0 -90.07031,-14.48047 22.828128,96.899493 89.841588 0 0 -25.3711,0.83008 32.960037,134.66067 74.951006 0 1 61.41993,-7.67774 28.84007,122.41863 74.957629 0 0 -30.65821,-5.69336 z m 15.70703,23.33008 a 26.089256,106.58959 89.834965 0 1 62.19336,5.01758 c -7.11679,1.48098 -14.71105,3.2781 -22.53906,5.2207 -9.58038,2.37751 -19.13009,4.84483 -28.375,7.00781 -9.40807,2.20245 -18.06915,3.98103 -25.60156,5.01368 -7.89067,1.08812 -17.01906,2.15816 -25.97461,3.07617 -5.04374,0.51893 -9.41424,0.87594 -14.17188,1.31055 h -9.52539 c -7.86611,-2.74794 -13.02237,-12.10798 -22.38672,-16.13282 a 26.089256,106.58959 89.834965 0 1 85.36329,-10.51172 26.089256,106.58959 89.834965 0 1 1.01757,-0.002 z m 88.38282,45.28125 c 21.27225,0.0831 29.1852,2.49988 33.2539,4.27148 -4.53619,-0.59462 -9.35574,-1.1399 -15.79492,-1.19531 -5.99818,-0.0635 -13.50746,0.97686 -22.05078,2.61914 -8.37604,1.61322 -17.5969,3.79024 -27.12305,6.1543 -9.58,2.37744 -19.13185,4.84471 -28.37695,7.00781 -3.38098,0.79072 -6.02759,1.15133 -9.19922,1.82227 -2.74322,-0.0113 -5.58884,-0.0115 -8.28516,-0.0625 -9.49794,-0.14589 -18.23079,-0.5296 -25.77148,-1.36914 -4.43535,-0.48454 -9.6225,-1.22252 -14.57617,-1.87891 4.87226,-0.30312 9.9554,-0.4844 14.33984,-0.96875 7.84131,-0.7731 16.78355,-2.2579 26.27735,-3.98828 9.32095,-1.6978 18.99417,-3.66231 28.54492,-5.52539 h 0.0391 c 9.53673,-1.86119 18.71357,-3.57723 26.98828,-4.84375 8.21044,-1.26172 25.8694,-1.99461 21.73438,-2.04297 z m -380.10938,10.93945 c -7.58933,0 -12.50004,7.76758 -12.5,7.76758 0,0 4.01816,-5.62502 12.85742,-6.25 3.7502,-0.26532 9.37526,2.94531 9.73243,2.94531 0.35716,0 0.62512,-0.44586 0.35742,-1.16015 -0.26797,-0.71429 -2.85798,-3.30274 -10.44727,-3.30274 z m 12.94727,14.24024 c 0,0 -7.90288,2.5 -10.80469,2.5 -2.90177,0 -10.75,-1.42774 -10.75,-1.42774 0,0 2.84768,3.83907 9.09766,3.70508 6.24998,-0.13379 12.45703,-4.77734 12.45703,-4.77734 z m 11.38281,9.55273 c -2.76786,0 -4.59797,3.57227 -5.58008,3.57227 -0.98215,0 -2.14258,-0.71485 -2.14258,-0.71485 0,0 0.35755,2.18832 1.60743,2.32227 1.25,0.1338 4.642,-2.45561 5.80273,-2.54492 1.1607,-0.0892 3.92969,1.65234 3.92969,1.65234 0,0 -0.84932,-4.28711 -3.61719,-4.28711 z m 3.52734,8.08203 c -0.62499,0 -1.24944,0.98047 -1.78515,0.98047 -0.53571,0 -1.96513,-0.80273 -2.94727,-0.80273 -0.98215,0 -6.16149,2.85743 -8.57226,7.23242 0,0 8.21574,-2.76728 11.16211,-2.41016 2.94648,0.35717 5.89257,1.16016 5.89257,1.16016 0,0 -2.28842,-6.16016 -3.75,-6.16016 z m -7.14257,8.75 c -1.25,0.0892 -5.53711,1.96289 -5.53711,1.96289 0,0 4.64423,0.2676 5.53711,0.89258 0.89283,0.62499 3.4824,1.33985 4.10742,1.33985 0.62498,0 1.60574,-0.62555 2.58789,-1.33985 0.98211,-0.71429 3.48242,-1.07031 3.48242,-1.07031 0,0 -2.32147,-1.51811 -3.125,-1.60742 -0.8036,-0.0892 -2.58816,0.89258 -3.57031,0.89258 -0.98215,0 -2.23247,-1.15963 -3.48242,-1.07032 z"
         style="fill:#000000;stroke:none;stroke-width:3;stroke-linecap:round"
         id="path989" />
      <text
         id="text993"
         y="184.17171"
         x="56.486671"
         style="font-style:normal;font-variant:normal;font-weight:normal;font-stretch:normal;font-size:22.8519px;line-height:1.25;font-family:'Courier New';-inkscape-font-specification:'Courier New';letter-spacing:0px;word-spacing:0px;fill:#ffffff;fill-opacity:1;stroke:none;stroke-width:0.5713"
         xml:space="preserve"><tspan
           style="font-style:normal;font-variant:normal;font-weight:normal;font-stretch:normal;font-family:'Great Vibes';-inkscape-font-specification:'Great Vibes';fill:#ffffff;stroke-width:0.5713"
           y="184.17171"
           x="56.486671"
           id="tspan991"
           sodipodi:role="line">Jyoti</tspan></text>
      <text
         id="text997"
         y="203.62192"
         x="56.145039"
         style="font-style:normal;font-variant:normal;font-weight:normal;font-stretch:normal;font-size:8.58607px;line-height:1.25;font-family:'Noto Sans';-inkscape-font-specification:'Noto Sans';font-variant-ligatures:normal;font-variant-caps:normal;font-variant-numeric:normal;font-variant-east-asian:normal;letter-spacing:0px;word-spacing:0px;fill:#000000;fill-opacity:1;stroke:none;stroke-width:0.214653;"
         xml:space="preserve"><tspan
           style="font-style:normal;font-variant:normal;font-weight:normal;font-stretch:normal;font-size:8.58607px;font-family:'Noto Sans';-inkscape-font-specification:'Noto Sans';font-variant-ligatures:normal;font-variant-caps:normal;font-variant-numeric:normal;font-variant-east-asian:normal;stroke-width:0.214653;"
           y="203.62192"
           x="56.145039"
           id="tspan995"
           sodipodi:role="line">Beauty Parlour</tspan></text>
    </g>
  </g>
</svg>
