<?xml version="1.0" encoding="UTF-8" standalone="no"?>
<svg
   xmlns:dc="http://purl.org/dc/elements/1.1/"
   xmlns:cc="http://creativecommons.org/ns#"
   xmlns:rdf="http://www.w3.org/1999/02/22-rdf-syntax-ns#"
   xmlns:svg="http://www.w3.org/2000/svg"
   xmlns="http://www.w3.org/2000/svg"
   id="svg8"
   version="1.1"
   viewBox="0 0 210 297"
   height="297mm"
   width="210mm">
  <defs
     id="defs2" />
  <metadata
     id="metadata5">
    <rdf:RDF>
      <cc:Work
         rdf:about="">
        <dc:format>image/svg+xml</dc:format>
        <dc:type
           rdf:resource="http://purl.org/dc/dcmitype/StillImage" />
        <dc:title></dc:title>
      </cc:Work>
    </rdf:RDF>
  </metadata>
  <g
     style="opacity:0.60349127"
     id="layer2">
    <path
       d="m 89.404075,91.053114 -0.47284,0.0475 -0.047,0.212401 -2.28875,0.36018 2.13785,0.0672 -0.13332,5.745905 -0.46768,0.20051 0.0667,1.13584 h -4.07572 l -0.0672,0.33435 4.00906,0.13384 0.0672,2.40502 -3.80855,-0.0667 -0.93586,0.80202 -1.26917,0.0667 -0.40101,1.20251 -2.72283,0.20051 -0.16692,-1.00201 -0.70176,0.0331 -0.0336,-1.63659 -0.31161,-0.0129 -0.18862,1.65365 -0.89814,0.047 -0.14159,0.94516 h -1.98437 c 0,0 1.4e-4,-0.80334 0.18913,-1.18132 0.18899,-0.37798 0.66146,-0.33073 0.66146,-0.33073 v -0.75602 c 0,0 -0.2834,-0.0945 -0.89762,0.33073 -0.61421,0.42522 -0.7798,2.03191 -0.7798,2.03191 l -6.213058,0.18862 0.259932,-0.61391 h 1.181323 l 0.117823,-0.37827 h -1.795239 l -0.472324,1.03972 -1.228349,-1.51205 h -4.44159 l -0.850077,0.0946 -0.472839,-2.4567 c -1.417405,0 -1.322917,1.79524 -1.322917,1.79524 l 0.56741,0.0946 0.188618,0.75603 -1.322916,0.0941 -0.472324,0.94516 -12.284003,0.2837 c 0.09449,-2.17336 -1.512054,-2.83497 -1.512054,-2.83497 v -0.85059 l -2.834968,-1.6061 -0.189138,-2.45722 -7.559228,-0.56689 0.850596,2.55127 -1.322916,2.36264 -4.252455,0.37776 3.590996,0.56689 -3.118673,7.18147 -8.409823,0.47284 -0.09457,1.88981 -2.362132,0.0946 -2.7404,5.66942 -1.13378,-0.18914 -1.417486,2.45722 -7.4651772,0.94464 0.256316,6.22805 c 2.4768833,-0.0632 5.1065132,-0.1064 7.3034312,-0.0858 6.136843,0.0576 13.326364,1.41246 20.977529,1.51205 7.651165,0.0996 17.864558,-1.04909 24.757144,-0.94516 6.892592,0.10393 10.062527,1.25535 16.442418,1.13378 6.37988,-0.12157 14.49245,-1.99801 21.544422,-2.07842 5.623343,-0.0641 11.317333,1.39018 16.534393,1.80971 l 5.44205,-7.71994 1.1746,-2.21641 -0.37775,-1.70119 -9.0718,-1.51153 -3.02359,-7.46518 v -0.85059 l 1.60662,-0.37776 1.22835,-3.0241 -0.47284,-1.60611 h -9.44904 l -0.661453,-1.79523 -0.18914,1.8898 -9.118822,0.047 0.0475,-2.59829 2.64583,0.16536 0.4961,-0.47284 0.047,-0.63769 -0.23616,-0.44907 -1.70119,0.0238 -0.094,-1.20458 0.89762,-0.11834 -0.0238,-0.21239 -2.05517,-0.0475 -0.0476,0.25993 0.80357,0.0238 0.0946,1.29915 -1.51205,0.0238 z m 1.32292,18.828316 h 16.819655 l 0.47283,1.03921 H 90.726995 Z m -49.467786,2.07894 0.189135,1.03922 -23.8125,0.80305 0.377756,-1.18081 z m 67.468761,0.42478 0.56689,1.32292 -18.709975,0.33073 -0.047,-1.46451 z m -67.374193,1.98438 0.141594,1.22887 -24.615553,0.70848 0.425297,-1.22835 z"
       style="fill:#000000;stroke:#000000;stroke-width:0.264583px;stroke-linecap:butt;stroke-linejoin:miter;stroke-opacity:1"
       id="path878" />
    <path
       style="fill:#000000;stroke:#000000;stroke-width:0.264583px;stroke-linecap:butt;stroke-linejoin:miter;stroke-opacity:1"
       d="m 3.6385388,83.556336 1.228423,-1.13393 -0.283482,-6.89806 7.4650302,-0.94494 1.41741,-2.45685 1.133928,0.18899 2.740329,-5.66964 2.362351,-0.0945 0.09449,-1.88988 8.409969,-0.47247 3.118305,-7.181545 -3.590774,-0.566963 4.252232,-0.377976 1.322917,-2.362353 -0.850448,-2.551337 7.559525,0.566962 0.188989,2.456847 2.83482,1.606399 v 0.850445 c 0,0 1.606399,0.661458 1.511906,2.834822 l 12.284232,-0.283481 0.47247,-0.94494 1.32291,-0.09449 -0.18898,-0.755953 -0.56697,-0.09449 c 0,0 -0.0945,-1.795387 1.32292,-1.795387 l 0.47247,2.456838 0.85044,-0.0945 h 4.441234 l 1.22842,1.511905 0.47247,-1.039434 h 1.79539 l -0.11812,0.377976 h -1.18118 l -0.25986,0.614211 6.21299,-0.188988 c 0,0 0.16536,-1.606399 0.77957,-2.031622 0.61422,-0.425223 0.8977,-0.330729 0.8977,-0.330729 v 0.755952 c 0,0 -0.47247,-0.04725 -0.66146,0.33073 -0.18899,0.377976 -0.18899,1.181175 -0.18899,1.181175 h 1.98438 l 0.14174,-0.94494 0.89769,-0.04725 0.18899,-1.653646 0.31165,0.01283 0.0334,1.637026 0.70159,-0.03341 0.16704,1.002261 2.72281,-0.200453 0.4009,-1.202712 1.26953,-0.06682 0.93545,-0.801808 3.80859,0.06682 -0.0668,-2.405426 -4.00904,-0.133635 0.0668,-0.334086 h 4.07586 l -0.0668,-1.135896 0.46772,-0.200452 0.13363,-5.746295 -2.13815,-0.06682 2.28887,-0.360238 0.0472,-0.212612 0.47247,-0.04725 0.0709,6.661831 1.5119,-0.02362 -0.0945,-1.299293 -0.8032,-0.02362 0.0473,-0.259858 2.05524,0.04725 0.0236,0.212611 -0.89769,0.118118 0.0945,1.204799 1.70089,-0.02362 0.23623,0.448846 -0.0472,0.637835 -0.4961,0.47247 -2.64583,-0.165364 -0.0472,2.598586 9.118682,-0.04725 0.18899,-1.889881 0.66145,1.795387 h 9.449413 l 0.47247,1.606399 -1.22842,3.023809 -1.6064,0.377976 v 0.850447 l 3.02381,7.465028 9.07143,1.51191 0.37797,1.70089 -1.1748,2.21627 -5.7463,8.15172 z"
       id="path882" />
    <path
       id="path900"
       style="fill:#000000;stroke:#000000;stroke-width:0.264583px;stroke-linecap:butt;stroke-linejoin:miter;stroke-opacity:1"
       d="m 88.869535,3.6559806 -0.47284,0.04754 -0.047,0.212391 -2.28874,0.3601828 2.13785,0.06718 -0.13333,5.7459026 -0.46767,0.200504 0.0667,1.135848 h -4.07572 l -0.0672,0.334346 4.00906,0.133842 0.0672,2.40502 -3.80855,-0.06666 -0.93586,0.802018 -1.26917,0.06666 -0.40101,1.202513 -2.72283,0.200504 -0.16692,-1.002007 -0.70177,0.03307 -0.0336,-1.636593 -0.31161,-0.01292 -0.18862,1.653646 -0.89814,0.04703 -0.14159,0.945161 h -1.98438 c 0,0 1.5e-4,-0.803347 0.18914,-1.181323 0.18899,-0.377981 0.66146,-0.330729 0.66146,-0.330729 v -0.756025 c 0,0 -0.2834,-0.09449 -0.89762,0.330729 -0.61421,0.425222 -0.7798,2.031918 -0.7798,2.031918 l -6.21306,0.188619 0.25994,-0.613918 h 1.18132 l 0.11782,-0.37827 h -1.79524 l -0.47232,1.039728 -1.22835,-1.512052 h -4.44159 l -0.850078,0.09457 -0.472839,-2.456695 c -1.417405,0 -1.322917,1.795237 -1.322917,1.795237 l 0.56741,0.09457 0.188619,0.756029 -1.322917,0.09405 -0.472324,0.945163 -12.284003,0.283704 c 0.09444,-2.173363 -1.512104,-2.83497 -1.512104,-2.83497 v -0.850593 l -2.834968,-1.606103 -0.189138,-2.4572136 -7.559227,-0.566891 0.850595,2.5512656 -1.322916,2.362644 -4.252455,0.377756 3.590996,0.566891 -3.118672,7.181472 -8.409824,0.472839 -0.09457,1.889808 -2.362131,0.09457 -2.740401,5.669423 -1.133779,-0.189137 -1.417487,2.457214 -7.4651762,0.944647 0.283704,6.898286 -1.228867,1.133781 108.4564342,-0.02635 5.74642,-8.151439 1.17461,-2.216404 -0.37776,-1.701189 -9.07179,-1.511535 -3.02359,-7.465176 v -0.850601 l 1.60662,-0.377757 1.22835,-3.024105 -0.47284,-1.606103 h -9.449043 l -0.66146,-1.795237 -0.18913,1.889805 -9.118832,0.04703 0.0476,-2.598291 2.64583,0.165365 0.49609,-0.47284 0.047,-0.637688 -0.23616,-0.449069 -1.70119,0.02377 -0.094,-1.2045786 0.89762,-0.118338 -0.0238,-0.212391 -2.05518,-0.04754 -0.0475,0.259932 0.80357,0.02377 0.0946,1.2991456 -1.51205,0.02377 z m 1.32292,18.8283074 H 107.0121 l 0.47284,1.039214 H 90.192455 Z m -49.467785,2.078944 0.189135,1.039212 -23.8125,0.803053 0.377757,-1.180806 z m 67.46875,0.424778 0.5669,1.322917 -18.709985,0.330729 -0.047,-1.464508 z m -67.374182,1.984375 0.141594,1.228868 -24.615552,0.708483 0.425296,-1.228349 z" />
  </g>
</svg>
